<?xml version="1.0" encoding="utf-8" standalone="no"?>
<!DOCTYPE svg PUBLIC "-//W3C//DTD SVG 1.1//EN"
  "http://www.w3.org/Graphics/SVG/1.1/DTD/svg11.dtd">
<svg xmlns:xlink="http://www.w3.org/1999/xlink" width="1008pt" height="576pt" viewBox="0 0 1008 576" xmlns="http://www.w3.org/2000/svg" version="1.1">
 <metadata>
  <rdf:RDF xmlns:dc="http://purl.org/dc/elements/1.1/" xmlns:cc="http://creativecommons.org/ns#" xmlns:rdf="http://www.w3.org/1999/02/22-rdf-syntax-ns#">
   <cc:Work>
    <dc:type rdf:resource="http://purl.org/dc/dcmitype/StillImage"/>
    <dc:date>2025-12-01T20:46:25.545423</dc:date>
    <dc:format>image/svg+xml</dc:format>
    <dc:creator>
     <cc:Agent>
      <dc:title>Matplotlib v3.8.4, https://matplotlib.org/</dc:title>
     </cc:Agent>
    </dc:creator>
   </cc:Work>
  </rdf:RDF>
 </metadata>
 <defs>
  <style type="text/css">*{stroke-linejoin: round; stroke-linecap: butt}</style>
 </defs>
 <g id="figure_1">
  <g id="patch_1">
   <path d="M 0 576 
L 1008 576 
L 1008 0 
L 0 0 
z
" style="fill: #ffffff"/>
  </g>
  <g id="axes_1">
   <g id="patch_2">
    <path d="M 69.77 265.27 
L 997.2 265.27 
L 997.2 26.88 
L 69.77 26.88 
z
" style="fill: #ffffff"/>
   </g>
   <g id="matplotlib.axis_1">
    <g id="xtick_1">
     <g id="line2d_1">
      <path d="M 224.0926 265.27 
L 224.0926 26.88 
" clip-path="url(#p2a6d768ecb)" style="fill: none; stroke: #b0b0b0; stroke-width: 0.8; stroke-linecap: square"/>
     </g>
     <g id="line2d_2">
      <defs>
       <path id="m5121786d4a" d="M 0 0 
L 0 3.5 
" style="stroke: #000000; stroke-width: 0.8"/>
      </defs>
      <g>
       <use xlink:href="#m5121786d4a" x="224.0926" y="265.27" style="stroke: #000000; stroke-width: 0.8"/>
      </g>
     </g>
    </g>
    <g id="xtick_2">
     <g id="line2d_3">
      <path d="M 382.062731 265.27 
L 382.062731 26.88 
" clip-path="url(#p2a6d768ecb)" style="fill: none; stroke: #b0b0b0; stroke-width: 0.8; stroke-linecap: square"/>
     </g>
     <g id="line2d_4">
      <g>
       <use xlink:href="#m5121786d4a" x="382.062731" y="265.27" style="stroke: #000000; stroke-width: 0.8"/>
      </g>
     </g>
    </g>
    <g id="xtick_3">
     <g id="line2d_5">
      <path d="M 540.032862 265.27 
L 540.032862 26.88 
" clip-path="url(#p2a6d768ecb)" style="fill: none; stroke: #b0b0b0; stroke-width: 0.8; stroke-linecap: square"/>
     </g>
     <g id="line2d_6">
      <g>
       <use xlink:href="#m5121786d4a" x="540.032862" y="265.27" style="stroke: #000000; stroke-width: 0.8"/>
      </g>
     </g>
    </g>
    <g id="xtick_4">
     <g id="line2d_7">
      <path d="M 698.002993 265.27 
L 698.002993 26.88 
" clip-path="url(#p2a6d768ecb)" style="fill: none; stroke: #b0b0b0; stroke-width: 0.8; stroke-linecap: square"/>
     </g>
     <g id="line2d_8">
      <g>
       <use xlink:href="#m5121786d4a" x="698.002993" y="265.27" style="stroke: #000000; stroke-width: 0.8"/>
      </g>
     </g>
    </g>
    <g id="xtick_5">
     <g id="line2d_9">
      <path d="M 855.973124 265.27 
L 855.973124 26.88 
" clip-path="url(#p2a6d768ecb)" style="fill: none; stroke: #b0b0b0; stroke-width: 0.8; stroke-linecap: square"/>
     </g>
     <g id="line2d_10">
      <g>
       <use xlink:href="#m5121786d4a" x="855.973124" y="265.27" style="stroke: #000000; stroke-width: 0.8"/>
      </g>
     </g>
    </g>
   </g>
   <g id="matplotlib.axis_2">
    <g id="ytick_1">
     <g id="line2d_11">
      <path d="M 69.77 255.461332 
L 997.2 255.461332 
" clip-path="url(#p2a6d768ecb)" style="fill: none; stroke: #b0b0b0; stroke-width: 0.8; stroke-linecap: square"/>
     </g>
     <g id="line2d_12">
      <defs>
       <path id="m7523b8a507" d="M 0 0 
L -3.5 0 
" style="stroke: #000000; stroke-width: 0.8"/>
      </defs>
      <g>
       <use xlink:href="#m7523b8a507" x="69.77" y="255.461332" style="stroke: #000000; stroke-width: 0.8"/>
      </g>
     </g>
     <g id="text_1">
      <!-- 0 -->
      <g transform="translate(56.4075 259.26055) scale(0.1 -0.1)">
       <defs>
        <path id="DejaVuSans-30" d="M 2034 4250 
Q 1547 4250 1301 3770 
Q 1056 3291 1056 2328 
Q 1056 1369 1301 889 
Q 1547 409 2034 409 
Q 2525 409 2770 889 
Q 3016 1369 3016 2328 
Q 3016 3291 2770 3770 
Q 2525 4250 2034 4250 
z
M 2034 4750 
Q 2819 4750 3233 4129 
Q 3647 3509 3647 2328 
Q 3647 1150 3233 529 
Q 2819 -91 2034 -91 
Q 1250 -91 836 529 
Q 422 1150 422 2328 
Q 422 3509 836 4129 
Q 1250 4750 2034 4750 
z
" transform="scale(0.015625)"/>
       </defs>
       <use xlink:href="#DejaVuSans-30"/>
      </g>
     </g>
    </g>
    <g id="ytick_2">
     <g id="line2d_13">
      <path d="M 69.77 213.188055 
L 997.2 213.188055 
" clip-path="url(#p2a6d768ecb)" style="fill: none; stroke: #b0b0b0; stroke-width: 0.8; stroke-linecap: square"/>
     </g>
     <g id="line2d_14">
      <g>
       <use xlink:href="#m7523b8a507" x="69.77" y="213.188055" style="stroke: #000000; stroke-width: 0.8"/>
      </g>
     </g>
     <g id="text_2">
      <!-- 20000 -->
      <g transform="translate(30.9575 216.987273) scale(0.1 -0.1)">
       <defs>
        <path id="DejaVuSans-32" d="M 1228 531 
L 3431 531 
L 3431 0 
L 469 0 
L 469 531 
Q 828 903 1448 1529 
Q 2069 2156 2228 2338 
Q 2531 2678 2651 2914 
Q 2772 3150 2772 3378 
Q 2772 3750 2511 3984 
Q 2250 4219 1831 4219 
Q 1534 4219 1204 4116 
Q 875 4013 500 3803 
L 500 4441 
Q 881 4594 1212 4672 
Q 1544 4750 1819 4750 
Q 2544 4750 2975 4387 
Q 3406 4025 3406 3419 
Q 3406 3131 3298 2873 
Q 3191 2616 2906 2266 
Q 2828 2175 2409 1742 
Q 1991 1309 1228 531 
z
" transform="scale(0.015625)"/>
       </defs>
       <use xlink:href="#DejaVuSans-32"/>
       <use xlink:href="#DejaVuSans-30" x="63.623047"/>
       <use xlink:href="#DejaVuSans-30" x="127.246094"/>
       <use xlink:href="#DejaVuSans-30" x="190.869141"/>
       <use xlink:href="#DejaVuSans-30" x="254.492188"/>
      </g>
     </g>
    </g>
    <g id="ytick_3">
     <g id="line2d_15">
      <path d="M 69.77 170.914778 
L 997.2 170.914778 
" clip-path="url(#p2a6d768ecb)" style="fill: none; stroke: #b0b0b0; stroke-width: 0.8; stroke-linecap: square"/>
     </g>
     <g id="line2d_16">
      <g>
       <use xlink:href="#m7523b8a507" x="69.77" y="170.914778" style="stroke: #000000; stroke-width: 0.8"/>
      </g>
     </g>
     <g id="text_3">
      <!-- 40000 -->
      <g transform="translate(30.9575 174.713996) scale(0.1 -0.1)">
       <defs>
        <path id="DejaVuSans-34" d="M 2419 4116 
L 825 1625 
L 2419 1625 
L 2419 4116 
z
M 2253 4666 
L 3047 4666 
L 3047 1625 
L 3713 1625 
L 3713 1100 
L 3047 1100 
L 3047 0 
L 2419 0 
L 2419 1100 
L 313 1100 
L 313 1709 
L 2253 4666 
z
" transform="scale(0.015625)"/>
       </defs>
       <use xlink:href="#DejaVuSans-34"/>
       <use xlink:href="#DejaVuSans-30" x="63.623047"/>
       <use xlink:href="#DejaVuSans-30" x="127.246094"/>
       <use xlink:href="#DejaVuSans-30" x="190.869141"/>
       <use xlink:href="#DejaVuSans-30" x="254.492188"/>
      </g>
     </g>
    </g>
    <g id="ytick_4">
     <g id="line2d_17">
      <path d="M 69.77 128.641501 
L 997.2 128.641501 
" clip-path="url(#p2a6d768ecb)" style="fill: none; stroke: #b0b0b0; stroke-width: 0.8; stroke-linecap: square"/>
     </g>
     <g id="line2d_18">
      <g>
       <use xlink:href="#m7523b8a507" x="69.77" y="128.641501" style="stroke: #000000; stroke-width: 0.8"/>
      </g>
     </g>
     <g id="text_4">
      <!-- 60000 -->
      <g transform="translate(30.9575 132.440719) scale(0.1 -0.1)">
       <defs>
        <path id="DejaVuSans-36" d="M 2113 2584 
Q 1688 2584 1439 2293 
Q 1191 2003 1191 1497 
Q 1191 994 1439 701 
Q 1688 409 2113 409 
Q 2538 409 2786 701 
Q 3034 994 3034 1497 
Q 3034 2003 2786 2293 
Q 2538 2584 2113 2584 
z
M 3366 4563 
L 3366 3988 
Q 3128 4100 2886 4159 
Q 2644 4219 2406 4219 
Q 1781 4219 1451 3797 
Q 1122 3375 1075 2522 
Q 1259 2794 1537 2939 
Q 1816 3084 2150 3084 
Q 2853 3084 3261 2657 
Q 3669 2231 3669 1497 
Q 3669 778 3244 343 
Q 2819 -91 2113 -91 
Q 1303 -91 875 529 
Q 447 1150 447 2328 
Q 447 3434 972 4092 
Q 1497 4750 2381 4750 
Q 2619 4750 2861 4703 
Q 3103 4656 3366 4563 
z
" transform="scale(0.015625)"/>
       </defs>
       <use xlink:href="#DejaVuSans-36"/>
       <use xlink:href="#DejaVuSans-30" x="63.623047"/>
       <use xlink:href="#DejaVuSans-30" x="127.246094"/>
       <use xlink:href="#DejaVuSans-30" x="190.869141"/>
       <use xlink:href="#DejaVuSans-30" x="254.492188"/>
      </g>
     </g>
    </g>
    <g id="ytick_5">
     <g id="line2d_19">
      <path d="M 69.77 86.368224 
L 997.2 86.368224 
" clip-path="url(#p2a6d768ecb)" style="fill: none; stroke: #b0b0b0; stroke-width: 0.8; stroke-linecap: square"/>
     </g>
     <g id="line2d_20">
      <g>
       <use xlink:href="#m7523b8a507" x="69.77" y="86.368224" style="stroke: #000000; stroke-width: 0.8"/>
      </g>
     </g>
     <g id="text_5">
      <!-- 80000 -->
      <g transform="translate(30.9575 90.167442) scale(0.1 -0.1)">
       <defs>
        <path id="DejaVuSans-38" d="M 2034 2216 
Q 1584 2216 1326 1975 
Q 1069 1734 1069 1313 
Q 1069 891 1326 650 
Q 1584 409 2034 409 
Q 2484 409 2743 651 
Q 3003 894 3003 1313 
Q 3003 1734 2745 1975 
Q 2488 2216 2034 2216 
z
M 1403 2484 
Q 997 2584 770 2862 
Q 544 3141 544 3541 
Q 544 4100 942 4425 
Q 1341 4750 2034 4750 
Q 2731 4750 3128 4425 
Q 3525 4100 3525 3541 
Q 3525 3141 3298 2862 
Q 3072 2584 2669 2484 
Q 3125 2378 3379 2068 
Q 3634 1759 3634 1313 
Q 3634 634 3220 271 
Q 2806 -91 2034 -91 
Q 1263 -91 848 271 
Q 434 634 434 1313 
Q 434 1759 690 2068 
Q 947 2378 1403 2484 
z
M 1172 3481 
Q 1172 3119 1398 2916 
Q 1625 2713 2034 2713 
Q 2441 2713 2670 2916 
Q 2900 3119 2900 3481 
Q 2900 3844 2670 4047 
Q 2441 4250 2034 4250 
Q 1625 4250 1398 4047 
Q 1172 3844 1172 3481 
z
" transform="scale(0.015625)"/>
       </defs>
       <use xlink:href="#DejaVuSans-38"/>
       <use xlink:href="#DejaVuSans-30" x="63.623047"/>
       <use xlink:href="#DejaVuSans-30" x="127.246094"/>
       <use xlink:href="#DejaVuSans-30" x="190.869141"/>
       <use xlink:href="#DejaVuSans-30" x="254.492188"/>
      </g>
     </g>
    </g>
    <g id="ytick_6">
     <g id="line2d_21">
      <path d="M 69.77 44.094947 
L 997.2 44.094947 
" clip-path="url(#p2a6d768ecb)" style="fill: none; stroke: #b0b0b0; stroke-width: 0.8; stroke-linecap: square"/>
     </g>
     <g id="line2d_22">
      <g>
       <use xlink:href="#m7523b8a507" x="69.77" y="44.094947" style="stroke: #000000; stroke-width: 0.8"/>
      </g>
     </g>
     <g id="text_6">
      <!-- 100000 -->
      <g transform="translate(24.595 47.894165) scale(0.1 -0.1)">
       <defs>
        <path id="DejaVuSans-31" d="M 794 531 
L 1825 531 
L 1825 4091 
L 703 3866 
L 703 4441 
L 1819 4666 
L 2450 4666 
L 2450 531 
L 3481 531 
L 3481 0 
L 794 0 
L 794 531 
z
" transform="scale(0.015625)"/>
       </defs>
       <use xlink:href="#DejaVuSans-31"/>
       <use xlink:href="#DejaVuSans-30" x="63.623047"/>
       <use xlink:href="#DejaVuSans-30" x="127.246094"/>
       <use xlink:href="#DejaVuSans-30" x="190.869141"/>
       <use xlink:href="#DejaVuSans-30" x="254.492188"/>
       <use xlink:href="#DejaVuSans-30" x="318.115234"/>
      </g>
     </g>
    </g>
    <g id="text_7">
     <!-- Pressure Value -->
     <g transform="translate(18.515313 182.739844) rotate(-90) scale(0.1 -0.1)">
      <defs>
       <path id="DejaVuSans-50" d="M 1259 4147 
L 1259 2394 
L 2053 2394 
Q 2494 2394 2734 2622 
Q 2975 2850 2975 3272 
Q 2975 3691 2734 3919 
Q 2494 4147 2053 4147 
L 1259 4147 
z
M 628 4666 
L 2053 4666 
Q 2838 4666 3239 4311 
Q 3641 3956 3641 3272 
Q 3641 2581 3239 2228 
Q 2838 1875 2053 1875 
L 1259 1875 
L 1259 0 
L 628 0 
L 628 4666 
z
" transform="scale(0.015625)"/>
       <path id="DejaVuSans-72" d="M 2631 2963 
Q 2534 3019 2420 3045 
Q 2306 3072 2169 3072 
Q 1681 3072 1420 2755 
Q 1159 2438 1159 1844 
L 1159 0 
L 581 0 
L 581 3500 
L 1159 3500 
L 1159 2956 
Q 1341 3275 1631 3429 
Q 1922 3584 2338 3584 
Q 2397 3584 2469 3576 
Q 2541 3569 2628 3553 
L 2631 2963 
z
" transform="scale(0.015625)"/>
       <path id="DejaVuSans-65" d="M 3597 1894 
L 3597 1613 
L 953 1613 
Q 991 1019 1311 708 
Q 1631 397 2203 397 
Q 2534 397 2845 478 
Q 3156 559 3463 722 
L 3463 178 
Q 3153 47 2828 -22 
Q 2503 -91 2169 -91 
Q 1331 -91 842 396 
Q 353 884 353 1716 
Q 353 2575 817 3079 
Q 1281 3584 2069 3584 
Q 2775 3584 3186 3129 
Q 3597 2675 3597 1894 
z
M 3022 2063 
Q 3016 2534 2758 2815 
Q 2500 3097 2075 3097 
Q 1594 3097 1305 2825 
Q 1016 2553 972 2059 
L 3022 2063 
z
" transform="scale(0.015625)"/>
       <path id="DejaVuSans-73" d="M 2834 3397 
L 2834 2853 
Q 2591 2978 2328 3040 
Q 2066 3103 1784 3103 
Q 1356 3103 1142 2972 
Q 928 2841 928 2578 
Q 928 2378 1081 2264 
Q 1234 2150 1697 2047 
L 1894 2003 
Q 2506 1872 2764 1633 
Q 3022 1394 3022 966 
Q 3022 478 2636 193 
Q 2250 -91 1575 -91 
Q 1294 -91 989 -36 
Q 684 19 347 128 
L 347 722 
Q 666 556 975 473 
Q 1284 391 1588 391 
Q 1994 391 2212 530 
Q 2431 669 2431 922 
Q 2431 1156 2273 1281 
Q 2116 1406 1581 1522 
L 1381 1569 
Q 847 1681 609 1914 
Q 372 2147 372 2553 
Q 372 3047 722 3315 
Q 1072 3584 1716 3584 
Q 2034 3584 2315 3537 
Q 2597 3491 2834 3397 
z
" transform="scale(0.015625)"/>
       <path id="DejaVuSans-75" d="M 544 1381 
L 544 3500 
L 1119 3500 
L 1119 1403 
Q 1119 906 1312 657 
Q 1506 409 1894 409 
Q 2359 409 2629 706 
Q 2900 1003 2900 1516 
L 2900 3500 
L 3475 3500 
L 3475 0 
L 2900 0 
L 2900 538 
Q 2691 219 2414 64 
Q 2138 -91 1772 -91 
Q 1169 -91 856 284 
Q 544 659 544 1381 
z
M 1991 3584 
L 1991 3584 
z
" transform="scale(0.015625)"/>
       <path id="DejaVuSans-20" transform="scale(0.015625)"/>
       <path id="DejaVuSans-56" d="M 1831 0 
L 50 4666 
L 709 4666 
L 2188 738 
L 3669 4666 
L 4325 4666 
L 2547 0 
L 1831 0 
z
" transform="scale(0.015625)"/>
       <path id="DejaVuSans-61" d="M 2194 1759 
Q 1497 1759 1228 1600 
Q 959 1441 959 1056 
Q 959 750 1161 570 
Q 1363 391 1709 391 
Q 2188 391 2477 730 
Q 2766 1069 2766 1631 
L 2766 1759 
L 2194 1759 
z
M 3341 1997 
L 3341 0 
L 2766 0 
L 2766 531 
Q 2569 213 2275 61 
Q 1981 -91 1556 -91 
Q 1019 -91 701 211 
Q 384 513 384 1019 
Q 384 1609 779 1909 
Q 1175 2209 1959 2209 
L 2766 2209 
L 2766 2266 
Q 2766 2663 2505 2880 
Q 2244 3097 1772 3097 
Q 1472 3097 1187 3025 
Q 903 2953 641 2809 
L 641 3341 
Q 956 3463 1253 3523 
Q 1550 3584 1831 3584 
Q 2591 3584 2966 3190 
Q 3341 2797 3341 1997 
z
" transform="scale(0.015625)"/>
       <path id="DejaVuSans-6c" d="M 603 4863 
L 1178 4863 
L 1178 0 
L 603 0 
L 603 4863 
z
" transform="scale(0.015625)"/>
      </defs>
      <use xlink:href="#DejaVuSans-50"/>
      <use xlink:href="#DejaVuSans-72" x="58.552734"/>
      <use xlink:href="#DejaVuSans-65" x="97.416016"/>
      <use xlink:href="#DejaVuSans-73" x="158.939453"/>
      <use xlink:href="#DejaVuSans-73" x="211.039062"/>
      <use xlink:href="#DejaVuSans-75" x="263.138672"/>
      <use xlink:href="#DejaVuSans-72" x="326.517578"/>
      <use xlink:href="#DejaVuSans-65" x="365.380859"/>
      <use xlink:href="#DejaVuSans-20" x="426.904297"/>
      <use xlink:href="#DejaVuSans-56" x="458.691406"/>
      <use xlink:href="#DejaVuSans-61" x="519.349609"/>
      <use xlink:href="#DejaVuSans-6c" x="580.628906"/>
      <use xlink:href="#DejaVuSans-75" x="608.412109"/>
      <use xlink:href="#DejaVuSans-65" x="671.791016"/>
     </g>
    </g>
   </g>
   <g id="line2d_23">
    <path d="M 111.925909 254.055745 
L 117.691818 253.831697 
L 120.53528 254.051518 
L 123.378744 254.159315 
L 126.222204 254.045177 
L 134.752592 254.402386 
L 140.439516 254.074768 
L 143.28298 254.235407 
L 160.343752 254.21427 
L 171.717602 254.184679 
L 174.561066 254.178338 
L 180.24799 254.434091 
L 188.778378 254.176224 
L 194.465302 254.275566 
L 208.682613 254.146633 
L 211.526075 254.157201 
L 214.369539 254.011358 
L 222.899925 254.04729 
L 228.586851 254.133951 
L 234.273775 254.076882 
L 237.117237 248.403808 
L 239.960701 253.677399 
L 242.804161 220.746516 
L 245.647625 210.288108 
L 248.491087 218.415145 
L 251.334549 224.940026 
L 254.178011 227.317897 
L 257.021473 235.387866 
L 259.864937 244.933172 
L 262.708399 241.599924 
L 268.395323 239.205143 
L 271.238787 239.148074 
L 274.082249 238.532998 
L 276.925709 236.56729 
L 279.769173 237.27114 
L 282.612635 236.858976 
L 285.456099 235.470299 
L 288.299559 233.75189 
L 291.143023 232.492146 
L 293.986485 232.92122 
L 296.829948 232.521738 
L 299.673409 232.955039 
L 302.51687 232.72465 
L 305.360334 230.649032 
L 308.203796 229.913477 
L 311.047258 231.145743 
L 313.89072 231.10981 
L 316.734184 237.309186 
L 319.577646 158.27084 
L 322.421106 201.091556 
L 325.26457 190.721921 
L 328.108032 56.857249 
L 330.951496 245.142425 
L 333.794956 113.391416 
L 336.63842 167.28773 
L 339.481882 216.476915 
L 342.325346 37.715909 
L 345.168806 246.552238 
L 348.012268 213.828495 
L 350.855732 58.586226 
L 353.699194 250.177172 
L 356.542656 151.862212 
L 359.386118 116.692959 
L 362.229582 251.54894 
L 365.073044 95.501365 
L 367.916506 187.369651 
L 370.759968 245.823024 
L 373.60343 51.560407 
L 376.446894 240.991189 
L 379.290354 206.707561 
L 382.133818 53.181587 
L 384.97728 250.566086 
L 387.820744 198.937733 
L 390.664204 66.495556 
L 393.507666 252.035082 
L 396.35113 185.33842 
L 399.194592 89.344262 
L 402.038054 251.39887 
L 404.881516 136.620582 
L 407.724979 119.732407 
L 410.568441 252.506429 
L 413.411903 118.789713 
L 416.255365 123.972417 
L 419.098827 252.52968 
L 421.942291 107.790207 
L 424.785751 148.689602 
L 427.629215 251.682101 
L 430.472677 101.142734 
L 433.316141 178.194236 
L 436.159601 251.567963 
L 439.003065 90.443367 
L 441.846527 160.128751 
L 444.689989 251.523576 
L 447.533451 89.519696 
L 450.376913 191.62657 
L 453.220377 248.985066 
L 456.063839 79.623522 
L 458.907303 222.980659 
L 461.750763 241.287102 
L 464.594225 67.907484 
L 467.437689 238.188471 
L 470.281151 208.890976 
L 473.124613 70.932136 
L 475.968075 246.09146 
L 478.811539 237.769965 
L 481.655001 70.718656 
L 484.498463 228.482526 
L 487.341925 236.679315 
L 490.185387 78.09323 
L 493.028851 243.339469 
L 495.872311 217.711295 
L 498.715775 93.937254 
L 501.559237 249.720621 
L 504.4027 194.420833 
L 507.246161 80.559875 
L 510.089624 249.705825 
L 512.933086 189.548838 
L 515.776548 76.825031 
L 518.62001 250.230014 
L 521.463472 189.470632 
L 524.306936 80.428828 
L 527.150398 249.414139 
L 529.99386 213.162691 
L 532.837322 84.292606 
L 535.680784 248.957588 
L 538.524248 247.139837 
L 541.367708 73.96313 
L 544.211172 238.702091 
L 547.054634 250.179286 
L 549.898098 79.847571 
L 552.741558 175.486632 
L 555.585022 251.971673 
L 558.428484 95.00254 
L 561.271946 148.450758 
L 564.115408 252.464156 
L 566.95887 120.552509 
L 569.802334 107.183585 
L 572.645796 251.965332 
L 575.489258 146.996557 
L 578.33272 84.298947 
L 581.176184 250.9085 
L 584.019646 190.702899 
L 586.863106 79.541089 
L 589.70657 249.109772 
L 592.550032 213.743948 
L 595.393496 60.194724 
L 598.236956 231.629772 
L 601.08042 250.859885 
L 603.923882 69.37648 
L 606.767344 154.768499 
L 609.610806 252.333109 
L 612.454268 138.784973 
L 615.297731 88.809505 
L 618.141193 252.320427 
L 620.984655 191.679411 
L 623.828117 55.009907 
L 626.671581 248.58981 
L 629.515043 245.406633 
L 632.358503 78.771716 
L 635.201967 217.297017 
L 638.045429 252.914367 
L 640.888893 91.434676 
L 643.732353 116.678163 
L 646.575817 252.755842 
L 649.419279 163.028698 
L 652.262743 79.371996 
L 655.106203 250.375856 
L 657.949665 246.987653 
L 660.793129 71.904422 
L 663.636591 206.308079 
L 666.480053 251.536258 
L 669.323515 86.626091 
L 672.166979 129.319987 
L 675.010441 252.599431 
L 677.853901 128.19129 
L 680.697365 103.723517 
L 683.540827 253.009481 
L 686.384291 172.700824 
L 689.227751 86.144175 
L 692.071215 249.109772 
L 694.914677 230.097365 
L 697.758141 62.209046 
L 700.601601 226.825414 
L 703.445063 251.589099 
L 706.288527 95.006768 
L 709.131989 124.428969 
L 711.975452 252.578294 
L 714.818913 172.821302 
L 717.662376 76.753167 
L 720.505838 249.581119 
L 723.349302 248.987179 
L 726.192762 66.569534 
L 729.036224 178.107576 
L 731.879688 251.472848 
L 734.72315 138.218511 
L 737.566612 95.338613 
L 740.410074 251.819489 
L 743.253538 188.555416 
L 746.097 73.396669 
L 748.94046 249.297888 
L 751.783924 244.749283 
L 754.627386 64.724306 
L 757.47085 220.596446 
L 760.31431 252.007605 
L 763.157774 92.967082 
L 766.001236 138.37915 
L 768.8447 252.521225 
L 771.68816 151.052678 
L 774.531622 87.194666 
L 777.375086 251.200185 
L 780.218548 214.959305 
L 783.06201 61.98077 
L 785.905472 237.402188 
L 788.748936 249.781917 
L 791.592398 76.256456 
L 794.43586 144.918826 
L 797.279322 252.267585 
L 800.122784 132.175547 
L 802.966248 95.932552 
L 805.809708 252.14922 
L 808.653172 188.445506 
L 811.496634 74.096291 
L 814.340097 252.624795 
L 817.183558 252.903798 
L 820.02702 253.034845 
L 839.931257 252.950299 
L 842.774719 253.155324 
L 845.618181 253.138415 
L 848.461645 253.354009 
L 851.305105 253.214507 
L 854.148569 253.427987 
L 856.992031 253.330758 
L 871.209343 253.795764 
L 874.052805 253.544238 
L 879.739731 253.453351 
L 882.583193 253.214507 
L 885.426655 253.514647 
L 899.643967 253.468147 
L 902.487429 253.079232 
L 905.330893 253.569602 
L 911.017817 253.394168 
L 913.861279 253.370918 
L 919.548203 253.601307 
L 922.391665 253.36035 
L 925.235128 253.622444 
L 928.07859 253.400509 
L 930.922052 253.57383 
L 933.765514 253.347668 
L 936.608978 253.480829 
L 936.608978 253.480829 
" clip-path="url(#p2a6d768ecb)" style="fill: none; stroke: #0000ff; stroke-opacity: 0.5; stroke-width: 1.5; stroke-linecap: square"/>
   </g>
   <g id="line2d_24">
    <defs>
     <path id="m14bdacb76a" d="M 0 4 
C 1.060812 4 2.078319 3.578535 2.828427 2.828427 
C 3.578535 2.078319 4 1.060812 4 0 
C 4 -1.060812 3.578535 -2.078319 2.828427 -2.828427 
C 2.078319 -3.578535 1.060812 -4 0 -4 
C -1.060812 -4 -2.078319 -3.578535 -2.828427 -2.828427 
C -3.578535 -2.078319 -4 -1.060812 -4 0 
C -4 1.060812 -3.578535 2.078319 -2.828427 2.828427 
C -2.078319 3.578535 -1.060812 4 0 4 
z
" style="stroke: #ff0000"/>
    </defs>
    <g clip-path="url(#p2a6d768ecb)">
     <use xlink:href="#m14bdacb76a" x="245.647625" y="210.288108" style="fill: #ff0000; stroke: #ff0000"/>
     <use xlink:href="#m14bdacb76a" x="308.203796" y="229.913477" style="fill: #ff0000; stroke: #ff0000"/>
     <use xlink:href="#m14bdacb76a" x="319.577646" y="158.27084" style="fill: #ff0000; stroke: #ff0000"/>
     <use xlink:href="#m14bdacb76a" x="328.108032" y="56.857249" style="fill: #ff0000; stroke: #ff0000"/>
     <use xlink:href="#m14bdacb76a" x="333.794956" y="113.391416" style="fill: #ff0000; stroke: #ff0000"/>
     <use xlink:href="#m14bdacb76a" x="342.325346" y="37.715909" style="fill: #ff0000; stroke: #ff0000"/>
     <use xlink:href="#m14bdacb76a" x="350.855732" y="58.586226" style="fill: #ff0000; stroke: #ff0000"/>
     <use xlink:href="#m14bdacb76a" x="359.386118" y="116.692959" style="fill: #ff0000; stroke: #ff0000"/>
     <use xlink:href="#m14bdacb76a" x="365.073044" y="95.501365" style="fill: #ff0000; stroke: #ff0000"/>
     <use xlink:href="#m14bdacb76a" x="373.60343" y="51.560407" style="fill: #ff0000; stroke: #ff0000"/>
     <use xlink:href="#m14bdacb76a" x="382.133818" y="53.181587" style="fill: #ff0000; stroke: #ff0000"/>
     <use xlink:href="#m14bdacb76a" x="390.664204" y="66.495556" style="fill: #ff0000; stroke: #ff0000"/>
     <use xlink:href="#m14bdacb76a" x="399.194592" y="89.344262" style="fill: #ff0000; stroke: #ff0000"/>
     <use xlink:href="#m14bdacb76a" x="407.724979" y="119.732407" style="fill: #ff0000; stroke: #ff0000"/>
     <use xlink:href="#m14bdacb76a" x="413.411903" y="118.789713" style="fill: #ff0000; stroke: #ff0000"/>
     <use xlink:href="#m14bdacb76a" x="421.942291" y="107.790207" style="fill: #ff0000; stroke: #ff0000"/>
     <use xlink:href="#m14bdacb76a" x="430.472677" y="101.142734" style="fill: #ff0000; stroke: #ff0000"/>
     <use xlink:href="#m14bdacb76a" x="439.003065" y="90.443367" style="fill: #ff0000; stroke: #ff0000"/>
     <use xlink:href="#m14bdacb76a" x="447.533451" y="89.519696" style="fill: #ff0000; stroke: #ff0000"/>
     <use xlink:href="#m14bdacb76a" x="456.063839" y="79.623522" style="fill: #ff0000; stroke: #ff0000"/>
     <use xlink:href="#m14bdacb76a" x="464.594225" y="67.907484" style="fill: #ff0000; stroke: #ff0000"/>
     <use xlink:href="#m14bdacb76a" x="473.124613" y="70.932136" style="fill: #ff0000; stroke: #ff0000"/>
     <use xlink:href="#m14bdacb76a" x="481.655001" y="70.718656" style="fill: #ff0000; stroke: #ff0000"/>
     <use xlink:href="#m14bdacb76a" x="490.185387" y="78.09323" style="fill: #ff0000; stroke: #ff0000"/>
     <use xlink:href="#m14bdacb76a" x="498.715775" y="93.937254" style="fill: #ff0000; stroke: #ff0000"/>
     <use xlink:href="#m14bdacb76a" x="507.246161" y="80.559875" style="fill: #ff0000; stroke: #ff0000"/>
     <use xlink:href="#m14bdacb76a" x="515.776548" y="76.825031" style="fill: #ff0000; stroke: #ff0000"/>
     <use xlink:href="#m14bdacb76a" x="524.306936" y="80.428828" style="fill: #ff0000; stroke: #ff0000"/>
     <use xlink:href="#m14bdacb76a" x="532.837322" y="84.292606" style="fill: #ff0000; stroke: #ff0000"/>
     <use xlink:href="#m14bdacb76a" x="541.367708" y="73.96313" style="fill: #ff0000; stroke: #ff0000"/>
     <use xlink:href="#m14bdacb76a" x="549.898098" y="79.847571" style="fill: #ff0000; stroke: #ff0000"/>
     <use xlink:href="#m14bdacb76a" x="558.428484" y="95.00254" style="fill: #ff0000; stroke: #ff0000"/>
     <use xlink:href="#m14bdacb76a" x="569.802334" y="107.183585" style="fill: #ff0000; stroke: #ff0000"/>
     <use xlink:href="#m14bdacb76a" x="578.33272" y="84.298947" style="fill: #ff0000; stroke: #ff0000"/>
     <use xlink:href="#m14bdacb76a" x="586.863106" y="79.541089" style="fill: #ff0000; stroke: #ff0000"/>
     <use xlink:href="#m14bdacb76a" x="595.393496" y="60.194724" style="fill: #ff0000; stroke: #ff0000"/>
     <use xlink:href="#m14bdacb76a" x="603.923882" y="69.37648" style="fill: #ff0000; stroke: #ff0000"/>
     <use xlink:href="#m14bdacb76a" x="615.297731" y="88.809505" style="fill: #ff0000; stroke: #ff0000"/>
     <use xlink:href="#m14bdacb76a" x="623.828117" y="55.009907" style="fill: #ff0000; stroke: #ff0000"/>
     <use xlink:href="#m14bdacb76a" x="632.358503" y="78.771716" style="fill: #ff0000; stroke: #ff0000"/>
     <use xlink:href="#m14bdacb76a" x="640.888893" y="91.434676" style="fill: #ff0000; stroke: #ff0000"/>
     <use xlink:href="#m14bdacb76a" x="652.262743" y="79.371996" style="fill: #ff0000; stroke: #ff0000"/>
     <use xlink:href="#m14bdacb76a" x="660.793129" y="71.904422" style="fill: #ff0000; stroke: #ff0000"/>
     <use xlink:href="#m14bdacb76a" x="669.323515" y="86.626091" style="fill: #ff0000; stroke: #ff0000"/>
     <use xlink:href="#m14bdacb76a" x="680.697365" y="103.723517" style="fill: #ff0000; stroke: #ff0000"/>
     <use xlink:href="#m14bdacb76a" x="689.227751" y="86.144175" style="fill: #ff0000; stroke: #ff0000"/>
     <use xlink:href="#m14bdacb76a" x="697.758141" y="62.209046" style="fill: #ff0000; stroke: #ff0000"/>
     <use xlink:href="#m14bdacb76a" x="706.288527" y="95.006768" style="fill: #ff0000; stroke: #ff0000"/>
     <use xlink:href="#m14bdacb76a" x="717.662376" y="76.753167" style="fill: #ff0000; stroke: #ff0000"/>
     <use xlink:href="#m14bdacb76a" x="726.192762" y="66.569534" style="fill: #ff0000; stroke: #ff0000"/>
     <use xlink:href="#m14bdacb76a" x="737.566612" y="95.338613" style="fill: #ff0000; stroke: #ff0000"/>
     <use xlink:href="#m14bdacb76a" x="746.097" y="73.396669" style="fill: #ff0000; stroke: #ff0000"/>
     <use xlink:href="#m14bdacb76a" x="754.627386" y="64.724306" style="fill: #ff0000; stroke: #ff0000"/>
     <use xlink:href="#m14bdacb76a" x="763.157774" y="92.967082" style="fill: #ff0000; stroke: #ff0000"/>
     <use xlink:href="#m14bdacb76a" x="774.531622" y="87.194666" style="fill: #ff0000; stroke: #ff0000"/>
     <use xlink:href="#m14bdacb76a" x="783.06201" y="61.98077" style="fill: #ff0000; stroke: #ff0000"/>
     <use xlink:href="#m14bdacb76a" x="791.592398" y="76.256456" style="fill: #ff0000; stroke: #ff0000"/>
     <use xlink:href="#m14bdacb76a" x="802.966248" y="95.932552" style="fill: #ff0000; stroke: #ff0000"/>
     <use xlink:href="#m14bdacb76a" x="811.496634" y="74.096291" style="fill: #ff0000; stroke: #ff0000"/>
    </g>
   </g>
   <g id="patch_3">
    <path d="M 69.77 265.27 
L 69.77 26.88 
" style="fill: none; stroke: #000000; stroke-width: 0.8; stroke-linejoin: miter; stroke-linecap: square"/>
   </g>
   <g id="patch_4">
    <path d="M 997.2 265.27 
L 997.2 26.88 
" style="fill: none; stroke: #000000; stroke-width: 0.8; stroke-linejoin: miter; stroke-linecap: square"/>
   </g>
   <g id="patch_5">
    <path d="M 69.77 265.27 
L 997.200001 265.27 
" style="fill: none; stroke: #000000; stroke-width: 0.8; stroke-linejoin: miter; stroke-linecap: square"/>
   </g>
   <g id="patch_6">
    <path d="M 69.77 26.88 
L 997.200001 26.88 
" style="fill: none; stroke: #000000; stroke-width: 0.8; stroke-linejoin: miter; stroke-linecap: square"/>
   </g>
   <g id="text_8">
    <!-- Pressure Signal with Peaks -->
    <g transform="translate(453.622187 20.88) scale(0.12 -0.12)">
     <defs>
      <path id="DejaVuSans-53" d="M 3425 4513 
L 3425 3897 
Q 3066 4069 2747 4153 
Q 2428 4238 2131 4238 
Q 1616 4238 1336 4038 
Q 1056 3838 1056 3469 
Q 1056 3159 1242 3001 
Q 1428 2844 1947 2747 
L 2328 2669 
Q 3034 2534 3370 2195 
Q 3706 1856 3706 1288 
Q 3706 609 3251 259 
Q 2797 -91 1919 -91 
Q 1588 -91 1214 -16 
Q 841 59 441 206 
L 441 856 
Q 825 641 1194 531 
Q 1563 422 1919 422 
Q 2459 422 2753 634 
Q 3047 847 3047 1241 
Q 3047 1584 2836 1778 
Q 2625 1972 2144 2069 
L 1759 2144 
Q 1053 2284 737 2584 
Q 422 2884 422 3419 
Q 422 4038 858 4394 
Q 1294 4750 2059 4750 
Q 2388 4750 2728 4690 
Q 3069 4631 3425 4513 
z
" transform="scale(0.015625)"/>
      <path id="DejaVuSans-69" d="M 603 3500 
L 1178 3500 
L 1178 0 
L 603 0 
L 603 3500 
z
M 603 4863 
L 1178 4863 
L 1178 4134 
L 603 4134 
L 603 4863 
z
" transform="scale(0.015625)"/>
      <path id="DejaVuSans-67" d="M 2906 1791 
Q 2906 2416 2648 2759 
Q 2391 3103 1925 3103 
Q 1463 3103 1205 2759 
Q 947 2416 947 1791 
Q 947 1169 1205 825 
Q 1463 481 1925 481 
Q 2391 481 2648 825 
Q 2906 1169 2906 1791 
z
M 3481 434 
Q 3481 -459 3084 -895 
Q 2688 -1331 1869 -1331 
Q 1566 -1331 1297 -1286 
Q 1028 -1241 775 -1147 
L 775 -588 
Q 1028 -725 1275 -790 
Q 1522 -856 1778 -856 
Q 2344 -856 2625 -561 
Q 2906 -266 2906 331 
L 2906 616 
Q 2728 306 2450 153 
Q 2172 0 1784 0 
Q 1141 0 747 490 
Q 353 981 353 1791 
Q 353 2603 747 3093 
Q 1141 3584 1784 3584 
Q 2172 3584 2450 3431 
Q 2728 3278 2906 2969 
L 2906 3500 
L 3481 3500 
L 3481 434 
z
" transform="scale(0.015625)"/>
      <path id="DejaVuSans-6e" d="M 3513 2113 
L 3513 0 
L 2938 0 
L 2938 2094 
Q 2938 2591 2744 2837 
Q 2550 3084 2163 3084 
Q 1697 3084 1428 2787 
Q 1159 2491 1159 1978 
L 1159 0 
L 581 0 
L 581 3500 
L 1159 3500 
L 1159 2956 
Q 1366 3272 1645 3428 
Q 1925 3584 2291 3584 
Q 2894 3584 3203 3211 
Q 3513 2838 3513 2113 
z
" transform="scale(0.015625)"/>
      <path id="DejaVuSans-77" d="M 269 3500 
L 844 3500 
L 1563 769 
L 2278 3500 
L 2956 3500 
L 3675 769 
L 4391 3500 
L 4966 3500 
L 4050 0 
L 3372 0 
L 2619 2869 
L 1863 0 
L 1184 0 
L 269 3500 
z
" transform="scale(0.015625)"/>
      <path id="DejaVuSans-74" d="M 1172 4494 
L 1172 3500 
L 2356 3500 
L 2356 3053 
L 1172 3053 
L 1172 1153 
Q 1172 725 1289 603 
Q 1406 481 1766 481 
L 2356 481 
L 2356 0 
L 1766 0 
Q 1100 0 847 248 
Q 594 497 594 1153 
L 594 3053 
L 172 3053 
L 172 3500 
L 594 3500 
L 594 4494 
L 1172 4494 
z
" transform="scale(0.015625)"/>
      <path id="DejaVuSans-68" d="M 3513 2113 
L 3513 0 
L 2938 0 
L 2938 2094 
Q 2938 2591 2744 2837 
Q 2550 3084 2163 3084 
Q 1697 3084 1428 2787 
Q 1159 2491 1159 1978 
L 1159 0 
L 581 0 
L 581 4863 
L 1159 4863 
L 1159 2956 
Q 1366 3272 1645 3428 
Q 1925 3584 2291 3584 
Q 2894 3584 3203 3211 
Q 3513 2838 3513 2113 
z
" transform="scale(0.015625)"/>
      <path id="DejaVuSans-6b" d="M 581 4863 
L 1159 4863 
L 1159 1991 
L 2875 3500 
L 3609 3500 
L 1753 1863 
L 3688 0 
L 2938 0 
L 1159 1709 
L 1159 0 
L 581 0 
L 581 4863 
z
" transform="scale(0.015625)"/>
     </defs>
     <use xlink:href="#DejaVuSans-50"/>
     <use xlink:href="#DejaVuSans-72" x="58.552734"/>
     <use xlink:href="#DejaVuSans-65" x="97.416016"/>
     <use xlink:href="#DejaVuSans-73" x="158.939453"/>
     <use xlink:href="#DejaVuSans-73" x="211.039062"/>
     <use xlink:href="#DejaVuSans-75" x="263.138672"/>
     <use xlink:href="#DejaVuSans-72" x="326.517578"/>
     <use xlink:href="#DejaVuSans-65" x="365.380859"/>
     <use xlink:href="#DejaVuSans-20" x="426.904297"/>
     <use xlink:href="#DejaVuSans-53" x="458.691406"/>
     <use xlink:href="#DejaVuSans-69" x="522.167969"/>
     <use xlink:href="#DejaVuSans-67" x="549.951172"/>
     <use xlink:href="#DejaVuSans-6e" x="613.427734"/>
     <use xlink:href="#DejaVuSans-61" x="676.806641"/>
     <use xlink:href="#DejaVuSans-6c" x="738.085938"/>
     <use xlink:href="#DejaVuSans-20" x="765.869141"/>
     <use xlink:href="#DejaVuSans-77" x="797.65625"/>
     <use xlink:href="#DejaVuSans-69" x="879.443359"/>
     <use xlink:href="#DejaVuSans-74" x="907.226562"/>
     <use xlink:href="#DejaVuSans-68" x="946.435547"/>
     <use xlink:href="#DejaVuSans-20" x="1009.814453"/>
     <use xlink:href="#DejaVuSans-50" x="1041.601562"/>
     <use xlink:href="#DejaVuSans-65" x="1098.279297"/>
     <use xlink:href="#DejaVuSans-61" x="1159.802734"/>
     <use xlink:href="#DejaVuSans-6b" x="1221.082031"/>
     <use xlink:href="#DejaVuSans-73" x="1278.992188"/>
    </g>
   </g>
   <g id="legend_1">
    <g id="patch_7">
     <path d="M 883.384375 64.23625 
L 990.2 64.23625 
Q 992.2 64.23625 992.2 62.23625 
L 992.2 33.88 
Q 992.2 31.88 990.2 31.88 
L 883.384375 31.88 
Q 881.384375 31.88 881.384375 33.88 
L 881.384375 62.23625 
Q 881.384375 64.23625 883.384375 64.23625 
z
" style="fill: #ffffff; opacity: 0.8; stroke: #cccccc; stroke-linejoin: miter"/>
    </g>
    <g id="line2d_25">
     <path d="M 885.384375 39.978437 
L 895.384375 39.978437 
L 905.384375 39.978437 
" style="fill: none; stroke: #0000ff; stroke-opacity: 0.5; stroke-width: 1.5; stroke-linecap: square"/>
    </g>
    <g id="text_9">
     <!-- Pressure -->
     <g transform="translate(913.384375 43.478437) scale(0.1 -0.1)">
      <use xlink:href="#DejaVuSans-50"/>
      <use xlink:href="#DejaVuSans-72" x="58.552734"/>
      <use xlink:href="#DejaVuSans-65" x="97.416016"/>
      <use xlink:href="#DejaVuSans-73" x="158.939453"/>
      <use xlink:href="#DejaVuSans-73" x="211.039062"/>
      <use xlink:href="#DejaVuSans-75" x="263.138672"/>
      <use xlink:href="#DejaVuSans-72" x="326.517578"/>
      <use xlink:href="#DejaVuSans-65" x="365.380859"/>
     </g>
    </g>
    <g id="line2d_26">
     <g>
      <use xlink:href="#m14bdacb76a" x="895.384375" y="54.656562" style="fill: #ff0000; stroke: #ff0000"/>
     </g>
    </g>
    <g id="text_10">
     <!-- Pressure Peaks -->
     <g transform="translate(913.384375 58.156562) scale(0.1 -0.1)">
      <use xlink:href="#DejaVuSans-50"/>
      <use xlink:href="#DejaVuSans-72" x="58.552734"/>
      <use xlink:href="#DejaVuSans-65" x="97.416016"/>
      <use xlink:href="#DejaVuSans-73" x="158.939453"/>
      <use xlink:href="#DejaVuSans-73" x="211.039062"/>
      <use xlink:href="#DejaVuSans-75" x="263.138672"/>
      <use xlink:href="#DejaVuSans-72" x="326.517578"/>
      <use xlink:href="#DejaVuSans-65" x="365.380859"/>
      <use xlink:href="#DejaVuSans-20" x="426.904297"/>
      <use xlink:href="#DejaVuSans-50" x="458.691406"/>
      <use xlink:href="#DejaVuSans-65" x="515.369141"/>
      <use xlink:href="#DejaVuSans-61" x="576.892578"/>
      <use xlink:href="#DejaVuSans-6b" x="638.171875"/>
      <use xlink:href="#DejaVuSans-73" x="696.082031"/>
     </g>
    </g>
   </g>
  </g>
  <g id="axes_2">
   <g id="patch_8">
    <path d="M 69.77 534.04 
L 997.2 534.04 
L 997.2 295.65 
L 69.77 295.65 
z
" style="fill: #ffffff"/>
   </g>
   <g id="matplotlib.axis_3">
    <g id="xtick_6">
     <g id="line2d_27">
      <path d="M 224.0926 534.04 
L 224.0926 295.65 
" clip-path="url(#p551c85bcbc)" style="fill: none; stroke: #b0b0b0; stroke-width: 0.8; stroke-linecap: square"/>
     </g>
     <g id="line2d_28">
      <g>
       <use xlink:href="#m5121786d4a" x="224.0926" y="534.04" style="stroke: #000000; stroke-width: 0.8"/>
      </g>
     </g>
     <g id="text_11">
      <!-- 60 -->
      <g transform="translate(217.7301 548.638438) scale(0.1 -0.1)">
       <use xlink:href="#DejaVuSans-36"/>
       <use xlink:href="#DejaVuSans-30" x="63.623047"/>
      </g>
     </g>
    </g>
    <g id="xtick_7">
     <g id="line2d_29">
      <path d="M 382.062731 534.04 
L 382.062731 295.65 
" clip-path="url(#p551c85bcbc)" style="fill: none; stroke: #b0b0b0; stroke-width: 0.8; stroke-linecap: square"/>
     </g>
     <g id="line2d_30">
      <g>
       <use xlink:href="#m5121786d4a" x="382.062731" y="534.04" style="stroke: #000000; stroke-width: 0.8"/>
      </g>
     </g>
     <g id="text_12">
      <!-- 80 -->
      <g transform="translate(375.700231 548.638438) scale(0.1 -0.1)">
       <use xlink:href="#DejaVuSans-38"/>
       <use xlink:href="#DejaVuSans-30" x="63.623047"/>
      </g>
     </g>
    </g>
    <g id="xtick_8">
     <g id="line2d_31">
      <path d="M 540.032862 534.04 
L 540.032862 295.65 
" clip-path="url(#p551c85bcbc)" style="fill: none; stroke: #b0b0b0; stroke-width: 0.8; stroke-linecap: square"/>
     </g>
     <g id="line2d_32">
      <g>
       <use xlink:href="#m5121786d4a" x="540.032862" y="534.04" style="stroke: #000000; stroke-width: 0.8"/>
      </g>
     </g>
     <g id="text_13">
      <!-- 100 -->
      <g transform="translate(530.489112 548.638438) scale(0.1 -0.1)">
       <use xlink:href="#DejaVuSans-31"/>
       <use xlink:href="#DejaVuSans-30" x="63.623047"/>
       <use xlink:href="#DejaVuSans-30" x="127.246094"/>
      </g>
     </g>
    </g>
    <g id="xtick_9">
     <g id="line2d_33">
      <path d="M 698.002993 534.04 
L 698.002993 295.65 
" clip-path="url(#p551c85bcbc)" style="fill: none; stroke: #b0b0b0; stroke-width: 0.8; stroke-linecap: square"/>
     </g>
     <g id="line2d_34">
      <g>
       <use xlink:href="#m5121786d4a" x="698.002993" y="534.04" style="stroke: #000000; stroke-width: 0.8"/>
      </g>
     </g>
     <g id="text_14">
      <!-- 120 -->
      <g transform="translate(688.459243 548.638438) scale(0.1 -0.1)">
       <use xlink:href="#DejaVuSans-31"/>
       <use xlink:href="#DejaVuSans-32" x="63.623047"/>
       <use xlink:href="#DejaVuSans-30" x="127.246094"/>
      </g>
     </g>
    </g>
    <g id="xtick_10">
     <g id="line2d_35">
      <path d="M 855.973124 534.04 
L 855.973124 295.65 
" clip-path="url(#p551c85bcbc)" style="fill: none; stroke: #b0b0b0; stroke-width: 0.8; stroke-linecap: square"/>
     </g>
     <g id="line2d_36">
      <g>
       <use xlink:href="#m5121786d4a" x="855.973124" y="534.04" style="stroke: #000000; stroke-width: 0.8"/>
      </g>
     </g>
     <g id="text_15">
      <!-- 140 -->
      <g transform="translate(846.429374 548.638438) scale(0.1 -0.1)">
       <use xlink:href="#DejaVuSans-31"/>
       <use xlink:href="#DejaVuSans-34" x="63.623047"/>
       <use xlink:href="#DejaVuSans-30" x="127.246094"/>
      </g>
     </g>
    </g>
    <g id="text_16">
     <!-- Time (s) -->
     <g transform="translate(513.156094 562.316562) scale(0.1 -0.1)">
      <defs>
       <path id="DejaVuSans-54" d="M -19 4666 
L 3928 4666 
L 3928 4134 
L 2272 4134 
L 2272 0 
L 1638 0 
L 1638 4134 
L -19 4134 
L -19 4666 
z
" transform="scale(0.015625)"/>
       <path id="DejaVuSans-6d" d="M 3328 2828 
Q 3544 3216 3844 3400 
Q 4144 3584 4550 3584 
Q 5097 3584 5394 3201 
Q 5691 2819 5691 2113 
L 5691 0 
L 5113 0 
L 5113 2094 
Q 5113 2597 4934 2840 
Q 4756 3084 4391 3084 
Q 3944 3084 3684 2787 
Q 3425 2491 3425 1978 
L 3425 0 
L 2847 0 
L 2847 2094 
Q 2847 2600 2669 2842 
Q 2491 3084 2119 3084 
Q 1678 3084 1418 2786 
Q 1159 2488 1159 1978 
L 1159 0 
L 581 0 
L 581 3500 
L 1159 3500 
L 1159 2956 
Q 1356 3278 1631 3431 
Q 1906 3584 2284 3584 
Q 2666 3584 2933 3390 
Q 3200 3197 3328 2828 
z
" transform="scale(0.015625)"/>
       <path id="DejaVuSans-28" d="M 1984 4856 
Q 1566 4138 1362 3434 
Q 1159 2731 1159 2009 
Q 1159 1288 1364 580 
Q 1569 -128 1984 -844 
L 1484 -844 
Q 1016 -109 783 600 
Q 550 1309 550 2009 
Q 550 2706 781 3412 
Q 1013 4119 1484 4856 
L 1984 4856 
z
" transform="scale(0.015625)"/>
       <path id="DejaVuSans-29" d="M 513 4856 
L 1013 4856 
Q 1481 4119 1714 3412 
Q 1947 2706 1947 2009 
Q 1947 1309 1714 600 
Q 1481 -109 1013 -844 
L 513 -844 
Q 928 -128 1133 580 
Q 1338 1288 1338 2009 
Q 1338 2731 1133 3434 
Q 928 4138 513 4856 
z
" transform="scale(0.015625)"/>
      </defs>
      <use xlink:href="#DejaVuSans-54"/>
      <use xlink:href="#DejaVuSans-69" x="57.958984"/>
      <use xlink:href="#DejaVuSans-6d" x="85.742188"/>
      <use xlink:href="#DejaVuSans-65" x="183.154297"/>
      <use xlink:href="#DejaVuSans-20" x="244.677734"/>
      <use xlink:href="#DejaVuSans-28" x="276.464844"/>
      <use xlink:href="#DejaVuSans-73" x="315.478516"/>
      <use xlink:href="#DejaVuSans-29" x="367.578125"/>
     </g>
    </g>
    <g id="text_17">
     <!-- +1.764593e9 -->
     <g transform="translate(928.589063 561.316562) scale(0.1 -0.1)">
      <defs>
       <path id="DejaVuSans-2b" d="M 2944 4013 
L 2944 2272 
L 4684 2272 
L 4684 1741 
L 2944 1741 
L 2944 0 
L 2419 0 
L 2419 1741 
L 678 1741 
L 678 2272 
L 2419 2272 
L 2419 4013 
L 2944 4013 
z
" transform="scale(0.015625)"/>
       <path id="DejaVuSans-2e" d="M 684 794 
L 1344 794 
L 1344 0 
L 684 0 
L 684 794 
z
" transform="scale(0.015625)"/>
       <path id="DejaVuSans-37" d="M 525 4666 
L 3525 4666 
L 3525 4397 
L 1831 0 
L 1172 0 
L 2766 4134 
L 525 4134 
L 525 4666 
z
" transform="scale(0.015625)"/>
       <path id="DejaVuSans-35" d="M 691 4666 
L 3169 4666 
L 3169 4134 
L 1269 4134 
L 1269 2991 
Q 1406 3038 1543 3061 
Q 1681 3084 1819 3084 
Q 2600 3084 3056 2656 
Q 3513 2228 3513 1497 
Q 3513 744 3044 326 
Q 2575 -91 1722 -91 
Q 1428 -91 1123 -41 
Q 819 9 494 109 
L 494 744 
Q 775 591 1075 516 
Q 1375 441 1709 441 
Q 2250 441 2565 725 
Q 2881 1009 2881 1497 
Q 2881 1984 2565 2268 
Q 2250 2553 1709 2553 
Q 1456 2553 1204 2497 
Q 953 2441 691 2322 
L 691 4666 
z
" transform="scale(0.015625)"/>
       <path id="DejaVuSans-39" d="M 703 97 
L 703 672 
Q 941 559 1184 500 
Q 1428 441 1663 441 
Q 2288 441 2617 861 
Q 2947 1281 2994 2138 
Q 2813 1869 2534 1725 
Q 2256 1581 1919 1581 
Q 1219 1581 811 2004 
Q 403 2428 403 3163 
Q 403 3881 828 4315 
Q 1253 4750 1959 4750 
Q 2769 4750 3195 4129 
Q 3622 3509 3622 2328 
Q 3622 1225 3098 567 
Q 2575 -91 1691 -91 
Q 1453 -91 1209 -44 
Q 966 3 703 97 
z
M 1959 2075 
Q 2384 2075 2632 2365 
Q 2881 2656 2881 3163 
Q 2881 3666 2632 3958 
Q 2384 4250 1959 4250 
Q 1534 4250 1286 3958 
Q 1038 3666 1038 3163 
Q 1038 2656 1286 2365 
Q 1534 2075 1959 2075 
z
" transform="scale(0.015625)"/>
       <path id="DejaVuSans-33" d="M 2597 2516 
Q 3050 2419 3304 2112 
Q 3559 1806 3559 1356 
Q 3559 666 3084 287 
Q 2609 -91 1734 -91 
Q 1441 -91 1130 -33 
Q 819 25 488 141 
L 488 750 
Q 750 597 1062 519 
Q 1375 441 1716 441 
Q 2309 441 2620 675 
Q 2931 909 2931 1356 
Q 2931 1769 2642 2001 
Q 2353 2234 1838 2234 
L 1294 2234 
L 1294 2753 
L 1863 2753 
Q 2328 2753 2575 2939 
Q 2822 3125 2822 3475 
Q 2822 3834 2567 4026 
Q 2313 4219 1838 4219 
Q 1578 4219 1281 4162 
Q 984 4106 628 3988 
L 628 4550 
Q 988 4650 1302 4700 
Q 1616 4750 1894 4750 
Q 2613 4750 3031 4423 
Q 3450 4097 3450 3541 
Q 3450 3153 3228 2886 
Q 3006 2619 2597 2516 
z
" transform="scale(0.015625)"/>
      </defs>
      <use xlink:href="#DejaVuSans-2b"/>
      <use xlink:href="#DejaVuSans-31" x="83.789062"/>
      <use xlink:href="#DejaVuSans-2e" x="147.412109"/>
      <use xlink:href="#DejaVuSans-37" x="179.199219"/>
      <use xlink:href="#DejaVuSans-36" x="242.822266"/>
      <use xlink:href="#DejaVuSans-34" x="306.445312"/>
      <use xlink:href="#DejaVuSans-35" x="370.068359"/>
      <use xlink:href="#DejaVuSans-39" x="433.691406"/>
      <use xlink:href="#DejaVuSans-33" x="497.314453"/>
      <use xlink:href="#DejaVuSans-65" x="560.9375"/>
      <use xlink:href="#DejaVuSans-39" x="622.460938"/>
     </g>
    </g>
   </g>
   <g id="matplotlib.axis_4">
    <g id="ytick_7">
     <g id="line2d_37">
      <path d="M 69.77 508.017729 
L 997.2 508.017729 
" clip-path="url(#p551c85bcbc)" style="fill: none; stroke: #b0b0b0; stroke-width: 0.8; stroke-linecap: square"/>
     </g>
     <g id="line2d_38">
      <g>
       <use xlink:href="#m7523b8a507" x="69.77" y="508.017729" style="stroke: #000000; stroke-width: 0.8"/>
      </g>
     </g>
     <g id="text_18">
      <!-- −100 -->
      <g transform="translate(35.302813 511.816948) scale(0.1 -0.1)">
       <defs>
        <path id="DejaVuSans-2212" d="M 678 2272 
L 4684 2272 
L 4684 1741 
L 678 1741 
L 678 2272 
z
" transform="scale(0.015625)"/>
       </defs>
       <use xlink:href="#DejaVuSans-2212"/>
       <use xlink:href="#DejaVuSans-31" x="83.789062"/>
       <use xlink:href="#DejaVuSans-30" x="147.412109"/>
       <use xlink:href="#DejaVuSans-30" x="211.035156"/>
      </g>
     </g>
    </g>
    <g id="ytick_8">
     <g id="line2d_39">
      <path d="M 69.77 464.500854 
L 997.2 464.500854 
" clip-path="url(#p551c85bcbc)" style="fill: none; stroke: #b0b0b0; stroke-width: 0.8; stroke-linecap: square"/>
     </g>
     <g id="line2d_40">
      <g>
       <use xlink:href="#m7523b8a507" x="69.77" y="464.500854" style="stroke: #000000; stroke-width: 0.8"/>
      </g>
     </g>
     <g id="text_19">
      <!-- −50 -->
      <g transform="translate(41.665313 468.300073) scale(0.1 -0.1)">
       <use xlink:href="#DejaVuSans-2212"/>
       <use xlink:href="#DejaVuSans-35" x="83.789062"/>
       <use xlink:href="#DejaVuSans-30" x="147.412109"/>
      </g>
     </g>
    </g>
    <g id="ytick_9">
     <g id="line2d_41">
      <path d="M 69.77 420.983979 
L 997.2 420.983979 
" clip-path="url(#p551c85bcbc)" style="fill: none; stroke: #b0b0b0; stroke-width: 0.8; stroke-linecap: square"/>
     </g>
     <g id="line2d_42">
      <g>
       <use xlink:href="#m7523b8a507" x="69.77" y="420.983979" style="stroke: #000000; stroke-width: 0.8"/>
      </g>
     </g>
     <g id="text_20">
      <!-- 0 -->
      <g transform="translate(56.4075 424.783198) scale(0.1 -0.1)">
       <use xlink:href="#DejaVuSans-30"/>
      </g>
     </g>
    </g>
    <g id="ytick_10">
     <g id="line2d_43">
      <path d="M 69.77 377.467104 
L 997.2 377.467104 
" clip-path="url(#p551c85bcbc)" style="fill: none; stroke: #b0b0b0; stroke-width: 0.8; stroke-linecap: square"/>
     </g>
     <g id="line2d_44">
      <g>
       <use xlink:href="#m7523b8a507" x="69.77" y="377.467104" style="stroke: #000000; stroke-width: 0.8"/>
      </g>
     </g>
     <g id="text_21">
      <!-- 50 -->
      <g transform="translate(50.045 381.266322) scale(0.1 -0.1)">
       <use xlink:href="#DejaVuSans-35"/>
       <use xlink:href="#DejaVuSans-30" x="63.623047"/>
      </g>
     </g>
    </g>
    <g id="ytick_11">
     <g id="line2d_45">
      <path d="M 69.77 333.950228 
L 997.2 333.950228 
" clip-path="url(#p551c85bcbc)" style="fill: none; stroke: #b0b0b0; stroke-width: 0.8; stroke-linecap: square"/>
     </g>
     <g id="line2d_46">
      <g>
       <use xlink:href="#m7523b8a507" x="69.77" y="333.950228" style="stroke: #000000; stroke-width: 0.8"/>
      </g>
     </g>
     <g id="text_22">
      <!-- 100 -->
      <g transform="translate(43.6825 337.749447) scale(0.1 -0.1)">
       <use xlink:href="#DejaVuSans-31"/>
       <use xlink:href="#DejaVuSans-30" x="63.623047"/>
       <use xlink:href="#DejaVuSans-30" x="127.246094"/>
      </g>
     </g>
    </g>
    <g id="text_23">
     <!-- Vision Depth (mm) -->
     <g transform="translate(29.223125 461.81375) rotate(-90) scale(0.1 -0.1)">
      <defs>
       <path id="DejaVuSans-6f" d="M 1959 3097 
Q 1497 3097 1228 2736 
Q 959 2375 959 1747 
Q 959 1119 1226 758 
Q 1494 397 1959 397 
Q 2419 397 2687 759 
Q 2956 1122 2956 1747 
Q 2956 2369 2687 2733 
Q 2419 3097 1959 3097 
z
M 1959 3584 
Q 2709 3584 3137 3096 
Q 3566 2609 3566 1747 
Q 3566 888 3137 398 
Q 2709 -91 1959 -91 
Q 1206 -91 779 398 
Q 353 888 353 1747 
Q 353 2609 779 3096 
Q 1206 3584 1959 3584 
z
" transform="scale(0.015625)"/>
       <path id="DejaVuSans-44" d="M 1259 4147 
L 1259 519 
L 2022 519 
Q 2988 519 3436 956 
Q 3884 1394 3884 2338 
Q 3884 3275 3436 3711 
Q 2988 4147 2022 4147 
L 1259 4147 
z
M 628 4666 
L 1925 4666 
Q 3281 4666 3915 4102 
Q 4550 3538 4550 2338 
Q 4550 1131 3912 565 
Q 3275 0 1925 0 
L 628 0 
L 628 4666 
z
" transform="scale(0.015625)"/>
       <path id="DejaVuSans-70" d="M 1159 525 
L 1159 -1331 
L 581 -1331 
L 581 3500 
L 1159 3500 
L 1159 2969 
Q 1341 3281 1617 3432 
Q 1894 3584 2278 3584 
Q 2916 3584 3314 3078 
Q 3713 2572 3713 1747 
Q 3713 922 3314 415 
Q 2916 -91 2278 -91 
Q 1894 -91 1617 61 
Q 1341 213 1159 525 
z
M 3116 1747 
Q 3116 2381 2855 2742 
Q 2594 3103 2138 3103 
Q 1681 3103 1420 2742 
Q 1159 2381 1159 1747 
Q 1159 1113 1420 752 
Q 1681 391 2138 391 
Q 2594 391 2855 752 
Q 3116 1113 3116 1747 
z
" transform="scale(0.015625)"/>
      </defs>
      <use xlink:href="#DejaVuSans-56"/>
      <use xlink:href="#DejaVuSans-69" x="66.158203"/>
      <use xlink:href="#DejaVuSans-73" x="93.941406"/>
      <use xlink:href="#DejaVuSans-69" x="146.041016"/>
      <use xlink:href="#DejaVuSans-6f" x="173.824219"/>
      <use xlink:href="#DejaVuSans-6e" x="235.005859"/>
      <use xlink:href="#DejaVuSans-20" x="298.384766"/>
      <use xlink:href="#DejaVuSans-44" x="330.171875"/>
      <use xlink:href="#DejaVuSans-65" x="407.173828"/>
      <use xlink:href="#DejaVuSans-70" x="468.697266"/>
      <use xlink:href="#DejaVuSans-74" x="532.173828"/>
      <use xlink:href="#DejaVuSans-68" x="571.382812"/>
      <use xlink:href="#DejaVuSans-20" x="634.761719"/>
      <use xlink:href="#DejaVuSans-28" x="666.548828"/>
      <use xlink:href="#DejaVuSans-6d" x="705.5625"/>
      <use xlink:href="#DejaVuSans-6d" x="802.974609"/>
      <use xlink:href="#DejaVuSans-29" x="900.386719"/>
     </g>
    </g>
   </g>
   <g id="line2d_47">
    <path d="M 307.113802 420.541095 
L 307.492931 420.738013 
L 308.780386 420.858191 
L 309.143717 420.833613 
L 309.514948 420.987894 
L 310.55755 420.844954 
L 310.912985 420.730682 
L 311.292112 420.86542 
L 312.658554 420.899697 
L 313.219347 420.827071 
L 313.574781 420.962434 
L 314.182964 421.039848 
L 314.396227 421.091693 
L 314.909628 420.886471 
L 315.69158 419.848482 
L 315.920637 418.784626 
L 316.560417 414.220732 
L 317.215992 403.920161 
L 318.18751 383.472813 
L 318.463955 383.14052 
L 318.716709 384.763814 
L 319.514458 398.667231 
L 320.406988 414.479849 
L 320.691336 416.876037 
L 320.967783 418.000082 
L 321.275824 418.585809 
L 321.560169 418.683653 
L 321.88401 418.237108 
L 322.207848 417.450405 
L 322.452703 415.154274 
L 322.831829 412.824938 
L 323.503202 406.703417 
L 323.842838 402.924521 
L 324.158779 398.097949 
L 324.648487 382.168954 
L 324.901239 378.15061 
L 325.240875 375.940433 
L 325.469933 376.175184 
L 325.722685 378.108121 
L 326.607317 390.696397 
L 327.32608 403.680192 
L 327.80789 412.411399 
L 328.732014 418.291886 
L 329.134838 418.486021 
L 329.442881 417.854578 
L 329.924688 415.079171 
L 330.145847 413.10341 
L 330.833017 402.646646 
L 332.065186 377.571571 
L 332.341631 374.699113 
L 332.72076 373.551293 
L 333.020903 373.8978 
L 333.597496 381.639442 
L 334.892851 412.018954 
L 335.232487 415.774864 
L 335.556324 417.886967 
L 335.880163 418.759948 
L 336.204002 418.898196 
L 336.512045 418.647356 
L 336.756897 418.038311 
L 337.317692 415.082987 
L 337.554647 412.777966 
L 338.620945 391.069455 
L 339.110653 378.383776 
L 339.679346 371.998111 
L 340.01898 371.624491 
L 340.334921 372.576085 
L 340.60347 374.74121 
L 341.101074 383.268631 
L 341.88303 402.077591 
L 342.767662 414.589821 
L 343.644394 420.091757 
L 343.865553 420.686034 
L 344.142 420.772582 
L 344.442144 420.302053 
L 345.200401 417.053675 
L 345.484747 414.525311 
L 346.140322 405.168419 
L 346.495756 398.780594 
L 347.37249 379.317869 
L 347.90959 372.088427 
L 348.193933 371.807807 
L 348.517775 373.675747 
L 348.991684 380.757463 
L 349.584072 392.600689 
L 350.17646 405.56418 
L 350.990005 417.370662 
L 351.282249 419.570907 
L 351.590292 420.818203 
L 351.922029 420.86807 
L 352.76717 418.673178 
L 353.051516 416.956131 
L 353.636005 409.89691 
L 354.718102 384.815366 
L 355.484257 371.728119 
L 355.784401 369.662745 
L 356.05295 369.162019 
L 356.360991 370.44664 
L 356.605844 373.442734 
L 357.103449 387.564919 
L 357.703735 401.750123 
L 358.548878 415.257835 
L 358.975395 418.767354 
L 359.196554 419.304984 
L 359.646769 418.712825 
L 359.970608 418.775138 
L 360.507706 417.836 
L 360.760458 416.299446 
L 361.566107 405.0975 
L 363.327473 369.276053 
L 363.572327 367.258401 
L 363.840878 366.677289 
L 364.08573 369.999345 
L 364.87558 387.854001 
L 365.554853 408.274112 
L 365.768112 412.988392 
L 366.297312 418.104199 
L 366.550064 419.077425 
L 366.794918 419.416249 
L 367.023973 419.323063 
L 367.821724 418.074948 
L 368.445705 415.249705 
L 369.677872 398.11122 
L 370.22287 383.963734 
L 370.688881 370.603333 
L 371.004822 367.155893 
L 371.304966 365.65129 
L 371.518225 365.622194 
L 371.755178 366.919885 
L 372.592422 379.595848 
L 373.86408 404.863429 
L 374.780308 415.422337 
L 375.270016 417.515928 
L 375.483276 417.528102 
L 375.696535 416.990591 
L 375.949287 416.660775 
L 376.186243 416.030123 
L 376.486385 414.47301 
L 376.857616 411.731484 
L 377.457903 403.199864 
L 378.389927 375.301086 
L 378.95072 366.546876 
L 379.15608 364.911331 
L 379.464123 364.75576 
L 379.74057 365.730292 
L 380.277668 372.914877 
L 380.648899 378.888457 
L 381.620415 407.407367 
L 381.85737 412.229074 
L 382.141716 415.571839 
L 382.836784 418.615256 
L 383.342289 419.72133 
L 383.61084 419.986028 
L 383.831997 419.870883 
L 384.724527 417.039255 
L 384.969381 415.21531 
L 385.435394 407.991852 
L 386.596474 381.085621 
L 387.24415 369.2206 
L 387.567989 366.44941 
L 387.899729 365.607668 
L 388.247261 366.071574 
L 388.555304 368.35485 
L 388.839649 372.454078 
L 389.78747 397.325696 
L 390.000731 403.872467 
L 390.695799 414.099368 
L 391.31978 418.619474 
L 391.754198 420.737404 
L 391.95956 420.897581 
L 392.765207 417.536281 
L 393.025858 415.893858 
L 393.618246 409.1546 
L 393.91049 403.48122 
L 395.063671 371.086481 
L 395.355919 367.647782 
L 395.727148 365.73286 
L 396.082581 365.420544 
L 396.359028 366.341411 
L 396.856632 374.442098 
L 397.133081 380.365039 
L 397.859743 402.588808 
L 398.096699 408.327553 
L 398.428436 412.846636 
L 399.09981 417.646166 
L 399.344664 418.848176 
L 399.605314 419.379366 
L 400.229296 419.177651 
L 401.011248 416.418629 
L 401.287697 414.628699 
L 401.848492 402.596755 
L 403.33341 373.454811 
L 403.831015 366.984292 
L 404.083769 365.806654 
L 404.415504 365.462173 
L 404.763039 366.546092 
L 405.142166 370.080501 
L 405.458107 375.182406 
L 406.721869 409.730221 
L 407.116793 414.855752 
L 407.835558 420.107179 
L 408.119904 420.975951 
L 408.51483 421.064669 
L 409.225695 418.932042 
L 409.557432 417.016573 
L 409.912865 413.831259 
L 410.197212 410.132499 
L 411.16083 389.203245 
L 411.958578 367.94135 
L 412.266619 364.690596 
L 412.566763 363.678521 
L 412.866907 363.517473 
L 413.182848 365.187872 
L 414.059582 379.922265 
L 414.825737 405.383136 
L 415.244356 412.897555 
L 415.805151 415.427335 
L 416.089499 416.038305 
L 416.950436 416.403647 
L 417.795574 414.241092 
L 418.064125 411.77151 
L 418.356369 408.031786 
L 419.477957 384.386406 
L 420.283604 373.075331 
L 420.931282 365.778196 
L 421.26302 364.506831 
L 421.602655 364.638995 
L 422.645258 382.108569 
L 423.213951 400.19092 
L 423.450905 405.302962 
L 423.719454 408.283541 
L 424.690971 411.745149 
L 425.133287 413.066391 
L 425.472923 413.293135 
L 425.765167 413.203205 
L 426.07321 411.778208 
L 426.831467 405.28777 
L 427.471245 394.360738 
L 428.640224 365.918523 
L 428.97196 363.129861 
L 429.327394 362.218166 
L 429.548553 362.899519 
L 430.583256 377.884454 
L 431.294123 392.068789 
L 431.704845 398.623261 
L 432.012886 405.515626 
L 432.676361 412.845307 
L 432.929113 414.739738 
L 433.276648 415.798395 
L 433.671572 416.291871 
L 434.003309 416.28637 
L 434.26396 415.809482 
L 434.524611 415.009479 
L 434.911638 413.265472 
L 435.53562 401.844233 
L 436.001633 388.794377 
L 436.649309 367.849594 
L 436.949451 364.920963 
L 437.249596 363.818959 
L 437.533943 363.56588 
L 437.786695 364.228846 
L 438.078939 366.200042 
L 438.386982 369.315566 
L 439.161036 385.632341 
L 439.737627 399.261456 
L 440.085159 404.736339 
L 440.819721 411.679941 
L 441.609571 414.345318 
L 442.209858 415.724296 
L 442.5179 415.712254 
L 442.786449 415.12519 
L 443.0471 413.204241 
L 443.347244 409.788988 
L 443.678982 404.601259 
L 444.381948 386.30157 
L 445.108612 367.679872 
L 445.353464 364.384087 
L 445.63781 363.030238 
L 445.985344 362.796491 
L 446.238096 364.043755 
L 446.451357 366.490787 
L 447.233309 382.601202 
L 447.715118 397.191437 
L 448.252216 407.467895 
L 448.512867 410.779213 
L 448.789314 412.636865 
L 449.594961 415.042011 
L 449.895105 415.65847 
L 450.187349 415.996923 
L 450.432203 415.513898 
L 450.890316 413.370585 
L 451.609081 405.981641 
L 452.106688 394.482901 
L 452.959726 374.83391 
L 453.481028 366.766594 
L 453.733778 364.935562 
L 454.010227 364.020859 
L 454.326166 363.44692 
L 454.57892 364.017765 
L 454.863266 365.728534 
L 455.202902 369.015483 
L 455.850578 379.578805 
L 457.461874 411.794596 
L 458.109552 415.545633 
L 458.417595 416.093349 
L 458.701941 416.110514 
L 459.373314 414.820217 
L 459.689255 413.46644 
L 460.415916 396.702576 
L 460.692364 389.775464 
L 461.426926 376.529881 
L 461.87714 367.5913 
L 462.169384 365.2577 
L 462.437935 364.956411 
L 462.738077 365.141191 
L 462.959236 366.605645 
L 463.409451 372.676943 
L 464.309881 390.400511 
L 464.531038 396.804778 
L 465.660524 412.286545 
L 466.197622 414.719012 
L 466.553055 414.935048 
L 467.16914 414.619173 
L 467.492977 414.030963 
L 467.785221 412.995093 
L 468.251234 403.565168 
L 468.946302 392.564834 
L 469.696661 373.825507 
L 469.917818 366.99792 
L 470.210064 363.279488 
L 470.541801 361.729417 
L 470.81035 361.417752 
L 471.086798 362.807864 
L 471.687084 369.296099 
L 472.295271 380.584209 
L 473.432655 403.771518 
L 474.032942 410.918395 
L 474.641127 414.349276 
L 474.870182 415.374715 
L 475.138731 415.612061 
L 475.367788 415.590129 
L 475.620541 415.281999 
L 476.284016 414.104504 
L 476.560463 412.644595 
L 477.152851 405.207511 
L 477.47669 399.665528 
L 478.013788 383.608499 
L 478.969509 368.529825 
L 479.751461 363.34815 
L 480.146385 362.158272 
L 480.391237 361.895183 
L 480.952032 369.030686 
L 481.457539 386.047587 
L 482.444851 407.87479 
L 482.705502 410.705825 
L 483.337381 413.285619 
L 483.613831 413.788958 
L 484.237812 414.056248 
L 484.458969 413.933004 
L 484.972374 412.907508 
L 485.288313 407.620876 
L 486.25193 380.070257 
L 487.207651 363.118179 
L 487.539389 360.981401 
L 487.894819 360.574668 
L 488.147572 360.523539 
L 488.376629 361.875112 
L 488.834742 367.736272 
L 489.593 389.264612 
L 490.130096 400.884623 
L 490.438139 405.5337 
L 491.117411 411.56825 
L 491.662407 413.991498 
L 492.215303 414.987237 
L 492.475954 415.020767 
L 492.776096 414.713741 
L 493.036747 414.234096 
L 493.313196 413.235404 
L 493.581745 410.131017 
L 494.679636 388.473413 
L 495.303619 375.645618 
L 495.935501 365.973294 
L 496.219847 363.705156 
L 496.464699 362.804035 
L 496.701654 363.001145 
L 496.9939 364.616388 
L 497.294043 367.594929 
L 497.633678 372.5295 
L 499.58461 410.802943 
L 499.884754 413.22555 
L 500.263882 414.949375 
L 500.635113 415.645081 
L 500.974747 415.625138 
L 501.654018 414.440788 
L 501.962061 411.09969 
L 502.412275 401.453325 
L 503.431183 370.638269 
L 503.960382 363.730634 
L 504.300018 362.77407 
L 504.600161 362.481118 
L 504.82132 362.93802 
L 505.334724 367.360718 
L 506.98551 396.329833 
L 507.996519 409.045926 
L 508.920645 413.679179 
L 509.228685 413.74845 
L 509.552525 413.553782 
L 510.200203 412.114574 
L 510.871576 400.76638 
L 511.424471 387.833102 
L 511.787804 381.39011 
L 512.080048 373.783868 
L 512.783014 364.068542 
L 513.304316 360.757469 
L 513.588661 360.946687 
L 513.86511 362.191691 
L 514.188948 365.099128 
L 514.473295 369.357177 
L 514.931408 382.028154 
L 515.357927 389.309388 
L 516.076693 403.541317 
L 516.574297 409.468875 
L 516.898136 411.048855 
L 517.198278 411.955097 
L 517.537914 412.546041 
L 517.87755 412.560851 
L 518.533129 411.443286 
L 518.912254 409.792475 
L 519.30718 406.501762 
L 520.515652 383.032273 
L 521.068548 367.548184 
L 521.400286 362.386079 
L 521.724123 360.200369 
L 521.968979 359.57129 
L 522.213831 360.527467 
L 522.482382 363.094209 
L 523.319622 377.848878 
L 524.915121 407.222267 
L 525.183668 411.119916 
L 525.831347 415.155589 
L 526.0762 415.932947 
L 526.305258 415.893597 
L 526.621199 415.338068 
L 527.426846 409.879673 
L 528.319376 394.051251 
L 528.7222 386.775639 
L 529.583138 363.932252 
L 529.970165 359.033121 
L 530.278208 357.052244 
L 530.530958 356.646294 
L 530.767914 357.471235 
L 530.996969 359.777659 
L 531.21023 363.554616 
L 531.447186 371.123016 
L 532.063269 385.783848 
L 532.821526 402.687072 
L 533.437609 409.738866 
L 533.75355 411.503527 
L 534.377531 413.418398 
L 535.009413 414.502421 
L 535.372744 414.773444 
L 535.712379 414.520892 
L 536.036217 413.96057 
L 536.336361 413.184157 
L 536.905054 405.773525 
L 537.1894 399.883631 
L 537.87657 381.159695 
L 538.484755 367.907712 
L 539.037651 360.462731 
L 539.282503 358.777192 
L 539.598444 358.633025 
L 539.93808 360.66186 
L 540.530468 369.368461 
L 541.588867 393.748028 
L 541.810024 401.042665 
L 542.465603 410.489285 
L 542.915817 414.394821 
L 543.397627 416.624464 
L 543.705667 416.995834 
L 544.045303 416.975551 
L 544.440229 416.335427 
L 545.127399 414.525747 
L 545.474932 413.459478 
L 545.680294 411.205338 
L 545.925148 407.10984 
L 547.086227 375.769526 
L 547.718109 364.18477 
L 548.294701 358.852269 
L 548.563248 358.074195 
L 548.823898 359.551811 
L 549.337303 366.702601 
L 550.601065 392.042654 
L 551.280336 408.187263 
L 551.596275 411.672088 
L 552.172867 415.517981 
L 552.496706 416.565703 
L 552.860037 416.943363 
L 553.152281 416.766917 
L 553.381338 416.394228 
L 553.665686 415.387659 
L 554.044811 414.473316 
L 554.431839 413.024751 
L 556.714508 365.740345 
L 557.109432 362.557626 
L 557.433273 361.287807 
L 557.733414 361.832016 
L 558.041456 363.838186 
L 558.349499 367.271425 
L 560.355719 407.085993 
L 561.011295 413.753556 
L 561.564192 416.803074 
L 561.943319 417.106738 
L 562.282955 416.883713 
L 562.583097 416.266742 
L 562.827951 415.376379 
L 563.159689 414.712667 
L 563.530918 411.28543 
L 564.407654 394.712064 
L 565.150114 376.697629 
L 565.426559 370.234807 
L 565.797791 366.124251 
L 566.216412 363.76647 
L 566.579742 363.751115 
L 566.998363 364.180544 
L 567.377491 365.564243 
L 567.914589 375.401025 
L 568.688644 400.687749 
L 569.367916 410.426248 
L 570.102476 413.953521 
L 570.702763 414.854292 
L 571.018703 415.194752 
L 571.303051 415.214856 
L 571.571598 414.806061 
L 571.840147 413.872947 
L 572.069204 412.172492 
L 572.377247 408.652293 
L 572.645796 403.863228 
L 573.246082 385.576467 
L 573.822674 372.532624 
L 574.083324 368.208255 
L 574.494045 365.543413 
L 574.888971 364.151092 
L 575.15752 363.618444 
L 575.449764 363.776477 
L 575.765705 364.207032 
L 576.184326 368.006955 
L 576.768816 376.710384 
L 577.424391 388.952139 
L 578.23004 407.05493 
L 578.514385 410.162256 
L 578.885614 411.621838 
L 579.248947 412.419536 
L 580.015102 413.514759 
L 580.552202 414.137246 
L 581.184082 412.726258 
L 582.921753 383.144955 
L 583.537836 371.354042 
L 583.861675 366.992325 
L 584.153919 364.633309 
L 584.461962 364.257521 
L 584.777901 365.0013 
L 585.520361 369.865632 
L 585.923185 374.031237 
L 586.207531 379.103127 
L 586.997383 396.123906 
L 587.392307 401.541507 
L 587.64506 406.857673 
L 588.205853 412.149816 
L 588.845633 414.206077 
L 589.114182 414.285088 
L 590.077799 412.462861 
L 590.306856 409.91597 
L 590.836056 399.910668 
L 591.365257 382.545646 
L 592.186701 369.242484 
L 592.45525 367.177299 
L 592.826479 366.012055 
L 593.055536 365.692429 
L 593.600534 366.197549 
L 593.829592 367.608616 
L 594.129734 370.197572 
L 594.366688 373.381754 
L 594.761614 377.112721 
L 596.459793 410.480264 
L 596.996891 413.147191 
L 597.802538 414.838006 
L 598.236956 415.02535 
L 598.529202 414.957527 
L 599.390139 413.556399 
L 599.943035 404.292909 
L 600.551218 391.280327 
L 602.383673 364.472149 
L 602.7707 362.631894 
L 603.094538 361.981496 
L 603.442074 363.942833 
L 603.773809 367.126203 
L 605.337713 405.840989 
L 605.78793 411.249295 
L 606.135464 412.363907 
L 606.854227 413.979593 
L 607.391327 415.358304 
L 607.667774 415.551916 
L 607.936321 415.005656 
L 608.568203 412.499536 
L 609.263273 404.645636 
L 610.361164 383.603449 
L 611.253695 371.504263 
L 611.569635 367.041041 
L 611.980358 363.63708 
L 612.327894 362.379112 
L 612.60434 362.063813 
L 613.331003 366.573839 
L 614.270924 386.053014 
L 614.539474 394.234 
L 615.202948 405.519697 
L 616.087582 413.937225 
L 616.340334 415.337427 
L 616.672071 415.99577 
L 617.066996 415.575123 
L 617.382936 414.577199 
L 617.769964 413.785684 
L 618.030615 412.917184 
L 618.354452 410.70059 
L 618.68619 407.138437 
L 619.515533 383.916145 
L 620.250093 370.746378 
L 620.518644 365.641628 
L 620.889874 361.327823 
L 621.229509 359.7287 
L 621.600739 359.163095 
L 621.956171 359.552602 
L 622.23262 361.150312 
L 622.856602 370.904717 
L 624.483694 407.613518 
L 625.083979 412.690543 
L 625.30514 413.690766 
L 625.61318 414.339431 
L 625.858034 414.476714 
L 626.158178 414.431914 
L 626.513609 414.057346 
L 627.034912 412.648135 
L 627.311359 410.979418 
L 627.690489 407.45488 
L 628.41715 396.422068 
L 628.938452 382.835784 
L 629.459753 368.274792 
L 629.68091 364.552667 
L 630.036345 362.015941 
L 630.37598 360.630582 
L 630.612934 360.391986 
L 630.834093 361.405868 
L 631.371191 366.59822 
L 631.671335 370.991669 
L 632.737633 396.837821 
L 633.740744 408.508461 
L 634.451609 411.074831 
L 634.791245 412.033884 
L 635.138779 413.607225 
L 635.438923 414.111096 
L 635.691675 413.873304 
L 636.078703 413.893834 
L 636.78167 411.968152 
L 637.105507 410.443847 
L 637.508331 406.433819 
L 638.487745 373.206219 
L 638.740498 366.255872 
L 639.016947 362.660601 
L 639.522449 360.181428 
L 639.791 359.964702 
L 640.083244 360.286434 
L 640.343895 361.273875 
L 640.802008 366.893485 
L 641.947292 389.133683 
L 642.421204 400.54673 
L 642.879314 408.236764 
L 643.12417 410.373048 
L 643.621775 412.202715 
L 644.403727 414.448268 
L 644.767059 414.508904 
L 645.161983 414.01379 
L 645.55691 413.774833 
L 646.196688 412.625093 
L 646.50473 410.594656 
L 646.789076 406.203232 
L 647.847477 374.214382 
L 648.787399 361.381826 
L 649.087542 359.962319 
L 649.324495 359.442472 
L 649.664133 359.496892 
L 649.94058 360.693989 
L 650.26442 362.864295 
L 650.896299 370.075989 
L 651.441298 381.629501 
L 651.828323 387.875005 
L 652.302235 402.216079 
L 652.807739 410.194526 
L 653.242155 415.443398 
L 653.463314 416.963701 
L 653.747662 418.003409 
L 654.032007 418.291474 
L 654.292658 418.002069 
L 654.687584 417.09692 
L 655.216782 415.231522 
L 655.745983 412.918659 
L 656.125111 409.509726 
L 656.859671 399.048659 
L 657.507349 385.16388 
L 658.162926 368.560964 
L 658.755314 361.676975 
L 659.03966 360.41288 
L 659.347702 360.598134 
L 659.655743 361.567733 
L 660.342915 370.794998 
L 661.022186 382.273809 
L 662.096382 406.891327 
L 662.712465 413.600386 
L 663.241665 418.00785 
L 663.502316 418.811816 
L 663.794559 419.018195 
L 665.105713 411.552566 
L 665.998243 397.986142 
L 666.329981 392.481985 
L 667.222513 368.07318 
L 667.704323 361.736941 
L 667.97287 360.751483 
L 668.249319 360.843367 
L 668.517868 361.850161 
L 668.810112 363.88795 
L 669.331413 370.605284 
L 669.87641 381.086114 
L 670.381916 393.190304 
L 670.87952 402.357299 
L 671.669371 408.005463 
L 672.396034 411.352786 
L 672.917336 412.660659 
L 673.209581 412.739173 
L 673.430738 412.426367 
L 673.722984 411.73786 
L 674.00733 410.087956 
L 674.560226 401.467973 
L 675.089426 387.719742 
L 675.768696 368.742243 
L 676.392679 362.151084 
L 676.629633 361.19493 
L 676.866589 360.97118 
L 677.095646 361.152734 
L 677.545862 363.516977 
L 677.774918 365.763504 
L 678.327814 374.31035 
L 678.951796 386.620041 
L 680.010195 407.025583 
L 680.539394 411.247653 
L 681.092291 413.594458 
L 681.368738 414.431486 
L 681.961126 414.699611 
L 682.474529 413.462235 
L 682.956339 411.490624 
L 683.303871 408.957649 
L 683.817276 398.600554 
L 684.567633 378.492128 
L 685.48386 363.052553 
L 685.768206 360.261809 
L 686.020958 358.985585 
L 686.265812 358.812221 
L 686.565956 359.20764 
L 686.866098 360.398272 
L 687.205734 362.991117 
L 687.798122 371.386099 
L 688.390511 383.255579 
L 688.903913 398.835989 
L 689.875429 409.903774 
L 690.799555 415.019358 
L 691.052307 415.575508 
L 691.305059 415.62833 
L 691.984331 414.030895 
L 692.260778 413.403251 
L 692.521429 412.063036 
L 692.78208 408.855069 
L 693.248093 397.701938 
L 693.737801 385.342207 
L 694.385477 373.994165 
L 695.151632 362.654778 
L 695.412283 360.887162 
L 695.680832 360.543767 
L 695.988873 360.722327 
L 696.21793 361.408635 
L 696.510176 363.987468 
L 697.110462 372.156776 
L 697.584372 383.914091 
L 698.137268 396.186871 
L 698.674366 405.332916 
L 699.219364 410.502294 
L 699.456318 412.114075 
L 700.514719 415.534373 
L 700.814861 416.146106 
L 701.03602 416.196415 
L 701.502031 414.220467 
L 701.928551 412.552026 
L 702.291882 409.882875 
L 703.168617 393.470529 
L 704.748318 359.215648 
L 705.016867 358.623623 
L 705.261721 359.080577 
L 705.648746 360.213734 
L 706.888813 376.74064 
L 707.528593 388.840669 
L 708.22366 404.349031 
L 708.626484 408.51515 
L 709.598 414.323232 
L 709.882347 415.459081 
L 710.221983 416.036035 
L 710.751183 415.122326 
L 711.343569 413.6799 
L 711.635817 412.545179 
L 711.983349 409.897905 
L 712.354578 406.21041 
L 713.010157 395.133502 
L 713.610443 375.351635 
L 713.910585 368.867071 
L 714.526669 361.930263 
L 714.747826 360.922528 
L 714.976883 360.981254 
L 715.20594 361.848663 
L 715.427099 364.525375 
L 716.785643 388.558705 
L 717.306944 398.859344 
L 717.567595 402.704713 
L 718.310055 408.836395 
L 718.562805 410.406201 
L 720.047724 415.051151 
L 720.284681 415.659916 
L 720.561127 415.801302 
L 720.971849 415.29293 
L 721.279892 413.779496 
L 721.564238 411.740661 
L 721.935467 407.825869 
L 722.164524 402.054289 
L 722.385681 393.185932 
L 723.049158 379.940008 
L 723.39669 372.54395 
L 724.170744 364.184994 
L 724.439293 362.548387 
L 724.699945 362.127953 
L 725.000088 361.962746 
L 725.276537 363.486247 
L 726.113777 370.606038 
L 726.47711 375.74856 
L 727.101091 388.916295 
L 727.646088 403.86695 
L 727.875145 407.920493 
L 728.475431 412.685505 
L 729.012531 416.313038 
L 729.336369 417.347998 
L 729.723396 417.556124 
L 730.418465 414.743761 
L 730.963461 412.790423 
L 731.239908 409.760273 
L 732.487871 387.787171 
L 733.490984 365.261914 
L 733.846416 363.084701 
L 734.146559 362.198043 
L 734.470398 362.49972 
L 734.731049 363.791445 
L 735.165466 370.143357 
L 735.971113 387.666641 
L 736.460821 399.556306 
L 736.887341 407.422863 
L 737.147991 409.979197 
L 737.84306 412.454711 
L 738.443346 413.737094 
L 738.751389 414.155504 
L 739.059429 414.336417 
L 739.351673 414.276842 
L 739.888773 413.387419 
L 740.102032 411.651438 
L 740.575945 405.246193 
L 741.097246 395.330754 
L 741.958183 374.805839 
L 742.195137 367.673782 
L 742.819118 359.750217 
L 743.190348 358.490507 
L 743.490492 358.534115 
L 743.806433 359.526562 
L 744.580486 368.349375 
L 745.330845 391.977511 
L 745.686277 397.62681 
L 746.499825 405.935713 
L 747.100111 410.835434 
L 747.41605 411.936165 
L 747.779381 412.677191 
L 748.371771 414.210873 
L 748.616623 414.288969 
L 748.94046 413.800078 
L 749.572342 412.366512 
L 749.943571 410.888237 
L 750.22002 407.551075 
L 750.709728 398.519021 
L 751.673346 373.101159 
L 752.202545 362.793601 
L 752.455297 360.249735 
L 752.771238 360.032989 
L 753.229351 360.92643 
L 753.568987 363.304768 
L 754.050795 371.081775 
L 754.327244 376.595928 
L 754.82485 393.84067 
L 755.30666 403.413595 
L 755.820061 408.964495 
L 756.096508 410.55642 
L 757.210199 413.225775 
L 757.455051 413.30105 
L 757.786789 413.042566 
L 758.173817 412.52022 
L 758.497654 411.87013 
L 758.774103 410.448863 
L 759.398085 403.370019 
L 759.998371 392.694536 
L 761.00938 367.510966 
L 761.309525 363.455059 
L 761.609667 360.955865 
L 761.972998 360.310871 
L 762.28104 360.343258 
L 762.612778 361.029897 
L 762.936615 363.277529 
L 763.205166 366.670637 
L 764.326754 387.79556 
L 765.053415 403.32506 
L 765.55892 410.047969 
L 765.882759 411.637255 
L 766.546232 413.359792 
L 766.783188 413.563493 
L 767.03594 413.343156 
L 767.794197 411.88208 
L 768.141731 408.499773 
L 768.670931 398.761263 
L 769.255421 386.282799 
L 769.745127 372.955183 
L 770.408604 362.959125 
L 770.661354 360.59397 
L 771.000992 359.932051 
L 771.364323 359.955815 
L 771.624973 360.456386 
L 772.635981 369.278706 
L 773.481121 383.654196 
L 774.113001 397.461839 
L 775.005533 408.492549 
L 775.297779 411.183476 
L 775.590023 412.684503 
L 775.929659 413.830583 
L 776.261396 414.466625 
L 776.569437 414.588293 
L 776.901176 414.265475 
L 777.177622 413.727112 
L 777.691025 412.072579 
L 777.967474 409.321932 
L 778.220224 405.61356 
L 778.970583 382.319717 
L 779.855215 364.442145 
L 780.155359 361.461246 
L 780.423908 360.526327 
L 780.660864 360.226211 
L 780.976805 360.596276 
L 781.284845 362.2752 
L 781.885132 368.662373 
L 782.430128 378.031854 
L 783.362152 395.130737 
L 784.309975 407.152633 
L 785.202505 413.509448 
L 785.826487 415.746344 
L 786.134529 415.551952 
L 787.327204 412.953141 
L 788.51198 388.01125 
L 789.222845 369.587473 
L 789.77574 362.94044 
L 790.099581 361.980108 
L 790.383926 362.153279 
L 790.691967 363.472319 
L 791.20537 369.878888 
L 791.702976 378.71238 
L 792.255873 390.526709 
L 793.653906 409.959161 
L 793.95405 411.45414 
L 794.309484 412.659418 
L 794.720205 413.573042 
L 795.612738 414.359683 
L 796.110342 413.427793 
L 796.513166 410.839979 
L 796.971279 407.010273 
L 797.97439 389.697475 
L 798.306128 382.581922 
L 798.645763 372.795296 
L 799.024891 366.360749 
L 799.348732 362.807288 
L 799.609383 361.379263 
L 799.870033 361.379796 
L 800.13858 362.809636 
L 800.549303 367.6473 
L 802.452843 403.708831 
L 802.926754 409.545473 
L 803.226898 411.072534 
L 804.079937 413.442879 
L 804.316891 413.566296 
L 805.501667 412.233531 
L 805.746521 411.138884 
L 806.394199 404.040356 
L 806.75753 398.240036 
L 808.202955 363.321886 
L 808.432013 361.367045 
L 808.700563 360.893072 
L 808.969112 361.519357 
L 809.364037 363.251029 
L 809.743166 366.536877 
L 810.382944 375.293398 
L 810.935841 390.045287 
L 811.417648 401.515899 
L 812.270687 415.76119 
L 812.641916 424.327198 
L 814.269011 477.367256 
L 814.703428 493.621337 
L 815.872408 500.780886 
L 816.709648 503.000551 
L 817.373121 505.723949 
L 818.668478 512.01908 
L 819.142387 515.232426 
L 819.774269 520.633668 
L 820.658901 523.204091 
L 820.903755 523.200467 
L 821.251289 522.389081 
L 821.535637 520.439677 
L 821.772591 517.594383 
L 822.270197 506.875307 
L 822.83099 487.994021 
L 823.407581 460.906839 
L 824.11055 419.870386 
L 824.276417 403.478211 
L 824.750326 383.620009 
L 824.971487 363.089633 
L 825.334818 344.64094 
L 954.791338 323.123053 
L 955.044092 306.485909 
L 955.044092 306.485909 
" clip-path="url(#p551c85bcbc)" style="fill: none; stroke: #008000; stroke-opacity: 0.5; stroke-width: 1.5; stroke-linecap: square"/>
   </g>
   <g id="line2d_48">
    <defs>
     <path id="ma8a9c61784" d="M 0 4 
C 1.060812 4 2.078319 3.578535 2.828427 2.828427 
C 3.578535 2.078319 4 1.060812 4 0 
C 4 -1.060812 3.578535 -2.078319 2.828427 -2.828427 
C 2.078319 -3.578535 1.060812 -4 0 -4 
C -1.060812 -4 -2.078319 -3.578535 -2.828427 -2.828427 
C -3.578535 -2.078319 -4 -1.060812 -4 0 
C -4 1.060812 -3.578535 2.078319 -2.828427 2.828427 
C -2.078319 3.578535 -1.060812 4 0 4 
z
" style="stroke: #bf00bf"/>
    </defs>
    <g clip-path="url(#p551c85bcbc)">
     <use xlink:href="#ma8a9c61784" x="318.463955" y="383.14052" style="fill: #bf00bf; stroke: #bf00bf"/>
     <use xlink:href="#ma8a9c61784" x="325.240875" y="375.940433" style="fill: #bf00bf; stroke: #bf00bf"/>
     <use xlink:href="#ma8a9c61784" x="332.72076" y="373.551293" style="fill: #bf00bf; stroke: #bf00bf"/>
     <use xlink:href="#ma8a9c61784" x="340.01898" y="371.624491" style="fill: #bf00bf; stroke: #bf00bf"/>
     <use xlink:href="#ma8a9c61784" x="348.193933" y="371.807807" style="fill: #bf00bf; stroke: #bf00bf"/>
     <use xlink:href="#ma8a9c61784" x="356.05295" y="369.162019" style="fill: #bf00bf; stroke: #bf00bf"/>
     <use xlink:href="#ma8a9c61784" x="363.840878" y="366.677289" style="fill: #bf00bf; stroke: #bf00bf"/>
     <use xlink:href="#ma8a9c61784" x="371.518225" y="365.622194" style="fill: #bf00bf; stroke: #bf00bf"/>
     <use xlink:href="#ma8a9c61784" x="379.464123" y="364.75576" style="fill: #bf00bf; stroke: #bf00bf"/>
     <use xlink:href="#ma8a9c61784" x="387.899729" y="365.607668" style="fill: #bf00bf; stroke: #bf00bf"/>
     <use xlink:href="#ma8a9c61784" x="396.082581" y="365.420544" style="fill: #bf00bf; stroke: #bf00bf"/>
     <use xlink:href="#ma8a9c61784" x="404.415504" y="365.462173" style="fill: #bf00bf; stroke: #bf00bf"/>
     <use xlink:href="#ma8a9c61784" x="412.866907" y="363.517473" style="fill: #bf00bf; stroke: #bf00bf"/>
     <use xlink:href="#ma8a9c61784" x="421.26302" y="364.506831" style="fill: #bf00bf; stroke: #bf00bf"/>
     <use xlink:href="#ma8a9c61784" x="429.327394" y="362.218166" style="fill: #bf00bf; stroke: #bf00bf"/>
     <use xlink:href="#ma8a9c61784" x="437.533943" y="363.56588" style="fill: #bf00bf; stroke: #bf00bf"/>
     <use xlink:href="#ma8a9c61784" x="445.985344" y="362.796491" style="fill: #bf00bf; stroke: #bf00bf"/>
     <use xlink:href="#ma8a9c61784" x="454.326166" y="363.44692" style="fill: #bf00bf; stroke: #bf00bf"/>
     <use xlink:href="#ma8a9c61784" x="462.437935" y="364.956411" style="fill: #bf00bf; stroke: #bf00bf"/>
     <use xlink:href="#ma8a9c61784" x="470.81035" y="361.417752" style="fill: #bf00bf; stroke: #bf00bf"/>
     <use xlink:href="#ma8a9c61784" x="480.391237" y="361.895183" style="fill: #bf00bf; stroke: #bf00bf"/>
     <use xlink:href="#ma8a9c61784" x="488.147572" y="360.523539" style="fill: #bf00bf; stroke: #bf00bf"/>
     <use xlink:href="#ma8a9c61784" x="496.464699" y="362.804035" style="fill: #bf00bf; stroke: #bf00bf"/>
     <use xlink:href="#ma8a9c61784" x="504.600161" y="362.481118" style="fill: #bf00bf; stroke: #bf00bf"/>
     <use xlink:href="#ma8a9c61784" x="513.304316" y="360.757469" style="fill: #bf00bf; stroke: #bf00bf"/>
     <use xlink:href="#ma8a9c61784" x="521.968979" y="359.57129" style="fill: #bf00bf; stroke: #bf00bf"/>
     <use xlink:href="#ma8a9c61784" x="530.530958" y="356.646294" style="fill: #bf00bf; stroke: #bf00bf"/>
     <use xlink:href="#ma8a9c61784" x="539.598444" y="358.633025" style="fill: #bf00bf; stroke: #bf00bf"/>
     <use xlink:href="#ma8a9c61784" x="548.563248" y="358.074195" style="fill: #bf00bf; stroke: #bf00bf"/>
     <use xlink:href="#ma8a9c61784" x="557.433273" y="361.287807" style="fill: #bf00bf; stroke: #bf00bf"/>
     <use xlink:href="#ma8a9c61784" x="566.579742" y="363.751115" style="fill: #bf00bf; stroke: #bf00bf"/>
     <use xlink:href="#ma8a9c61784" x="575.15752" y="363.618444" style="fill: #bf00bf; stroke: #bf00bf"/>
     <use xlink:href="#ma8a9c61784" x="584.461962" y="364.257521" style="fill: #bf00bf; stroke: #bf00bf"/>
     <use xlink:href="#ma8a9c61784" x="593.055536" y="365.692429" style="fill: #bf00bf; stroke: #bf00bf"/>
     <use xlink:href="#ma8a9c61784" x="603.094538" y="361.981496" style="fill: #bf00bf; stroke: #bf00bf"/>
     <use xlink:href="#ma8a9c61784" x="612.60434" y="362.063813" style="fill: #bf00bf; stroke: #bf00bf"/>
     <use xlink:href="#ma8a9c61784" x="621.600739" y="359.163095" style="fill: #bf00bf; stroke: #bf00bf"/>
     <use xlink:href="#ma8a9c61784" x="630.612934" y="360.391986" style="fill: #bf00bf; stroke: #bf00bf"/>
     <use xlink:href="#ma8a9c61784" x="639.791" y="359.964702" style="fill: #bf00bf; stroke: #bf00bf"/>
     <use xlink:href="#ma8a9c61784" x="649.324495" y="359.442472" style="fill: #bf00bf; stroke: #bf00bf"/>
     <use xlink:href="#ma8a9c61784" x="659.03966" y="360.41288" style="fill: #bf00bf; stroke: #bf00bf"/>
     <use xlink:href="#ma8a9c61784" x="667.97287" y="360.751483" style="fill: #bf00bf; stroke: #bf00bf"/>
     <use xlink:href="#ma8a9c61784" x="676.866589" y="360.97118" style="fill: #bf00bf; stroke: #bf00bf"/>
     <use xlink:href="#ma8a9c61784" x="686.265812" y="358.812221" style="fill: #bf00bf; stroke: #bf00bf"/>
     <use xlink:href="#ma8a9c61784" x="695.680832" y="360.543767" style="fill: #bf00bf; stroke: #bf00bf"/>
     <use xlink:href="#ma8a9c61784" x="705.016867" y="358.623623" style="fill: #bf00bf; stroke: #bf00bf"/>
     <use xlink:href="#ma8a9c61784" x="714.747826" y="360.922528" style="fill: #bf00bf; stroke: #bf00bf"/>
     <use xlink:href="#ma8a9c61784" x="725.000088" y="361.962746" style="fill: #bf00bf; stroke: #bf00bf"/>
     <use xlink:href="#ma8a9c61784" x="734.146559" y="362.198043" style="fill: #bf00bf; stroke: #bf00bf"/>
     <use xlink:href="#ma8a9c61784" x="743.190348" y="358.490507" style="fill: #bf00bf; stroke: #bf00bf"/>
     <use xlink:href="#ma8a9c61784" x="752.771238" y="360.032989" style="fill: #bf00bf; stroke: #bf00bf"/>
     <use xlink:href="#ma8a9c61784" x="761.972998" y="360.310871" style="fill: #bf00bf; stroke: #bf00bf"/>
     <use xlink:href="#ma8a9c61784" x="771.000992" y="359.932051" style="fill: #bf00bf; stroke: #bf00bf"/>
     <use xlink:href="#ma8a9c61784" x="780.660864" y="360.226211" style="fill: #bf00bf; stroke: #bf00bf"/>
     <use xlink:href="#ma8a9c61784" x="790.099581" y="361.980108" style="fill: #bf00bf; stroke: #bf00bf"/>
     <use xlink:href="#ma8a9c61784" x="799.609383" y="361.379263" style="fill: #bf00bf; stroke: #bf00bf"/>
     <use xlink:href="#ma8a9c61784" x="808.700563" y="360.893072" style="fill: #bf00bf; stroke: #bf00bf"/>
    </g>
   </g>
   <g id="patch_9">
    <path d="M 69.77 534.04 
L 69.77 295.65 
" style="fill: none; stroke: #000000; stroke-width: 0.8; stroke-linejoin: miter; stroke-linecap: square"/>
   </g>
   <g id="patch_10">
    <path d="M 997.2 534.04 
L 997.2 295.65 
" style="fill: none; stroke: #000000; stroke-width: 0.8; stroke-linejoin: miter; stroke-linecap: square"/>
   </g>
   <g id="patch_11">
    <path d="M 69.77 534.04 
L 997.200001 534.04 
" style="fill: none; stroke: #000000; stroke-width: 0.8; stroke-linejoin: miter; stroke-linecap: square"/>
   </g>
   <g id="patch_12">
    <path d="M 69.77 295.65 
L 997.200001 295.65 
" style="fill: none; stroke: #000000; stroke-width: 0.8; stroke-linejoin: miter; stroke-linecap: square"/>
   </g>
   <g id="text_24">
    <!-- Vision Signal with Peaks -->
    <g transform="translate(461.333125 289.65) scale(0.12 -0.12)">
     <use xlink:href="#DejaVuSans-56"/>
     <use xlink:href="#DejaVuSans-69" x="66.158203"/>
     <use xlink:href="#DejaVuSans-73" x="93.941406"/>
     <use xlink:href="#DejaVuSans-69" x="146.041016"/>
     <use xlink:href="#DejaVuSans-6f" x="173.824219"/>
     <use xlink:href="#DejaVuSans-6e" x="235.005859"/>
     <use xlink:href="#DejaVuSans-20" x="298.384766"/>
     <use xlink:href="#DejaVuSans-53" x="330.171875"/>
     <use xlink:href="#DejaVuSans-69" x="393.648438"/>
     <use xlink:href="#DejaVuSans-67" x="421.431641"/>
     <use xlink:href="#DejaVuSans-6e" x="484.908203"/>
     <use xlink:href="#DejaVuSans-61" x="548.287109"/>
     <use xlink:href="#DejaVuSans-6c" x="609.566406"/>
     <use xlink:href="#DejaVuSans-20" x="637.349609"/>
     <use xlink:href="#DejaVuSans-77" x="669.136719"/>
     <use xlink:href="#DejaVuSans-69" x="750.923828"/>
     <use xlink:href="#DejaVuSans-74" x="778.707031"/>
     <use xlink:href="#DejaVuSans-68" x="817.916016"/>
     <use xlink:href="#DejaVuSans-20" x="881.294922"/>
     <use xlink:href="#DejaVuSans-50" x="913.082031"/>
     <use xlink:href="#DejaVuSans-65" x="969.759766"/>
     <use xlink:href="#DejaVuSans-61" x="1031.283203"/>
     <use xlink:href="#DejaVuSans-6b" x="1092.5625"/>
     <use xlink:href="#DejaVuSans-73" x="1150.472656"/>
    </g>
   </g>
   <g id="legend_2">
    <g id="patch_13">
     <path d="M 76.77 333.00625 
L 172.245 333.00625 
Q 174.245 333.00625 174.245 331.00625 
L 174.245 302.65 
Q 174.245 300.65 172.245 300.65 
L 76.77 300.65 
Q 74.77 300.65 74.77 302.65 
L 74.77 331.00625 
Q 74.77 333.00625 76.77 333.00625 
z
" style="fill: #ffffff; opacity: 0.8; stroke: #cccccc; stroke-linejoin: miter"/>
    </g>
    <g id="line2d_49">
     <path d="M 78.77 308.748437 
L 88.77 308.748437 
L 98.77 308.748437 
" style="fill: none; stroke: #008000; stroke-opacity: 0.5; stroke-width: 1.5; stroke-linecap: square"/>
    </g>
    <g id="text_25">
     <!-- Vision Depth -->
     <g transform="translate(106.77 312.248437) scale(0.1 -0.1)">
      <use xlink:href="#DejaVuSans-56"/>
      <use xlink:href="#DejaVuSans-69" x="66.158203"/>
      <use xlink:href="#DejaVuSans-73" x="93.941406"/>
      <use xlink:href="#DejaVuSans-69" x="146.041016"/>
      <use xlink:href="#DejaVuSans-6f" x="173.824219"/>
      <use xlink:href="#DejaVuSans-6e" x="235.005859"/>
      <use xlink:href="#DejaVuSans-20" x="298.384766"/>
      <use xlink:href="#DejaVuSans-44" x="330.171875"/>
      <use xlink:href="#DejaVuSans-65" x="407.173828"/>
      <use xlink:href="#DejaVuSans-70" x="468.697266"/>
      <use xlink:href="#DejaVuSans-74" x="532.173828"/>
      <use xlink:href="#DejaVuSans-68" x="571.382812"/>
     </g>
    </g>
    <g id="line2d_50">
     <g>
      <use xlink:href="#ma8a9c61784" x="88.77" y="323.426562" style="fill: #bf00bf; stroke: #bf00bf"/>
     </g>
    </g>
    <g id="text_26">
     <!-- Vision Peaks -->
     <g transform="translate(106.77 326.926562) scale(0.1 -0.1)">
      <use xlink:href="#DejaVuSans-56"/>
      <use xlink:href="#DejaVuSans-69" x="66.158203"/>
      <use xlink:href="#DejaVuSans-73" x="93.941406"/>
      <use xlink:href="#DejaVuSans-69" x="146.041016"/>
      <use xlink:href="#DejaVuSans-6f" x="173.824219"/>
      <use xlink:href="#DejaVuSans-6e" x="235.005859"/>
      <use xlink:href="#DejaVuSans-20" x="298.384766"/>
      <use xlink:href="#DejaVuSans-50" x="330.171875"/>
      <use xlink:href="#DejaVuSans-65" x="386.849609"/>
      <use xlink:href="#DejaVuSans-61" x="448.373047"/>
      <use xlink:href="#DejaVuSans-6b" x="509.652344"/>
      <use xlink:href="#DejaVuSans-73" x="567.5625"/>
     </g>
    </g>
   </g>
  </g>
 </g>
 <defs>
  <clipPath id="p2a6d768ecb">
   <rect x="69.77" y="26.88" width="927.43" height="238.39"/>
  </clipPath>
  <clipPath id="p551c85bcbc">
   <rect x="69.77" y="295.65" width="927.43" height="238.39"/>
  </clipPath>
 </defs>
</svg>
