<?xml version="1.0" encoding="utf-8" standalone="no"?>
<!DOCTYPE svg PUBLIC "-//W3C//DTD SVG 1.1//EN"
  "http://www.w3.org/Graphics/SVG/1.1/DTD/svg11.dtd">
<svg xmlns:xlink="http://www.w3.org/1999/xlink" width="864pt" height="288pt" viewBox="0 0 864 288" xmlns="http://www.w3.org/2000/svg" version="1.1">
 <metadata>
  <rdf:RDF xmlns:dc="http://purl.org/dc/elements/1.1/" xmlns:cc="http://creativecommons.org/ns#" xmlns:rdf="http://www.w3.org/1999/02/22-rdf-syntax-ns#">
   <cc:Work>
    <dc:type rdf:resource="http://purl.org/dc/dcmitype/StillImage"/>
    <dc:date>2025-12-08T16:05:58.733269</dc:date>
    <dc:format>image/svg+xml</dc:format>
    <dc:creator>
     <cc:Agent>
      <dc:title>Matplotlib v3.8.4, https://matplotlib.org/</dc:title>
     </cc:Agent>
    </dc:creator>
   </cc:Work>
  </rdf:RDF>
 </metadata>
 <defs>
  <style type="text/css">*{stroke-linejoin: round; stroke-linecap: butt}</style>
 </defs>
 <g id="figure_1">
  <g id="patch_1">
   <path d="M 0 288 
L 864 288 
L 864 0 
L 0 0 
z
" style="fill: #ffffff"/>
  </g>
  <g id="axes_1">
   <g id="patch_2">
    <path d="M 63.47 246.04 
L 804.76 246.04 
L 804.76 26.88 
L 63.47 26.88 
z
" style="fill: #ffffff"/>
   </g>
   <g id="matplotlib.axis_1">
    <g id="xtick_1">
     <g id="line2d_1">
      <path d="M 78.936268 246.04 
L 78.936268 26.88 
" clip-path="url(#p77d36515bb)" style="fill: none; stroke: #b0b0b0; stroke-width: 0.8; stroke-linecap: square"/>
     </g>
     <g id="line2d_2">
      <defs>
       <path id="me05c702ee6" d="M 0 0 
L 0 3.5 
" style="stroke: #000000; stroke-width: 0.8"/>
      </defs>
      <g>
       <use xlink:href="#me05c702ee6" x="78.936268" y="246.04" style="stroke: #000000; stroke-width: 0.8"/>
      </g>
     </g>
     <g id="text_1">
      <!-- 20 -->
      <g transform="translate(72.573768 260.638438) scale(0.1 -0.1)">
       <defs>
        <path id="DejaVuSans-32" d="M 1228 531 
L 3431 531 
L 3431 0 
L 469 0 
L 469 531 
Q 828 903 1448 1529 
Q 2069 2156 2228 2338 
Q 2531 2678 2651 2914 
Q 2772 3150 2772 3378 
Q 2772 3750 2511 3984 
Q 2250 4219 1831 4219 
Q 1534 4219 1204 4116 
Q 875 4013 500 3803 
L 500 4441 
Q 881 4594 1212 4672 
Q 1544 4750 1819 4750 
Q 2544 4750 2975 4387 
Q 3406 4025 3406 3419 
Q 3406 3131 3298 2873 
Q 3191 2616 2906 2266 
Q 2828 2175 2409 1742 
Q 1991 1309 1228 531 
z
" transform="scale(0.015625)"/>
        <path id="DejaVuSans-30" d="M 2034 4250 
Q 1547 4250 1301 3770 
Q 1056 3291 1056 2328 
Q 1056 1369 1301 889 
Q 1547 409 2034 409 
Q 2525 409 2770 889 
Q 3016 1369 3016 2328 
Q 3016 3291 2770 3770 
Q 2525 4250 2034 4250 
z
M 2034 4750 
Q 2819 4750 3233 4129 
Q 3647 3509 3647 2328 
Q 3647 1150 3233 529 
Q 2819 -91 2034 -91 
Q 1250 -91 836 529 
Q 422 1150 422 2328 
Q 422 3509 836 4129 
Q 1250 4750 2034 4750 
z
" transform="scale(0.015625)"/>
       </defs>
       <use xlink:href="#DejaVuSans-32"/>
       <use xlink:href="#DejaVuSans-30" x="63.623047"/>
      </g>
     </g>
    </g>
    <g id="xtick_2">
     <g id="line2d_3">
      <path d="M 166.912769 246.04 
L 166.912769 26.88 
" clip-path="url(#p77d36515bb)" style="fill: none; stroke: #b0b0b0; stroke-width: 0.8; stroke-linecap: square"/>
     </g>
     <g id="line2d_4">
      <g>
       <use xlink:href="#me05c702ee6" x="166.912769" y="246.04" style="stroke: #000000; stroke-width: 0.8"/>
      </g>
     </g>
     <g id="text_2">
      <!-- 25 -->
      <g transform="translate(160.550269 260.638438) scale(0.1 -0.1)">
       <defs>
        <path id="DejaVuSans-35" d="M 691 4666 
L 3169 4666 
L 3169 4134 
L 1269 4134 
L 1269 2991 
Q 1406 3038 1543 3061 
Q 1681 3084 1819 3084 
Q 2600 3084 3056 2656 
Q 3513 2228 3513 1497 
Q 3513 744 3044 326 
Q 2575 -91 1722 -91 
Q 1428 -91 1123 -41 
Q 819 9 494 109 
L 494 744 
Q 775 591 1075 516 
Q 1375 441 1709 441 
Q 2250 441 2565 725 
Q 2881 1009 2881 1497 
Q 2881 1984 2565 2268 
Q 2250 2553 1709 2553 
Q 1456 2553 1204 2497 
Q 953 2441 691 2322 
L 691 4666 
z
" transform="scale(0.015625)"/>
       </defs>
       <use xlink:href="#DejaVuSans-32"/>
       <use xlink:href="#DejaVuSans-35" x="63.623047"/>
      </g>
     </g>
    </g>
    <g id="xtick_3">
     <g id="line2d_5">
      <path d="M 254.889271 246.04 
L 254.889271 26.88 
" clip-path="url(#p77d36515bb)" style="fill: none; stroke: #b0b0b0; stroke-width: 0.8; stroke-linecap: square"/>
     </g>
     <g id="line2d_6">
      <g>
       <use xlink:href="#me05c702ee6" x="254.889271" y="246.04" style="stroke: #000000; stroke-width: 0.8"/>
      </g>
     </g>
     <g id="text_3">
      <!-- 30 -->
      <g transform="translate(248.526771 260.638438) scale(0.1 -0.1)">
       <defs>
        <path id="DejaVuSans-33" d="M 2597 2516 
Q 3050 2419 3304 2112 
Q 3559 1806 3559 1356 
Q 3559 666 3084 287 
Q 2609 -91 1734 -91 
Q 1441 -91 1130 -33 
Q 819 25 488 141 
L 488 750 
Q 750 597 1062 519 
Q 1375 441 1716 441 
Q 2309 441 2620 675 
Q 2931 909 2931 1356 
Q 2931 1769 2642 2001 
Q 2353 2234 1838 2234 
L 1294 2234 
L 1294 2753 
L 1863 2753 
Q 2328 2753 2575 2939 
Q 2822 3125 2822 3475 
Q 2822 3834 2567 4026 
Q 2313 4219 1838 4219 
Q 1578 4219 1281 4162 
Q 984 4106 628 3988 
L 628 4550 
Q 988 4650 1302 4700 
Q 1616 4750 1894 4750 
Q 2613 4750 3031 4423 
Q 3450 4097 3450 3541 
Q 3450 3153 3228 2886 
Q 3006 2619 2597 2516 
z
" transform="scale(0.015625)"/>
       </defs>
       <use xlink:href="#DejaVuSans-33"/>
       <use xlink:href="#DejaVuSans-30" x="63.623047"/>
      </g>
     </g>
    </g>
    <g id="xtick_4">
     <g id="line2d_7">
      <path d="M 342.865772 246.04 
L 342.865772 26.88 
" clip-path="url(#p77d36515bb)" style="fill: none; stroke: #b0b0b0; stroke-width: 0.8; stroke-linecap: square"/>
     </g>
     <g id="line2d_8">
      <g>
       <use xlink:href="#me05c702ee6" x="342.865772" y="246.04" style="stroke: #000000; stroke-width: 0.8"/>
      </g>
     </g>
     <g id="text_4">
      <!-- 35 -->
      <g transform="translate(336.503272 260.638438) scale(0.1 -0.1)">
       <use xlink:href="#DejaVuSans-33"/>
       <use xlink:href="#DejaVuSans-35" x="63.623047"/>
      </g>
     </g>
    </g>
    <g id="xtick_5">
     <g id="line2d_9">
      <path d="M 430.842274 246.04 
L 430.842274 26.88 
" clip-path="url(#p77d36515bb)" style="fill: none; stroke: #b0b0b0; stroke-width: 0.8; stroke-linecap: square"/>
     </g>
     <g id="line2d_10">
      <g>
       <use xlink:href="#me05c702ee6" x="430.842274" y="246.04" style="stroke: #000000; stroke-width: 0.8"/>
      </g>
     </g>
     <g id="text_5">
      <!-- 40 -->
      <g transform="translate(424.479774 260.638438) scale(0.1 -0.1)">
       <defs>
        <path id="DejaVuSans-34" d="M 2419 4116 
L 825 1625 
L 2419 1625 
L 2419 4116 
z
M 2253 4666 
L 3047 4666 
L 3047 1625 
L 3713 1625 
L 3713 1100 
L 3047 1100 
L 3047 0 
L 2419 0 
L 2419 1100 
L 313 1100 
L 313 1709 
L 2253 4666 
z
" transform="scale(0.015625)"/>
       </defs>
       <use xlink:href="#DejaVuSans-34"/>
       <use xlink:href="#DejaVuSans-30" x="63.623047"/>
      </g>
     </g>
    </g>
    <g id="xtick_6">
     <g id="line2d_11">
      <path d="M 518.818775 246.04 
L 518.818775 26.88 
" clip-path="url(#p77d36515bb)" style="fill: none; stroke: #b0b0b0; stroke-width: 0.8; stroke-linecap: square"/>
     </g>
     <g id="line2d_12">
      <g>
       <use xlink:href="#me05c702ee6" x="518.818775" y="246.04" style="stroke: #000000; stroke-width: 0.8"/>
      </g>
     </g>
     <g id="text_6">
      <!-- 45 -->
      <g transform="translate(512.456275 260.638438) scale(0.1 -0.1)">
       <use xlink:href="#DejaVuSans-34"/>
       <use xlink:href="#DejaVuSans-35" x="63.623047"/>
      </g>
     </g>
    </g>
    <g id="xtick_7">
     <g id="line2d_13">
      <path d="M 606.795277 246.04 
L 606.795277 26.88 
" clip-path="url(#p77d36515bb)" style="fill: none; stroke: #b0b0b0; stroke-width: 0.8; stroke-linecap: square"/>
     </g>
     <g id="line2d_14">
      <g>
       <use xlink:href="#me05c702ee6" x="606.795277" y="246.04" style="stroke: #000000; stroke-width: 0.8"/>
      </g>
     </g>
     <g id="text_7">
      <!-- 50 -->
      <g transform="translate(600.432777 260.638438) scale(0.1 -0.1)">
       <use xlink:href="#DejaVuSans-35"/>
       <use xlink:href="#DejaVuSans-30" x="63.623047"/>
      </g>
     </g>
    </g>
    <g id="xtick_8">
     <g id="line2d_15">
      <path d="M 694.771778 246.04 
L 694.771778 26.88 
" clip-path="url(#p77d36515bb)" style="fill: none; stroke: #b0b0b0; stroke-width: 0.8; stroke-linecap: square"/>
     </g>
     <g id="line2d_16">
      <g>
       <use xlink:href="#me05c702ee6" x="694.771778" y="246.04" style="stroke: #000000; stroke-width: 0.8"/>
      </g>
     </g>
     <g id="text_8">
      <!-- 55 -->
      <g transform="translate(688.409278 260.638438) scale(0.1 -0.1)">
       <use xlink:href="#DejaVuSans-35"/>
       <use xlink:href="#DejaVuSans-35" x="63.623047"/>
      </g>
     </g>
    </g>
    <g id="xtick_9">
     <g id="line2d_17">
      <path d="M 782.74828 246.04 
L 782.74828 26.88 
" clip-path="url(#p77d36515bb)" style="fill: none; stroke: #b0b0b0; stroke-width: 0.8; stroke-linecap: square"/>
     </g>
     <g id="line2d_18">
      <g>
       <use xlink:href="#me05c702ee6" x="782.74828" y="246.04" style="stroke: #000000; stroke-width: 0.8"/>
      </g>
     </g>
     <g id="text_9">
      <!-- 60 -->
      <g transform="translate(776.38578 260.638438) scale(0.1 -0.1)">
       <defs>
        <path id="DejaVuSans-36" d="M 2113 2584 
Q 1688 2584 1439 2293 
Q 1191 2003 1191 1497 
Q 1191 994 1439 701 
Q 1688 409 2113 409 
Q 2538 409 2786 701 
Q 3034 994 3034 1497 
Q 3034 2003 2786 2293 
Q 2538 2584 2113 2584 
z
M 3366 4563 
L 3366 3988 
Q 3128 4100 2886 4159 
Q 2644 4219 2406 4219 
Q 1781 4219 1451 3797 
Q 1122 3375 1075 2522 
Q 1259 2794 1537 2939 
Q 1816 3084 2150 3084 
Q 2853 3084 3261 2657 
Q 3669 2231 3669 1497 
Q 3669 778 3244 343 
Q 2819 -91 2113 -91 
Q 1303 -91 875 529 
Q 447 1150 447 2328 
Q 447 3434 972 4092 
Q 1497 4750 2381 4750 
Q 2619 4750 2861 4703 
Q 3103 4656 3366 4563 
z
" transform="scale(0.015625)"/>
       </defs>
       <use xlink:href="#DejaVuSans-36"/>
       <use xlink:href="#DejaVuSans-30" x="63.623047"/>
      </g>
     </g>
    </g>
    <g id="text_10">
     <!-- Time (s) -->
     <g transform="translate(413.786094 274.316562) scale(0.1 -0.1)">
      <defs>
       <path id="DejaVuSans-54" d="M -19 4666 
L 3928 4666 
L 3928 4134 
L 2272 4134 
L 2272 0 
L 1638 0 
L 1638 4134 
L -19 4134 
L -19 4666 
z
" transform="scale(0.015625)"/>
       <path id="DejaVuSans-69" d="M 603 3500 
L 1178 3500 
L 1178 0 
L 603 0 
L 603 3500 
z
M 603 4863 
L 1178 4863 
L 1178 4134 
L 603 4134 
L 603 4863 
z
" transform="scale(0.015625)"/>
       <path id="DejaVuSans-6d" d="M 3328 2828 
Q 3544 3216 3844 3400 
Q 4144 3584 4550 3584 
Q 5097 3584 5394 3201 
Q 5691 2819 5691 2113 
L 5691 0 
L 5113 0 
L 5113 2094 
Q 5113 2597 4934 2840 
Q 4756 3084 4391 3084 
Q 3944 3084 3684 2787 
Q 3425 2491 3425 1978 
L 3425 0 
L 2847 0 
L 2847 2094 
Q 2847 2600 2669 2842 
Q 2491 3084 2119 3084 
Q 1678 3084 1418 2786 
Q 1159 2488 1159 1978 
L 1159 0 
L 581 0 
L 581 3500 
L 1159 3500 
L 1159 2956 
Q 1356 3278 1631 3431 
Q 1906 3584 2284 3584 
Q 2666 3584 2933 3390 
Q 3200 3197 3328 2828 
z
" transform="scale(0.015625)"/>
       <path id="DejaVuSans-65" d="M 3597 1894 
L 3597 1613 
L 953 1613 
Q 991 1019 1311 708 
Q 1631 397 2203 397 
Q 2534 397 2845 478 
Q 3156 559 3463 722 
L 3463 178 
Q 3153 47 2828 -22 
Q 2503 -91 2169 -91 
Q 1331 -91 842 396 
Q 353 884 353 1716 
Q 353 2575 817 3079 
Q 1281 3584 2069 3584 
Q 2775 3584 3186 3129 
Q 3597 2675 3597 1894 
z
M 3022 2063 
Q 3016 2534 2758 2815 
Q 2500 3097 2075 3097 
Q 1594 3097 1305 2825 
Q 1016 2553 972 2059 
L 3022 2063 
z
" transform="scale(0.015625)"/>
       <path id="DejaVuSans-20" transform="scale(0.015625)"/>
       <path id="DejaVuSans-28" d="M 1984 4856 
Q 1566 4138 1362 3434 
Q 1159 2731 1159 2009 
Q 1159 1288 1364 580 
Q 1569 -128 1984 -844 
L 1484 -844 
Q 1016 -109 783 600 
Q 550 1309 550 2009 
Q 550 2706 781 3412 
Q 1013 4119 1484 4856 
L 1984 4856 
z
" transform="scale(0.015625)"/>
       <path id="DejaVuSans-73" d="M 2834 3397 
L 2834 2853 
Q 2591 2978 2328 3040 
Q 2066 3103 1784 3103 
Q 1356 3103 1142 2972 
Q 928 2841 928 2578 
Q 928 2378 1081 2264 
Q 1234 2150 1697 2047 
L 1894 2003 
Q 2506 1872 2764 1633 
Q 3022 1394 3022 966 
Q 3022 478 2636 193 
Q 2250 -91 1575 -91 
Q 1294 -91 989 -36 
Q 684 19 347 128 
L 347 722 
Q 666 556 975 473 
Q 1284 391 1588 391 
Q 1994 391 2212 530 
Q 2431 669 2431 922 
Q 2431 1156 2273 1281 
Q 2116 1406 1581 1522 
L 1381 1569 
Q 847 1681 609 1914 
Q 372 2147 372 2553 
Q 372 3047 722 3315 
Q 1072 3584 1716 3584 
Q 2034 3584 2315 3537 
Q 2597 3491 2834 3397 
z
" transform="scale(0.015625)"/>
       <path id="DejaVuSans-29" d="M 513 4856 
L 1013 4856 
Q 1481 4119 1714 3412 
Q 1947 2706 1947 2009 
Q 1947 1309 1714 600 
Q 1481 -109 1013 -844 
L 513 -844 
Q 928 -128 1133 580 
Q 1338 1288 1338 2009 
Q 1338 2731 1133 3434 
Q 928 4138 513 4856 
z
" transform="scale(0.015625)"/>
      </defs>
      <use xlink:href="#DejaVuSans-54"/>
      <use xlink:href="#DejaVuSans-69" x="57.958984"/>
      <use xlink:href="#DejaVuSans-6d" x="85.742188"/>
      <use xlink:href="#DejaVuSans-65" x="183.154297"/>
      <use xlink:href="#DejaVuSans-20" x="244.677734"/>
      <use xlink:href="#DejaVuSans-28" x="276.464844"/>
      <use xlink:href="#DejaVuSans-73" x="315.478516"/>
      <use xlink:href="#DejaVuSans-29" x="367.578125"/>
     </g>
    </g>
    <g id="text_11">
     <!-- +1.7651806e9 -->
     <g transform="translate(729.786562 273.316562) scale(0.1 -0.1)">
      <defs>
       <path id="DejaVuSans-2b" d="M 2944 4013 
L 2944 2272 
L 4684 2272 
L 4684 1741 
L 2944 1741 
L 2944 0 
L 2419 0 
L 2419 1741 
L 678 1741 
L 678 2272 
L 2419 2272 
L 2419 4013 
L 2944 4013 
z
" transform="scale(0.015625)"/>
       <path id="DejaVuSans-31" d="M 794 531 
L 1825 531 
L 1825 4091 
L 703 3866 
L 703 4441 
L 1819 4666 
L 2450 4666 
L 2450 531 
L 3481 531 
L 3481 0 
L 794 0 
L 794 531 
z
" transform="scale(0.015625)"/>
       <path id="DejaVuSans-2e" d="M 684 794 
L 1344 794 
L 1344 0 
L 684 0 
L 684 794 
z
" transform="scale(0.015625)"/>
       <path id="DejaVuSans-37" d="M 525 4666 
L 3525 4666 
L 3525 4397 
L 1831 0 
L 1172 0 
L 2766 4134 
L 525 4134 
L 525 4666 
z
" transform="scale(0.015625)"/>
       <path id="DejaVuSans-38" d="M 2034 2216 
Q 1584 2216 1326 1975 
Q 1069 1734 1069 1313 
Q 1069 891 1326 650 
Q 1584 409 2034 409 
Q 2484 409 2743 651 
Q 3003 894 3003 1313 
Q 3003 1734 2745 1975 
Q 2488 2216 2034 2216 
z
M 1403 2484 
Q 997 2584 770 2862 
Q 544 3141 544 3541 
Q 544 4100 942 4425 
Q 1341 4750 2034 4750 
Q 2731 4750 3128 4425 
Q 3525 4100 3525 3541 
Q 3525 3141 3298 2862 
Q 3072 2584 2669 2484 
Q 3125 2378 3379 2068 
Q 3634 1759 3634 1313 
Q 3634 634 3220 271 
Q 2806 -91 2034 -91 
Q 1263 -91 848 271 
Q 434 634 434 1313 
Q 434 1759 690 2068 
Q 947 2378 1403 2484 
z
M 1172 3481 
Q 1172 3119 1398 2916 
Q 1625 2713 2034 2713 
Q 2441 2713 2670 2916 
Q 2900 3119 2900 3481 
Q 2900 3844 2670 4047 
Q 2441 4250 2034 4250 
Q 1625 4250 1398 4047 
Q 1172 3844 1172 3481 
z
" transform="scale(0.015625)"/>
       <path id="DejaVuSans-39" d="M 703 97 
L 703 672 
Q 941 559 1184 500 
Q 1428 441 1663 441 
Q 2288 441 2617 861 
Q 2947 1281 2994 2138 
Q 2813 1869 2534 1725 
Q 2256 1581 1919 1581 
Q 1219 1581 811 2004 
Q 403 2428 403 3163 
Q 403 3881 828 4315 
Q 1253 4750 1959 4750 
Q 2769 4750 3195 4129 
Q 3622 3509 3622 2328 
Q 3622 1225 3098 567 
Q 2575 -91 1691 -91 
Q 1453 -91 1209 -44 
Q 966 3 703 97 
z
M 1959 2075 
Q 2384 2075 2632 2365 
Q 2881 2656 2881 3163 
Q 2881 3666 2632 3958 
Q 2384 4250 1959 4250 
Q 1534 4250 1286 3958 
Q 1038 3666 1038 3163 
Q 1038 2656 1286 2365 
Q 1534 2075 1959 2075 
z
" transform="scale(0.015625)"/>
      </defs>
      <use xlink:href="#DejaVuSans-2b"/>
      <use xlink:href="#DejaVuSans-31" x="83.789062"/>
      <use xlink:href="#DejaVuSans-2e" x="147.412109"/>
      <use xlink:href="#DejaVuSans-37" x="179.199219"/>
      <use xlink:href="#DejaVuSans-36" x="242.822266"/>
      <use xlink:href="#DejaVuSans-35" x="306.445312"/>
      <use xlink:href="#DejaVuSans-31" x="370.068359"/>
      <use xlink:href="#DejaVuSans-38" x="433.691406"/>
      <use xlink:href="#DejaVuSans-30" x="497.314453"/>
      <use xlink:href="#DejaVuSans-36" x="560.9375"/>
      <use xlink:href="#DejaVuSans-65" x="624.560547"/>
      <use xlink:href="#DejaVuSans-39" x="686.083984"/>
     </g>
    </g>
   </g>
   <g id="matplotlib.axis_2">
    <g id="ytick_1">
     <g id="line2d_19">
      <path d="M 63.47 239.527179 
L 804.76 239.527179 
" clip-path="url(#p77d36515bb)" style="fill: none; stroke: #b0b0b0; stroke-width: 0.8; stroke-linecap: square"/>
     </g>
     <g id="line2d_20">
      <defs>
       <path id="mb22fd03126" d="M 0 0 
L -3.5 0 
" style="stroke: #000000; stroke-width: 0.8"/>
      </defs>
      <g>
       <use xlink:href="#mb22fd03126" x="63.47" y="239.527179" style="stroke: #000000; stroke-width: 0.8"/>
      </g>
     </g>
     <g id="text_12">
      <!-- 0 -->
      <g transform="translate(50.1075 243.326397) scale(0.1 -0.1)">
       <use xlink:href="#DejaVuSans-30"/>
      </g>
     </g>
    </g>
    <g id="ytick_2">
     <g id="line2d_21">
      <path d="M 63.47 213.926167 
L 804.76 213.926167 
" clip-path="url(#p77d36515bb)" style="fill: none; stroke: #b0b0b0; stroke-width: 0.8; stroke-linecap: square"/>
     </g>
     <g id="line2d_22">
      <g>
       <use xlink:href="#mb22fd03126" x="63.47" y="213.926167" style="stroke: #000000; stroke-width: 0.8"/>
      </g>
     </g>
     <g id="text_13">
      <!-- 10000 -->
      <g transform="translate(24.6575 217.725385) scale(0.1 -0.1)">
       <use xlink:href="#DejaVuSans-31"/>
       <use xlink:href="#DejaVuSans-30" x="63.623047"/>
       <use xlink:href="#DejaVuSans-30" x="127.246094"/>
       <use xlink:href="#DejaVuSans-30" x="190.869141"/>
       <use xlink:href="#DejaVuSans-30" x="254.492188"/>
      </g>
     </g>
    </g>
    <g id="ytick_3">
     <g id="line2d_23">
      <path d="M 63.47 188.325154 
L 804.76 188.325154 
" clip-path="url(#p77d36515bb)" style="fill: none; stroke: #b0b0b0; stroke-width: 0.8; stroke-linecap: square"/>
     </g>
     <g id="line2d_24">
      <g>
       <use xlink:href="#mb22fd03126" x="63.47" y="188.325154" style="stroke: #000000; stroke-width: 0.8"/>
      </g>
     </g>
     <g id="text_14">
      <!-- 20000 -->
      <g transform="translate(24.6575 192.124373) scale(0.1 -0.1)">
       <use xlink:href="#DejaVuSans-32"/>
       <use xlink:href="#DejaVuSans-30" x="63.623047"/>
       <use xlink:href="#DejaVuSans-30" x="127.246094"/>
       <use xlink:href="#DejaVuSans-30" x="190.869141"/>
       <use xlink:href="#DejaVuSans-30" x="254.492188"/>
      </g>
     </g>
    </g>
    <g id="ytick_4">
     <g id="line2d_25">
      <path d="M 63.47 162.724142 
L 804.76 162.724142 
" clip-path="url(#p77d36515bb)" style="fill: none; stroke: #b0b0b0; stroke-width: 0.8; stroke-linecap: square"/>
     </g>
     <g id="line2d_26">
      <g>
       <use xlink:href="#mb22fd03126" x="63.47" y="162.724142" style="stroke: #000000; stroke-width: 0.8"/>
      </g>
     </g>
     <g id="text_15">
      <!-- 30000 -->
      <g transform="translate(24.6575 166.523361) scale(0.1 -0.1)">
       <use xlink:href="#DejaVuSans-33"/>
       <use xlink:href="#DejaVuSans-30" x="63.623047"/>
       <use xlink:href="#DejaVuSans-30" x="127.246094"/>
       <use xlink:href="#DejaVuSans-30" x="190.869141"/>
       <use xlink:href="#DejaVuSans-30" x="254.492188"/>
      </g>
     </g>
    </g>
    <g id="ytick_5">
     <g id="line2d_27">
      <path d="M 63.47 137.12313 
L 804.76 137.12313 
" clip-path="url(#p77d36515bb)" style="fill: none; stroke: #b0b0b0; stroke-width: 0.8; stroke-linecap: square"/>
     </g>
     <g id="line2d_28">
      <g>
       <use xlink:href="#mb22fd03126" x="63.47" y="137.12313" style="stroke: #000000; stroke-width: 0.8"/>
      </g>
     </g>
     <g id="text_16">
      <!-- 40000 -->
      <g transform="translate(24.6575 140.922349) scale(0.1 -0.1)">
       <use xlink:href="#DejaVuSans-34"/>
       <use xlink:href="#DejaVuSans-30" x="63.623047"/>
       <use xlink:href="#DejaVuSans-30" x="127.246094"/>
       <use xlink:href="#DejaVuSans-30" x="190.869141"/>
       <use xlink:href="#DejaVuSans-30" x="254.492188"/>
      </g>
     </g>
    </g>
    <g id="ytick_6">
     <g id="line2d_29">
      <path d="M 63.47 111.522118 
L 804.76 111.522118 
" clip-path="url(#p77d36515bb)" style="fill: none; stroke: #b0b0b0; stroke-width: 0.8; stroke-linecap: square"/>
     </g>
     <g id="line2d_30">
      <g>
       <use xlink:href="#mb22fd03126" x="63.47" y="111.522118" style="stroke: #000000; stroke-width: 0.8"/>
      </g>
     </g>
     <g id="text_17">
      <!-- 50000 -->
      <g transform="translate(24.6575 115.321337) scale(0.1 -0.1)">
       <use xlink:href="#DejaVuSans-35"/>
       <use xlink:href="#DejaVuSans-30" x="63.623047"/>
       <use xlink:href="#DejaVuSans-30" x="127.246094"/>
       <use xlink:href="#DejaVuSans-30" x="190.869141"/>
       <use xlink:href="#DejaVuSans-30" x="254.492188"/>
      </g>
     </g>
    </g>
    <g id="ytick_7">
     <g id="line2d_31">
      <path d="M 63.47 85.921106 
L 804.76 85.921106 
" clip-path="url(#p77d36515bb)" style="fill: none; stroke: #b0b0b0; stroke-width: 0.8; stroke-linecap: square"/>
     </g>
     <g id="line2d_32">
      <g>
       <use xlink:href="#mb22fd03126" x="63.47" y="85.921106" style="stroke: #000000; stroke-width: 0.8"/>
      </g>
     </g>
     <g id="text_18">
      <!-- 60000 -->
      <g transform="translate(24.6575 89.720325) scale(0.1 -0.1)">
       <use xlink:href="#DejaVuSans-36"/>
       <use xlink:href="#DejaVuSans-30" x="63.623047"/>
       <use xlink:href="#DejaVuSans-30" x="127.246094"/>
       <use xlink:href="#DejaVuSans-30" x="190.869141"/>
       <use xlink:href="#DejaVuSans-30" x="254.492188"/>
      </g>
     </g>
    </g>
    <g id="ytick_8">
     <g id="line2d_33">
      <path d="M 63.47 60.320094 
L 804.76 60.320094 
" clip-path="url(#p77d36515bb)" style="fill: none; stroke: #b0b0b0; stroke-width: 0.8; stroke-linecap: square"/>
     </g>
     <g id="line2d_34">
      <g>
       <use xlink:href="#mb22fd03126" x="63.47" y="60.320094" style="stroke: #000000; stroke-width: 0.8"/>
      </g>
     </g>
     <g id="text_19">
      <!-- 70000 -->
      <g transform="translate(24.6575 64.119313) scale(0.1 -0.1)">
       <use xlink:href="#DejaVuSans-37"/>
       <use xlink:href="#DejaVuSans-30" x="63.623047"/>
       <use xlink:href="#DejaVuSans-30" x="127.246094"/>
       <use xlink:href="#DejaVuSans-30" x="190.869141"/>
       <use xlink:href="#DejaVuSans-30" x="254.492188"/>
      </g>
     </g>
    </g>
    <g id="ytick_9">
     <g id="line2d_35">
      <path d="M 63.47 34.719082 
L 804.76 34.719082 
" clip-path="url(#p77d36515bb)" style="fill: none; stroke: #b0b0b0; stroke-width: 0.8; stroke-linecap: square"/>
     </g>
     <g id="line2d_36">
      <g>
       <use xlink:href="#mb22fd03126" x="63.47" y="34.719082" style="stroke: #000000; stroke-width: 0.8"/>
      </g>
     </g>
     <g id="text_20">
      <!-- 80000 -->
      <g transform="translate(24.6575 38.518301) scale(0.1 -0.1)">
       <use xlink:href="#DejaVuSans-38"/>
       <use xlink:href="#DejaVuSans-30" x="63.623047"/>
       <use xlink:href="#DejaVuSans-30" x="127.246094"/>
       <use xlink:href="#DejaVuSans-30" x="190.869141"/>
       <use xlink:href="#DejaVuSans-30" x="254.492188"/>
      </g>
     </g>
    </g>
    <g id="text_21">
     <!-- Pressure -->
     <g transform="translate(18.577812 157.804531) rotate(-90) scale(0.1 -0.1)">
      <defs>
       <path id="DejaVuSans-50" d="M 1259 4147 
L 1259 2394 
L 2053 2394 
Q 2494 2394 2734 2622 
Q 2975 2850 2975 3272 
Q 2975 3691 2734 3919 
Q 2494 4147 2053 4147 
L 1259 4147 
z
M 628 4666 
L 2053 4666 
Q 2838 4666 3239 4311 
Q 3641 3956 3641 3272 
Q 3641 2581 3239 2228 
Q 2838 1875 2053 1875 
L 1259 1875 
L 1259 0 
L 628 0 
L 628 4666 
z
" transform="scale(0.015625)"/>
       <path id="DejaVuSans-72" d="M 2631 2963 
Q 2534 3019 2420 3045 
Q 2306 3072 2169 3072 
Q 1681 3072 1420 2755 
Q 1159 2438 1159 1844 
L 1159 0 
L 581 0 
L 581 3500 
L 1159 3500 
L 1159 2956 
Q 1341 3275 1631 3429 
Q 1922 3584 2338 3584 
Q 2397 3584 2469 3576 
Q 2541 3569 2628 3553 
L 2631 2963 
z
" transform="scale(0.015625)"/>
       <path id="DejaVuSans-75" d="M 544 1381 
L 544 3500 
L 1119 3500 
L 1119 1403 
Q 1119 906 1312 657 
Q 1506 409 1894 409 
Q 2359 409 2629 706 
Q 2900 1003 2900 1516 
L 2900 3500 
L 3475 3500 
L 3475 0 
L 2900 0 
L 2900 538 
Q 2691 219 2414 64 
Q 2138 -91 1772 -91 
Q 1169 -91 856 284 
Q 544 659 544 1381 
z
M 1991 3584 
L 1991 3584 
z
" transform="scale(0.015625)"/>
      </defs>
      <use xlink:href="#DejaVuSans-50"/>
      <use xlink:href="#DejaVuSans-72" x="58.552734"/>
      <use xlink:href="#DejaVuSans-65" x="97.416016"/>
      <use xlink:href="#DejaVuSans-73" x="158.939453"/>
      <use xlink:href="#DejaVuSans-73" x="211.039062"/>
      <use xlink:href="#DejaVuSans-75" x="263.138672"/>
      <use xlink:href="#DejaVuSans-72" x="326.517578"/>
      <use xlink:href="#DejaVuSans-65" x="365.380859"/>
     </g>
    </g>
   </g>
   <g id="line2d_37">
    <path d="M 97.165001 197.660962 
L 100.50811 196.824634 
L 107.018368 197.433098 
L 114.056488 195.889855 
L 119.335079 194.285525 
L 119.862938 191.911885 
L 125.669384 164.06289 
L 126.373199 150.431646 
L 132.003696 37.063537 
L 132.355602 43.27174 
L 138.338001 173.921527 
L 138.689907 175.821236 
L 144.672314 197.187983 
L 145.200169 188.266699 
L 151.006618 81.641684 
L 151.182571 81.648752 
L 157.340927 110.229793 
L 158.220692 122.519801 
L 163.675236 200.83799 
L 164.027142 195.398458 
L 170.009544 83.107583 
L 170.185497 82.576021 
L 176.343853 88.218555 
L 176.871712 96.547489 
L 182.678158 194.329914 
L 183.030064 188.185245 
L 189.01247 60.925316 
L 189.188419 62.028876 
L 195.522728 144.391144 
L 201.681084 182.355667 
L 202.03299 175.515688 
L 208.015392 42.218329 
L 208.191345 44.642148 
L 214.349701 184.988674 
L 214.525654 185.211502 
L 220.68401 159.873612 
L 221.387821 146.684952 
L 227.018314 36.841818 
L 227.370224 44.817785 
L 233.352623 208.442529 
L 233.528576 207.88922 
L 239.862885 139.027618 
L 246.02124 44.261916 
L 246.373146 52.52177 
L 252.355549 218.769906 
L 252.531502 217.48448 
L 258.86581 116.523304 
L 265.024166 56.434173 
L 265.376072 63.994351 
L 271.358475 213.283524 
L 271.534428 211.539526 
L 277.69278 96.819613 
L 277.868732 96.190582 
L 284.027088 97.35045 
L 284.554951 105.916008 
L 290.361397 206.789116 
L 290.713303 200.909844 
L 296.695705 78.309157 
L 296.871658 78.613496 
L 303.557873 128.06919 
L 309.364323 179.134676 
L 309.716228 173.060679 
L 315.698631 52.483752 
L 315.874584 54.543368 
L 322.032936 175.682379 
L 322.208889 176.130596 
L 328.367249 165.455329 
L 328.895107 156.834402 
L 334.701553 55.94956 
L 335.053459 63.289299 
L 341.035862 213.477921 
L 341.211815 212.670124 
L 348.073982 128.992732 
L 353.704479 50.997258 
L 354.056381 59.180849 
L 360.038788 222.967591 
L 360.214741 221.655169 
L 366.724998 118.063945 
L 372.707405 52.844229 
L 373.059311 60.393697 
L 379.04171 210.241399 
L 379.217663 208.922705 
L 385.551975 111.410725 
L 391.710327 80.552261 
L 392.062233 87.271943 
L 398.044636 217.530035 
L 398.220585 215.631478 
L 404.378944 99.047314 
L 404.554897 98.212948 
L 410.713249 90.855502 
L 411.241108 100.366989 
L 417.047562 212.96216 
L 417.223515 210.93483 
L 423.381866 92.384366 
L 423.557819 91.907988 
L 429.716179 100.704069 
L 430.244038 108.972968 
L 436.050484 205.835464 
L 436.40239 199.366871 
L 442.384789 66.093691 
L 442.560741 66.848011 
L 449.774818 144.568303 
L 455.053406 196.478622 
L 455.405312 189.806941 
L 461.387718 57.249452 
L 461.563671 58.735846 
L 467.897976 158.984005 
L 474.056335 182.512402 
L 474.584194 172.065468 
L 480.39064 47.356325 
L 480.566593 49.71587 
L 486.724953 186.012814 
L 487.076859 187.909522 
L 493.939022 212.507188 
L 499.393562 234.19537 
L 499.569515 234.313276 
L 507.135498 233.235261 
L 512.590038 232.903514 
L 520.683876 233.838179 
L 531.241062 234.608769 
L 537.927273 234.441708 
L 544.437534 235.380113 
L 554.114948 235.641286 
L 556.930195 235.662734 
L 563.264507 234.766699 
L 569.950718 235.065946 
L 576.285027 234.785871 
L 583.499104 235.070768 
L 597.751293 235.057782 
L 604.261555 235.370214 
L 608.132519 235.502586 
L 614.466831 235.320207 
L 620.44923 235.561681 
L 626.783539 235.080254 
L 638.924297 235.666774 
L 648.073853 235.291064 
L 655.111973 235.286741 
L 661.446281 235.483243 
L 665.845104 235.567925 
L 671.475605 235.562649 
L 678.513721 236.007921 
L 685.375893 236.002261 
L 696.812832 235.718985 
L 705.786438 235.621886 
L 709.481449 235.617989 
L 716.34362 235.992305 
L 723.029831 235.886715 
L 728.308422 235.693512 
L 734.290825 236.011534 
L 740.801083 235.370613 
L 748.191113 235.642609 
L 756.108997 235.446576 
L 759.979965 235.372646 
L 767.369987 235.790199 
L 771.065002 235.851428 
L 771.065002 235.851428 
" clip-path="url(#p77d36515bb)" style="fill: none; stroke: #0000ff; stroke-width: 1.5; stroke-linecap: square"/>
   </g>
   <g id="patch_3">
    <path d="M 63.47 246.04 
L 63.47 26.88 
" style="fill: none; stroke: #000000; stroke-width: 0.8; stroke-linejoin: miter; stroke-linecap: square"/>
   </g>
   <g id="patch_4">
    <path d="M 804.76 246.04 
L 804.76 26.88 
" style="fill: none; stroke: #000000; stroke-width: 0.8; stroke-linejoin: miter; stroke-linecap: square"/>
   </g>
   <g id="patch_5">
    <path d="M 63.470001 246.04 
L 804.760002 246.04 
" style="fill: none; stroke: #000000; stroke-width: 0.8; stroke-linejoin: miter; stroke-linecap: square"/>
   </g>
   <g id="patch_6">
    <path d="M 63.470001 26.88 
L 804.760002 26.88 
" style="fill: none; stroke: #000000; stroke-width: 0.8; stroke-linejoin: miter; stroke-linecap: square"/>
   </g>
  </g>
  <g id="axes_2">
   <g id="matplotlib.axis_3">
    <g id="ytick_10">
     <g id="line2d_38">
      <defs>
       <path id="mc92f1a05c1" d="M 0 0 
L 3.5 0 
" style="stroke: #000000; stroke-width: 0.8"/>
      </defs>
      <g>
       <use xlink:href="#mc92f1a05c1" x="804.76" y="208.930304" style="stroke: #000000; stroke-width: 0.8"/>
      </g>
     </g>
     <g id="text_22">
      <!-- −150 -->
      <g transform="translate(811.76 212.729523) scale(0.1 -0.1)">
       <defs>
        <path id="DejaVuSans-2212" d="M 678 2272 
L 4684 2272 
L 4684 1741 
L 678 1741 
L 678 2272 
z
" transform="scale(0.015625)"/>
       </defs>
       <use xlink:href="#DejaVuSans-2212"/>
       <use xlink:href="#DejaVuSans-31" x="83.789062"/>
       <use xlink:href="#DejaVuSans-35" x="147.412109"/>
       <use xlink:href="#DejaVuSans-30" x="211.035156"/>
      </g>
     </g>
    </g>
    <g id="ytick_11">
     <g id="line2d_39">
      <g>
       <use xlink:href="#mc92f1a05c1" x="804.76" y="165.926806" style="stroke: #000000; stroke-width: 0.8"/>
      </g>
     </g>
     <g id="text_23">
      <!-- −100 -->
      <g transform="translate(811.76 169.726025) scale(0.1 -0.1)">
       <use xlink:href="#DejaVuSans-2212"/>
       <use xlink:href="#DejaVuSans-31" x="83.789062"/>
       <use xlink:href="#DejaVuSans-30" x="147.412109"/>
       <use xlink:href="#DejaVuSans-30" x="211.035156"/>
      </g>
     </g>
    </g>
    <g id="ytick_12">
     <g id="line2d_40">
      <g>
       <use xlink:href="#mc92f1a05c1" x="804.76" y="122.923308" style="stroke: #000000; stroke-width: 0.8"/>
      </g>
     </g>
     <g id="text_24">
      <!-- −50 -->
      <g transform="translate(811.76 126.722527) scale(0.1 -0.1)">
       <use xlink:href="#DejaVuSans-2212"/>
       <use xlink:href="#DejaVuSans-35" x="83.789062"/>
       <use xlink:href="#DejaVuSans-30" x="147.412109"/>
      </g>
     </g>
    </g>
    <g id="ytick_13">
     <g id="line2d_41">
      <g>
       <use xlink:href="#mc92f1a05c1" x="804.76" y="79.91981" style="stroke: #000000; stroke-width: 0.8"/>
      </g>
     </g>
     <g id="text_25">
      <!-- 0 -->
      <g transform="translate(811.76 83.719028) scale(0.1 -0.1)">
       <use xlink:href="#DejaVuSans-30"/>
      </g>
     </g>
    </g>
    <g id="ytick_14">
     <g id="line2d_42">
      <g>
       <use xlink:href="#mc92f1a05c1" x="804.76" y="36.916311" style="stroke: #000000; stroke-width: 0.8"/>
      </g>
     </g>
     <g id="text_26">
      <!-- 50 -->
      <g transform="translate(811.76 40.71553) scale(0.1 -0.1)">
       <use xlink:href="#DejaVuSans-35"/>
       <use xlink:href="#DejaVuSans-30" x="63.623047"/>
      </g>
     </g>
    </g>
    <g id="text_27">
     <!-- Vision depth (mm) -->
     <g transform="translate(850.825625 182.752969) rotate(-90) scale(0.1 -0.1)">
      <defs>
       <path id="DejaVuSans-56" d="M 1831 0 
L 50 4666 
L 709 4666 
L 2188 738 
L 3669 4666 
L 4325 4666 
L 2547 0 
L 1831 0 
z
" transform="scale(0.015625)"/>
       <path id="DejaVuSans-6f" d="M 1959 3097 
Q 1497 3097 1228 2736 
Q 959 2375 959 1747 
Q 959 1119 1226 758 
Q 1494 397 1959 397 
Q 2419 397 2687 759 
Q 2956 1122 2956 1747 
Q 2956 2369 2687 2733 
Q 2419 3097 1959 3097 
z
M 1959 3584 
Q 2709 3584 3137 3096 
Q 3566 2609 3566 1747 
Q 3566 888 3137 398 
Q 2709 -91 1959 -91 
Q 1206 -91 779 398 
Q 353 888 353 1747 
Q 353 2609 779 3096 
Q 1206 3584 1959 3584 
z
" transform="scale(0.015625)"/>
       <path id="DejaVuSans-6e" d="M 3513 2113 
L 3513 0 
L 2938 0 
L 2938 2094 
Q 2938 2591 2744 2837 
Q 2550 3084 2163 3084 
Q 1697 3084 1428 2787 
Q 1159 2491 1159 1978 
L 1159 0 
L 581 0 
L 581 3500 
L 1159 3500 
L 1159 2956 
Q 1366 3272 1645 3428 
Q 1925 3584 2291 3584 
Q 2894 3584 3203 3211 
Q 3513 2838 3513 2113 
z
" transform="scale(0.015625)"/>
       <path id="DejaVuSans-64" d="M 2906 2969 
L 2906 4863 
L 3481 4863 
L 3481 0 
L 2906 0 
L 2906 525 
Q 2725 213 2448 61 
Q 2172 -91 1784 -91 
Q 1150 -91 751 415 
Q 353 922 353 1747 
Q 353 2572 751 3078 
Q 1150 3584 1784 3584 
Q 2172 3584 2448 3432 
Q 2725 3281 2906 2969 
z
M 947 1747 
Q 947 1113 1208 752 
Q 1469 391 1925 391 
Q 2381 391 2643 752 
Q 2906 1113 2906 1747 
Q 2906 2381 2643 2742 
Q 2381 3103 1925 3103 
Q 1469 3103 1208 2742 
Q 947 2381 947 1747 
z
" transform="scale(0.015625)"/>
       <path id="DejaVuSans-70" d="M 1159 525 
L 1159 -1331 
L 581 -1331 
L 581 3500 
L 1159 3500 
L 1159 2969 
Q 1341 3281 1617 3432 
Q 1894 3584 2278 3584 
Q 2916 3584 3314 3078 
Q 3713 2572 3713 1747 
Q 3713 922 3314 415 
Q 2916 -91 2278 -91 
Q 1894 -91 1617 61 
Q 1341 213 1159 525 
z
M 3116 1747 
Q 3116 2381 2855 2742 
Q 2594 3103 2138 3103 
Q 1681 3103 1420 2742 
Q 1159 2381 1159 1747 
Q 1159 1113 1420 752 
Q 1681 391 2138 391 
Q 2594 391 2855 752 
Q 3116 1113 3116 1747 
z
" transform="scale(0.015625)"/>
       <path id="DejaVuSans-74" d="M 1172 4494 
L 1172 3500 
L 2356 3500 
L 2356 3053 
L 1172 3053 
L 1172 1153 
Q 1172 725 1289 603 
Q 1406 481 1766 481 
L 2356 481 
L 2356 0 
L 1766 0 
Q 1100 0 847 248 
Q 594 497 594 1153 
L 594 3053 
L 172 3053 
L 172 3500 
L 594 3500 
L 594 4494 
L 1172 4494 
z
" transform="scale(0.015625)"/>
       <path id="DejaVuSans-68" d="M 3513 2113 
L 3513 0 
L 2938 0 
L 2938 2094 
Q 2938 2591 2744 2837 
Q 2550 3084 2163 3084 
Q 1697 3084 1428 2787 
Q 1159 2491 1159 1978 
L 1159 0 
L 581 0 
L 581 4863 
L 1159 4863 
L 1159 2956 
Q 1366 3272 1645 3428 
Q 1925 3584 2291 3584 
Q 2894 3584 3203 3211 
Q 3513 2838 3513 2113 
z
" transform="scale(0.015625)"/>
      </defs>
      <use xlink:href="#DejaVuSans-56"/>
      <use xlink:href="#DejaVuSans-69" x="66.158203"/>
      <use xlink:href="#DejaVuSans-73" x="93.941406"/>
      <use xlink:href="#DejaVuSans-69" x="146.041016"/>
      <use xlink:href="#DejaVuSans-6f" x="173.824219"/>
      <use xlink:href="#DejaVuSans-6e" x="235.005859"/>
      <use xlink:href="#DejaVuSans-20" x="298.384766"/>
      <use xlink:href="#DejaVuSans-64" x="330.171875"/>
      <use xlink:href="#DejaVuSans-65" x="393.648438"/>
      <use xlink:href="#DejaVuSans-70" x="455.171875"/>
      <use xlink:href="#DejaVuSans-74" x="518.648438"/>
      <use xlink:href="#DejaVuSans-68" x="557.857422"/>
      <use xlink:href="#DejaVuSans-20" x="621.236328"/>
      <use xlink:href="#DejaVuSans-28" x="653.023438"/>
      <use xlink:href="#DejaVuSans-6d" x="692.037109"/>
      <use xlink:href="#DejaVuSans-6d" x="789.449219"/>
      <use xlink:href="#DejaVuSans-29" x="886.861328"/>
     </g>
    </g>
   </g>
   <g id="line2d_43">
    <path d="M 97.165001 79.166088 
L 98.220718 79.23879 
L 98.748577 79.160898 
L 99.804298 79.2819 
L 100.684063 79.273428 
L 101.739777 79.224025 
L 102.971447 79.43196 
L 104.027168 79.399666 
L 104.555027 79.492358 
L 105.434792 79.457974 
L 106.490509 79.485316 
L 108.601948 79.400483 
L 108.953854 79.462489 
L 109.481712 79.326369 
L 110.53743 79.38457 
L 111.769096 79.398789 
L 112.648861 79.373643 
L 113.352676 79.290014 
L 116.519829 79.244205 
L 117.223644 79.399086 
L 118.455315 79.072455 
L 118.983173 78.799197 
L 119.335079 78.166284 
L 121.798424 72.885566 
L 122.678188 69.608862 
L 123.557949 65.81049 
L 126.373199 52.168263 
L 127.252964 51.054821 
L 127.60487 50.86113 
L 128.484634 50.961097 
L 129.012493 50.988975 
L 129.716305 51.320411 
L 130.42012 52.682753 
L 130.947979 54.613766 
L 131.651791 58.695387 
L 133.41132 65.749502 
L 134.467033 69.489806 
L 135.522755 73.954163 
L 135.87466 75.221952 
L 136.578472 76.680953 
L 137.106331 77.330107 
L 137.458237 77.592256 
L 138.86586 77.41292 
L 139.393723 77.029768 
L 140.097534 76.030245 
L 140.801346 75.166224 
L 142.208969 73.122154 
L 144.320408 69.201588 
L 144.496361 68.684797 
L 145.728027 61.264321 
L 146.431839 55.561734 
L 148.015419 49.378359 
L 148.543278 47.926554 
L 149.247089 46.814444 
L 149.950901 46.419856 
L 150.47876 46.499719 
L 150.830666 46.995921 
L 151.182571 47.602864 
L 151.886383 51.272924 
L 152.942104 59.382659 
L 153.645916 66.966671 
L 153.997822 69.53862 
L 154.525681 71.940776 
L 155.229492 73.575739 
L 155.757347 74.304655 
L 156.285206 74.604802 
L 157.164974 74.72265 
L 158.044739 74.496382 
L 159.276409 73.667896 
L 160.50808 71.452961 
L 161.915707 68.596468 
L 162.971424 64.589447 
L 163.499283 62.663355 
L 164.203094 60.220063 
L 166.314533 50.069358 
L 167.722153 45.108973 
L 168.074059 44.577297 
L 168.601917 44.150698 
L 169.129776 44.298631 
L 169.657635 45.151164 
L 170.713356 48.588634 
L 171.065262 50.185341 
L 171.769073 54.563362 
L 173.528603 66.933432 
L 174.232414 69.129254 
L 174.93623 70.791714 
L 175.815994 71.952778 
L 176.1679 72.151258 
L 177.047665 72.388746 
L 177.57552 72.303293 
L 178.455284 71.872277 
L 179.335052 70.750255 
L 179.862911 69.690643 
L 180.918629 67.317338 
L 181.270535 66.358248 
L 181.974346 63.216158 
L 182.502205 59.868189 
L 183.030064 55.238604 
L 183.733879 49.035464 
L 184.085785 47.317812 
L 184.789597 44.98691 
L 185.317455 44.162797 
L 185.845314 43.9239 
L 186.373173 43.970105 
L 187.076984 44.875575 
L 187.604847 46.044185 
L 189.188419 51.775709 
L 190.244137 58.678521 
L 191.123901 64.893912 
L 192.00367 68.304801 
L 192.531528 69.672827 
L 193.23534 71.009198 
L 193.763199 71.646461 
L 194.291058 71.740559 
L 194.818916 71.567508 
L 195.522728 70.891185 
L 196.930355 69.120251 
L 197.81012 67.336357 
L 199.04179 62.530221 
L 200.801319 54.72546 
L 202.208942 47.208157 
L 203.088707 44.644065 
L 203.616566 43.746522 
L 204.320377 43.322602 
L 204.672283 43.256005 
L 205.024189 43.621611 
L 205.376099 44.156418 
L 206.431816 46.739597 
L 206.959675 48.316965 
L 208.719204 59.200786 
L 209.598972 65.62707 
L 210.478737 69.211631 
L 211.358498 71.713721 
L 212.062309 72.276734 
L 213.118027 72.335643 
L 213.469933 72.277125 
L 213.997795 71.833821 
L 214.525654 70.776027 
L 215.581371 66.65589 
L 216.461136 64.270492 
L 217.164948 60.480203 
L 218.220665 55.903262 
L 219.276386 50.25574 
L 219.980198 45.887299 
L 220.508057 43.903504 
L 221.035915 42.637989 
L 221.739723 42.219871 
L 222.267582 42.09524 
L 222.795444 42.350505 
L 224.027115 45.503345 
L 224.730927 48.619278 
L 225.610691 54.524897 
L 227.72213 70.420374 
L 228.249989 71.68453 
L 228.9538 72.355168 
L 229.833565 72.617277 
L 230.537376 72.618013 
L 232.472862 71.544171 
L 233.352623 70.355554 
L 234.056435 68.50268 
L 234.936199 64.333283 
L 235.464058 61.974199 
L 236.871685 52.933479 
L 237.75145 47.595858 
L 238.279308 44.222293 
L 238.631214 42.474426 
L 239.510979 40.483038 
L 239.862885 40.158313 
L 240.390747 40.315051 
L 240.742653 40.82244 
L 241.270512 41.852327 
L 242.678135 47.670014 
L 244.43766 60.243463 
L 245.317429 66.668803 
L 246.197193 70.311917 
L 246.725052 71.759107 
L 247.252911 72.440901 
L 247.780769 72.702856 
L 248.132675 72.882457 
L 248.660534 73.167912 
L 249.188396 73.025212 
L 249.716255 72.536561 
L 250.771973 70.955704 
L 251.123878 70.245851 
L 252.355549 66.264898 
L 253.235313 62.487772 
L 256.05056 47.673193 
L 257.458183 40.953482 
L 257.986046 39.690636 
L 258.513905 39.40966 
L 258.689857 39.444168 
L 259.393669 40.132742 
L 259.921528 41.343634 
L 260.62534 45.31732 
L 262.736778 60.620325 
L 264.67226 68.062356 
L 265.200119 69.114281 
L 265.727978 69.90575 
L 267.135601 70.212506 
L 267.487507 70.122899 
L 268.719177 68.590035 
L 270.654659 63.255989 
L 272.238239 56.610759 
L 272.766098 54.196518 
L 273.46991 49.827493 
L 274.173721 45.455968 
L 275.229439 41.788506 
L 275.581348 40.986123 
L 276.109207 40.593566 
L 276.813019 40.770442 
L 277.340874 41.032047 
L 277.868732 42.096954 
L 278.572544 44.221578 
L 279.100403 46.858641 
L 280.332077 57.833827 
L 280.859936 61.487306 
L 282.091606 66.146661 
L 282.795418 68.708707 
L 283.851135 70.749442 
L 284.730904 70.80299 
L 285.082809 70.595762 
L 285.610668 70.088029 
L 286.842339 68.223748 
L 287.54615 66.413544 
L 288.074005 64.49521 
L 289.833538 56.597526 
L 292.120926 45.423482 
L 293.00069 43.031216 
L 293.3526 42.43496 
L 294.232365 41.935021 
L 294.58427 42.072521 
L 295.112129 42.523694 
L 295.639988 43.167538 
L 296.167847 44.628092 
L 296.695705 47.615736 
L 298.455238 59.651094 
L 300.038811 66.784726 
L 300.566669 68.030385 
L 301.094528 68.674665 
L 302.150249 69.037787 
L 302.502155 69.066061 
L 303.38192 68.551719 
L 304.085732 67.784983 
L 304.965496 66.440158 
L 305.141449 66.123712 
L 307.076935 59.427687 
L 310.06813 45.380977 
L 310.771946 42.695605 
L 311.299805 41.750435 
L 311.651711 41.424089 
L 312.003616 41.274776 
L 313.059334 42.106868 
L 313.587193 42.832725 
L 314.115051 44.00113 
L 314.994816 47.924822 
L 315.346725 50.085197 
L 316.930302 61.799702 
L 317.45816 64.654203 
L 317.986019 66.559203 
L 319.041737 68.833695 
L 319.393642 69.248649 
L 320.097458 69.765601 
L 320.80127 69.687871 
L 321.505077 69.400562 
L 322.208889 68.783215 
L 322.912701 67.418974 
L 323.968422 65.032272 
L 324.320328 64.181187 
L 325.024139 61.950658 
L 326.607716 53.636818 
L 328.719154 40.986766 
L 329.422966 39.737371 
L 329.950825 39.319794 
L 330.478683 39.41118 
L 331.006542 39.640325 
L 331.358448 40.028183 
L 331.710354 40.621206 
L 332.414162 43.021048 
L 333.117977 46.90625 
L 333.997742 52.303226 
L 334.701553 56.790125 
L 335.581318 62.320913 
L 336.812988 67.236856 
L 337.164898 67.927069 
L 337.86871 68.404375 
L 338.572521 68.477773 
L 339.276333 68.203245 
L 340.156097 67.228534 
L 340.508003 66.643785 
L 341.035862 65.342862 
L 341.739677 62.107886 
L 343.323254 53.253371 
L 344.55492 43.83682 
L 345.434685 40.475949 
L 345.962547 39.144853 
L 346.490406 38.588311 
L 347.370171 38.457188 
L 347.722076 38.553784 
L 348.953747 39.587325 
L 350.009464 41.567224 
L 350.537327 42.969622 
L 350.889233 45.157229 
L 351.593044 49.575866 
L 351.94495 51.796461 
L 353.352573 64.699311 
L 353.880432 67.069473 
L 354.408287 68.764551 
L 354.93615 69.897678 
L 355.464008 70.435797 
L 356.695679 70.762289 
L 357.39949 70.25699 
L 357.751396 69.88719 
L 358.807114 67.042934 
L 359.686882 64.072675 
L 361.798317 57.780751 
L 364.261662 47.264921 
L 364.78952 43.193252 
L 365.669281 39.538909 
L 366.19714 38.163874 
L 367.076904 37.84657 
L 367.42881 37.880615 
L 367.956673 38.422075 
L 368.484531 39.565871 
L 368.660484 40.014682 
L 369.364296 43.404237 
L 371.299778 56.053933 
L 372.179543 59.897269 
L 372.707405 61.990493 
L 373.411217 65.301945 
L 373.939075 66.735425 
L 374.642887 67.713021 
L 375.522652 68.077426 
L 375.874557 68.121747 
L 376.578365 67.650934 
L 377.282181 66.880848 
L 377.458134 66.65932 
L 377.985992 64.471968 
L 378.865757 60.798223 
L 380.27338 55.941953 
L 382.912678 44.323098 
L 383.616489 41.296773 
L 384.496254 38.819885 
L 384.672207 38.40477 
L 385.376019 38.019802 
L 385.903881 38.045576 
L 386.607693 40.405509 
L 387.135551 42.897371 
L 389.07103 55.885095 
L 390.478657 65.46237 
L 391.182468 68.152391 
L 391.534374 69.091518 
L 392.941998 70.464966 
L 393.469856 70.710944 
L 393.997715 70.676788 
L 394.349625 70.62114 
L 395.053436 69.920218 
L 395.933201 67.834955 
L 396.46106 66.058247 
L 398.044636 59.146321 
L 399.276306 53.926371 
L 399.980118 49.838195 
L 400.507977 46.654914 
L 401.387741 41.8401 
L 401.739647 40.208779 
L 402.267506 38.755521 
L 402.971317 38.033427 
L 403.49918 37.851603 
L 404.027039 38.056054 
L 404.554897 38.706299 
L 407.194191 53.178183 
L 409.30563 62.789628 
L 409.833485 65.820638 
L 410.713249 68.799944 
L 411.065155 69.36915 
L 411.944923 70.217224 
L 412.648735 70.475147 
L 413.176594 70.510923 
L 413.704453 70.212885 
L 414.408264 68.795121 
L 415.112076 66.839985 
L 415.815887 64.167244 
L 416.167793 62.347679 
L 417.927326 51.697424 
L 420.038761 39.560795 
L 420.566616 38.310369 
L 420.91853 37.974381 
L 421.622337 38.09637 
L 422.326149 38.502027 
L 422.854008 38.945954 
L 423.733772 41.329369 
L 424.261631 43.342158 
L 426.900928 58.617145 
L 427.780693 63.689356 
L 428.484505 66.800936 
L 429.012363 68.311923 
L 429.540226 69.254866 
L 430.244038 69.820998 
L 430.595943 69.889227 
L 430.947849 69.766882 
L 431.475708 69.03393 
L 432.883327 65.978347 
L 433.411186 64.275744 
L 434.290955 60.190011 
L 435.346672 54.299025 
L 436.050484 50.22437 
L 437.458107 43.706558 
L 438.689781 39.922416 
L 439.393593 39.338102 
L 439.921452 39.222452 
L 440.273357 39.184803 
L 440.977169 39.856805 
L 441.680981 40.683491 
L 441.856934 40.963689 
L 442.384789 42.600084 
L 442.736702 45.090477 
L 444.67218 60.523323 
L 446.079803 65.25899 
L 446.959568 67.598035 
L 448.015289 69.257919 
L 448.367195 69.519632 
L 449.24696 69.454355 
L 449.774818 69.137793 
L 450.47863 68.433626 
L 451.710304 66.538161 
L 452.590069 64.731324 
L 453.821735 60.976772 
L 453.997688 60.393874 
L 455.053406 53.318617 
L 455.581264 50.791666 
L 457.164845 38.353847 
L 457.51675 37.165983 
L 457.868656 36.841818 
L 458.572468 37.17545 
L 459.276279 38.195782 
L 459.804138 40.260872 
L 461.211765 48.911888 
L 462.443436 57.01808 
L 463.851059 63.824212 
L 464.90678 67.526302 
L 465.258682 68.273884 
L 466.3144 69.255223 
L 467.018211 69.258628 
L 467.370117 69.15017 
L 468.073929 68.429865 
L 468.601788 67.508461 
L 469.481556 64.821861 
L 470.185368 61.955846 
L 471.592991 55.459819 
L 472.296803 51.945291 
L 473.176567 47.138907 
L 474.056335 43.583189 
L 474.408241 41.852281 
L 475.463959 39.324626 
L 475.815861 38.774071 
L 476.343719 38.379895 
L 477.047531 38.734042 
L 477.399437 39.042109 
L 477.751343 39.823578 
L 477.927299 40.293214 
L 479.686829 49.570365 
L 481.622311 61.949781 
L 482.326126 64.894112 
L 482.678032 65.586891 
L 483.205891 66.190531 
L 483.909702 66.283727 
L 484.96542 65.998828 
L 486.373039 65.98404 
L 486.900906 66.200878 
L 487.604713 66.773807 
L 488.484478 68.045382 
L 489.012337 69.111668 
L 489.892101 71.145018 
L 490.595913 72.793759 
L 491.299728 74.857835 
L 491.827587 76.88403 
L 492.355446 80.278177 
L 492.883305 90.019874 
L 494.114975 115.659716 
L 494.642834 125.49946 
L 496.050461 162.061535 
L 496.754272 172.686208 
L 497.106178 175.183214 
L 497.634037 177.783334 
L 498.337845 179.687435 
L 499.041656 180.412137 
L 499.921425 179.647856 
L 501.329048 176.641615 
L 502.208813 175.561756 
L 502.560719 174.957581 
L 503.088577 174.82025 
L 503.440483 175.12289 
L 505.200016 180.491541 
L 505.727875 181.318998 
L 506.255733 181.706877 
L 507.135498 181.463065 
L 507.83931 181.065791 
L 508.191216 180.80846 
L 509.950745 177.611339 
L 511.006462 175.279997 
L 511.534321 174.854643 
L 513.997665 175.58489 
L 514.349571 175.474906 
L 515.053383 174.73056 
L 515.405289 174.171166 
L 516.285053 172.101328 
L 517.516727 167.618861 
L 518.220539 163.417926 
L 519.100304 156.449442 
L 520.156017 149.271687 
L 525.082703 125.302047 
L 528.249859 92.592585 
L 528.953671 89.55551 
L 529.657482 87.294274 
L 531.417011 83.228334 
L 532.120823 82.760963 
L 532.648682 82.596448 
L 533.528446 82.730143 
L 534.760117 82.29912 
L 535.112026 82.017678 
L 535.463932 81.541417 
L 537.223461 77.4974 
L 538.455132 73.417634 
L 542.150143 61.865288 
L 542.678001 60.146508 
L 543.381813 58.177615 
L 544.437534 55.023894 
L 544.965393 53.734731 
L 545.845158 51.992318 
L 546.021111 51.582011 
L 546.197063 51.609702 
L 609.892052 167.337646 
L 610.068005 171.524024 
L 610.595863 230.483404 
L 610.771816 236.078182 
L 659.334846 117.469701 
L 767.721893 129.438234 
L 767.897846 131.694455 
L 768.953568 152.704419 
L 769.833332 164.569082 
L 771.065002 184.465739 
L 771.065002 184.465739 
" clip-path="url(#p77d36515bb)" style="fill: none; stroke: #ff0000; stroke-width: 1.5; stroke-linecap: square"/>
   </g>
   <g id="patch_7">
    <path d="M 63.47 246.04 
L 63.47 26.88 
" style="fill: none; stroke: #000000; stroke-width: 0.8; stroke-linejoin: miter; stroke-linecap: square"/>
   </g>
   <g id="patch_8">
    <path d="M 804.76 246.04 
L 804.76 26.88 
" style="fill: none; stroke: #000000; stroke-width: 0.8; stroke-linejoin: miter; stroke-linecap: square"/>
   </g>
   <g id="patch_9">
    <path d="M 63.470001 246.04 
L 804.760002 246.04 
" style="fill: none; stroke: #000000; stroke-width: 0.8; stroke-linejoin: miter; stroke-linecap: square"/>
   </g>
   <g id="patch_10">
    <path d="M 63.470001 26.88 
L 804.760002 26.88 
" style="fill: none; stroke: #000000; stroke-width: 0.8; stroke-linejoin: miter; stroke-linecap: square"/>
   </g>
   <g id="text_28">
    <!-- Raw Signal Overlay -->
    <g transform="translate(375.924375 20.88) scale(0.12 -0.12)">
     <defs>
      <path id="DejaVuSans-52" d="M 2841 2188 
Q 3044 2119 3236 1894 
Q 3428 1669 3622 1275 
L 4263 0 
L 3584 0 
L 2988 1197 
Q 2756 1666 2539 1819 
Q 2322 1972 1947 1972 
L 1259 1972 
L 1259 0 
L 628 0 
L 628 4666 
L 2053 4666 
Q 2853 4666 3247 4331 
Q 3641 3997 3641 3322 
Q 3641 2881 3436 2590 
Q 3231 2300 2841 2188 
z
M 1259 4147 
L 1259 2491 
L 2053 2491 
Q 2509 2491 2742 2702 
Q 2975 2913 2975 3322 
Q 2975 3731 2742 3939 
Q 2509 4147 2053 4147 
L 1259 4147 
z
" transform="scale(0.015625)"/>
      <path id="DejaVuSans-61" d="M 2194 1759 
Q 1497 1759 1228 1600 
Q 959 1441 959 1056 
Q 959 750 1161 570 
Q 1363 391 1709 391 
Q 2188 391 2477 730 
Q 2766 1069 2766 1631 
L 2766 1759 
L 2194 1759 
z
M 3341 1997 
L 3341 0 
L 2766 0 
L 2766 531 
Q 2569 213 2275 61 
Q 1981 -91 1556 -91 
Q 1019 -91 701 211 
Q 384 513 384 1019 
Q 384 1609 779 1909 
Q 1175 2209 1959 2209 
L 2766 2209 
L 2766 2266 
Q 2766 2663 2505 2880 
Q 2244 3097 1772 3097 
Q 1472 3097 1187 3025 
Q 903 2953 641 2809 
L 641 3341 
Q 956 3463 1253 3523 
Q 1550 3584 1831 3584 
Q 2591 3584 2966 3190 
Q 3341 2797 3341 1997 
z
" transform="scale(0.015625)"/>
      <path id="DejaVuSans-77" d="M 269 3500 
L 844 3500 
L 1563 769 
L 2278 3500 
L 2956 3500 
L 3675 769 
L 4391 3500 
L 4966 3500 
L 4050 0 
L 3372 0 
L 2619 2869 
L 1863 0 
L 1184 0 
L 269 3500 
z
" transform="scale(0.015625)"/>
      <path id="DejaVuSans-53" d="M 3425 4513 
L 3425 3897 
Q 3066 4069 2747 4153 
Q 2428 4238 2131 4238 
Q 1616 4238 1336 4038 
Q 1056 3838 1056 3469 
Q 1056 3159 1242 3001 
Q 1428 2844 1947 2747 
L 2328 2669 
Q 3034 2534 3370 2195 
Q 3706 1856 3706 1288 
Q 3706 609 3251 259 
Q 2797 -91 1919 -91 
Q 1588 -91 1214 -16 
Q 841 59 441 206 
L 441 856 
Q 825 641 1194 531 
Q 1563 422 1919 422 
Q 2459 422 2753 634 
Q 3047 847 3047 1241 
Q 3047 1584 2836 1778 
Q 2625 1972 2144 2069 
L 1759 2144 
Q 1053 2284 737 2584 
Q 422 2884 422 3419 
Q 422 4038 858 4394 
Q 1294 4750 2059 4750 
Q 2388 4750 2728 4690 
Q 3069 4631 3425 4513 
z
" transform="scale(0.015625)"/>
      <path id="DejaVuSans-67" d="M 2906 1791 
Q 2906 2416 2648 2759 
Q 2391 3103 1925 3103 
Q 1463 3103 1205 2759 
Q 947 2416 947 1791 
Q 947 1169 1205 825 
Q 1463 481 1925 481 
Q 2391 481 2648 825 
Q 2906 1169 2906 1791 
z
M 3481 434 
Q 3481 -459 3084 -895 
Q 2688 -1331 1869 -1331 
Q 1566 -1331 1297 -1286 
Q 1028 -1241 775 -1147 
L 775 -588 
Q 1028 -725 1275 -790 
Q 1522 -856 1778 -856 
Q 2344 -856 2625 -561 
Q 2906 -266 2906 331 
L 2906 616 
Q 2728 306 2450 153 
Q 2172 0 1784 0 
Q 1141 0 747 490 
Q 353 981 353 1791 
Q 353 2603 747 3093 
Q 1141 3584 1784 3584 
Q 2172 3584 2450 3431 
Q 2728 3278 2906 2969 
L 2906 3500 
L 3481 3500 
L 3481 434 
z
" transform="scale(0.015625)"/>
      <path id="DejaVuSans-6c" d="M 603 4863 
L 1178 4863 
L 1178 0 
L 603 0 
L 603 4863 
z
" transform="scale(0.015625)"/>
      <path id="DejaVuSans-4f" d="M 2522 4238 
Q 1834 4238 1429 3725 
Q 1025 3213 1025 2328 
Q 1025 1447 1429 934 
Q 1834 422 2522 422 
Q 3209 422 3611 934 
Q 4013 1447 4013 2328 
Q 4013 3213 3611 3725 
Q 3209 4238 2522 4238 
z
M 2522 4750 
Q 3503 4750 4090 4092 
Q 4678 3434 4678 2328 
Q 4678 1225 4090 567 
Q 3503 -91 2522 -91 
Q 1538 -91 948 565 
Q 359 1222 359 2328 
Q 359 3434 948 4092 
Q 1538 4750 2522 4750 
z
" transform="scale(0.015625)"/>
      <path id="DejaVuSans-76" d="M 191 3500 
L 800 3500 
L 1894 563 
L 2988 3500 
L 3597 3500 
L 2284 0 
L 1503 0 
L 191 3500 
z
" transform="scale(0.015625)"/>
      <path id="DejaVuSans-79" d="M 2059 -325 
Q 1816 -950 1584 -1140 
Q 1353 -1331 966 -1331 
L 506 -1331 
L 506 -850 
L 844 -850 
Q 1081 -850 1212 -737 
Q 1344 -625 1503 -206 
L 1606 56 
L 191 3500 
L 800 3500 
L 1894 763 
L 2988 3500 
L 3597 3500 
L 2059 -325 
z
" transform="scale(0.015625)"/>
     </defs>
     <use xlink:href="#DejaVuSans-52"/>
     <use xlink:href="#DejaVuSans-61" x="67.232422"/>
     <use xlink:href="#DejaVuSans-77" x="128.511719"/>
     <use xlink:href="#DejaVuSans-20" x="210.298828"/>
     <use xlink:href="#DejaVuSans-53" x="242.085938"/>
     <use xlink:href="#DejaVuSans-69" x="305.5625"/>
     <use xlink:href="#DejaVuSans-67" x="333.345703"/>
     <use xlink:href="#DejaVuSans-6e" x="396.822266"/>
     <use xlink:href="#DejaVuSans-61" x="460.201172"/>
     <use xlink:href="#DejaVuSans-6c" x="521.480469"/>
     <use xlink:href="#DejaVuSans-20" x="549.263672"/>
     <use xlink:href="#DejaVuSans-4f" x="581.050781"/>
     <use xlink:href="#DejaVuSans-76" x="659.761719"/>
     <use xlink:href="#DejaVuSans-65" x="718.941406"/>
     <use xlink:href="#DejaVuSans-72" x="780.464844"/>
     <use xlink:href="#DejaVuSans-6c" x="821.578125"/>
     <use xlink:href="#DejaVuSans-61" x="849.361328"/>
     <use xlink:href="#DejaVuSans-79" x="910.640625"/>
    </g>
   </g>
  </g>
 </g>
 <defs>
  <clipPath id="p77d36515bb">
   <rect x="63.47" y="26.88" width="741.29" height="219.16"/>
  </clipPath>
 </defs>
</svg>
