<?xml version="1.0" encoding="utf-8" standalone="no"?>
<!DOCTYPE svg PUBLIC "-//W3C//DTD SVG 1.1//EN"
  "http://www.w3.org/Graphics/SVG/1.1/DTD/svg11.dtd">
<svg xmlns:xlink="http://www.w3.org/1999/xlink" width="864pt" height="288pt" viewBox="0 0 864 288" xmlns="http://www.w3.org/2000/svg" version="1.1">
 <metadata>
  <rdf:RDF xmlns:dc="http://purl.org/dc/elements/1.1/" xmlns:cc="http://creativecommons.org/ns#" xmlns:rdf="http://www.w3.org/1999/02/22-rdf-syntax-ns#">
   <cc:Work>
    <dc:type rdf:resource="http://purl.org/dc/dcmitype/StillImage"/>
    <dc:date>2025-12-08T16:05:58.830334</dc:date>
    <dc:format>image/svg+xml</dc:format>
    <dc:creator>
     <cc:Agent>
      <dc:title>Matplotlib v3.8.4, https://matplotlib.org/</dc:title>
     </cc:Agent>
    </dc:creator>
   </cc:Work>
  </rdf:RDF>
 </metadata>
 <defs>
  <style type="text/css">*{stroke-linejoin: round; stroke-linecap: butt}</style>
 </defs>
 <g id="figure_1">
  <g id="patch_1">
   <path d="M 0 288 
L 864 288 
L 864 0 
L 0 0 
z
" style="fill: #ffffff"/>
  </g>
  <g id="axes_1">
   <g id="patch_2">
    <path d="M 33.64 247.04 
L 853.2 247.04 
L 853.2 26.88 
L 33.64 26.88 
z
" style="fill: #ffffff"/>
   </g>
   <g id="matplotlib.axis_1">
    <g id="xtick_1">
     <g id="line2d_1">
      <path d="M 50.739292 247.04 
L 50.739292 26.88 
" clip-path="url(#p28c74d1d3c)" style="fill: none; stroke: #b0b0b0; stroke-width: 0.8; stroke-linecap: square"/>
     </g>
     <g id="line2d_2">
      <defs>
       <path id="mb2d3588e58" d="M 0 0 
L 0 3.5 
" style="stroke: #000000; stroke-width: 0.8"/>
      </defs>
      <g>
       <use xlink:href="#mb2d3588e58" x="50.739292" y="247.04" style="stroke: #000000; stroke-width: 0.8"/>
      </g>
     </g>
     <g id="text_1">
      <!-- 20 -->
      <g transform="translate(44.376792 261.638438) scale(0.1 -0.1)">
       <defs>
        <path id="DejaVuSans-32" d="M 1228 531 
L 3431 531 
L 3431 0 
L 469 0 
L 469 531 
Q 828 903 1448 1529 
Q 2069 2156 2228 2338 
Q 2531 2678 2651 2914 
Q 2772 3150 2772 3378 
Q 2772 3750 2511 3984 
Q 2250 4219 1831 4219 
Q 1534 4219 1204 4116 
Q 875 4013 500 3803 
L 500 4441 
Q 881 4594 1212 4672 
Q 1544 4750 1819 4750 
Q 2544 4750 2975 4387 
Q 3406 4025 3406 3419 
Q 3406 3131 3298 2873 
Q 3191 2616 2906 2266 
Q 2828 2175 2409 1742 
Q 1991 1309 1228 531 
z
" transform="scale(0.015625)"/>
        <path id="DejaVuSans-30" d="M 2034 4250 
Q 1547 4250 1301 3770 
Q 1056 3291 1056 2328 
Q 1056 1369 1301 889 
Q 1547 409 2034 409 
Q 2525 409 2770 889 
Q 3016 1369 3016 2328 
Q 3016 3291 2770 3770 
Q 2525 4250 2034 4250 
z
M 2034 4750 
Q 2819 4750 3233 4129 
Q 3647 3509 3647 2328 
Q 3647 1150 3233 529 
Q 2819 -91 2034 -91 
Q 1250 -91 836 529 
Q 422 1150 422 2328 
Q 422 3509 836 4129 
Q 1250 4750 2034 4750 
z
" transform="scale(0.015625)"/>
       </defs>
       <use xlink:href="#DejaVuSans-32"/>
       <use xlink:href="#DejaVuSans-30" x="63.623047"/>
      </g>
     </g>
    </g>
    <g id="xtick_2">
     <g id="line2d_3">
      <path d="M 148.004898 247.04 
L 148.004898 26.88 
" clip-path="url(#p28c74d1d3c)" style="fill: none; stroke: #b0b0b0; stroke-width: 0.8; stroke-linecap: square"/>
     </g>
     <g id="line2d_4">
      <g>
       <use xlink:href="#mb2d3588e58" x="148.004898" y="247.04" style="stroke: #000000; stroke-width: 0.8"/>
      </g>
     </g>
     <g id="text_2">
      <!-- 25 -->
      <g transform="translate(141.642398 261.638438) scale(0.1 -0.1)">
       <defs>
        <path id="DejaVuSans-35" d="M 691 4666 
L 3169 4666 
L 3169 4134 
L 1269 4134 
L 1269 2991 
Q 1406 3038 1543 3061 
Q 1681 3084 1819 3084 
Q 2600 3084 3056 2656 
Q 3513 2228 3513 1497 
Q 3513 744 3044 326 
Q 2575 -91 1722 -91 
Q 1428 -91 1123 -41 
Q 819 9 494 109 
L 494 744 
Q 775 591 1075 516 
Q 1375 441 1709 441 
Q 2250 441 2565 725 
Q 2881 1009 2881 1497 
Q 2881 1984 2565 2268 
Q 2250 2553 1709 2553 
Q 1456 2553 1204 2497 
Q 953 2441 691 2322 
L 691 4666 
z
" transform="scale(0.015625)"/>
       </defs>
       <use xlink:href="#DejaVuSans-32"/>
       <use xlink:href="#DejaVuSans-35" x="63.623047"/>
      </g>
     </g>
    </g>
    <g id="xtick_3">
     <g id="line2d_5">
      <path d="M 245.270504 247.04 
L 245.270504 26.88 
" clip-path="url(#p28c74d1d3c)" style="fill: none; stroke: #b0b0b0; stroke-width: 0.8; stroke-linecap: square"/>
     </g>
     <g id="line2d_6">
      <g>
       <use xlink:href="#mb2d3588e58" x="245.270504" y="247.04" style="stroke: #000000; stroke-width: 0.8"/>
      </g>
     </g>
     <g id="text_3">
      <!-- 30 -->
      <g transform="translate(238.908004 261.638438) scale(0.1 -0.1)">
       <defs>
        <path id="DejaVuSans-33" d="M 2597 2516 
Q 3050 2419 3304 2112 
Q 3559 1806 3559 1356 
Q 3559 666 3084 287 
Q 2609 -91 1734 -91 
Q 1441 -91 1130 -33 
Q 819 25 488 141 
L 488 750 
Q 750 597 1062 519 
Q 1375 441 1716 441 
Q 2309 441 2620 675 
Q 2931 909 2931 1356 
Q 2931 1769 2642 2001 
Q 2353 2234 1838 2234 
L 1294 2234 
L 1294 2753 
L 1863 2753 
Q 2328 2753 2575 2939 
Q 2822 3125 2822 3475 
Q 2822 3834 2567 4026 
Q 2313 4219 1838 4219 
Q 1578 4219 1281 4162 
Q 984 4106 628 3988 
L 628 4550 
Q 988 4650 1302 4700 
Q 1616 4750 1894 4750 
Q 2613 4750 3031 4423 
Q 3450 4097 3450 3541 
Q 3450 3153 3228 2886 
Q 3006 2619 2597 2516 
z
" transform="scale(0.015625)"/>
       </defs>
       <use xlink:href="#DejaVuSans-33"/>
       <use xlink:href="#DejaVuSans-30" x="63.623047"/>
      </g>
     </g>
    </g>
    <g id="xtick_4">
     <g id="line2d_7">
      <path d="M 342.53611 247.04 
L 342.53611 26.88 
" clip-path="url(#p28c74d1d3c)" style="fill: none; stroke: #b0b0b0; stroke-width: 0.8; stroke-linecap: square"/>
     </g>
     <g id="line2d_8">
      <g>
       <use xlink:href="#mb2d3588e58" x="342.53611" y="247.04" style="stroke: #000000; stroke-width: 0.8"/>
      </g>
     </g>
     <g id="text_4">
      <!-- 35 -->
      <g transform="translate(336.17361 261.638438) scale(0.1 -0.1)">
       <use xlink:href="#DejaVuSans-33"/>
       <use xlink:href="#DejaVuSans-35" x="63.623047"/>
      </g>
     </g>
    </g>
    <g id="xtick_5">
     <g id="line2d_9">
      <path d="M 439.80172 247.04 
L 439.80172 26.88 
" clip-path="url(#p28c74d1d3c)" style="fill: none; stroke: #b0b0b0; stroke-width: 0.8; stroke-linecap: square"/>
     </g>
     <g id="line2d_10">
      <g>
       <use xlink:href="#mb2d3588e58" x="439.80172" y="247.04" style="stroke: #000000; stroke-width: 0.8"/>
      </g>
     </g>
     <g id="text_5">
      <!-- 40 -->
      <g transform="translate(433.43922 261.638438) scale(0.1 -0.1)">
       <defs>
        <path id="DejaVuSans-34" d="M 2419 4116 
L 825 1625 
L 2419 1625 
L 2419 4116 
z
M 2253 4666 
L 3047 4666 
L 3047 1625 
L 3713 1625 
L 3713 1100 
L 3047 1100 
L 3047 0 
L 2419 0 
L 2419 1100 
L 313 1100 
L 313 1709 
L 2253 4666 
z
" transform="scale(0.015625)"/>
       </defs>
       <use xlink:href="#DejaVuSans-34"/>
       <use xlink:href="#DejaVuSans-30" x="63.623047"/>
      </g>
     </g>
    </g>
    <g id="xtick_6">
     <g id="line2d_11">
      <path d="M 537.067326 247.04 
L 537.067326 26.88 
" clip-path="url(#p28c74d1d3c)" style="fill: none; stroke: #b0b0b0; stroke-width: 0.8; stroke-linecap: square"/>
     </g>
     <g id="line2d_12">
      <g>
       <use xlink:href="#mb2d3588e58" x="537.067326" y="247.04" style="stroke: #000000; stroke-width: 0.8"/>
      </g>
     </g>
     <g id="text_6">
      <!-- 45 -->
      <g transform="translate(530.704826 261.638438) scale(0.1 -0.1)">
       <use xlink:href="#DejaVuSans-34"/>
       <use xlink:href="#DejaVuSans-35" x="63.623047"/>
      </g>
     </g>
    </g>
    <g id="xtick_7">
     <g id="line2d_13">
      <path d="M 634.332932 247.04 
L 634.332932 26.88 
" clip-path="url(#p28c74d1d3c)" style="fill: none; stroke: #b0b0b0; stroke-width: 0.8; stroke-linecap: square"/>
     </g>
     <g id="line2d_14">
      <g>
       <use xlink:href="#mb2d3588e58" x="634.332932" y="247.04" style="stroke: #000000; stroke-width: 0.8"/>
      </g>
     </g>
     <g id="text_7">
      <!-- 50 -->
      <g transform="translate(627.970432 261.638438) scale(0.1 -0.1)">
       <use xlink:href="#DejaVuSans-35"/>
       <use xlink:href="#DejaVuSans-30" x="63.623047"/>
      </g>
     </g>
    </g>
    <g id="xtick_8">
     <g id="line2d_15">
      <path d="M 731.598537 247.04 
L 731.598537 26.88 
" clip-path="url(#p28c74d1d3c)" style="fill: none; stroke: #b0b0b0; stroke-width: 0.8; stroke-linecap: square"/>
     </g>
     <g id="line2d_16">
      <g>
       <use xlink:href="#mb2d3588e58" x="731.598537" y="247.04" style="stroke: #000000; stroke-width: 0.8"/>
      </g>
     </g>
     <g id="text_8">
      <!-- 55 -->
      <g transform="translate(725.236037 261.638438) scale(0.1 -0.1)">
       <use xlink:href="#DejaVuSans-35"/>
       <use xlink:href="#DejaVuSans-35" x="63.623047"/>
      </g>
     </g>
    </g>
    <g id="xtick_9">
     <g id="line2d_17">
      <path d="M 828.864147 247.04 
L 828.864147 26.88 
" clip-path="url(#p28c74d1d3c)" style="fill: none; stroke: #b0b0b0; stroke-width: 0.8; stroke-linecap: square"/>
     </g>
     <g id="line2d_18">
      <g>
       <use xlink:href="#mb2d3588e58" x="828.864147" y="247.04" style="stroke: #000000; stroke-width: 0.8"/>
      </g>
     </g>
     <g id="text_9">
      <!-- 60 -->
      <g transform="translate(822.501647 261.638438) scale(0.1 -0.1)">
       <defs>
        <path id="DejaVuSans-36" d="M 2113 2584 
Q 1688 2584 1439 2293 
Q 1191 2003 1191 1497 
Q 1191 994 1439 701 
Q 1688 409 2113 409 
Q 2538 409 2786 701 
Q 3034 994 3034 1497 
Q 3034 2003 2786 2293 
Q 2538 2584 2113 2584 
z
M 3366 4563 
L 3366 3988 
Q 3128 4100 2886 4159 
Q 2644 4219 2406 4219 
Q 1781 4219 1451 3797 
Q 1122 3375 1075 2522 
Q 1259 2794 1537 2939 
Q 1816 3084 2150 3084 
Q 2853 3084 3261 2657 
Q 3669 2231 3669 1497 
Q 3669 778 3244 343 
Q 2819 -91 2113 -91 
Q 1303 -91 875 529 
Q 447 1150 447 2328 
Q 447 3434 972 4092 
Q 1497 4750 2381 4750 
Q 2619 4750 2861 4703 
Q 3103 4656 3366 4563 
z
" transform="scale(0.015625)"/>
       </defs>
       <use xlink:href="#DejaVuSans-36"/>
       <use xlink:href="#DejaVuSans-30" x="63.623047"/>
      </g>
     </g>
    </g>
    <g id="text_10">
     <!-- +1.7651806e9 -->
     <g transform="translate(778.226562 274.316562) scale(0.1 -0.1)">
      <defs>
       <path id="DejaVuSans-2b" d="M 2944 4013 
L 2944 2272 
L 4684 2272 
L 4684 1741 
L 2944 1741 
L 2944 0 
L 2419 0 
L 2419 1741 
L 678 1741 
L 678 2272 
L 2419 2272 
L 2419 4013 
L 2944 4013 
z
" transform="scale(0.015625)"/>
       <path id="DejaVuSans-31" d="M 794 531 
L 1825 531 
L 1825 4091 
L 703 3866 
L 703 4441 
L 1819 4666 
L 2450 4666 
L 2450 531 
L 3481 531 
L 3481 0 
L 794 0 
L 794 531 
z
" transform="scale(0.015625)"/>
       <path id="DejaVuSans-2e" d="M 684 794 
L 1344 794 
L 1344 0 
L 684 0 
L 684 794 
z
" transform="scale(0.015625)"/>
       <path id="DejaVuSans-37" d="M 525 4666 
L 3525 4666 
L 3525 4397 
L 1831 0 
L 1172 0 
L 2766 4134 
L 525 4134 
L 525 4666 
z
" transform="scale(0.015625)"/>
       <path id="DejaVuSans-38" d="M 2034 2216 
Q 1584 2216 1326 1975 
Q 1069 1734 1069 1313 
Q 1069 891 1326 650 
Q 1584 409 2034 409 
Q 2484 409 2743 651 
Q 3003 894 3003 1313 
Q 3003 1734 2745 1975 
Q 2488 2216 2034 2216 
z
M 1403 2484 
Q 997 2584 770 2862 
Q 544 3141 544 3541 
Q 544 4100 942 4425 
Q 1341 4750 2034 4750 
Q 2731 4750 3128 4425 
Q 3525 4100 3525 3541 
Q 3525 3141 3298 2862 
Q 3072 2584 2669 2484 
Q 3125 2378 3379 2068 
Q 3634 1759 3634 1313 
Q 3634 634 3220 271 
Q 2806 -91 2034 -91 
Q 1263 -91 848 271 
Q 434 634 434 1313 
Q 434 1759 690 2068 
Q 947 2378 1403 2484 
z
M 1172 3481 
Q 1172 3119 1398 2916 
Q 1625 2713 2034 2713 
Q 2441 2713 2670 2916 
Q 2900 3119 2900 3481 
Q 2900 3844 2670 4047 
Q 2441 4250 2034 4250 
Q 1625 4250 1398 4047 
Q 1172 3844 1172 3481 
z
" transform="scale(0.015625)"/>
       <path id="DejaVuSans-65" d="M 3597 1894 
L 3597 1613 
L 953 1613 
Q 991 1019 1311 708 
Q 1631 397 2203 397 
Q 2534 397 2845 478 
Q 3156 559 3463 722 
L 3463 178 
Q 3153 47 2828 -22 
Q 2503 -91 2169 -91 
Q 1331 -91 842 396 
Q 353 884 353 1716 
Q 353 2575 817 3079 
Q 1281 3584 2069 3584 
Q 2775 3584 3186 3129 
Q 3597 2675 3597 1894 
z
M 3022 2063 
Q 3016 2534 2758 2815 
Q 2500 3097 2075 3097 
Q 1594 3097 1305 2825 
Q 1016 2553 972 2059 
L 3022 2063 
z
" transform="scale(0.015625)"/>
       <path id="DejaVuSans-39" d="M 703 97 
L 703 672 
Q 941 559 1184 500 
Q 1428 441 1663 441 
Q 2288 441 2617 861 
Q 2947 1281 2994 2138 
Q 2813 1869 2534 1725 
Q 2256 1581 1919 1581 
Q 1219 1581 811 2004 
Q 403 2428 403 3163 
Q 403 3881 828 4315 
Q 1253 4750 1959 4750 
Q 2769 4750 3195 4129 
Q 3622 3509 3622 2328 
Q 3622 1225 3098 567 
Q 2575 -91 1691 -91 
Q 1453 -91 1209 -44 
Q 966 3 703 97 
z
M 1959 2075 
Q 2384 2075 2632 2365 
Q 2881 2656 2881 3163 
Q 2881 3666 2632 3958 
Q 2384 4250 1959 4250 
Q 1534 4250 1286 3958 
Q 1038 3666 1038 3163 
Q 1038 2656 1286 2365 
Q 1534 2075 1959 2075 
z
" transform="scale(0.015625)"/>
      </defs>
      <use xlink:href="#DejaVuSans-2b"/>
      <use xlink:href="#DejaVuSans-31" x="83.789062"/>
      <use xlink:href="#DejaVuSans-2e" x="147.412109"/>
      <use xlink:href="#DejaVuSans-37" x="179.199219"/>
      <use xlink:href="#DejaVuSans-36" x="242.822266"/>
      <use xlink:href="#DejaVuSans-35" x="306.445312"/>
      <use xlink:href="#DejaVuSans-31" x="370.068359"/>
      <use xlink:href="#DejaVuSans-38" x="433.691406"/>
      <use xlink:href="#DejaVuSans-30" x="497.314453"/>
      <use xlink:href="#DejaVuSans-36" x="560.9375"/>
      <use xlink:href="#DejaVuSans-65" x="624.560547"/>
      <use xlink:href="#DejaVuSans-39" x="686.083984"/>
     </g>
    </g>
   </g>
   <g id="matplotlib.axis_2">
    <g id="ytick_1">
     <g id="line2d_19">
      <path d="M 33.64 237.032727 
L 853.2 237.032727 
" clip-path="url(#p28c74d1d3c)" style="fill: none; stroke: #b0b0b0; stroke-width: 0.8; stroke-linecap: square"/>
     </g>
     <g id="line2d_20">
      <defs>
       <path id="m350fb6bf0b" d="M 0 0 
L -3.5 0 
" style="stroke: #000000; stroke-width: 0.8"/>
      </defs>
      <g>
       <use xlink:href="#m350fb6bf0b" x="33.64" y="237.032727" style="stroke: #000000; stroke-width: 0.8"/>
      </g>
     </g>
     <g id="text_11">
      <!-- 0.0 -->
      <g transform="translate(10.736875 240.831946) scale(0.1 -0.1)">
       <use xlink:href="#DejaVuSans-30"/>
       <use xlink:href="#DejaVuSans-2e" x="63.623047"/>
       <use xlink:href="#DejaVuSans-30" x="95.410156"/>
      </g>
     </g>
    </g>
    <g id="ytick_2">
     <g id="line2d_21">
      <path d="M 33.64 197.003636 
L 853.2 197.003636 
" clip-path="url(#p28c74d1d3c)" style="fill: none; stroke: #b0b0b0; stroke-width: 0.8; stroke-linecap: square"/>
     </g>
     <g id="line2d_22">
      <g>
       <use xlink:href="#m350fb6bf0b" x="33.64" y="197.003636" style="stroke: #000000; stroke-width: 0.8"/>
      </g>
     </g>
     <g id="text_12">
      <!-- 0.2 -->
      <g transform="translate(10.736875 200.802855) scale(0.1 -0.1)">
       <use xlink:href="#DejaVuSans-30"/>
       <use xlink:href="#DejaVuSans-2e" x="63.623047"/>
       <use xlink:href="#DejaVuSans-32" x="95.410156"/>
      </g>
     </g>
    </g>
    <g id="ytick_3">
     <g id="line2d_23">
      <path d="M 33.64 156.974545 
L 853.2 156.974545 
" clip-path="url(#p28c74d1d3c)" style="fill: none; stroke: #b0b0b0; stroke-width: 0.8; stroke-linecap: square"/>
     </g>
     <g id="line2d_24">
      <g>
       <use xlink:href="#m350fb6bf0b" x="33.64" y="156.974545" style="stroke: #000000; stroke-width: 0.8"/>
      </g>
     </g>
     <g id="text_13">
      <!-- 0.4 -->
      <g transform="translate(10.736875 160.773764) scale(0.1 -0.1)">
       <use xlink:href="#DejaVuSans-30"/>
       <use xlink:href="#DejaVuSans-2e" x="63.623047"/>
       <use xlink:href="#DejaVuSans-34" x="95.410156"/>
      </g>
     </g>
    </g>
    <g id="ytick_4">
     <g id="line2d_25">
      <path d="M 33.64 116.945455 
L 853.2 116.945455 
" clip-path="url(#p28c74d1d3c)" style="fill: none; stroke: #b0b0b0; stroke-width: 0.8; stroke-linecap: square"/>
     </g>
     <g id="line2d_26">
      <g>
       <use xlink:href="#m350fb6bf0b" x="33.64" y="116.945455" style="stroke: #000000; stroke-width: 0.8"/>
      </g>
     </g>
     <g id="text_14">
      <!-- 0.6 -->
      <g transform="translate(10.736875 120.744673) scale(0.1 -0.1)">
       <use xlink:href="#DejaVuSans-30"/>
       <use xlink:href="#DejaVuSans-2e" x="63.623047"/>
       <use xlink:href="#DejaVuSans-36" x="95.410156"/>
      </g>
     </g>
    </g>
    <g id="ytick_5">
     <g id="line2d_27">
      <path d="M 33.64 76.916364 
L 853.2 76.916364 
" clip-path="url(#p28c74d1d3c)" style="fill: none; stroke: #b0b0b0; stroke-width: 0.8; stroke-linecap: square"/>
     </g>
     <g id="line2d_28">
      <g>
       <use xlink:href="#m350fb6bf0b" x="33.64" y="76.916364" style="stroke: #000000; stroke-width: 0.8"/>
      </g>
     </g>
     <g id="text_15">
      <!-- 0.8 -->
      <g transform="translate(10.736875 80.715582) scale(0.1 -0.1)">
       <use xlink:href="#DejaVuSans-30"/>
       <use xlink:href="#DejaVuSans-2e" x="63.623047"/>
       <use xlink:href="#DejaVuSans-38" x="95.410156"/>
      </g>
     </g>
    </g>
    <g id="ytick_6">
     <g id="line2d_29">
      <path d="M 33.64 36.887273 
L 853.2 36.887273 
" clip-path="url(#p28c74d1d3c)" style="fill: none; stroke: #b0b0b0; stroke-width: 0.8; stroke-linecap: square"/>
     </g>
     <g id="line2d_30">
      <g>
       <use xlink:href="#m350fb6bf0b" x="33.64" y="36.887273" style="stroke: #000000; stroke-width: 0.8"/>
      </g>
     </g>
     <g id="text_16">
      <!-- 1.0 -->
      <g transform="translate(10.736875 40.686491) scale(0.1 -0.1)">
       <use xlink:href="#DejaVuSans-31"/>
       <use xlink:href="#DejaVuSans-2e" x="63.623047"/>
       <use xlink:href="#DejaVuSans-30" x="95.410156"/>
      </g>
     </g>
    </g>
   </g>
   <g id="line2d_31">
    <path d="M 70.892727 198.440214 
L 74.588821 197.60007 
L 81.786472 198.211311 
L 89.567722 196.661026 
L 95.40366 195.049376 
L 95.987251 192.664905 
L 102.40678 164.688839 
L 103.18491 150.995397 
L 109.409904 37.110003 
L 109.604439 39.486359 
L 116.413029 174.59246 
L 116.80209 176.500837 
L 123.416153 197.965077 
L 123.805218 192.24889 
L 130.419277 81.891554 
L 130.613808 81.898655 
L 137.422401 110.610108 
L 138.200527 120.418273 
L 144.425522 201.631739 
L 144.814587 196.167387 
L 151.42865 83.364143 
L 151.62318 82.830155 
L 158.43177 88.498435 
L 159.015366 96.865373 
L 165.434895 195.093968 
L 165.823956 188.921261 
L 172.438019 61.080661 
L 172.632549 62.189256 
L 179.635674 144.927333 
L 186.444267 183.065083 
L 186.833328 176.193894 
L 193.447388 42.288316 
L 193.641918 44.723194 
L 200.450516 185.710104 
L 200.645046 185.93395 
L 207.453636 160.480445 
L 208.231762 147.231607 
L 214.45676 36.887273 
L 214.845825 44.899633 
L 221.459885 209.270977 
L 221.654415 208.715143 
L 228.657539 139.539334 
L 235.466133 44.341228 
L 235.855194 52.63877 
L 242.469254 219.645476 
L 242.663784 218.354184 
L 249.666912 116.932336 
L 256.475502 56.569025 
L 256.864563 64.163699 
L 263.47863 214.13406 
L 263.673161 212.382105 
L 270.48175 97.138739 
L 270.676281 96.506838 
L 277.484871 97.671998 
L 278.06847 106.27664 
L 284.487999 207.610019 
L 284.682529 205.326276 
L 291.491119 78.543822 
L 291.68565 78.84955 
L 298.883308 126.976404 
L 305.497368 179.829395 
L 305.886429 173.727683 
L 312.500496 52.600579 
L 312.695026 54.669592 
L 319.503616 176.361346 
L 319.698147 176.811608 
L 326.506741 166.087632 
L 327.090336 157.427368 
L 333.509865 56.082201 
L 333.898926 63.45543 
L 340.512985 214.329344 
L 340.707516 213.517861 
L 348.099705 131.90714 
L 354.519234 51.107302 
L 354.908295 59.328234 
L 361.522358 223.862314 
L 361.716892 222.543904 
L 368.720013 120.406985 
L 375.528606 52.9627 
L 375.917671 60.546616 
L 382.531731 211.078054 
L 382.726261 209.753343 
L 389.729385 111.796429 
L 396.537975 80.797161 
L 396.92704 87.547504 
L 403.5411 218.399948 
L 403.73563 216.492728 
L 410.544224 99.376604 
L 410.738754 98.538432 
L 417.547348 91.147414 
L 418.130939 100.702301 
L 424.550472 213.81123 
L 424.745003 211.77465 
L 431.553593 92.683254 
L 431.748127 92.204703 
L 438.556721 101.040919 
L 439.140312 109.347549 
L 445.559841 206.652016 
L 445.948906 200.153907 
L 452.562965 66.272618 
L 452.757496 67.03038 
L 460.538746 143.367061 
L 466.569214 197.252479 
L 466.958275 190.550356 
L 473.572338 57.388024 
L 473.766869 58.881201 
L 480.575459 158.477412 
L 480.964523 160.262087 
L 487.578587 183.222533 
L 487.967648 176.52424 
L 494.581707 47.449755 
L 494.776237 49.820068 
L 501.584835 186.738917 
L 501.973896 188.64428 
L 509.366081 212.651371 
L 515.591076 235.141324 
L 515.78561 235.259769 
L 524.150452 234.176834 
L 530.18092 233.843574 
L 539.129356 234.782503 
L 550.801231 235.55661 
L 558.193413 235.388787 
L 565.391071 236.331474 
L 576.090286 236.593838 
L 579.202785 236.615384 
L 586.20591 235.71526 
L 593.598095 236.015873 
L 600.601219 235.73452 
L 608.577 236.020717 
L 624.33403 236.007672 
L 631.531681 236.321529 
L 635.811367 236.454505 
L 642.814495 236.271294 
L 649.428555 236.51387 
L 656.431675 236.030246 
L 669.854332 236.619442 
L 679.969955 236.242018 
L 687.751205 236.237675 
L 694.754326 236.435074 
L 699.617607 236.520142 
L 705.842609 236.514842 
L 713.623856 236.962146 
L 721.016041 236.96246 
L 733.855099 236.671892 
L 743.776192 236.57435 
L 747.861347 236.570435 
L 755.448067 236.946458 
L 762.840252 236.840387 
L 768.676186 236.646303 
L 775.290249 236.965775 
L 782.293373 236.312857 
L 790.658215 236.595167 
L 799.412121 236.39824 
L 803.691807 236.323973 
L 811.862118 236.74343 
L 815.947273 236.804939 
L 815.947273 236.804939 
" clip-path="url(#p28c74d1d3c)" style="fill: none; stroke: #0000ff; stroke-width: 1.5; stroke-linecap: square"/>
   </g>
   <g id="line2d_32">
    <path d="M 70.892727 79.404663 
L 72.05991 79.477696 
L 72.643505 79.39945 
L 73.810696 79.521003 
L 74.783352 79.512493 
L 75.950539 79.462865 
L 77.312256 79.671748 
L 78.479446 79.639306 
L 79.063038 79.732422 
L 80.035694 79.697881 
L 81.202881 79.725348 
L 83.537254 79.640127 
L 83.926319 79.702416 
L 84.509911 79.565675 
L 85.677097 79.624142 
L 87.038815 79.638425 
L 88.011471 79.613165 
L 88.7896 79.529155 
L 92.291157 79.483136 
L 93.069286 79.638724 
L 94.431004 79.310602 
L 95.014595 79.036098 
L 95.40366 78.400297 
L 98.127098 73.095483 
L 98.90522 70.506358 
L 100.072407 65.988125 
L 103.18491 52.283651 
L 103.963032 51.285749 
L 104.546627 50.970553 
L 105.519279 51.070976 
L 106.102875 51.098981 
L 106.880997 51.43193 
L 107.659126 52.800487 
L 108.242722 54.740312 
L 109.020844 58.840557 
L 110.771622 65.352329 
L 112.133339 69.684229 
L 113.300529 74.168956 
L 113.689594 75.44253 
L 114.273186 76.624144 
L 114.856781 77.381532 
L 115.440372 77.82365 
L 116.99662 77.643495 
L 117.580219 77.258595 
L 118.358341 76.254511 
L 119.136467 75.386548 
L 120.692715 73.333152 
L 123.027092 69.394696 
L 123.221622 68.875547 
L 124.388809 62.601621 
L 124.77787 59.757194 
L 125.361465 55.692606 
L 127.112247 49.481016 
L 127.501308 48.318938 
L 128.473965 46.905403 
L 129.25209 46.509014 
L 129.835682 46.589242 
L 130.224743 47.087708 
L 130.613808 47.69742 
L 131.197399 50.187839 
L 132.36459 57.86935 
L 132.753654 61.722082 
L 133.337246 67.149581 
L 133.726307 69.733266 
L 134.309902 72.146382 
L 135.088024 73.788806 
L 135.671619 74.521048 
L 136.255211 74.822565 
L 137.227871 74.94095 
L 138.200527 74.71365 
L 139.562244 73.881383 
L 140.923962 71.656342 
L 142.480213 68.786815 
L 143.6474 64.76151 
L 144.230991 62.82663 
L 145.009117 60.372189 
L 147.343494 50.175168 
L 148.899742 45.192149 
L 149.288803 44.658047 
L 149.872398 44.229502 
L 150.45599 44.37811 
L 150.845051 44.830375 
L 151.42865 46.280216 
L 152.401306 49.306319 
L 153.373959 54.689678 
L 155.319271 67.116191 
L 156.097393 69.322032 
L 156.875523 70.992078 
L 157.848179 72.15844 
L 158.23724 72.357825 
L 159.209896 72.596397 
L 159.793488 72.510554 
L 160.766144 72.077571 
L 161.738804 70.95043 
L 162.322395 69.885983 
L 163.489582 67.501849 
L 163.878643 66.538382 
L 164.656769 63.381955 
L 165.24036 60.01871 
L 165.629425 57.094368 
L 166.602085 49.136556 
L 166.991146 47.411067 
L 167.769272 45.06953 
L 168.352863 44.241656 
L 168.936455 44.00167 
L 169.52005 44.048085 
L 170.298172 44.957686 
L 170.881771 46.131628 
L 172.632549 51.889305 
L 173.799736 58.823614 
L 174.772392 65.067365 
L 175.745052 68.493818 
L 176.134113 69.470962 
L 177.10677 71.210554 
L 177.690361 71.850725 
L 178.273956 71.945252 
L 178.857548 71.771412 
L 179.635674 71.092003 
L 181.191925 69.312988 
L 182.164581 67.520955 
L 183.526299 62.692889 
L 185.471611 54.852515 
L 187.027859 47.300912 
L 188.000515 44.725121 
L 188.58411 43.823482 
L 189.362232 43.397628 
L 189.751293 43.330727 
L 190.140358 43.698001 
L 190.529423 44.235248 
L 191.696609 46.830214 
L 192.280201 48.414779 
L 194.225513 59.348262 
L 195.198174 65.803868 
L 195.976295 68.825743 
L 196.948952 71.551926 
L 197.338013 72.075879 
L 197.921608 72.483873 
L 199.088795 72.543052 
L 199.477856 72.484267 
L 200.061455 72.038939 
L 200.645046 70.976319 
L 201.617702 67.463783 
L 202.201294 65.882594 
L 202.784889 64.4411 
L 203.563011 60.633516 
L 204.535667 56.906554 
L 205.897388 50.3624 
L 206.675514 45.974027 
L 207.259106 43.98118 
L 207.842697 42.709891 
L 208.620823 42.289865 
L 209.204414 42.164665 
L 209.788013 42.421095 
L 211.149731 45.588321 
L 211.733326 47.901496 
L 212.122387 49.804177 
L 212.900509 54.651038 
L 215.234886 70.619044 
L 215.818481 71.888967 
L 216.596603 72.562666 
L 217.374729 72.809606 
L 218.347385 72.826709 
L 220.487228 71.747968 
L 221.459885 70.553928 
L 222.23801 68.692599 
L 223.210663 64.504177 
L 223.794258 62.134329 
L 225.35051 53.052357 
L 226.128635 49.011977 
L 226.906757 44.301424 
L 227.295822 42.545581 
L 228.073944 40.780072 
L 228.657539 40.2189 
L 229.241135 40.376353 
L 229.630196 40.886057 
L 230.213791 41.920644 
L 231.770039 47.764876 
L 233.520817 59.017425 
L 234.688007 66.850354 
L 235.660664 70.510091 
L 236.244255 71.963885 
L 236.82785 72.64879 
L 237.216911 72.847097 
L 237.800507 73.092361 
L 238.384098 73.379118 
L 238.967697 73.235767 
L 239.551289 72.744886 
L 240.523945 71.4571 
L 241.107536 70.443724 
L 242.274723 67.063782 
L 243.247379 63.616309 
L 244.41457 57.360373 
L 245.192692 53.529574 
L 248.305191 40.479144 
L 248.694256 39.749089 
L 249.277851 39.466832 
L 249.472382 39.501497 
L 250.250504 40.193212 
L 250.834099 41.40963 
L 251.41769 44.103361 
L 253.946598 60.774278 
L 256.086441 68.250266 
L 256.670033 69.306991 
L 257.253628 70.102071 
L 258.809879 70.410227 
L 259.19894 70.320211 
L 260.560658 68.780352 
L 262.7005 63.421968 
L 264.256752 57.461514 
L 265.034878 54.32116 
L 265.813 49.932199 
L 266.591125 45.540728 
L 267.563782 42.373687 
L 268.147377 41.050488 
L 268.730972 40.656139 
L 269.509094 40.833822 
L 270.09269 41.096621 
L 270.676281 42.166387 
L 271.454407 44.300705 
L 272.037998 46.949801 
L 273.399719 57.975065 
L 273.983315 61.645214 
L 275.345032 66.32583 
L 275.928623 68.297409 
L 276.317684 69.284994 
L 277.29034 70.949612 
L 278.263 71.003405 
L 278.652061 70.795232 
L 279.235657 70.285182 
L 280.597374 68.412394 
L 281.375496 66.59393 
L 281.959091 64.666843 
L 283.904404 56.733123 
L 286.433308 45.508093 
L 287.405964 43.104912 
L 287.795029 42.505936 
L 288.767685 42.003715 
L 289.156746 42.141843 
L 289.740341 42.595074 
L 290.323933 43.241856 
L 290.907528 44.709074 
L 291.491119 47.710351 
L 293.436436 59.800624 
L 295.187214 66.966807 
L 295.770805 68.218149 
L 296.354401 68.865369 
L 297.521591 69.230148 
L 297.910652 69.258551 
L 298.883308 68.741862 
L 299.661434 67.971627 
L 300.634087 66.620666 
L 300.828617 66.302776 
L 302.773933 60.437076 
L 306.080959 46.242519 
L 307.053619 42.76777 
L 307.637215 41.818287 
L 308.026276 41.490452 
L 308.415337 41.340457 
L 309.582523 42.176346 
L 309.971584 42.554996 
L 310.74971 44.079251 
L 311.722366 48.020847 
L 312.111431 50.19108 
L 313.862213 61.959036 
L 314.445805 64.826562 
L 315.029396 66.740254 
L 316.196583 69.025125 
L 316.585644 69.441971 
L 317.363773 69.961283 
L 318.141899 69.883198 
L 318.920021 69.594578 
L 319.698147 68.974414 
L 320.476273 67.603949 
L 321.643463 65.206356 
L 322.032524 64.351388 
L 322.810646 62.110681 
L 324.561428 53.758906 
L 326.895805 41.051133 
L 327.673927 39.796038 
L 328.257523 39.376555 
L 328.841114 39.468358 
L 329.424709 39.698549 
L 329.81377 40.088176 
L 330.202831 40.683905 
L 330.786423 42.241753 
L 331.759083 46.997627 
L 332.731739 52.419229 
L 333.315334 55.676311 
L 334.482517 62.482625 
L 335.844234 67.420999 
L 336.233303 68.114362 
L 337.011425 68.593845 
L 337.789551 68.667579 
L 338.567677 68.391798 
L 339.540329 67.412639 
L 339.929394 66.825222 
L 340.512985 65.518364 
L 341.291115 62.268627 
L 343.041893 53.37371 
L 344.40361 43.914192 
L 345.181736 41.032475 
L 345.959862 39.200816 
L 346.543457 38.641735 
L 347.516113 38.510013 
L 347.905174 38.60705 
L 349.266891 39.645307 
L 350.239548 41.164641 
L 351.017673 43.043036 
L 351.406738 45.240626 
L 351.99033 48.676786 
L 352.573921 51.910152 
L 353.935638 63.802678 
L 354.519234 66.55939 
L 355.297356 68.955665 
L 355.880955 70.093963 
L 356.46455 70.634537 
L 357.826267 70.962519 
L 358.604389 70.454914 
L 358.99345 70.083427 
L 360.160637 67.226192 
L 361.133297 64.24238 
L 363.46767 57.921748 
L 366.191109 47.357935 
L 366.7747 43.267688 
L 367.747356 39.59667 
L 368.330952 38.21536 
L 369.303604 37.89661 
L 369.692669 37.930809 
L 370.276264 38.47474 
L 370.859859 39.623756 
L 371.05439 40.074614 
L 371.832512 43.479635 
L 373.777824 55.309565 
L 374.750477 59.40978 
L 375.528606 62.150698 
L 376.306732 65.47726 
L 376.890324 66.917281 
L 377.668449 67.899337 
L 378.641106 68.265405 
L 379.030167 68.309928 
L 379.808289 67.836967 
L 380.586418 67.063367 
L 380.780949 66.840828 
L 381.364544 64.643496 
L 382.337196 60.952988 
L 383.698914 56.715033 
L 384.477039 53.77978 
L 385.449699 50.323465 
L 386.033291 48.066337 
L 387.395008 41.934619 
L 388.367664 39.291374 
L 388.756725 38.457356 
L 389.534851 38.070631 
L 390.11845 38.096523 
L 390.896572 40.467224 
L 391.480167 42.970457 
L 392.45282 49.226032 
L 394.203602 60.289877 
L 394.592667 62.916229 
L 395.565323 67.241526 
L 396.148914 68.827314 
L 396.537975 69.472796 
L 397.899693 70.663838 
L 398.483288 70.91094 
L 399.066879 70.876627 
L 399.455948 70.820726 
L 400.23407 70.116606 
L 401.206726 68.021828 
L 401.790318 66.237013 
L 403.5411 59.293548 
L 404.902821 54.04978 
L 405.486412 51.228814 
L 406.264538 46.745144 
L 407.237194 41.908361 
L 407.626255 40.269596 
L 408.209846 38.809707 
L 408.987972 38.084319 
L 409.571571 37.901665 
L 410.155163 38.107049 
L 410.738754 38.760261 
L 413.656723 53.298178 
L 415.991096 62.953479 
L 416.574692 65.998319 
L 417.547348 68.991219 
L 417.936409 69.563023 
L 418.909069 70.414966 
L 419.687191 70.674066 
L 420.270786 70.710005 
L 420.854378 70.410608 
L 421.632504 68.986374 
L 422.410625 67.022318 
L 423.188751 64.337381 
L 423.577812 62.509513 
L 425.328598 52.879255 
L 427.662968 40.270418 
L 428.246563 38.566992 
L 428.830158 38.025003 
L 429.608284 38.147549 
L 430.38641 38.555057 
L 430.970001 39.001009 
L 431.748127 40.783425 
L 432.526249 43.417272 
L 435.249687 57.645116 
L 436.416874 63.857313 
L 437.195 66.983091 
L 437.778591 68.500972 
L 438.36219 69.448217 
L 439.140312 70.016932 
L 439.529377 70.085473 
L 439.918438 69.96257 
L 440.502029 69.226274 
L 442.058281 66.156748 
L 442.641872 64.446376 
L 443.420002 61.230926 
L 444.587189 55.629716 
L 445.365311 51.219478 
L 446.921558 44.376811 
L 448.477814 39.981927 
L 449.255936 39.394946 
L 449.839531 39.278769 
L 450.228592 39.240949 
L 451.006718 39.916017 
L 451.78484 40.746475 
L 451.97937 41.027951 
L 452.562965 42.671813 
L 452.95203 45.173569 
L 455.091873 60.676833 
L 456.648121 65.434109 
L 457.426243 67.389496 
L 458.204372 68.730135 
L 458.787968 69.451284 
L 459.177029 69.714191 
L 460.149685 69.648616 
L 460.733276 69.33061 
L 461.511402 68.623231 
L 462.873123 66.719117 
L 463.845779 64.904035 
L 465.207497 61.132351 
L 465.402027 60.546794 
L 466.37468 54.285414 
L 467.152805 50.900772 
L 468.903587 38.4062 
L 469.292652 37.212916 
L 469.681713 36.887273 
L 470.459839 37.222427 
L 471.237961 38.247414 
L 471.821556 40.321927 
L 473.377808 49.012417 
L 474.739525 57.155597 
L 476.295773 63.992784 
L 477.462963 67.711766 
L 477.852024 68.462759 
L 479.019211 69.448576 
L 479.797337 69.451997 
L 480.186398 69.343044 
L 480.964523 68.619452 
L 481.548115 67.693843 
L 482.520775 64.994985 
L 483.298901 62.115892 
L 484.855148 55.590225 
L 485.63327 52.059661 
L 486.605927 47.231346 
L 487.578587 43.659404 
L 487.967648 41.920597 
L 489.134834 39.381409 
L 489.523895 38.828342 
L 490.107491 38.432368 
L 490.885612 38.78813 
L 491.274677 39.097603 
L 491.663738 39.882638 
L 491.858273 40.354416 
L 493.803585 49.673898 
L 495.943424 62.1098 
L 496.721554 65.067566 
L 497.110615 65.763506 
L 497.69421 66.369901 
L 498.277802 66.527073 
L 499.639519 66.177322 
L 501.195766 66.162467 
L 501.779366 66.380295 
L 502.557487 66.955837 
L 503.530144 68.233215 
L 504.113739 69.304366 
L 505.086391 71.346993 
L 505.864517 73.003258 
L 506.642647 75.076752 
L 507.226238 77.112192 
L 507.809834 80.521826 
L 508.393425 90.307973 
L 509.755142 116.064806 
L 510.338734 125.949448 
L 511.894989 162.678351 
L 512.673111 173.351503 
L 513.062176 175.859903 
L 513.645767 178.471887 
L 514.423893 180.384677 
L 515.202015 181.112685 
L 516.174675 180.344917 
L 517.730923 177.324959 
L 518.703579 176.240172 
L 519.09264 175.63324 
L 519.676235 175.495283 
L 520.065296 175.799304 
L 522.010612 181.192451 
L 522.594204 182.023684 
L 523.177795 182.413333 
L 524.150452 182.168409 
L 524.928577 181.769321 
L 525.317638 181.510817 
L 527.262955 178.299108 
L 528.235607 176.257372 
L 528.624672 175.800274 
L 529.013733 175.529833 
L 531.737171 176.263412 
L 532.126232 176.152927 
L 532.904358 175.405183 
L 533.293419 174.843237 
L 534.266075 172.763955 
L 535.627796 168.261035 
L 536.405922 164.040932 
L 537.184044 158.322103 
L 538.545761 149.830145 
L 543.992634 125.751134 
L 547.494198 92.892424 
L 548.272324 89.84149 
L 549.050446 87.569937 
L 550.801231 83.814431 
L 551.190292 83.345152 
L 551.968418 82.954153 
L 552.357479 82.850676 
L 553.330135 82.98498 
L 554.691853 82.551991 
L 555.080917 82.269265 
L 555.469978 81.79083 
L 557.415291 77.728361 
L 558.777008 73.629979 
L 562.862164 62.024921 
L 563.445755 60.298299 
L 564.223881 58.320423 
L 565.391071 55.152311 
L 565.974667 53.857266 
L 566.947319 52.106902 
L 567.14185 51.694723 
L 567.33638 51.722541 
L 637.756683 167.978537 
L 637.951214 172.184016 
L 638.534809 231.412422 
L 638.72934 237.032727 
L 692.419952 117.88305 
L 812.251179 129.906194 
L 812.445709 132.172711 
L 813.6129 153.278541 
L 814.585556 165.19734 
L 815.947273 185.184784 
L 815.947273 185.184784 
" clip-path="url(#p28c74d1d3c)" style="fill: none; stroke: #ff0000; stroke-width: 1.5; stroke-linecap: square"/>
   </g>
   <g id="line2d_33">
    <defs>
     <path id="m79408e8851" d="M 0 3 
C 0.795609 3 1.55874 2.683901 2.12132 2.12132 
C 2.683901 1.55874 3 0.795609 3 0 
C 3 -0.795609 2.683901 -1.55874 2.12132 -2.12132 
C 1.55874 -2.683901 0.795609 -3 0 -3 
C -0.795609 -3 -1.55874 -2.683901 -2.12132 -2.12132 
C -2.683901 -1.55874 -3 -0.795609 -3 0 
C -3 0.795609 -2.683901 1.55874 -2.12132 2.12132 
C -1.55874 2.683901 -0.795609 3 0 3 
z
" style="stroke: #0000ff"/>
    </defs>
    <g clip-path="url(#p28c74d1d3c)">
     <use xlink:href="#m79408e8851" x="109.409904" y="37.110003" style="fill: #0000ff; stroke: #0000ff"/>
     <use xlink:href="#m79408e8851" x="130.419277" y="81.891554" style="fill: #0000ff; stroke: #0000ff"/>
     <use xlink:href="#m79408e8851" x="151.62318" y="82.830155" style="fill: #0000ff; stroke: #0000ff"/>
     <use xlink:href="#m79408e8851" x="172.438019" y="61.080661" style="fill: #0000ff; stroke: #0000ff"/>
     <use xlink:href="#m79408e8851" x="193.447388" y="42.288316" style="fill: #0000ff; stroke: #0000ff"/>
     <use xlink:href="#m79408e8851" x="214.45676" y="36.887273" style="fill: #0000ff; stroke: #0000ff"/>
     <use xlink:href="#m79408e8851" x="235.466133" y="44.341228" style="fill: #0000ff; stroke: #0000ff"/>
     <use xlink:href="#m79408e8851" x="256.475502" y="56.569025" style="fill: #0000ff; stroke: #0000ff"/>
     <use xlink:href="#m79408e8851" x="270.676281" y="96.506838" style="fill: #0000ff; stroke: #0000ff"/>
     <use xlink:href="#m79408e8851" x="291.491119" y="78.543822" style="fill: #0000ff; stroke: #0000ff"/>
     <use xlink:href="#m79408e8851" x="312.500496" y="52.600579" style="fill: #0000ff; stroke: #0000ff"/>
     <use xlink:href="#m79408e8851" x="333.509865" y="56.082201" style="fill: #0000ff; stroke: #0000ff"/>
     <use xlink:href="#m79408e8851" x="354.519234" y="51.107302" style="fill: #0000ff; stroke: #0000ff"/>
     <use xlink:href="#m79408e8851" x="375.528606" y="52.9627" style="fill: #0000ff; stroke: #0000ff"/>
     <use xlink:href="#m79408e8851" x="396.537975" y="80.797161" style="fill: #0000ff; stroke: #0000ff"/>
     <use xlink:href="#m79408e8851" x="417.547348" y="91.147414" style="fill: #0000ff; stroke: #0000ff"/>
     <use xlink:href="#m79408e8851" x="431.748127" y="92.204703" style="fill: #0000ff; stroke: #0000ff"/>
     <use xlink:href="#m79408e8851" x="452.562965" y="66.272618" style="fill: #0000ff; stroke: #0000ff"/>
     <use xlink:href="#m79408e8851" x="473.572338" y="57.388024" style="fill: #0000ff; stroke: #0000ff"/>
     <use xlink:href="#m79408e8851" x="494.581707" y="47.449755" style="fill: #0000ff; stroke: #0000ff"/>
    </g>
   </g>
   <g id="line2d_34">
    <defs>
     <path id="m6b5453dfea" d="M 0 3 
C 0.795609 3 1.55874 2.683901 2.12132 2.12132 
C 2.683901 1.55874 3 0.795609 3 0 
C 3 -0.795609 2.683901 -1.55874 2.12132 -2.12132 
C 1.55874 -2.683901 0.795609 -3 0 -3 
C -0.795609 -3 -1.55874 -2.683901 -2.12132 -2.12132 
C -2.683901 -1.55874 -3 -0.795609 -3 0 
C -3 0.795609 -2.683901 1.55874 -2.12132 2.12132 
C -1.55874 2.683901 -0.795609 3 0 3 
z
" style="stroke: #ff0000"/>
    </defs>
    <g clip-path="url(#p28c74d1d3c)">
     <use xlink:href="#m6b5453dfea" x="104.546627" y="50.970553" style="fill: #ff0000; stroke: #ff0000"/>
     <use xlink:href="#m6b5453dfea" x="129.25209" y="46.509014" style="fill: #ff0000; stroke: #ff0000"/>
     <use xlink:href="#m6b5453dfea" x="149.872398" y="44.229502" style="fill: #ff0000; stroke: #ff0000"/>
     <use xlink:href="#m6b5453dfea" x="168.936455" y="44.00167" style="fill: #ff0000; stroke: #ff0000"/>
     <use xlink:href="#m6b5453dfea" x="189.751293" y="43.330727" style="fill: #ff0000; stroke: #ff0000"/>
     <use xlink:href="#m6b5453dfea" x="209.009884" y="42.136035" style="fill: #ff0000; stroke: #ff0000"/>
     <use xlink:href="#m6b5453dfea" x="228.657539" y="40.2189" style="fill: #ff0000; stroke: #ff0000"/>
     <use xlink:href="#m6b5453dfea" x="249.277851" y="39.466832" style="fill: #ff0000; stroke: #ff0000"/>
     <use xlink:href="#m6b5453dfea" x="268.730972" y="40.656139" style="fill: #ff0000; stroke: #ff0000"/>
     <use xlink:href="#m6b5453dfea" x="288.767685" y="42.003715" style="fill: #ff0000; stroke: #ff0000"/>
     <use xlink:href="#m6b5453dfea" x="308.415337" y="41.340457" style="fill: #ff0000; stroke: #ff0000"/>
     <use xlink:href="#m6b5453dfea" x="328.257523" y="39.376555" style="fill: #ff0000; stroke: #ff0000"/>
     <use xlink:href="#m6b5453dfea" x="347.321579" y="38.489262" style="fill: #ff0000; stroke: #ff0000"/>
     <use xlink:href="#m6b5453dfea" x="369.303604" y="37.89661" style="fill: #ff0000; stroke: #ff0000"/>
     <use xlink:href="#m6b5453dfea" x="389.923916" y="38.050662" style="fill: #ff0000; stroke: #ff0000"/>
     <use xlink:href="#m6b5453dfea" x="409.377037" y="37.895251" style="fill: #ff0000; stroke: #ff0000"/>
     <use xlink:href="#m6b5453dfea" x="428.830158" y="38.025003" style="fill: #ff0000; stroke: #ff0000"/>
     <use xlink:href="#m6b5453dfea" x="450.228592" y="39.240949" style="fill: #ff0000; stroke: #ff0000"/>
     <use xlink:href="#m6b5453dfea" x="469.681713" y="36.887273" style="fill: #ff0000; stroke: #ff0000"/>
     <use xlink:href="#m6b5453dfea" x="490.107491" y="38.432368" style="fill: #ff0000; stroke: #ff0000"/>
     <use xlink:href="#m6b5453dfea" x="519.481701" y="175.480347" style="fill: #ff0000; stroke: #ff0000"/>
     <use xlink:href="#m6b5453dfea" x="529.013733" y="175.529833" style="fill: #ff0000; stroke: #ff0000"/>
     <use xlink:href="#m6b5453dfea" x="552.357479" y="82.850676" style="fill: #ff0000; stroke: #ff0000"/>
     <use xlink:href="#m6b5453dfea" x="567.14185" y="51.694723" style="fill: #ff0000; stroke: #ff0000"/>
     <use xlink:href="#m6b5453dfea" x="692.419952" y="117.88305" style="fill: #ff0000; stroke: #ff0000"/>
    </g>
   </g>
   <g id="patch_3">
    <path d="M 33.64 247.04 
L 33.64 26.88 
" style="fill: none; stroke: #000000; stroke-width: 0.8; stroke-linejoin: miter; stroke-linecap: square"/>
   </g>
   <g id="patch_4">
    <path d="M 853.2 247.04 
L 853.2 26.88 
" style="fill: none; stroke: #000000; stroke-width: 0.8; stroke-linejoin: miter; stroke-linecap: square"/>
   </g>
   <g id="patch_5">
    <path d="M 33.639999 247.04 
L 853.199997 247.04 
" style="fill: none; stroke: #000000; stroke-width: 0.8; stroke-linejoin: miter; stroke-linecap: square"/>
   </g>
   <g id="patch_6">
    <path d="M 33.639999 26.88 
L 853.199997 26.88 
" style="fill: none; stroke: #000000; stroke-width: 0.8; stroke-linejoin: miter; stroke-linecap: square"/>
   </g>
   <g id="text_17">
    <!-- Peak Alignment -->
    <g transform="translate(396.529063 20.88) scale(0.12 -0.12)">
     <defs>
      <path id="DejaVuSans-50" d="M 1259 4147 
L 1259 2394 
L 2053 2394 
Q 2494 2394 2734 2622 
Q 2975 2850 2975 3272 
Q 2975 3691 2734 3919 
Q 2494 4147 2053 4147 
L 1259 4147 
z
M 628 4666 
L 2053 4666 
Q 2838 4666 3239 4311 
Q 3641 3956 3641 3272 
Q 3641 2581 3239 2228 
Q 2838 1875 2053 1875 
L 1259 1875 
L 1259 0 
L 628 0 
L 628 4666 
z
" transform="scale(0.015625)"/>
      <path id="DejaVuSans-61" d="M 2194 1759 
Q 1497 1759 1228 1600 
Q 959 1441 959 1056 
Q 959 750 1161 570 
Q 1363 391 1709 391 
Q 2188 391 2477 730 
Q 2766 1069 2766 1631 
L 2766 1759 
L 2194 1759 
z
M 3341 1997 
L 3341 0 
L 2766 0 
L 2766 531 
Q 2569 213 2275 61 
Q 1981 -91 1556 -91 
Q 1019 -91 701 211 
Q 384 513 384 1019 
Q 384 1609 779 1909 
Q 1175 2209 1959 2209 
L 2766 2209 
L 2766 2266 
Q 2766 2663 2505 2880 
Q 2244 3097 1772 3097 
Q 1472 3097 1187 3025 
Q 903 2953 641 2809 
L 641 3341 
Q 956 3463 1253 3523 
Q 1550 3584 1831 3584 
Q 2591 3584 2966 3190 
Q 3341 2797 3341 1997 
z
" transform="scale(0.015625)"/>
      <path id="DejaVuSans-6b" d="M 581 4863 
L 1159 4863 
L 1159 1991 
L 2875 3500 
L 3609 3500 
L 1753 1863 
L 3688 0 
L 2938 0 
L 1159 1709 
L 1159 0 
L 581 0 
L 581 4863 
z
" transform="scale(0.015625)"/>
      <path id="DejaVuSans-20" transform="scale(0.015625)"/>
      <path id="DejaVuSans-41" d="M 2188 4044 
L 1331 1722 
L 3047 1722 
L 2188 4044 
z
M 1831 4666 
L 2547 4666 
L 4325 0 
L 3669 0 
L 3244 1197 
L 1141 1197 
L 716 0 
L 50 0 
L 1831 4666 
z
" transform="scale(0.015625)"/>
      <path id="DejaVuSans-6c" d="M 603 4863 
L 1178 4863 
L 1178 0 
L 603 0 
L 603 4863 
z
" transform="scale(0.015625)"/>
      <path id="DejaVuSans-69" d="M 603 3500 
L 1178 3500 
L 1178 0 
L 603 0 
L 603 3500 
z
M 603 4863 
L 1178 4863 
L 1178 4134 
L 603 4134 
L 603 4863 
z
" transform="scale(0.015625)"/>
      <path id="DejaVuSans-67" d="M 2906 1791 
Q 2906 2416 2648 2759 
Q 2391 3103 1925 3103 
Q 1463 3103 1205 2759 
Q 947 2416 947 1791 
Q 947 1169 1205 825 
Q 1463 481 1925 481 
Q 2391 481 2648 825 
Q 2906 1169 2906 1791 
z
M 3481 434 
Q 3481 -459 3084 -895 
Q 2688 -1331 1869 -1331 
Q 1566 -1331 1297 -1286 
Q 1028 -1241 775 -1147 
L 775 -588 
Q 1028 -725 1275 -790 
Q 1522 -856 1778 -856 
Q 2344 -856 2625 -561 
Q 2906 -266 2906 331 
L 2906 616 
Q 2728 306 2450 153 
Q 2172 0 1784 0 
Q 1141 0 747 490 
Q 353 981 353 1791 
Q 353 2603 747 3093 
Q 1141 3584 1784 3584 
Q 2172 3584 2450 3431 
Q 2728 3278 2906 2969 
L 2906 3500 
L 3481 3500 
L 3481 434 
z
" transform="scale(0.015625)"/>
      <path id="DejaVuSans-6e" d="M 3513 2113 
L 3513 0 
L 2938 0 
L 2938 2094 
Q 2938 2591 2744 2837 
Q 2550 3084 2163 3084 
Q 1697 3084 1428 2787 
Q 1159 2491 1159 1978 
L 1159 0 
L 581 0 
L 581 3500 
L 1159 3500 
L 1159 2956 
Q 1366 3272 1645 3428 
Q 1925 3584 2291 3584 
Q 2894 3584 3203 3211 
Q 3513 2838 3513 2113 
z
" transform="scale(0.015625)"/>
      <path id="DejaVuSans-6d" d="M 3328 2828 
Q 3544 3216 3844 3400 
Q 4144 3584 4550 3584 
Q 5097 3584 5394 3201 
Q 5691 2819 5691 2113 
L 5691 0 
L 5113 0 
L 5113 2094 
Q 5113 2597 4934 2840 
Q 4756 3084 4391 3084 
Q 3944 3084 3684 2787 
Q 3425 2491 3425 1978 
L 3425 0 
L 2847 0 
L 2847 2094 
Q 2847 2600 2669 2842 
Q 2491 3084 2119 3084 
Q 1678 3084 1418 2786 
Q 1159 2488 1159 1978 
L 1159 0 
L 581 0 
L 581 3500 
L 1159 3500 
L 1159 2956 
Q 1356 3278 1631 3431 
Q 1906 3584 2284 3584 
Q 2666 3584 2933 3390 
Q 3200 3197 3328 2828 
z
" transform="scale(0.015625)"/>
      <path id="DejaVuSans-74" d="M 1172 4494 
L 1172 3500 
L 2356 3500 
L 2356 3053 
L 1172 3053 
L 1172 1153 
Q 1172 725 1289 603 
Q 1406 481 1766 481 
L 2356 481 
L 2356 0 
L 1766 0 
Q 1100 0 847 248 
Q 594 497 594 1153 
L 594 3053 
L 172 3053 
L 172 3500 
L 594 3500 
L 594 4494 
L 1172 4494 
z
" transform="scale(0.015625)"/>
     </defs>
     <use xlink:href="#DejaVuSans-50"/>
     <use xlink:href="#DejaVuSans-65" x="56.677734"/>
     <use xlink:href="#DejaVuSans-61" x="118.201172"/>
     <use xlink:href="#DejaVuSans-6b" x="179.480469"/>
     <use xlink:href="#DejaVuSans-20" x="237.390625"/>
     <use xlink:href="#DejaVuSans-41" x="269.177734"/>
     <use xlink:href="#DejaVuSans-6c" x="337.585938"/>
     <use xlink:href="#DejaVuSans-69" x="365.369141"/>
     <use xlink:href="#DejaVuSans-67" x="393.152344"/>
     <use xlink:href="#DejaVuSans-6e" x="456.628906"/>
     <use xlink:href="#DejaVuSans-6d" x="520.007812"/>
     <use xlink:href="#DejaVuSans-65" x="617.419922"/>
     <use xlink:href="#DejaVuSans-6e" x="678.943359"/>
     <use xlink:href="#DejaVuSans-74" x="742.322266"/>
    </g>
   </g>
   <g id="legend_1">
    <g id="patch_7">
     <path d="M 771.510938 93.5925 
L 846.2 93.5925 
Q 848.2 93.5925 848.2 91.5925 
L 848.2 33.88 
Q 848.2 31.88 846.2 31.88 
L 771.510938 31.88 
Q 769.510938 31.88 769.510938 33.88 
L 769.510938 91.5925 
Q 769.510938 93.5925 771.510938 93.5925 
z
" style="fill: #ffffff; opacity: 0.8; stroke: #cccccc; stroke-linejoin: miter"/>
    </g>
    <g id="line2d_35">
     <path d="M 773.510938 39.978437 
L 783.510938 39.978437 
L 793.510938 39.978437 
" style="fill: none; stroke: #0000ff; stroke-width: 1.5; stroke-linecap: square"/>
    </g>
    <g id="text_18">
     <!-- Pressure -->
     <g transform="translate(801.510938 43.478437) scale(0.1 -0.1)">
      <defs>
       <path id="DejaVuSans-72" d="M 2631 2963 
Q 2534 3019 2420 3045 
Q 2306 3072 2169 3072 
Q 1681 3072 1420 2755 
Q 1159 2438 1159 1844 
L 1159 0 
L 581 0 
L 581 3500 
L 1159 3500 
L 1159 2956 
Q 1341 3275 1631 3429 
Q 1922 3584 2338 3584 
Q 2397 3584 2469 3576 
Q 2541 3569 2628 3553 
L 2631 2963 
z
" transform="scale(0.015625)"/>
       <path id="DejaVuSans-73" d="M 2834 3397 
L 2834 2853 
Q 2591 2978 2328 3040 
Q 2066 3103 1784 3103 
Q 1356 3103 1142 2972 
Q 928 2841 928 2578 
Q 928 2378 1081 2264 
Q 1234 2150 1697 2047 
L 1894 2003 
Q 2506 1872 2764 1633 
Q 3022 1394 3022 966 
Q 3022 478 2636 193 
Q 2250 -91 1575 -91 
Q 1294 -91 989 -36 
Q 684 19 347 128 
L 347 722 
Q 666 556 975 473 
Q 1284 391 1588 391 
Q 1994 391 2212 530 
Q 2431 669 2431 922 
Q 2431 1156 2273 1281 
Q 2116 1406 1581 1522 
L 1381 1569 
Q 847 1681 609 1914 
Q 372 2147 372 2553 
Q 372 3047 722 3315 
Q 1072 3584 1716 3584 
Q 2034 3584 2315 3537 
Q 2597 3491 2834 3397 
z
" transform="scale(0.015625)"/>
       <path id="DejaVuSans-75" d="M 544 1381 
L 544 3500 
L 1119 3500 
L 1119 1403 
Q 1119 906 1312 657 
Q 1506 409 1894 409 
Q 2359 409 2629 706 
Q 2900 1003 2900 1516 
L 2900 3500 
L 3475 3500 
L 3475 0 
L 2900 0 
L 2900 538 
Q 2691 219 2414 64 
Q 2138 -91 1772 -91 
Q 1169 -91 856 284 
Q 544 659 544 1381 
z
M 1991 3584 
L 1991 3584 
z
" transform="scale(0.015625)"/>
      </defs>
      <use xlink:href="#DejaVuSans-50"/>
      <use xlink:href="#DejaVuSans-72" x="58.552734"/>
      <use xlink:href="#DejaVuSans-65" x="97.416016"/>
      <use xlink:href="#DejaVuSans-73" x="158.939453"/>
      <use xlink:href="#DejaVuSans-73" x="211.039062"/>
      <use xlink:href="#DejaVuSans-75" x="263.138672"/>
      <use xlink:href="#DejaVuSans-72" x="326.517578"/>
      <use xlink:href="#DejaVuSans-65" x="365.380859"/>
     </g>
    </g>
    <g id="line2d_36">
     <path d="M 773.510938 54.656562 
L 783.510938 54.656562 
L 793.510938 54.656562 
" style="fill: none; stroke: #ff0000; stroke-width: 1.5; stroke-linecap: square"/>
    </g>
    <g id="text_19">
     <!-- Vision -->
     <g transform="translate(801.510938 58.156562) scale(0.1 -0.1)">
      <defs>
       <path id="DejaVuSans-56" d="M 1831 0 
L 50 4666 
L 709 4666 
L 2188 738 
L 3669 4666 
L 4325 4666 
L 2547 0 
L 1831 0 
z
" transform="scale(0.015625)"/>
       <path id="DejaVuSans-6f" d="M 1959 3097 
Q 1497 3097 1228 2736 
Q 959 2375 959 1747 
Q 959 1119 1226 758 
Q 1494 397 1959 397 
Q 2419 397 2687 759 
Q 2956 1122 2956 1747 
Q 2956 2369 2687 2733 
Q 2419 3097 1959 3097 
z
M 1959 3584 
Q 2709 3584 3137 3096 
Q 3566 2609 3566 1747 
Q 3566 888 3137 398 
Q 2709 -91 1959 -91 
Q 1206 -91 779 398 
Q 353 888 353 1747 
Q 353 2609 779 3096 
Q 1206 3584 1959 3584 
z
" transform="scale(0.015625)"/>
      </defs>
      <use xlink:href="#DejaVuSans-56"/>
      <use xlink:href="#DejaVuSans-69" x="66.158203"/>
      <use xlink:href="#DejaVuSans-73" x="93.941406"/>
      <use xlink:href="#DejaVuSans-69" x="146.041016"/>
      <use xlink:href="#DejaVuSans-6f" x="173.824219"/>
      <use xlink:href="#DejaVuSans-6e" x="235.005859"/>
     </g>
    </g>
    <g id="line2d_37">
     <g>
      <use xlink:href="#m79408e8851" x="783.510938" y="69.334687" style="fill: #0000ff; stroke: #0000ff"/>
     </g>
    </g>
    <g id="text_20">
     <!-- P peaks -->
     <g transform="translate(801.510938 72.834687) scale(0.1 -0.1)">
      <defs>
       <path id="DejaVuSans-70" d="M 1159 525 
L 1159 -1331 
L 581 -1331 
L 581 3500 
L 1159 3500 
L 1159 2969 
Q 1341 3281 1617 3432 
Q 1894 3584 2278 3584 
Q 2916 3584 3314 3078 
Q 3713 2572 3713 1747 
Q 3713 922 3314 415 
Q 2916 -91 2278 -91 
Q 1894 -91 1617 61 
Q 1341 213 1159 525 
z
M 3116 1747 
Q 3116 2381 2855 2742 
Q 2594 3103 2138 3103 
Q 1681 3103 1420 2742 
Q 1159 2381 1159 1747 
Q 1159 1113 1420 752 
Q 1681 391 2138 391 
Q 2594 391 2855 752 
Q 3116 1113 3116 1747 
z
" transform="scale(0.015625)"/>
      </defs>
      <use xlink:href="#DejaVuSans-50"/>
      <use xlink:href="#DejaVuSans-20" x="60.302734"/>
      <use xlink:href="#DejaVuSans-70" x="92.089844"/>
      <use xlink:href="#DejaVuSans-65" x="155.566406"/>
      <use xlink:href="#DejaVuSans-61" x="217.089844"/>
      <use xlink:href="#DejaVuSans-6b" x="278.369141"/>
      <use xlink:href="#DejaVuSans-73" x="336.279297"/>
     </g>
    </g>
    <g id="line2d_38">
     <g>
      <use xlink:href="#m6b5453dfea" x="783.510938" y="84.012812" style="fill: #ff0000; stroke: #ff0000"/>
     </g>
    </g>
    <g id="text_21">
     <!-- V peaks -->
     <g transform="translate(801.510938 87.512812) scale(0.1 -0.1)">
      <use xlink:href="#DejaVuSans-56"/>
      <use xlink:href="#DejaVuSans-20" x="68.408203"/>
      <use xlink:href="#DejaVuSans-70" x="100.195312"/>
      <use xlink:href="#DejaVuSans-65" x="163.671875"/>
      <use xlink:href="#DejaVuSans-61" x="225.195312"/>
      <use xlink:href="#DejaVuSans-6b" x="286.474609"/>
      <use xlink:href="#DejaVuSans-73" x="344.384766"/>
     </g>
    </g>
   </g>
  </g>
 </g>
 <defs>
  <clipPath id="p28c74d1d3c">
   <rect x="33.64" y="26.88" width="819.56" height="220.16"/>
  </clipPath>
 </defs>
</svg>
