<?xml version="1.0" encoding="utf-8" standalone="no"?>
<!DOCTYPE svg PUBLIC "-//W3C//DTD SVG 1.1//EN"
  "http://www.w3.org/Graphics/SVG/1.1/DTD/svg11.dtd">
<svg xmlns:xlink="http://www.w3.org/1999/xlink" width="864pt" height="360pt" viewBox="0 0 864 360" xmlns="http://www.w3.org/2000/svg" version="1.1">
 <metadata>
  <rdf:RDF xmlns:dc="http://purl.org/dc/elements/1.1/" xmlns:cc="http://creativecommons.org/ns#" xmlns:rdf="http://www.w3.org/1999/02/22-rdf-syntax-ns#">
   <cc:Work>
    <dc:type rdf:resource="http://purl.org/dc/dcmitype/StillImage"/>
    <dc:date>2025-12-01T20:30:13.141296</dc:date>
    <dc:format>image/svg+xml</dc:format>
    <dc:creator>
     <cc:Agent>
      <dc:title>Matplotlib v3.8.4, https://matplotlib.org/</dc:title>
     </cc:Agent>
    </dc:creator>
   </cc:Work>
  </rdf:RDF>
 </metadata>
 <defs>
  <style type="text/css">*{stroke-linejoin: round; stroke-linecap: butt}</style>
 </defs>
 <g id="figure_1">
  <g id="patch_1">
   <path d="M 0 360 
L 864 360 
L 864 0 
L 0 0 
z
" style="fill: #ffffff"/>
  </g>
  <g id="axes_1">
   <g id="patch_2">
    <path d="M 57.26 318.04 
L 853.2 318.04 
L 853.2 26.88 
L 57.26 26.88 
z
" style="fill: #ffffff"/>
   </g>
   <g id="matplotlib.axis_1">
    <g id="xtick_1">
     <g id="line2d_1">
      <path d="M 164.649192 318.04 
L 164.649192 26.88 
" clip-path="url(#p2761dcb6dd)" style="fill: none; stroke: #b0b0b0; stroke-width: 0.8; stroke-linecap: square"/>
     </g>
     <g id="line2d_2">
      <defs>
       <path id="mff95845ae4" d="M 0 0 
L 0 3.5 
" style="stroke: #000000; stroke-width: 0.8"/>
      </defs>
      <g>
       <use xlink:href="#mff95845ae4" x="164.649192" y="318.04" style="stroke: #000000; stroke-width: 0.8"/>
      </g>
     </g>
     <g id="text_1">
      <!-- −20 -->
      <g transform="translate(154.096848 332.638438) scale(0.1 -0.1)">
       <defs>
        <path id="DejaVuSans-2212" d="M 678 2272 
L 4684 2272 
L 4684 1741 
L 678 1741 
L 678 2272 
z
" transform="scale(0.015625)"/>
        <path id="DejaVuSans-32" d="M 1228 531 
L 3431 531 
L 3431 0 
L 469 0 
L 469 531 
Q 828 903 1448 1529 
Q 2069 2156 2228 2338 
Q 2531 2678 2651 2914 
Q 2772 3150 2772 3378 
Q 2772 3750 2511 3984 
Q 2250 4219 1831 4219 
Q 1534 4219 1204 4116 
Q 875 4013 500 3803 
L 500 4441 
Q 881 4594 1212 4672 
Q 1544 4750 1819 4750 
Q 2544 4750 2975 4387 
Q 3406 4025 3406 3419 
Q 3406 3131 3298 2873 
Q 3191 2616 2906 2266 
Q 2828 2175 2409 1742 
Q 1991 1309 1228 531 
z
" transform="scale(0.015625)"/>
        <path id="DejaVuSans-30" d="M 2034 4250 
Q 1547 4250 1301 3770 
Q 1056 3291 1056 2328 
Q 1056 1369 1301 889 
Q 1547 409 2034 409 
Q 2525 409 2770 889 
Q 3016 1369 3016 2328 
Q 3016 3291 2770 3770 
Q 2525 4250 2034 4250 
z
M 2034 4750 
Q 2819 4750 3233 4129 
Q 3647 3509 3647 2328 
Q 3647 1150 3233 529 
Q 2819 -91 2034 -91 
Q 1250 -91 836 529 
Q 422 1150 422 2328 
Q 422 3509 836 4129 
Q 1250 4750 2034 4750 
z
" transform="scale(0.015625)"/>
       </defs>
       <use xlink:href="#DejaVuSans-2212"/>
       <use xlink:href="#DejaVuSans-32" x="83.789062"/>
       <use xlink:href="#DejaVuSans-30" x="147.412109"/>
      </g>
     </g>
    </g>
    <g id="xtick_2">
     <g id="line2d_3">
      <path d="M 309.975927 318.04 
L 309.975927 26.88 
" clip-path="url(#p2761dcb6dd)" style="fill: none; stroke: #b0b0b0; stroke-width: 0.8; stroke-linecap: square"/>
     </g>
     <g id="line2d_4">
      <g>
       <use xlink:href="#mff95845ae4" x="309.975927" y="318.04" style="stroke: #000000; stroke-width: 0.8"/>
      </g>
     </g>
     <g id="text_2">
      <!-- −10 -->
      <g transform="translate(299.423584 332.638438) scale(0.1 -0.1)">
       <defs>
        <path id="DejaVuSans-31" d="M 794 531 
L 1825 531 
L 1825 4091 
L 703 3866 
L 703 4441 
L 1819 4666 
L 2450 4666 
L 2450 531 
L 3481 531 
L 3481 0 
L 794 0 
L 794 531 
z
" transform="scale(0.015625)"/>
       </defs>
       <use xlink:href="#DejaVuSans-2212"/>
       <use xlink:href="#DejaVuSans-31" x="83.789062"/>
       <use xlink:href="#DejaVuSans-30" x="147.412109"/>
      </g>
     </g>
    </g>
    <g id="xtick_3">
     <g id="line2d_5">
      <path d="M 455.302663 318.04 
L 455.302663 26.88 
" clip-path="url(#p2761dcb6dd)" style="fill: none; stroke: #b0b0b0; stroke-width: 0.8; stroke-linecap: square"/>
     </g>
     <g id="line2d_6">
      <g>
       <use xlink:href="#mff95845ae4" x="455.302663" y="318.04" style="stroke: #000000; stroke-width: 0.8"/>
      </g>
     </g>
     <g id="text_3">
      <!-- 0 -->
      <g transform="translate(452.121413 332.638438) scale(0.1 -0.1)">
       <use xlink:href="#DejaVuSans-30"/>
      </g>
     </g>
    </g>
    <g id="xtick_4">
     <g id="line2d_7">
      <path d="M 600.629399 318.04 
L 600.629399 26.88 
" clip-path="url(#p2761dcb6dd)" style="fill: none; stroke: #b0b0b0; stroke-width: 0.8; stroke-linecap: square"/>
     </g>
     <g id="line2d_8">
      <g>
       <use xlink:href="#mff95845ae4" x="600.629399" y="318.04" style="stroke: #000000; stroke-width: 0.8"/>
      </g>
     </g>
     <g id="text_4">
      <!-- 10 -->
      <g transform="translate(594.266899 332.638438) scale(0.1 -0.1)">
       <use xlink:href="#DejaVuSans-31"/>
       <use xlink:href="#DejaVuSans-30" x="63.623047"/>
      </g>
     </g>
    </g>
    <g id="xtick_5">
     <g id="line2d_9">
      <path d="M 745.956135 318.04 
L 745.956135 26.88 
" clip-path="url(#p2761dcb6dd)" style="fill: none; stroke: #b0b0b0; stroke-width: 0.8; stroke-linecap: square"/>
     </g>
     <g id="line2d_10">
      <g>
       <use xlink:href="#mff95845ae4" x="745.956135" y="318.04" style="stroke: #000000; stroke-width: 0.8"/>
      </g>
     </g>
     <g id="text_5">
      <!-- 20 -->
      <g transform="translate(739.593635 332.638438) scale(0.1 -0.1)">
       <use xlink:href="#DejaVuSans-32"/>
       <use xlink:href="#DejaVuSans-30" x="63.623047"/>
      </g>
     </g>
    </g>
    <g id="text_6">
     <!-- Time Lag (s) -->
     <g transform="translate(424.287813 346.316563) scale(0.1 -0.1)">
      <defs>
       <path id="DejaVuSans-54" d="M -19 4666 
L 3928 4666 
L 3928 4134 
L 2272 4134 
L 2272 0 
L 1638 0 
L 1638 4134 
L -19 4134 
L -19 4666 
z
" transform="scale(0.015625)"/>
       <path id="DejaVuSans-69" d="M 603 3500 
L 1178 3500 
L 1178 0 
L 603 0 
L 603 3500 
z
M 603 4863 
L 1178 4863 
L 1178 4134 
L 603 4134 
L 603 4863 
z
" transform="scale(0.015625)"/>
       <path id="DejaVuSans-6d" d="M 3328 2828 
Q 3544 3216 3844 3400 
Q 4144 3584 4550 3584 
Q 5097 3584 5394 3201 
Q 5691 2819 5691 2113 
L 5691 0 
L 5113 0 
L 5113 2094 
Q 5113 2597 4934 2840 
Q 4756 3084 4391 3084 
Q 3944 3084 3684 2787 
Q 3425 2491 3425 1978 
L 3425 0 
L 2847 0 
L 2847 2094 
Q 2847 2600 2669 2842 
Q 2491 3084 2119 3084 
Q 1678 3084 1418 2786 
Q 1159 2488 1159 1978 
L 1159 0 
L 581 0 
L 581 3500 
L 1159 3500 
L 1159 2956 
Q 1356 3278 1631 3431 
Q 1906 3584 2284 3584 
Q 2666 3584 2933 3390 
Q 3200 3197 3328 2828 
z
" transform="scale(0.015625)"/>
       <path id="DejaVuSans-65" d="M 3597 1894 
L 3597 1613 
L 953 1613 
Q 991 1019 1311 708 
Q 1631 397 2203 397 
Q 2534 397 2845 478 
Q 3156 559 3463 722 
L 3463 178 
Q 3153 47 2828 -22 
Q 2503 -91 2169 -91 
Q 1331 -91 842 396 
Q 353 884 353 1716 
Q 353 2575 817 3079 
Q 1281 3584 2069 3584 
Q 2775 3584 3186 3129 
Q 3597 2675 3597 1894 
z
M 3022 2063 
Q 3016 2534 2758 2815 
Q 2500 3097 2075 3097 
Q 1594 3097 1305 2825 
Q 1016 2553 972 2059 
L 3022 2063 
z
" transform="scale(0.015625)"/>
       <path id="DejaVuSans-20" transform="scale(0.015625)"/>
       <path id="DejaVuSans-4c" d="M 628 4666 
L 1259 4666 
L 1259 531 
L 3531 531 
L 3531 0 
L 628 0 
L 628 4666 
z
" transform="scale(0.015625)"/>
       <path id="DejaVuSans-61" d="M 2194 1759 
Q 1497 1759 1228 1600 
Q 959 1441 959 1056 
Q 959 750 1161 570 
Q 1363 391 1709 391 
Q 2188 391 2477 730 
Q 2766 1069 2766 1631 
L 2766 1759 
L 2194 1759 
z
M 3341 1997 
L 3341 0 
L 2766 0 
L 2766 531 
Q 2569 213 2275 61 
Q 1981 -91 1556 -91 
Q 1019 -91 701 211 
Q 384 513 384 1019 
Q 384 1609 779 1909 
Q 1175 2209 1959 2209 
L 2766 2209 
L 2766 2266 
Q 2766 2663 2505 2880 
Q 2244 3097 1772 3097 
Q 1472 3097 1187 3025 
Q 903 2953 641 2809 
L 641 3341 
Q 956 3463 1253 3523 
Q 1550 3584 1831 3584 
Q 2591 3584 2966 3190 
Q 3341 2797 3341 1997 
z
" transform="scale(0.015625)"/>
       <path id="DejaVuSans-67" d="M 2906 1791 
Q 2906 2416 2648 2759 
Q 2391 3103 1925 3103 
Q 1463 3103 1205 2759 
Q 947 2416 947 1791 
Q 947 1169 1205 825 
Q 1463 481 1925 481 
Q 2391 481 2648 825 
Q 2906 1169 2906 1791 
z
M 3481 434 
Q 3481 -459 3084 -895 
Q 2688 -1331 1869 -1331 
Q 1566 -1331 1297 -1286 
Q 1028 -1241 775 -1147 
L 775 -588 
Q 1028 -725 1275 -790 
Q 1522 -856 1778 -856 
Q 2344 -856 2625 -561 
Q 2906 -266 2906 331 
L 2906 616 
Q 2728 306 2450 153 
Q 2172 0 1784 0 
Q 1141 0 747 490 
Q 353 981 353 1791 
Q 353 2603 747 3093 
Q 1141 3584 1784 3584 
Q 2172 3584 2450 3431 
Q 2728 3278 2906 2969 
L 2906 3500 
L 3481 3500 
L 3481 434 
z
" transform="scale(0.015625)"/>
       <path id="DejaVuSans-28" d="M 1984 4856 
Q 1566 4138 1362 3434 
Q 1159 2731 1159 2009 
Q 1159 1288 1364 580 
Q 1569 -128 1984 -844 
L 1484 -844 
Q 1016 -109 783 600 
Q 550 1309 550 2009 
Q 550 2706 781 3412 
Q 1013 4119 1484 4856 
L 1984 4856 
z
" transform="scale(0.015625)"/>
       <path id="DejaVuSans-73" d="M 2834 3397 
L 2834 2853 
Q 2591 2978 2328 3040 
Q 2066 3103 1784 3103 
Q 1356 3103 1142 2972 
Q 928 2841 928 2578 
Q 928 2378 1081 2264 
Q 1234 2150 1697 2047 
L 1894 2003 
Q 2506 1872 2764 1633 
Q 3022 1394 3022 966 
Q 3022 478 2636 193 
Q 2250 -91 1575 -91 
Q 1294 -91 989 -36 
Q 684 19 347 128 
L 347 722 
Q 666 556 975 473 
Q 1284 391 1588 391 
Q 1994 391 2212 530 
Q 2431 669 2431 922 
Q 2431 1156 2273 1281 
Q 2116 1406 1581 1522 
L 1381 1569 
Q 847 1681 609 1914 
Q 372 2147 372 2553 
Q 372 3047 722 3315 
Q 1072 3584 1716 3584 
Q 2034 3584 2315 3537 
Q 2597 3491 2834 3397 
z
" transform="scale(0.015625)"/>
       <path id="DejaVuSans-29" d="M 513 4856 
L 1013 4856 
Q 1481 4119 1714 3412 
Q 1947 2706 1947 2009 
Q 1947 1309 1714 600 
Q 1481 -109 1013 -844 
L 513 -844 
Q 928 -128 1133 580 
Q 1338 1288 1338 2009 
Q 1338 2731 1133 3434 
Q 928 4138 513 4856 
z
" transform="scale(0.015625)"/>
      </defs>
      <use xlink:href="#DejaVuSans-54"/>
      <use xlink:href="#DejaVuSans-69" x="57.958984"/>
      <use xlink:href="#DejaVuSans-6d" x="85.742188"/>
      <use xlink:href="#DejaVuSans-65" x="183.154297"/>
      <use xlink:href="#DejaVuSans-20" x="244.677734"/>
      <use xlink:href="#DejaVuSans-4c" x="276.464844"/>
      <use xlink:href="#DejaVuSans-61" x="332.177734"/>
      <use xlink:href="#DejaVuSans-67" x="393.457031"/>
      <use xlink:href="#DejaVuSans-20" x="456.933594"/>
      <use xlink:href="#DejaVuSans-28" x="488.720703"/>
      <use xlink:href="#DejaVuSans-73" x="527.734375"/>
      <use xlink:href="#DejaVuSans-29" x="579.833984"/>
     </g>
    </g>
   </g>
   <g id="matplotlib.axis_2">
    <g id="ytick_1">
     <g id="line2d_11">
      <path d="M 57.26 271.896208 
L 853.2 271.896208 
" clip-path="url(#p2761dcb6dd)" style="fill: none; stroke: #b0b0b0; stroke-width: 0.8; stroke-linecap: square"/>
     </g>
     <g id="line2d_12">
      <defs>
       <path id="mb604e4779b" d="M 0 0 
L -3.5 0 
" style="stroke: #000000; stroke-width: 0.8"/>
      </defs>
      <g>
       <use xlink:href="#mb604e4779b" x="57.26" y="271.896208" style="stroke: #000000; stroke-width: 0.8"/>
      </g>
     </g>
     <g id="text_7">
      <!-- 1000 -->
      <g transform="translate(24.81 275.695427) scale(0.1 -0.1)">
       <use xlink:href="#DejaVuSans-31"/>
       <use xlink:href="#DejaVuSans-30" x="63.623047"/>
       <use xlink:href="#DejaVuSans-30" x="127.246094"/>
       <use xlink:href="#DejaVuSans-30" x="190.869141"/>
      </g>
     </g>
    </g>
    <g id="ytick_2">
     <g id="line2d_13">
      <path d="M 57.26 220.346828 
L 853.2 220.346828 
" clip-path="url(#p2761dcb6dd)" style="fill: none; stroke: #b0b0b0; stroke-width: 0.8; stroke-linecap: square"/>
     </g>
     <g id="line2d_14">
      <g>
       <use xlink:href="#mb604e4779b" x="57.26" y="220.346828" style="stroke: #000000; stroke-width: 0.8"/>
      </g>
     </g>
     <g id="text_8">
      <!-- 1200 -->
      <g transform="translate(24.81 224.146046) scale(0.1 -0.1)">
       <use xlink:href="#DejaVuSans-31"/>
       <use xlink:href="#DejaVuSans-32" x="63.623047"/>
       <use xlink:href="#DejaVuSans-30" x="127.246094"/>
       <use xlink:href="#DejaVuSans-30" x="190.869141"/>
      </g>
     </g>
    </g>
    <g id="ytick_3">
     <g id="line2d_15">
      <path d="M 57.26 168.797447 
L 853.2 168.797447 
" clip-path="url(#p2761dcb6dd)" style="fill: none; stroke: #b0b0b0; stroke-width: 0.8; stroke-linecap: square"/>
     </g>
     <g id="line2d_16">
      <g>
       <use xlink:href="#mb604e4779b" x="57.26" y="168.797447" style="stroke: #000000; stroke-width: 0.8"/>
      </g>
     </g>
     <g id="text_9">
      <!-- 1400 -->
      <g transform="translate(24.81 172.596666) scale(0.1 -0.1)">
       <defs>
        <path id="DejaVuSans-34" d="M 2419 4116 
L 825 1625 
L 2419 1625 
L 2419 4116 
z
M 2253 4666 
L 3047 4666 
L 3047 1625 
L 3713 1625 
L 3713 1100 
L 3047 1100 
L 3047 0 
L 2419 0 
L 2419 1100 
L 313 1100 
L 313 1709 
L 2253 4666 
z
" transform="scale(0.015625)"/>
       </defs>
       <use xlink:href="#DejaVuSans-31"/>
       <use xlink:href="#DejaVuSans-34" x="63.623047"/>
       <use xlink:href="#DejaVuSans-30" x="127.246094"/>
       <use xlink:href="#DejaVuSans-30" x="190.869141"/>
      </g>
     </g>
    </g>
    <g id="ytick_4">
     <g id="line2d_17">
      <path d="M 57.26 117.248067 
L 853.2 117.248067 
" clip-path="url(#p2761dcb6dd)" style="fill: none; stroke: #b0b0b0; stroke-width: 0.8; stroke-linecap: square"/>
     </g>
     <g id="line2d_18">
      <g>
       <use xlink:href="#mb604e4779b" x="57.26" y="117.248067" style="stroke: #000000; stroke-width: 0.8"/>
      </g>
     </g>
     <g id="text_10">
      <!-- 1600 -->
      <g transform="translate(24.81 121.047285) scale(0.1 -0.1)">
       <defs>
        <path id="DejaVuSans-36" d="M 2113 2584 
Q 1688 2584 1439 2293 
Q 1191 2003 1191 1497 
Q 1191 994 1439 701 
Q 1688 409 2113 409 
Q 2538 409 2786 701 
Q 3034 994 3034 1497 
Q 3034 2003 2786 2293 
Q 2538 2584 2113 2584 
z
M 3366 4563 
L 3366 3988 
Q 3128 4100 2886 4159 
Q 2644 4219 2406 4219 
Q 1781 4219 1451 3797 
Q 1122 3375 1075 2522 
Q 1259 2794 1537 2939 
Q 1816 3084 2150 3084 
Q 2853 3084 3261 2657 
Q 3669 2231 3669 1497 
Q 3669 778 3244 343 
Q 2819 -91 2113 -91 
Q 1303 -91 875 529 
Q 447 1150 447 2328 
Q 447 3434 972 4092 
Q 1497 4750 2381 4750 
Q 2619 4750 2861 4703 
Q 3103 4656 3366 4563 
z
" transform="scale(0.015625)"/>
       </defs>
       <use xlink:href="#DejaVuSans-31"/>
       <use xlink:href="#DejaVuSans-36" x="63.623047"/>
       <use xlink:href="#DejaVuSans-30" x="127.246094"/>
       <use xlink:href="#DejaVuSans-30" x="190.869141"/>
      </g>
     </g>
    </g>
    <g id="ytick_5">
     <g id="line2d_19">
      <path d="M 57.26 65.698686 
L 853.2 65.698686 
" clip-path="url(#p2761dcb6dd)" style="fill: none; stroke: #b0b0b0; stroke-width: 0.8; stroke-linecap: square"/>
     </g>
     <g id="line2d_20">
      <g>
       <use xlink:href="#mb604e4779b" x="57.26" y="65.698686" style="stroke: #000000; stroke-width: 0.8"/>
      </g>
     </g>
     <g id="text_11">
      <!-- 1800 -->
      <g transform="translate(24.81 69.497905) scale(0.1 -0.1)">
       <defs>
        <path id="DejaVuSans-38" d="M 2034 2216 
Q 1584 2216 1326 1975 
Q 1069 1734 1069 1313 
Q 1069 891 1326 650 
Q 1584 409 2034 409 
Q 2484 409 2743 651 
Q 3003 894 3003 1313 
Q 3003 1734 2745 1975 
Q 2488 2216 2034 2216 
z
M 1403 2484 
Q 997 2584 770 2862 
Q 544 3141 544 3541 
Q 544 4100 942 4425 
Q 1341 4750 2034 4750 
Q 2731 4750 3128 4425 
Q 3525 4100 3525 3541 
Q 3525 3141 3298 2862 
Q 3072 2584 2669 2484 
Q 3125 2378 3379 2068 
Q 3634 1759 3634 1313 
Q 3634 634 3220 271 
Q 2806 -91 2034 -91 
Q 1263 -91 848 271 
Q 434 634 434 1313 
Q 434 1759 690 2068 
Q 947 2378 1403 2484 
z
M 1172 3481 
Q 1172 3119 1398 2916 
Q 1625 2713 2034 2713 
Q 2441 2713 2670 2916 
Q 2900 3119 2900 3481 
Q 2900 3844 2670 4047 
Q 2441 4250 2034 4250 
Q 1625 4250 1398 4047 
Q 1172 3844 1172 3481 
z
" transform="scale(0.015625)"/>
       </defs>
       <use xlink:href="#DejaVuSans-31"/>
       <use xlink:href="#DejaVuSans-38" x="63.623047"/>
       <use xlink:href="#DejaVuSans-30" x="127.246094"/>
       <use xlink:href="#DejaVuSans-30" x="190.869141"/>
      </g>
     </g>
    </g>
    <g id="text_12">
     <!-- Cross-correlation -->
     <g transform="translate(18.730313 214.793594) rotate(-90) scale(0.1 -0.1)">
      <defs>
       <path id="DejaVuSans-43" d="M 4122 4306 
L 4122 3641 
Q 3803 3938 3442 4084 
Q 3081 4231 2675 4231 
Q 1875 4231 1450 3742 
Q 1025 3253 1025 2328 
Q 1025 1406 1450 917 
Q 1875 428 2675 428 
Q 3081 428 3442 575 
Q 3803 722 4122 1019 
L 4122 359 
Q 3791 134 3420 21 
Q 3050 -91 2638 -91 
Q 1578 -91 968 557 
Q 359 1206 359 2328 
Q 359 3453 968 4101 
Q 1578 4750 2638 4750 
Q 3056 4750 3426 4639 
Q 3797 4528 4122 4306 
z
" transform="scale(0.015625)"/>
       <path id="DejaVuSans-72" d="M 2631 2963 
Q 2534 3019 2420 3045 
Q 2306 3072 2169 3072 
Q 1681 3072 1420 2755 
Q 1159 2438 1159 1844 
L 1159 0 
L 581 0 
L 581 3500 
L 1159 3500 
L 1159 2956 
Q 1341 3275 1631 3429 
Q 1922 3584 2338 3584 
Q 2397 3584 2469 3576 
Q 2541 3569 2628 3553 
L 2631 2963 
z
" transform="scale(0.015625)"/>
       <path id="DejaVuSans-6f" d="M 1959 3097 
Q 1497 3097 1228 2736 
Q 959 2375 959 1747 
Q 959 1119 1226 758 
Q 1494 397 1959 397 
Q 2419 397 2687 759 
Q 2956 1122 2956 1747 
Q 2956 2369 2687 2733 
Q 2419 3097 1959 3097 
z
M 1959 3584 
Q 2709 3584 3137 3096 
Q 3566 2609 3566 1747 
Q 3566 888 3137 398 
Q 2709 -91 1959 -91 
Q 1206 -91 779 398 
Q 353 888 353 1747 
Q 353 2609 779 3096 
Q 1206 3584 1959 3584 
z
" transform="scale(0.015625)"/>
       <path id="DejaVuSans-2d" d="M 313 2009 
L 1997 2009 
L 1997 1497 
L 313 1497 
L 313 2009 
z
" transform="scale(0.015625)"/>
       <path id="DejaVuSans-63" d="M 3122 3366 
L 3122 2828 
Q 2878 2963 2633 3030 
Q 2388 3097 2138 3097 
Q 1578 3097 1268 2742 
Q 959 2388 959 1747 
Q 959 1106 1268 751 
Q 1578 397 2138 397 
Q 2388 397 2633 464 
Q 2878 531 3122 666 
L 3122 134 
Q 2881 22 2623 -34 
Q 2366 -91 2075 -91 
Q 1284 -91 818 406 
Q 353 903 353 1747 
Q 353 2603 823 3093 
Q 1294 3584 2113 3584 
Q 2378 3584 2631 3529 
Q 2884 3475 3122 3366 
z
" transform="scale(0.015625)"/>
       <path id="DejaVuSans-6c" d="M 603 4863 
L 1178 4863 
L 1178 0 
L 603 0 
L 603 4863 
z
" transform="scale(0.015625)"/>
       <path id="DejaVuSans-74" d="M 1172 4494 
L 1172 3500 
L 2356 3500 
L 2356 3053 
L 1172 3053 
L 1172 1153 
Q 1172 725 1289 603 
Q 1406 481 1766 481 
L 2356 481 
L 2356 0 
L 1766 0 
Q 1100 0 847 248 
Q 594 497 594 1153 
L 594 3053 
L 172 3053 
L 172 3500 
L 594 3500 
L 594 4494 
L 1172 4494 
z
" transform="scale(0.015625)"/>
       <path id="DejaVuSans-6e" d="M 3513 2113 
L 3513 0 
L 2938 0 
L 2938 2094 
Q 2938 2591 2744 2837 
Q 2550 3084 2163 3084 
Q 1697 3084 1428 2787 
Q 1159 2491 1159 1978 
L 1159 0 
L 581 0 
L 581 3500 
L 1159 3500 
L 1159 2956 
Q 1366 3272 1645 3428 
Q 1925 3584 2291 3584 
Q 2894 3584 3203 3211 
Q 3513 2838 3513 2113 
z
" transform="scale(0.015625)"/>
      </defs>
      <use xlink:href="#DejaVuSans-43"/>
      <use xlink:href="#DejaVuSans-72" x="69.824219"/>
      <use xlink:href="#DejaVuSans-6f" x="108.6875"/>
      <use xlink:href="#DejaVuSans-73" x="169.869141"/>
      <use xlink:href="#DejaVuSans-73" x="221.96875"/>
      <use xlink:href="#DejaVuSans-2d" x="274.068359"/>
      <use xlink:href="#DejaVuSans-63" x="310.152344"/>
      <use xlink:href="#DejaVuSans-6f" x="365.132812"/>
      <use xlink:href="#DejaVuSans-72" x="426.314453"/>
      <use xlink:href="#DejaVuSans-72" x="465.677734"/>
      <use xlink:href="#DejaVuSans-65" x="504.541016"/>
      <use xlink:href="#DejaVuSans-6c" x="566.064453"/>
      <use xlink:href="#DejaVuSans-61" x="593.847656"/>
      <use xlink:href="#DejaVuSans-74" x="655.126953"/>
      <use xlink:href="#DejaVuSans-69" x="694.335938"/>
      <use xlink:href="#DejaVuSans-6f" x="722.119141"/>
      <use xlink:href="#DejaVuSans-6e" x="783.300781"/>
     </g>
    </g>
   </g>
   <g id="line2d_21">
    <path d="M 93.439091 304.197769 
L 94.747032 303.794385 
L 95.909645 303.142139 
L 97.217586 302.136944 
L 98.81618 300.617064 
L 100.560101 298.655663 
L 103.466636 295.30431 
L 104.62925 294.304398 
L 105.355883 293.950466 
L 106.227844 293.793399 
L 107.535784 293.82746 
L 109.134378 293.851693 
L 110.006339 293.641168 
L 110.587646 293.257335 
L 111.459606 292.355398 
L 112.62222 290.782498 
L 115.528755 286.679201 
L 116.546042 285.78926 
L 117.708656 285.098911 
L 119.016596 284.584671 
L 124.539012 282.706799 
L 125.701626 281.983505 
L 126.573587 281.137805 
L 127.736201 279.636247 
L 130.933389 275.273111 
L 131.660022 274.720911 
L 132.386656 274.44063 
L 133.258617 274.355883 
L 134.566557 274.49104 
L 136.019825 274.619396 
L 136.601131 274.471661 
L 137.327765 274.052311 
L 138.345052 273.149505 
L 139.652993 271.638909 
L 142.850181 267.770792 
L 144.448775 266.267119 
L 145.756716 265.314114 
L 146.91933 264.714739 
L 147.79129 264.522235 
L 149.099231 264.501772 
L 150.552498 264.446365 
L 151.424459 264.216776 
L 152.005765 263.896908 
L 152.732399 263.194824 
L 153.60436 262.007449 
L 155.202954 259.33732 
L 156.801548 256.784039 
L 157.528181 255.950073 
L 158.254815 255.420414 
L 159.126776 255.082912 
L 160.144063 254.952171 
L 162.905271 254.74713 
L 164.067885 254.26651 
L 165.375825 253.480462 
L 166.974419 252.230782 
L 168.427687 250.849135 
L 172.642162 246.394458 
L 173.368796 246.041025 
L 174.095429 245.927211 
L 175.112717 246.024276 
L 177.001964 246.277076 
L 177.873924 246.13226 
L 178.455231 245.809993 
L 179.181865 245.142588 
L 180.199152 243.866218 
L 183.541667 239.321627 
L 184.704281 238.319236 
L 186.157548 237.406139 
L 189.20941 235.857108 
L 190.808004 235.352217 
L 192.842578 234.686856 
L 193.859865 234.152429 
L 194.586499 233.489235 
L 195.603786 232.217267 
L 199.091628 227.420924 
L 199.818262 226.863866 
L 200.690222 226.470152 
L 201.998163 226.177616 
L 203.45143 225.806637 
L 204.468717 225.308548 
L 205.776658 224.379899 
L 208.973846 221.991315 
L 210.427113 221.029921 
L 212.025707 219.655913 
L 215.222896 216.786775 
L 216.094856 216.416706 
L 217.402797 216.141384 
L 219.001391 215.773106 
L 219.873351 215.401501 
L 220.599985 214.848797 
L 221.762599 213.619917 
L 223.797173 211.432905 
L 224.81446 210.67635 
L 225.831747 210.213104 
L 228.447629 209.280044 
L 229.319589 208.639273 
L 230.336876 207.593145 
L 232.662104 205.156174 
L 233.824718 204.257479 
L 234.842005 203.773119 
L 236.731253 203.065583 
L 238.039193 202.274832 
L 239.492461 201.1286 
L 243.270956 197.886335 
L 245.450857 195.97821 
L 247.921411 193.786273 
L 249.084025 193.090346 
L 250.101312 192.746058 
L 252.86252 192.073961 
L 253.879807 191.412975 
L 254.897095 190.470312 
L 256.059708 189.057022 
L 257.222322 187.64836 
L 258.530263 186.442594 
L 259.98353 185.406588 
L 261.291471 184.725119 
L 262.454085 184.109017 
L 264.779313 182.78553 
L 266.23258 182.294733 
L 268.703134 181.561507 
L 269.575095 180.981515 
L 270.447055 180.102869 
L 271.464342 178.709897 
L 273.78957 175.276377 
L 274.806857 174.263264 
L 275.533491 173.815453 
L 276.260125 173.617413 
L 276.986758 173.649859 
L 278.440026 173.847888 
L 279.747966 173.795816 
L 280.765254 173.530543 
L 281.637214 173.054702 
L 282.654501 172.205926 
L 283.962442 170.860483 
L 285.125056 169.330018 
L 286.868976 166.574589 
L 288.612897 163.91228 
L 289.484858 162.964277 
L 290.211491 162.475746 
L 290.792798 162.301673 
L 291.519432 162.342267 
L 292.246066 162.62061 
L 294.28064 163.608119 
L 295.007274 163.59195 
L 295.588581 163.370536 
L 296.169888 162.935945 
L 296.896521 162.083006 
L 297.768482 160.63837 
L 300.093709 156.390113 
L 301.256323 154.75167 
L 302.128284 153.897477 
L 302.854917 153.477176 
L 303.726878 153.249669 
L 304.889492 153.132332 
L 306.197432 153.254447 
L 307.796026 153.404372 
L 308.813314 153.241438 
L 309.539947 152.922636 
L 310.266581 152.379898 
L 311.138541 151.404994 
L 312.155828 149.866839 
L 315.353017 144.61371 
L 316.07965 143.97308 
L 316.806284 143.626933 
L 317.532918 143.561176 
L 318.259551 143.730374 
L 320.584779 144.566445 
L 321.311413 144.504397 
L 322.038047 144.243151 
L 322.76468 143.763259 
L 323.636641 142.895196 
L 324.799255 141.352757 
L 327.124482 137.915928 
L 328.723076 135.680889 
L 329.88569 134.408221 
L 330.757651 133.776812 
L 331.629611 133.45133 
L 332.501572 133.378222 
L 333.954839 133.531152 
L 335.262779 133.621416 
L 335.989413 133.377827 
L 336.716047 132.908244 
L 337.733334 131.941641 
L 339.186601 130.163956 
L 341.366502 127.405036 
L 343.69173 125.096935 
L 345.871631 123.122839 
L 346.888918 122.430906 
L 347.760879 122.092802 
L 348.632839 122.010641 
L 349.650126 122.178725 
L 351.24872 122.498664 
L 351.975354 122.320343 
L 352.701988 121.861626 
L 353.428621 121.120525 
L 354.300582 119.896932 
L 355.608523 117.590678 
L 356.62581 115.924756 
L 357.49777 114.864516 
L 358.369731 114.124613 
L 359.241691 113.67224 
L 360.258978 113.41964 
L 362.002899 113.122452 
L 368.106622 111.058451 
L 368.978582 110.323351 
L 369.850543 109.258202 
L 370.86783 107.630043 
L 372.611751 104.713463 
L 373.483711 103.693528 
L 374.210345 103.124454 
L 374.936978 102.824678 
L 375.663612 102.771626 
L 376.535572 102.952401 
L 377.407533 103.111688 
L 378.42482 103.053791 
L 379.442107 102.765395 
L 380.604721 102.186844 
L 382.784622 100.768431 
L 383.947236 99.851291 
L 384.964523 98.790007 
L 385.98181 97.404054 
L 387.144424 95.391633 
L 388.743018 92.666381 
L 389.614979 91.549193 
L 390.341612 90.924622 
L 390.922919 90.671964 
L 391.504226 90.654365 
L 392.085533 90.857681 
L 393.393474 91.723817 
L 395.282721 93.004051 
L 396.009355 93.254085 
L 396.590662 93.262179 
L 397.171969 93.079219 
L 397.898603 92.587501 
L 398.625236 91.778438 
L 399.35187 90.620527 
L 400.22383 88.80349 
L 401.677098 85.143203 
L 403.421019 80.836312 
L 404.147652 79.633845 
L 404.728959 79.066443 
L 405.164939 78.885651 
L 405.60092 78.91415 
L 406.0369 79.146184 
L 406.618207 79.756805 
L 407.344841 80.944201 
L 409.960722 85.920786 
L 410.542029 86.464256 
L 410.978009 86.637702 
L 411.413989 86.58486 
L 411.849969 86.288419 
L 412.28595 85.74188 
L 412.867256 84.639413 
L 413.59389 82.746547 
L 414.611177 79.396737 
L 417.227059 70.308715 
L 417.953692 68.701174 
L 418.534999 67.911395 
L 418.970979 67.684552 
L 419.261633 67.721574 
L 419.697613 68.055558 
L 420.133593 68.710778 
L 420.7149 70.028323 
L 421.586861 72.712377 
L 423.766762 79.884508 
L 424.348069 81.071604 
L 424.784049 81.572856 
L 425.220029 81.706145 
L 425.510683 81.581892 
L 425.946663 81.071811 
L 426.382643 80.184874 
L 426.96395 78.469874 
L 427.83591 74.983036 
L 430.742445 62.267746 
L 431.323752 60.827371 
L 431.759732 60.192809 
L 432.195712 59.969152 
L 432.486366 60.054996 
L 432.922346 60.535111 
L 433.358326 61.419575 
L 433.939633 63.157742 
L 434.811594 66.684814 
L 437.427475 78.194853 
L 438.008782 79.60112 
L 438.444762 80.129821 
L 438.735415 80.206949 
L 439.026069 80.054636 
L 439.316722 79.669509 
L 439.752703 78.656006 
L 440.33401 76.52337 
L 441.060643 72.758798 
L 442.07793 66.082855 
L 443.821851 54.587078 
L 444.548485 51.266078 
L 445.129792 49.689117 
L 445.420445 49.307736 
L 445.711099 49.209661 
L 446.001752 49.395954 
L 446.292406 49.863356 
L 446.728386 51.075515 
L 447.309693 53.564932 
L 448.036327 57.796778 
L 450.797535 75.535004 
L 451.378841 77.52899 
L 451.814822 78.286427 
L 452.105475 78.410069 
L 452.396129 78.219583 
L 452.686782 77.714128 
L 453.122762 76.377374 
L 453.704069 73.582047 
L 454.430703 68.701244 
L 455.593317 58.967799 
L 457.046584 47.263342 
L 457.773218 43.034489 
L 458.354525 40.914745 
L 458.790505 40.184879 
L 459.081159 40.131944 
L 459.371812 40.429752 
L 459.662465 41.074103 
L 460.098446 42.663244 
L 460.679753 45.831716 
L 461.406386 51.13264 
L 464.458248 75.40768 
L 465.039555 77.714165 
L 465.475535 78.592887 
L 465.766188 78.758651 
L 466.056842 78.589526 
L 466.347495 78.093665 
L 466.783476 76.768208 
L 467.364782 74.023936 
L 468.091416 69.347979 
L 470.852624 49.93437 
L 471.433931 47.640768 
L 471.869911 46.643726 
L 472.160565 46.344866 
L 472.451218 46.343776 
L 472.741872 46.639202 
L 473.177852 47.62166 
L 473.613832 49.208013 
L 474.195139 52.135368 
L 475.067099 57.791089 
L 477.247 72.722194 
L 477.973634 76.120206 
L 478.554941 77.849341 
L 478.990921 78.504932 
L 479.281575 78.626381 
L 479.572228 78.496736 
L 479.862882 78.123279 
L 480.298862 77.134419 
L 480.880169 75.116401 
L 481.752129 70.999144 
L 484.077357 59.289237 
L 484.658664 57.44862 
L 485.094644 56.590632 
L 485.530624 56.223727 
L 485.821278 56.259685 
L 486.111931 56.518944 
L 486.547912 57.314526 
L 487.129219 59.08156 
L 487.855852 62.24656 
L 489.018466 68.684062 
L 490.61706 77.382452 
L 491.343694 80.276059 
L 491.925001 81.858523 
L 492.360981 82.574589 
L 492.796961 82.878823 
L 493.087615 82.857214 
L 493.523595 82.507399 
L 493.959575 81.82917 
L 494.540882 80.507918 
L 495.558169 77.467583 
L 497.156763 72.678379 
L 497.883397 71.219496 
L 498.464704 70.581115 
L 498.900684 70.43869 
L 499.336664 70.565376 
L 499.772645 70.960577 
L 500.353952 71.888509 
L 501.080585 73.617528 
L 502.097872 76.791431 
L 504.4231 84.365826 
L 505.295061 86.489906 
L 506.021694 87.698472 
L 506.603001 88.238804 
L 507.038981 88.395016 
L 507.474962 88.354505 
L 508.056269 88.030061 
L 508.782902 87.289492 
L 509.654863 86.083523 
L 511.398783 83.515499 
L 511.98009 83.00414 
L 512.561397 82.783921 
L 512.997378 82.823958 
L 513.578684 83.151756 
L 514.159991 83.773074 
L 514.741298 84.675496 
L 515.613259 86.543037 
L 519.1011 94.790423 
L 519.973061 96.071944 
L 520.554368 96.592665 
L 521.135675 96.854102 
L 521.716982 96.890023 
L 522.443615 96.68359 
L 523.315576 96.175391 
L 526.076784 94.277332 
L 526.658091 94.226795 
L 527.239398 94.382109 
L 527.820705 94.760122 
L 528.547338 95.541963 
L 529.419299 96.899619 
L 530.581913 99.236719 
L 532.47116 103.044253 
L 533.343121 104.356744 
L 534.069754 105.119591 
L 534.796388 105.56557 
L 535.523022 105.708484 
L 536.394982 105.603593 
L 539.446843 104.887287 
L 540.173477 105.032071 
L 541.045438 105.46444 
L 541.917398 106.166386 
L 543.080012 107.443587 
L 544.823933 109.745884 
L 547.14916 112.806157 
L 548.457101 114.155315 
L 549.619715 115.041127 
L 550.637002 115.535295 
L 552.090269 115.902198 
L 554.706151 116.518899 
L 555.578111 116.983656 
L 556.450072 117.698605 
L 557.903339 119.161746 
L 561.391181 122.920551 
L 564.879022 125.586476 
L 567.785557 127.521281 
L 568.948171 127.946768 
L 570.256111 128.174923 
L 572.436013 128.521522 
L 573.307973 128.971888 
L 574.179933 129.721814 
L 575.051894 130.770176 
L 576.359834 132.742908 
L 578.539735 136.114484 
L 579.557023 137.245042 
L 580.428983 137.874657 
L 581.300943 138.218024 
L 582.318231 138.357456 
L 583.480844 138.29357 
L 585.224765 138.197078 
L 586.242052 138.375861 
L 587.25934 138.788627 
L 588.1313 139.366807 
L 589.00326 140.286779 
L 590.020548 141.728269 
L 591.473815 144.263634 
L 593.653716 148.136512 
L 594.38035 148.967786 
L 595.106983 149.446171 
L 595.68829 149.568684 
L 596.269597 149.472517 
L 596.996231 149.08766 
L 597.868191 148.333882 
L 599.030805 147.303019 
L 599.757439 146.946531 
L 600.338746 146.901455 
L 600.920053 147.104506 
L 601.50136 147.565275 
L 602.227993 148.488912 
L 603.099954 150.044114 
L 606.442469 156.677091 
L 607.314429 157.713037 
L 608.041063 158.239438 
L 608.767697 158.475005 
L 609.49433 158.445826 
L 610.366291 158.140077 
L 613.272825 156.850997 
L 613.999459 156.822822 
L 614.580766 157.006858 
L 615.162073 157.396666 
L 615.888707 158.167197 
L 616.760667 159.46123 
L 617.923281 161.65903 
L 620.248509 166.2355 
L 620.975142 167.172874 
L 621.556449 167.655152 
L 622.137756 167.883129 
L 622.719063 167.867295 
L 623.30037 167.630508 
L 624.027004 167.075136 
L 625.770925 165.548578 
L 626.497558 165.212302 
L 627.078865 165.187622 
L 627.660172 165.414445 
L 628.241479 165.898012 
L 628.968113 166.855425 
L 629.840073 168.430502 
L 632.891935 174.213543 
L 633.763895 175.246264 
L 634.490529 175.77217 
L 635.217162 176.02359 
L 636.089123 176.07041 
L 637.251737 175.858093 
L 639.140984 175.488229 
L 640.012945 175.549345 
L 640.739578 175.793338 
L 641.611539 176.344268 
L 642.483499 177.189361 
L 643.500786 178.537683 
L 644.808727 180.694364 
L 646.697975 183.82887 
L 647.569935 184.910275 
L 648.296569 185.523853 
L 649.023202 185.858301 
L 649.749836 185.917069 
L 650.47647 185.729144 
L 652.365717 185.129908 
L 653.092351 185.123632 
L 653.818985 185.355801 
L 654.545618 185.856846 
L 655.272252 186.645609 
L 656.580193 188.54482 
L 658.46944 191.249701 
L 659.486727 192.362975 
L 660.358688 193.03425 
L 661.375975 193.514378 
L 666.02643 195.496401 
L 668.787638 197.136966 
L 670.095579 198.206839 
L 671.40352 199.593819 
L 674.019401 202.468109 
L 675.036688 203.24397 
L 675.908649 203.651747 
L 676.925936 203.854901 
L 678.52453 204.204048 
L 679.541817 204.677705 
L 680.413777 205.339087 
L 681.285738 206.262359 
L 684.628253 210.224692 
L 685.64554 210.989175 
L 686.5175 211.409264 
L 687.970768 211.781819 
L 689.714688 212.344751 
L 691.313283 213.066257 
L 692.621223 213.883076 
L 694.219817 215.141433 
L 695.527758 216.42658 
L 696.981025 218.174009 
L 698.870273 220.457448 
L 699.88756 221.34652 
L 700.75952 221.835503 
L 701.631481 222.052535 
L 702.503441 222.017592 
L 703.811382 221.869059 
L 704.683342 222.003796 
L 705.409976 222.328718 
L 706.13661 222.874124 
L 707.00857 223.83423 
L 708.025857 225.365151 
L 709.915105 228.314966 
L 711.077719 229.694117 
L 711.949679 230.422788 
L 712.821639 230.85972 
L 713.838927 231.053848 
L 717.181442 231.515185 
L 718.344055 231.98505 
L 719.361343 232.64297 
L 720.523956 233.700039 
L 721.831897 235.21941 
L 723.575818 237.635521 
L 724.883759 239.335697 
L 725.901046 240.279279 
L 726.773006 240.779955 
L 727.644966 240.997077 
L 728.516927 240.94965 
L 730.406174 240.65244 
L 731.132808 240.802341 
L 731.859442 241.177345 
L 732.586076 241.787832 
L 733.458036 242.831107 
L 734.62065 244.65937 
L 736.364571 247.299122 
L 737.381858 248.448341 
L 738.253818 249.140861 
L 739.125779 249.547863 
L 740.433719 249.800329 
L 743.194927 250.228032 
L 744.502868 250.713692 
L 745.665482 251.397489 
L 746.682769 252.262604 
L 747.845383 253.553502 
L 749.29865 255.526362 
L 751.333224 258.349498 
L 752.205185 259.192071 
L 753.077145 259.725314 
L 753.803779 259.940718 
L 754.530413 259.958548 
L 757.291621 259.712467 
L 758.018254 260.011945 
L 758.744888 260.535818 
L 759.616848 261.455685 
L 760.779462 263.10089 
L 762.959363 266.140354 
L 764.121977 267.344502 
L 765.139264 268.088718 
L 766.447205 268.69877 
L 767.900472 269.138111 
L 771.824294 270.164497 
L 772.696255 270.684359 
L 773.568215 271.45207 
L 774.585502 272.637856 
L 775.893443 274.535739 
L 777.637364 277.088963 
L 778.654651 278.181341 
L 779.526611 278.800043 
L 780.398572 279.15203 
L 781.270532 279.25949 
L 783.305106 279.430945 
L 784.177067 279.727023 
L 785.049027 280.237275 
L 786.066314 281.107409 
L 787.664908 282.898305 
L 791.298077 287.070158 
L 792.896671 288.426128 
L 794.059285 289.127935 
L 795.221899 289.569636 
L 796.820493 289.928747 
L 798.419087 290.310976 
L 799.291047 290.730529 
L 800.163008 291.374866 
L 801.180295 292.400856 
L 802.488235 294.093563 
L 804.668137 296.908671 
L 805.685424 297.892027 
L 806.557384 298.478893 
L 807.429345 298.812084 
L 809.027939 299.132145 
L 811.20784 299.510898 
L 812.225127 299.959747 
L 813.387741 300.764692 
L 814.550355 301.820027 
L 816.003622 303.510948 
L 817.020909 304.805455 
L 817.020909 304.805455 
" clip-path="url(#p2761dcb6dd)" style="fill: none; stroke: #0000ff; stroke-opacity: 0.7; stroke-width: 1.5; stroke-linecap: square"/>
   </g>
   <g id="line2d_22">
    <path d="M 458.935832 318.04 
L 458.935832 26.88 
" clip-path="url(#p2761dcb6dd)" style="fill: none; stroke-dasharray: 5.55,2.4; stroke-dashoffset: 0; stroke: #ff0000; stroke-width: 1.5"/>
   </g>
   <g id="patch_3">
    <path d="M 57.26 318.04 
L 57.26 26.88 
" style="fill: none; stroke: #000000; stroke-width: 0.8; stroke-linejoin: miter; stroke-linecap: square"/>
   </g>
   <g id="patch_4">
    <path d="M 853.2 318.04 
L 853.2 26.88 
" style="fill: none; stroke: #000000; stroke-width: 0.8; stroke-linejoin: miter; stroke-linecap: square"/>
   </g>
   <g id="patch_5">
    <path d="M 57.26 318.04 
L 853.2 318.04 
" style="fill: none; stroke: #000000; stroke-width: 0.8; stroke-linejoin: miter; stroke-linecap: square"/>
   </g>
   <g id="patch_6">
    <path d="M 57.26 26.88 
L 853.2 26.88 
" style="fill: none; stroke: #000000; stroke-width: 0.8; stroke-linejoin: miter; stroke-linecap: square"/>
   </g>
   <g id="text_13">
    <!-- Cross-correlation Analysis -->
    <g transform="translate(377.802813 20.88) scale(0.12 -0.12)">
     <defs>
      <path id="DejaVuSans-41" d="M 2188 4044 
L 1331 1722 
L 3047 1722 
L 2188 4044 
z
M 1831 4666 
L 2547 4666 
L 4325 0 
L 3669 0 
L 3244 1197 
L 1141 1197 
L 716 0 
L 50 0 
L 1831 4666 
z
" transform="scale(0.015625)"/>
      <path id="DejaVuSans-79" d="M 2059 -325 
Q 1816 -950 1584 -1140 
Q 1353 -1331 966 -1331 
L 506 -1331 
L 506 -850 
L 844 -850 
Q 1081 -850 1212 -737 
Q 1344 -625 1503 -206 
L 1606 56 
L 191 3500 
L 800 3500 
L 1894 763 
L 2988 3500 
L 3597 3500 
L 2059 -325 
z
" transform="scale(0.015625)"/>
     </defs>
     <use xlink:href="#DejaVuSans-43"/>
     <use xlink:href="#DejaVuSans-72" x="69.824219"/>
     <use xlink:href="#DejaVuSans-6f" x="108.6875"/>
     <use xlink:href="#DejaVuSans-73" x="169.869141"/>
     <use xlink:href="#DejaVuSans-73" x="221.96875"/>
     <use xlink:href="#DejaVuSans-2d" x="274.068359"/>
     <use xlink:href="#DejaVuSans-63" x="310.152344"/>
     <use xlink:href="#DejaVuSans-6f" x="365.132812"/>
     <use xlink:href="#DejaVuSans-72" x="426.314453"/>
     <use xlink:href="#DejaVuSans-72" x="465.677734"/>
     <use xlink:href="#DejaVuSans-65" x="504.541016"/>
     <use xlink:href="#DejaVuSans-6c" x="566.064453"/>
     <use xlink:href="#DejaVuSans-61" x="593.847656"/>
     <use xlink:href="#DejaVuSans-74" x="655.126953"/>
     <use xlink:href="#DejaVuSans-69" x="694.335938"/>
     <use xlink:href="#DejaVuSans-6f" x="722.119141"/>
     <use xlink:href="#DejaVuSans-6e" x="783.300781"/>
     <use xlink:href="#DejaVuSans-20" x="846.679688"/>
     <use xlink:href="#DejaVuSans-41" x="878.466797"/>
     <use xlink:href="#DejaVuSans-6e" x="946.875"/>
     <use xlink:href="#DejaVuSans-61" x="1010.253906"/>
     <use xlink:href="#DejaVuSans-6c" x="1071.533203"/>
     <use xlink:href="#DejaVuSans-79" x="1099.316406"/>
     <use xlink:href="#DejaVuSans-73" x="1158.496094"/>
     <use xlink:href="#DejaVuSans-69" x="1210.595703"/>
     <use xlink:href="#DejaVuSans-73" x="1238.378906"/>
    </g>
   </g>
   <g id="legend_1">
    <g id="patch_7">
     <path d="M 647.6625 49.558125 
L 846.2 49.558125 
Q 848.2 49.558125 848.2 47.558125 
L 848.2 33.88 
Q 848.2 31.88 846.2 31.88 
L 647.6625 31.88 
Q 645.6625 31.88 645.6625 33.88 
L 645.6625 47.558125 
Q 645.6625 49.558125 647.6625 49.558125 
z
" style="fill: #ffffff; opacity: 0.8; stroke: #cccccc; stroke-linejoin: miter"/>
    </g>
    <g id="line2d_23">
     <path d="M 649.6625 39.978438 
L 659.6625 39.978438 
L 669.6625 39.978438 
" style="fill: none; stroke-dasharray: 5.55,2.4; stroke-dashoffset: 0; stroke: #ff0000; stroke-width: 1.5"/>
    </g>
    <g id="text_14">
     <!-- Best lag = 250 ms (corr = 0.381) -->
     <g transform="translate(677.6625 43.478438) scale(0.1 -0.1)">
      <defs>
       <path id="DejaVuSans-42" d="M 1259 2228 
L 1259 519 
L 2272 519 
Q 2781 519 3026 730 
Q 3272 941 3272 1375 
Q 3272 1813 3026 2020 
Q 2781 2228 2272 2228 
L 1259 2228 
z
M 1259 4147 
L 1259 2741 
L 2194 2741 
Q 2656 2741 2882 2914 
Q 3109 3088 3109 3444 
Q 3109 3797 2882 3972 
Q 2656 4147 2194 4147 
L 1259 4147 
z
M 628 4666 
L 2241 4666 
Q 2963 4666 3353 4366 
Q 3744 4066 3744 3513 
Q 3744 3084 3544 2831 
Q 3344 2578 2956 2516 
Q 3422 2416 3680 2098 
Q 3938 1781 3938 1306 
Q 3938 681 3513 340 
Q 3088 0 2303 0 
L 628 0 
L 628 4666 
z
" transform="scale(0.015625)"/>
       <path id="DejaVuSans-3d" d="M 678 2906 
L 4684 2906 
L 4684 2381 
L 678 2381 
L 678 2906 
z
M 678 1631 
L 4684 1631 
L 4684 1100 
L 678 1100 
L 678 1631 
z
" transform="scale(0.015625)"/>
       <path id="DejaVuSans-35" d="M 691 4666 
L 3169 4666 
L 3169 4134 
L 1269 4134 
L 1269 2991 
Q 1406 3038 1543 3061 
Q 1681 3084 1819 3084 
Q 2600 3084 3056 2656 
Q 3513 2228 3513 1497 
Q 3513 744 3044 326 
Q 2575 -91 1722 -91 
Q 1428 -91 1123 -41 
Q 819 9 494 109 
L 494 744 
Q 775 591 1075 516 
Q 1375 441 1709 441 
Q 2250 441 2565 725 
Q 2881 1009 2881 1497 
Q 2881 1984 2565 2268 
Q 2250 2553 1709 2553 
Q 1456 2553 1204 2497 
Q 953 2441 691 2322 
L 691 4666 
z
" transform="scale(0.015625)"/>
       <path id="DejaVuSans-2e" d="M 684 794 
L 1344 794 
L 1344 0 
L 684 0 
L 684 794 
z
" transform="scale(0.015625)"/>
       <path id="DejaVuSans-33" d="M 2597 2516 
Q 3050 2419 3304 2112 
Q 3559 1806 3559 1356 
Q 3559 666 3084 287 
Q 2609 -91 1734 -91 
Q 1441 -91 1130 -33 
Q 819 25 488 141 
L 488 750 
Q 750 597 1062 519 
Q 1375 441 1716 441 
Q 2309 441 2620 675 
Q 2931 909 2931 1356 
Q 2931 1769 2642 2001 
Q 2353 2234 1838 2234 
L 1294 2234 
L 1294 2753 
L 1863 2753 
Q 2328 2753 2575 2939 
Q 2822 3125 2822 3475 
Q 2822 3834 2567 4026 
Q 2313 4219 1838 4219 
Q 1578 4219 1281 4162 
Q 984 4106 628 3988 
L 628 4550 
Q 988 4650 1302 4700 
Q 1616 4750 1894 4750 
Q 2613 4750 3031 4423 
Q 3450 4097 3450 3541 
Q 3450 3153 3228 2886 
Q 3006 2619 2597 2516 
z
" transform="scale(0.015625)"/>
      </defs>
      <use xlink:href="#DejaVuSans-42"/>
      <use xlink:href="#DejaVuSans-65" x="68.603516"/>
      <use xlink:href="#DejaVuSans-73" x="130.126953"/>
      <use xlink:href="#DejaVuSans-74" x="182.226562"/>
      <use xlink:href="#DejaVuSans-20" x="221.435547"/>
      <use xlink:href="#DejaVuSans-6c" x="253.222656"/>
      <use xlink:href="#DejaVuSans-61" x="281.005859"/>
      <use xlink:href="#DejaVuSans-67" x="342.285156"/>
      <use xlink:href="#DejaVuSans-20" x="405.761719"/>
      <use xlink:href="#DejaVuSans-3d" x="437.548828"/>
      <use xlink:href="#DejaVuSans-20" x="521.337891"/>
      <use xlink:href="#DejaVuSans-32" x="553.125"/>
      <use xlink:href="#DejaVuSans-35" x="616.748047"/>
      <use xlink:href="#DejaVuSans-30" x="680.371094"/>
      <use xlink:href="#DejaVuSans-20" x="743.994141"/>
      <use xlink:href="#DejaVuSans-6d" x="775.78125"/>
      <use xlink:href="#DejaVuSans-73" x="873.193359"/>
      <use xlink:href="#DejaVuSans-20" x="925.292969"/>
      <use xlink:href="#DejaVuSans-28" x="957.080078"/>
      <use xlink:href="#DejaVuSans-63" x="996.09375"/>
      <use xlink:href="#DejaVuSans-6f" x="1051.074219"/>
      <use xlink:href="#DejaVuSans-72" x="1112.255859"/>
      <use xlink:href="#DejaVuSans-72" x="1151.619141"/>
      <use xlink:href="#DejaVuSans-20" x="1192.732422"/>
      <use xlink:href="#DejaVuSans-3d" x="1224.519531"/>
      <use xlink:href="#DejaVuSans-20" x="1308.308594"/>
      <use xlink:href="#DejaVuSans-30" x="1340.095703"/>
      <use xlink:href="#DejaVuSans-2e" x="1403.71875"/>
      <use xlink:href="#DejaVuSans-33" x="1435.505859"/>
      <use xlink:href="#DejaVuSans-38" x="1499.128906"/>
      <use xlink:href="#DejaVuSans-31" x="1562.751953"/>
      <use xlink:href="#DejaVuSans-29" x="1626.375"/>
     </g>
    </g>
   </g>
  </g>
 </g>
 <defs>
  <clipPath id="p2761dcb6dd">
   <rect x="57.26" y="26.88" width="795.94" height="291.16"/>
  </clipPath>
 </defs>
</svg>
