<?xml version="1.0" encoding="utf-8" standalone="no"?>
<!DOCTYPE svg PUBLIC "-//W3C//DTD SVG 1.1//EN"
  "http://www.w3.org/Graphics/SVG/1.1/DTD/svg11.dtd">
<svg xmlns:xlink="http://www.w3.org/1999/xlink" width="864pt" height="360pt" viewBox="0 0 864 360" xmlns="http://www.w3.org/2000/svg" version="1.1">
 <metadata>
  <rdf:RDF xmlns:dc="http://purl.org/dc/elements/1.1/" xmlns:cc="http://creativecommons.org/ns#" xmlns:rdf="http://www.w3.org/1999/02/22-rdf-syntax-ns#">
   <cc:Work>
    <dc:type rdf:resource="http://purl.org/dc/dcmitype/StillImage"/>
    <dc:date>2025-12-01T20:19:07.127694</dc:date>
    <dc:format>image/svg+xml</dc:format>
    <dc:creator>
     <cc:Agent>
      <dc:title>Matplotlib v3.8.4, https://matplotlib.org/</dc:title>
     </cc:Agent>
    </dc:creator>
   </cc:Work>
  </rdf:RDF>
 </metadata>
 <defs>
  <style type="text/css">*{stroke-linejoin: round; stroke-linecap: butt}</style>
 </defs>
 <g id="figure_1">
  <g id="patch_1">
   <path d="M 0 360 
L 864 360 
L 864 0 
L 0 0 
z
" style="fill: #ffffff"/>
  </g>
  <g id="axes_1">
   <g id="patch_2">
    <path d="M 57.26 318.04 
L 853.2 318.04 
L 853.2 26.88 
L 57.26 26.88 
z
" style="fill: #ffffff"/>
   </g>
   <g id="matplotlib.axis_1">
    <g id="xtick_1">
     <g id="line2d_1">
      <path d="M 159.528399 318.04 
L 159.528399 26.88 
" clip-path="url(#p6010a00076)" style="fill: none; stroke: #b0b0b0; stroke-width: 0.8; stroke-linecap: square"/>
     </g>
     <g id="line2d_2">
      <defs>
       <path id="mc3cc8bac0b" d="M 0 0 
L 0 3.5 
" style="stroke: #000000; stroke-width: 0.8"/>
      </defs>
      <g>
       <use xlink:href="#mc3cc8bac0b" x="159.528399" y="318.04" style="stroke: #000000; stroke-width: 0.8"/>
      </g>
     </g>
     <g id="text_1">
      <!-- −20 -->
      <g transform="translate(148.976055 332.638438) scale(0.1 -0.1)">
       <defs>
        <path id="DejaVuSans-2212" d="M 678 2272 
L 4684 2272 
L 4684 1741 
L 678 1741 
L 678 2272 
z
" transform="scale(0.015625)"/>
        <path id="DejaVuSans-32" d="M 1228 531 
L 3431 531 
L 3431 0 
L 469 0 
L 469 531 
Q 828 903 1448 1529 
Q 2069 2156 2228 2338 
Q 2531 2678 2651 2914 
Q 2772 3150 2772 3378 
Q 2772 3750 2511 3984 
Q 2250 4219 1831 4219 
Q 1534 4219 1204 4116 
Q 875 4013 500 3803 
L 500 4441 
Q 881 4594 1212 4672 
Q 1544 4750 1819 4750 
Q 2544 4750 2975 4387 
Q 3406 4025 3406 3419 
Q 3406 3131 3298 2873 
Q 3191 2616 2906 2266 
Q 2828 2175 2409 1742 
Q 1991 1309 1228 531 
z
" transform="scale(0.015625)"/>
        <path id="DejaVuSans-30" d="M 2034 4250 
Q 1547 4250 1301 3770 
Q 1056 3291 1056 2328 
Q 1056 1369 1301 889 
Q 1547 409 2034 409 
Q 2525 409 2770 889 
Q 3016 1369 3016 2328 
Q 3016 3291 2770 3770 
Q 2525 4250 2034 4250 
z
M 2034 4750 
Q 2819 4750 3233 4129 
Q 3647 3509 3647 2328 
Q 3647 1150 3233 529 
Q 2819 -91 2034 -91 
Q 1250 -91 836 529 
Q 422 1150 422 2328 
Q 422 3509 836 4129 
Q 1250 4750 2034 4750 
z
" transform="scale(0.015625)"/>
       </defs>
       <use xlink:href="#DejaVuSans-2212"/>
       <use xlink:href="#DejaVuSans-32" x="83.789062"/>
       <use xlink:href="#DejaVuSans-30" x="147.412109"/>
      </g>
     </g>
    </g>
    <g id="xtick_2">
     <g id="line2d_3">
      <path d="M 307.379199 318.04 
L 307.379199 26.88 
" clip-path="url(#p6010a00076)" style="fill: none; stroke: #b0b0b0; stroke-width: 0.8; stroke-linecap: square"/>
     </g>
     <g id="line2d_4">
      <g>
       <use xlink:href="#mc3cc8bac0b" x="307.379199" y="318.04" style="stroke: #000000; stroke-width: 0.8"/>
      </g>
     </g>
     <g id="text_2">
      <!-- −10 -->
      <g transform="translate(296.826856 332.638438) scale(0.1 -0.1)">
       <defs>
        <path id="DejaVuSans-31" d="M 794 531 
L 1825 531 
L 1825 4091 
L 703 3866 
L 703 4441 
L 1819 4666 
L 2450 4666 
L 2450 531 
L 3481 531 
L 3481 0 
L 794 0 
L 794 531 
z
" transform="scale(0.015625)"/>
       </defs>
       <use xlink:href="#DejaVuSans-2212"/>
       <use xlink:href="#DejaVuSans-31" x="83.789062"/>
       <use xlink:href="#DejaVuSans-30" x="147.412109"/>
      </g>
     </g>
    </g>
    <g id="xtick_3">
     <g id="line2d_5">
      <path d="M 455.23 318.04 
L 455.23 26.88 
" clip-path="url(#p6010a00076)" style="fill: none; stroke: #b0b0b0; stroke-width: 0.8; stroke-linecap: square"/>
     </g>
     <g id="line2d_6">
      <g>
       <use xlink:href="#mc3cc8bac0b" x="455.23" y="318.04" style="stroke: #000000; stroke-width: 0.8"/>
      </g>
     </g>
     <g id="text_3">
      <!-- 0 -->
      <g transform="translate(452.04875 332.638438) scale(0.1 -0.1)">
       <use xlink:href="#DejaVuSans-30"/>
      </g>
     </g>
    </g>
    <g id="xtick_4">
     <g id="line2d_7">
      <path d="M 603.080801 318.04 
L 603.080801 26.88 
" clip-path="url(#p6010a00076)" style="fill: none; stroke: #b0b0b0; stroke-width: 0.8; stroke-linecap: square"/>
     </g>
     <g id="line2d_8">
      <g>
       <use xlink:href="#mc3cc8bac0b" x="603.080801" y="318.04" style="stroke: #000000; stroke-width: 0.8"/>
      </g>
     </g>
     <g id="text_4">
      <!-- 10 -->
      <g transform="translate(596.718301 332.638438) scale(0.1 -0.1)">
       <use xlink:href="#DejaVuSans-31"/>
       <use xlink:href="#DejaVuSans-30" x="63.623047"/>
      </g>
     </g>
    </g>
    <g id="xtick_5">
     <g id="line2d_9">
      <path d="M 750.931601 318.04 
L 750.931601 26.88 
" clip-path="url(#p6010a00076)" style="fill: none; stroke: #b0b0b0; stroke-width: 0.8; stroke-linecap: square"/>
     </g>
     <g id="line2d_10">
      <g>
       <use xlink:href="#mc3cc8bac0b" x="750.931601" y="318.04" style="stroke: #000000; stroke-width: 0.8"/>
      </g>
     </g>
     <g id="text_5">
      <!-- 20 -->
      <g transform="translate(744.569101 332.638438) scale(0.1 -0.1)">
       <use xlink:href="#DejaVuSans-32"/>
       <use xlink:href="#DejaVuSans-30" x="63.623047"/>
      </g>
     </g>
    </g>
    <g id="text_6">
     <!-- Time Lag (s) -->
     <g transform="translate(424.287813 346.316563) scale(0.1 -0.1)">
      <defs>
       <path id="DejaVuSans-54" d="M -19 4666 
L 3928 4666 
L 3928 4134 
L 2272 4134 
L 2272 0 
L 1638 0 
L 1638 4134 
L -19 4134 
L -19 4666 
z
" transform="scale(0.015625)"/>
       <path id="DejaVuSans-69" d="M 603 3500 
L 1178 3500 
L 1178 0 
L 603 0 
L 603 3500 
z
M 603 4863 
L 1178 4863 
L 1178 4134 
L 603 4134 
L 603 4863 
z
" transform="scale(0.015625)"/>
       <path id="DejaVuSans-6d" d="M 3328 2828 
Q 3544 3216 3844 3400 
Q 4144 3584 4550 3584 
Q 5097 3584 5394 3201 
Q 5691 2819 5691 2113 
L 5691 0 
L 5113 0 
L 5113 2094 
Q 5113 2597 4934 2840 
Q 4756 3084 4391 3084 
Q 3944 3084 3684 2787 
Q 3425 2491 3425 1978 
L 3425 0 
L 2847 0 
L 2847 2094 
Q 2847 2600 2669 2842 
Q 2491 3084 2119 3084 
Q 1678 3084 1418 2786 
Q 1159 2488 1159 1978 
L 1159 0 
L 581 0 
L 581 3500 
L 1159 3500 
L 1159 2956 
Q 1356 3278 1631 3431 
Q 1906 3584 2284 3584 
Q 2666 3584 2933 3390 
Q 3200 3197 3328 2828 
z
" transform="scale(0.015625)"/>
       <path id="DejaVuSans-65" d="M 3597 1894 
L 3597 1613 
L 953 1613 
Q 991 1019 1311 708 
Q 1631 397 2203 397 
Q 2534 397 2845 478 
Q 3156 559 3463 722 
L 3463 178 
Q 3153 47 2828 -22 
Q 2503 -91 2169 -91 
Q 1331 -91 842 396 
Q 353 884 353 1716 
Q 353 2575 817 3079 
Q 1281 3584 2069 3584 
Q 2775 3584 3186 3129 
Q 3597 2675 3597 1894 
z
M 3022 2063 
Q 3016 2534 2758 2815 
Q 2500 3097 2075 3097 
Q 1594 3097 1305 2825 
Q 1016 2553 972 2059 
L 3022 2063 
z
" transform="scale(0.015625)"/>
       <path id="DejaVuSans-20" transform="scale(0.015625)"/>
       <path id="DejaVuSans-4c" d="M 628 4666 
L 1259 4666 
L 1259 531 
L 3531 531 
L 3531 0 
L 628 0 
L 628 4666 
z
" transform="scale(0.015625)"/>
       <path id="DejaVuSans-61" d="M 2194 1759 
Q 1497 1759 1228 1600 
Q 959 1441 959 1056 
Q 959 750 1161 570 
Q 1363 391 1709 391 
Q 2188 391 2477 730 
Q 2766 1069 2766 1631 
L 2766 1759 
L 2194 1759 
z
M 3341 1997 
L 3341 0 
L 2766 0 
L 2766 531 
Q 2569 213 2275 61 
Q 1981 -91 1556 -91 
Q 1019 -91 701 211 
Q 384 513 384 1019 
Q 384 1609 779 1909 
Q 1175 2209 1959 2209 
L 2766 2209 
L 2766 2266 
Q 2766 2663 2505 2880 
Q 2244 3097 1772 3097 
Q 1472 3097 1187 3025 
Q 903 2953 641 2809 
L 641 3341 
Q 956 3463 1253 3523 
Q 1550 3584 1831 3584 
Q 2591 3584 2966 3190 
Q 3341 2797 3341 1997 
z
" transform="scale(0.015625)"/>
       <path id="DejaVuSans-67" d="M 2906 1791 
Q 2906 2416 2648 2759 
Q 2391 3103 1925 3103 
Q 1463 3103 1205 2759 
Q 947 2416 947 1791 
Q 947 1169 1205 825 
Q 1463 481 1925 481 
Q 2391 481 2648 825 
Q 2906 1169 2906 1791 
z
M 3481 434 
Q 3481 -459 3084 -895 
Q 2688 -1331 1869 -1331 
Q 1566 -1331 1297 -1286 
Q 1028 -1241 775 -1147 
L 775 -588 
Q 1028 -725 1275 -790 
Q 1522 -856 1778 -856 
Q 2344 -856 2625 -561 
Q 2906 -266 2906 331 
L 2906 616 
Q 2728 306 2450 153 
Q 2172 0 1784 0 
Q 1141 0 747 490 
Q 353 981 353 1791 
Q 353 2603 747 3093 
Q 1141 3584 1784 3584 
Q 2172 3584 2450 3431 
Q 2728 3278 2906 2969 
L 2906 3500 
L 3481 3500 
L 3481 434 
z
" transform="scale(0.015625)"/>
       <path id="DejaVuSans-28" d="M 1984 4856 
Q 1566 4138 1362 3434 
Q 1159 2731 1159 2009 
Q 1159 1288 1364 580 
Q 1569 -128 1984 -844 
L 1484 -844 
Q 1016 -109 783 600 
Q 550 1309 550 2009 
Q 550 2706 781 3412 
Q 1013 4119 1484 4856 
L 1984 4856 
z
" transform="scale(0.015625)"/>
       <path id="DejaVuSans-73" d="M 2834 3397 
L 2834 2853 
Q 2591 2978 2328 3040 
Q 2066 3103 1784 3103 
Q 1356 3103 1142 2972 
Q 928 2841 928 2578 
Q 928 2378 1081 2264 
Q 1234 2150 1697 2047 
L 1894 2003 
Q 2506 1872 2764 1633 
Q 3022 1394 3022 966 
Q 3022 478 2636 193 
Q 2250 -91 1575 -91 
Q 1294 -91 989 -36 
Q 684 19 347 128 
L 347 722 
Q 666 556 975 473 
Q 1284 391 1588 391 
Q 1994 391 2212 530 
Q 2431 669 2431 922 
Q 2431 1156 2273 1281 
Q 2116 1406 1581 1522 
L 1381 1569 
Q 847 1681 609 1914 
Q 372 2147 372 2553 
Q 372 3047 722 3315 
Q 1072 3584 1716 3584 
Q 2034 3584 2315 3537 
Q 2597 3491 2834 3397 
z
" transform="scale(0.015625)"/>
       <path id="DejaVuSans-29" d="M 513 4856 
L 1013 4856 
Q 1481 4119 1714 3412 
Q 1947 2706 1947 2009 
Q 1947 1309 1714 600 
Q 1481 -109 1013 -844 
L 513 -844 
Q 928 -128 1133 580 
Q 1338 1288 1338 2009 
Q 1338 2731 1133 3434 
Q 928 4138 513 4856 
z
" transform="scale(0.015625)"/>
      </defs>
      <use xlink:href="#DejaVuSans-54"/>
      <use xlink:href="#DejaVuSans-69" x="57.958984"/>
      <use xlink:href="#DejaVuSans-6d" x="85.742188"/>
      <use xlink:href="#DejaVuSans-65" x="183.154297"/>
      <use xlink:href="#DejaVuSans-20" x="244.677734"/>
      <use xlink:href="#DejaVuSans-4c" x="276.464844"/>
      <use xlink:href="#DejaVuSans-61" x="332.177734"/>
      <use xlink:href="#DejaVuSans-67" x="393.457031"/>
      <use xlink:href="#DejaVuSans-20" x="456.933594"/>
      <use xlink:href="#DejaVuSans-28" x="488.720703"/>
      <use xlink:href="#DejaVuSans-73" x="527.734375"/>
      <use xlink:href="#DejaVuSans-29" x="579.833984"/>
     </g>
    </g>
   </g>
   <g id="matplotlib.axis_2">
    <g id="ytick_1">
     <g id="line2d_11">
      <path d="M 57.26 286.171048 
L 853.2 286.171048 
" clip-path="url(#p6010a00076)" style="fill: none; stroke: #b0b0b0; stroke-width: 0.8; stroke-linecap: square"/>
     </g>
     <g id="line2d_12">
      <defs>
       <path id="m326e82fe5a" d="M 0 0 
L -3.5 0 
" style="stroke: #000000; stroke-width: 0.8"/>
      </defs>
      <g>
       <use xlink:href="#m326e82fe5a" x="57.26" y="286.171048" style="stroke: #000000; stroke-width: 0.8"/>
      </g>
     </g>
     <g id="text_7">
      <!-- 600 -->
      <g transform="translate(31.1725 289.970267) scale(0.1 -0.1)">
       <defs>
        <path id="DejaVuSans-36" d="M 2113 2584 
Q 1688 2584 1439 2293 
Q 1191 2003 1191 1497 
Q 1191 994 1439 701 
Q 1688 409 2113 409 
Q 2538 409 2786 701 
Q 3034 994 3034 1497 
Q 3034 2003 2786 2293 
Q 2538 2584 2113 2584 
z
M 3366 4563 
L 3366 3988 
Q 3128 4100 2886 4159 
Q 2644 4219 2406 4219 
Q 1781 4219 1451 3797 
Q 1122 3375 1075 2522 
Q 1259 2794 1537 2939 
Q 1816 3084 2150 3084 
Q 2853 3084 3261 2657 
Q 3669 2231 3669 1497 
Q 3669 778 3244 343 
Q 2819 -91 2113 -91 
Q 1303 -91 875 529 
Q 447 1150 447 2328 
Q 447 3434 972 4092 
Q 1497 4750 2381 4750 
Q 2619 4750 2861 4703 
Q 3103 4656 3366 4563 
z
" transform="scale(0.015625)"/>
       </defs>
       <use xlink:href="#DejaVuSans-36"/>
       <use xlink:href="#DejaVuSans-30" x="63.623047"/>
       <use xlink:href="#DejaVuSans-30" x="127.246094"/>
      </g>
     </g>
    </g>
    <g id="ytick_2">
     <g id="line2d_13">
      <path d="M 57.26 246.934439 
L 853.2 246.934439 
" clip-path="url(#p6010a00076)" style="fill: none; stroke: #b0b0b0; stroke-width: 0.8; stroke-linecap: square"/>
     </g>
     <g id="line2d_14">
      <g>
       <use xlink:href="#m326e82fe5a" x="57.26" y="246.934439" style="stroke: #000000; stroke-width: 0.8"/>
      </g>
     </g>
     <g id="text_8">
      <!-- 700 -->
      <g transform="translate(31.1725 250.733658) scale(0.1 -0.1)">
       <defs>
        <path id="DejaVuSans-37" d="M 525 4666 
L 3525 4666 
L 3525 4397 
L 1831 0 
L 1172 0 
L 2766 4134 
L 525 4134 
L 525 4666 
z
" transform="scale(0.015625)"/>
       </defs>
       <use xlink:href="#DejaVuSans-37"/>
       <use xlink:href="#DejaVuSans-30" x="63.623047"/>
       <use xlink:href="#DejaVuSans-30" x="127.246094"/>
      </g>
     </g>
    </g>
    <g id="ytick_3">
     <g id="line2d_15">
      <path d="M 57.26 207.697831 
L 853.2 207.697831 
" clip-path="url(#p6010a00076)" style="fill: none; stroke: #b0b0b0; stroke-width: 0.8; stroke-linecap: square"/>
     </g>
     <g id="line2d_16">
      <g>
       <use xlink:href="#m326e82fe5a" x="57.26" y="207.697831" style="stroke: #000000; stroke-width: 0.8"/>
      </g>
     </g>
     <g id="text_9">
      <!-- 800 -->
      <g transform="translate(31.1725 211.497049) scale(0.1 -0.1)">
       <defs>
        <path id="DejaVuSans-38" d="M 2034 2216 
Q 1584 2216 1326 1975 
Q 1069 1734 1069 1313 
Q 1069 891 1326 650 
Q 1584 409 2034 409 
Q 2484 409 2743 651 
Q 3003 894 3003 1313 
Q 3003 1734 2745 1975 
Q 2488 2216 2034 2216 
z
M 1403 2484 
Q 997 2584 770 2862 
Q 544 3141 544 3541 
Q 544 4100 942 4425 
Q 1341 4750 2034 4750 
Q 2731 4750 3128 4425 
Q 3525 4100 3525 3541 
Q 3525 3141 3298 2862 
Q 3072 2584 2669 2484 
Q 3125 2378 3379 2068 
Q 3634 1759 3634 1313 
Q 3634 634 3220 271 
Q 2806 -91 2034 -91 
Q 1263 -91 848 271 
Q 434 634 434 1313 
Q 434 1759 690 2068 
Q 947 2378 1403 2484 
z
M 1172 3481 
Q 1172 3119 1398 2916 
Q 1625 2713 2034 2713 
Q 2441 2713 2670 2916 
Q 2900 3119 2900 3481 
Q 2900 3844 2670 4047 
Q 2441 4250 2034 4250 
Q 1625 4250 1398 4047 
Q 1172 3844 1172 3481 
z
" transform="scale(0.015625)"/>
       </defs>
       <use xlink:href="#DejaVuSans-38"/>
       <use xlink:href="#DejaVuSans-30" x="63.623047"/>
       <use xlink:href="#DejaVuSans-30" x="127.246094"/>
      </g>
     </g>
    </g>
    <g id="ytick_4">
     <g id="line2d_17">
      <path d="M 57.26 168.461222 
L 853.2 168.461222 
" clip-path="url(#p6010a00076)" style="fill: none; stroke: #b0b0b0; stroke-width: 0.8; stroke-linecap: square"/>
     </g>
     <g id="line2d_18">
      <g>
       <use xlink:href="#m326e82fe5a" x="57.26" y="168.461222" style="stroke: #000000; stroke-width: 0.8"/>
      </g>
     </g>
     <g id="text_10">
      <!-- 900 -->
      <g transform="translate(31.1725 172.26044) scale(0.1 -0.1)">
       <defs>
        <path id="DejaVuSans-39" d="M 703 97 
L 703 672 
Q 941 559 1184 500 
Q 1428 441 1663 441 
Q 2288 441 2617 861 
Q 2947 1281 2994 2138 
Q 2813 1869 2534 1725 
Q 2256 1581 1919 1581 
Q 1219 1581 811 2004 
Q 403 2428 403 3163 
Q 403 3881 828 4315 
Q 1253 4750 1959 4750 
Q 2769 4750 3195 4129 
Q 3622 3509 3622 2328 
Q 3622 1225 3098 567 
Q 2575 -91 1691 -91 
Q 1453 -91 1209 -44 
Q 966 3 703 97 
z
M 1959 2075 
Q 2384 2075 2632 2365 
Q 2881 2656 2881 3163 
Q 2881 3666 2632 3958 
Q 2384 4250 1959 4250 
Q 1534 4250 1286 3958 
Q 1038 3666 1038 3163 
Q 1038 2656 1286 2365 
Q 1534 2075 1959 2075 
z
" transform="scale(0.015625)"/>
       </defs>
       <use xlink:href="#DejaVuSans-39"/>
       <use xlink:href="#DejaVuSans-30" x="63.623047"/>
       <use xlink:href="#DejaVuSans-30" x="127.246094"/>
      </g>
     </g>
    </g>
    <g id="ytick_5">
     <g id="line2d_19">
      <path d="M 57.26 129.224613 
L 853.2 129.224613 
" clip-path="url(#p6010a00076)" style="fill: none; stroke: #b0b0b0; stroke-width: 0.8; stroke-linecap: square"/>
     </g>
     <g id="line2d_20">
      <g>
       <use xlink:href="#m326e82fe5a" x="57.26" y="129.224613" style="stroke: #000000; stroke-width: 0.8"/>
      </g>
     </g>
     <g id="text_11">
      <!-- 1000 -->
      <g transform="translate(24.81 133.023832) scale(0.1 -0.1)">
       <use xlink:href="#DejaVuSans-31"/>
       <use xlink:href="#DejaVuSans-30" x="63.623047"/>
       <use xlink:href="#DejaVuSans-30" x="127.246094"/>
       <use xlink:href="#DejaVuSans-30" x="190.869141"/>
      </g>
     </g>
    </g>
    <g id="ytick_6">
     <g id="line2d_21">
      <path d="M 57.26 89.988004 
L 853.2 89.988004 
" clip-path="url(#p6010a00076)" style="fill: none; stroke: #b0b0b0; stroke-width: 0.8; stroke-linecap: square"/>
     </g>
     <g id="line2d_22">
      <g>
       <use xlink:href="#m326e82fe5a" x="57.26" y="89.988004" style="stroke: #000000; stroke-width: 0.8"/>
      </g>
     </g>
     <g id="text_12">
      <!-- 1100 -->
      <g transform="translate(24.81 93.787223) scale(0.1 -0.1)">
       <use xlink:href="#DejaVuSans-31"/>
       <use xlink:href="#DejaVuSans-31" x="63.623047"/>
       <use xlink:href="#DejaVuSans-30" x="127.246094"/>
       <use xlink:href="#DejaVuSans-30" x="190.869141"/>
      </g>
     </g>
    </g>
    <g id="ytick_7">
     <g id="line2d_23">
      <path d="M 57.26 50.751395 
L 853.2 50.751395 
" clip-path="url(#p6010a00076)" style="fill: none; stroke: #b0b0b0; stroke-width: 0.8; stroke-linecap: square"/>
     </g>
     <g id="line2d_24">
      <g>
       <use xlink:href="#m326e82fe5a" x="57.26" y="50.751395" style="stroke: #000000; stroke-width: 0.8"/>
      </g>
     </g>
     <g id="text_13">
      <!-- 1200 -->
      <g transform="translate(24.81 54.550614) scale(0.1 -0.1)">
       <use xlink:href="#DejaVuSans-31"/>
       <use xlink:href="#DejaVuSans-32" x="63.623047"/>
       <use xlink:href="#DejaVuSans-30" x="127.246094"/>
       <use xlink:href="#DejaVuSans-30" x="190.869141"/>
      </g>
     </g>
    </g>
    <g id="text_14">
     <!-- Cross-correlation -->
     <g transform="translate(18.730313 214.793594) rotate(-90) scale(0.1 -0.1)">
      <defs>
       <path id="DejaVuSans-43" d="M 4122 4306 
L 4122 3641 
Q 3803 3938 3442 4084 
Q 3081 4231 2675 4231 
Q 1875 4231 1450 3742 
Q 1025 3253 1025 2328 
Q 1025 1406 1450 917 
Q 1875 428 2675 428 
Q 3081 428 3442 575 
Q 3803 722 4122 1019 
L 4122 359 
Q 3791 134 3420 21 
Q 3050 -91 2638 -91 
Q 1578 -91 968 557 
Q 359 1206 359 2328 
Q 359 3453 968 4101 
Q 1578 4750 2638 4750 
Q 3056 4750 3426 4639 
Q 3797 4528 4122 4306 
z
" transform="scale(0.015625)"/>
       <path id="DejaVuSans-72" d="M 2631 2963 
Q 2534 3019 2420 3045 
Q 2306 3072 2169 3072 
Q 1681 3072 1420 2755 
Q 1159 2438 1159 1844 
L 1159 0 
L 581 0 
L 581 3500 
L 1159 3500 
L 1159 2956 
Q 1341 3275 1631 3429 
Q 1922 3584 2338 3584 
Q 2397 3584 2469 3576 
Q 2541 3569 2628 3553 
L 2631 2963 
z
" transform="scale(0.015625)"/>
       <path id="DejaVuSans-6f" d="M 1959 3097 
Q 1497 3097 1228 2736 
Q 959 2375 959 1747 
Q 959 1119 1226 758 
Q 1494 397 1959 397 
Q 2419 397 2687 759 
Q 2956 1122 2956 1747 
Q 2956 2369 2687 2733 
Q 2419 3097 1959 3097 
z
M 1959 3584 
Q 2709 3584 3137 3096 
Q 3566 2609 3566 1747 
Q 3566 888 3137 398 
Q 2709 -91 1959 -91 
Q 1206 -91 779 398 
Q 353 888 353 1747 
Q 353 2609 779 3096 
Q 1206 3584 1959 3584 
z
" transform="scale(0.015625)"/>
       <path id="DejaVuSans-2d" d="M 313 2009 
L 1997 2009 
L 1997 1497 
L 313 1497 
L 313 2009 
z
" transform="scale(0.015625)"/>
       <path id="DejaVuSans-63" d="M 3122 3366 
L 3122 2828 
Q 2878 2963 2633 3030 
Q 2388 3097 2138 3097 
Q 1578 3097 1268 2742 
Q 959 2388 959 1747 
Q 959 1106 1268 751 
Q 1578 397 2138 397 
Q 2388 397 2633 464 
Q 2878 531 3122 666 
L 3122 134 
Q 2881 22 2623 -34 
Q 2366 -91 2075 -91 
Q 1284 -91 818 406 
Q 353 903 353 1747 
Q 353 2603 823 3093 
Q 1294 3584 2113 3584 
Q 2378 3584 2631 3529 
Q 2884 3475 3122 3366 
z
" transform="scale(0.015625)"/>
       <path id="DejaVuSans-6c" d="M 603 4863 
L 1178 4863 
L 1178 0 
L 603 0 
L 603 4863 
z
" transform="scale(0.015625)"/>
       <path id="DejaVuSans-74" d="M 1172 4494 
L 1172 3500 
L 2356 3500 
L 2356 3053 
L 1172 3053 
L 1172 1153 
Q 1172 725 1289 603 
Q 1406 481 1766 481 
L 2356 481 
L 2356 0 
L 1766 0 
Q 1100 0 847 248 
Q 594 497 594 1153 
L 594 3053 
L 172 3053 
L 172 3500 
L 594 3500 
L 594 4494 
L 1172 4494 
z
" transform="scale(0.015625)"/>
       <path id="DejaVuSans-6e" d="M 3513 2113 
L 3513 0 
L 2938 0 
L 2938 2094 
Q 2938 2591 2744 2837 
Q 2550 3084 2163 3084 
Q 1697 3084 1428 2787 
Q 1159 2491 1159 1978 
L 1159 0 
L 581 0 
L 581 3500 
L 1159 3500 
L 1159 2956 
Q 1366 3272 1645 3428 
Q 1925 3584 2291 3584 
Q 2894 3584 3203 3211 
Q 3513 2838 3513 2113 
z
" transform="scale(0.015625)"/>
      </defs>
      <use xlink:href="#DejaVuSans-43"/>
      <use xlink:href="#DejaVuSans-72" x="69.824219"/>
      <use xlink:href="#DejaVuSans-6f" x="108.6875"/>
      <use xlink:href="#DejaVuSans-73" x="169.869141"/>
      <use xlink:href="#DejaVuSans-73" x="221.96875"/>
      <use xlink:href="#DejaVuSans-2d" x="274.068359"/>
      <use xlink:href="#DejaVuSans-63" x="310.152344"/>
      <use xlink:href="#DejaVuSans-6f" x="365.132812"/>
      <use xlink:href="#DejaVuSans-72" x="426.314453"/>
      <use xlink:href="#DejaVuSans-72" x="465.677734"/>
      <use xlink:href="#DejaVuSans-65" x="504.541016"/>
      <use xlink:href="#DejaVuSans-6c" x="566.064453"/>
      <use xlink:href="#DejaVuSans-61" x="593.847656"/>
      <use xlink:href="#DejaVuSans-74" x="655.126953"/>
      <use xlink:href="#DejaVuSans-69" x="694.335938"/>
      <use xlink:href="#DejaVuSans-6f" x="722.119141"/>
      <use xlink:href="#DejaVuSans-6e" x="783.300781"/>
     </g>
    </g>
   </g>
   <g id="line2d_25">
    <path d="M 93.439091 289.09556 
L 94.769748 287.890498 
L 96.100405 287.010255 
L 97.135361 286.502435 
L 98.170317 286.27242 
L 100.831631 285.818477 
L 101.866587 285.355271 
L 102.45799 284.88667 
L 103.197244 284.011133 
L 104.232199 282.413533 
L 107.337066 277.351585 
L 107.928469 276.772681 
L 108.519873 276.453781 
L 109.111276 276.351638 
L 109.85053 276.4502 
L 110.885485 276.853018 
L 113.103247 277.842292 
L 113.842501 277.802324 
L 114.581755 277.520101 
L 115.46886 276.935177 
L 116.503816 275.976726 
L 118.130175 274.102724 
L 121.087191 270.679237 
L 122.565699 269.30073 
L 123.600654 268.563767 
L 124.487759 268.226314 
L 125.522715 268.078425 
L 128.184029 267.861327 
L 128.775432 267.647078 
L 129.366835 267.207892 
L 130.106089 266.382371 
L 131.141045 264.843959 
L 134.393763 259.559643 
L 134.985166 259.079218 
L 135.576569 258.833987 
L 136.167972 258.788838 
L 136.907226 258.956843 
L 137.794331 259.390837 
L 139.716391 260.44621 
L 140.307795 260.488239 
L 141.047049 260.290024 
L 141.786303 259.842937 
L 142.673408 259.015973 
L 143.856214 257.536439 
L 146.81323 253.672832 
L 147.996036 252.486442 
L 149.178843 251.629092 
L 150.213798 251.107124 
L 151.100903 250.954054 
L 152.43156 251.019531 
L 153.762218 251.039854 
L 154.797173 250.811235 
L 155.388576 250.525177 
L 155.97998 249.992532 
L 156.719234 249.033182 
L 157.90204 247.050591 
L 160.119802 243.226653 
L 160.859056 242.285065 
L 161.59831 241.741767 
L 162.189713 241.555738 
L 162.928967 241.566476 
L 163.963923 241.868687 
L 165.738132 242.461159 
L 166.477386 242.472781 
L 167.21664 242.273027 
L 167.955894 241.865603 
L 168.842999 241.123401 
L 170.025806 239.789757 
L 174.165628 234.826535 
L 175.052733 234.191951 
L 176.087688 233.755589 
L 176.826942 233.632998 
L 177.566196 233.772042 
L 180.227511 234.578118 
L 180.966765 234.418953 
L 181.706019 234.013755 
L 182.297422 233.418937 
L 183.036676 232.321536 
L 184.219482 230.059776 
L 185.845841 226.964182 
L 186.732946 225.693987 
L 187.4722 224.9901 
L 188.063603 224.707682 
L 188.655007 224.638811 
L 189.394261 224.781988 
L 192.203426 225.601717 
L 192.94268 225.428379 
L 193.681934 225.046636 
L 194.569039 224.299615 
L 195.603994 223.071882 
L 197.821756 219.874949 
L 200.483071 216.204414 
L 201.370175 215.456526 
L 202.109429 215.100541 
L 202.996534 214.924365 
L 203.587937 215.029272 
L 204.327191 215.427526 
L 206.397103 216.776285 
L 206.988506 216.893784 
L 207.579909 216.798113 
L 208.171312 216.478461 
L 208.762715 215.894966 
L 209.501969 214.764493 
L 210.536925 212.693976 
L 212.311135 209.144494 
L 213.050389 208.097115 
L 213.641792 207.556544 
L 214.233195 207.267235 
L 214.824598 207.204866 
L 215.563852 207.396643 
L 216.598808 207.966377 
L 217.929465 208.70264 
L 218.520868 208.834479 
L 219.260122 208.73054 
L 220.147227 208.368975 
L 220.886481 207.822723 
L 221.773586 206.843484 
L 222.808541 205.286398 
L 227.096215 198.193474 
L 227.687618 197.722322 
L 228.279021 197.517637 
L 228.870424 197.571283 
L 229.609678 197.92837 
L 230.348932 198.568931 
L 232.418843 200.580606 
L 233.010247 200.797448 
L 233.453799 200.76653 
L 233.897351 200.549559 
L 234.488755 199.959257 
L 235.228009 198.781621 
L 236.262964 196.602435 
L 238.628577 191.323571 
L 239.367831 190.253545 
L 239.959234 189.76487 
L 240.550638 189.598827 
L 241.142041 189.641016 
L 241.733444 189.886017 
L 242.472698 190.444114 
L 243.803355 191.832623 
L 244.838311 192.806933 
L 245.429714 193.12919 
L 246.168968 193.243276 
L 246.760371 193.100338 
L 247.351774 192.690472 
L 247.943178 191.987271 
L 248.682432 190.696872 
L 249.569536 188.619196 
L 252.822254 180.247707 
L 253.413657 179.444347 
L 253.85721 179.109717 
L 254.300762 179.01975 
L 254.744314 179.175541 
L 255.187867 179.57069 
L 255.77927 180.437158 
L 256.962076 182.814038 
L 258.144883 184.975297 
L 258.736286 185.709944 
L 259.327689 186.08559 
L 259.771242 186.091405 
L 260.214794 185.836631 
L 260.658346 185.308306 
L 261.24975 184.17712 
L 262.136854 181.805756 
L 263.763213 176.692495 
L 265.09387 172.745797 
L 265.980975 170.790422 
L 266.572378 169.953708 
L 267.163782 169.538118 
L 267.607334 169.475856 
L 268.050886 169.636156 
L 268.494439 170.021051 
L 269.085842 170.860867 
L 269.825096 172.349296 
L 271.007902 175.360257 
L 272.33856 178.652468 
L 272.929963 179.623793 
L 273.373515 180.031737 
L 273.817068 180.130082 
L 274.26062 179.902988 
L 274.704172 179.345352 
L 275.295576 178.092843 
L 275.886979 176.292983 
L 276.774084 172.730372 
L 279.287547 161.7648 
L 280.026801 159.741443 
L 280.618204 158.762192 
L 281.061757 158.434675 
L 281.357458 158.416084 
L 281.65316 158.557478 
L 282.096712 159.059833 
L 282.688116 160.232967 
L 283.57522 162.704345 
L 286.236535 170.662879 
L 286.827938 171.721762 
L 287.271491 172.188902 
L 287.715043 172.340498 
L 288.010745 172.25635 
L 288.454297 171.83412 
L 288.897849 171.049302 
L 289.489253 169.46353 
L 290.228507 166.705271 
L 291.263462 161.798005 
L 293.481224 150.790754 
L 294.220478 148.352754 
L 294.664031 147.458918 
L 295.107583 147.020989 
L 295.403285 146.984375 
L 295.698986 147.147697 
L 296.142539 147.752697 
L 296.586091 148.761537 
L 297.177494 150.651245 
L 298.064599 154.327019 
L 299.838809 161.964134 
L 300.578063 164.048373 
L 301.021615 164.811671 
L 301.465167 165.168261 
L 301.760869 165.168777 
L 302.056571 164.976887 
L 302.500123 164.332964 
L 302.943675 163.279207 
L 303.535079 161.298642 
L 304.422183 157.337684 
L 307.674901 141.328611 
L 308.266304 139.612035 
L 308.857707 138.563529 
L 309.30126 138.24138 
L 309.596961 138.262046 
L 309.892663 138.486408 
L 310.336215 139.18304 
L 310.927619 140.716903 
L 311.666873 143.405755 
L 314.771739 155.807987 
L 315.215292 156.645258 
L 315.658844 157.015109 
L 315.954546 156.994939 
L 316.250247 156.760061 
L 316.6938 156.014357 
L 317.285203 154.337571 
L 318.024457 151.307294 
L 319.059413 145.856919 
L 320.981473 135.394901 
L 321.720727 132.460153 
L 322.31213 130.845672 
L 322.755683 130.107569 
L 323.199235 129.787479 
L 323.494937 129.804287 
L 323.790638 129.999326 
L 324.234191 130.606222 
L 324.825594 131.934925 
L 325.564848 134.247287 
L 326.747654 138.913687 
L 328.078311 143.959483 
L 328.817565 145.956285 
L 329.408969 146.918399 
L 329.852521 147.215397 
L 330.148223 147.201222 
L 330.443924 147.017879 
L 330.887477 146.411974 
L 331.331029 145.350002 
L 331.922432 143.297974 
L 332.809537 139.17847 
L 335.766553 124.331232 
L 336.357956 122.545528 
L 336.801509 121.734654 
L 337.245061 121.379953 
L 337.540763 121.389367 
L 337.836464 121.586318 
L 338.280017 122.205069 
L 338.87142 123.546024 
L 339.610674 125.838996 
L 342.124138 134.19595 
L 342.715541 135.324244 
L 343.159093 135.810932 
L 343.602646 135.966906 
L 344.046198 135.790571 
L 344.48975 135.292876 
L 345.081154 134.168993 
L 345.820408 132.148949 
L 346.855363 128.594007 
L 349.516678 118.864416 
L 350.255932 117.07436 
L 350.847335 116.109323 
L 351.438738 115.571003 
L 351.88229 115.42796 
L 352.325843 115.543952 
L 352.769395 115.954313 
L 353.360798 116.873013 
L 354.247903 118.764882 
L 356.022113 122.694431 
L 356.761367 123.788203 
L 357.35277 124.267558 
L 357.796322 124.316035 
L 358.239875 124.075831 
L 358.683427 123.567809 
L 359.27483 122.525355 
L 360.161935 120.373757 
L 363.118951 112.520595 
L 363.858205 111.265858 
L 364.597459 110.430079 
L 365.188862 110.057781 
L 365.780266 109.914597 
L 366.51952 109.985109 
L 368.293729 110.515593 
L 370.36364 111.22784 
L 371.102894 111.181554 
L 371.842148 110.879999 
L 372.581402 110.339621 
L 373.616358 109.266593 
L 374.651314 107.713717 
L 376.425523 104.979939 
L 377.312628 104.059243 
L 378.051882 103.629238 
L 378.791136 103.477667 
L 379.678241 103.565706 
L 381.156749 103.777175 
L 381.896003 103.621291 
L 382.487406 103.276113 
L 383.078809 102.697206 
L 383.818063 101.640205 
L 386.92293 96.564974 
L 387.662184 95.82849 
L 388.253587 95.504408 
L 388.844991 95.447988 
L 389.436394 95.64771 
L 390.6192 96.291436 
L 392.836962 97.575764 
L 393.576216 97.692693 
L 394.167619 97.544512 
L 394.759023 97.138872 
L 395.498277 96.364641 
L 396.237531 95.273935 
L 397.124635 93.533657 
L 398.307442 90.621057 
L 400.525204 85.024563 
L 401.264458 83.784377 
L 401.855861 83.193495 
L 402.299413 83.015325 
L 402.742966 83.076629 
L 403.186518 83.377211 
L 403.777921 84.137141 
L 404.517175 85.59958 
L 407.17849 91.685529 
L 407.769893 92.305414 
L 408.213445 92.459887 
L 408.656998 92.316616 
L 409.10055 91.853062 
L 409.544103 91.056605 
L 410.135506 89.482566 
L 411.022611 86.2331 
L 414.423179 72.906809 
L 415.014582 71.557808 
L 415.458135 70.921846 
L 415.901687 70.638937 
L 416.345239 70.671213 
L 416.788792 71.007156 
L 417.232344 71.643915 
L 417.823747 72.94111 
L 418.563001 75.193391 
L 419.745808 79.710683 
L 421.076465 84.71294 
L 421.815719 86.684242 
L 422.259271 87.390525 
L 422.702824 87.682843 
L 422.998525 87.6307 
L 423.294227 87.3729 
L 423.737779 86.592923 
L 424.181332 85.345053 
L 424.772735 82.993811 
L 425.511989 79.08555 
L 426.694795 71.340428 
L 428.025453 62.967216 
L 428.764707 59.408614 
L 429.35611 57.422746 
L 429.799662 56.523294 
L 430.095364 56.22543 
L 430.391065 56.177815 
L 430.686767 56.383052 
L 430.982469 56.838472 
L 431.426021 57.978098 
L 432.017424 60.282804 
L 432.756678 64.095215 
L 434.087336 72.400634 
L 435.417993 80.291308 
L 436.157247 83.464879 
L 436.74865 85.027061 
L 437.192202 85.526972 
L 437.487904 85.516724 
L 437.783606 85.225853 
L 438.227158 84.267882 
L 438.67071 82.704837 
L 439.262114 79.75385 
L 440.149218 73.83191 
L 442.958384 53.315556 
L 443.549787 50.808794 
L 443.993339 49.691618 
L 444.289041 49.342273 
L 444.584742 49.319864 
L 444.880444 49.626986 
L 445.176146 50.259904 
L 445.619698 51.795295 
L 446.211101 54.83322 
L 446.950355 59.896126 
L 449.75952 80.730421 
L 450.350924 83.078577 
L 450.794476 83.978583 
L 451.090178 84.135733 
L 451.385879 83.928723 
L 451.681581 83.356519 
L 452.125133 81.826212 
L 452.716536 78.60674 
L 453.45579 72.981488 
L 454.638597 61.735194 
L 455.969254 49.306876 
L 456.708508 44.121781 
L 457.299911 41.396067 
L 457.743464 40.32894 
L 458.039165 40.114545 
L 458.334867 40.304258 
L 458.630568 40.894227 
L 459.074121 42.503282 
L 459.665524 45.879005 
L 460.404778 51.695435 
L 461.883286 65.925094 
L 463.066092 76.257385 
L 463.805346 80.809996 
L 464.39675 82.991749 
L 464.692451 83.551276 
L 464.988153 83.750305 
L 465.283854 83.591382 
L 465.579556 83.08262 
L 466.023108 81.696363 
L 466.614512 78.8109 
L 467.353766 73.89087 
L 468.832274 61.965096 
L 469.867229 54.325388 
L 470.606483 50.307471 
L 471.197886 48.296784 
L 471.641439 47.580843 
L 471.93714 47.49388 
L 472.232842 47.719832 
L 472.528544 48.254511 
L 472.972096 49.61489 
L 473.563499 52.383826 
L 474.302753 57.100237 
L 475.48556 66.367264 
L 476.964068 77.653688 
L 477.703322 81.915095 
L 478.294725 84.290244 
L 478.738277 85.380839 
L 479.033979 85.76305 
L 479.32968 85.868158 
L 479.625382 85.699461 
L 479.921084 85.252277 
L 480.364636 84.086646 
L 480.956039 81.719741 
L 481.695293 77.759401 
L 484.504459 61.383664 
L 485.095862 59.441835 
L 485.539414 58.657275 
L 485.835116 58.477733 
L 486.130817 58.577019 
L 486.426519 58.953479 
L 486.870071 60.023818 
L 487.461475 62.328446 
L 488.200729 66.396368 
L 489.235684 73.552871 
L 491.009894 85.919375 
L 491.749148 89.613357 
L 492.340551 91.584963 
L 492.784103 92.433298 
L 493.079805 92.692941 
L 493.375507 92.710823 
L 493.671208 92.493622 
L 494.114761 91.749897 
L 494.706164 90.060864 
L 495.445418 87.062454 
L 497.958881 75.862584 
L 498.550285 74.237251 
L 498.993837 73.470125 
L 499.437389 73.128721 
L 499.733091 73.147919 
L 500.028793 73.367488 
L 500.472345 74.068093 
L 501.063748 75.645628 
L 501.803002 78.401262 
L 502.985809 83.946126 
L 504.760018 92.274951 
L 505.499272 94.875325 
L 506.090675 96.334297 
L 506.682079 97.216925 
L 507.125631 97.520114 
L 507.569183 97.517661 
L 508.012736 97.225413 
L 508.604139 96.435652 
L 509.343393 94.946444 
L 512.300409 88.27607 
L 512.891812 87.604794 
L 513.335365 87.368472 
L 513.778917 87.384977 
L 514.222469 87.659947 
L 514.666022 88.190019 
L 515.257425 89.263721 
L 515.996679 91.089345 
L 517.179485 94.681674 
L 519.101546 100.647868 
L 519.8408 102.286029 
L 520.432203 103.168564 
L 521.023606 103.64841 
L 521.467159 103.750753 
L 521.910711 103.650819 
L 522.502114 103.237356 
L 523.241368 102.33697 
L 525.45913 99.26655 
L 526.050533 98.873377 
L 526.494086 98.780525 
L 526.937638 98.873808 
L 527.529041 99.285336 
L 528.120445 100.008348 
L 528.859699 101.280129 
L 530.190356 104.139349 
L 531.521013 106.868872 
L 532.408118 108.226499 
L 533.147372 108.981279 
L 533.886626 109.426479 
L 534.62588 109.585063 
L 535.365134 109.512944 
L 538.026448 109.026024 
L 538.913553 109.283292 
L 539.652807 109.714572 
L 540.392061 110.399042 
L 541.279166 111.5458 
L 543.053376 114.366342 
L 544.827585 116.957337 
L 545.71469 117.947597 
L 546.453944 118.481862 
L 547.193198 118.746783 
L 548.080303 118.793974 
L 549.263109 118.616644 
L 551.18517 118.144311 
L 551.776573 118.247372 
L 552.367976 118.567335 
L 552.959379 119.123252 
L 553.698633 120.135471 
L 554.585738 121.757746 
L 555.768544 124.508024 
L 557.394903 128.218959 
L 558.134157 129.4152 
L 558.72556 130.035765 
L 559.316964 130.343859 
L 559.760516 130.367065 
L 560.351919 130.122168 
L 560.943322 129.614227 
L 561.830427 128.506259 
L 563.456786 126.357779 
L 564.19604 125.783668 
L 564.787443 125.64142 
L 565.230996 125.748957 
L 565.674548 126.051477 
L 566.265951 126.76101 
L 566.857354 127.817232 
L 567.596608 129.583522 
L 568.779415 133.119786 
L 570.701475 138.913713 
L 571.58858 140.914867 
L 572.179983 141.830795 
L 572.771386 142.341327 
L 573.214939 142.442814 
L 573.658491 142.308242 
L 574.102044 141.95296 
L 574.693447 141.184336 
L 575.580552 139.5881 
L 577.946165 134.84175 
L 578.537568 134.227169 
L 578.98112 134.058244 
L 579.424673 134.170777 
L 579.868225 134.576811 
L 580.311777 135.272436 
L 580.903181 136.626333 
L 581.642435 138.999851 
L 582.67739 143.203469 
L 584.599451 151.131964 
L 585.338705 153.31521 
L 585.930108 154.490391 
L 586.37366 154.98863 
L 586.817213 155.128511 
L 587.260765 154.926785 
L 587.704317 154.411165 
L 588.295721 153.295689 
L 589.034975 151.374699 
L 591.548438 144.275868 
L 592.139841 143.327932 
L 592.583394 142.951864 
L 593.026946 142.88786 
L 593.470499 143.151638 
L 593.914051 143.748903 
L 594.505454 145.046298 
L 595.244708 147.381433 
L 596.279664 151.623848 
L 598.793127 162.449456 
L 599.532381 164.588419 
L 600.123785 165.666482 
L 600.567337 166.068226 
L 601.010889 166.114013 
L 601.454442 165.815298 
L 601.897994 165.199534 
L 602.489397 163.91685 
L 603.228651 161.705044 
L 605.594264 153.999691 
L 606.185667 152.865568 
L 606.62922 152.399694 
L 607.072772 152.293921 
L 607.368474 152.43028 
L 607.812026 152.983536 
L 608.255579 153.943402 
L 608.846982 155.782349 
L 609.734087 159.472476 
L 612.691103 172.984393 
L 613.282506 174.662859 
L 613.873909 175.704023 
L 614.317461 176.061125 
L 614.613163 176.100297 
L 615.056715 175.871179 
L 615.500268 175.319618 
L 616.091671 174.149294 
L 616.830925 172.147342 
L 619.64009 163.873352 
L 620.231493 162.983161 
L 620.675046 162.666079 
L 621.118598 162.676138 
L 621.562151 163.023539 
L 622.005703 163.709506 
L 622.597106 165.125485 
L 623.33636 167.591057 
L 624.371316 171.975106 
L 626.293376 180.375802 
L 627.03263 182.764151 
L 627.624034 184.081118 
L 628.067586 184.681631 
L 628.511138 184.944439 
L 628.80684 184.927069 
L 629.250392 184.600977 
L 629.693945 183.948521 
L 630.285348 182.662448 
L 631.172453 180.12796 
L 632.946662 174.857684 
L 633.685916 173.343264 
L 634.129469 172.774794 
L 634.573021 172.540343 
L 634.868723 172.576465 
L 635.312275 172.913917 
L 635.755828 173.577158 
L 636.347231 174.931019 
L 637.086485 177.262899 
L 638.269291 181.95313 
L 640.043501 189.122688 
L 640.930606 191.709586 
L 641.522009 192.859771 
L 641.965561 193.387617 
L 642.409114 193.620931 
L 642.852666 193.565093 
L 643.296218 193.232159 
L 643.887622 192.39873 
L 644.626876 190.853307 
L 647.583892 183.987382 
L 648.175295 183.397586 
L 648.618847 183.270917 
L 649.0624 183.434452 
L 649.505952 183.890902 
L 650.097355 184.939732 
L 650.688758 186.468392 
L 651.575863 189.451879 
L 654.385028 199.517831 
L 655.124282 201.154919 
L 655.715686 201.929258 
L 656.159238 202.162619 
L 656.60279 202.117174 
L 657.046343 201.820793 
L 657.637746 201.092188 
L 658.377 199.783215 
L 661.038314 194.646719 
L 661.629718 194.112784 
L 662.07327 193.970241 
L 662.516822 194.060511 
L 662.960375 194.386835 
L 663.551778 195.1818 
L 664.143181 196.358666 
L 665.030286 198.729642 
L 666.360943 203.106359 
L 667.839451 207.733325 
L 668.726556 209.757243 
L 669.317959 210.634805 
L 669.761512 211.014352 
L 670.205064 211.14829 
L 670.648616 211.04282 
L 671.092169 210.71583 
L 671.683572 209.976586 
L 672.570677 208.393291 
L 674.344887 205.016132 
L 675.084141 204.126275 
L 675.527693 203.852109 
L 675.971245 203.799137 
L 676.414798 203.974969 
L 676.85835 204.393674 
L 677.449753 205.336165 
L 678.189007 207.034042 
L 679.223963 210.056503 
L 681.441725 216.709353 
L 682.32883 218.612363 
L 682.920233 219.417649 
L 683.511636 219.840413 
L 683.955189 219.916565 
L 684.398741 219.802406 
L 684.990144 219.388122 
L 685.729398 218.533641 
L 686.912205 216.714816 
L 688.095011 214.998263 
L 688.834265 214.328249 
L 689.425668 214.111732 
L 689.869221 214.15924 
L 690.312773 214.39642 
L 690.904176 215.007587 
L 691.495579 215.937962 
L 692.382684 217.843336 
L 693.713341 221.397229 
L 695.191849 225.214804 
L 696.078954 226.9095 
L 696.818208 227.817339 
L 697.409611 228.183164 
L 697.853164 228.252352 
L 698.296716 228.138578 
L 698.888119 227.731099 
L 699.627373 226.925029 
L 701.845135 224.267437 
L 702.436539 223.884755 
L 703.027942 223.747861 
L 703.471494 223.838281 
L 703.915047 224.123448 
L 704.50645 224.790623 
L 705.245704 226.028066 
L 706.280659 228.30689 
L 709.237675 235.251702 
L 709.976929 236.32744 
L 710.568333 236.874333 
L 711.159736 237.146749 
L 711.751139 237.164453 
L 712.342542 236.961578 
L 713.081796 236.464503 
L 715.743111 234.338462 
L 716.334514 234.210751 
L 716.925917 234.292203 
L 717.51732 234.59278 
L 718.256574 235.273553 
L 718.995828 236.269222 
L 720.030784 238.085515 
L 723.135651 243.955314 
L 724.022756 245.055789 
L 724.76201 245.6478 
L 725.353413 245.85427 
L 725.944816 245.848354 
L 726.68407 245.615388 
L 729.788937 244.294456 
L 730.38034 244.374887 
L 730.971743 244.676069 
L 731.710997 245.344786 
L 732.598102 246.501801 
L 733.928759 248.67221 
L 736.146521 252.331548 
L 737.033626 253.375675 
L 737.920731 254.088256 
L 738.807836 254.496281 
L 739.69494 254.648148 
L 740.729896 254.569097 
L 743.095509 254.292724 
L 743.982614 254.451393 
L 744.869718 254.846716 
L 745.756823 255.503047 
L 746.643928 256.446237 
L 747.826734 258.066488 
L 750.340198 261.61191 
L 751.375154 262.680828 
L 752.114408 263.155095 
L 752.853662 263.390613 
L 753.740766 263.428976 
L 757.141335 263.285389 
L 758.02844 263.67021 
L 758.915544 264.315504 
L 760.098351 265.481435 
L 761.72471 267.419939 
L 764.238173 270.471494 
L 765.56883 271.761902 
L 766.603786 272.50342 
L 767.490891 272.910054 
L 768.377996 273.102467 
L 769.560802 273.106823 
L 771.187161 273.098233 
L 772.222117 273.334204 
L 772.961371 273.705597 
L 773.848475 274.448508 
L 774.883431 275.6741 
L 779.023253 281.090356 
L 780.058209 281.837416 
L 781.093165 282.295684 
L 782.423822 282.622445 
L 785.676539 283.179422 
L 786.859346 283.66082 
L 787.894301 284.307918 
L 789.077108 285.353551 
L 790.407765 286.876659 
L 792.921229 289.88632 
L 793.956184 290.752337 
L 794.843289 291.201914 
L 795.730394 291.39786 
L 798.835261 291.772072 
L 799.574515 292.120065 
L 800.461619 292.790091 
L 801.644426 294.007912 
L 805.488547 298.257691 
L 806.819204 299.200941 
L 808.149861 299.865501 
L 809.480518 300.285651 
L 811.550429 300.846604 
L 813.176788 301.467538 
L 814.359595 302.195656 
L 815.542401 303.207103 
L 817.020909 304.805455 
L 817.020909 304.805455 
" clip-path="url(#p6010a00076)" style="fill: none; stroke: #0000ff; stroke-opacity: 0.7; stroke-width: 1.5; stroke-linecap: square"/>
   </g>
   <g id="line2d_26">
    <path d="M 458.039165 318.04 
L 458.039165 26.88 
" clip-path="url(#p6010a00076)" style="fill: none; stroke-dasharray: 5.55,2.4; stroke-dashoffset: 0; stroke: #ff0000; stroke-width: 1.5"/>
   </g>
   <g id="patch_3">
    <path d="M 57.26 318.04 
L 57.26 26.88 
" style="fill: none; stroke: #000000; stroke-width: 0.8; stroke-linejoin: miter; stroke-linecap: square"/>
   </g>
   <g id="patch_4">
    <path d="M 853.2 318.04 
L 853.2 26.88 
" style="fill: none; stroke: #000000; stroke-width: 0.8; stroke-linejoin: miter; stroke-linecap: square"/>
   </g>
   <g id="patch_5">
    <path d="M 57.26 318.04 
L 853.2 318.04 
" style="fill: none; stroke: #000000; stroke-width: 0.8; stroke-linejoin: miter; stroke-linecap: square"/>
   </g>
   <g id="patch_6">
    <path d="M 57.26 26.88 
L 853.2 26.88 
" style="fill: none; stroke: #000000; stroke-width: 0.8; stroke-linejoin: miter; stroke-linecap: square"/>
   </g>
   <g id="text_15">
    <!-- Cross-correlation Analysis -->
    <g transform="translate(377.802813 20.88) scale(0.12 -0.12)">
     <defs>
      <path id="DejaVuSans-41" d="M 2188 4044 
L 1331 1722 
L 3047 1722 
L 2188 4044 
z
M 1831 4666 
L 2547 4666 
L 4325 0 
L 3669 0 
L 3244 1197 
L 1141 1197 
L 716 0 
L 50 0 
L 1831 4666 
z
" transform="scale(0.015625)"/>
      <path id="DejaVuSans-79" d="M 2059 -325 
Q 1816 -950 1584 -1140 
Q 1353 -1331 966 -1331 
L 506 -1331 
L 506 -850 
L 844 -850 
Q 1081 -850 1212 -737 
Q 1344 -625 1503 -206 
L 1606 56 
L 191 3500 
L 800 3500 
L 1894 763 
L 2988 3500 
L 3597 3500 
L 2059 -325 
z
" transform="scale(0.015625)"/>
     </defs>
     <use xlink:href="#DejaVuSans-43"/>
     <use xlink:href="#DejaVuSans-72" x="69.824219"/>
     <use xlink:href="#DejaVuSans-6f" x="108.6875"/>
     <use xlink:href="#DejaVuSans-73" x="169.869141"/>
     <use xlink:href="#DejaVuSans-73" x="221.96875"/>
     <use xlink:href="#DejaVuSans-2d" x="274.068359"/>
     <use xlink:href="#DejaVuSans-63" x="310.152344"/>
     <use xlink:href="#DejaVuSans-6f" x="365.132812"/>
     <use xlink:href="#DejaVuSans-72" x="426.314453"/>
     <use xlink:href="#DejaVuSans-72" x="465.677734"/>
     <use xlink:href="#DejaVuSans-65" x="504.541016"/>
     <use xlink:href="#DejaVuSans-6c" x="566.064453"/>
     <use xlink:href="#DejaVuSans-61" x="593.847656"/>
     <use xlink:href="#DejaVuSans-74" x="655.126953"/>
     <use xlink:href="#DejaVuSans-69" x="694.335938"/>
     <use xlink:href="#DejaVuSans-6f" x="722.119141"/>
     <use xlink:href="#DejaVuSans-6e" x="783.300781"/>
     <use xlink:href="#DejaVuSans-20" x="846.679688"/>
     <use xlink:href="#DejaVuSans-41" x="878.466797"/>
     <use xlink:href="#DejaVuSans-6e" x="946.875"/>
     <use xlink:href="#DejaVuSans-61" x="1010.253906"/>
     <use xlink:href="#DejaVuSans-6c" x="1071.533203"/>
     <use xlink:href="#DejaVuSans-79" x="1099.316406"/>
     <use xlink:href="#DejaVuSans-73" x="1158.496094"/>
     <use xlink:href="#DejaVuSans-69" x="1210.595703"/>
     <use xlink:href="#DejaVuSans-73" x="1238.378906"/>
    </g>
   </g>
   <g id="legend_1">
    <g id="patch_7">
     <path d="M 647.6625 49.558125 
L 846.2 49.558125 
Q 848.2 49.558125 848.2 47.558125 
L 848.2 33.88 
Q 848.2 31.88 846.2 31.88 
L 647.6625 31.88 
Q 645.6625 31.88 645.6625 33.88 
L 645.6625 47.558125 
Q 645.6625 49.558125 647.6625 49.558125 
z
" style="fill: #ffffff; opacity: 0.8; stroke: #cccccc; stroke-linejoin: miter"/>
    </g>
    <g id="line2d_27">
     <path d="M 649.6625 39.978438 
L 659.6625 39.978438 
L 669.6625 39.978438 
" style="fill: none; stroke-dasharray: 5.55,2.4; stroke-dashoffset: 0; stroke: #ff0000; stroke-width: 1.5"/>
    </g>
    <g id="text_16">
     <!-- Best lag = 190 ms (corr = 0.251) -->
     <g transform="translate(677.6625 43.478438) scale(0.1 -0.1)">
      <defs>
       <path id="DejaVuSans-42" d="M 1259 2228 
L 1259 519 
L 2272 519 
Q 2781 519 3026 730 
Q 3272 941 3272 1375 
Q 3272 1813 3026 2020 
Q 2781 2228 2272 2228 
L 1259 2228 
z
M 1259 4147 
L 1259 2741 
L 2194 2741 
Q 2656 2741 2882 2914 
Q 3109 3088 3109 3444 
Q 3109 3797 2882 3972 
Q 2656 4147 2194 4147 
L 1259 4147 
z
M 628 4666 
L 2241 4666 
Q 2963 4666 3353 4366 
Q 3744 4066 3744 3513 
Q 3744 3084 3544 2831 
Q 3344 2578 2956 2516 
Q 3422 2416 3680 2098 
Q 3938 1781 3938 1306 
Q 3938 681 3513 340 
Q 3088 0 2303 0 
L 628 0 
L 628 4666 
z
" transform="scale(0.015625)"/>
       <path id="DejaVuSans-3d" d="M 678 2906 
L 4684 2906 
L 4684 2381 
L 678 2381 
L 678 2906 
z
M 678 1631 
L 4684 1631 
L 4684 1100 
L 678 1100 
L 678 1631 
z
" transform="scale(0.015625)"/>
       <path id="DejaVuSans-2e" d="M 684 794 
L 1344 794 
L 1344 0 
L 684 0 
L 684 794 
z
" transform="scale(0.015625)"/>
       <path id="DejaVuSans-35" d="M 691 4666 
L 3169 4666 
L 3169 4134 
L 1269 4134 
L 1269 2991 
Q 1406 3038 1543 3061 
Q 1681 3084 1819 3084 
Q 2600 3084 3056 2656 
Q 3513 2228 3513 1497 
Q 3513 744 3044 326 
Q 2575 -91 1722 -91 
Q 1428 -91 1123 -41 
Q 819 9 494 109 
L 494 744 
Q 775 591 1075 516 
Q 1375 441 1709 441 
Q 2250 441 2565 725 
Q 2881 1009 2881 1497 
Q 2881 1984 2565 2268 
Q 2250 2553 1709 2553 
Q 1456 2553 1204 2497 
Q 953 2441 691 2322 
L 691 4666 
z
" transform="scale(0.015625)"/>
      </defs>
      <use xlink:href="#DejaVuSans-42"/>
      <use xlink:href="#DejaVuSans-65" x="68.603516"/>
      <use xlink:href="#DejaVuSans-73" x="130.126953"/>
      <use xlink:href="#DejaVuSans-74" x="182.226562"/>
      <use xlink:href="#DejaVuSans-20" x="221.435547"/>
      <use xlink:href="#DejaVuSans-6c" x="253.222656"/>
      <use xlink:href="#DejaVuSans-61" x="281.005859"/>
      <use xlink:href="#DejaVuSans-67" x="342.285156"/>
      <use xlink:href="#DejaVuSans-20" x="405.761719"/>
      <use xlink:href="#DejaVuSans-3d" x="437.548828"/>
      <use xlink:href="#DejaVuSans-20" x="521.337891"/>
      <use xlink:href="#DejaVuSans-31" x="553.125"/>
      <use xlink:href="#DejaVuSans-39" x="616.748047"/>
      <use xlink:href="#DejaVuSans-30" x="680.371094"/>
      <use xlink:href="#DejaVuSans-20" x="743.994141"/>
      <use xlink:href="#DejaVuSans-6d" x="775.78125"/>
      <use xlink:href="#DejaVuSans-73" x="873.193359"/>
      <use xlink:href="#DejaVuSans-20" x="925.292969"/>
      <use xlink:href="#DejaVuSans-28" x="957.080078"/>
      <use xlink:href="#DejaVuSans-63" x="996.09375"/>
      <use xlink:href="#DejaVuSans-6f" x="1051.074219"/>
      <use xlink:href="#DejaVuSans-72" x="1112.255859"/>
      <use xlink:href="#DejaVuSans-72" x="1151.619141"/>
      <use xlink:href="#DejaVuSans-20" x="1192.732422"/>
      <use xlink:href="#DejaVuSans-3d" x="1224.519531"/>
      <use xlink:href="#DejaVuSans-20" x="1308.308594"/>
      <use xlink:href="#DejaVuSans-30" x="1340.095703"/>
      <use xlink:href="#DejaVuSans-2e" x="1403.71875"/>
      <use xlink:href="#DejaVuSans-32" x="1435.505859"/>
      <use xlink:href="#DejaVuSans-35" x="1499.128906"/>
      <use xlink:href="#DejaVuSans-31" x="1562.751953"/>
      <use xlink:href="#DejaVuSans-29" x="1626.375"/>
     </g>
    </g>
   </g>
  </g>
 </g>
 <defs>
  <clipPath id="p6010a00076">
   <rect x="57.26" y="26.88" width="795.94" height="291.16"/>
  </clipPath>
 </defs>
</svg>
