<?xml version="1.0" encoding="utf-8" standalone="no"?>
<!DOCTYPE svg PUBLIC "-//W3C//DTD SVG 1.1//EN"
  "http://www.w3.org/Graphics/SVG/1.1/DTD/svg11.dtd">
<svg xmlns:xlink="http://www.w3.org/1999/xlink" width="864pt" height="360pt" viewBox="0 0 864 360" xmlns="http://www.w3.org/2000/svg" version="1.1">
 <metadata>
  <rdf:RDF xmlns:dc="http://purl.org/dc/elements/1.1/" xmlns:cc="http://creativecommons.org/ns#" xmlns:rdf="http://www.w3.org/1999/02/22-rdf-syntax-ns#">
   <cc:Work>
    <dc:type rdf:resource="http://purl.org/dc/dcmitype/StillImage"/>
    <dc:date>2025-12-01T21:19:29.759898</dc:date>
    <dc:format>image/svg+xml</dc:format>
    <dc:creator>
     <cc:Agent>
      <dc:title>Matplotlib v3.8.4, https://matplotlib.org/</dc:title>
     </cc:Agent>
    </dc:creator>
   </cc:Work>
  </rdf:RDF>
 </metadata>
 <defs>
  <style type="text/css">*{stroke-linejoin: round; stroke-linecap: butt}</style>
 </defs>
 <g id="figure_1">
  <g id="patch_1">
   <path d="M 0 360 
L 864 360 
L 864 0 
L 0 0 
z
" style="fill: #ffffff"/>
  </g>
  <g id="axes_1">
   <g id="patch_2">
    <path d="M 57.17 318.04 
L 853.2 318.04 
L 853.2 26.88 
L 57.17 26.88 
z
" style="fill: #ffffff"/>
   </g>
   <g id="matplotlib.axis_1">
    <g id="xtick_1">
     <g id="line2d_1">
      <path d="M 76.171224 318.04 
L 76.171224 26.88 
" clip-path="url(#pda396aed80)" style="fill: none; stroke: #b0b0b0; stroke-width: 0.8; stroke-linecap: square"/>
     </g>
     <g id="line2d_2">
      <defs>
       <path id="m1ed5fdae74" d="M 0 0 
L 0 3.5 
" style="stroke: #000000; stroke-width: 0.8"/>
      </defs>
      <g>
       <use xlink:href="#m1ed5fdae74" x="76.171224" y="318.04" style="stroke: #000000; stroke-width: 0.8"/>
      </g>
     </g>
     <g id="text_1">
      <!-- −30 -->
      <g transform="translate(65.61888 332.638438) scale(0.1 -0.1)">
       <defs>
        <path id="DejaVuSans-2212" d="M 678 2272 
L 4684 2272 
L 4684 1741 
L 678 1741 
L 678 2272 
z
" transform="scale(0.015625)"/>
        <path id="DejaVuSans-33" d="M 2597 2516 
Q 3050 2419 3304 2112 
Q 3559 1806 3559 1356 
Q 3559 666 3084 287 
Q 2609 -91 1734 -91 
Q 1441 -91 1130 -33 
Q 819 25 488 141 
L 488 750 
Q 750 597 1062 519 
Q 1375 441 1716 441 
Q 2309 441 2620 675 
Q 2931 909 2931 1356 
Q 2931 1769 2642 2001 
Q 2353 2234 1838 2234 
L 1294 2234 
L 1294 2753 
L 1863 2753 
Q 2328 2753 2575 2939 
Q 2822 3125 2822 3475 
Q 2822 3834 2567 4026 
Q 2313 4219 1838 4219 
Q 1578 4219 1281 4162 
Q 984 4106 628 3988 
L 628 4550 
Q 988 4650 1302 4700 
Q 1616 4750 1894 4750 
Q 2613 4750 3031 4423 
Q 3450 4097 3450 3541 
Q 3450 3153 3228 2886 
Q 3006 2619 2597 2516 
z
" transform="scale(0.015625)"/>
        <path id="DejaVuSans-30" d="M 2034 4250 
Q 1547 4250 1301 3770 
Q 1056 3291 1056 2328 
Q 1056 1369 1301 889 
Q 1547 409 2034 409 
Q 2525 409 2770 889 
Q 3016 1369 3016 2328 
Q 3016 3291 2770 3770 
Q 2525 4250 2034 4250 
z
M 2034 4750 
Q 2819 4750 3233 4129 
Q 3647 3509 3647 2328 
Q 3647 1150 3233 529 
Q 2819 -91 2034 -91 
Q 1250 -91 836 529 
Q 422 1150 422 2328 
Q 422 3509 836 4129 
Q 1250 4750 2034 4750 
z
" transform="scale(0.015625)"/>
       </defs>
       <use xlink:href="#DejaVuSans-2212"/>
       <use xlink:href="#DejaVuSans-33" x="83.789062"/>
       <use xlink:href="#DejaVuSans-30" x="147.412109"/>
      </g>
     </g>
    </g>
    <g id="xtick_2">
     <g id="line2d_3">
      <path d="M 202.509149 318.04 
L 202.509149 26.88 
" clip-path="url(#pda396aed80)" style="fill: none; stroke: #b0b0b0; stroke-width: 0.8; stroke-linecap: square"/>
     </g>
     <g id="line2d_4">
      <g>
       <use xlink:href="#m1ed5fdae74" x="202.509149" y="318.04" style="stroke: #000000; stroke-width: 0.8"/>
      </g>
     </g>
     <g id="text_2">
      <!-- −20 -->
      <g transform="translate(191.956806 332.638438) scale(0.1 -0.1)">
       <defs>
        <path id="DejaVuSans-32" d="M 1228 531 
L 3431 531 
L 3431 0 
L 469 0 
L 469 531 
Q 828 903 1448 1529 
Q 2069 2156 2228 2338 
Q 2531 2678 2651 2914 
Q 2772 3150 2772 3378 
Q 2772 3750 2511 3984 
Q 2250 4219 1831 4219 
Q 1534 4219 1204 4116 
Q 875 4013 500 3803 
L 500 4441 
Q 881 4594 1212 4672 
Q 1544 4750 1819 4750 
Q 2544 4750 2975 4387 
Q 3406 4025 3406 3419 
Q 3406 3131 3298 2873 
Q 3191 2616 2906 2266 
Q 2828 2175 2409 1742 
Q 1991 1309 1228 531 
z
" transform="scale(0.015625)"/>
       </defs>
       <use xlink:href="#DejaVuSans-2212"/>
       <use xlink:href="#DejaVuSans-32" x="83.789062"/>
       <use xlink:href="#DejaVuSans-30" x="147.412109"/>
      </g>
     </g>
    </g>
    <g id="xtick_3">
     <g id="line2d_5">
      <path d="M 328.847075 318.04 
L 328.847075 26.88 
" clip-path="url(#pda396aed80)" style="fill: none; stroke: #b0b0b0; stroke-width: 0.8; stroke-linecap: square"/>
     </g>
     <g id="line2d_6">
      <g>
       <use xlink:href="#m1ed5fdae74" x="328.847075" y="318.04" style="stroke: #000000; stroke-width: 0.8"/>
      </g>
     </g>
     <g id="text_3">
      <!-- −10 -->
      <g transform="translate(318.294731 332.638438) scale(0.1 -0.1)">
       <defs>
        <path id="DejaVuSans-31" d="M 794 531 
L 1825 531 
L 1825 4091 
L 703 3866 
L 703 4441 
L 1819 4666 
L 2450 4666 
L 2450 531 
L 3481 531 
L 3481 0 
L 794 0 
L 794 531 
z
" transform="scale(0.015625)"/>
       </defs>
       <use xlink:href="#DejaVuSans-2212"/>
       <use xlink:href="#DejaVuSans-31" x="83.789062"/>
       <use xlink:href="#DejaVuSans-30" x="147.412109"/>
      </g>
     </g>
    </g>
    <g id="xtick_4">
     <g id="line2d_7">
      <path d="M 455.185 318.04 
L 455.185 26.88 
" clip-path="url(#pda396aed80)" style="fill: none; stroke: #b0b0b0; stroke-width: 0.8; stroke-linecap: square"/>
     </g>
     <g id="line2d_8">
      <g>
       <use xlink:href="#m1ed5fdae74" x="455.185" y="318.04" style="stroke: #000000; stroke-width: 0.8"/>
      </g>
     </g>
     <g id="text_4">
      <!-- 0 -->
      <g transform="translate(452.00375 332.638438) scale(0.1 -0.1)">
       <use xlink:href="#DejaVuSans-30"/>
      </g>
     </g>
    </g>
    <g id="xtick_5">
     <g id="line2d_9">
      <path d="M 581.522925 318.04 
L 581.522925 26.88 
" clip-path="url(#pda396aed80)" style="fill: none; stroke: #b0b0b0; stroke-width: 0.8; stroke-linecap: square"/>
     </g>
     <g id="line2d_10">
      <g>
       <use xlink:href="#m1ed5fdae74" x="581.522925" y="318.04" style="stroke: #000000; stroke-width: 0.8"/>
      </g>
     </g>
     <g id="text_5">
      <!-- 10 -->
      <g transform="translate(575.160425 332.638438) scale(0.1 -0.1)">
       <use xlink:href="#DejaVuSans-31"/>
       <use xlink:href="#DejaVuSans-30" x="63.623047"/>
      </g>
     </g>
    </g>
    <g id="xtick_6">
     <g id="line2d_11">
      <path d="M 707.860851 318.04 
L 707.860851 26.88 
" clip-path="url(#pda396aed80)" style="fill: none; stroke: #b0b0b0; stroke-width: 0.8; stroke-linecap: square"/>
     </g>
     <g id="line2d_12">
      <g>
       <use xlink:href="#m1ed5fdae74" x="707.860851" y="318.04" style="stroke: #000000; stroke-width: 0.8"/>
      </g>
     </g>
     <g id="text_6">
      <!-- 20 -->
      <g transform="translate(701.498351 332.638438) scale(0.1 -0.1)">
       <use xlink:href="#DejaVuSans-32"/>
       <use xlink:href="#DejaVuSans-30" x="63.623047"/>
      </g>
     </g>
    </g>
    <g id="xtick_7">
     <g id="line2d_13">
      <path d="M 834.198776 318.04 
L 834.198776 26.88 
" clip-path="url(#pda396aed80)" style="fill: none; stroke: #b0b0b0; stroke-width: 0.8; stroke-linecap: square"/>
     </g>
     <g id="line2d_14">
      <g>
       <use xlink:href="#m1ed5fdae74" x="834.198776" y="318.04" style="stroke: #000000; stroke-width: 0.8"/>
      </g>
     </g>
     <g id="text_7">
      <!-- 30 -->
      <g transform="translate(827.836276 332.638438) scale(0.1 -0.1)">
       <use xlink:href="#DejaVuSans-33"/>
       <use xlink:href="#DejaVuSans-30" x="63.623047"/>
      </g>
     </g>
    </g>
    <g id="text_8">
     <!-- Time Lag (s) -->
     <g transform="translate(424.242813 346.316563) scale(0.1 -0.1)">
      <defs>
       <path id="DejaVuSans-54" d="M -19 4666 
L 3928 4666 
L 3928 4134 
L 2272 4134 
L 2272 0 
L 1638 0 
L 1638 4134 
L -19 4134 
L -19 4666 
z
" transform="scale(0.015625)"/>
       <path id="DejaVuSans-69" d="M 603 3500 
L 1178 3500 
L 1178 0 
L 603 0 
L 603 3500 
z
M 603 4863 
L 1178 4863 
L 1178 4134 
L 603 4134 
L 603 4863 
z
" transform="scale(0.015625)"/>
       <path id="DejaVuSans-6d" d="M 3328 2828 
Q 3544 3216 3844 3400 
Q 4144 3584 4550 3584 
Q 5097 3584 5394 3201 
Q 5691 2819 5691 2113 
L 5691 0 
L 5113 0 
L 5113 2094 
Q 5113 2597 4934 2840 
Q 4756 3084 4391 3084 
Q 3944 3084 3684 2787 
Q 3425 2491 3425 1978 
L 3425 0 
L 2847 0 
L 2847 2094 
Q 2847 2600 2669 2842 
Q 2491 3084 2119 3084 
Q 1678 3084 1418 2786 
Q 1159 2488 1159 1978 
L 1159 0 
L 581 0 
L 581 3500 
L 1159 3500 
L 1159 2956 
Q 1356 3278 1631 3431 
Q 1906 3584 2284 3584 
Q 2666 3584 2933 3390 
Q 3200 3197 3328 2828 
z
" transform="scale(0.015625)"/>
       <path id="DejaVuSans-65" d="M 3597 1894 
L 3597 1613 
L 953 1613 
Q 991 1019 1311 708 
Q 1631 397 2203 397 
Q 2534 397 2845 478 
Q 3156 559 3463 722 
L 3463 178 
Q 3153 47 2828 -22 
Q 2503 -91 2169 -91 
Q 1331 -91 842 396 
Q 353 884 353 1716 
Q 353 2575 817 3079 
Q 1281 3584 2069 3584 
Q 2775 3584 3186 3129 
Q 3597 2675 3597 1894 
z
M 3022 2063 
Q 3016 2534 2758 2815 
Q 2500 3097 2075 3097 
Q 1594 3097 1305 2825 
Q 1016 2553 972 2059 
L 3022 2063 
z
" transform="scale(0.015625)"/>
       <path id="DejaVuSans-20" transform="scale(0.015625)"/>
       <path id="DejaVuSans-4c" d="M 628 4666 
L 1259 4666 
L 1259 531 
L 3531 531 
L 3531 0 
L 628 0 
L 628 4666 
z
" transform="scale(0.015625)"/>
       <path id="DejaVuSans-61" d="M 2194 1759 
Q 1497 1759 1228 1600 
Q 959 1441 959 1056 
Q 959 750 1161 570 
Q 1363 391 1709 391 
Q 2188 391 2477 730 
Q 2766 1069 2766 1631 
L 2766 1759 
L 2194 1759 
z
M 3341 1997 
L 3341 0 
L 2766 0 
L 2766 531 
Q 2569 213 2275 61 
Q 1981 -91 1556 -91 
Q 1019 -91 701 211 
Q 384 513 384 1019 
Q 384 1609 779 1909 
Q 1175 2209 1959 2209 
L 2766 2209 
L 2766 2266 
Q 2766 2663 2505 2880 
Q 2244 3097 1772 3097 
Q 1472 3097 1187 3025 
Q 903 2953 641 2809 
L 641 3341 
Q 956 3463 1253 3523 
Q 1550 3584 1831 3584 
Q 2591 3584 2966 3190 
Q 3341 2797 3341 1997 
z
" transform="scale(0.015625)"/>
       <path id="DejaVuSans-67" d="M 2906 1791 
Q 2906 2416 2648 2759 
Q 2391 3103 1925 3103 
Q 1463 3103 1205 2759 
Q 947 2416 947 1791 
Q 947 1169 1205 825 
Q 1463 481 1925 481 
Q 2391 481 2648 825 
Q 2906 1169 2906 1791 
z
M 3481 434 
Q 3481 -459 3084 -895 
Q 2688 -1331 1869 -1331 
Q 1566 -1331 1297 -1286 
Q 1028 -1241 775 -1147 
L 775 -588 
Q 1028 -725 1275 -790 
Q 1522 -856 1778 -856 
Q 2344 -856 2625 -561 
Q 2906 -266 2906 331 
L 2906 616 
Q 2728 306 2450 153 
Q 2172 0 1784 0 
Q 1141 0 747 490 
Q 353 981 353 1791 
Q 353 2603 747 3093 
Q 1141 3584 1784 3584 
Q 2172 3584 2450 3431 
Q 2728 3278 2906 2969 
L 2906 3500 
L 3481 3500 
L 3481 434 
z
" transform="scale(0.015625)"/>
       <path id="DejaVuSans-28" d="M 1984 4856 
Q 1566 4138 1362 3434 
Q 1159 2731 1159 2009 
Q 1159 1288 1364 580 
Q 1569 -128 1984 -844 
L 1484 -844 
Q 1016 -109 783 600 
Q 550 1309 550 2009 
Q 550 2706 781 3412 
Q 1013 4119 1484 4856 
L 1984 4856 
z
" transform="scale(0.015625)"/>
       <path id="DejaVuSans-73" d="M 2834 3397 
L 2834 2853 
Q 2591 2978 2328 3040 
Q 2066 3103 1784 3103 
Q 1356 3103 1142 2972 
Q 928 2841 928 2578 
Q 928 2378 1081 2264 
Q 1234 2150 1697 2047 
L 1894 2003 
Q 2506 1872 2764 1633 
Q 3022 1394 3022 966 
Q 3022 478 2636 193 
Q 2250 -91 1575 -91 
Q 1294 -91 989 -36 
Q 684 19 347 128 
L 347 722 
Q 666 556 975 473 
Q 1284 391 1588 391 
Q 1994 391 2212 530 
Q 2431 669 2431 922 
Q 2431 1156 2273 1281 
Q 2116 1406 1581 1522 
L 1381 1569 
Q 847 1681 609 1914 
Q 372 2147 372 2553 
Q 372 3047 722 3315 
Q 1072 3584 1716 3584 
Q 2034 3584 2315 3537 
Q 2597 3491 2834 3397 
z
" transform="scale(0.015625)"/>
       <path id="DejaVuSans-29" d="M 513 4856 
L 1013 4856 
Q 1481 4119 1714 3412 
Q 1947 2706 1947 2009 
Q 1947 1309 1714 600 
Q 1481 -109 1013 -844 
L 513 -844 
Q 928 -128 1133 580 
Q 1338 1288 1338 2009 
Q 1338 2731 1133 3434 
Q 928 4138 513 4856 
z
" transform="scale(0.015625)"/>
      </defs>
      <use xlink:href="#DejaVuSans-54"/>
      <use xlink:href="#DejaVuSans-69" x="57.958984"/>
      <use xlink:href="#DejaVuSans-6d" x="85.742188"/>
      <use xlink:href="#DejaVuSans-65" x="183.154297"/>
      <use xlink:href="#DejaVuSans-20" x="244.677734"/>
      <use xlink:href="#DejaVuSans-4c" x="276.464844"/>
      <use xlink:href="#DejaVuSans-61" x="332.177734"/>
      <use xlink:href="#DejaVuSans-67" x="393.457031"/>
      <use xlink:href="#DejaVuSans-20" x="456.933594"/>
      <use xlink:href="#DejaVuSans-28" x="488.720703"/>
      <use xlink:href="#DejaVuSans-73" x="527.734375"/>
      <use xlink:href="#DejaVuSans-29" x="579.833984"/>
     </g>
    </g>
   </g>
   <g id="matplotlib.axis_2">
    <g id="ytick_1">
     <g id="line2d_15">
      <path d="M 57.17 287.260653 
L 853.2 287.260653 
" clip-path="url(#pda396aed80)" style="fill: none; stroke: #b0b0b0; stroke-width: 0.8; stroke-linecap: square"/>
     </g>
     <g id="line2d_16">
      <defs>
       <path id="m5995af43a6" d="M 0 0 
L -3.5 0 
" style="stroke: #000000; stroke-width: 0.8"/>
      </defs>
      <g>
       <use xlink:href="#m5995af43a6" x="57.17" y="287.260653" style="stroke: #000000; stroke-width: 0.8"/>
      </g>
     </g>
     <g id="text_9">
      <!-- 600 -->
      <g transform="translate(31.0825 291.059872) scale(0.1 -0.1)">
       <defs>
        <path id="DejaVuSans-36" d="M 2113 2584 
Q 1688 2584 1439 2293 
Q 1191 2003 1191 1497 
Q 1191 994 1439 701 
Q 1688 409 2113 409 
Q 2538 409 2786 701 
Q 3034 994 3034 1497 
Q 3034 2003 2786 2293 
Q 2538 2584 2113 2584 
z
M 3366 4563 
L 3366 3988 
Q 3128 4100 2886 4159 
Q 2644 4219 2406 4219 
Q 1781 4219 1451 3797 
Q 1122 3375 1075 2522 
Q 1259 2794 1537 2939 
Q 1816 3084 2150 3084 
Q 2853 3084 3261 2657 
Q 3669 2231 3669 1497 
Q 3669 778 3244 343 
Q 2819 -91 2113 -91 
Q 1303 -91 875 529 
Q 447 1150 447 2328 
Q 447 3434 972 4092 
Q 1497 4750 2381 4750 
Q 2619 4750 2861 4703 
Q 3103 4656 3366 4563 
z
" transform="scale(0.015625)"/>
       </defs>
       <use xlink:href="#DejaVuSans-36"/>
       <use xlink:href="#DejaVuSans-30" x="63.623047"/>
       <use xlink:href="#DejaVuSans-30" x="127.246094"/>
      </g>
     </g>
    </g>
    <g id="ytick_2">
     <g id="line2d_17">
      <path d="M 57.17 231.752851 
L 853.2 231.752851 
" clip-path="url(#pda396aed80)" style="fill: none; stroke: #b0b0b0; stroke-width: 0.8; stroke-linecap: square"/>
     </g>
     <g id="line2d_18">
      <g>
       <use xlink:href="#m5995af43a6" x="57.17" y="231.752851" style="stroke: #000000; stroke-width: 0.8"/>
      </g>
     </g>
     <g id="text_10">
      <!-- 800 -->
      <g transform="translate(31.0825 235.55207) scale(0.1 -0.1)">
       <defs>
        <path id="DejaVuSans-38" d="M 2034 2216 
Q 1584 2216 1326 1975 
Q 1069 1734 1069 1313 
Q 1069 891 1326 650 
Q 1584 409 2034 409 
Q 2484 409 2743 651 
Q 3003 894 3003 1313 
Q 3003 1734 2745 1975 
Q 2488 2216 2034 2216 
z
M 1403 2484 
Q 997 2584 770 2862 
Q 544 3141 544 3541 
Q 544 4100 942 4425 
Q 1341 4750 2034 4750 
Q 2731 4750 3128 4425 
Q 3525 4100 3525 3541 
Q 3525 3141 3298 2862 
Q 3072 2584 2669 2484 
Q 3125 2378 3379 2068 
Q 3634 1759 3634 1313 
Q 3634 634 3220 271 
Q 2806 -91 2034 -91 
Q 1263 -91 848 271 
Q 434 634 434 1313 
Q 434 1759 690 2068 
Q 947 2378 1403 2484 
z
M 1172 3481 
Q 1172 3119 1398 2916 
Q 1625 2713 2034 2713 
Q 2441 2713 2670 2916 
Q 2900 3119 2900 3481 
Q 2900 3844 2670 4047 
Q 2441 4250 2034 4250 
Q 1625 4250 1398 4047 
Q 1172 3844 1172 3481 
z
" transform="scale(0.015625)"/>
       </defs>
       <use xlink:href="#DejaVuSans-38"/>
       <use xlink:href="#DejaVuSans-30" x="63.623047"/>
       <use xlink:href="#DejaVuSans-30" x="127.246094"/>
      </g>
     </g>
    </g>
    <g id="ytick_3">
     <g id="line2d_19">
      <path d="M 57.17 176.245049 
L 853.2 176.245049 
" clip-path="url(#pda396aed80)" style="fill: none; stroke: #b0b0b0; stroke-width: 0.8; stroke-linecap: square"/>
     </g>
     <g id="line2d_20">
      <g>
       <use xlink:href="#m5995af43a6" x="57.17" y="176.245049" style="stroke: #000000; stroke-width: 0.8"/>
      </g>
     </g>
     <g id="text_11">
      <!-- 1000 -->
      <g transform="translate(24.72 180.044268) scale(0.1 -0.1)">
       <use xlink:href="#DejaVuSans-31"/>
       <use xlink:href="#DejaVuSans-30" x="63.623047"/>
       <use xlink:href="#DejaVuSans-30" x="127.246094"/>
       <use xlink:href="#DejaVuSans-30" x="190.869141"/>
      </g>
     </g>
    </g>
    <g id="ytick_4">
     <g id="line2d_21">
      <path d="M 57.17 120.737247 
L 853.2 120.737247 
" clip-path="url(#pda396aed80)" style="fill: none; stroke: #b0b0b0; stroke-width: 0.8; stroke-linecap: square"/>
     </g>
     <g id="line2d_22">
      <g>
       <use xlink:href="#m5995af43a6" x="57.17" y="120.737247" style="stroke: #000000; stroke-width: 0.8"/>
      </g>
     </g>
     <g id="text_12">
      <!-- 1200 -->
      <g transform="translate(24.72 124.536466) scale(0.1 -0.1)">
       <use xlink:href="#DejaVuSans-31"/>
       <use xlink:href="#DejaVuSans-32" x="63.623047"/>
       <use xlink:href="#DejaVuSans-30" x="127.246094"/>
       <use xlink:href="#DejaVuSans-30" x="190.869141"/>
      </g>
     </g>
    </g>
    <g id="ytick_5">
     <g id="line2d_23">
      <path d="M 57.17 65.229445 
L 853.2 65.229445 
" clip-path="url(#pda396aed80)" style="fill: none; stroke: #b0b0b0; stroke-width: 0.8; stroke-linecap: square"/>
     </g>
     <g id="line2d_24">
      <g>
       <use xlink:href="#m5995af43a6" x="57.17" y="65.229445" style="stroke: #000000; stroke-width: 0.8"/>
      </g>
     </g>
     <g id="text_13">
      <!-- 1400 -->
      <g transform="translate(24.72 69.028663) scale(0.1 -0.1)">
       <defs>
        <path id="DejaVuSans-34" d="M 2419 4116 
L 825 1625 
L 2419 1625 
L 2419 4116 
z
M 2253 4666 
L 3047 4666 
L 3047 1625 
L 3713 1625 
L 3713 1100 
L 3047 1100 
L 3047 0 
L 2419 0 
L 2419 1100 
L 313 1100 
L 313 1709 
L 2253 4666 
z
" transform="scale(0.015625)"/>
       </defs>
       <use xlink:href="#DejaVuSans-31"/>
       <use xlink:href="#DejaVuSans-34" x="63.623047"/>
       <use xlink:href="#DejaVuSans-30" x="127.246094"/>
       <use xlink:href="#DejaVuSans-30" x="190.869141"/>
      </g>
     </g>
    </g>
    <g id="text_14">
     <!-- Cross-correlation -->
     <g transform="translate(18.640312 214.793594) rotate(-90) scale(0.1 -0.1)">
      <defs>
       <path id="DejaVuSans-43" d="M 4122 4306 
L 4122 3641 
Q 3803 3938 3442 4084 
Q 3081 4231 2675 4231 
Q 1875 4231 1450 3742 
Q 1025 3253 1025 2328 
Q 1025 1406 1450 917 
Q 1875 428 2675 428 
Q 3081 428 3442 575 
Q 3803 722 4122 1019 
L 4122 359 
Q 3791 134 3420 21 
Q 3050 -91 2638 -91 
Q 1578 -91 968 557 
Q 359 1206 359 2328 
Q 359 3453 968 4101 
Q 1578 4750 2638 4750 
Q 3056 4750 3426 4639 
Q 3797 4528 4122 4306 
z
" transform="scale(0.015625)"/>
       <path id="DejaVuSans-72" d="M 2631 2963 
Q 2534 3019 2420 3045 
Q 2306 3072 2169 3072 
Q 1681 3072 1420 2755 
Q 1159 2438 1159 1844 
L 1159 0 
L 581 0 
L 581 3500 
L 1159 3500 
L 1159 2956 
Q 1341 3275 1631 3429 
Q 1922 3584 2338 3584 
Q 2397 3584 2469 3576 
Q 2541 3569 2628 3553 
L 2631 2963 
z
" transform="scale(0.015625)"/>
       <path id="DejaVuSans-6f" d="M 1959 3097 
Q 1497 3097 1228 2736 
Q 959 2375 959 1747 
Q 959 1119 1226 758 
Q 1494 397 1959 397 
Q 2419 397 2687 759 
Q 2956 1122 2956 1747 
Q 2956 2369 2687 2733 
Q 2419 3097 1959 3097 
z
M 1959 3584 
Q 2709 3584 3137 3096 
Q 3566 2609 3566 1747 
Q 3566 888 3137 398 
Q 2709 -91 1959 -91 
Q 1206 -91 779 398 
Q 353 888 353 1747 
Q 353 2609 779 3096 
Q 1206 3584 1959 3584 
z
" transform="scale(0.015625)"/>
       <path id="DejaVuSans-2d" d="M 313 2009 
L 1997 2009 
L 1997 1497 
L 313 1497 
L 313 2009 
z
" transform="scale(0.015625)"/>
       <path id="DejaVuSans-63" d="M 3122 3366 
L 3122 2828 
Q 2878 2963 2633 3030 
Q 2388 3097 2138 3097 
Q 1578 3097 1268 2742 
Q 959 2388 959 1747 
Q 959 1106 1268 751 
Q 1578 397 2138 397 
Q 2388 397 2633 464 
Q 2878 531 3122 666 
L 3122 134 
Q 2881 22 2623 -34 
Q 2366 -91 2075 -91 
Q 1284 -91 818 406 
Q 353 903 353 1747 
Q 353 2603 823 3093 
Q 1294 3584 2113 3584 
Q 2378 3584 2631 3529 
Q 2884 3475 3122 3366 
z
" transform="scale(0.015625)"/>
       <path id="DejaVuSans-6c" d="M 603 4863 
L 1178 4863 
L 1178 0 
L 603 0 
L 603 4863 
z
" transform="scale(0.015625)"/>
       <path id="DejaVuSans-74" d="M 1172 4494 
L 1172 3500 
L 2356 3500 
L 2356 3053 
L 1172 3053 
L 1172 1153 
Q 1172 725 1289 603 
Q 1406 481 1766 481 
L 2356 481 
L 2356 0 
L 1766 0 
Q 1100 0 847 248 
Q 594 497 594 1153 
L 594 3053 
L 172 3053 
L 172 3500 
L 594 3500 
L 594 4494 
L 1172 4494 
z
" transform="scale(0.015625)"/>
       <path id="DejaVuSans-6e" d="M 3513 2113 
L 3513 0 
L 2938 0 
L 2938 2094 
Q 2938 2591 2744 2837 
Q 2550 3084 2163 3084 
Q 1697 3084 1428 2787 
Q 1159 2491 1159 1978 
L 1159 0 
L 581 0 
L 581 3500 
L 1159 3500 
L 1159 2956 
Q 1366 3272 1645 3428 
Q 1925 3584 2291 3584 
Q 2894 3584 3203 3211 
Q 3513 2838 3513 2113 
z
" transform="scale(0.015625)"/>
      </defs>
      <use xlink:href="#DejaVuSans-43"/>
      <use xlink:href="#DejaVuSans-72" x="69.824219"/>
      <use xlink:href="#DejaVuSans-6f" x="108.6875"/>
      <use xlink:href="#DejaVuSans-73" x="169.869141"/>
      <use xlink:href="#DejaVuSans-73" x="221.96875"/>
      <use xlink:href="#DejaVuSans-2d" x="274.068359"/>
      <use xlink:href="#DejaVuSans-63" x="310.152344"/>
      <use xlink:href="#DejaVuSans-6f" x="365.132812"/>
      <use xlink:href="#DejaVuSans-72" x="426.314453"/>
      <use xlink:href="#DejaVuSans-72" x="465.677734"/>
      <use xlink:href="#DejaVuSans-65" x="504.541016"/>
      <use xlink:href="#DejaVuSans-6c" x="566.064453"/>
      <use xlink:href="#DejaVuSans-61" x="593.847656"/>
      <use xlink:href="#DejaVuSans-74" x="655.126953"/>
      <use xlink:href="#DejaVuSans-69" x="694.335938"/>
      <use xlink:href="#DejaVuSans-6f" x="722.119141"/>
      <use xlink:href="#DejaVuSans-6e" x="783.300781"/>
     </g>
    </g>
   </g>
   <g id="line2d_25">
    <path d="M 93.353182 250.735554 
L 93.732196 250.758476 
L 94.111209 250.53186 
L 94.490223 250.050949 
L 94.995575 249.025849 
L 95.627264 247.170878 
L 96.385292 244.220737 
L 97.901347 237.1081 
L 99.291064 230.998925 
L 100.049092 228.618439 
L 100.554444 227.586002 
L 101.059795 227.057769 
L 101.438809 227.003083 
L 101.817823 227.234906 
L 102.196837 227.732834 
L 102.702188 228.77835 
L 103.460216 231.027655 
L 104.849933 236.177865 
L 105.986974 240.099449 
L 106.618664 241.674892 
L 107.124016 242.488992 
L 107.629367 242.893742 
L 108.008381 242.9008 
L 108.387395 242.64426 
L 108.766409 242.123989 
L 109.27176 241.026366 
L 109.90345 239.03266 
L 110.787816 235.298666 
L 113.946264 220.924493 
L 114.577953 219.386342 
L 115.083305 218.737379 
L 115.462319 218.603499 
L 115.841333 218.762294 
L 116.220346 219.196767 
L 116.725698 220.16823 
L 117.357388 221.900191 
L 118.368091 225.450836 
L 120.136822 231.826927 
L 120.89485 233.715766 
L 121.526539 234.711889 
L 121.905553 234.994501 
L 122.284567 235.019017 
L 122.66358 234.774452 
L 123.042594 234.25169 
L 123.547946 233.116296 
L 124.179636 231.045007 
L 125.064001 227.23261 
L 127.969773 213.659377 
L 128.601463 212.020916 
L 129.106815 211.309022 
L 129.485828 211.134888 
L 129.864842 211.255162 
L 130.243856 211.643576 
L 130.749208 212.550305 
L 131.380897 214.224007 
L 132.265263 217.306029 
L 134.539345 225.684973 
L 135.297373 227.564604 
L 135.802725 228.316368 
L 136.181739 228.56855 
L 136.560752 228.529723 
L 136.939766 228.180153 
L 137.31878 227.511587 
L 137.824132 226.140237 
L 138.455821 223.747982 
L 139.340187 219.437402 
L 141.740607 206.944911 
L 142.372297 204.785514 
L 142.877649 203.668759 
L 143.256662 203.213582 
L 143.635676 203.06885 
L 144.01469 203.223599 
L 144.393704 203.671988 
L 144.899055 204.697528 
L 145.530745 206.583132 
L 146.41511 210.067611 
L 148.815531 220.167884 
L 149.447221 221.952538 
L 149.952572 222.844171 
L 150.331586 223.150762 
L 150.584262 223.16634 
L 150.963276 222.89416 
L 151.34229 222.265292 
L 151.847641 220.894051 
L 152.479331 218.431127 
L 153.363696 213.88397 
L 155.890455 200.165018 
L 156.522144 198.013838 
L 157.027496 196.933366 
L 157.40651 196.485811 
L 157.785524 196.355083 
L 158.164538 196.546384 
L 158.543551 197.052823 
L 159.048903 198.190552 
L 159.680593 200.270804 
L 160.564958 204.118711 
L 162.965379 215.282095 
L 163.597068 217.165942 
L 164.10242 218.058207 
L 164.481434 218.311113 
L 164.73411 218.268139 
L 165.113123 217.879635 
L 165.492137 217.107169 
L 165.997489 215.518586 
L 166.629179 212.765907 
L 167.639882 207.157116 
L 169.787627 194.848507 
L 170.545654 191.936085 
L 171.177344 190.423382 
L 171.556358 189.94356 
L 171.935371 189.806264 
L 172.188047 189.907101 
L 172.567061 190.343847 
L 173.072413 191.43661 
L 173.704102 193.550136 
L 174.46213 196.968872 
L 177.367902 211.181692 
L 177.873254 212.525935 
L 178.252268 213.12042 
L 178.631281 213.32666 
L 178.883957 213.240069 
L 179.262971 212.769937 
L 179.641985 211.900112 
L 180.147337 210.195359 
L 180.905364 206.666092 
L 181.916067 200.695461 
L 183.937474 188.510538 
L 184.695502 185.297691 
L 185.327191 183.532309 
L 185.706205 182.942847 
L 186.085219 182.726486 
L 186.337895 182.791734 
L 186.716909 183.199218 
L 187.095922 183.968956 
L 187.601274 185.523733 
L 188.232964 188.201447 
L 189.243667 193.599986 
L 190.88606 202.321995 
L 191.644088 205.164799 
L 192.149439 206.356256 
L 192.528453 206.816474 
L 192.781129 206.902152 
L 193.033805 206.805244 
L 193.412819 206.322736 
L 193.91817 205.145616 
L 194.54986 202.868232 
L 195.307888 199.113109 
L 196.444929 192.095341 
L 198.087322 181.915181 
L 198.845349 178.31989 
L 199.477039 176.273152 
L 199.982391 175.373916 
L 200.361405 175.155712 
L 200.61408 175.230667 
L 200.993094 175.672637 
L 201.372108 176.498873 
L 201.87746 178.156179 
L 202.635487 181.618178 
L 204.151542 190.122523 
L 205.288584 195.92928 
L 206.046611 198.695825 
L 206.551963 199.817659 
L 206.930977 200.216169 
L 207.30999 200.260269 
L 207.689004 199.957558 
L 208.068018 199.296718 
L 208.57337 197.866575 
L 209.205059 195.260219 
L 209.963087 191.129036 
L 211.479142 181.179308 
L 212.742521 173.565242 
L 213.500549 170.340861 
L 214.005901 168.975726 
L 214.384914 168.405855 
L 214.763928 168.241827 
L 215.016604 168.359908 
L 215.395618 168.874269 
L 215.900969 170.157495 
L 216.532659 172.549831 
L 217.417025 176.870485 
L 219.943783 189.889225 
L 220.575473 191.927624 
L 221.080824 192.974101 
L 221.459838 193.400588 
L 221.838852 193.479554 
L 222.091528 193.328713 
L 222.470542 192.79074 
L 222.975893 191.496495 
L 223.607583 188.999515 
L 224.36561 184.913628 
L 225.755328 175.746724 
L 227.018707 167.89092 
L 227.776734 164.466161 
L 228.282086 162.94659 
L 228.6611 162.262197 
L 229.040114 161.990199 
L 229.292789 162.041563 
L 229.671803 162.461219 
L 230.177155 163.564773 
L 230.808845 165.687184 
L 231.566872 169.120764 
L 232.830251 176.121698 
L 234.219969 183.48828 
L 234.977996 186.439487 
L 235.483348 187.767155 
L 235.862362 188.335462 
L 236.241375 188.497967 
L 236.494051 188.370506 
L 236.873065 187.817924 
L 237.252079 186.83198 
L 237.75743 184.874089 
L 238.38912 181.513226 
L 239.399824 174.670034 
L 241.294892 161.430523 
L 242.05292 157.580937 
L 242.68461 155.4786 
L 243.063623 154.773659 
L 243.442637 154.49874 
L 243.695313 154.531366 
L 244.074327 154.897048 
L 244.453341 155.635728 
L 244.958692 157.173149 
L 245.590382 159.902962 
L 246.474747 164.938808 
L 249.127844 181.116245 
L 249.759533 183.348225 
L 250.138547 184.111784 
L 250.517561 184.395215 
L 250.770237 184.303423 
L 251.022913 183.982885 
L 251.401926 183.075687 
L 251.907278 181.100801 
L 252.538968 177.551146 
L 253.423333 171.170812 
L 255.950092 152.073667 
L 256.708119 148.341279 
L 257.213471 146.764514 
L 257.592485 146.061143 
L 257.971499 145.789608 
L 258.224174 145.85418 
L 258.47685 146.116061 
L 258.855864 146.876274 
L 259.361216 148.553944 
L 259.992905 151.645187 
L 260.877271 157.462363 
L 263.277691 174.55469 
L 263.909381 177.390835 
L 264.414733 178.709817 
L 264.793747 179.071238 
L 265.046422 178.999492 
L 265.299098 178.674769 
L 265.678112 177.720672 
L 266.183464 175.629618 
L 266.815153 171.966779 
L 267.699519 165.384266 
L 270.478953 143.443686 
L 271.236981 139.722097 
L 271.742332 138.164293 
L 272.121346 137.546154 
L 272.374022 137.408129 
L 272.626698 137.492086 
L 272.879374 137.798357 
L 273.258388 138.674996 
L 273.763739 140.608823 
L 274.395429 144.149759 
L 275.279794 150.677802 
L 277.427539 167.404273 
L 278.059229 170.759343 
L 278.56458 172.474641 
L 278.943594 173.118861 
L 279.19627 173.227441 
L 279.448946 173.076125 
L 279.82796 172.373406 
L 280.333311 170.66089 
L 280.965001 167.374965 
L 281.723029 162.045054 
L 282.986408 151.209507 
L 284.502463 138.529317 
L 285.26049 133.702089 
L 285.89218 130.955427 
L 286.397532 129.746364 
L 286.650208 129.49397 
L 286.902883 129.486661 
L 287.155559 129.729942 
L 287.534573 130.567328 
L 288.039925 132.540808 
L 288.671614 136.238653 
L 289.55598 143.063967 
L 291.830063 161.52731 
L 292.461752 164.865527 
L 292.967104 166.505356 
L 293.346118 167.065257 
L 293.598793 167.132815 
L 293.851469 166.96573 
L 294.230483 166.269043 
L 294.609497 165.044982 
L 295.114849 162.643153 
L 295.746538 158.562829 
L 296.630904 151.341964 
L 299.157662 129.449709 
L 299.91569 125.158754 
L 300.421041 123.396109 
L 300.800055 122.731342 
L 301.052731 122.620101 
L 301.305407 122.779755 
L 301.558083 123.210666 
L 301.937097 124.353263 
L 302.442448 126.743557 
L 303.074138 130.869741 
L 304.084841 139.202753 
L 305.853572 154.094034 
L 306.6116 158.58166 
L 307.116951 160.474064 
L 307.495965 161.308713 
L 307.748641 161.572222 
L 308.001317 161.590299 
L 308.253993 161.359337 
L 308.633007 160.548124 
L 309.138358 158.629743 
L 309.770048 155.005103 
L 310.528075 149.164375 
L 311.917793 136.200111 
L 313.181172 125.00466 
L 313.939199 120.062845 
L 314.444551 117.87427 
L 314.823565 116.908921 
L 315.076241 116.607045 
L 315.328917 116.583977 
L 315.581592 116.8392 
L 315.960606 117.733474 
L 316.465958 119.807147 
L 317.097648 123.602049 
L 317.982013 130.576743 
L 320.382434 150.503698 
L 321.014123 153.834635 
L 321.519475 155.564309 
L 321.898489 156.228802 
L 322.151165 156.3532 
L 322.40384 156.218294 
L 322.656516 155.825149 
L 323.03553 154.760732 
L 323.540882 152.490109 
L 324.172571 148.408655 
L 325.056937 140.926307 
L 327.836371 115.90377 
L 328.468061 112.5451 
L 328.973413 110.979936 
L 329.352426 110.508631 
L 329.605102 110.53487 
L 329.857778 110.828933 
L 330.236792 111.740126 
L 330.742144 113.788706 
L 331.373833 117.523651 
L 332.258199 124.371383 
L 334.658619 143.998477 
L 335.290309 147.445447 
L 335.795661 149.246565 
L 336.174674 149.966926 
L 336.42735 150.133908 
L 336.680026 150.046959 
L 336.932702 149.704609 
L 337.311716 148.714082 
L 337.817067 146.536352 
L 338.448757 142.58848 
L 339.333122 135.333291 
L 341.986219 111.879712 
L 342.617909 108.333924 
L 343.12326 106.523109 
L 343.502274 105.814613 
L 343.75495 105.644059 
L 344.007626 105.716201 
L 344.260302 106.030339 
L 344.639315 106.944811 
L 345.144667 108.944778 
L 345.776357 112.545743 
L 346.660722 119.10869 
L 349.061143 138.053635 
L 349.692832 141.413006 
L 350.198184 143.152103 
L 350.577198 143.839149 
L 350.829874 143.9859 
L 351.08255 143.877475 
L 351.335225 143.513625 
L 351.714239 142.497744 
L 352.219591 140.31852 
L 352.85128 136.420944 
L 353.735646 129.254762 
L 356.262404 107.428217 
L 357.020432 103.201578 
L 357.525784 101.415442 
L 357.904797 100.660336 
L 358.157473 100.44969 
L 358.410149 100.47705 
L 358.662825 100.742404 
L 359.041839 101.578666 
L 359.547191 103.469987 
L 360.17888 106.946664 
L 361.063246 113.40345 
L 363.716342 134.284082 
L 364.348032 137.267839 
L 364.853383 138.615915 
L 365.232397 138.964139 
L 365.485073 138.873325 
L 365.737749 138.526169 
L 366.116763 137.540365 
L 366.622114 135.363398 
L 367.253804 131.417148 
L 368.138169 124.209462 
L 370.791266 101.037598 
L 371.549293 96.765157 
L 372.054645 94.974062 
L 372.433659 94.255287 
L 372.686335 94.085959 
L 372.939011 94.166773 
L 373.191686 94.496405 
L 373.5707 95.450689 
L 374.076052 97.540298 
L 374.707742 101.317524 
L 375.592107 108.210727 
L 377.992528 128.066455 
L 378.624217 131.341177 
L 379.129569 132.924028 
L 379.508583 133.450284 
L 379.761259 133.478735 
L 380.013934 133.24713 
L 380.392948 132.420995 
L 380.8983 130.468561 
L 381.52999 126.792518 
L 382.288017 120.90936 
L 383.677734 107.865082 
L 385.067451 95.504525 
L 385.825479 90.549624 
L 386.330831 88.358232 
L 386.709844 87.388582 
L 386.96252 87.081893 
L 387.215196 87.055252 
L 387.467872 87.310484 
L 387.846886 88.216525 
L 388.352237 90.365114 
L 388.983927 94.384455 
L 389.868293 101.863056 
L 392.268713 123.391257 
L 392.900403 127.069304 
L 393.405755 128.941458 
L 393.784768 129.684005 
L 394.037444 129.858691 
L 394.29012 129.769672 
L 394.542796 129.413419 
L 394.92181 128.378663 
L 395.427161 126.087875 
L 396.058851 121.874714 
L 396.816878 115.163586 
L 398.080258 101.556631 
L 399.469975 86.915535 
L 400.228002 81.019127 
L 400.733354 78.414431 
L 401.112368 77.275653 
L 401.365044 76.928687 
L 401.61772 76.920303 
L 401.870396 77.252169 
L 402.249409 78.375661 
L 402.754761 80.966819 
L 403.386451 85.721754 
L 404.270816 94.436287 
L 406.671237 119.409872 
L 407.302926 123.775754 
L 407.808278 126.1539 
L 408.187292 127.19306 
L 408.439968 127.503906 
L 408.692643 127.498012 
L 408.945319 127.170023 
L 409.324333 126.073879 
L 409.829685 123.50755 
L 410.461374 118.630299 
L 411.219402 110.70013 
L 412.482781 94.486415 
L 413.872498 77.410816 
L 414.630526 70.824013 
L 415.135878 68.075999 
L 415.514891 66.997158 
L 415.767567 66.766567 
L 416.020243 66.929115 
L 416.272919 67.477075 
L 416.651933 68.981121 
L 417.157284 72.182999 
L 417.788974 77.856531 
L 418.67334 88.05504 
L 421.07376 116.98653 
L 421.831788 122.965521 
L 422.337139 125.368592 
L 422.716153 126.210668 
L 422.968829 126.290209 
L 423.221505 125.975729 
L 423.474181 125.263514 
L 423.853195 123.452626 
L 424.358546 119.700885 
L 424.990236 113.073272 
L 425.874601 101.007483 
L 428.275022 66.218954 
L 428.906712 60.35683 
L 429.412063 57.457235 
L 429.791077 56.431823 
L 430.043753 56.296112 
L 430.296429 56.592354 
L 430.549105 57.31882 
L 430.928118 59.195927 
L 431.43347 63.075312 
L 432.06516 69.844943 
L 432.949525 81.911814 
L 435.223608 114.452895 
L 435.981635 121.747324 
L 436.486987 124.675081 
L 436.866001 125.709721 
L 437.118677 125.815696 
L 437.371353 125.443598 
L 437.624028 124.591861 
L 438.003042 122.427865 
L 438.508394 117.966143 
L 439.140083 110.149014 
L 440.024449 96.0035 
L 442.172194 59.88862 
L 442.803883 52.530076 
L 443.309235 48.58876 
L 443.688249 46.909306 
L 443.940925 46.428783 
L 444.067263 46.383376 
L 444.319938 46.68268 
L 444.572614 47.497848 
L 444.951628 49.660921 
L 445.45698 54.19716 
L 446.088669 62.186986 
L 446.973035 76.56096 
L 449.247118 115.634666 
L 449.878807 122.96346 
L 450.384159 126.777527 
L 450.763173 128.294176 
L 451.015848 128.629308 
L 451.142186 128.590225 
L 451.394862 128.097182 
L 451.773876 126.327787 
L 452.15289 123.359495 
L 452.658241 117.678382 
L 453.416269 106.069792 
L 454.679648 81.97431 
L 456.069365 56.687674 
L 456.827393 46.79439 
L 457.332745 42.515883 
L 457.711759 40.692337 
L 457.964434 40.167333 
L 458.090772 40.114545 
L 458.21711 40.201515 
L 458.469786 40.791801 
L 458.8488 42.697823 
L 459.354152 47.044715 
L 459.985841 55.042659 
L 460.870207 69.88335 
L 463.523303 117.365205 
L 464.154993 124.226068 
L 464.660344 127.512512 
L 465.039358 128.575954 
L 465.165696 128.65617 
L 465.292034 128.59846 
L 465.54471 128.070887 
L 465.923724 126.267744 
L 466.429075 122.077512 
L 467.060765 114.321192 
L 467.94513 100.024833 
L 470.219213 61.023272 
L 470.850903 53.661739 
L 471.356254 49.766947 
L 471.735268 48.155467 
L 471.987944 47.733327 
L 472.114282 47.719437 
L 472.366958 48.084981 
L 472.619634 48.968956 
L 472.998647 51.235844 
L 473.503999 55.902531 
L 474.135689 64.059167 
L 475.020054 78.709392 
L 477.294137 118.515962 
L 478.052164 127.387901 
L 478.557516 131.12906 
L 478.93653 132.669186 
L 479.189206 133.072825 
L 479.315544 133.086572 
L 479.56822 132.740346 
L 479.820895 131.903892 
L 480.199909 129.764741 
L 480.705261 125.391911 
L 481.336951 117.881964 
L 482.347654 102.815364 
L 484.116385 76.106953 
L 484.874412 67.878672 
L 485.379764 64.263327 
L 485.758778 62.684538 
L 486.011454 62.194476 
L 486.26413 62.160034 
L 486.516805 62.579375 
L 486.895819 64.04469 
L 487.401171 67.500371 
L 488.032861 74.020196 
L 488.790888 84.435805 
L 491.822998 129.667357 
L 492.454688 134.871492 
L 492.96004 137.191646 
L 493.212716 137.702944 
L 493.465391 137.776867 
L 493.718067 137.41674 
L 494.097081 136.084608 
L 494.602433 132.958902 
L 495.234122 127.207031 
L 496.118488 116.698226 
L 498.518908 86.553951 
L 499.150598 81.327277 
L 499.65595 78.609193 
L 500.034963 77.514139 
L 500.287639 77.25124 
L 500.540315 77.368045 
L 500.792991 77.866726 
L 501.172005 79.325534 
L 501.677357 82.547322 
L 502.309046 88.418119 
L 503.193412 99.244461 
L 505.72017 132.208604 
L 506.35186 137.604894 
L 506.857211 140.464063 
L 507.236225 141.679885 
L 507.488901 142.03507 
L 507.741577 142.025645 
L 507.994253 141.668929 
L 508.373267 140.515242 
L 508.878618 137.9082 
L 509.510308 133.183313 
L 510.394673 124.588564 
L 512.795094 99.876879 
L 513.426784 95.541958 
L 513.932135 93.253449 
L 514.311149 92.311379 
L 514.563825 92.075675 
L 514.816501 92.163345 
L 515.069177 92.577213 
L 515.44819 93.80482 
L 515.953542 96.523543 
L 516.585232 101.464933 
L 517.469597 110.581934 
L 520.122694 139.839673 
L 520.754383 144.298678 
L 521.259735 146.628445 
L 521.638749 147.605677 
L 521.891425 147.8949 
L 522.1441 147.896146 
L 522.396776 147.61509 
L 522.77579 146.684816 
L 523.281142 144.562533 
L 523.912831 140.668157 
L 524.797197 133.458539 
L 527.323955 111.628504 
L 527.955645 108.119184 
L 528.460997 106.383543 
L 528.84001 105.787948 
L 529.092686 105.743111 
L 529.345362 105.982414 
L 529.724376 106.86683 
L 530.229728 108.984221 
L 530.861417 113.004883 
L 531.619445 119.488146 
L 533.261838 136.26174 
L 534.398879 146.620277 
L 535.156907 151.596183 
L 535.662258 153.798404 
L 536.041272 154.811126 
L 536.420286 155.259435 
L 536.672962 155.245168 
L 536.925638 154.98401 
L 537.304651 154.138296 
L 537.810003 152.20218 
L 538.441693 148.634407 
L 539.326058 142.077922 
L 541.979155 121.285938 
L 542.610844 118.436421 
L 543.116196 117.208612 
L 543.368872 116.970205 
L 543.621548 116.987474 
L 543.874224 117.261137 
L 544.253237 118.148808 
L 544.758589 120.21792 
L 545.390279 124.082564 
L 546.274644 131.307788 
L 549.306754 158.1399 
L 549.938444 161.508057 
L 550.443796 163.201868 
L 550.822809 163.841477 
L 551.075485 163.955487 
L 551.328161 163.817397 
L 551.580837 163.429456 
L 551.959851 162.392533 
L 552.465203 160.219994 
L 553.096892 156.417532 
L 553.981258 149.564142 
L 556.129002 132.148717 
L 556.760692 128.737621 
L 557.266044 126.988526 
L 557.645057 126.31314 
L 557.897733 126.181988 
L 558.150409 126.319344 
L 558.403085 126.723432 
L 558.782099 127.817016 
L 559.28745 130.130271 
L 559.91914 134.215552 
L 560.803506 141.628156 
L 563.709278 167.75552 
L 564.340967 171.257753 
L 564.846319 173.014787 
L 565.225333 173.662691 
L 565.478009 173.765478 
L 565.730685 173.604397 
L 566.109698 172.877386 
L 566.488712 171.592181 
L 566.994064 169.075029 
L 567.625754 164.786335 
L 568.762795 155.093143 
L 570.152512 143.398305 
L 570.91054 138.655619 
L 571.415891 136.520291 
L 571.794905 135.560698 
L 572.047581 135.25037 
L 572.300257 135.208281 
L 572.552933 135.434483 
L 572.931946 136.266169 
L 573.437298 138.243563 
L 574.068988 141.977048 
L 574.827015 147.997006 
L 576.090395 160.255634 
L 577.60645 174.487451 
L 578.364477 179.683476 
L 578.869829 182.022759 
L 579.248843 183.100815 
L 579.627856 183.566836 
L 579.880532 183.532241 
L 580.133208 183.222445 
L 580.512222 182.252022 
L 581.017574 180.046427 
L 581.649263 176.015122 
L 582.533629 168.722595 
L 584.681373 150.459097 
L 585.313063 146.806732 
L 585.818415 144.928341 
L 586.197429 144.197885 
L 586.450104 144.044162 
L 586.70278 144.156579 
L 586.955456 144.532224 
L 587.33447 145.5807 
L 587.839822 147.854959 
L 588.471511 151.993884 
L 589.355877 159.724749 
L 592.261649 187.227835 
L 592.893339 190.682014 
L 593.39869 192.273374 
L 593.777704 192.733581 
L 594.03038 192.684437 
L 594.283056 192.351701 
L 594.66207 191.329493 
L 595.167421 189.065101 
L 595.799111 185.011486 
L 596.809814 176.672595 
L 598.704883 160.501464 
L 599.462911 155.994781 
L 599.968262 154.114498 
L 600.347276 153.359291 
L 600.599952 153.177587 
L 600.852628 153.25736 
L 601.105304 153.601158 
L 601.484318 154.611462 
L 601.989669 156.859747 
L 602.621359 160.996803 
L 603.505724 168.740725 
L 606.158821 193.854411 
L 606.79051 197.688539 
L 607.295862 199.669789 
L 607.674876 200.465363 
L 607.927552 200.657673 
L 608.180228 200.578924 
L 608.432903 200.235092 
L 608.811917 199.243464 
L 609.317269 197.105666 
L 609.948959 193.338285 
L 610.959662 185.586981 
L 612.981069 169.498064 
L 613.739096 165.459945 
L 614.244448 163.806199 
L 614.623462 163.173959 
L 614.876138 163.057611 
L 615.128813 163.19168 
L 615.381489 163.578485 
L 615.760503 164.629191 
L 616.265855 166.874883 
L 616.897544 170.912005 
L 617.78191 178.265941 
L 620.308668 200.524355 
L 621.066696 204.816085 
L 621.572048 206.581197 
L 621.951061 207.275116 
L 622.203737 207.432733 
L 622.456413 207.348614 
L 622.709089 207.028158 
L 623.088103 206.124788 
L 623.593454 204.19766 
L 624.225144 200.787727 
L 625.10951 194.630388 
L 627.383592 178.028572 
L 628.015282 175.009553 
L 628.520634 173.473649 
L 628.899647 172.899412 
L 629.152323 172.806968 
L 629.404999 172.951286 
L 629.784013 173.61251 
L 630.163027 174.800277 
L 630.668378 177.164499 
L 631.426406 182.068735 
L 632.563447 191.342052 
L 634.332178 205.694681 
L 635.090206 210.162225 
L 635.721895 212.613009 
L 636.100909 213.46803 
L 636.479923 213.843412 
L 636.732599 213.827784 
L 636.985275 213.603406 
L 637.364288 212.886967 
L 637.86964 211.256577 
L 638.50133 208.246539 
L 639.385695 202.653009 
L 641.786116 186.453605 
L 642.417805 183.724162 
L 642.923157 182.387322 
L 643.302171 181.938099 
L 643.554847 181.917037 
L 643.807523 182.124269 
L 644.186536 182.866247 
L 644.691888 184.588068 
L 645.323578 187.765072 
L 646.207943 193.697044 
L 649.240053 215.827938 
L 649.871743 218.633481 
L 650.377095 220.076801 
L 650.756108 220.655891 
L 651.008784 220.794607 
L 651.26146 220.733048 
L 651.514136 220.471305 
L 651.89315 219.710361 
L 652.398501 218.046717 
L 653.030191 215.043484 
L 653.914557 209.56075 
L 656.062301 195.610062 
L 656.693991 192.806738 
L 657.199343 191.346529 
L 657.578356 190.778025 
L 657.831032 190.668139 
L 658.083708 190.763479 
L 658.462722 191.278301 
L 658.841736 192.228854 
L 659.347087 194.131977 
L 659.978777 197.400956 
L 660.863142 203.2368 
L 663.642577 222.653448 
L 664.274266 225.500936 
L 664.779618 227.011238 
L 665.158632 227.64696 
L 665.411308 227.822945 
L 665.663984 227.798284 
L 665.916659 227.574279 
L 666.295673 226.871407 
L 666.801025 225.279666 
L 667.432715 222.376535 
L 668.31708 217.142751 
L 670.464825 203.9522 
L 671.096514 201.317846 
L 671.601866 199.96197 
L 671.98088 199.4053 
L 672.359894 199.254444 
L 672.61257 199.384333 
L 672.991583 199.92312 
L 673.496935 201.262696 
L 674.128625 203.86961 
L 674.886652 208.178576 
L 676.023693 216.196952 
L 677.792424 228.654524 
L 678.550452 232.527404 
L 679.182142 234.602684 
L 679.561155 235.272891 
L 679.940169 235.489191 
L 680.192845 235.377015 
L 680.571859 234.826589 
L 681.077211 233.447152 
L 681.7089 230.850257 
L 682.593266 226.049791 
L 684.867348 212.943331 
L 685.625376 210.103766 
L 686.130728 208.935001 
L 686.509741 208.490375 
L 686.762417 208.408887 
L 687.015093 208.502654 
L 687.394107 208.974808 
L 687.773121 209.845269 
L 688.278472 211.608486 
L 688.910162 214.692719 
L 689.794527 220.304657 
L 692.573962 239.118415 
L 693.205651 241.694824 
L 693.711003 242.943465 
L 694.090017 243.360897 
L 694.342693 243.388227 
L 694.595369 243.230164 
L 694.974382 242.660085 
L 695.479734 241.326606 
L 696.111424 238.875203 
L 696.995789 234.407599 
L 699.269872 222.301384 
L 700.027899 219.651536 
L 700.533251 218.589831 
L 700.912265 218.215491 
L 701.164941 218.179836 
L 701.417616 218.32134 
L 701.79663 218.871404 
L 702.301982 220.226843 
L 702.933672 222.856424 
L 703.691699 227.172946 
L 705.081416 236.817654 
L 706.344796 245.000158 
L 707.102823 248.588352 
L 707.608175 250.176074 
L 708.113527 251.038063 
L 708.49254 251.226656 
L 708.745216 251.139214 
L 709.12423 250.698907 
L 709.629582 249.574928 
L 710.261271 247.428345 
L 711.145637 243.370553 
L 713.798733 230.267483 
L 714.430423 228.393569 
L 714.935775 227.551361 
L 715.314788 227.354823 
L 715.567464 227.443099 
L 715.946478 227.909641 
L 716.325492 228.775508 
L 716.830843 230.531487 
L 717.462533 233.583926 
L 718.473236 239.818573 
L 720.494643 252.74654 
L 721.252671 256.192502 
L 721.88436 258.044283 
L 722.389712 258.837747 
L 722.768726 259.021142 
L 723.021402 258.94973 
L 723.400416 258.563979 
L 723.905767 257.565888 
L 724.537457 255.622522 
L 725.295484 252.478297 
L 728.327595 238.715356 
L 728.832946 237.489025 
L 729.21196 236.959439 
L 729.590974 236.795047 
L 729.84365 236.897126 
L 730.222663 237.375532 
L 730.601677 238.243649 
L 731.107029 239.955529 
L 731.865057 243.514544 
L 733.002098 250.287515 
L 734.644491 260.065215 
L 735.402518 263.422353 
L 736.034208 265.376105 
L 736.53956 266.307772 
L 736.918574 266.621574 
L 737.297587 266.610845 
L 737.676601 266.284492 
L 738.055615 265.654673 
L 738.560967 264.377288 
L 739.192656 262.177548 
L 740.20336 257.691249 
L 741.972091 249.688662 
L 742.730118 247.333538 
L 743.23547 246.400764 
L 743.614484 246.092071 
L 743.867159 246.086521 
L 744.119835 246.24642 
L 744.498849 246.787655 
L 745.004201 248.019832 
L 745.63589 250.304628 
L 746.520256 254.589815 
L 749.552366 270.550791 
L 750.184056 272.607672 
L 750.689407 273.683737 
L 751.068421 274.138324 
L 751.447435 274.280821 
L 751.826449 274.107328 
L 752.205462 273.621821 
L 752.710814 272.513743 
L 753.342504 270.465393 
L 754.226869 266.705547 
L 756.248276 257.757509 
L 756.879966 255.866039 
L 757.385317 254.931185 
L 757.764331 254.623644 
L 758.143345 254.663199 
L 758.522359 255.023831 
L 758.901373 255.700546 
L 759.406724 257.071023 
L 760.038414 259.44227 
L 760.922779 263.674112 
L 763.702214 277.711471 
L 764.460241 280.096882 
L 764.965593 281.061147 
L 765.344607 281.420219 
L 765.72362 281.452676 
L 766.102634 281.156463 
L 766.481648 280.537511 
L 766.987 279.236544 
L 767.745027 276.474838 
L 769.008407 270.751242 
L 770.145448 265.888306 
L 770.903475 263.552219 
L 771.408827 262.612594 
L 771.787841 262.270292 
L 772.166855 262.219287 
L 772.545868 262.467604 
L 772.924882 263.015593 
L 773.430234 264.190685 
L 774.061924 266.30058 
L 774.946289 270.225664 
L 776.71502 279.595671 
L 777.852061 284.940095 
L 778.610089 287.451571 
L 779.115441 288.486456 
L 779.494454 288.886396 
L 779.873468 288.952645 
L 780.252482 288.683046 
L 780.631496 288.084937 
L 781.136847 286.84301 
L 781.894875 284.234899 
L 783.284592 278.30679 
L 784.421633 273.859561 
L 785.179661 271.784338 
L 785.685013 270.934519 
L 786.064026 270.598035 
L 786.44304 270.538838 
L 786.822054 270.763001 
L 787.201068 271.26915 
L 787.70642 272.373991 
L 788.338109 274.415743 
L 789.096137 277.70557 
L 790.359516 284.44476 
L 791.749233 291.660782 
L 792.507261 294.581309 
L 793.13895 296.131045 
L 793.517964 296.617856 
L 793.896978 296.755117 
L 794.149654 296.651609 
L 794.528667 296.221795 
L 795.034019 295.207546 
L 795.665709 293.344499 
L 796.676412 289.461595 
L 798.571481 282.034079 
L 799.329509 280.006247 
L 799.83486 279.135936 
L 800.213874 278.780625 
L 800.592888 278.698392 
L 800.971902 278.900291 
L 801.350915 279.393765 
L 801.856267 280.5124 
L 802.487957 282.624913 
L 803.245984 286.056921 
L 804.635701 293.724654 
L 805.899081 300.19352 
L 806.657108 302.969874 
L 807.16246 304.154852 
L 807.541474 304.652706 
L 807.920488 304.805455 
L 808.299501 304.641234 
L 808.678515 304.191138 
L 809.183867 303.189728 
L 809.815556 301.400535 
L 810.82626 297.724942 
L 812.721329 290.615054 
L 813.479356 288.586371 
L 813.984708 287.706178 
L 814.363722 287.340606 
L 814.742736 287.250776 
L 815.121749 287.452666 
L 815.500763 287.958103 
L 816.006115 289.104585 
L 816.637804 291.24905 
L 817.016818 292.870529 
L 817.016818 292.870529 
" clip-path="url(#pda396aed80)" style="fill: none; stroke: #0000ff; stroke-opacity: 0.7; stroke-width: 1.5; stroke-linecap: square"/>
   </g>
   <g id="line2d_26">
    <path d="M 458.090772 318.04 
L 458.090772 26.88 
" clip-path="url(#pda396aed80)" style="fill: none; stroke-dasharray: 5.55,2.4; stroke-dashoffset: 0; stroke: #ff0000; stroke-width: 1.5"/>
   </g>
   <g id="patch_3">
    <path d="M 57.17 318.04 
L 57.17 26.88 
" style="fill: none; stroke: #000000; stroke-width: 0.8; stroke-linejoin: miter; stroke-linecap: square"/>
   </g>
   <g id="patch_4">
    <path d="M 853.2 318.04 
L 853.2 26.88 
" style="fill: none; stroke: #000000; stroke-width: 0.8; stroke-linejoin: miter; stroke-linecap: square"/>
   </g>
   <g id="patch_5">
    <path d="M 57.17 318.04 
L 853.2 318.04 
" style="fill: none; stroke: #000000; stroke-width: 0.8; stroke-linejoin: miter; stroke-linecap: square"/>
   </g>
   <g id="patch_6">
    <path d="M 57.17 26.88 
L 853.2 26.88 
" style="fill: none; stroke: #000000; stroke-width: 0.8; stroke-linejoin: miter; stroke-linecap: square"/>
   </g>
   <g id="text_15">
    <!-- Cross-correlation Analysis -->
    <g transform="translate(377.757813 20.88) scale(0.12 -0.12)">
     <defs>
      <path id="DejaVuSans-41" d="M 2188 4044 
L 1331 1722 
L 3047 1722 
L 2188 4044 
z
M 1831 4666 
L 2547 4666 
L 4325 0 
L 3669 0 
L 3244 1197 
L 1141 1197 
L 716 0 
L 50 0 
L 1831 4666 
z
" transform="scale(0.015625)"/>
      <path id="DejaVuSans-79" d="M 2059 -325 
Q 1816 -950 1584 -1140 
Q 1353 -1331 966 -1331 
L 506 -1331 
L 506 -850 
L 844 -850 
Q 1081 -850 1212 -737 
Q 1344 -625 1503 -206 
L 1606 56 
L 191 3500 
L 800 3500 
L 1894 763 
L 2988 3500 
L 3597 3500 
L 2059 -325 
z
" transform="scale(0.015625)"/>
     </defs>
     <use xlink:href="#DejaVuSans-43"/>
     <use xlink:href="#DejaVuSans-72" x="69.824219"/>
     <use xlink:href="#DejaVuSans-6f" x="108.6875"/>
     <use xlink:href="#DejaVuSans-73" x="169.869141"/>
     <use xlink:href="#DejaVuSans-73" x="221.96875"/>
     <use xlink:href="#DejaVuSans-2d" x="274.068359"/>
     <use xlink:href="#DejaVuSans-63" x="310.152344"/>
     <use xlink:href="#DejaVuSans-6f" x="365.132812"/>
     <use xlink:href="#DejaVuSans-72" x="426.314453"/>
     <use xlink:href="#DejaVuSans-72" x="465.677734"/>
     <use xlink:href="#DejaVuSans-65" x="504.541016"/>
     <use xlink:href="#DejaVuSans-6c" x="566.064453"/>
     <use xlink:href="#DejaVuSans-61" x="593.847656"/>
     <use xlink:href="#DejaVuSans-74" x="655.126953"/>
     <use xlink:href="#DejaVuSans-69" x="694.335938"/>
     <use xlink:href="#DejaVuSans-6f" x="722.119141"/>
     <use xlink:href="#DejaVuSans-6e" x="783.300781"/>
     <use xlink:href="#DejaVuSans-20" x="846.679688"/>
     <use xlink:href="#DejaVuSans-41" x="878.466797"/>
     <use xlink:href="#DejaVuSans-6e" x="946.875"/>
     <use xlink:href="#DejaVuSans-61" x="1010.253906"/>
     <use xlink:href="#DejaVuSans-6c" x="1071.533203"/>
     <use xlink:href="#DejaVuSans-79" x="1099.316406"/>
     <use xlink:href="#DejaVuSans-73" x="1158.496094"/>
     <use xlink:href="#DejaVuSans-69" x="1210.595703"/>
     <use xlink:href="#DejaVuSans-73" x="1238.378906"/>
    </g>
   </g>
   <g id="legend_1">
    <g id="patch_7">
     <path d="M 647.6625 49.558125 
L 846.2 49.558125 
Q 848.2 49.558125 848.2 47.558125 
L 848.2 33.88 
Q 848.2 31.88 846.2 31.88 
L 647.6625 31.88 
Q 645.6625 31.88 645.6625 33.88 
L 645.6625 47.558125 
Q 645.6625 49.558125 647.6625 49.558125 
z
" style="fill: #ffffff; opacity: 0.8; stroke: #cccccc; stroke-linejoin: miter"/>
    </g>
    <g id="line2d_27">
     <path d="M 649.6625 39.978438 
L 659.6625 39.978438 
L 669.6625 39.978438 
" style="fill: none; stroke-dasharray: 5.55,2.4; stroke-dashoffset: 0; stroke: #ff0000; stroke-width: 1.5"/>
    </g>
    <g id="text_16">
     <!-- Best lag = 230 ms (corr = 0.260) -->
     <g transform="translate(677.6625 43.478438) scale(0.1 -0.1)">
      <defs>
       <path id="DejaVuSans-42" d="M 1259 2228 
L 1259 519 
L 2272 519 
Q 2781 519 3026 730 
Q 3272 941 3272 1375 
Q 3272 1813 3026 2020 
Q 2781 2228 2272 2228 
L 1259 2228 
z
M 1259 4147 
L 1259 2741 
L 2194 2741 
Q 2656 2741 2882 2914 
Q 3109 3088 3109 3444 
Q 3109 3797 2882 3972 
Q 2656 4147 2194 4147 
L 1259 4147 
z
M 628 4666 
L 2241 4666 
Q 2963 4666 3353 4366 
Q 3744 4066 3744 3513 
Q 3744 3084 3544 2831 
Q 3344 2578 2956 2516 
Q 3422 2416 3680 2098 
Q 3938 1781 3938 1306 
Q 3938 681 3513 340 
Q 3088 0 2303 0 
L 628 0 
L 628 4666 
z
" transform="scale(0.015625)"/>
       <path id="DejaVuSans-3d" d="M 678 2906 
L 4684 2906 
L 4684 2381 
L 678 2381 
L 678 2906 
z
M 678 1631 
L 4684 1631 
L 4684 1100 
L 678 1100 
L 678 1631 
z
" transform="scale(0.015625)"/>
       <path id="DejaVuSans-2e" d="M 684 794 
L 1344 794 
L 1344 0 
L 684 0 
L 684 794 
z
" transform="scale(0.015625)"/>
      </defs>
      <use xlink:href="#DejaVuSans-42"/>
      <use xlink:href="#DejaVuSans-65" x="68.603516"/>
      <use xlink:href="#DejaVuSans-73" x="130.126953"/>
      <use xlink:href="#DejaVuSans-74" x="182.226562"/>
      <use xlink:href="#DejaVuSans-20" x="221.435547"/>
      <use xlink:href="#DejaVuSans-6c" x="253.222656"/>
      <use xlink:href="#DejaVuSans-61" x="281.005859"/>
      <use xlink:href="#DejaVuSans-67" x="342.285156"/>
      <use xlink:href="#DejaVuSans-20" x="405.761719"/>
      <use xlink:href="#DejaVuSans-3d" x="437.548828"/>
      <use xlink:href="#DejaVuSans-20" x="521.337891"/>
      <use xlink:href="#DejaVuSans-32" x="553.125"/>
      <use xlink:href="#DejaVuSans-33" x="616.748047"/>
      <use xlink:href="#DejaVuSans-30" x="680.371094"/>
      <use xlink:href="#DejaVuSans-20" x="743.994141"/>
      <use xlink:href="#DejaVuSans-6d" x="775.78125"/>
      <use xlink:href="#DejaVuSans-73" x="873.193359"/>
      <use xlink:href="#DejaVuSans-20" x="925.292969"/>
      <use xlink:href="#DejaVuSans-28" x="957.080078"/>
      <use xlink:href="#DejaVuSans-63" x="996.09375"/>
      <use xlink:href="#DejaVuSans-6f" x="1051.074219"/>
      <use xlink:href="#DejaVuSans-72" x="1112.255859"/>
      <use xlink:href="#DejaVuSans-72" x="1151.619141"/>
      <use xlink:href="#DejaVuSans-20" x="1192.732422"/>
      <use xlink:href="#DejaVuSans-3d" x="1224.519531"/>
      <use xlink:href="#DejaVuSans-20" x="1308.308594"/>
      <use xlink:href="#DejaVuSans-30" x="1340.095703"/>
      <use xlink:href="#DejaVuSans-2e" x="1403.71875"/>
      <use xlink:href="#DejaVuSans-32" x="1435.505859"/>
      <use xlink:href="#DejaVuSans-36" x="1499.128906"/>
      <use xlink:href="#DejaVuSans-30" x="1562.751953"/>
      <use xlink:href="#DejaVuSans-29" x="1626.375"/>
     </g>
    </g>
   </g>
  </g>
 </g>
 <defs>
  <clipPath id="pda396aed80">
   <rect x="57.17" y="26.88" width="796.03" height="291.16"/>
  </clipPath>
 </defs>
</svg>
