<?xml version="1.0" encoding="utf-8" standalone="no"?>
<!DOCTYPE svg PUBLIC "-//W3C//DTD SVG 1.1//EN"
  "http://www.w3.org/Graphics/SVG/1.1/DTD/svg11.dtd">
<svg xmlns:xlink="http://www.w3.org/1999/xlink" width="864pt" height="360pt" viewBox="0 0 864 360" xmlns="http://www.w3.org/2000/svg" version="1.1">
 <metadata>
  <rdf:RDF xmlns:dc="http://purl.org/dc/elements/1.1/" xmlns:cc="http://creativecommons.org/ns#" xmlns:rdf="http://www.w3.org/1999/02/22-rdf-syntax-ns#">
   <cc:Work>
    <dc:type rdf:resource="http://purl.org/dc/dcmitype/StillImage"/>
    <dc:date>2025-12-01T21:02:46.256233</dc:date>
    <dc:format>image/svg+xml</dc:format>
    <dc:creator>
     <cc:Agent>
      <dc:title>Matplotlib v3.8.4, https://matplotlib.org/</dc:title>
     </cc:Agent>
    </dc:creator>
   </cc:Work>
  </rdf:RDF>
 </metadata>
 <defs>
  <style type="text/css">*{stroke-linejoin: round; stroke-linecap: butt}</style>
 </defs>
 <g id="figure_1">
  <g id="patch_1">
   <path d="M 0 360 
L 864 360 
L 864 0 
L 0 0 
z
" style="fill: #ffffff"/>
  </g>
  <g id="axes_1">
   <g id="patch_2">
    <path d="M 57.17 318.04 
L 853.2 318.04 
L 853.2 26.88 
L 57.17 26.88 
z
" style="fill: #ffffff"/>
   </g>
   <g id="matplotlib.axis_1">
    <g id="xtick_1">
     <g id="line2d_1">
      <path d="M 72.968291 318.04 
L 72.968291 26.88 
" clip-path="url(#pf25625b092)" style="fill: none; stroke: #b0b0b0; stroke-width: 0.8; stroke-linecap: square"/>
     </g>
     <g id="line2d_2">
      <defs>
       <path id="me796cd5791" d="M 0 0 
L 0 3.5 
" style="stroke: #000000; stroke-width: 0.8"/>
      </defs>
      <g>
       <use xlink:href="#me796cd5791" x="72.968291" y="318.04" style="stroke: #000000; stroke-width: 0.8"/>
      </g>
     </g>
     <g id="text_1">
      <!-- −30 -->
      <g transform="translate(62.415947 332.638438) scale(0.1 -0.1)">
       <defs>
        <path id="DejaVuSans-2212" d="M 678 2272 
L 4684 2272 
L 4684 1741 
L 678 1741 
L 678 2272 
z
" transform="scale(0.015625)"/>
        <path id="DejaVuSans-33" d="M 2597 2516 
Q 3050 2419 3304 2112 
Q 3559 1806 3559 1356 
Q 3559 666 3084 287 
Q 2609 -91 1734 -91 
Q 1441 -91 1130 -33 
Q 819 25 488 141 
L 488 750 
Q 750 597 1062 519 
Q 1375 441 1716 441 
Q 2309 441 2620 675 
Q 2931 909 2931 1356 
Q 2931 1769 2642 2001 
Q 2353 2234 1838 2234 
L 1294 2234 
L 1294 2753 
L 1863 2753 
Q 2328 2753 2575 2939 
Q 2822 3125 2822 3475 
Q 2822 3834 2567 4026 
Q 2313 4219 1838 4219 
Q 1578 4219 1281 4162 
Q 984 4106 628 3988 
L 628 4550 
Q 988 4650 1302 4700 
Q 1616 4750 1894 4750 
Q 2613 4750 3031 4423 
Q 3450 4097 3450 3541 
Q 3450 3153 3228 2886 
Q 3006 2619 2597 2516 
z
" transform="scale(0.015625)"/>
        <path id="DejaVuSans-30" d="M 2034 4250 
Q 1547 4250 1301 3770 
Q 1056 3291 1056 2328 
Q 1056 1369 1301 889 
Q 1547 409 2034 409 
Q 2525 409 2770 889 
Q 3016 1369 3016 2328 
Q 3016 3291 2770 3770 
Q 2525 4250 2034 4250 
z
M 2034 4750 
Q 2819 4750 3233 4129 
Q 3647 3509 3647 2328 
Q 3647 1150 3233 529 
Q 2819 -91 2034 -91 
Q 1250 -91 836 529 
Q 422 1150 422 2328 
Q 422 3509 836 4129 
Q 1250 4750 2034 4750 
z
" transform="scale(0.015625)"/>
       </defs>
       <use xlink:href="#DejaVuSans-2212"/>
       <use xlink:href="#DejaVuSans-33" x="83.789062"/>
       <use xlink:href="#DejaVuSans-30" x="147.412109"/>
      </g>
     </g>
    </g>
    <g id="xtick_2">
     <g id="line2d_3">
      <path d="M 200.37386 318.04 
L 200.37386 26.88 
" clip-path="url(#pf25625b092)" style="fill: none; stroke: #b0b0b0; stroke-width: 0.8; stroke-linecap: square"/>
     </g>
     <g id="line2d_4">
      <g>
       <use xlink:href="#me796cd5791" x="200.37386" y="318.04" style="stroke: #000000; stroke-width: 0.8"/>
      </g>
     </g>
     <g id="text_2">
      <!-- −20 -->
      <g transform="translate(189.821517 332.638438) scale(0.1 -0.1)">
       <defs>
        <path id="DejaVuSans-32" d="M 1228 531 
L 3431 531 
L 3431 0 
L 469 0 
L 469 531 
Q 828 903 1448 1529 
Q 2069 2156 2228 2338 
Q 2531 2678 2651 2914 
Q 2772 3150 2772 3378 
Q 2772 3750 2511 3984 
Q 2250 4219 1831 4219 
Q 1534 4219 1204 4116 
Q 875 4013 500 3803 
L 500 4441 
Q 881 4594 1212 4672 
Q 1544 4750 1819 4750 
Q 2544 4750 2975 4387 
Q 3406 4025 3406 3419 
Q 3406 3131 3298 2873 
Q 3191 2616 2906 2266 
Q 2828 2175 2409 1742 
Q 1991 1309 1228 531 
z
" transform="scale(0.015625)"/>
       </defs>
       <use xlink:href="#DejaVuSans-2212"/>
       <use xlink:href="#DejaVuSans-32" x="83.789062"/>
       <use xlink:href="#DejaVuSans-30" x="147.412109"/>
      </g>
     </g>
    </g>
    <g id="xtick_3">
     <g id="line2d_5">
      <path d="M 327.77943 318.04 
L 327.77943 26.88 
" clip-path="url(#pf25625b092)" style="fill: none; stroke: #b0b0b0; stroke-width: 0.8; stroke-linecap: square"/>
     </g>
     <g id="line2d_6">
      <g>
       <use xlink:href="#me796cd5791" x="327.77943" y="318.04" style="stroke: #000000; stroke-width: 0.8"/>
      </g>
     </g>
     <g id="text_3">
      <!-- −10 -->
      <g transform="translate(317.227086 332.638438) scale(0.1 -0.1)">
       <defs>
        <path id="DejaVuSans-31" d="M 794 531 
L 1825 531 
L 1825 4091 
L 703 3866 
L 703 4441 
L 1819 4666 
L 2450 4666 
L 2450 531 
L 3481 531 
L 3481 0 
L 794 0 
L 794 531 
z
" transform="scale(0.015625)"/>
       </defs>
       <use xlink:href="#DejaVuSans-2212"/>
       <use xlink:href="#DejaVuSans-31" x="83.789062"/>
       <use xlink:href="#DejaVuSans-30" x="147.412109"/>
      </g>
     </g>
    </g>
    <g id="xtick_4">
     <g id="line2d_7">
      <path d="M 455.185 318.04 
L 455.185 26.88 
" clip-path="url(#pf25625b092)" style="fill: none; stroke: #b0b0b0; stroke-width: 0.8; stroke-linecap: square"/>
     </g>
     <g id="line2d_8">
      <g>
       <use xlink:href="#me796cd5791" x="455.185" y="318.04" style="stroke: #000000; stroke-width: 0.8"/>
      </g>
     </g>
     <g id="text_4">
      <!-- 0 -->
      <g transform="translate(452.00375 332.638438) scale(0.1 -0.1)">
       <use xlink:href="#DejaVuSans-30"/>
      </g>
     </g>
    </g>
    <g id="xtick_5">
     <g id="line2d_9">
      <path d="M 582.59057 318.04 
L 582.59057 26.88 
" clip-path="url(#pf25625b092)" style="fill: none; stroke: #b0b0b0; stroke-width: 0.8; stroke-linecap: square"/>
     </g>
     <g id="line2d_10">
      <g>
       <use xlink:href="#me796cd5791" x="582.59057" y="318.04" style="stroke: #000000; stroke-width: 0.8"/>
      </g>
     </g>
     <g id="text_5">
      <!-- 10 -->
      <g transform="translate(576.22807 332.638438) scale(0.1 -0.1)">
       <use xlink:href="#DejaVuSans-31"/>
       <use xlink:href="#DejaVuSans-30" x="63.623047"/>
      </g>
     </g>
    </g>
    <g id="xtick_6">
     <g id="line2d_11">
      <path d="M 709.99614 318.04 
L 709.99614 26.88 
" clip-path="url(#pf25625b092)" style="fill: none; stroke: #b0b0b0; stroke-width: 0.8; stroke-linecap: square"/>
     </g>
     <g id="line2d_12">
      <g>
       <use xlink:href="#me796cd5791" x="709.99614" y="318.04" style="stroke: #000000; stroke-width: 0.8"/>
      </g>
     </g>
     <g id="text_6">
      <!-- 20 -->
      <g transform="translate(703.63364 332.638438) scale(0.1 -0.1)">
       <use xlink:href="#DejaVuSans-32"/>
       <use xlink:href="#DejaVuSans-30" x="63.623047"/>
      </g>
     </g>
    </g>
    <g id="xtick_7">
     <g id="line2d_13">
      <path d="M 837.401709 318.04 
L 837.401709 26.88 
" clip-path="url(#pf25625b092)" style="fill: none; stroke: #b0b0b0; stroke-width: 0.8; stroke-linecap: square"/>
     </g>
     <g id="line2d_14">
      <g>
       <use xlink:href="#me796cd5791" x="837.401709" y="318.04" style="stroke: #000000; stroke-width: 0.8"/>
      </g>
     </g>
     <g id="text_7">
      <!-- 30 -->
      <g transform="translate(831.039209 332.638438) scale(0.1 -0.1)">
       <use xlink:href="#DejaVuSans-33"/>
       <use xlink:href="#DejaVuSans-30" x="63.623047"/>
      </g>
     </g>
    </g>
    <g id="text_8">
     <!-- Time Lag (s) -->
     <g transform="translate(424.242813 346.316563) scale(0.1 -0.1)">
      <defs>
       <path id="DejaVuSans-54" d="M -19 4666 
L 3928 4666 
L 3928 4134 
L 2272 4134 
L 2272 0 
L 1638 0 
L 1638 4134 
L -19 4134 
L -19 4666 
z
" transform="scale(0.015625)"/>
       <path id="DejaVuSans-69" d="M 603 3500 
L 1178 3500 
L 1178 0 
L 603 0 
L 603 3500 
z
M 603 4863 
L 1178 4863 
L 1178 4134 
L 603 4134 
L 603 4863 
z
" transform="scale(0.015625)"/>
       <path id="DejaVuSans-6d" d="M 3328 2828 
Q 3544 3216 3844 3400 
Q 4144 3584 4550 3584 
Q 5097 3584 5394 3201 
Q 5691 2819 5691 2113 
L 5691 0 
L 5113 0 
L 5113 2094 
Q 5113 2597 4934 2840 
Q 4756 3084 4391 3084 
Q 3944 3084 3684 2787 
Q 3425 2491 3425 1978 
L 3425 0 
L 2847 0 
L 2847 2094 
Q 2847 2600 2669 2842 
Q 2491 3084 2119 3084 
Q 1678 3084 1418 2786 
Q 1159 2488 1159 1978 
L 1159 0 
L 581 0 
L 581 3500 
L 1159 3500 
L 1159 2956 
Q 1356 3278 1631 3431 
Q 1906 3584 2284 3584 
Q 2666 3584 2933 3390 
Q 3200 3197 3328 2828 
z
" transform="scale(0.015625)"/>
       <path id="DejaVuSans-65" d="M 3597 1894 
L 3597 1613 
L 953 1613 
Q 991 1019 1311 708 
Q 1631 397 2203 397 
Q 2534 397 2845 478 
Q 3156 559 3463 722 
L 3463 178 
Q 3153 47 2828 -22 
Q 2503 -91 2169 -91 
Q 1331 -91 842 396 
Q 353 884 353 1716 
Q 353 2575 817 3079 
Q 1281 3584 2069 3584 
Q 2775 3584 3186 3129 
Q 3597 2675 3597 1894 
z
M 3022 2063 
Q 3016 2534 2758 2815 
Q 2500 3097 2075 3097 
Q 1594 3097 1305 2825 
Q 1016 2553 972 2059 
L 3022 2063 
z
" transform="scale(0.015625)"/>
       <path id="DejaVuSans-20" transform="scale(0.015625)"/>
       <path id="DejaVuSans-4c" d="M 628 4666 
L 1259 4666 
L 1259 531 
L 3531 531 
L 3531 0 
L 628 0 
L 628 4666 
z
" transform="scale(0.015625)"/>
       <path id="DejaVuSans-61" d="M 2194 1759 
Q 1497 1759 1228 1600 
Q 959 1441 959 1056 
Q 959 750 1161 570 
Q 1363 391 1709 391 
Q 2188 391 2477 730 
Q 2766 1069 2766 1631 
L 2766 1759 
L 2194 1759 
z
M 3341 1997 
L 3341 0 
L 2766 0 
L 2766 531 
Q 2569 213 2275 61 
Q 1981 -91 1556 -91 
Q 1019 -91 701 211 
Q 384 513 384 1019 
Q 384 1609 779 1909 
Q 1175 2209 1959 2209 
L 2766 2209 
L 2766 2266 
Q 2766 2663 2505 2880 
Q 2244 3097 1772 3097 
Q 1472 3097 1187 3025 
Q 903 2953 641 2809 
L 641 3341 
Q 956 3463 1253 3523 
Q 1550 3584 1831 3584 
Q 2591 3584 2966 3190 
Q 3341 2797 3341 1997 
z
" transform="scale(0.015625)"/>
       <path id="DejaVuSans-67" d="M 2906 1791 
Q 2906 2416 2648 2759 
Q 2391 3103 1925 3103 
Q 1463 3103 1205 2759 
Q 947 2416 947 1791 
Q 947 1169 1205 825 
Q 1463 481 1925 481 
Q 2391 481 2648 825 
Q 2906 1169 2906 1791 
z
M 3481 434 
Q 3481 -459 3084 -895 
Q 2688 -1331 1869 -1331 
Q 1566 -1331 1297 -1286 
Q 1028 -1241 775 -1147 
L 775 -588 
Q 1028 -725 1275 -790 
Q 1522 -856 1778 -856 
Q 2344 -856 2625 -561 
Q 2906 -266 2906 331 
L 2906 616 
Q 2728 306 2450 153 
Q 2172 0 1784 0 
Q 1141 0 747 490 
Q 353 981 353 1791 
Q 353 2603 747 3093 
Q 1141 3584 1784 3584 
Q 2172 3584 2450 3431 
Q 2728 3278 2906 2969 
L 2906 3500 
L 3481 3500 
L 3481 434 
z
" transform="scale(0.015625)"/>
       <path id="DejaVuSans-28" d="M 1984 4856 
Q 1566 4138 1362 3434 
Q 1159 2731 1159 2009 
Q 1159 1288 1364 580 
Q 1569 -128 1984 -844 
L 1484 -844 
Q 1016 -109 783 600 
Q 550 1309 550 2009 
Q 550 2706 781 3412 
Q 1013 4119 1484 4856 
L 1984 4856 
z
" transform="scale(0.015625)"/>
       <path id="DejaVuSans-73" d="M 2834 3397 
L 2834 2853 
Q 2591 2978 2328 3040 
Q 2066 3103 1784 3103 
Q 1356 3103 1142 2972 
Q 928 2841 928 2578 
Q 928 2378 1081 2264 
Q 1234 2150 1697 2047 
L 1894 2003 
Q 2506 1872 2764 1633 
Q 3022 1394 3022 966 
Q 3022 478 2636 193 
Q 2250 -91 1575 -91 
Q 1294 -91 989 -36 
Q 684 19 347 128 
L 347 722 
Q 666 556 975 473 
Q 1284 391 1588 391 
Q 1994 391 2212 530 
Q 2431 669 2431 922 
Q 2431 1156 2273 1281 
Q 2116 1406 1581 1522 
L 1381 1569 
Q 847 1681 609 1914 
Q 372 2147 372 2553 
Q 372 3047 722 3315 
Q 1072 3584 1716 3584 
Q 2034 3584 2315 3537 
Q 2597 3491 2834 3397 
z
" transform="scale(0.015625)"/>
       <path id="DejaVuSans-29" d="M 513 4856 
L 1013 4856 
Q 1481 4119 1714 3412 
Q 1947 2706 1947 2009 
Q 1947 1309 1714 600 
Q 1481 -109 1013 -844 
L 513 -844 
Q 928 -128 1133 580 
Q 1338 1288 1338 2009 
Q 1338 2731 1133 3434 
Q 928 4138 513 4856 
z
" transform="scale(0.015625)"/>
      </defs>
      <use xlink:href="#DejaVuSans-54"/>
      <use xlink:href="#DejaVuSans-69" x="57.958984"/>
      <use xlink:href="#DejaVuSans-6d" x="85.742188"/>
      <use xlink:href="#DejaVuSans-65" x="183.154297"/>
      <use xlink:href="#DejaVuSans-20" x="244.677734"/>
      <use xlink:href="#DejaVuSans-4c" x="276.464844"/>
      <use xlink:href="#DejaVuSans-61" x="332.177734"/>
      <use xlink:href="#DejaVuSans-67" x="393.457031"/>
      <use xlink:href="#DejaVuSans-20" x="456.933594"/>
      <use xlink:href="#DejaVuSans-28" x="488.720703"/>
      <use xlink:href="#DejaVuSans-73" x="527.734375"/>
      <use xlink:href="#DejaVuSans-29" x="579.833984"/>
     </g>
    </g>
   </g>
   <g id="matplotlib.axis_2">
    <g id="ytick_1">
     <g id="line2d_15">
      <path d="M 57.17 313.415148 
L 853.2 313.415148 
" clip-path="url(#pf25625b092)" style="fill: none; stroke: #b0b0b0; stroke-width: 0.8; stroke-linecap: square"/>
     </g>
     <g id="line2d_16">
      <defs>
       <path id="maaffb207e7" d="M 0 0 
L -3.5 0 
" style="stroke: #000000; stroke-width: 0.8"/>
      </defs>
      <g>
       <use xlink:href="#maaffb207e7" x="57.17" y="313.415148" style="stroke: #000000; stroke-width: 0.8"/>
      </g>
     </g>
     <g id="text_9">
      <!-- 600 -->
      <g transform="translate(31.0825 317.214367) scale(0.1 -0.1)">
       <defs>
        <path id="DejaVuSans-36" d="M 2113 2584 
Q 1688 2584 1439 2293 
Q 1191 2003 1191 1497 
Q 1191 994 1439 701 
Q 1688 409 2113 409 
Q 2538 409 2786 701 
Q 3034 994 3034 1497 
Q 3034 2003 2786 2293 
Q 2538 2584 2113 2584 
z
M 3366 4563 
L 3366 3988 
Q 3128 4100 2886 4159 
Q 2644 4219 2406 4219 
Q 1781 4219 1451 3797 
Q 1122 3375 1075 2522 
Q 1259 2794 1537 2939 
Q 1816 3084 2150 3084 
Q 2853 3084 3261 2657 
Q 3669 2231 3669 1497 
Q 3669 778 3244 343 
Q 2819 -91 2113 -91 
Q 1303 -91 875 529 
Q 447 1150 447 2328 
Q 447 3434 972 4092 
Q 1497 4750 2381 4750 
Q 2619 4750 2861 4703 
Q 3103 4656 3366 4563 
z
" transform="scale(0.015625)"/>
       </defs>
       <use xlink:href="#DejaVuSans-36"/>
       <use xlink:href="#DejaVuSans-30" x="63.623047"/>
       <use xlink:href="#DejaVuSans-30" x="127.246094"/>
      </g>
     </g>
    </g>
    <g id="ytick_2">
     <g id="line2d_17">
      <path d="M 57.17 252.498063 
L 853.2 252.498063 
" clip-path="url(#pf25625b092)" style="fill: none; stroke: #b0b0b0; stroke-width: 0.8; stroke-linecap: square"/>
     </g>
     <g id="line2d_18">
      <g>
       <use xlink:href="#maaffb207e7" x="57.17" y="252.498063" style="stroke: #000000; stroke-width: 0.8"/>
      </g>
     </g>
     <g id="text_10">
      <!-- 800 -->
      <g transform="translate(31.0825 256.297282) scale(0.1 -0.1)">
       <defs>
        <path id="DejaVuSans-38" d="M 2034 2216 
Q 1584 2216 1326 1975 
Q 1069 1734 1069 1313 
Q 1069 891 1326 650 
Q 1584 409 2034 409 
Q 2484 409 2743 651 
Q 3003 894 3003 1313 
Q 3003 1734 2745 1975 
Q 2488 2216 2034 2216 
z
M 1403 2484 
Q 997 2584 770 2862 
Q 544 3141 544 3541 
Q 544 4100 942 4425 
Q 1341 4750 2034 4750 
Q 2731 4750 3128 4425 
Q 3525 4100 3525 3541 
Q 3525 3141 3298 2862 
Q 3072 2584 2669 2484 
Q 3125 2378 3379 2068 
Q 3634 1759 3634 1313 
Q 3634 634 3220 271 
Q 2806 -91 2034 -91 
Q 1263 -91 848 271 
Q 434 634 434 1313 
Q 434 1759 690 2068 
Q 947 2378 1403 2484 
z
M 1172 3481 
Q 1172 3119 1398 2916 
Q 1625 2713 2034 2713 
Q 2441 2713 2670 2916 
Q 2900 3119 2900 3481 
Q 2900 3844 2670 4047 
Q 2441 4250 2034 4250 
Q 1625 4250 1398 4047 
Q 1172 3844 1172 3481 
z
" transform="scale(0.015625)"/>
       </defs>
       <use xlink:href="#DejaVuSans-38"/>
       <use xlink:href="#DejaVuSans-30" x="63.623047"/>
       <use xlink:href="#DejaVuSans-30" x="127.246094"/>
      </g>
     </g>
    </g>
    <g id="ytick_3">
     <g id="line2d_19">
      <path d="M 57.17 191.580977 
L 853.2 191.580977 
" clip-path="url(#pf25625b092)" style="fill: none; stroke: #b0b0b0; stroke-width: 0.8; stroke-linecap: square"/>
     </g>
     <g id="line2d_20">
      <g>
       <use xlink:href="#maaffb207e7" x="57.17" y="191.580977" style="stroke: #000000; stroke-width: 0.8"/>
      </g>
     </g>
     <g id="text_11">
      <!-- 1000 -->
      <g transform="translate(24.72 195.380196) scale(0.1 -0.1)">
       <use xlink:href="#DejaVuSans-31"/>
       <use xlink:href="#DejaVuSans-30" x="63.623047"/>
       <use xlink:href="#DejaVuSans-30" x="127.246094"/>
       <use xlink:href="#DejaVuSans-30" x="190.869141"/>
      </g>
     </g>
    </g>
    <g id="ytick_4">
     <g id="line2d_21">
      <path d="M 57.17 130.663892 
L 853.2 130.663892 
" clip-path="url(#pf25625b092)" style="fill: none; stroke: #b0b0b0; stroke-width: 0.8; stroke-linecap: square"/>
     </g>
     <g id="line2d_22">
      <g>
       <use xlink:href="#maaffb207e7" x="57.17" y="130.663892" style="stroke: #000000; stroke-width: 0.8"/>
      </g>
     </g>
     <g id="text_12">
      <!-- 1200 -->
      <g transform="translate(24.72 134.463111) scale(0.1 -0.1)">
       <use xlink:href="#DejaVuSans-31"/>
       <use xlink:href="#DejaVuSans-32" x="63.623047"/>
       <use xlink:href="#DejaVuSans-30" x="127.246094"/>
       <use xlink:href="#DejaVuSans-30" x="190.869141"/>
      </g>
     </g>
    </g>
    <g id="ytick_5">
     <g id="line2d_23">
      <path d="M 57.17 69.746807 
L 853.2 69.746807 
" clip-path="url(#pf25625b092)" style="fill: none; stroke: #b0b0b0; stroke-width: 0.8; stroke-linecap: square"/>
     </g>
     <g id="line2d_24">
      <g>
       <use xlink:href="#maaffb207e7" x="57.17" y="69.746807" style="stroke: #000000; stroke-width: 0.8"/>
      </g>
     </g>
     <g id="text_13">
      <!-- 1400 -->
      <g transform="translate(24.72 73.546025) scale(0.1 -0.1)">
       <defs>
        <path id="DejaVuSans-34" d="M 2419 4116 
L 825 1625 
L 2419 1625 
L 2419 4116 
z
M 2253 4666 
L 3047 4666 
L 3047 1625 
L 3713 1625 
L 3713 1100 
L 3047 1100 
L 3047 0 
L 2419 0 
L 2419 1100 
L 313 1100 
L 313 1709 
L 2253 4666 
z
" transform="scale(0.015625)"/>
       </defs>
       <use xlink:href="#DejaVuSans-31"/>
       <use xlink:href="#DejaVuSans-34" x="63.623047"/>
       <use xlink:href="#DejaVuSans-30" x="127.246094"/>
       <use xlink:href="#DejaVuSans-30" x="190.869141"/>
      </g>
     </g>
    </g>
    <g id="text_14">
     <!-- Cross-correlation -->
     <g transform="translate(18.640312 214.793594) rotate(-90) scale(0.1 -0.1)">
      <defs>
       <path id="DejaVuSans-43" d="M 4122 4306 
L 4122 3641 
Q 3803 3938 3442 4084 
Q 3081 4231 2675 4231 
Q 1875 4231 1450 3742 
Q 1025 3253 1025 2328 
Q 1025 1406 1450 917 
Q 1875 428 2675 428 
Q 3081 428 3442 575 
Q 3803 722 4122 1019 
L 4122 359 
Q 3791 134 3420 21 
Q 3050 -91 2638 -91 
Q 1578 -91 968 557 
Q 359 1206 359 2328 
Q 359 3453 968 4101 
Q 1578 4750 2638 4750 
Q 3056 4750 3426 4639 
Q 3797 4528 4122 4306 
z
" transform="scale(0.015625)"/>
       <path id="DejaVuSans-72" d="M 2631 2963 
Q 2534 3019 2420 3045 
Q 2306 3072 2169 3072 
Q 1681 3072 1420 2755 
Q 1159 2438 1159 1844 
L 1159 0 
L 581 0 
L 581 3500 
L 1159 3500 
L 1159 2956 
Q 1341 3275 1631 3429 
Q 1922 3584 2338 3584 
Q 2397 3584 2469 3576 
Q 2541 3569 2628 3553 
L 2631 2963 
z
" transform="scale(0.015625)"/>
       <path id="DejaVuSans-6f" d="M 1959 3097 
Q 1497 3097 1228 2736 
Q 959 2375 959 1747 
Q 959 1119 1226 758 
Q 1494 397 1959 397 
Q 2419 397 2687 759 
Q 2956 1122 2956 1747 
Q 2956 2369 2687 2733 
Q 2419 3097 1959 3097 
z
M 1959 3584 
Q 2709 3584 3137 3096 
Q 3566 2609 3566 1747 
Q 3566 888 3137 398 
Q 2709 -91 1959 -91 
Q 1206 -91 779 398 
Q 353 888 353 1747 
Q 353 2609 779 3096 
Q 1206 3584 1959 3584 
z
" transform="scale(0.015625)"/>
       <path id="DejaVuSans-2d" d="M 313 2009 
L 1997 2009 
L 1997 1497 
L 313 1497 
L 313 2009 
z
" transform="scale(0.015625)"/>
       <path id="DejaVuSans-63" d="M 3122 3366 
L 3122 2828 
Q 2878 2963 2633 3030 
Q 2388 3097 2138 3097 
Q 1578 3097 1268 2742 
Q 959 2388 959 1747 
Q 959 1106 1268 751 
Q 1578 397 2138 397 
Q 2388 397 2633 464 
Q 2878 531 3122 666 
L 3122 134 
Q 2881 22 2623 -34 
Q 2366 -91 2075 -91 
Q 1284 -91 818 406 
Q 353 903 353 1747 
Q 353 2603 823 3093 
Q 1294 3584 2113 3584 
Q 2378 3584 2631 3529 
Q 2884 3475 3122 3366 
z
" transform="scale(0.015625)"/>
       <path id="DejaVuSans-6c" d="M 603 4863 
L 1178 4863 
L 1178 0 
L 603 0 
L 603 4863 
z
" transform="scale(0.015625)"/>
       <path id="DejaVuSans-74" d="M 1172 4494 
L 1172 3500 
L 2356 3500 
L 2356 3053 
L 1172 3053 
L 1172 1153 
Q 1172 725 1289 603 
Q 1406 481 1766 481 
L 2356 481 
L 2356 0 
L 1766 0 
Q 1100 0 847 248 
Q 594 497 594 1153 
L 594 3053 
L 172 3053 
L 172 3500 
L 594 3500 
L 594 4494 
L 1172 4494 
z
" transform="scale(0.015625)"/>
       <path id="DejaVuSans-6e" d="M 3513 2113 
L 3513 0 
L 2938 0 
L 2938 2094 
Q 2938 2591 2744 2837 
Q 2550 3084 2163 3084 
Q 1697 3084 1428 2787 
Q 1159 2491 1159 1978 
L 1159 0 
L 581 0 
L 581 3500 
L 1159 3500 
L 1159 2956 
Q 1366 3272 1645 3428 
Q 1925 3584 2291 3584 
Q 2894 3584 3203 3211 
Q 3513 2838 3513 2113 
z
" transform="scale(0.015625)"/>
      </defs>
      <use xlink:href="#DejaVuSans-43"/>
      <use xlink:href="#DejaVuSans-72" x="69.824219"/>
      <use xlink:href="#DejaVuSans-6f" x="108.6875"/>
      <use xlink:href="#DejaVuSans-73" x="169.869141"/>
      <use xlink:href="#DejaVuSans-73" x="221.96875"/>
      <use xlink:href="#DejaVuSans-2d" x="274.068359"/>
      <use xlink:href="#DejaVuSans-63" x="310.152344"/>
      <use xlink:href="#DejaVuSans-6f" x="365.132812"/>
      <use xlink:href="#DejaVuSans-72" x="426.314453"/>
      <use xlink:href="#DejaVuSans-72" x="465.677734"/>
      <use xlink:href="#DejaVuSans-65" x="504.541016"/>
      <use xlink:href="#DejaVuSans-6c" x="566.064453"/>
      <use xlink:href="#DejaVuSans-61" x="593.847656"/>
      <use xlink:href="#DejaVuSans-74" x="655.126953"/>
      <use xlink:href="#DejaVuSans-69" x="694.335938"/>
      <use xlink:href="#DejaVuSans-6f" x="722.119141"/>
      <use xlink:href="#DejaVuSans-6e" x="783.300781"/>
     </g>
    </g>
   </g>
   <g id="line2d_25">
    <path d="M 93.353182 263.965495 
L 95.646482 262.857899 
L 96.538321 262.056838 
L 97.557566 260.765869 
L 99.72346 257.882942 
L 100.360488 257.360952 
L 100.997516 257.112251 
L 101.761949 257.069848 
L 103.673033 257.119814 
L 104.564872 256.885331 
L 105.2019 256.47877 
L 106.34855 255.407813 
L 109.7885 251.78254 
L 110.93515 250.18758 
L 112.97364 247.211542 
L 113.738073 246.508217 
L 114.247695 246.297166 
L 114.757318 246.296375 
L 115.394345 246.536045 
L 116.795807 247.451573 
L 117.687646 247.841832 
L 118.324673 247.890916 
L 118.834296 247.686338 
L 119.471324 247.14896 
L 120.363163 246.043781 
L 127.115658 236.849518 
L 127.752686 236.500086 
L 128.262308 236.477454 
L 128.77193 236.665196 
L 129.408958 237.13388 
L 131.574853 238.97556 
L 132.084475 239.11717 
L 132.594097 238.976123 
L 133.10372 238.559414 
L 133.740747 237.718298 
L 134.759992 235.919402 
L 137.308103 231.260549 
L 138.582159 229.534071 
L 139.856215 228.172814 
L 140.748054 227.523626 
L 141.385082 227.318154 
L 141.894704 227.367659 
L 142.531732 227.665169 
L 143.423571 228.394199 
L 144.825032 229.575313 
L 145.46206 229.832693 
L 145.844277 229.835836 
L 146.226493 229.652387 
L 146.736116 229.135821 
L 147.373143 228.122116 
L 148.264982 226.229917 
L 150.813094 220.538493 
L 151.704933 219.247789 
L 152.596772 218.358062 
L 153.616016 217.681706 
L 154.507855 217.357786 
L 155.144883 217.336978 
L 155.781911 217.510042 
L 156.546344 217.945875 
L 159.349267 219.841359 
L 159.731484 219.815193 
L 160.241106 219.509503 
L 160.750728 218.925386 
L 161.515162 217.631554 
L 162.789217 214.901035 
L 164.318084 211.719993 
L 165.082518 210.653329 
L 165.846951 209.97942 
L 166.73879 209.521752 
L 167.758035 209.27061 
L 168.649874 209.27908 
L 169.541713 209.514159 
L 170.560957 210.012889 
L 172.344635 210.954129 
L 172.981663 211.035842 
L 173.491285 210.882397 
L 174.000907 210.438726 
L 174.637935 209.531949 
L 175.529774 207.794206 
L 177.823075 203.125502 
L 178.460102 202.344675 
L 179.09713 201.945942 
L 179.734158 201.823113 
L 180.753403 201.906895 
L 184.065948 202.318637 
L 185.977031 202.308699 
L 186.741464 202.086909 
L 187.251087 201.768682 
L 187.888115 201.064205 
L 188.652548 199.848212 
L 191.837687 194.208094 
L 192.34731 193.838217 
L 192.856932 193.70108 
L 193.49396 193.762881 
L 194.895421 194.234656 
L 196.169477 194.56309 
L 196.93391 194.565701 
L 198.08056 194.313556 
L 200.501266 193.544277 
L 201.138294 193.133814 
L 201.902727 192.329204 
L 202.921972 190.891426 
L 204.833055 188.138069 
L 205.597489 187.412485 
L 206.107111 187.231776 
L 206.744139 187.285853 
L 207.635978 187.651927 
L 208.910034 188.143301 
L 209.674467 188.207056 
L 210.311495 188.063854 
L 211.075928 187.593114 
L 212.349984 186.437346 
L 216.936585 181.925241 
L 218.21064 180.663971 
L 219.102479 180.075682 
L 219.612101 179.96594 
L 220.249129 180.078627 
L 221.395779 180.5917 
L 222.415024 180.962918 
L 223.052052 180.992206 
L 223.68908 180.817447 
L 224.326108 180.369856 
L 225.217947 179.375972 
L 228.020869 175.963593 
L 230.186764 174.101545 
L 231.460819 173.269024 
L 232.352658 172.944535 
L 233.117092 172.887529 
L 233.75412 173.118888 
L 235.155581 173.975944 
L 236.04742 174.363723 
L 236.684448 174.37199 
L 237.19407 174.166866 
L 237.703692 173.756696 
L 238.34072 172.940903 
L 239.359965 171.19793 
L 241.398454 167.618232 
L 242.290293 166.557388 
L 243.309537 165.672707 
L 244.201376 165.197001 
L 244.96581 165.024082 
L 245.730243 165.083603 
L 246.622082 165.405635 
L 247.386516 165.956458 
L 249.042788 167.280594 
L 249.679816 167.460234 
L 250.189438 167.342346 
L 250.69906 166.94663 
L 251.208683 166.259417 
L 251.845711 165.012716 
L 252.864955 162.400647 
L 254.903444 156.973603 
L 255.667878 155.612325 
L 256.432311 154.770684 
L 257.069339 154.411927 
L 257.578961 154.351579 
L 258.088584 154.479951 
L 258.725611 154.887127 
L 259.490045 155.675855 
L 260.636695 157.22329 
L 262.165562 159.378464 
L 262.80259 159.921863 
L 263.312212 160.06361 
L 263.694429 159.957949 
L 264.076645 159.649884 
L 264.586268 158.902215 
L 265.223295 157.441348 
L 265.987729 155.080189 
L 268.918057 145.237704 
L 269.555085 144.141189 
L 270.064707 143.655137 
L 270.574329 143.492352 
L 270.956546 143.581009 
L 271.466168 143.957499 
L 272.103196 144.787959 
L 272.995035 146.444525 
L 275.415741 151.323749 
L 276.052769 152.112995 
L 276.562391 152.419907 
L 276.944608 152.418727 
L 277.326825 152.196953 
L 277.709041 151.742769 
L 278.218664 150.765818 
L 278.855691 148.975465 
L 279.74753 145.702723 
L 282.168236 136.366175 
L 282.805264 134.859643 
L 283.314886 134.173578 
L 283.697103 133.937963 
L 284.07932 133.92581 
L 284.461536 134.135458 
L 284.971159 134.733286 
L 285.608187 135.916676 
L 286.500026 138.155957 
L 288.66592 143.940375 
L 289.302948 145.071938 
L 289.81257 145.620006 
L 290.194787 145.787797 
L 290.577004 145.723276 
L 290.959221 145.410041 
L 291.468843 144.589669 
L 291.978465 143.309568 
L 292.742899 140.62571 
L 294.016954 135.052197 
L 295.418415 129.101826 
L 296.182849 126.753568 
L 296.692471 125.745631 
L 297.074688 125.325742 
L 297.456905 125.16143 
L 297.839121 125.243063 
L 298.221338 125.565295 
L 298.73096 126.334497 
L 299.367988 127.755055 
L 300.259827 130.343834 
L 302.425722 136.880384 
L 303.06275 138.11313 
L 303.572372 138.699074 
L 303.954589 138.87158 
L 304.336805 138.792979 
L 304.719022 138.448601 
L 305.228644 137.560647 
L 305.738267 136.184194 
L 306.5027 133.319394 
L 307.904161 126.909769 
L 309.178217 121.474445 
L 309.94265 119.197219 
L 310.452273 118.287951 
L 310.834489 117.965446 
L 311.216706 117.915928 
L 311.598923 118.123953 
L 312.108545 118.775431 
L 312.745573 120.091121 
L 313.637412 122.576217 
L 315.930712 129.269879 
L 316.56774 130.397255 
L 317.077362 130.902741 
L 317.459579 131.028005 
L 317.841796 130.918589 
L 318.224012 130.561679 
L 318.733635 129.686482 
L 319.243257 128.342391 
L 319.880285 126.031469 
L 321.154341 120.227469 
L 322.683207 113.448004 
L 323.447641 111.100611 
L 323.957263 110.167123 
L 324.33948 109.844033 
L 324.721697 109.84491 
L 325.103913 110.120941 
L 325.613536 110.888773 
L 326.250563 112.380853 
L 327.269808 115.498229 
L 328.92608 120.550323 
L 329.563108 121.929457 
L 330.07273 122.6187 
L 330.454947 122.872552 
L 330.837164 122.897273 
L 331.219381 122.692329 
L 331.601597 122.257158 
L 332.11122 121.320205 
L 332.748247 119.585152 
L 333.512681 116.728925 
L 336.315603 105.16032 
L 336.952631 103.642621 
L 337.462254 103.002953 
L 337.84447 102.891206 
L 338.226687 103.101647 
L 338.736309 103.815789 
L 339.373337 105.263641 
L 340.265176 107.980328 
L 341.921448 113.079435 
L 342.685882 114.667084 
L 343.195504 115.275462 
L 343.577721 115.436222 
L 343.959938 115.340924 
L 344.342154 115.00245 
L 344.851777 114.207836 
L 345.488804 112.732336 
L 346.253238 110.355761 
L 347.272482 106.358062 
L 348.801349 100.262211 
L 349.565783 98.00651 
L 350.20281 96.74826 
L 350.712433 96.239559 
L 351.094649 96.184776 
L 351.476866 96.422412 
L 351.859083 96.948268 
L 352.496111 98.363062 
L 353.38795 101.046552 
L 355.171628 106.619682 
L 355.808656 107.972236 
L 356.318278 108.641915 
L 356.700495 108.880634 
L 357.082711 108.847527 
L 357.464928 108.538171 
L 357.97455 107.737882 
L 358.611578 106.209692 
L 359.503417 103.319331 
L 360.777473 98.26952 
L 362.178934 92.851005 
L 362.943367 90.818119 
L 363.45299 89.937641 
L 363.962612 89.483743 
L 364.344829 89.444623 
L 364.727045 89.675691 
L 365.109262 90.178079 
L 365.618884 91.246552 
L 366.383318 93.497974 
L 368.804024 101.116195 
L 369.313646 102.012843 
L 369.823268 102.464026 
L 370.205485 102.492482 
L 370.587702 102.244284 
L 370.969918 101.687775 
L 371.479541 100.508927 
L 372.116569 98.456601 
L 373.135813 94.286337 
L 375.429113 84.574005 
L 376.066141 82.775496 
L 376.575763 81.836274 
L 376.95798 81.443584 
L 377.340197 81.326088 
L 377.722414 81.485807 
L 378.10463 81.919313 
L 378.614253 82.913818 
L 379.25128 84.770806 
L 380.143119 88.195201 
L 381.799392 94.660149 
L 382.43642 96.321856 
L 382.946042 97.058546 
L 383.328259 97.214642 
L 383.58307 97.122075 
L 383.965286 96.689522 
L 384.347503 95.90644 
L 384.857125 94.305195 
L 385.621559 90.946519 
L 387.150426 82.678571 
L 388.297076 77.162754 
L 389.061509 74.523026 
L 389.571132 73.416387 
L 389.953348 72.951665 
L 390.335565 72.803579 
L 390.717782 72.967812 
L 391.099998 73.431336 
L 391.609621 74.478083 
L 392.246649 76.385313 
L 393.138488 79.896721 
L 395.431788 89.35286 
L 395.94141 90.531277 
L 396.323627 91.001865 
L 396.578438 91.098597 
L 396.833249 91.014222 
L 397.215466 90.541166 
L 397.597682 89.658648 
L 398.107305 87.879902 
L 398.744333 84.742973 
L 399.763577 78.358607 
L 401.292444 68.778101 
L 402.056877 65.328737 
L 402.5665 63.827962 
L 403.076122 63.014361 
L 403.458339 62.861299 
L 403.71315 62.978448 
L 404.095367 63.476133 
L 404.604989 64.701865 
L 405.242017 67.007881 
L 406.133856 71.271363 
L 408.427156 82.854248 
L 409.064184 84.915813 
L 409.573806 85.802857 
L 409.828617 85.957445 
L 410.083428 85.907395 
L 410.338239 85.646657 
L 410.720456 84.856217 
L 411.230078 83.071811 
L 411.867106 79.777493 
L 412.63154 74.501897 
L 415.179651 55.619407 
L 415.816679 52.850689 
L 416.198896 51.87719 
L 416.581112 51.463953 
L 416.835923 51.506772 
L 417.090735 51.804558 
L 417.472951 52.721502 
L 417.982574 54.779677 
L 418.619601 58.532141 
L 419.51144 65.428408 
L 421.932146 85.384717 
L 422.569174 88.720643 
L 423.078796 90.340202 
L 423.461013 90.875711 
L 423.715824 90.894324 
L 423.970635 90.637708 
L 424.352852 89.740269 
L 424.862474 87.620577 
L 425.499502 83.646902 
L 426.391341 76.259343 
L 428.557236 57.298008 
L 429.194264 53.623587 
L 429.703886 51.839385 
L 430.086103 51.264176 
L 430.340914 51.26123 
L 430.595725 51.565342 
L 430.977942 52.590513 
L 431.487564 54.977491 
L 432.124592 59.430136 
L 433.016431 67.752513 
L 435.564542 93.379752 
L 436.20157 97.326765 
L 436.711192 99.186634 
L 437.093409 99.747179 
L 437.34822 99.705332 
L 437.603031 99.325342 
L 437.985248 98.124758 
L 438.49487 95.392715 
L 439.131898 90.360993 
L 440.023737 81.078189 
L 442.189632 57.108212 
L 442.82666 52.422855 
L 443.336282 50.127326 
L 443.718499 49.359407 
L 443.97331 49.323378 
L 444.228121 49.672333 
L 444.610338 50.907414 
L 445.11996 53.818546 
L 445.756988 59.251119 
L 446.648827 69.288967 
L 448.814722 94.867075 
L 449.451749 99.80362 
L 449.961372 102.225609 
L 450.343588 103.053198 
L 450.598399 103.113967 
L 450.853211 102.776061 
L 451.235427 101.523197 
L 451.617644 99.397029 
L 452.127266 95.292648 
L 452.8917 86.822809 
L 454.03835 70.949914 
L 455.439811 52.017925 
L 456.204245 44.645071 
L 456.713867 41.562131 
L 457.096084 40.359694 
L 457.350895 40.114545 
L 457.605706 40.32129 
L 457.860517 40.978368 
L 458.242734 42.787087 
L 458.752356 46.637477 
L 459.389384 53.434841 
L 460.408628 67.335065 
L 462.064901 90.323038 
L 462.829334 97.981637 
L 463.338956 101.322227 
L 463.721173 102.777349 
L 463.975984 103.22982 
L 464.230795 103.265967 
L 464.485607 102.889567 
L 464.867823 101.571549 
L 465.377446 98.492274 
L 466.014473 92.786584 
L 466.906312 82.28171 
L 468.944802 56.965462 
L 469.581829 51.473767 
L 470.091452 48.610164 
L 470.473668 47.471821 
L 470.72848 47.225188 
L 470.983291 47.396112 
L 471.238102 47.981396 
L 471.620319 49.614179 
L 472.129941 53.107436 
L 472.766969 59.293692 
L 473.786213 72.018899 
L 475.569891 94.810522 
L 476.334325 101.77604 
L 476.843947 104.856303 
L 477.226164 106.24575 
L 477.480975 106.721118 
L 477.735786 106.836512 
L 477.990597 106.597342 
L 478.245408 106.013026 
L 478.627625 104.519137 
L 479.137247 101.473699 
L 479.774275 96.256457 
L 480.79352 85.833946 
L 482.322386 70.247276 
L 483.08682 64.656356 
L 483.596442 62.300206 
L 483.978659 61.361018 
L 484.23347 61.14996 
L 484.488281 61.284326 
L 484.743092 61.76413 
L 485.125309 63.113401 
L 485.634931 66.009021 
L 486.271959 71.147742 
L 487.163798 80.365652 
L 489.329693 103.680207 
L 490.094126 109.161462 
L 490.603748 111.459119 
L 490.985965 112.402339 
L 491.240776 112.651011 
L 491.495587 112.596651 
L 491.750399 112.24393 
L 492.132615 111.173308 
L 492.642238 108.803601 
L 493.279265 104.548278 
L 494.29851 95.878192 
L 495.827377 82.842652 
L 496.59181 78.221 
L 497.101432 76.338556 
L 497.483649 75.657687 
L 497.73846 75.569086 
L 497.993271 75.774662 
L 498.375488 76.598463 
L 498.757705 78.015339 
L 499.267327 80.748255 
L 500.031761 86.323932 
L 501.305816 97.793794 
L 502.579872 108.75904 
L 503.344305 113.780334 
L 503.981333 116.653639 
L 504.490956 117.958191 
L 504.873172 118.322266 
L 505.127983 118.269918 
L 505.382794 117.984996 
L 505.765011 117.134715 
L 506.274633 115.265861 
L 506.911661 111.930191 
L 507.8035 105.957003 
L 509.587178 93.575661 
L 510.224206 90.503785 
L 510.733828 88.961562 
L 511.116045 88.412018 
L 511.370856 88.346809 
L 511.625667 88.523155 
L 512.007884 89.237595 
L 512.390101 90.474186 
L 512.899723 92.86022 
L 513.664157 97.700212 
L 515.193023 109.44689 
L 516.339673 117.33191 
L 517.104107 121.130475 
L 517.613729 122.808114 
L 517.995946 123.56889 
L 518.378163 123.888153 
L 518.632974 123.855273 
L 518.887785 123.629374 
L 519.270002 122.941983 
L 519.779624 121.424216 
L 520.416652 118.717608 
L 521.435896 113.168118 
L 523.092169 103.935997 
L 523.729197 101.517387 
L 524.238819 100.352845 
L 524.621036 99.984006 
L 524.875847 99.986501 
L 525.130658 100.186382 
L 525.512875 100.846599 
L 526.022497 102.416327 
L 526.659525 105.364372 
L 527.551364 110.780461 
L 529.717258 124.6133 
L 530.481692 128.030118 
L 530.991314 129.542779 
L 531.500936 130.385424 
L 531.883153 130.573751 
L 532.137964 130.491261 
L 532.520181 130.067683 
L 533.029803 128.983343 
L 533.666831 126.913884 
L 534.55867 123.105399 
L 536.469754 114.70609 
L 537.106781 112.899811 
L 537.616404 112.094931 
L 537.99862 111.90897 
L 538.253431 111.990249 
L 538.635648 112.416575 
L 539.14527 113.518301 
L 539.654893 115.197263 
L 540.419326 118.644677 
L 541.948193 127.073299 
L 543.094843 132.806503 
L 543.859277 135.654699 
L 544.368899 136.927083 
L 544.878521 137.622241 
L 545.260738 137.769073 
L 545.642955 137.607104 
L 546.025171 137.152818 
L 546.534794 136.13177 
L 547.171821 134.283046 
L 548.191066 130.437224 
L 549.592527 125.176083 
L 550.229555 123.505945 
L 550.739177 122.697009 
L 551.121394 122.445181 
L 551.503611 122.517054 
L 551.885827 122.918062 
L 552.39545 123.948553 
L 553.032478 125.93606 
L 553.924317 129.712515 
L 556.345022 140.766377 
L 557.109456 143.133093 
L 557.746484 144.422105 
L 558.1287 144.833056 
L 558.510917 144.964652 
L 558.893134 144.832012 
L 559.275351 144.454803 
L 559.784973 143.610837 
L 560.422001 142.093525 
L 561.31384 139.343739 
L 562.970112 134.096542 
L 563.60714 132.840672 
L 564.116762 132.338242 
L 564.498979 132.291138 
L 564.881196 132.539227 
L 565.263412 133.084587 
L 565.773035 134.258631 
L 566.410062 136.362584 
L 567.429307 140.699329 
L 569.212985 148.359172 
L 569.977418 150.73337 
L 570.614446 152.080934 
L 571.124069 152.7177 
L 571.506285 152.935552 
L 571.888502 152.906989 
L 572.270719 152.64779 
L 572.780341 151.987899 
L 573.417369 150.749876 
L 574.309208 148.479525 
L 576.347697 143.030586 
L 576.857319 142.263094 
L 577.239536 141.976825 
L 577.621753 141.962295 
L 578.003969 142.233851 
L 578.386186 142.793819 
L 578.895808 143.975335 
L 579.532836 146.085166 
L 580.424675 149.920602 
L 582.208353 157.889552 
L 582.972786 160.336272 
L 583.609814 161.668143 
L 584.119437 162.246364 
L 584.501653 162.399173 
L 584.88387 162.3243 
L 585.266087 162.035062 
L 585.775709 161.320398 
L 586.412737 159.999219 
L 587.431981 157.293611 
L 589.215659 152.523727 
L 589.852687 151.365205 
L 590.234904 150.983522 
L 590.617121 150.88651 
L 590.999337 151.088904 
L 591.381554 151.596866 
L 591.891176 152.741443 
L 592.528204 154.855466 
L 593.420043 158.802714 
L 595.585938 169.065416 
L 596.222966 171.00986 
L 596.732588 171.995545 
L 597.114805 172.396846 
L 597.497021 172.520711 
L 597.879238 172.383884 
L 598.261455 172.009535 
L 598.771077 171.189376 
L 599.535511 169.415195 
L 602.593244 161.441894 
L 603.230272 160.625031 
L 603.612489 160.409607 
L 603.994706 160.471282 
L 604.376922 160.827273 
L 604.886544 161.757757 
L 605.396167 163.186538 
L 606.1606 166.12123 
L 607.30725 171.635375 
L 608.708712 178.246 
L 609.345739 180.351706 
L 609.855362 181.448893 
L 610.237578 181.906609 
L 610.619795 182.057472 
L 611.002012 181.921805 
L 611.384229 181.526776 
L 611.893851 180.649752 
L 612.658284 178.750689 
L 615.588612 170.720498 
L 616.22564 169.770951 
L 616.735262 169.36456 
L 617.117479 169.290644 
L 617.499696 169.452269 
L 617.881913 169.885007 
L 618.391535 170.882962 
L 619.028563 172.765483 
L 619.792996 175.796326 
L 621.449269 183.651708 
L 622.341108 187.402609 
L 622.978135 189.26063 
L 623.487758 190.159257 
L 623.869974 190.478173 
L 624.252191 190.5038 
L 624.634408 190.259687 
L 625.14403 189.570079 
L 625.781058 188.23948 
L 626.800302 185.449718 
L 628.329169 181.402735 
L 629.093603 179.943021 
L 629.730631 179.175608 
L 630.240253 178.906752 
L 630.62247 178.92567 
L 631.004686 179.147623 
L 631.386903 179.598532 
L 631.896525 180.571368 
L 632.533553 182.35294 
L 633.297987 185.194477 
L 636.228315 196.983836 
L 636.737937 198.039196 
L 637.247559 198.594725 
L 637.629776 198.687344 
L 638.011993 198.521633 
L 638.521615 197.950606 
L 639.158643 196.79474 
L 640.050482 194.64991 
L 641.451943 191.230018 
L 642.343782 189.620363 
L 642.98081 188.89686 
L 643.490432 188.628263 
L 643.872649 188.628975 
L 644.254866 188.813062 
L 644.764488 189.356392 
L 645.27411 190.257562 
L 645.911138 191.88033 
L 646.675571 194.452745 
L 649.605899 205.206529 
L 650.115522 206.199105 
L 650.625144 206.727161 
L 651.007361 206.82432 
L 651.389577 206.681918 
L 651.8992 206.166388 
L 652.536228 205.117991 
L 653.555472 202.909693 
L 654.956933 199.928317 
L 655.721367 198.802997 
L 656.358395 198.230499 
L 656.868017 198.04544 
L 657.377639 198.129295 
L 657.887262 198.505797 
L 658.396884 199.187201 
L 659.033912 200.476623 
L 659.798345 202.625279 
L 660.944995 206.694287 
L 662.473862 212.04545 
L 663.238295 213.929542 
L 663.747918 214.676919 
L 664.130134 214.943112 
L 664.512351 214.968232 
L 664.894568 214.770206 
L 665.40419 214.206594 
L 666.041218 213.13778 
L 667.315274 210.441167 
L 668.334518 208.452027 
L 668.971546 207.606004 
L 669.608574 207.134131 
L 670.118196 207.046875 
L 670.627819 207.234787 
L 671.137441 207.711746 
L 671.647063 208.488794 
L 672.284091 209.874818 
L 673.17593 212.461273 
L 676.361069 222.529517 
L 676.998097 223.489459 
L 677.380314 223.762558 
L 677.76253 223.804714 
L 678.144747 223.632854 
L 678.654369 223.11176 
L 679.291397 222.095772 
L 680.565453 219.485372 
L 681.712103 217.276777 
L 682.349131 216.462176 
L 682.858753 216.10921 
L 683.368375 216.041713 
L 683.877998 216.270444 
L 684.38762 216.803532 
L 684.897242 217.645703 
L 685.53427 219.127912 
L 686.426109 221.877411 
L 689.229032 231.114331 
L 689.86606 232.324699 
L 690.375682 232.874759 
L 690.757899 233.037346 
L 691.140115 232.982955 
L 691.522332 232.72766 
L 692.031954 232.122407 
L 692.796388 230.803872 
L 695.344499 226.037181 
L 695.981527 225.431032 
L 696.491149 225.257321 
L 697.000771 225.367576 
L 697.510394 225.760419 
L 698.020016 226.437275 
L 698.657044 227.68555 
L 699.421477 229.745769 
L 700.822939 234.454722 
L 702.096994 238.48845 
L 702.861428 240.264191 
L 703.37105 241.028502 
L 703.880672 241.41365 
L 704.262889 241.453919 
L 704.645106 241.293422 
L 705.154728 240.799518 
L 705.791756 239.826153 
L 706.938406 237.541587 
L 708.212462 235.103858 
L 708.976895 234.056974 
L 709.486517 233.669566 
L 709.99614 233.589582 
L 710.378356 233.73581 
L 710.887979 234.204322 
L 711.397601 234.979108 
L 712.034629 236.368533 
L 712.799062 238.614591 
L 714.073118 243.266889 
L 715.219768 247.167313 
L 715.984201 249.09967 
L 716.621229 250.106544 
L 717.003446 250.406493 
L 717.385663 250.471255 
L 717.767879 250.308257 
L 718.277502 249.770118 
L 718.914529 248.70244 
L 719.933774 246.451505 
L 721.462641 243.119663 
L 722.227074 241.95982 
L 722.864102 241.398073 
L 723.246319 241.299391 
L 723.628536 241.397782 
L 724.010752 241.694958 
L 724.520375 242.396132 
L 725.157402 243.732001 
L 725.921836 245.923359 
L 726.94108 249.59269 
L 728.469947 255.133241 
L 729.234381 257.07526 
L 729.744003 257.909159 
L 730.253625 258.339334 
L 730.635842 258.393366 
L 731.018059 258.225531 
L 731.527681 257.688144 
L 732.164709 256.611882 
L 733.311359 254.135941 
L 734.585415 251.51944 
L 735.349848 250.408952 
L 735.986876 249.846043 
L 736.496498 249.659808 
L 736.878715 249.710452 
L 737.388337 250.05734 
L 737.897959 250.720648 
L 738.534987 251.969577 
L 739.299421 254.001943 
L 740.446071 257.828162 
L 741.974938 262.964046 
L 742.739371 264.690758 
L 743.248993 265.392449 
L 743.758616 265.709026 
L 744.140832 265.696436 
L 744.523049 265.481481 
L 745.032671 264.916148 
L 745.797105 263.614154 
L 748.090405 259.381758 
L 748.727433 258.656363 
L 749.364461 258.257311 
L 749.874083 258.180927 
L 750.383705 258.334301 
L 750.893327 258.757795 
L 751.40295 259.461097 
L 752.039978 260.716303 
L 752.931817 263.068892 
L 754.333278 267.598485 
L 755.479928 271.112425 
L 756.116956 272.485457 
L 756.626578 273.198395 
L 757.1362 273.550056 
L 757.518417 273.580051 
L 757.900634 273.42097 
L 758.410256 272.945329 
L 759.047284 272.013927 
L 761.595395 267.812533 
L 762.232423 267.253516 
L 762.742045 267.039916 
L 763.251668 267.039909 
L 763.76129 267.251398 
L 764.270912 267.683085 
L 764.90794 268.556669 
L 765.672374 270.066313 
L 766.691618 272.680734 
L 769.112324 279.2663 
L 769.749352 280.319544 
L 770.258974 280.810806 
L 770.768596 280.990821 
L 771.278219 280.880193 
L 771.787841 280.517813 
L 772.552274 279.621047 
L 774.590763 276.928948 
L 775.355197 276.386789 
L 775.992225 276.230405 
L 776.501847 276.308399 
L 777.138875 276.650243 
L 777.775903 277.253299 
L 778.540336 278.340109 
L 779.432175 280.085055 
L 780.833636 283.490057 
L 782.362503 287.079789 
L 782.999531 288.118789 
L 783.509153 288.625486 
L 784.018776 288.841423 
L 784.528398 288.785811 
L 785.03802 288.49643 
L 785.802454 287.74353 
L 787.968348 285.333929 
L 788.605376 285.043049 
L 789.242404 285.021419 
L 789.879432 285.270465 
L 790.51646 285.771858 
L 791.280893 286.671454 
L 792.172732 288.117312 
L 793.319382 290.505348 
L 795.485277 295.188236 
L 796.24971 296.336962 
L 796.759333 296.773374 
L 797.268955 296.92304 
L 797.778577 296.816601 
L 798.415605 296.397194 
L 799.43485 295.349017 
L 800.708905 294.091261 
L 801.345933 293.782912 
L 801.855555 293.766991 
L 802.365178 293.943098 
L 803.002206 294.404715 
L 803.766639 295.258481 
L 804.785883 296.758696 
L 806.31475 299.448788 
L 808.353239 303.048373 
L 809.245078 304.152955 
L 809.882106 304.651084 
L 810.391729 304.804267 
L 810.901351 304.729477 
L 811.538379 304.38744 
L 812.685029 303.42731 
L 813.704273 302.673134 
L 814.341301 302.422814 
L 814.850923 302.415968 
L 815.360546 302.621457 
L 815.997574 303.135281 
L 816.762007 304.042896 
L 817.016818 304.399887 
L 817.016818 304.399887 
" clip-path="url(#pf25625b092)" style="fill: none; stroke: #0000ff; stroke-opacity: 0.7; stroke-width: 1.5; stroke-linecap: square"/>
   </g>
   <g id="line2d_26">
    <path d="M 457.350895 318.04 
L 457.350895 26.88 
" clip-path="url(#pf25625b092)" style="fill: none; stroke-dasharray: 5.55,2.4; stroke-dashoffset: 0; stroke: #ff0000; stroke-width: 1.5"/>
   </g>
   <g id="patch_3">
    <path d="M 57.17 318.04 
L 57.17 26.88 
" style="fill: none; stroke: #000000; stroke-width: 0.8; stroke-linejoin: miter; stroke-linecap: square"/>
   </g>
   <g id="patch_4">
    <path d="M 853.2 318.04 
L 853.2 26.88 
" style="fill: none; stroke: #000000; stroke-width: 0.8; stroke-linejoin: miter; stroke-linecap: square"/>
   </g>
   <g id="patch_5">
    <path d="M 57.17 318.04 
L 853.2 318.04 
" style="fill: none; stroke: #000000; stroke-width: 0.8; stroke-linejoin: miter; stroke-linecap: square"/>
   </g>
   <g id="patch_6">
    <path d="M 57.17 26.88 
L 853.2 26.88 
" style="fill: none; stroke: #000000; stroke-width: 0.8; stroke-linejoin: miter; stroke-linecap: square"/>
   </g>
   <g id="text_15">
    <!-- Cross-correlation Analysis -->
    <g transform="translate(377.757813 20.88) scale(0.12 -0.12)">
     <defs>
      <path id="DejaVuSans-41" d="M 2188 4044 
L 1331 1722 
L 3047 1722 
L 2188 4044 
z
M 1831 4666 
L 2547 4666 
L 4325 0 
L 3669 0 
L 3244 1197 
L 1141 1197 
L 716 0 
L 50 0 
L 1831 4666 
z
" transform="scale(0.015625)"/>
      <path id="DejaVuSans-79" d="M 2059 -325 
Q 1816 -950 1584 -1140 
Q 1353 -1331 966 -1331 
L 506 -1331 
L 506 -850 
L 844 -850 
Q 1081 -850 1212 -737 
Q 1344 -625 1503 -206 
L 1606 56 
L 191 3500 
L 800 3500 
L 1894 763 
L 2988 3500 
L 3597 3500 
L 2059 -325 
z
" transform="scale(0.015625)"/>
     </defs>
     <use xlink:href="#DejaVuSans-43"/>
     <use xlink:href="#DejaVuSans-72" x="69.824219"/>
     <use xlink:href="#DejaVuSans-6f" x="108.6875"/>
     <use xlink:href="#DejaVuSans-73" x="169.869141"/>
     <use xlink:href="#DejaVuSans-73" x="221.96875"/>
     <use xlink:href="#DejaVuSans-2d" x="274.068359"/>
     <use xlink:href="#DejaVuSans-63" x="310.152344"/>
     <use xlink:href="#DejaVuSans-6f" x="365.132812"/>
     <use xlink:href="#DejaVuSans-72" x="426.314453"/>
     <use xlink:href="#DejaVuSans-72" x="465.677734"/>
     <use xlink:href="#DejaVuSans-65" x="504.541016"/>
     <use xlink:href="#DejaVuSans-6c" x="566.064453"/>
     <use xlink:href="#DejaVuSans-61" x="593.847656"/>
     <use xlink:href="#DejaVuSans-74" x="655.126953"/>
     <use xlink:href="#DejaVuSans-69" x="694.335938"/>
     <use xlink:href="#DejaVuSans-6f" x="722.119141"/>
     <use xlink:href="#DejaVuSans-6e" x="783.300781"/>
     <use xlink:href="#DejaVuSans-20" x="846.679688"/>
     <use xlink:href="#DejaVuSans-41" x="878.466797"/>
     <use xlink:href="#DejaVuSans-6e" x="946.875"/>
     <use xlink:href="#DejaVuSans-61" x="1010.253906"/>
     <use xlink:href="#DejaVuSans-6c" x="1071.533203"/>
     <use xlink:href="#DejaVuSans-79" x="1099.316406"/>
     <use xlink:href="#DejaVuSans-73" x="1158.496094"/>
     <use xlink:href="#DejaVuSans-69" x="1210.595703"/>
     <use xlink:href="#DejaVuSans-73" x="1238.378906"/>
    </g>
   </g>
   <g id="legend_1">
    <g id="patch_7">
     <path d="M 647.6625 49.558125 
L 846.2 49.558125 
Q 848.2 49.558125 848.2 47.558125 
L 848.2 33.88 
Q 848.2 31.88 846.2 31.88 
L 647.6625 31.88 
Q 645.6625 31.88 645.6625 33.88 
L 645.6625 47.558125 
Q 645.6625 49.558125 647.6625 49.558125 
z
" style="fill: #ffffff; opacity: 0.8; stroke: #cccccc; stroke-linejoin: miter"/>
    </g>
    <g id="line2d_27">
     <path d="M 649.6625 39.978438 
L 659.6625 39.978438 
L 669.6625 39.978438 
" style="fill: none; stroke-dasharray: 5.55,2.4; stroke-dashoffset: 0; stroke: #ff0000; stroke-width: 1.5"/>
    </g>
    <g id="text_16">
     <!-- Best lag = 170 ms (corr = 0.264) -->
     <g transform="translate(677.6625 43.478438) scale(0.1 -0.1)">
      <defs>
       <path id="DejaVuSans-42" d="M 1259 2228 
L 1259 519 
L 2272 519 
Q 2781 519 3026 730 
Q 3272 941 3272 1375 
Q 3272 1813 3026 2020 
Q 2781 2228 2272 2228 
L 1259 2228 
z
M 1259 4147 
L 1259 2741 
L 2194 2741 
Q 2656 2741 2882 2914 
Q 3109 3088 3109 3444 
Q 3109 3797 2882 3972 
Q 2656 4147 2194 4147 
L 1259 4147 
z
M 628 4666 
L 2241 4666 
Q 2963 4666 3353 4366 
Q 3744 4066 3744 3513 
Q 3744 3084 3544 2831 
Q 3344 2578 2956 2516 
Q 3422 2416 3680 2098 
Q 3938 1781 3938 1306 
Q 3938 681 3513 340 
Q 3088 0 2303 0 
L 628 0 
L 628 4666 
z
" transform="scale(0.015625)"/>
       <path id="DejaVuSans-3d" d="M 678 2906 
L 4684 2906 
L 4684 2381 
L 678 2381 
L 678 2906 
z
M 678 1631 
L 4684 1631 
L 4684 1100 
L 678 1100 
L 678 1631 
z
" transform="scale(0.015625)"/>
       <path id="DejaVuSans-37" d="M 525 4666 
L 3525 4666 
L 3525 4397 
L 1831 0 
L 1172 0 
L 2766 4134 
L 525 4134 
L 525 4666 
z
" transform="scale(0.015625)"/>
       <path id="DejaVuSans-2e" d="M 684 794 
L 1344 794 
L 1344 0 
L 684 0 
L 684 794 
z
" transform="scale(0.015625)"/>
      </defs>
      <use xlink:href="#DejaVuSans-42"/>
      <use xlink:href="#DejaVuSans-65" x="68.603516"/>
      <use xlink:href="#DejaVuSans-73" x="130.126953"/>
      <use xlink:href="#DejaVuSans-74" x="182.226562"/>
      <use xlink:href="#DejaVuSans-20" x="221.435547"/>
      <use xlink:href="#DejaVuSans-6c" x="253.222656"/>
      <use xlink:href="#DejaVuSans-61" x="281.005859"/>
      <use xlink:href="#DejaVuSans-67" x="342.285156"/>
      <use xlink:href="#DejaVuSans-20" x="405.761719"/>
      <use xlink:href="#DejaVuSans-3d" x="437.548828"/>
      <use xlink:href="#DejaVuSans-20" x="521.337891"/>
      <use xlink:href="#DejaVuSans-31" x="553.125"/>
      <use xlink:href="#DejaVuSans-37" x="616.748047"/>
      <use xlink:href="#DejaVuSans-30" x="680.371094"/>
      <use xlink:href="#DejaVuSans-20" x="743.994141"/>
      <use xlink:href="#DejaVuSans-6d" x="775.78125"/>
      <use xlink:href="#DejaVuSans-73" x="873.193359"/>
      <use xlink:href="#DejaVuSans-20" x="925.292969"/>
      <use xlink:href="#DejaVuSans-28" x="957.080078"/>
      <use xlink:href="#DejaVuSans-63" x="996.09375"/>
      <use xlink:href="#DejaVuSans-6f" x="1051.074219"/>
      <use xlink:href="#DejaVuSans-72" x="1112.255859"/>
      <use xlink:href="#DejaVuSans-72" x="1151.619141"/>
      <use xlink:href="#DejaVuSans-20" x="1192.732422"/>
      <use xlink:href="#DejaVuSans-3d" x="1224.519531"/>
      <use xlink:href="#DejaVuSans-20" x="1308.308594"/>
      <use xlink:href="#DejaVuSans-30" x="1340.095703"/>
      <use xlink:href="#DejaVuSans-2e" x="1403.71875"/>
      <use xlink:href="#DejaVuSans-32" x="1435.505859"/>
      <use xlink:href="#DejaVuSans-36" x="1499.128906"/>
      <use xlink:href="#DejaVuSans-34" x="1562.751953"/>
      <use xlink:href="#DejaVuSans-29" x="1626.375"/>
     </g>
    </g>
   </g>
  </g>
 </g>
 <defs>
  <clipPath id="pf25625b092">
   <rect x="57.17" y="26.88" width="796.03" height="291.16"/>
  </clipPath>
 </defs>
</svg>
