<?xml version="1.0" encoding="utf-8" standalone="no"?>
<!DOCTYPE svg PUBLIC "-//W3C//DTD SVG 1.1//EN"
  "http://www.w3.org/Graphics/SVG/1.1/DTD/svg11.dtd">
<svg xmlns:xlink="http://www.w3.org/1999/xlink" width="864pt" height="360pt" viewBox="0 0 864 360" xmlns="http://www.w3.org/2000/svg" version="1.1">
 <metadata>
  <rdf:RDF xmlns:dc="http://purl.org/dc/elements/1.1/" xmlns:cc="http://creativecommons.org/ns#" xmlns:rdf="http://www.w3.org/1999/02/22-rdf-syntax-ns#">
   <cc:Work>
    <dc:type rdf:resource="http://purl.org/dc/dcmitype/StillImage"/>
    <dc:date>2025-12-02T14:56:16.631728</dc:date>
    <dc:format>image/svg+xml</dc:format>
    <dc:creator>
     <cc:Agent>
      <dc:title>Matplotlib v3.8.4, https://matplotlib.org/</dc:title>
     </cc:Agent>
    </dc:creator>
   </cc:Work>
  </rdf:RDF>
 </metadata>
 <defs>
  <style type="text/css">*{stroke-linejoin: round; stroke-linecap: butt}</style>
 </defs>
 <g id="figure_1">
  <g id="patch_1">
   <path d="M 0 360 
L 864 360 
L 864 0 
L 0 0 
z
" style="fill: #ffffff"/>
  </g>
  <g id="axes_1">
   <g id="patch_2">
    <path d="M 57.17 318.04 
L 853.2 318.04 
L 853.2 26.88 
L 57.17 26.88 
z
" style="fill: #ffffff"/>
   </g>
   <g id="matplotlib.axis_1">
    <g id="xtick_1">
     <g id="line2d_1">
      <path d="M 125.847787 318.04 
L 125.847787 26.88 
" clip-path="url(#p629c4074fb)" style="fill: none; stroke: #b0b0b0; stroke-width: 0.8; stroke-linecap: square"/>
     </g>
     <g id="line2d_2">
      <defs>
       <path id="m510e329062" d="M 0 0 
L 0 3.5 
" style="stroke: #000000; stroke-width: 0.8"/>
      </defs>
      <g>
       <use xlink:href="#m510e329062" x="125.847787" y="318.04" style="stroke: #000000; stroke-width: 0.8"/>
      </g>
     </g>
     <g id="text_1">
      <!-- −30 -->
      <g transform="translate(115.295443 332.638438) scale(0.1 -0.1)">
       <defs>
        <path id="DejaVuSans-2212" d="M 678 2272 
L 4684 2272 
L 4684 1741 
L 678 1741 
L 678 2272 
z
" transform="scale(0.015625)"/>
        <path id="DejaVuSans-33" d="M 2597 2516 
Q 3050 2419 3304 2112 
Q 3559 1806 3559 1356 
Q 3559 666 3084 287 
Q 2609 -91 1734 -91 
Q 1441 -91 1130 -33 
Q 819 25 488 141 
L 488 750 
Q 750 597 1062 519 
Q 1375 441 1716 441 
Q 2309 441 2620 675 
Q 2931 909 2931 1356 
Q 2931 1769 2642 2001 
Q 2353 2234 1838 2234 
L 1294 2234 
L 1294 2753 
L 1863 2753 
Q 2328 2753 2575 2939 
Q 2822 3125 2822 3475 
Q 2822 3834 2567 4026 
Q 2313 4219 1838 4219 
Q 1578 4219 1281 4162 
Q 984 4106 628 3988 
L 628 4550 
Q 988 4650 1302 4700 
Q 1616 4750 1894 4750 
Q 2613 4750 3031 4423 
Q 3450 4097 3450 3541 
Q 3450 3153 3228 2886 
Q 3006 2619 2597 2516 
z
" transform="scale(0.015625)"/>
        <path id="DejaVuSans-30" d="M 2034 4250 
Q 1547 4250 1301 3770 
Q 1056 3291 1056 2328 
Q 1056 1369 1301 889 
Q 1547 409 2034 409 
Q 2525 409 2770 889 
Q 3016 1369 3016 2328 
Q 3016 3291 2770 3770 
Q 2525 4250 2034 4250 
z
M 2034 4750 
Q 2819 4750 3233 4129 
Q 3647 3509 3647 2328 
Q 3647 1150 3233 529 
Q 2819 -91 2034 -91 
Q 1250 -91 836 529 
Q 422 1150 422 2328 
Q 422 3509 836 4129 
Q 1250 4750 2034 4750 
z
" transform="scale(0.015625)"/>
       </defs>
       <use xlink:href="#DejaVuSans-2212"/>
       <use xlink:href="#DejaVuSans-33" x="83.789062"/>
       <use xlink:href="#DejaVuSans-30" x="147.412109"/>
      </g>
     </g>
    </g>
    <g id="xtick_2">
     <g id="line2d_3">
      <path d="M 235.626858 318.04 
L 235.626858 26.88 
" clip-path="url(#p629c4074fb)" style="fill: none; stroke: #b0b0b0; stroke-width: 0.8; stroke-linecap: square"/>
     </g>
     <g id="line2d_4">
      <g>
       <use xlink:href="#m510e329062" x="235.626858" y="318.04" style="stroke: #000000; stroke-width: 0.8"/>
      </g>
     </g>
     <g id="text_2">
      <!-- −20 -->
      <g transform="translate(225.074514 332.638438) scale(0.1 -0.1)">
       <defs>
        <path id="DejaVuSans-32" d="M 1228 531 
L 3431 531 
L 3431 0 
L 469 0 
L 469 531 
Q 828 903 1448 1529 
Q 2069 2156 2228 2338 
Q 2531 2678 2651 2914 
Q 2772 3150 2772 3378 
Q 2772 3750 2511 3984 
Q 2250 4219 1831 4219 
Q 1534 4219 1204 4116 
Q 875 4013 500 3803 
L 500 4441 
Q 881 4594 1212 4672 
Q 1544 4750 1819 4750 
Q 2544 4750 2975 4387 
Q 3406 4025 3406 3419 
Q 3406 3131 3298 2873 
Q 3191 2616 2906 2266 
Q 2828 2175 2409 1742 
Q 1991 1309 1228 531 
z
" transform="scale(0.015625)"/>
       </defs>
       <use xlink:href="#DejaVuSans-2212"/>
       <use xlink:href="#DejaVuSans-32" x="83.789062"/>
       <use xlink:href="#DejaVuSans-30" x="147.412109"/>
      </g>
     </g>
    </g>
    <g id="xtick_3">
     <g id="line2d_5">
      <path d="M 345.405929 318.04 
L 345.405929 26.88 
" clip-path="url(#p629c4074fb)" style="fill: none; stroke: #b0b0b0; stroke-width: 0.8; stroke-linecap: square"/>
     </g>
     <g id="line2d_6">
      <g>
       <use xlink:href="#m510e329062" x="345.405929" y="318.04" style="stroke: #000000; stroke-width: 0.8"/>
      </g>
     </g>
     <g id="text_3">
      <!-- −10 -->
      <g transform="translate(334.853585 332.638438) scale(0.1 -0.1)">
       <defs>
        <path id="DejaVuSans-31" d="M 794 531 
L 1825 531 
L 1825 4091 
L 703 3866 
L 703 4441 
L 1819 4666 
L 2450 4666 
L 2450 531 
L 3481 531 
L 3481 0 
L 794 0 
L 794 531 
z
" transform="scale(0.015625)"/>
       </defs>
       <use xlink:href="#DejaVuSans-2212"/>
       <use xlink:href="#DejaVuSans-31" x="83.789062"/>
       <use xlink:href="#DejaVuSans-30" x="147.412109"/>
      </g>
     </g>
    </g>
    <g id="xtick_4">
     <g id="line2d_7">
      <path d="M 455.185 318.04 
L 455.185 26.88 
" clip-path="url(#p629c4074fb)" style="fill: none; stroke: #b0b0b0; stroke-width: 0.8; stroke-linecap: square"/>
     </g>
     <g id="line2d_8">
      <g>
       <use xlink:href="#m510e329062" x="455.185" y="318.04" style="stroke: #000000; stroke-width: 0.8"/>
      </g>
     </g>
     <g id="text_4">
      <!-- 0 -->
      <g transform="translate(452.00375 332.638438) scale(0.1 -0.1)">
       <use xlink:href="#DejaVuSans-30"/>
      </g>
     </g>
    </g>
    <g id="xtick_5">
     <g id="line2d_9">
      <path d="M 564.964071 318.04 
L 564.964071 26.88 
" clip-path="url(#p629c4074fb)" style="fill: none; stroke: #b0b0b0; stroke-width: 0.8; stroke-linecap: square"/>
     </g>
     <g id="line2d_10">
      <g>
       <use xlink:href="#m510e329062" x="564.964071" y="318.04" style="stroke: #000000; stroke-width: 0.8"/>
      </g>
     </g>
     <g id="text_5">
      <!-- 10 -->
      <g transform="translate(558.601571 332.638438) scale(0.1 -0.1)">
       <use xlink:href="#DejaVuSans-31"/>
       <use xlink:href="#DejaVuSans-30" x="63.623047"/>
      </g>
     </g>
    </g>
    <g id="xtick_6">
     <g id="line2d_11">
      <path d="M 674.743142 318.04 
L 674.743142 26.88 
" clip-path="url(#p629c4074fb)" style="fill: none; stroke: #b0b0b0; stroke-width: 0.8; stroke-linecap: square"/>
     </g>
     <g id="line2d_12">
      <g>
       <use xlink:href="#m510e329062" x="674.743142" y="318.04" style="stroke: #000000; stroke-width: 0.8"/>
      </g>
     </g>
     <g id="text_6">
      <!-- 20 -->
      <g transform="translate(668.380642 332.638438) scale(0.1 -0.1)">
       <use xlink:href="#DejaVuSans-32"/>
       <use xlink:href="#DejaVuSans-30" x="63.623047"/>
      </g>
     </g>
    </g>
    <g id="xtick_7">
     <g id="line2d_13">
      <path d="M 784.522213 318.04 
L 784.522213 26.88 
" clip-path="url(#p629c4074fb)" style="fill: none; stroke: #b0b0b0; stroke-width: 0.8; stroke-linecap: square"/>
     </g>
     <g id="line2d_14">
      <g>
       <use xlink:href="#m510e329062" x="784.522213" y="318.04" style="stroke: #000000; stroke-width: 0.8"/>
      </g>
     </g>
     <g id="text_7">
      <!-- 30 -->
      <g transform="translate(778.159713 332.638438) scale(0.1 -0.1)">
       <use xlink:href="#DejaVuSans-33"/>
       <use xlink:href="#DejaVuSans-30" x="63.623047"/>
      </g>
     </g>
    </g>
    <g id="text_8">
     <!-- Time Lag (s) -->
     <g transform="translate(424.242813 346.316563) scale(0.1 -0.1)">
      <defs>
       <path id="DejaVuSans-54" d="M -19 4666 
L 3928 4666 
L 3928 4134 
L 2272 4134 
L 2272 0 
L 1638 0 
L 1638 4134 
L -19 4134 
L -19 4666 
z
" transform="scale(0.015625)"/>
       <path id="DejaVuSans-69" d="M 603 3500 
L 1178 3500 
L 1178 0 
L 603 0 
L 603 3500 
z
M 603 4863 
L 1178 4863 
L 1178 4134 
L 603 4134 
L 603 4863 
z
" transform="scale(0.015625)"/>
       <path id="DejaVuSans-6d" d="M 3328 2828 
Q 3544 3216 3844 3400 
Q 4144 3584 4550 3584 
Q 5097 3584 5394 3201 
Q 5691 2819 5691 2113 
L 5691 0 
L 5113 0 
L 5113 2094 
Q 5113 2597 4934 2840 
Q 4756 3084 4391 3084 
Q 3944 3084 3684 2787 
Q 3425 2491 3425 1978 
L 3425 0 
L 2847 0 
L 2847 2094 
Q 2847 2600 2669 2842 
Q 2491 3084 2119 3084 
Q 1678 3084 1418 2786 
Q 1159 2488 1159 1978 
L 1159 0 
L 581 0 
L 581 3500 
L 1159 3500 
L 1159 2956 
Q 1356 3278 1631 3431 
Q 1906 3584 2284 3584 
Q 2666 3584 2933 3390 
Q 3200 3197 3328 2828 
z
" transform="scale(0.015625)"/>
       <path id="DejaVuSans-65" d="M 3597 1894 
L 3597 1613 
L 953 1613 
Q 991 1019 1311 708 
Q 1631 397 2203 397 
Q 2534 397 2845 478 
Q 3156 559 3463 722 
L 3463 178 
Q 3153 47 2828 -22 
Q 2503 -91 2169 -91 
Q 1331 -91 842 396 
Q 353 884 353 1716 
Q 353 2575 817 3079 
Q 1281 3584 2069 3584 
Q 2775 3584 3186 3129 
Q 3597 2675 3597 1894 
z
M 3022 2063 
Q 3016 2534 2758 2815 
Q 2500 3097 2075 3097 
Q 1594 3097 1305 2825 
Q 1016 2553 972 2059 
L 3022 2063 
z
" transform="scale(0.015625)"/>
       <path id="DejaVuSans-20" transform="scale(0.015625)"/>
       <path id="DejaVuSans-4c" d="M 628 4666 
L 1259 4666 
L 1259 531 
L 3531 531 
L 3531 0 
L 628 0 
L 628 4666 
z
" transform="scale(0.015625)"/>
       <path id="DejaVuSans-61" d="M 2194 1759 
Q 1497 1759 1228 1600 
Q 959 1441 959 1056 
Q 959 750 1161 570 
Q 1363 391 1709 391 
Q 2188 391 2477 730 
Q 2766 1069 2766 1631 
L 2766 1759 
L 2194 1759 
z
M 3341 1997 
L 3341 0 
L 2766 0 
L 2766 531 
Q 2569 213 2275 61 
Q 1981 -91 1556 -91 
Q 1019 -91 701 211 
Q 384 513 384 1019 
Q 384 1609 779 1909 
Q 1175 2209 1959 2209 
L 2766 2209 
L 2766 2266 
Q 2766 2663 2505 2880 
Q 2244 3097 1772 3097 
Q 1472 3097 1187 3025 
Q 903 2953 641 2809 
L 641 3341 
Q 956 3463 1253 3523 
Q 1550 3584 1831 3584 
Q 2591 3584 2966 3190 
Q 3341 2797 3341 1997 
z
" transform="scale(0.015625)"/>
       <path id="DejaVuSans-67" d="M 2906 1791 
Q 2906 2416 2648 2759 
Q 2391 3103 1925 3103 
Q 1463 3103 1205 2759 
Q 947 2416 947 1791 
Q 947 1169 1205 825 
Q 1463 481 1925 481 
Q 2391 481 2648 825 
Q 2906 1169 2906 1791 
z
M 3481 434 
Q 3481 -459 3084 -895 
Q 2688 -1331 1869 -1331 
Q 1566 -1331 1297 -1286 
Q 1028 -1241 775 -1147 
L 775 -588 
Q 1028 -725 1275 -790 
Q 1522 -856 1778 -856 
Q 2344 -856 2625 -561 
Q 2906 -266 2906 331 
L 2906 616 
Q 2728 306 2450 153 
Q 2172 0 1784 0 
Q 1141 0 747 490 
Q 353 981 353 1791 
Q 353 2603 747 3093 
Q 1141 3584 1784 3584 
Q 2172 3584 2450 3431 
Q 2728 3278 2906 2969 
L 2906 3500 
L 3481 3500 
L 3481 434 
z
" transform="scale(0.015625)"/>
       <path id="DejaVuSans-28" d="M 1984 4856 
Q 1566 4138 1362 3434 
Q 1159 2731 1159 2009 
Q 1159 1288 1364 580 
Q 1569 -128 1984 -844 
L 1484 -844 
Q 1016 -109 783 600 
Q 550 1309 550 2009 
Q 550 2706 781 3412 
Q 1013 4119 1484 4856 
L 1984 4856 
z
" transform="scale(0.015625)"/>
       <path id="DejaVuSans-73" d="M 2834 3397 
L 2834 2853 
Q 2591 2978 2328 3040 
Q 2066 3103 1784 3103 
Q 1356 3103 1142 2972 
Q 928 2841 928 2578 
Q 928 2378 1081 2264 
Q 1234 2150 1697 2047 
L 1894 2003 
Q 2506 1872 2764 1633 
Q 3022 1394 3022 966 
Q 3022 478 2636 193 
Q 2250 -91 1575 -91 
Q 1294 -91 989 -36 
Q 684 19 347 128 
L 347 722 
Q 666 556 975 473 
Q 1284 391 1588 391 
Q 1994 391 2212 530 
Q 2431 669 2431 922 
Q 2431 1156 2273 1281 
Q 2116 1406 1581 1522 
L 1381 1569 
Q 847 1681 609 1914 
Q 372 2147 372 2553 
Q 372 3047 722 3315 
Q 1072 3584 1716 3584 
Q 2034 3584 2315 3537 
Q 2597 3491 2834 3397 
z
" transform="scale(0.015625)"/>
       <path id="DejaVuSans-29" d="M 513 4856 
L 1013 4856 
Q 1481 4119 1714 3412 
Q 1947 2706 1947 2009 
Q 1947 1309 1714 600 
Q 1481 -109 1013 -844 
L 513 -844 
Q 928 -128 1133 580 
Q 1338 1288 1338 2009 
Q 1338 2731 1133 3434 
Q 928 4138 513 4856 
z
" transform="scale(0.015625)"/>
      </defs>
      <use xlink:href="#DejaVuSans-54"/>
      <use xlink:href="#DejaVuSans-69" x="57.958984"/>
      <use xlink:href="#DejaVuSans-6d" x="85.742188"/>
      <use xlink:href="#DejaVuSans-65" x="183.154297"/>
      <use xlink:href="#DejaVuSans-20" x="244.677734"/>
      <use xlink:href="#DejaVuSans-4c" x="276.464844"/>
      <use xlink:href="#DejaVuSans-61" x="332.177734"/>
      <use xlink:href="#DejaVuSans-67" x="393.457031"/>
      <use xlink:href="#DejaVuSans-20" x="456.933594"/>
      <use xlink:href="#DejaVuSans-28" x="488.720703"/>
      <use xlink:href="#DejaVuSans-73" x="527.734375"/>
      <use xlink:href="#DejaVuSans-29" x="579.833984"/>
     </g>
    </g>
   </g>
   <g id="matplotlib.axis_2">
    <g id="ytick_1">
     <g id="line2d_15">
      <path d="M 57.17 304.758024 
L 853.2 304.758024 
" clip-path="url(#p629c4074fb)" style="fill: none; stroke: #b0b0b0; stroke-width: 0.8; stroke-linecap: square"/>
     </g>
     <g id="line2d_16">
      <defs>
       <path id="m394900e26e" d="M 0 0 
L -3.5 0 
" style="stroke: #000000; stroke-width: 0.8"/>
      </defs>
      <g>
       <use xlink:href="#m394900e26e" x="57.17" y="304.758024" style="stroke: #000000; stroke-width: 0.8"/>
      </g>
     </g>
     <g id="text_9">
      <!-- 600 -->
      <g transform="translate(31.0825 308.557243) scale(0.1 -0.1)">
       <defs>
        <path id="DejaVuSans-36" d="M 2113 2584 
Q 1688 2584 1439 2293 
Q 1191 2003 1191 1497 
Q 1191 994 1439 701 
Q 1688 409 2113 409 
Q 2538 409 2786 701 
Q 3034 994 3034 1497 
Q 3034 2003 2786 2293 
Q 2538 2584 2113 2584 
z
M 3366 4563 
L 3366 3988 
Q 3128 4100 2886 4159 
Q 2644 4219 2406 4219 
Q 1781 4219 1451 3797 
Q 1122 3375 1075 2522 
Q 1259 2794 1537 2939 
Q 1816 3084 2150 3084 
Q 2853 3084 3261 2657 
Q 3669 2231 3669 1497 
Q 3669 778 3244 343 
Q 2819 -91 2113 -91 
Q 1303 -91 875 529 
Q 447 1150 447 2328 
Q 447 3434 972 4092 
Q 1497 4750 2381 4750 
Q 2619 4750 2861 4703 
Q 3103 4656 3366 4563 
z
" transform="scale(0.015625)"/>
       </defs>
       <use xlink:href="#DejaVuSans-36"/>
       <use xlink:href="#DejaVuSans-30" x="63.623047"/>
       <use xlink:href="#DejaVuSans-30" x="127.246094"/>
      </g>
     </g>
    </g>
    <g id="ytick_2">
     <g id="line2d_17">
      <path d="M 57.17 244.097851 
L 853.2 244.097851 
" clip-path="url(#p629c4074fb)" style="fill: none; stroke: #b0b0b0; stroke-width: 0.8; stroke-linecap: square"/>
     </g>
     <g id="line2d_18">
      <g>
       <use xlink:href="#m394900e26e" x="57.17" y="244.097851" style="stroke: #000000; stroke-width: 0.8"/>
      </g>
     </g>
     <g id="text_10">
      <!-- 800 -->
      <g transform="translate(31.0825 247.897069) scale(0.1 -0.1)">
       <defs>
        <path id="DejaVuSans-38" d="M 2034 2216 
Q 1584 2216 1326 1975 
Q 1069 1734 1069 1313 
Q 1069 891 1326 650 
Q 1584 409 2034 409 
Q 2484 409 2743 651 
Q 3003 894 3003 1313 
Q 3003 1734 2745 1975 
Q 2488 2216 2034 2216 
z
M 1403 2484 
Q 997 2584 770 2862 
Q 544 3141 544 3541 
Q 544 4100 942 4425 
Q 1341 4750 2034 4750 
Q 2731 4750 3128 4425 
Q 3525 4100 3525 3541 
Q 3525 3141 3298 2862 
Q 3072 2584 2669 2484 
Q 3125 2378 3379 2068 
Q 3634 1759 3634 1313 
Q 3634 634 3220 271 
Q 2806 -91 2034 -91 
Q 1263 -91 848 271 
Q 434 634 434 1313 
Q 434 1759 690 2068 
Q 947 2378 1403 2484 
z
M 1172 3481 
Q 1172 3119 1398 2916 
Q 1625 2713 2034 2713 
Q 2441 2713 2670 2916 
Q 2900 3119 2900 3481 
Q 2900 3844 2670 4047 
Q 2441 4250 2034 4250 
Q 1625 4250 1398 4047 
Q 1172 3844 1172 3481 
z
" transform="scale(0.015625)"/>
       </defs>
       <use xlink:href="#DejaVuSans-38"/>
       <use xlink:href="#DejaVuSans-30" x="63.623047"/>
       <use xlink:href="#DejaVuSans-30" x="127.246094"/>
      </g>
     </g>
    </g>
    <g id="ytick_3">
     <g id="line2d_19">
      <path d="M 57.17 183.437677 
L 853.2 183.437677 
" clip-path="url(#p629c4074fb)" style="fill: none; stroke: #b0b0b0; stroke-width: 0.8; stroke-linecap: square"/>
     </g>
     <g id="line2d_20">
      <g>
       <use xlink:href="#m394900e26e" x="57.17" y="183.437677" style="stroke: #000000; stroke-width: 0.8"/>
      </g>
     </g>
     <g id="text_11">
      <!-- 1000 -->
      <g transform="translate(24.72 187.236896) scale(0.1 -0.1)">
       <use xlink:href="#DejaVuSans-31"/>
       <use xlink:href="#DejaVuSans-30" x="63.623047"/>
       <use xlink:href="#DejaVuSans-30" x="127.246094"/>
       <use xlink:href="#DejaVuSans-30" x="190.869141"/>
      </g>
     </g>
    </g>
    <g id="ytick_4">
     <g id="line2d_21">
      <path d="M 57.17 122.777504 
L 853.2 122.777504 
" clip-path="url(#p629c4074fb)" style="fill: none; stroke: #b0b0b0; stroke-width: 0.8; stroke-linecap: square"/>
     </g>
     <g id="line2d_22">
      <g>
       <use xlink:href="#m394900e26e" x="57.17" y="122.777504" style="stroke: #000000; stroke-width: 0.8"/>
      </g>
     </g>
     <g id="text_12">
      <!-- 1200 -->
      <g transform="translate(24.72 126.576723) scale(0.1 -0.1)">
       <use xlink:href="#DejaVuSans-31"/>
       <use xlink:href="#DejaVuSans-32" x="63.623047"/>
       <use xlink:href="#DejaVuSans-30" x="127.246094"/>
       <use xlink:href="#DejaVuSans-30" x="190.869141"/>
      </g>
     </g>
    </g>
    <g id="ytick_5">
     <g id="line2d_23">
      <path d="M 57.17 62.117331 
L 853.2 62.117331 
" clip-path="url(#p629c4074fb)" style="fill: none; stroke: #b0b0b0; stroke-width: 0.8; stroke-linecap: square"/>
     </g>
     <g id="line2d_24">
      <g>
       <use xlink:href="#m394900e26e" x="57.17" y="62.117331" style="stroke: #000000; stroke-width: 0.8"/>
      </g>
     </g>
     <g id="text_13">
      <!-- 1400 -->
      <g transform="translate(24.72 65.91655) scale(0.1 -0.1)">
       <defs>
        <path id="DejaVuSans-34" d="M 2419 4116 
L 825 1625 
L 2419 1625 
L 2419 4116 
z
M 2253 4666 
L 3047 4666 
L 3047 1625 
L 3713 1625 
L 3713 1100 
L 3047 1100 
L 3047 0 
L 2419 0 
L 2419 1100 
L 313 1100 
L 313 1709 
L 2253 4666 
z
" transform="scale(0.015625)"/>
       </defs>
       <use xlink:href="#DejaVuSans-31"/>
       <use xlink:href="#DejaVuSans-34" x="63.623047"/>
       <use xlink:href="#DejaVuSans-30" x="127.246094"/>
       <use xlink:href="#DejaVuSans-30" x="190.869141"/>
      </g>
     </g>
    </g>
    <g id="text_14">
     <!-- Cross-correlation -->
     <g transform="translate(18.640312 214.793594) rotate(-90) scale(0.1 -0.1)">
      <defs>
       <path id="DejaVuSans-43" d="M 4122 4306 
L 4122 3641 
Q 3803 3938 3442 4084 
Q 3081 4231 2675 4231 
Q 1875 4231 1450 3742 
Q 1025 3253 1025 2328 
Q 1025 1406 1450 917 
Q 1875 428 2675 428 
Q 3081 428 3442 575 
Q 3803 722 4122 1019 
L 4122 359 
Q 3791 134 3420 21 
Q 3050 -91 2638 -91 
Q 1578 -91 968 557 
Q 359 1206 359 2328 
Q 359 3453 968 4101 
Q 1578 4750 2638 4750 
Q 3056 4750 3426 4639 
Q 3797 4528 4122 4306 
z
" transform="scale(0.015625)"/>
       <path id="DejaVuSans-72" d="M 2631 2963 
Q 2534 3019 2420 3045 
Q 2306 3072 2169 3072 
Q 1681 3072 1420 2755 
Q 1159 2438 1159 1844 
L 1159 0 
L 581 0 
L 581 3500 
L 1159 3500 
L 1159 2956 
Q 1341 3275 1631 3429 
Q 1922 3584 2338 3584 
Q 2397 3584 2469 3576 
Q 2541 3569 2628 3553 
L 2631 2963 
z
" transform="scale(0.015625)"/>
       <path id="DejaVuSans-6f" d="M 1959 3097 
Q 1497 3097 1228 2736 
Q 959 2375 959 1747 
Q 959 1119 1226 758 
Q 1494 397 1959 397 
Q 2419 397 2687 759 
Q 2956 1122 2956 1747 
Q 2956 2369 2687 2733 
Q 2419 3097 1959 3097 
z
M 1959 3584 
Q 2709 3584 3137 3096 
Q 3566 2609 3566 1747 
Q 3566 888 3137 398 
Q 2709 -91 1959 -91 
Q 1206 -91 779 398 
Q 353 888 353 1747 
Q 353 2609 779 3096 
Q 1206 3584 1959 3584 
z
" transform="scale(0.015625)"/>
       <path id="DejaVuSans-2d" d="M 313 2009 
L 1997 2009 
L 1997 1497 
L 313 1497 
L 313 2009 
z
" transform="scale(0.015625)"/>
       <path id="DejaVuSans-63" d="M 3122 3366 
L 3122 2828 
Q 2878 2963 2633 3030 
Q 2388 3097 2138 3097 
Q 1578 3097 1268 2742 
Q 959 2388 959 1747 
Q 959 1106 1268 751 
Q 1578 397 2138 397 
Q 2388 397 2633 464 
Q 2878 531 3122 666 
L 3122 134 
Q 2881 22 2623 -34 
Q 2366 -91 2075 -91 
Q 1284 -91 818 406 
Q 353 903 353 1747 
Q 353 2603 823 3093 
Q 1294 3584 2113 3584 
Q 2378 3584 2631 3529 
Q 2884 3475 3122 3366 
z
" transform="scale(0.015625)"/>
       <path id="DejaVuSans-6c" d="M 603 4863 
L 1178 4863 
L 1178 0 
L 603 0 
L 603 4863 
z
" transform="scale(0.015625)"/>
       <path id="DejaVuSans-74" d="M 1172 4494 
L 1172 3500 
L 2356 3500 
L 2356 3053 
L 1172 3053 
L 1172 1153 
Q 1172 725 1289 603 
Q 1406 481 1766 481 
L 2356 481 
L 2356 0 
L 1766 0 
Q 1100 0 847 248 
Q 594 497 594 1153 
L 594 3053 
L 172 3053 
L 172 3500 
L 594 3500 
L 594 4494 
L 1172 4494 
z
" transform="scale(0.015625)"/>
       <path id="DejaVuSans-6e" d="M 3513 2113 
L 3513 0 
L 2938 0 
L 2938 2094 
Q 2938 2591 2744 2837 
Q 2550 3084 2163 3084 
Q 1697 3084 1428 2787 
Q 1159 2491 1159 1978 
L 1159 0 
L 581 0 
L 581 3500 
L 1159 3500 
L 1159 2956 
Q 1366 3272 1645 3428 
Q 1925 3584 2291 3584 
Q 2894 3584 3203 3211 
Q 3513 2838 3513 2113 
z
" transform="scale(0.015625)"/>
      </defs>
      <use xlink:href="#DejaVuSans-43"/>
      <use xlink:href="#DejaVuSans-72" x="69.824219"/>
      <use xlink:href="#DejaVuSans-6f" x="108.6875"/>
      <use xlink:href="#DejaVuSans-73" x="169.869141"/>
      <use xlink:href="#DejaVuSans-73" x="221.96875"/>
      <use xlink:href="#DejaVuSans-2d" x="274.068359"/>
      <use xlink:href="#DejaVuSans-63" x="310.152344"/>
      <use xlink:href="#DejaVuSans-6f" x="365.132812"/>
      <use xlink:href="#DejaVuSans-72" x="426.314453"/>
      <use xlink:href="#DejaVuSans-72" x="465.677734"/>
      <use xlink:href="#DejaVuSans-65" x="504.541016"/>
      <use xlink:href="#DejaVuSans-6c" x="566.064453"/>
      <use xlink:href="#DejaVuSans-61" x="593.847656"/>
      <use xlink:href="#DejaVuSans-74" x="655.126953"/>
      <use xlink:href="#DejaVuSans-69" x="694.335938"/>
      <use xlink:href="#DejaVuSans-6f" x="722.119141"/>
      <use xlink:href="#DejaVuSans-6e" x="783.300781"/>
     </g>
    </g>
   </g>
   <g id="line2d_25">
    <path d="M 93.353182 259.081982 
L 94.890089 254.405499 
L 95.548763 253.005762 
L 96.097659 252.331105 
L 96.536775 252.121012 
L 96.975891 252.199148 
L 97.415007 252.548438 
L 97.963903 253.315817 
L 98.732356 254.869259 
L 100.269263 258.213247 
L 101.147496 259.586683 
L 101.80617 260.219524 
L 102.355066 260.424025 
L 102.794182 260.354749 
L 103.233298 260.055373 
L 103.782194 259.330669 
L 104.331089 258.223264 
L 105.099542 256.077641 
L 106.087554 252.549769 
L 107.624461 246.991022 
L 108.283135 245.418597 
L 108.832031 244.619996 
L 109.271147 244.331793 
L 109.600484 244.31966 
L 110.039601 244.569606 
L 110.478717 245.105329 
L 111.137391 246.325436 
L 112.344961 249.116282 
L 114.211205 253.452715 
L 114.86988 254.466353 
L 115.308996 254.822546 
L 115.748112 254.871806 
L 116.07745 254.695604 
L 116.516566 254.168154 
L 117.065461 253.043349 
L 117.724136 251.064055 
L 118.602368 247.592131 
L 120.139275 241.361207 
L 121.017508 238.686833 
L 121.676182 237.337784 
L 122.225078 236.724405 
L 122.664194 236.583806 
L 123.10331 236.723346 
L 123.542426 237.127992 
L 124.091322 237.992177 
L 124.749996 239.496817 
L 125.738008 242.423504 
L 127.165136 246.662565 
L 127.82381 247.887685 
L 128.262926 248.308676 
L 128.592264 248.397478 
L 128.921601 248.285532 
L 129.360717 247.822882 
L 129.799833 247.013219 
L 130.348729 245.550247 
L 131.226961 242.436936 
L 132.763868 235.969376 
L 134.190996 230.29912 
L 134.95945 228.094009 
L 135.508345 227.163857 
L 135.947461 226.848215 
L 136.276799 226.870552 
L 136.606136 227.112469 
L 137.045252 227.760898 
L 137.594147 229.037925 
L 138.362601 231.48733 
L 139.899508 236.590795 
L 140.667961 238.394248 
L 141.216857 239.193338 
L 141.655973 239.494189 
L 141.98531 239.512433 
L 142.314648 239.35153 
L 142.753764 238.850874 
L 143.302659 237.7684 
L 143.961334 235.843106 
L 144.729787 232.833008 
L 145.937357 227.039029 
L 147.144927 221.483666 
L 147.803601 219.394226 
L 148.352496 218.334704 
L 148.791613 217.969638 
L 149.12095 217.982353 
L 149.450287 218.237109 
L 149.889403 218.933021 
L 150.438299 220.304795 
L 151.42631 223.516163 
L 153.512113 230.556232 
L 154.170787 232.069384 
L 154.719683 232.810813 
L 155.04902 232.975646 
L 155.378357 232.920797 
L 155.707694 232.640601 
L 156.14681 231.911918 
L 156.695706 230.448427 
L 157.35438 227.970344 
L 158.342392 223.170466 
L 159.76952 216.345933 
L 160.537973 213.613375 
L 161.086869 212.282684 
L 161.525985 211.646296 
L 161.965101 211.403506 
L 162.294438 211.473191 
L 162.733555 211.870834 
L 163.172671 212.594375 
L 163.831345 214.216653 
L 164.709578 217.129801 
L 166.685601 224.004946 
L 167.234497 225.117759 
L 167.673613 225.575514 
L 168.00295 225.643247 
L 168.332287 225.46793 
L 168.661625 225.049904 
L 169.100741 224.122814 
L 169.649636 222.406603 
L 170.41809 219.181888 
L 173.491904 205.369618 
L 174.150578 203.58383 
L 174.699473 202.714776 
L 175.13859 202.45904 
L 175.467927 202.524754 
L 175.797264 202.808258 
L 176.23638 203.506917 
L 176.785276 204.834728 
L 177.553729 207.348698 
L 179.310194 213.492529 
L 179.968869 215.010625 
L 180.517764 215.747013 
L 180.956881 215.945236 
L 181.286218 215.852814 
L 181.615555 215.553683 
L 182.054671 214.84814 
L 182.603567 213.530346 
L 183.37202 210.978051 
L 184.360032 206.803699 
L 186.445834 197.714232 
L 187.104508 195.900766 
L 187.543625 195.171231 
L 187.982741 194.853087 
L 188.312078 194.884547 
L 188.641415 195.142212 
L 189.080532 195.819932 
L 189.629427 197.150074 
L 190.727218 200.724479 
L 192.264125 205.689682 
L 193.032578 207.493659 
L 193.581474 208.315916 
L 194.02059 208.640637 
L 194.349927 208.657965 
L 194.679264 208.474405 
L 195.118381 207.916794 
L 195.667276 206.721247 
L 196.32595 204.604497 
L 197.204183 200.860146 
L 199.289985 191.359602 
L 200.058439 189.085406 
L 200.607334 188.079117 
L 201.046451 187.675379 
L 201.375788 187.608149 
L 201.705125 187.734669 
L 202.144241 188.162199 
L 202.693137 189.058828 
L 203.46159 190.846378 
L 204.66916 194.414693 
L 205.986509 198.208784 
L 206.645183 199.432555 
L 207.084299 199.871463 
L 207.413637 199.980877 
L 207.742974 199.893635 
L 208.18209 199.471007 
L 208.621206 198.704455 
L 209.170102 197.28843 
L 209.938555 194.615877 
L 213.341706 181.86347 
L 214.000381 180.476389 
L 214.439497 179.954598 
L 214.878613 179.757076 
L 215.207951 179.818407 
L 215.647067 180.174161 
L 216.195962 181.024036 
L 216.854637 182.546744 
L 217.952427 185.827605 
L 219.050218 188.834753 
L 219.708893 190.135639 
L 220.257788 190.808286 
L 220.696904 191.032989 
L 221.026241 191.007326 
L 221.465358 190.71366 
L 221.904474 190.113629 
L 222.453369 188.945627 
L 223.112044 187.005671 
L 224.100055 183.281488 
L 226.295637 174.640225 
L 226.954311 173.071324 
L 227.503207 172.328364 
L 227.942323 172.119569 
L 228.27166 172.186926 
L 228.710776 172.569816 
L 229.149893 173.271129 
L 229.918346 175.065865 
L 231.235695 178.88943 
L 232.443265 182.172665 
L 233.101939 183.453083 
L 233.650835 184.07732 
L 233.980172 184.195973 
L 234.309509 184.113858 
L 234.748625 183.694319 
L 235.187742 182.930525 
L 235.736637 181.526934 
L 236.50509 178.872085 
L 239.469125 167.607436 
L 240.1278 166.204626 
L 240.676695 165.519059 
L 241.115811 165.296809 
L 241.445149 165.323535 
L 241.884265 165.616858 
L 242.323381 166.186453 
L 242.982056 167.484254 
L 243.860288 169.818665 
L 245.616753 174.701801 
L 246.165649 175.6193 
L 246.604765 176.003083 
L 246.934102 176.072032 
L 247.263439 175.949866 
L 247.702556 175.496049 
L 248.251451 174.49211 
L 248.910125 172.732602 
L 249.898137 169.324928 
L 252.313277 160.641598 
L 253.08173 158.679444 
L 253.630626 157.806992 
L 254.069742 157.499276 
L 254.399079 157.491561 
L 254.728416 157.669647 
L 255.167533 158.181906 
L 255.716428 159.213144 
L 256.484881 161.21603 
L 258.351126 166.459103 
L 259.0098 167.611363 
L 259.558695 168.146092 
L 259.997812 168.275037 
L 260.436928 168.130529 
L 260.876044 167.728012 
L 261.42494 166.85773 
L 262.083614 165.307793 
L 262.961847 162.596907 
L 265.816102 153.173757 
L 266.364998 152.279338 
L 266.804114 151.911353 
L 267.24323 151.850663 
L 267.682347 152.078788 
L 268.121463 152.569263 
L 268.780137 153.710808 
L 270.097486 156.664206 
L 271.305056 159.142675 
L 272.073509 160.23385 
L 272.622405 160.680511 
L 273.061521 160.799014 
L 273.500637 160.636968 
L 273.939754 160.201762 
L 274.488649 159.302221 
L 275.147323 157.756583 
L 276.135335 154.748628 
L 278.001579 148.854158 
L 278.770033 147.11341 
L 279.428707 146.097238 
L 279.977603 145.594351 
L 280.526498 145.379759 
L 280.965614 145.408631 
L 281.404731 145.657282 
L 281.953626 146.227352 
L 282.722079 147.365614 
L 285.02744 151.08545 
L 285.576335 151.438359 
L 286.015452 151.46247 
L 286.454568 151.257387 
L 287.003463 150.694423 
L 287.662138 149.636284 
L 288.650149 147.525924 
L 291.723963 140.565436 
L 292.602196 139.339523 
L 293.151091 138.931135 
L 293.590207 138.848614 
L 294.139103 139.004302 
L 294.797777 139.493869 
L 295.895568 140.709767 
L 296.993359 141.849829 
L 297.652033 142.241368 
L 298.200928 142.358358 
L 298.749824 142.27485 
L 299.408498 141.940284 
L 300.286731 141.202998 
L 301.055184 140.343869 
L 302.152975 138.719168 
L 303.90944 136.112157 
L 304.677894 135.313442 
L 305.226789 135.003235 
L 305.775684 134.9063 
L 306.434359 135.019801 
L 308.849498 135.78041 
L 309.727731 135.665052 
L 310.496184 135.333817 
L 311.484196 134.641742 
L 313.130882 133.16713 
L 315.875359 130.280288 
L 316.534033 129.977788 
L 317.192708 129.907071 
L 317.961161 130.064162 
L 319.937184 130.688464 
L 320.595859 130.506176 
L 321.364312 130.094978 
L 322.132766 129.430207 
L 323.120778 128.236591 
L 326.963045 123.212407 
L 327.51194 122.913391 
L 328.060836 122.876031 
L 328.609731 123.092958 
L 329.268406 123.614069 
L 330.146638 124.639124 
L 331.683545 126.52138 
L 332.23244 126.852792 
L 332.781336 126.926262 
L 333.220452 126.765621 
L 333.659568 126.380616 
L 334.208464 125.562697 
L 334.867138 124.093367 
L 335.635592 121.788008 
L 338.489847 112.511019 
L 339.148522 111.368374 
L 339.587638 110.994063 
L 339.916975 110.943988 
L 340.356092 111.147224 
L 340.795208 111.614628 
L 341.344103 112.541988 
L 342.002778 114.0968 
L 343.100568 117.402704 
L 344.417917 121.287304 
L 345.076592 122.564913 
L 345.515708 123.014734 
L 345.845045 123.108144 
L 346.174382 122.97572 
L 346.50372 122.606051 
L 346.942836 121.73529 
L 347.491731 120.049143 
L 348.260185 116.748519 
L 351.114441 103.573974 
L 351.663336 102.166727 
L 352.102452 101.526076 
L 352.431789 101.321943 
L 352.761127 101.362973 
L 353.090464 101.652519 
L 353.52958 102.422282 
L 354.078476 103.973381 
L 354.73715 106.593042 
L 355.725162 111.609266 
L 357.15229 118.823148 
L 357.810964 121.174149 
L 358.359859 122.354283 
L 358.689197 122.656886 
L 359.018534 122.626677 
L 359.347871 122.247731 
L 359.786987 121.190896 
L 360.335883 119.095859 
L 360.994557 115.631913 
L 361.982569 109.069402 
L 363.848813 96.31019 
L 364.507487 93.156072 
L 365.056383 91.488121 
L 365.495499 90.855918 
L 365.824836 90.807987 
L 366.154173 91.129166 
L 366.483511 91.812752 
L 366.922627 93.263826 
L 367.471522 95.873468 
L 368.349755 101.350338 
L 370.325778 114.052532 
L 370.984453 116.827253 
L 371.423569 117.912915 
L 371.752906 118.26329 
L 371.972464 118.259731 
L 372.192022 118.063413 
L 372.521359 117.409711 
L 372.960476 115.887911 
L 373.509371 113.010702 
L 374.277825 107.438491 
L 375.485394 96.542351 
L 376.583185 87.156139 
L 377.351639 82.405832 
L 377.900534 80.306076 
L 378.229871 79.638088 
L 378.559208 79.44092 
L 378.778767 79.577627 
L 379.108104 80.188739 
L 379.54722 81.745385 
L 380.096115 84.704583 
L 380.864569 90.328344 
L 382.291697 103.037025 
L 383.279708 111.025817 
L 383.938383 114.793985 
L 384.377499 116.308602 
L 384.706836 116.867381 
L 384.926395 116.955165 
L 385.145953 116.811665 
L 385.47529 116.161787 
L 385.914406 114.497822 
L 386.463302 111.217775 
L 387.121976 105.771154 
L 388.219767 94.45843 
L 389.756674 78.912861 
L 390.525127 73.281342 
L 391.074023 70.733443 
L 391.513139 69.729968 
L 391.732697 69.600388 
L 391.952255 69.723588 
L 392.281592 70.377367 
L 392.720709 72.093994 
L 393.269604 75.4899 
L 393.928278 81.088988 
L 395.135848 93.781524 
L 396.233639 104.670658 
L 396.892313 109.391561 
L 397.441209 111.851553 
L 397.770546 112.598011 
L 397.990104 112.774803 
L 398.209662 112.689558 
L 398.42922 112.340494 
L 398.758557 111.325713 
L 399.197674 109.08668 
L 399.746569 104.985757 
L 400.515023 97.254064 
L 401.832371 81.044333 
L 403.039941 67.044714 
L 403.698616 61.487557 
L 404.247511 58.65269 
L 404.576848 57.816631 
L 404.796406 57.631661 
L 405.015965 57.746356 
L 405.235523 58.15896 
L 405.56486 59.326606 
L 406.003976 61.863213 
L 406.552872 66.454463 
L 407.321325 74.948247 
L 409.736465 103.364616 
L 410.395139 108.177653 
L 410.834255 110.07788 
L 411.163593 110.743335 
L 411.383151 110.80149 
L 411.602709 110.54478 
L 411.932046 109.57361 
L 412.371162 107.221688 
L 412.920058 102.712628 
L 413.688511 93.960305 
L 415.00586 75.354646 
L 416.103651 60.870734 
L 416.872104 53.5486 
L 417.421 50.327262 
L 417.750337 49.307817 
L 417.969895 49.02769 
L 418.189453 49.071711 
L 418.409011 49.439366 
L 418.738348 50.586462 
L 419.177465 53.179567 
L 419.72636 57.992128 
L 420.494814 67.065226 
L 423.23929 102.525275 
L 423.788186 106.247025 
L 424.227302 107.756579 
L 424.44686 107.998789 
L 424.666418 107.89504 
L 424.885976 107.446307 
L 425.215314 106.138078 
L 425.65443 103.265422 
L 426.203325 98.0563 
L 426.971779 88.435555 
L 429.606476 52.765231 
L 430.155372 48.351706 
L 430.594488 46.264303 
L 430.923825 45.626303 
L 431.143383 45.661743 
L 431.362942 46.07193 
L 431.692279 47.387882 
L 432.131395 50.413819 
L 432.68029 56.080643 
L 433.448744 66.871317 
L 436.193221 109.084931 
L 436.742116 113.760461 
L 437.181232 115.918412 
L 437.51057 116.557632 
L 437.730128 116.509804 
L 437.949686 116.084695 
L 438.279023 114.754465 
L 438.718139 111.753662 
L 439.267035 106.237273 
L 440.035488 95.891484 
L 441.682174 69.212163 
L 442.670186 55.457757 
L 443.32886 49.319634 
L 443.767977 47.025475 
L 444.097314 46.349956 
L 444.316872 46.414499 
L 444.53643 46.894103 
L 444.865767 48.383084 
L 445.304884 51.744163 
L 445.853779 57.925417 
L 446.622232 69.372639 
L 448.927593 106.029098 
L 449.586267 112.583743 
L 450.025384 115.240787 
L 450.354721 116.251082 
L 450.574279 116.443962 
L 450.793837 116.250392 
L 451.013395 115.671833 
L 451.342733 114.093588 
L 451.781849 110.718226 
L 452.330744 104.632716 
L 453.099198 93.262524 
L 455.953453 46.877564 
L 456.502349 42.276909 
L 456.941465 40.408324 
L 457.161023 40.114545 
L 457.380581 40.254395 
L 457.60014 40.825844 
L 457.929477 42.472885 
L 458.368593 46.054952 
L 458.917488 52.474378 
L 459.795721 65.986884 
L 461.991302 101.897707 
L 462.649977 109.119226 
L 463.198872 112.882658 
L 463.528209 114.052347 
L 463.747768 114.36378 
L 463.967326 114.297786 
L 464.186884 113.85508 
L 464.516221 112.49472 
L 464.955337 109.432585 
L 465.504233 103.782432 
L 466.272686 93.202449 
L 468.797605 55.617445 
L 469.3465 50.811551 
L 469.785616 48.542932 
L 470.114954 47.830833 
L 470.334512 47.836006 
L 470.55407 48.223205 
L 470.883407 49.506378 
L 471.322523 52.47674 
L 471.871419 58.010624 
L 472.639872 68.441383 
L 475.603907 112.413701 
L 476.152803 116.709816 
L 476.591919 118.624478 
L 476.921256 119.124762 
L 477.140814 119.007551 
L 477.360372 118.533371 
L 477.68971 117.17262 
L 478.128826 114.223136 
L 478.677721 108.946396 
L 479.555954 97.888071 
L 481.641756 70.259996 
L 482.300431 64.504457 
L 482.739547 62.076079 
L 483.068884 61.090686 
L 483.288442 60.852398 
L 483.508 60.951411 
L 483.727558 61.386506 
L 484.056896 62.660034 
L 484.496012 65.470216 
L 485.044907 70.606063 
L 485.813361 80.20572 
L 488.557838 117.275407 
L 489.106733 121.503764 
L 489.545849 123.571418 
L 489.875186 124.314107 
L 490.094745 124.42129 
L 490.314303 124.22158 
L 490.64364 123.359886 
L 491.082756 121.242722 
L 491.631652 117.24059 
L 492.400105 109.647307 
L 495.254361 78.86916 
L 495.803256 75.879236 
L 496.132594 74.897151 
L 496.352152 74.603179 
L 496.57171 74.604995 
L 496.791268 74.905056 
L 497.120605 75.910363 
L 497.559721 78.248166 
L 498.108617 82.617987 
L 498.87707 90.828859 
L 501.621547 122.180518 
L 502.280221 126.49853 
L 502.719338 128.193669 
L 503.048675 128.831414 
L 503.268233 128.954435 
L 503.487791 128.837244 
L 503.817128 128.217639 
L 504.256245 126.593041 
L 504.80514 123.383412 
L 505.463815 118.098913 
L 506.781163 105.101069 
L 507.878954 95.214622 
L 508.537629 91.059355 
L 508.976745 89.352774 
L 509.306082 88.701804 
L 509.52564 88.578443 
L 509.745198 88.705358 
L 510.074536 89.359422 
L 510.513652 91.062622 
L 511.062547 94.330445 
L 511.831001 100.572972 
L 513.258129 114.761356 
L 514.465698 125.786179 
L 515.234152 130.833092 
L 515.783047 133.142778 
L 516.222164 134.09986 
L 516.441722 134.265656 
L 516.66128 134.219889 
L 516.880838 133.963909 
L 517.210175 133.196248 
L 517.649291 131.498292 
L 518.198187 128.432001 
L 519.076419 122.035431 
L 520.942664 108.025509 
L 521.601338 104.764762 
L 522.040454 103.43065 
L 522.369791 102.920129 
L 522.699129 102.811106 
L 522.918687 102.957546 
L 523.248024 103.502696 
L 523.68714 104.822745 
L 524.236036 107.36273 
L 524.89471 111.526439 
L 525.992501 120.167292 
L 527.639187 132.949699 
L 528.40764 137.143223 
L 528.956536 138.977727 
L 529.285873 139.559692 
L 529.61521 139.74234 
L 529.834768 139.644872 
L 530.164106 139.181443 
L 530.603222 138.028324 
L 531.152117 135.866208 
L 531.920571 131.855587 
L 534.116152 119.657728 
L 534.774827 117.348943 
L 535.323722 116.206989 
L 535.653059 115.9088 
L 535.982396 115.919997 
L 536.311734 116.247681 
L 536.75085 117.170945 
L 537.299745 119.050863 
L 537.95842 122.192364 
L 539.05621 128.763716 
L 540.593117 137.894236 
L 541.361571 141.145203 
L 541.910466 142.635588 
L 542.349582 143.289862 
L 542.67892 143.483205 
L 543.008257 143.431457 
L 543.337594 143.146587 
L 543.77671 142.431762 
L 544.325606 141.067353 
L 545.094059 138.508903 
L 547.289641 130.720672 
L 547.948315 129.246266 
L 548.387431 128.700919 
L 548.716769 128.550248 
L 549.046106 128.627382 
L 549.375443 128.930663 
L 549.814559 129.667947 
L 550.363455 131.071453 
L 551.131908 133.749852 
L 552.778594 140.669103 
L 553.876385 144.747769 
L 554.644838 146.853472 
L 555.303513 148.066604 
L 555.852408 148.59838 
L 556.291524 148.690879 
L 556.730641 148.49534 
L 557.169757 148.03674 
L 557.828431 146.952544 
L 558.816443 144.783031 
L 560.024013 142.21116 
L 560.682687 141.304692 
L 561.121804 140.996565 
L 561.56092 140.947799 
L 562.000036 141.157436 
L 562.548931 141.729315 
L 563.207606 142.792941 
L 564.085838 144.707725 
L 567.708548 153.359826 
L 568.367222 154.171525 
L 568.916118 154.494522 
L 569.355234 154.52489 
L 569.904129 154.319068 
L 570.672583 153.713388 
L 572.319269 152.319676 
L 572.977943 152.106522 
L 573.526839 152.167709 
L 574.185513 152.500288 
L 575.063746 153.200241 
L 576.161536 154.385219 
L 579.894025 158.793665 
L 580.552699 159.12388 
L 581.211374 159.215348 
L 582.199385 159.067008 
L 583.077618 159.009119 
L 583.736292 159.158812 
L 584.394967 159.526027 
L 585.16342 160.244077 
L 588.347013 163.747933 
L 589.444804 164.511496 
L 590.652374 165.058117 
L 591.530606 165.210323 
L 592.29906 165.12057 
L 593.287071 164.754771 
L 594.275083 164.397669 
L 594.933757 164.384953 
L 595.592432 164.616115 
L 596.251106 165.099256 
L 597.01956 165.948887 
L 598.336909 167.854892 
L 601.410723 172.304055 
L 602.288955 173.217675 
L 602.94763 173.621283 
L 603.606304 173.750609 
L 604.155199 173.645561 
L 604.813874 173.303211 
L 607.229013 171.783557 
L 607.887688 171.718871 
L 608.546362 171.86971 
L 609.205037 172.246733 
L 609.97349 172.979294 
L 610.741944 174.042366 
L 611.620176 175.656672 
L 612.827746 178.403679 
L 614.145095 181.298896 
L 614.803769 182.295628 
L 615.352665 182.814296 
L 615.90156 183.036148 
L 616.450455 182.974514 
L 616.999351 182.666946 
L 617.987362 181.741157 
L 620.292723 179.479333 
L 621.061176 179.083839 
L 621.610072 179.038507 
L 622.049188 179.192106 
L 622.598083 179.659017 
L 623.146979 180.446229 
L 623.805653 181.798895 
L 624.683886 184.151281 
L 626.55013 189.335509 
L 627.318583 190.767241 
L 627.977258 191.526596 
L 628.526153 191.815408 
L 628.965269 191.826578 
L 629.623944 191.567286 
L 630.282618 191.0554 
L 631.160851 190.052226 
L 633.795549 186.712617 
L 634.234665 186.543973 
L 634.673781 186.594671 
L 635.112897 186.883963 
L 635.661793 187.590966 
L 636.320467 188.921527 
L 637.1987 191.335857 
L 639.284502 197.241052 
L 640.162735 199.067084 
L 640.821409 199.980629 
L 641.480084 200.494919 
L 642.028979 200.625916 
L 642.468095 200.521511 
L 643.016991 200.131539 
L 643.675665 199.309872 
L 644.553898 197.78883 
L 645.871246 195.478666 
L 646.529921 194.736798 
L 647.078816 194.463563 
L 647.517932 194.506663 
L 647.957049 194.798778 
L 648.505944 195.513447 
L 649.164619 196.815199 
L 650.15263 199.313996 
L 653.116665 207.351741 
L 653.77534 208.430662 
L 654.324235 208.956643 
L 654.763351 209.109845 
L 655.202467 209.022174 
L 655.641584 208.705271 
L 656.190479 208.032839 
L 657.068712 206.541476 
L 658.49584 204.143697 
L 659.264293 203.296017 
L 659.813188 202.997655 
L 660.252305 202.977603 
L 660.691421 203.167886 
L 661.240316 203.656913 
L 661.898991 204.59955 
L 662.667444 206.182636 
L 663.655456 208.861679 
L 665.851037 215.100855 
L 666.509712 216.314672 
L 667.058607 216.941819 
L 667.497723 217.178049 
L 667.93684 217.181554 
L 668.375956 216.968976 
L 669.03463 216.344329 
L 670.022642 215.049859 
L 672.328003 211.905407 
L 672.986677 211.410012 
L 673.535572 211.264982 
L 673.974689 211.368534 
L 674.413805 211.692313 
L 674.9627 212.426377 
L 675.621375 213.788053 
L 676.499607 216.273758 
L 678.58541 222.446686 
L 679.353863 224.024781 
L 680.012538 224.886425 
L 680.561433 225.238716 
L 681.110328 225.336941 
L 681.659224 225.204079 
L 682.208119 224.849932 
L 682.866793 224.159061 
L 683.854805 222.719772 
L 685.281933 220.606352 
L 685.940607 220.016838 
L 686.379724 219.861443 
L 686.81884 219.928567 
L 687.257956 220.238379 
L 687.806852 220.972887 
L 688.465526 222.316724 
L 689.673096 225.437203 
L 691.758898 230.892274 
L 692.637131 232.506321 
L 693.295805 233.350638 
L 693.8447 233.756352 
L 694.283817 233.863442 
L 694.722933 233.773552 
L 695.271828 233.395119 
L 695.930503 232.605175 
L 697.247852 230.492538 
L 698.235863 229.109211 
L 698.894538 228.523962 
L 699.443433 228.334699 
L 699.882549 228.416097 
L 700.431445 228.815886 
L 701.090119 229.628317 
L 701.748794 230.798442 
L 702.627026 232.873009 
L 704.49327 238.180249 
L 705.481282 240.60121 
L 706.139956 241.739621 
L 706.688852 242.320586 
L 707.127968 242.527137 
L 707.567084 242.50734 
L 708.006201 242.278302 
L 708.664875 241.649786 
L 709.652887 240.346829 
L 711.409352 237.961479 
L 712.068026 237.426578 
L 712.726701 237.186369 
L 713.275596 237.250253 
L 713.714712 237.514628 
L 714.263608 238.131957 
L 714.922282 239.289412 
L 715.800515 241.416342 
L 718.76455 249.164212 
L 719.423224 250.134503 
L 719.972119 250.597913 
L 720.521015 250.79337 
L 721.06991 250.750288 
L 721.618805 250.477118 
L 722.27748 249.879722 
L 723.265492 248.609536 
L 724.802398 246.630396 
L 725.461073 246.094409 
L 726.009968 245.935348 
L 726.449085 246.029438 
L 726.888201 246.336772 
L 727.437096 247.022579 
L 728.095771 248.250152 
L 729.083782 250.674587 
L 731.938038 258.116224 
L 732.706492 259.375331 
L 733.255387 259.948121 
L 733.804282 260.204093 
L 734.243399 260.178201 
L 734.682515 259.956697 
L 735.23141 259.437421 
L 735.999864 258.387079 
L 738.085666 255.30431 
L 738.744341 254.806151 
L 739.183457 254.705006 
L 739.622573 254.816861 
L 740.171468 255.232656 
L 740.720364 255.923942 
L 741.379038 257.113824 
L 742.257271 259.224061 
L 745.221306 266.93224 
L 745.87998 267.893565 
L 746.428875 268.319291 
L 746.867992 268.403325 
L 747.307108 268.270239 
L 747.856003 267.837989 
L 748.624457 266.876368 
L 750.161364 264.416734 
L 751.039596 263.217997 
L 751.698271 262.679806 
L 752.247166 262.479879 
L 752.686283 262.511184 
L 753.125399 262.743544 
L 753.674294 263.331374 
L 754.332969 264.44636 
L 755.211201 266.473499 
L 758.175236 273.852503 
L 758.833911 274.757086 
L 759.382806 275.166364 
L 759.931701 275.279397 
L 760.480597 275.130469 
L 761.029492 274.730958 
L 761.688166 273.965899 
L 762.895736 272.114577 
L 764.103306 270.427469 
L 764.76198 269.811211 
L 765.310876 269.595911 
L 765.749992 269.65183 
L 766.189108 269.920388 
L 766.738004 270.54984 
L 767.396678 271.68643 
L 768.274911 273.706475 
L 771.348725 281.281518 
L 772.117178 282.354941 
L 772.666073 282.790384 
L 773.10519 282.909632 
L 773.544306 282.823564 
L 774.093201 282.447416 
L 774.751876 281.667398 
L 775.849667 279.937432 
L 777.057236 278.122381 
L 777.715911 277.490107 
L 778.264806 277.261441 
L 778.703922 277.305712 
L 779.143039 277.564441 
L 779.691934 278.155583 
L 780.350608 279.200542 
L 781.119062 280.844268 
L 782.326632 284.043767 
L 783.75376 287.729946 
L 784.631992 289.433191 
L 785.290667 290.213095 
L 785.839562 290.496993 
L 786.278678 290.484509 
L 786.827574 290.19631 
L 787.486248 289.535596 
L 788.584039 288.049269 
L 790.011167 286.188261 
L 790.669841 285.661681 
L 791.218736 285.493816 
L 791.767632 285.534286 
L 792.316527 285.807021 
L 792.865423 286.345844 
L 793.524097 287.335965 
L 794.40233 289.127598 
L 797.476144 295.946309 
L 798.134818 296.785594 
L 798.683713 297.194257 
L 799.232609 297.341064 
L 799.781504 297.278278 
L 800.440178 296.956113 
L 801.208632 296.293937 
L 803.733551 293.828236 
L 804.392225 293.557884 
L 804.94112 293.577165 
L 805.490016 293.841868 
L 806.038911 294.360882 
L 806.697586 295.297531 
L 807.575818 296.957072 
L 810.759411 303.449635 
L 811.527865 304.312408 
L 812.186539 304.721534 
L 812.735434 304.803506 
L 813.28433 304.668914 
L 813.943004 304.273167 
L 815.040795 303.293206 
L 816.358144 302.177596 
L 817.016818 301.855268 
L 817.016818 301.855268 
" clip-path="url(#p629c4074fb)" style="fill: none; stroke: #0000ff; stroke-opacity: 0.7; stroke-width: 1.5; stroke-linecap: square"/>
   </g>
   <g id="line2d_26">
    <path d="M 457.161023 318.04 
L 457.161023 26.88 
" clip-path="url(#p629c4074fb)" style="fill: none; stroke-dasharray: 5.55,2.4; stroke-dashoffset: 0; stroke: #ff0000; stroke-width: 1.5"/>
   </g>
   <g id="patch_3">
    <path d="M 57.17 318.04 
L 57.17 26.88 
" style="fill: none; stroke: #000000; stroke-width: 0.8; stroke-linejoin: miter; stroke-linecap: square"/>
   </g>
   <g id="patch_4">
    <path d="M 853.2 318.04 
L 853.2 26.88 
" style="fill: none; stroke: #000000; stroke-width: 0.8; stroke-linejoin: miter; stroke-linecap: square"/>
   </g>
   <g id="patch_5">
    <path d="M 57.17 318.04 
L 853.2 318.04 
" style="fill: none; stroke: #000000; stroke-width: 0.8; stroke-linejoin: miter; stroke-linecap: square"/>
   </g>
   <g id="patch_6">
    <path d="M 57.17 26.88 
L 853.2 26.88 
" style="fill: none; stroke: #000000; stroke-width: 0.8; stroke-linejoin: miter; stroke-linecap: square"/>
   </g>
   <g id="text_15">
    <!-- Cross-correlation Analysis -->
    <g transform="translate(377.757813 20.88) scale(0.12 -0.12)">
     <defs>
      <path id="DejaVuSans-41" d="M 2188 4044 
L 1331 1722 
L 3047 1722 
L 2188 4044 
z
M 1831 4666 
L 2547 4666 
L 4325 0 
L 3669 0 
L 3244 1197 
L 1141 1197 
L 716 0 
L 50 0 
L 1831 4666 
z
" transform="scale(0.015625)"/>
      <path id="DejaVuSans-79" d="M 2059 -325 
Q 1816 -950 1584 -1140 
Q 1353 -1331 966 -1331 
L 506 -1331 
L 506 -850 
L 844 -850 
Q 1081 -850 1212 -737 
Q 1344 -625 1503 -206 
L 1606 56 
L 191 3500 
L 800 3500 
L 1894 763 
L 2988 3500 
L 3597 3500 
L 2059 -325 
z
" transform="scale(0.015625)"/>
     </defs>
     <use xlink:href="#DejaVuSans-43"/>
     <use xlink:href="#DejaVuSans-72" x="69.824219"/>
     <use xlink:href="#DejaVuSans-6f" x="108.6875"/>
     <use xlink:href="#DejaVuSans-73" x="169.869141"/>
     <use xlink:href="#DejaVuSans-73" x="221.96875"/>
     <use xlink:href="#DejaVuSans-2d" x="274.068359"/>
     <use xlink:href="#DejaVuSans-63" x="310.152344"/>
     <use xlink:href="#DejaVuSans-6f" x="365.132812"/>
     <use xlink:href="#DejaVuSans-72" x="426.314453"/>
     <use xlink:href="#DejaVuSans-72" x="465.677734"/>
     <use xlink:href="#DejaVuSans-65" x="504.541016"/>
     <use xlink:href="#DejaVuSans-6c" x="566.064453"/>
     <use xlink:href="#DejaVuSans-61" x="593.847656"/>
     <use xlink:href="#DejaVuSans-74" x="655.126953"/>
     <use xlink:href="#DejaVuSans-69" x="694.335938"/>
     <use xlink:href="#DejaVuSans-6f" x="722.119141"/>
     <use xlink:href="#DejaVuSans-6e" x="783.300781"/>
     <use xlink:href="#DejaVuSans-20" x="846.679688"/>
     <use xlink:href="#DejaVuSans-41" x="878.466797"/>
     <use xlink:href="#DejaVuSans-6e" x="946.875"/>
     <use xlink:href="#DejaVuSans-61" x="1010.253906"/>
     <use xlink:href="#DejaVuSans-6c" x="1071.533203"/>
     <use xlink:href="#DejaVuSans-79" x="1099.316406"/>
     <use xlink:href="#DejaVuSans-73" x="1158.496094"/>
     <use xlink:href="#DejaVuSans-69" x="1210.595703"/>
     <use xlink:href="#DejaVuSans-73" x="1238.378906"/>
    </g>
   </g>
   <g id="legend_1">
    <g id="patch_7">
     <path d="M 647.6625 49.558125 
L 846.2 49.558125 
Q 848.2 49.558125 848.2 47.558125 
L 848.2 33.88 
Q 848.2 31.88 846.2 31.88 
L 647.6625 31.88 
Q 645.6625 31.88 645.6625 33.88 
L 645.6625 47.558125 
Q 645.6625 49.558125 647.6625 49.558125 
z
" style="fill: #ffffff; opacity: 0.8; stroke: #cccccc; stroke-linejoin: miter"/>
    </g>
    <g id="line2d_27">
     <path d="M 649.6625 39.978438 
L 659.6625 39.978438 
L 669.6625 39.978438 
" style="fill: none; stroke-dasharray: 5.55,2.4; stroke-dashoffset: 0; stroke: #ff0000; stroke-width: 1.5"/>
    </g>
    <g id="text_16">
     <!-- Best lag = 180 ms (corr = 0.223) -->
     <g transform="translate(677.6625 43.478438) scale(0.1 -0.1)">
      <defs>
       <path id="DejaVuSans-42" d="M 1259 2228 
L 1259 519 
L 2272 519 
Q 2781 519 3026 730 
Q 3272 941 3272 1375 
Q 3272 1813 3026 2020 
Q 2781 2228 2272 2228 
L 1259 2228 
z
M 1259 4147 
L 1259 2741 
L 2194 2741 
Q 2656 2741 2882 2914 
Q 3109 3088 3109 3444 
Q 3109 3797 2882 3972 
Q 2656 4147 2194 4147 
L 1259 4147 
z
M 628 4666 
L 2241 4666 
Q 2963 4666 3353 4366 
Q 3744 4066 3744 3513 
Q 3744 3084 3544 2831 
Q 3344 2578 2956 2516 
Q 3422 2416 3680 2098 
Q 3938 1781 3938 1306 
Q 3938 681 3513 340 
Q 3088 0 2303 0 
L 628 0 
L 628 4666 
z
" transform="scale(0.015625)"/>
       <path id="DejaVuSans-3d" d="M 678 2906 
L 4684 2906 
L 4684 2381 
L 678 2381 
L 678 2906 
z
M 678 1631 
L 4684 1631 
L 4684 1100 
L 678 1100 
L 678 1631 
z
" transform="scale(0.015625)"/>
       <path id="DejaVuSans-2e" d="M 684 794 
L 1344 794 
L 1344 0 
L 684 0 
L 684 794 
z
" transform="scale(0.015625)"/>
      </defs>
      <use xlink:href="#DejaVuSans-42"/>
      <use xlink:href="#DejaVuSans-65" x="68.603516"/>
      <use xlink:href="#DejaVuSans-73" x="130.126953"/>
      <use xlink:href="#DejaVuSans-74" x="182.226562"/>
      <use xlink:href="#DejaVuSans-20" x="221.435547"/>
      <use xlink:href="#DejaVuSans-6c" x="253.222656"/>
      <use xlink:href="#DejaVuSans-61" x="281.005859"/>
      <use xlink:href="#DejaVuSans-67" x="342.285156"/>
      <use xlink:href="#DejaVuSans-20" x="405.761719"/>
      <use xlink:href="#DejaVuSans-3d" x="437.548828"/>
      <use xlink:href="#DejaVuSans-20" x="521.337891"/>
      <use xlink:href="#DejaVuSans-31" x="553.125"/>
      <use xlink:href="#DejaVuSans-38" x="616.748047"/>
      <use xlink:href="#DejaVuSans-30" x="680.371094"/>
      <use xlink:href="#DejaVuSans-20" x="743.994141"/>
      <use xlink:href="#DejaVuSans-6d" x="775.78125"/>
      <use xlink:href="#DejaVuSans-73" x="873.193359"/>
      <use xlink:href="#DejaVuSans-20" x="925.292969"/>
      <use xlink:href="#DejaVuSans-28" x="957.080078"/>
      <use xlink:href="#DejaVuSans-63" x="996.09375"/>
      <use xlink:href="#DejaVuSans-6f" x="1051.074219"/>
      <use xlink:href="#DejaVuSans-72" x="1112.255859"/>
      <use xlink:href="#DejaVuSans-72" x="1151.619141"/>
      <use xlink:href="#DejaVuSans-20" x="1192.732422"/>
      <use xlink:href="#DejaVuSans-3d" x="1224.519531"/>
      <use xlink:href="#DejaVuSans-20" x="1308.308594"/>
      <use xlink:href="#DejaVuSans-30" x="1340.095703"/>
      <use xlink:href="#DejaVuSans-2e" x="1403.71875"/>
      <use xlink:href="#DejaVuSans-32" x="1435.505859"/>
      <use xlink:href="#DejaVuSans-32" x="1499.128906"/>
      <use xlink:href="#DejaVuSans-33" x="1562.751953"/>
      <use xlink:href="#DejaVuSans-29" x="1626.375"/>
     </g>
    </g>
   </g>
  </g>
 </g>
 <defs>
  <clipPath id="p629c4074fb">
   <rect x="57.17" y="26.88" width="796.03" height="291.16"/>
  </clipPath>
 </defs>
</svg>
