<?xml version="1.0" encoding="utf-8" standalone="no"?>
<!DOCTYPE svg PUBLIC "-//W3C//DTD SVG 1.1//EN"
  "http://www.w3.org/Graphics/SVG/1.1/DTD/svg11.dtd">
<svg xmlns:xlink="http://www.w3.org/1999/xlink" width="864pt" height="360pt" viewBox="0 0 864 360" xmlns="http://www.w3.org/2000/svg" version="1.1">
 <metadata>
  <rdf:RDF xmlns:dc="http://purl.org/dc/elements/1.1/" xmlns:cc="http://creativecommons.org/ns#" xmlns:rdf="http://www.w3.org/1999/02/22-rdf-syntax-ns#">
   <cc:Work>
    <dc:type rdf:resource="http://purl.org/dc/dcmitype/StillImage"/>
    <dc:date>2025-12-01T21:34:18.300381</dc:date>
    <dc:format>image/svg+xml</dc:format>
    <dc:creator>
     <cc:Agent>
      <dc:title>Matplotlib v3.8.4, https://matplotlib.org/</dc:title>
     </cc:Agent>
    </dc:creator>
   </cc:Work>
  </rdf:RDF>
 </metadata>
 <defs>
  <style type="text/css">*{stroke-linejoin: round; stroke-linecap: butt}</style>
 </defs>
 <g id="figure_1">
  <g id="patch_1">
   <path d="M 0 360 
L 864 360 
L 864 0 
L 0 0 
z
" style="fill: #ffffff"/>
  </g>
  <g id="axes_1">
   <g id="patch_2">
    <path d="M 57.26 318.04 
L 850.630055 318.04 
L 850.630055 26.88 
L 57.26 26.88 
z
" style="fill: #ffffff"/>
   </g>
   <g id="matplotlib.axis_1">
    <g id="xtick_1">
     <g id="line2d_1">
      <path d="M 61.679525 318.04 
L 61.679525 26.88 
" clip-path="url(#p5982b8f038)" style="fill: none; stroke: #b0b0b0; stroke-width: 0.8; stroke-linecap: square"/>
     </g>
     <g id="line2d_2">
      <defs>
       <path id="m603463a828" d="M 0 0 
L 0 3.5 
" style="stroke: #000000; stroke-width: 0.8"/>
      </defs>
      <g>
       <use xlink:href="#m603463a828" x="61.679525" y="318.04" style="stroke: #000000; stroke-width: 0.8"/>
      </g>
     </g>
     <g id="text_1">
      <!-- −30 -->
      <g transform="translate(51.127181 332.638438) scale(0.1 -0.1)">
       <defs>
        <path id="DejaVuSans-2212" d="M 678 2272 
L 4684 2272 
L 4684 1741 
L 678 1741 
L 678 2272 
z
" transform="scale(0.015625)"/>
        <path id="DejaVuSans-33" d="M 2597 2516 
Q 3050 2419 3304 2112 
Q 3559 1806 3559 1356 
Q 3559 666 3084 287 
Q 2609 -91 1734 -91 
Q 1441 -91 1130 -33 
Q 819 25 488 141 
L 488 750 
Q 750 597 1062 519 
Q 1375 441 1716 441 
Q 2309 441 2620 675 
Q 2931 909 2931 1356 
Q 2931 1769 2642 2001 
Q 2353 2234 1838 2234 
L 1294 2234 
L 1294 2753 
L 1863 2753 
Q 2328 2753 2575 2939 
Q 2822 3125 2822 3475 
Q 2822 3834 2567 4026 
Q 2313 4219 1838 4219 
Q 1578 4219 1281 4162 
Q 984 4106 628 3988 
L 628 4550 
Q 988 4650 1302 4700 
Q 1616 4750 1894 4750 
Q 2613 4750 3031 4423 
Q 3450 4097 3450 3541 
Q 3450 3153 3228 2886 
Q 3006 2619 2597 2516 
z
" transform="scale(0.015625)"/>
        <path id="DejaVuSans-30" d="M 2034 4250 
Q 1547 4250 1301 3770 
Q 1056 3291 1056 2328 
Q 1056 1369 1301 889 
Q 1547 409 2034 409 
Q 2525 409 2770 889 
Q 3016 1369 3016 2328 
Q 3016 3291 2770 3770 
Q 2525 4250 2034 4250 
z
M 2034 4750 
Q 2819 4750 3233 4129 
Q 3647 3509 3647 2328 
Q 3647 1150 3233 529 
Q 2819 -91 2034 -91 
Q 1250 -91 836 529 
Q 422 1150 422 2328 
Q 422 3509 836 4129 
Q 1250 4750 2034 4750 
z
" transform="scale(0.015625)"/>
       </defs>
       <use xlink:href="#DejaVuSans-2212"/>
       <use xlink:href="#DejaVuSans-33" x="83.789062"/>
       <use xlink:href="#DejaVuSans-30" x="147.412109"/>
      </g>
     </g>
    </g>
    <g id="xtick_2">
     <g id="line2d_3">
      <path d="M 192.434692 318.04 
L 192.434692 26.88 
" clip-path="url(#p5982b8f038)" style="fill: none; stroke: #b0b0b0; stroke-width: 0.8; stroke-linecap: square"/>
     </g>
     <g id="line2d_4">
      <g>
       <use xlink:href="#m603463a828" x="192.434692" y="318.04" style="stroke: #000000; stroke-width: 0.8"/>
      </g>
     </g>
     <g id="text_2">
      <!-- −20 -->
      <g transform="translate(181.882348 332.638438) scale(0.1 -0.1)">
       <defs>
        <path id="DejaVuSans-32" d="M 1228 531 
L 3431 531 
L 3431 0 
L 469 0 
L 469 531 
Q 828 903 1448 1529 
Q 2069 2156 2228 2338 
Q 2531 2678 2651 2914 
Q 2772 3150 2772 3378 
Q 2772 3750 2511 3984 
Q 2250 4219 1831 4219 
Q 1534 4219 1204 4116 
Q 875 4013 500 3803 
L 500 4441 
Q 881 4594 1212 4672 
Q 1544 4750 1819 4750 
Q 2544 4750 2975 4387 
Q 3406 4025 3406 3419 
Q 3406 3131 3298 2873 
Q 3191 2616 2906 2266 
Q 2828 2175 2409 1742 
Q 1991 1309 1228 531 
z
" transform="scale(0.015625)"/>
       </defs>
       <use xlink:href="#DejaVuSans-2212"/>
       <use xlink:href="#DejaVuSans-32" x="83.789062"/>
       <use xlink:href="#DejaVuSans-30" x="147.412109"/>
      </g>
     </g>
    </g>
    <g id="xtick_3">
     <g id="line2d_5">
      <path d="M 323.18986 318.04 
L 323.18986 26.88 
" clip-path="url(#p5982b8f038)" style="fill: none; stroke: #b0b0b0; stroke-width: 0.8; stroke-linecap: square"/>
     </g>
     <g id="line2d_6">
      <g>
       <use xlink:href="#m603463a828" x="323.18986" y="318.04" style="stroke: #000000; stroke-width: 0.8"/>
      </g>
     </g>
     <g id="text_3">
      <!-- −10 -->
      <g transform="translate(312.637516 332.638438) scale(0.1 -0.1)">
       <defs>
        <path id="DejaVuSans-31" d="M 794 531 
L 1825 531 
L 1825 4091 
L 703 3866 
L 703 4441 
L 1819 4666 
L 2450 4666 
L 2450 531 
L 3481 531 
L 3481 0 
L 794 0 
L 794 531 
z
" transform="scale(0.015625)"/>
       </defs>
       <use xlink:href="#DejaVuSans-2212"/>
       <use xlink:href="#DejaVuSans-31" x="83.789062"/>
       <use xlink:href="#DejaVuSans-30" x="147.412109"/>
      </g>
     </g>
    </g>
    <g id="xtick_4">
     <g id="line2d_7">
      <path d="M 453.945027 318.04 
L 453.945027 26.88 
" clip-path="url(#p5982b8f038)" style="fill: none; stroke: #b0b0b0; stroke-width: 0.8; stroke-linecap: square"/>
     </g>
     <g id="line2d_8">
      <g>
       <use xlink:href="#m603463a828" x="453.945027" y="318.04" style="stroke: #000000; stroke-width: 0.8"/>
      </g>
     </g>
     <g id="text_4">
      <!-- 0 -->
      <g transform="translate(450.763777 332.638438) scale(0.1 -0.1)">
       <use xlink:href="#DejaVuSans-30"/>
      </g>
     </g>
    </g>
    <g id="xtick_5">
     <g id="line2d_9">
      <path d="M 584.700195 318.04 
L 584.700195 26.88 
" clip-path="url(#p5982b8f038)" style="fill: none; stroke: #b0b0b0; stroke-width: 0.8; stroke-linecap: square"/>
     </g>
     <g id="line2d_10">
      <g>
       <use xlink:href="#m603463a828" x="584.700195" y="318.04" style="stroke: #000000; stroke-width: 0.8"/>
      </g>
     </g>
     <g id="text_5">
      <!-- 10 -->
      <g transform="translate(578.337695 332.638438) scale(0.1 -0.1)">
       <use xlink:href="#DejaVuSans-31"/>
       <use xlink:href="#DejaVuSans-30" x="63.623047"/>
      </g>
     </g>
    </g>
    <g id="xtick_6">
     <g id="line2d_11">
      <path d="M 715.455362 318.04 
L 715.455362 26.88 
" clip-path="url(#p5982b8f038)" style="fill: none; stroke: #b0b0b0; stroke-width: 0.8; stroke-linecap: square"/>
     </g>
     <g id="line2d_12">
      <g>
       <use xlink:href="#m603463a828" x="715.455362" y="318.04" style="stroke: #000000; stroke-width: 0.8"/>
      </g>
     </g>
     <g id="text_6">
      <!-- 20 -->
      <g transform="translate(709.092862 332.638438) scale(0.1 -0.1)">
       <use xlink:href="#DejaVuSans-32"/>
       <use xlink:href="#DejaVuSans-30" x="63.623047"/>
      </g>
     </g>
    </g>
    <g id="xtick_7">
     <g id="line2d_13">
      <path d="M 846.21053 318.04 
L 846.21053 26.88 
" clip-path="url(#p5982b8f038)" style="fill: none; stroke: #b0b0b0; stroke-width: 0.8; stroke-linecap: square"/>
     </g>
     <g id="line2d_14">
      <g>
       <use xlink:href="#m603463a828" x="846.21053" y="318.04" style="stroke: #000000; stroke-width: 0.8"/>
      </g>
     </g>
     <g id="text_7">
      <!-- 30 -->
      <g transform="translate(839.84803 332.638438) scale(0.1 -0.1)">
       <use xlink:href="#DejaVuSans-33"/>
       <use xlink:href="#DejaVuSans-30" x="63.623047"/>
      </g>
     </g>
    </g>
    <g id="text_8">
     <!-- Time Lag (s) -->
     <g transform="translate(423.00284 346.316563) scale(0.1 -0.1)">
      <defs>
       <path id="DejaVuSans-54" d="M -19 4666 
L 3928 4666 
L 3928 4134 
L 2272 4134 
L 2272 0 
L 1638 0 
L 1638 4134 
L -19 4134 
L -19 4666 
z
" transform="scale(0.015625)"/>
       <path id="DejaVuSans-69" d="M 603 3500 
L 1178 3500 
L 1178 0 
L 603 0 
L 603 3500 
z
M 603 4863 
L 1178 4863 
L 1178 4134 
L 603 4134 
L 603 4863 
z
" transform="scale(0.015625)"/>
       <path id="DejaVuSans-6d" d="M 3328 2828 
Q 3544 3216 3844 3400 
Q 4144 3584 4550 3584 
Q 5097 3584 5394 3201 
Q 5691 2819 5691 2113 
L 5691 0 
L 5113 0 
L 5113 2094 
Q 5113 2597 4934 2840 
Q 4756 3084 4391 3084 
Q 3944 3084 3684 2787 
Q 3425 2491 3425 1978 
L 3425 0 
L 2847 0 
L 2847 2094 
Q 2847 2600 2669 2842 
Q 2491 3084 2119 3084 
Q 1678 3084 1418 2786 
Q 1159 2488 1159 1978 
L 1159 0 
L 581 0 
L 581 3500 
L 1159 3500 
L 1159 2956 
Q 1356 3278 1631 3431 
Q 1906 3584 2284 3584 
Q 2666 3584 2933 3390 
Q 3200 3197 3328 2828 
z
" transform="scale(0.015625)"/>
       <path id="DejaVuSans-65" d="M 3597 1894 
L 3597 1613 
L 953 1613 
Q 991 1019 1311 708 
Q 1631 397 2203 397 
Q 2534 397 2845 478 
Q 3156 559 3463 722 
L 3463 178 
Q 3153 47 2828 -22 
Q 2503 -91 2169 -91 
Q 1331 -91 842 396 
Q 353 884 353 1716 
Q 353 2575 817 3079 
Q 1281 3584 2069 3584 
Q 2775 3584 3186 3129 
Q 3597 2675 3597 1894 
z
M 3022 2063 
Q 3016 2534 2758 2815 
Q 2500 3097 2075 3097 
Q 1594 3097 1305 2825 
Q 1016 2553 972 2059 
L 3022 2063 
z
" transform="scale(0.015625)"/>
       <path id="DejaVuSans-20" transform="scale(0.015625)"/>
       <path id="DejaVuSans-4c" d="M 628 4666 
L 1259 4666 
L 1259 531 
L 3531 531 
L 3531 0 
L 628 0 
L 628 4666 
z
" transform="scale(0.015625)"/>
       <path id="DejaVuSans-61" d="M 2194 1759 
Q 1497 1759 1228 1600 
Q 959 1441 959 1056 
Q 959 750 1161 570 
Q 1363 391 1709 391 
Q 2188 391 2477 730 
Q 2766 1069 2766 1631 
L 2766 1759 
L 2194 1759 
z
M 3341 1997 
L 3341 0 
L 2766 0 
L 2766 531 
Q 2569 213 2275 61 
Q 1981 -91 1556 -91 
Q 1019 -91 701 211 
Q 384 513 384 1019 
Q 384 1609 779 1909 
Q 1175 2209 1959 2209 
L 2766 2209 
L 2766 2266 
Q 2766 2663 2505 2880 
Q 2244 3097 1772 3097 
Q 1472 3097 1187 3025 
Q 903 2953 641 2809 
L 641 3341 
Q 956 3463 1253 3523 
Q 1550 3584 1831 3584 
Q 2591 3584 2966 3190 
Q 3341 2797 3341 1997 
z
" transform="scale(0.015625)"/>
       <path id="DejaVuSans-67" d="M 2906 1791 
Q 2906 2416 2648 2759 
Q 2391 3103 1925 3103 
Q 1463 3103 1205 2759 
Q 947 2416 947 1791 
Q 947 1169 1205 825 
Q 1463 481 1925 481 
Q 2391 481 2648 825 
Q 2906 1169 2906 1791 
z
M 3481 434 
Q 3481 -459 3084 -895 
Q 2688 -1331 1869 -1331 
Q 1566 -1331 1297 -1286 
Q 1028 -1241 775 -1147 
L 775 -588 
Q 1028 -725 1275 -790 
Q 1522 -856 1778 -856 
Q 2344 -856 2625 -561 
Q 2906 -266 2906 331 
L 2906 616 
Q 2728 306 2450 153 
Q 2172 0 1784 0 
Q 1141 0 747 490 
Q 353 981 353 1791 
Q 353 2603 747 3093 
Q 1141 3584 1784 3584 
Q 2172 3584 2450 3431 
Q 2728 3278 2906 2969 
L 2906 3500 
L 3481 3500 
L 3481 434 
z
" transform="scale(0.015625)"/>
       <path id="DejaVuSans-28" d="M 1984 4856 
Q 1566 4138 1362 3434 
Q 1159 2731 1159 2009 
Q 1159 1288 1364 580 
Q 1569 -128 1984 -844 
L 1484 -844 
Q 1016 -109 783 600 
Q 550 1309 550 2009 
Q 550 2706 781 3412 
Q 1013 4119 1484 4856 
L 1984 4856 
z
" transform="scale(0.015625)"/>
       <path id="DejaVuSans-73" d="M 2834 3397 
L 2834 2853 
Q 2591 2978 2328 3040 
Q 2066 3103 1784 3103 
Q 1356 3103 1142 2972 
Q 928 2841 928 2578 
Q 928 2378 1081 2264 
Q 1234 2150 1697 2047 
L 1894 2003 
Q 2506 1872 2764 1633 
Q 3022 1394 3022 966 
Q 3022 478 2636 193 
Q 2250 -91 1575 -91 
Q 1294 -91 989 -36 
Q 684 19 347 128 
L 347 722 
Q 666 556 975 473 
Q 1284 391 1588 391 
Q 1994 391 2212 530 
Q 2431 669 2431 922 
Q 2431 1156 2273 1281 
Q 2116 1406 1581 1522 
L 1381 1569 
Q 847 1681 609 1914 
Q 372 2147 372 2553 
Q 372 3047 722 3315 
Q 1072 3584 1716 3584 
Q 2034 3584 2315 3537 
Q 2597 3491 2834 3397 
z
" transform="scale(0.015625)"/>
       <path id="DejaVuSans-29" d="M 513 4856 
L 1013 4856 
Q 1481 4119 1714 3412 
Q 1947 2706 1947 2009 
Q 1947 1309 1714 600 
Q 1481 -109 1013 -844 
L 513 -844 
Q 928 -128 1133 580 
Q 1338 1288 1338 2009 
Q 1338 2731 1133 3434 
Q 928 4138 513 4856 
z
" transform="scale(0.015625)"/>
      </defs>
      <use xlink:href="#DejaVuSans-54"/>
      <use xlink:href="#DejaVuSans-69" x="57.958984"/>
      <use xlink:href="#DejaVuSans-6d" x="85.742188"/>
      <use xlink:href="#DejaVuSans-65" x="183.154297"/>
      <use xlink:href="#DejaVuSans-20" x="244.677734"/>
      <use xlink:href="#DejaVuSans-4c" x="276.464844"/>
      <use xlink:href="#DejaVuSans-61" x="332.177734"/>
      <use xlink:href="#DejaVuSans-67" x="393.457031"/>
      <use xlink:href="#DejaVuSans-20" x="456.933594"/>
      <use xlink:href="#DejaVuSans-28" x="488.720703"/>
      <use xlink:href="#DejaVuSans-73" x="527.734375"/>
      <use xlink:href="#DejaVuSans-29" x="579.833984"/>
     </g>
    </g>
   </g>
   <g id="matplotlib.axis_2">
    <g id="ytick_1">
     <g id="line2d_15">
      <path d="M 57.26 315.816444 
L 850.630055 315.816444 
" clip-path="url(#p5982b8f038)" style="fill: none; stroke: #b0b0b0; stroke-width: 0.8; stroke-linecap: square"/>
     </g>
     <g id="line2d_16">
      <defs>
       <path id="m253cf64c2b" d="M 0 0 
L -3.5 0 
" style="stroke: #000000; stroke-width: 0.8"/>
      </defs>
      <g>
       <use xlink:href="#m253cf64c2b" x="57.26" y="315.816444" style="stroke: #000000; stroke-width: 0.8"/>
      </g>
     </g>
     <g id="text_9">
      <!-- 600 -->
      <g transform="translate(31.1725 319.615663) scale(0.1 -0.1)">
       <defs>
        <path id="DejaVuSans-36" d="M 2113 2584 
Q 1688 2584 1439 2293 
Q 1191 2003 1191 1497 
Q 1191 994 1439 701 
Q 1688 409 2113 409 
Q 2538 409 2786 701 
Q 3034 994 3034 1497 
Q 3034 2003 2786 2293 
Q 2538 2584 2113 2584 
z
M 3366 4563 
L 3366 3988 
Q 3128 4100 2886 4159 
Q 2644 4219 2406 4219 
Q 1781 4219 1451 3797 
Q 1122 3375 1075 2522 
Q 1259 2794 1537 2939 
Q 1816 3084 2150 3084 
Q 2853 3084 3261 2657 
Q 3669 2231 3669 1497 
Q 3669 778 3244 343 
Q 2819 -91 2113 -91 
Q 1303 -91 875 529 
Q 447 1150 447 2328 
Q 447 3434 972 4092 
Q 1497 4750 2381 4750 
Q 2619 4750 2861 4703 
Q 3103 4656 3366 4563 
z
" transform="scale(0.015625)"/>
       </defs>
       <use xlink:href="#DejaVuSans-36"/>
       <use xlink:href="#DejaVuSans-30" x="63.623047"/>
       <use xlink:href="#DejaVuSans-30" x="127.246094"/>
      </g>
     </g>
    </g>
    <g id="ytick_2">
     <g id="line2d_17">
      <path d="M 57.26 261.960206 
L 850.630055 261.960206 
" clip-path="url(#p5982b8f038)" style="fill: none; stroke: #b0b0b0; stroke-width: 0.8; stroke-linecap: square"/>
     </g>
     <g id="line2d_18">
      <g>
       <use xlink:href="#m253cf64c2b" x="57.26" y="261.960206" style="stroke: #000000; stroke-width: 0.8"/>
      </g>
     </g>
     <g id="text_10">
      <!-- 800 -->
      <g transform="translate(31.1725 265.759425) scale(0.1 -0.1)">
       <defs>
        <path id="DejaVuSans-38" d="M 2034 2216 
Q 1584 2216 1326 1975 
Q 1069 1734 1069 1313 
Q 1069 891 1326 650 
Q 1584 409 2034 409 
Q 2484 409 2743 651 
Q 3003 894 3003 1313 
Q 3003 1734 2745 1975 
Q 2488 2216 2034 2216 
z
M 1403 2484 
Q 997 2584 770 2862 
Q 544 3141 544 3541 
Q 544 4100 942 4425 
Q 1341 4750 2034 4750 
Q 2731 4750 3128 4425 
Q 3525 4100 3525 3541 
Q 3525 3141 3298 2862 
Q 3072 2584 2669 2484 
Q 3125 2378 3379 2068 
Q 3634 1759 3634 1313 
Q 3634 634 3220 271 
Q 2806 -91 2034 -91 
Q 1263 -91 848 271 
Q 434 634 434 1313 
Q 434 1759 690 2068 
Q 947 2378 1403 2484 
z
M 1172 3481 
Q 1172 3119 1398 2916 
Q 1625 2713 2034 2713 
Q 2441 2713 2670 2916 
Q 2900 3119 2900 3481 
Q 2900 3844 2670 4047 
Q 2441 4250 2034 4250 
Q 1625 4250 1398 4047 
Q 1172 3844 1172 3481 
z
" transform="scale(0.015625)"/>
       </defs>
       <use xlink:href="#DejaVuSans-38"/>
       <use xlink:href="#DejaVuSans-30" x="63.623047"/>
       <use xlink:href="#DejaVuSans-30" x="127.246094"/>
      </g>
     </g>
    </g>
    <g id="ytick_3">
     <g id="line2d_19">
      <path d="M 57.26 208.103967 
L 850.630055 208.103967 
" clip-path="url(#p5982b8f038)" style="fill: none; stroke: #b0b0b0; stroke-width: 0.8; stroke-linecap: square"/>
     </g>
     <g id="line2d_20">
      <g>
       <use xlink:href="#m253cf64c2b" x="57.26" y="208.103967" style="stroke: #000000; stroke-width: 0.8"/>
      </g>
     </g>
     <g id="text_11">
      <!-- 1000 -->
      <g transform="translate(24.81 211.903186) scale(0.1 -0.1)">
       <use xlink:href="#DejaVuSans-31"/>
       <use xlink:href="#DejaVuSans-30" x="63.623047"/>
       <use xlink:href="#DejaVuSans-30" x="127.246094"/>
       <use xlink:href="#DejaVuSans-30" x="190.869141"/>
      </g>
     </g>
    </g>
    <g id="ytick_4">
     <g id="line2d_21">
      <path d="M 57.26 154.247729 
L 850.630055 154.247729 
" clip-path="url(#p5982b8f038)" style="fill: none; stroke: #b0b0b0; stroke-width: 0.8; stroke-linecap: square"/>
     </g>
     <g id="line2d_22">
      <g>
       <use xlink:href="#m253cf64c2b" x="57.26" y="154.247729" style="stroke: #000000; stroke-width: 0.8"/>
      </g>
     </g>
     <g id="text_12">
      <!-- 1200 -->
      <g transform="translate(24.81 158.046948) scale(0.1 -0.1)">
       <use xlink:href="#DejaVuSans-31"/>
       <use xlink:href="#DejaVuSans-32" x="63.623047"/>
       <use xlink:href="#DejaVuSans-30" x="127.246094"/>
       <use xlink:href="#DejaVuSans-30" x="190.869141"/>
      </g>
     </g>
    </g>
    <g id="ytick_5">
     <g id="line2d_23">
      <path d="M 57.26 100.391491 
L 850.630055 100.391491 
" clip-path="url(#p5982b8f038)" style="fill: none; stroke: #b0b0b0; stroke-width: 0.8; stroke-linecap: square"/>
     </g>
     <g id="line2d_24">
      <g>
       <use xlink:href="#m253cf64c2b" x="57.26" y="100.391491" style="stroke: #000000; stroke-width: 0.8"/>
      </g>
     </g>
     <g id="text_13">
      <!-- 1400 -->
      <g transform="translate(24.81 104.19071) scale(0.1 -0.1)">
       <defs>
        <path id="DejaVuSans-34" d="M 2419 4116 
L 825 1625 
L 2419 1625 
L 2419 4116 
z
M 2253 4666 
L 3047 4666 
L 3047 1625 
L 3713 1625 
L 3713 1100 
L 3047 1100 
L 3047 0 
L 2419 0 
L 2419 1100 
L 313 1100 
L 313 1709 
L 2253 4666 
z
" transform="scale(0.015625)"/>
       </defs>
       <use xlink:href="#DejaVuSans-31"/>
       <use xlink:href="#DejaVuSans-34" x="63.623047"/>
       <use xlink:href="#DejaVuSans-30" x="127.246094"/>
       <use xlink:href="#DejaVuSans-30" x="190.869141"/>
      </g>
     </g>
    </g>
    <g id="ytick_6">
     <g id="line2d_25">
      <path d="M 57.26 46.535252 
L 850.630055 46.535252 
" clip-path="url(#p5982b8f038)" style="fill: none; stroke: #b0b0b0; stroke-width: 0.8; stroke-linecap: square"/>
     </g>
     <g id="line2d_26">
      <g>
       <use xlink:href="#m253cf64c2b" x="57.26" y="46.535252" style="stroke: #000000; stroke-width: 0.8"/>
      </g>
     </g>
     <g id="text_14">
      <!-- 1600 -->
      <g transform="translate(24.81 50.334471) scale(0.1 -0.1)">
       <use xlink:href="#DejaVuSans-31"/>
       <use xlink:href="#DejaVuSans-36" x="63.623047"/>
       <use xlink:href="#DejaVuSans-30" x="127.246094"/>
       <use xlink:href="#DejaVuSans-30" x="190.869141"/>
      </g>
     </g>
    </g>
    <g id="text_15">
     <!-- Cross-correlation -->
     <g transform="translate(18.730313 214.793594) rotate(-90) scale(0.1 -0.1)">
      <defs>
       <path id="DejaVuSans-43" d="M 4122 4306 
L 4122 3641 
Q 3803 3938 3442 4084 
Q 3081 4231 2675 4231 
Q 1875 4231 1450 3742 
Q 1025 3253 1025 2328 
Q 1025 1406 1450 917 
Q 1875 428 2675 428 
Q 3081 428 3442 575 
Q 3803 722 4122 1019 
L 4122 359 
Q 3791 134 3420 21 
Q 3050 -91 2638 -91 
Q 1578 -91 968 557 
Q 359 1206 359 2328 
Q 359 3453 968 4101 
Q 1578 4750 2638 4750 
Q 3056 4750 3426 4639 
Q 3797 4528 4122 4306 
z
" transform="scale(0.015625)"/>
       <path id="DejaVuSans-72" d="M 2631 2963 
Q 2534 3019 2420 3045 
Q 2306 3072 2169 3072 
Q 1681 3072 1420 2755 
Q 1159 2438 1159 1844 
L 1159 0 
L 581 0 
L 581 3500 
L 1159 3500 
L 1159 2956 
Q 1341 3275 1631 3429 
Q 1922 3584 2338 3584 
Q 2397 3584 2469 3576 
Q 2541 3569 2628 3553 
L 2631 2963 
z
" transform="scale(0.015625)"/>
       <path id="DejaVuSans-6f" d="M 1959 3097 
Q 1497 3097 1228 2736 
Q 959 2375 959 1747 
Q 959 1119 1226 758 
Q 1494 397 1959 397 
Q 2419 397 2687 759 
Q 2956 1122 2956 1747 
Q 2956 2369 2687 2733 
Q 2419 3097 1959 3097 
z
M 1959 3584 
Q 2709 3584 3137 3096 
Q 3566 2609 3566 1747 
Q 3566 888 3137 398 
Q 2709 -91 1959 -91 
Q 1206 -91 779 398 
Q 353 888 353 1747 
Q 353 2609 779 3096 
Q 1206 3584 1959 3584 
z
" transform="scale(0.015625)"/>
       <path id="DejaVuSans-2d" d="M 313 2009 
L 1997 2009 
L 1997 1497 
L 313 1497 
L 313 2009 
z
" transform="scale(0.015625)"/>
       <path id="DejaVuSans-63" d="M 3122 3366 
L 3122 2828 
Q 2878 2963 2633 3030 
Q 2388 3097 2138 3097 
Q 1578 3097 1268 2742 
Q 959 2388 959 1747 
Q 959 1106 1268 751 
Q 1578 397 2138 397 
Q 2388 397 2633 464 
Q 2878 531 3122 666 
L 3122 134 
Q 2881 22 2623 -34 
Q 2366 -91 2075 -91 
Q 1284 -91 818 406 
Q 353 903 353 1747 
Q 353 2603 823 3093 
Q 1294 3584 2113 3584 
Q 2378 3584 2631 3529 
Q 2884 3475 3122 3366 
z
" transform="scale(0.015625)"/>
       <path id="DejaVuSans-6c" d="M 603 4863 
L 1178 4863 
L 1178 0 
L 603 0 
L 603 4863 
z
" transform="scale(0.015625)"/>
       <path id="DejaVuSans-74" d="M 1172 4494 
L 1172 3500 
L 2356 3500 
L 2356 3053 
L 1172 3053 
L 1172 1153 
Q 1172 725 1289 603 
Q 1406 481 1766 481 
L 2356 481 
L 2356 0 
L 1766 0 
Q 1100 0 847 248 
Q 594 497 594 1153 
L 594 3053 
L 172 3053 
L 172 3500 
L 594 3500 
L 594 4494 
L 1172 4494 
z
" transform="scale(0.015625)"/>
       <path id="DejaVuSans-6e" d="M 3513 2113 
L 3513 0 
L 2938 0 
L 2938 2094 
Q 2938 2591 2744 2837 
Q 2550 3084 2163 3084 
Q 1697 3084 1428 2787 
Q 1159 2491 1159 1978 
L 1159 0 
L 581 0 
L 581 3500 
L 1159 3500 
L 1159 2956 
Q 1366 3272 1645 3428 
Q 1925 3584 2291 3584 
Q 2894 3584 3203 3211 
Q 3513 2838 3513 2113 
z
" transform="scale(0.015625)"/>
      </defs>
      <use xlink:href="#DejaVuSans-43"/>
      <use xlink:href="#DejaVuSans-72" x="69.824219"/>
      <use xlink:href="#DejaVuSans-6f" x="108.6875"/>
      <use xlink:href="#DejaVuSans-73" x="169.869141"/>
      <use xlink:href="#DejaVuSans-73" x="221.96875"/>
      <use xlink:href="#DejaVuSans-2d" x="274.068359"/>
      <use xlink:href="#DejaVuSans-63" x="310.152344"/>
      <use xlink:href="#DejaVuSans-6f" x="365.132812"/>
      <use xlink:href="#DejaVuSans-72" x="426.314453"/>
      <use xlink:href="#DejaVuSans-72" x="465.677734"/>
      <use xlink:href="#DejaVuSans-65" x="504.541016"/>
      <use xlink:href="#DejaVuSans-6c" x="566.064453"/>
      <use xlink:href="#DejaVuSans-61" x="593.847656"/>
      <use xlink:href="#DejaVuSans-74" x="655.126953"/>
      <use xlink:href="#DejaVuSans-69" x="694.335938"/>
      <use xlink:href="#DejaVuSans-6f" x="722.119141"/>
      <use xlink:href="#DejaVuSans-6e" x="783.300781"/>
     </g>
    </g>
   </g>
   <g id="line2d_27">
    <path d="M 93.322275 263.90219 
L 93.976051 263.548558 
L 94.629827 263.465077 
L 95.414358 263.64161 
L 97.898706 264.475947 
L 98.683237 264.372275 
L 99.467768 264.063263 
L 100.383054 263.471658 
L 101.559851 262.441401 
L 103.913444 260.007718 
L 107.443833 255.77718 
L 108.228364 255.315025 
L 108.88214 255.180404 
L 109.666671 255.274477 
L 110.712713 255.659358 
L 111.889509 256.06594 
L 112.804795 256.110866 
L 113.589326 255.928645 
L 114.504612 255.449904 
L 115.681409 254.532261 
L 118.688778 251.74334 
L 122.349922 247.740552 
L 123.003698 247.455362 
L 123.657474 247.397779 
L 124.31125 247.548379 
L 125.095781 247.958613 
L 126.795598 248.925509 
L 127.580129 249.136706 
L 128.233905 249.111516 
L 129.018436 248.835165 
L 129.802967 248.305532 
L 131.502784 246.765752 
L 132.810336 245.184468 
L 134.771663 242.446917 
L 136.20997 240.48446 
L 136.994501 239.789965 
L 137.648277 239.490061 
L 138.302053 239.461901 
L 138.955829 239.707244 
L 139.74036 240.289609 
L 142.093953 242.253355 
L 142.747729 242.449229 
L 143.401504 242.39791 
L 144.05528 242.096721 
L 144.839811 241.511138 
L 145.755097 240.514148 
L 147.062649 238.640825 
L 150.593039 233.371191 
L 151.37757 232.734212 
L 152.031345 232.490686 
L 152.685121 232.523374 
L 153.338897 232.816031 
L 154.123428 233.435584 
L 155.954 235.010846 
L 156.607776 235.267922 
L 157.130797 235.270016 
L 157.653818 235.065749 
L 158.307593 234.519276 
L 159.092124 233.538201 
L 160.138166 231.785165 
L 163.01478 226.689309 
L 163.930066 225.555252 
L 164.583842 225.033621 
L 165.237617 224.795331 
L 165.891393 224.831327 
L 166.545169 225.123349 
L 167.3297 225.744755 
L 168.506497 226.990218 
L 169.421783 227.830235 
L 170.075559 228.146218 
L 170.598579 228.167885 
L 171.1216 227.946097 
L 171.644621 227.464104 
L 172.298396 226.506687 
L 173.082927 224.945622 
L 174.521234 221.447015 
L 175.828786 218.450711 
L 176.613317 217.114747 
L 177.397848 216.248399 
L 178.051624 215.868887 
L 178.574644 215.822229 
L 179.097665 215.995927 
L 179.751441 216.470286 
L 180.666727 217.4704 
L 182.889565 220.06671 
L 183.543341 220.434082 
L 184.066362 220.452154 
L 184.589382 220.202004 
L 185.112403 219.67547 
L 185.766179 218.642496 
L 186.55071 216.93195 
L 187.858261 213.362754 
L 189.165813 209.96021 
L 189.950344 208.469034 
L 190.60412 207.688963 
L 191.127141 207.398883 
L 191.650161 207.362473 
L 192.173182 207.571384 
L 192.826958 208.148845 
L 193.742244 209.373427 
L 195.572816 211.94923 
L 196.488102 212.732469 
L 197.011123 212.921593 
L 197.534144 212.838697 
L 198.057164 212.461044 
L 198.580185 211.796531 
L 199.233961 210.597229 
L 200.149247 208.358099 
L 203.025861 200.725395 
L 203.679637 199.829556 
L 204.202657 199.494097 
L 204.594923 199.474321 
L 204.987188 199.649812 
L 205.510209 200.143637 
L 206.163985 201.072241 
L 207.210026 203.032456 
L 208.517578 205.452183 
L 209.302109 206.435511 
L 209.82513 206.785743 
L 210.34815 206.908426 
L 210.871171 206.79136 
L 211.394192 206.388848 
L 211.917212 205.689199 
L 212.570988 204.444519 
L 213.486274 202.170992 
L 216.624398 193.690352 
L 217.147419 192.965254 
L 217.67044 192.605064 
L 218.062705 192.584916 
L 218.454971 192.779979 
L 218.977991 193.359864 
L 219.631767 194.502997 
L 220.808564 197.128636 
L 221.98536 199.64088 
L 222.639136 200.586302 
L 223.162157 201.0028 
L 223.554422 201.100447 
L 223.946688 201.008545 
L 224.469708 200.657936 
L 224.992729 200.061324 
L 225.646505 198.955417 
L 226.561791 196.853236 
L 230.222936 187.696706 
L 230.876711 186.874716 
L 231.399732 186.581724 
L 231.791998 186.584224 
L 232.184263 186.775923 
L 232.707284 187.314107 
L 233.36106 188.391262 
L 234.668611 191.201637 
L 235.714653 193.263475 
L 236.368429 194.099758 
L 236.891449 194.402616 
L 237.283715 194.395984 
L 237.67598 194.192244 
L 238.199001 193.631065 
L 238.852777 192.60201 
L 239.637308 190.951231 
L 243.036942 183.072977 
L 243.821473 181.935685 
L 244.475249 181.371878 
L 244.99827 181.212736 
L 245.52129 181.310182 
L 246.044311 181.648071 
L 246.698087 182.370658 
L 247.613373 183.804245 
L 249.182435 186.29721 
L 249.836211 186.896691 
L 250.359231 187.044435 
L 250.751497 186.931577 
L 251.143762 186.61953 
L 251.666783 185.90872 
L 252.320559 184.610635 
L 253.497355 181.650904 
L 255.066417 177.651077 
L 255.850948 176.232298 
L 256.504724 175.483676 
L 257.027745 175.169891 
L 257.550766 175.079219 
L 258.073786 175.215529 
L 258.596807 175.574308 
L 259.381338 176.451612 
L 260.558135 178.192866 
L 261.996441 180.285577 
L 262.650217 180.869617 
L 263.173238 181.036481 
L 263.565503 180.954455 
L 263.957769 180.68048 
L 264.48079 180.005205 
L 265.134565 178.664635 
L 265.919096 176.414026 
L 268.79571 167.342368 
L 269.449486 166.28363 
L 269.841751 165.962194 
L 270.234017 165.883421 
L 270.626282 166.037617 
L 271.018548 166.413863 
L 271.672324 167.441142 
L 272.456855 169.174769 
L 275.071958 175.407332 
L 275.725734 176.287935 
L 276.248755 176.613178 
L 276.64102 176.599927 
L 277.033286 176.355431 
L 277.556306 175.667779 
L 278.079327 174.582303 
L 278.733103 172.705118 
L 279.648389 169.256517 
L 282.001982 159.667221 
L 282.655758 157.976794 
L 283.178779 157.186737 
L 283.571044 156.968437 
L 283.832554 157.010149 
L 284.22482 157.351909 
L 284.617085 158.009799 
L 285.140106 159.32728 
L 285.924637 162.001933 
L 288.27823 170.702851 
L 288.932006 172.142543 
L 289.455027 172.755622 
L 289.847292 172.873301 
L 290.108802 172.771217 
L 290.501068 172.337327 
L 291.024089 171.270615 
L 291.677864 169.239811 
L 292.462395 165.967443 
L 293.639192 159.932682 
L 295.208254 151.941343 
L 295.86203 149.55974 
L 296.38505 148.277878 
L 296.777316 147.732136 
L 297.169581 147.575699 
L 297.431092 147.696133 
L 297.823357 148.218719 
L 298.215623 149.141994 
L 298.738643 150.936699 
L 299.523174 154.564465 
L 301.876767 166.344362 
L 302.530543 168.297891 
L 302.922809 168.968861 
L 303.315074 169.231383 
L 303.576585 169.174699 
L 303.96885 168.742928 
L 304.361116 167.884794 
L 304.884136 166.12686 
L 305.668667 162.448518 
L 306.845464 155.506696 
L 308.545281 145.462931 
L 309.199057 142.634778 
L 309.722078 141.09263 
L 310.114343 140.388996 
L 310.506609 140.090418 
L 310.768119 140.123173 
L 311.029629 140.345553 
L 311.421895 141.034245 
L 311.944915 142.592989 
L 312.598691 145.457324 
L 313.644733 151.388093 
L 315.083039 159.572859 
L 315.736815 162.289565 
L 316.259836 163.680933 
L 316.652101 164.186308 
L 316.913612 164.250067 
L 317.175122 164.09145 
L 317.567388 163.441881 
L 317.959653 162.319664 
L 318.482674 160.127431 
L 319.267205 155.593341 
L 320.836267 144.55695 
L 321.882308 137.864123 
L 322.666839 134.199209 
L 323.18986 132.679217 
L 323.582125 132.090904 
L 323.843636 131.958136 
L 324.105146 132.028822 
L 324.366656 132.297721 
L 324.758922 133.060187 
L 325.281942 134.70717 
L 325.935718 137.649864 
L 326.851004 142.949649 
L 328.550822 153.017485 
L 329.204598 155.809919 
L 329.727618 157.254896 
L 330.119884 157.796786 
L 330.381394 157.879892 
L 330.642904 157.732489 
L 331.03517 157.075535 
L 331.427435 155.907471 
L 331.950456 153.618638 
L 332.604232 149.748074 
L 333.781028 140.977552 
L 335.219335 130.580867 
L 336.003866 126.527243 
L 336.526887 124.813433 
L 336.919152 124.121892 
L 337.180663 123.957385 
L 337.442173 124.030059 
L 337.703683 124.328838 
L 338.095949 125.173408 
L 338.61897 126.961937 
L 339.272745 130.078399 
L 340.318787 136.339369 
L 341.887849 145.630485 
L 342.541625 148.401913 
L 343.064645 149.858004 
L 343.456911 150.428634 
L 343.718421 150.543309 
L 343.979931 150.439999 
L 344.241442 150.117683 
L 344.633707 149.226342 
L 345.156728 147.296901 
L 345.810504 143.811527 
L 346.72579 137.46342 
L 348.817873 122.248732 
L 349.471648 119.066548 
L 349.994669 117.461945 
L 350.386935 116.872653 
L 350.648445 116.784438 
L 350.909955 116.940112 
L 351.302221 117.612533 
L 351.825241 119.252834 
L 352.479017 122.269659 
L 353.525059 128.44015 
L 355.094121 137.611078 
L 355.747897 140.3142 
L 356.270917 141.734371 
L 356.663183 142.324107 
L 356.924693 142.47358 
L 357.186203 142.421414 
L 357.447714 142.16549 
L 357.839979 141.4032 
L 358.363 139.715112 
L 359.016776 136.643937 
L 359.932062 130.956275 
L 362.285655 115.329277 
L 362.939431 112.578569 
L 363.462451 111.279986 
L 363.854717 110.88548 
L 364.116227 110.905848 
L 364.377738 111.152345 
L 364.770003 111.932473 
L 365.293024 113.674622 
L 365.9468 116.733769 
L 367.385106 124.999353 
L 368.431148 130.322712 
L 369.084924 132.60036 
L 369.607944 133.635572 
L 370.00021 133.904505 
L 370.26172 133.860224 
L 370.653986 133.458454 
L 371.046251 132.66394 
L 371.569272 131.032142 
L 372.223048 128.199299 
L 373.269089 122.463582 
L 375.099661 112.254053 
L 375.884192 109.166383 
L 376.407213 107.892496 
L 376.799478 107.406156 
L 377.060989 107.313057 
L 377.322499 107.405592 
L 377.714765 107.888149 
L 378.10703 108.765074 
L 378.630051 110.489489 
L 379.414582 114.005678 
L 381.506665 123.995849 
L 382.16044 125.918972 
L 382.552706 126.576342 
L 382.944971 126.819544 
L 383.206482 126.743072 
L 383.598747 126.27073 
L 383.991013 125.380255 
L 384.644789 123.144521 
L 385.42932 119.518339 
L 388.305933 105.061978 
L 388.959709 103.265031 
L 389.48273 102.504247 
L 389.874995 102.363789 
L 390.136506 102.480797 
L 390.528771 102.968397 
L 391.051792 104.17145 
L 391.705568 106.456223 
L 392.620854 110.707445 
L 394.320671 118.861043 
L 394.974447 120.923687 
L 395.497467 121.837338 
L 395.758978 122.013371 
L 396.020488 121.988747 
L 396.281998 121.756999 
L 396.674264 121.017471 
L 397.197285 119.328698 
L 397.85106 116.243559 
L 398.897102 109.851349 
L 400.727674 98.557576 
L 401.38145 95.742085 
L 401.904471 94.295458 
L 402.296736 93.733645 
L 402.558247 93.616643 
L 402.819757 93.70919 
L 403.081267 94.010438 
L 403.473533 94.844757 
L 403.996553 96.628982 
L 404.650329 99.802376 
L 405.565615 105.477436 
L 407.396188 117.048225 
L 408.049964 119.753983 
L 408.442229 120.720551 
L 408.834495 121.134776 
L 409.096005 121.089438 
L 409.357515 120.782745 
L 409.749781 119.830763 
L 410.272801 117.657663 
L 410.926577 113.597707 
L 411.841863 106.032159 
L 413.933946 87.854412 
L 414.587722 83.947713 
L 415.110743 81.939755 
L 415.503008 81.184415 
L 415.764518 81.057978 
L 416.026029 81.236719 
L 416.287539 81.716471 
L 416.679805 82.979131 
L 417.202825 85.615736 
L 417.856601 90.265008 
L 418.902642 99.792272 
L 420.60246 115.518026 
L 421.256235 119.792251 
L 421.779256 121.921935 
L 422.171522 122.615876 
L 422.433032 122.621101 
L 422.694542 122.252075 
L 423.086808 120.995004 
L 423.479073 118.917177 
L 424.002094 114.954105 
L 424.786625 106.820133 
L 426.094177 89.937159 
L 427.270973 75.720745 
L 427.924749 69.899097 
L 428.44777 66.814447 
L 428.840035 65.548963 
L 429.101546 65.234404 
L 429.363056 65.353593 
L 429.624566 65.907733 
L 430.016832 67.537672 
L 430.539852 71.102709 
L 431.193628 77.458132 
L 432.108914 88.957084 
L 434.070242 114.519714 
L 434.724018 120.433939 
L 435.247038 123.420836 
L 435.639304 124.474466 
L 435.900814 124.574082 
L 436.162325 124.169491 
L 436.423835 123.263263 
L 436.8161 120.981519 
L 437.339121 116.308047 
L 437.992897 108.182889 
L 438.908183 93.749646 
L 440.738755 63.835355 
L 441.392531 56.244 
L 441.915552 52.281183 
L 442.307817 50.721488 
L 442.569328 50.390989 
L 442.700083 50.441846 
L 442.961593 50.975567 
L 443.353859 52.84322 
L 443.746124 55.943748 
L 444.269145 61.826114 
L 445.053676 73.632748 
L 447.93029 120.97703 
L 448.45331 125.789975 
L 448.845576 128.004908 
L 449.107086 128.76194 
L 449.368596 128.920299 
L 449.630107 128.470334 
L 449.891617 127.413848 
L 450.283883 124.721742 
L 450.806903 119.192568 
L 451.460679 109.583994 
L 452.506721 89.958998 
L 454.337293 55.062184 
L 454.991069 46.455991 
L 455.514089 42.053618 
L 455.906355 40.396871 
L 456.167865 40.114545 
L 456.29862 40.222646 
L 456.560131 40.935691 
L 456.952396 43.224556 
L 457.475417 48.421717 
L 458.129193 57.922419 
L 459.044479 75.178985 
L 461.005806 113.527097 
L 461.659582 122.587124 
L 462.182603 127.47635 
L 462.574868 129.587937 
L 462.836379 130.219857 
L 462.967134 130.300289 
L 463.097889 130.223836 
L 463.359399 129.604444 
L 463.751665 127.540497 
L 464.274686 122.809866 
L 464.928461 114.161393 
L 465.843748 98.459327 
L 467.805075 63.313285 
L 468.458851 55.025355 
L 468.981872 50.64469 
L 469.374137 48.847938 
L 469.635647 48.395319 
L 469.766403 48.395482 
L 470.027913 48.849138 
L 470.289423 49.90377 
L 470.681689 52.572395 
L 471.204709 58.00101 
L 471.858485 67.307349 
L 472.904527 85.93232 
L 474.473589 113.794781 
L 475.25812 123.866337 
L 475.78114 128.259849 
L 476.173406 130.181328 
L 476.434916 130.782707 
L 476.696427 130.836536 
L 476.957937 130.349883 
L 477.350202 128.643319 
L 477.873223 124.693829 
L 478.526999 117.507973 
L 479.57304 102.665244 
L 481.272857 78.214832 
L 481.926633 71.432353 
L 482.449654 67.765725 
L 482.841919 66.18066 
L 483.10343 65.705989 
L 483.36494 65.703259 
L 483.62645 66.170653 
L 484.018716 67.730031 
L 484.410981 70.283143 
L 484.934002 75.096712 
L 485.718533 84.693764 
L 488.725902 124.866342 
L 489.248923 128.758891 
L 489.641188 130.604418 
L 490.033454 131.494288 
L 490.294964 131.556568 
L 490.556474 131.201815 
L 490.94874 129.91551 
L 491.47176 126.906874 
L 492.125536 121.429405 
L 493.171578 110.199913 
L 494.74064 93.418297 
L 495.394415 88.353393 
L 495.917436 85.615937 
L 496.309702 84.422556 
L 496.571212 84.053459 
L 496.832722 84.02875 
L 497.094233 84.345807 
L 497.486498 85.444361 
L 498.009519 87.99918 
L 498.663295 92.710814 
L 499.578581 101.333673 
L 501.670664 122.023177 
L 502.455195 127.361448 
L 502.978215 129.62678 
L 503.370481 130.556584 
L 503.631991 130.800085 
L 503.893501 130.74671 
L 504.155012 130.406008 
L 504.547277 129.385116 
L 505.070298 127.160769 
L 505.724074 123.252794 
L 507.031625 113.542945 
L 508.077667 106.268539 
L 508.731443 102.945546 
L 509.254463 101.250532 
L 509.646729 100.612771 
L 509.908239 100.501457 
L 510.169749 100.641174 
L 510.43126 101.026756 
L 510.823525 102.046707 
L 511.346546 104.165147 
L 512.000322 107.842896 
L 513.177118 116.184827 
L 514.615425 126.064944 
L 515.399956 129.959349 
L 515.922977 131.66371 
L 516.315242 132.415097 
L 516.707508 132.69693 
L 516.969018 132.6226 
L 517.361284 132.145928 
L 517.753549 131.269298 
L 518.27657 129.556711 
L 519.061101 126.12243 
L 521.283939 115.636163 
L 521.937714 113.815125 
L 522.32998 113.213365 
L 522.722245 113.01452 
L 522.983756 113.113584 
L 523.376021 113.609508 
L 523.768287 114.509265 
L 524.291308 116.286071 
L 525.075839 119.93536 
L 528.083207 135.314425 
L 528.606228 136.687311 
L 528.998494 137.292856 
L 529.390759 137.528713 
L 529.652269 137.481934 
L 530.044535 137.115085 
L 530.4368 136.414027 
L 530.959821 135.013733 
L 531.744352 132.183821 
L 533.70568 124.675717 
L 534.359455 123.05288 
L 534.882476 122.364887 
L 535.274742 122.262811 
L 535.536252 122.406098 
L 535.928517 122.947142 
L 536.451538 124.221204 
L 537.105314 126.621051 
L 537.889845 130.451815 
L 540.504948 144.19538 
L 541.158724 146.187733 
L 541.681745 147.057062 
L 542.07401 147.240965 
L 542.335521 147.136947 
L 542.727786 146.649731 
L 543.250807 145.428055 
L 543.904583 143.139826 
L 544.950624 138.370981 
L 546.388931 131.742841 
L 547.042707 129.588915 
L 547.565727 128.524048 
L 547.957993 128.165185 
L 548.219503 128.14792 
L 548.481014 128.313787 
L 548.873279 128.910324 
L 549.3963 130.346212 
L 550.050076 133.104637 
L 550.965362 138.310197 
L 553.580465 154.461465 
L 554.234241 156.918137 
L 554.757262 158.038311 
L 555.149527 158.369836 
L 555.411037 158.346956 
L 555.672548 158.126547 
L 556.064813 157.430451 
L 556.587834 155.862279 
L 557.24161 153.035116 
L 558.418406 146.58524 
L 559.725958 139.79352 
L 560.379734 137.376792 
L 560.902754 136.190379 
L 561.29502 135.812999 
L 561.55653 135.82125 
L 561.818041 136.03977 
L 562.210306 136.754989 
L 562.733327 138.397786 
L 563.387103 141.44385 
L 564.302389 147.129541 
L 566.917492 164.630485 
L 567.571268 167.381962 
L 568.094289 168.703707 
L 568.486554 169.136919 
L 568.748064 169.153352 
L 569.009575 168.959537 
L 569.40184 168.294775 
L 569.924861 166.743633 
L 570.578637 163.86336 
L 571.493923 158.599849 
L 573.062985 149.362539 
L 573.716761 146.592935 
L 574.239782 145.113045 
L 574.632047 144.506912 
L 574.893557 144.36554 
L 575.155068 144.44316 
L 575.416578 144.743315 
L 575.808844 145.607044 
L 576.331864 147.483413 
L 576.98564 150.817237 
L 577.900926 156.775246 
L 580.254519 172.752302 
L 580.908295 175.734018 
L 581.431316 177.300316 
L 581.823581 177.940992 
L 582.085092 178.103488 
L 582.346602 178.05424 
L 582.608112 177.796005 
L 583.000378 177.030235 
L 583.523398 175.364205 
L 584.177174 172.396818 
L 585.223216 166.287284 
L 586.661522 157.801046 
L 587.315298 155.034424 
L 587.838319 153.627205 
L 588.230584 153.080736 
L 588.492095 152.974297 
L 588.753605 153.081529 
L 589.015115 153.405371 
L 589.407381 154.295845 
L 589.930402 156.208433 
L 590.584177 159.601776 
L 591.630219 166.506121 
L 593.460791 178.846645 
L 594.245322 182.793666 
L 594.899098 184.968865 
L 595.291363 185.725617 
L 595.683629 186.052711 
L 595.945139 186.030239 
L 596.20665 185.818921 
L 596.598915 185.163392 
L 597.121936 183.708552 
L 597.775712 181.087987 
L 598.821753 175.670148 
L 600.390815 167.413895 
L 601.044591 165.013724 
L 601.567612 163.847091 
L 601.959877 163.468571 
L 602.221387 163.454923 
L 602.482898 163.63521 
L 602.875163 164.268024 
L 603.398184 165.767319 
L 604.05196 168.600943 
L 604.967246 173.878868 
L 607.190084 187.213988 
L 607.974615 190.484985 
L 608.497635 191.939305 
L 609.020656 192.748451 
L 609.412922 192.930356 
L 609.674432 192.854718 
L 610.066697 192.459566 
L 610.589718 191.452499 
L 611.243494 189.549936 
L 612.15878 185.985777 
L 614.120108 177.908869 
L 614.773883 176.110696 
L 615.296904 175.285582 
L 615.68917 175.068835 
L 615.95068 175.124643 
L 616.342945 175.505995 
L 616.735211 176.236771 
L 617.258232 177.720764 
L 617.912007 180.29424 
L 618.958049 185.529128 
L 620.527111 193.382094 
L 621.311642 196.335698 
L 621.965418 198.05149 
L 622.488438 198.853912 
L 622.880704 199.110205 
L 623.272969 199.080366 
L 623.665235 198.785923 
L 624.188256 198.031298 
L 624.842031 196.62877 
L 625.757318 194.117305 
L 627.718645 188.451492 
L 628.372421 187.192152 
L 628.895442 186.607929 
L 629.287707 186.449912 
L 629.679973 186.540321 
L 630.072238 186.880898 
L 630.595259 187.73594 
L 631.249035 189.390922 
L 632.033566 192.059901 
L 634.779424 202.204166 
L 635.4332 203.679045 
L 635.956221 204.446587 
L 636.479241 204.822369 
L 636.871507 204.848307 
L 637.263772 204.669202 
L 637.786793 204.154379 
L 638.440569 203.173222 
L 639.74812 200.696777 
L 641.186427 198.053479 
L 641.840203 197.247624 
L 642.363224 196.885943 
L 642.886244 196.814701 
L 643.27851 196.962729 
L 643.801531 197.421435 
L 644.324551 198.166281 
L 644.978327 199.505856 
L 645.893613 201.950555 
L 648.247206 208.580825 
L 649.031737 209.973287 
L 649.685513 210.644805 
L 650.208534 210.854044 
L 650.731555 210.776461 
L 651.254575 210.44496 
L 652.039106 209.610189 
L 654.261944 206.992514 
L 655.046475 206.4597 
L 655.569496 206.334358 
L 656.092516 206.423364 
L 656.615537 206.723914 
L 657.269313 207.377138 
L 658.053844 208.508303 
L 658.96913 210.225108 
L 661.845744 216.115268 
L 662.630275 217.051339 
L 663.284051 217.459019 
L 663.807071 217.537913 
L 664.330092 217.416875 
L 664.983868 217.023624 
L 666.291419 215.853993 
L 667.206706 215.204939 
L 667.860481 215.019136 
L 668.514257 215.088574 
L 669.037278 215.350848 
L 669.691054 215.956735 
L 670.475585 217.055227 
L 671.783137 219.37627 
L 673.875219 223.016079 
L 674.790505 224.182859 
L 675.444281 224.717918 
L 676.098057 224.985381 
L 676.751833 224.991697 
L 677.405609 224.752738 
L 678.19014 224.16169 
L 680.674488 222.003729 
L 681.197509 221.941618 
L 681.720529 222.126435 
L 682.24355 222.568766 
L 682.897326 223.457893 
L 683.681857 224.956181 
L 684.989408 228.091509 
L 686.29696 231.001185 
L 687.212246 232.474207 
L 687.866022 233.192338 
L 688.519798 233.589214 
L 689.042819 233.658453 
L 689.565839 233.521386 
L 690.219615 233.107099 
L 691.134901 232.191691 
L 692.311698 230.63523 
L 693.488494 229.166635 
L 694.14227 228.659953 
L 694.665291 228.520051 
L 695.188312 228.655957 
L 695.711332 229.082678 
L 696.234353 229.804071 
L 696.888129 231.095995 
L 697.803415 233.431187 
L 700.026253 239.393007 
L 700.810784 240.755839 
L 701.46456 241.439897 
L 701.98758 241.680348 
L 702.510601 241.656752 
L 703.033622 241.382208 
L 703.687397 240.736835 
L 704.602684 239.464552 
L 706.825521 236.201436 
L 707.479297 235.634659 
L 708.002318 235.443284 
L 708.394583 235.482408 
L 708.917604 235.800458 
L 709.440625 236.422777 
L 710.094401 237.600543 
L 710.878932 239.552872 
L 712.447994 244.290346 
L 713.62479 247.496992 
L 714.409321 248.973282 
L 714.932342 249.585207 
L 715.455362 249.875879 
L 715.978383 249.857265 
L 716.501404 249.557424 
L 717.15518 248.838207 
L 718.070466 247.383624 
L 719.901038 244.365752 
L 720.554814 243.633284 
L 721.077835 243.301598 
L 721.600855 243.237429 
L 722.123876 243.463094 
L 722.646897 243.985538 
L 723.300673 245.03194 
L 724.085204 246.760084 
L 725.131245 249.647842 
L 726.961817 254.7039 
L 727.746348 256.265189 
L 728.400124 257.113387 
L 728.923145 257.487577 
L 729.446165 257.572872 
L 729.969186 257.388719 
L 730.622962 256.844027 
L 731.407493 255.849087 
L 733.630331 252.809089 
L 734.284107 252.306453 
L 734.807127 252.145774 
L 735.330148 252.237199 
L 735.853169 252.591087 
L 736.376189 253.202796 
L 737.029965 254.301542 
L 737.945251 256.316437 
L 741.21413 264.021475 
L 741.867906 264.856557 
L 742.521682 265.314235 
L 743.044703 265.429961 
L 743.567724 265.301676 
L 744.221499 264.845866 
L 745.00603 263.997375 
L 747.490379 261.067731 
L 748.144154 260.698809 
L 748.667175 260.640943 
L 749.190196 260.808437 
L 749.713216 261.202116 
L 750.366992 261.994672 
L 751.151523 263.325541 
L 752.459075 266.087059 
L 754.158892 269.655437 
L 755.074178 271.081039 
L 755.727954 271.772385 
L 756.38173 272.168026 
L 757.035506 272.302396 
L 757.558526 272.219959 
L 758.212302 271.888691 
L 759.127588 271.156308 
L 761.219671 269.37208 
L 762.004202 269.04679 
L 762.527223 269.051259 
L 763.050243 269.25748 
L 763.704019 269.798029 
L 764.357795 270.632497 
L 765.273081 272.214632 
L 768.541961 278.434768 
L 769.326492 279.267329 
L 769.980267 279.640025 
L 770.634043 279.731178 
L 771.287819 279.595161 
L 772.07235 279.160436 
L 773.641412 277.914734 
L 774.687453 277.209205 
L 775.471984 276.931149 
L 776.12576 276.909828 
L 776.648781 277.086944 
L 777.302557 277.551101 
L 778.087088 278.4382 
L 779.002374 279.871347 
L 780.309926 282.413 
L 782.009743 285.637099 
L 782.925029 286.882386 
L 783.578805 287.453098 
L 784.232581 287.726775 
L 784.886356 287.728896 
L 785.540132 287.515221 
L 786.455418 286.926774 
L 788.547501 285.470855 
L 789.332032 285.24024 
L 789.985808 285.252499 
L 790.508829 285.43275 
L 791.162605 285.913754 
L 791.947136 286.833134 
L 792.862422 288.321833 
L 794.169973 290.995323 
L 795.869791 294.477356 
L 796.654322 295.643128 
L 797.308097 296.289382 
L 797.961873 296.606121 
L 798.484894 296.627995 
L 799.13867 296.40508 
L 799.923201 295.857507 
L 802.538304 293.688073 
L 803.19208 293.480251 
L 803.845856 293.505867 
L 804.499632 293.782757 
L 805.153407 294.368856 
L 805.937938 295.428791 
L 806.853225 297.067631 
L 808.683797 300.965569 
L 809.729838 302.964787 
L 810.514369 304.039107 
L 811.168145 304.587731 
L 811.691166 304.785655 
L 812.214186 304.775766 
L 812.867962 304.503515 
L 813.652493 303.879322 
L 814.56778 302.928913 
L 814.56778 302.928913 
" clip-path="url(#p5982b8f038)" style="fill: none; stroke: #0000ff; stroke-opacity: 0.7; stroke-width: 1.5; stroke-linecap: square"/>
   </g>
   <g id="line2d_28">
    <path d="M 456.167865 318.04 
L 456.167865 26.88 
" clip-path="url(#p5982b8f038)" style="fill: none; stroke-dasharray: 5.55,2.4; stroke-dashoffset: 0; stroke: #ff0000; stroke-width: 1.5"/>
   </g>
   <g id="patch_3">
    <path d="M 57.26 318.04 
L 57.26 26.88 
" style="fill: none; stroke: #000000; stroke-width: 0.8; stroke-linejoin: miter; stroke-linecap: square"/>
   </g>
   <g id="patch_4">
    <path d="M 850.630055 318.04 
L 850.630055 26.88 
" style="fill: none; stroke: #000000; stroke-width: 0.8; stroke-linejoin: miter; stroke-linecap: square"/>
   </g>
   <g id="patch_5">
    <path d="M 57.26 318.04 
L 850.630055 318.04 
" style="fill: none; stroke: #000000; stroke-width: 0.8; stroke-linejoin: miter; stroke-linecap: square"/>
   </g>
   <g id="patch_6">
    <path d="M 57.26 26.88 
L 850.630055 26.88 
" style="fill: none; stroke: #000000; stroke-width: 0.8; stroke-linejoin: miter; stroke-linecap: square"/>
   </g>
   <g id="text_16">
    <!-- Cross-correlation Analysis -->
    <g transform="translate(376.51784 20.88) scale(0.12 -0.12)">
     <defs>
      <path id="DejaVuSans-41" d="M 2188 4044 
L 1331 1722 
L 3047 1722 
L 2188 4044 
z
M 1831 4666 
L 2547 4666 
L 4325 0 
L 3669 0 
L 3244 1197 
L 1141 1197 
L 716 0 
L 50 0 
L 1831 4666 
z
" transform="scale(0.015625)"/>
      <path id="DejaVuSans-79" d="M 2059 -325 
Q 1816 -950 1584 -1140 
Q 1353 -1331 966 -1331 
L 506 -1331 
L 506 -850 
L 844 -850 
Q 1081 -850 1212 -737 
Q 1344 -625 1503 -206 
L 1606 56 
L 191 3500 
L 800 3500 
L 1894 763 
L 2988 3500 
L 3597 3500 
L 2059 -325 
z
" transform="scale(0.015625)"/>
     </defs>
     <use xlink:href="#DejaVuSans-43"/>
     <use xlink:href="#DejaVuSans-72" x="69.824219"/>
     <use xlink:href="#DejaVuSans-6f" x="108.6875"/>
     <use xlink:href="#DejaVuSans-73" x="169.869141"/>
     <use xlink:href="#DejaVuSans-73" x="221.96875"/>
     <use xlink:href="#DejaVuSans-2d" x="274.068359"/>
     <use xlink:href="#DejaVuSans-63" x="310.152344"/>
     <use xlink:href="#DejaVuSans-6f" x="365.132812"/>
     <use xlink:href="#DejaVuSans-72" x="426.314453"/>
     <use xlink:href="#DejaVuSans-72" x="465.677734"/>
     <use xlink:href="#DejaVuSans-65" x="504.541016"/>
     <use xlink:href="#DejaVuSans-6c" x="566.064453"/>
     <use xlink:href="#DejaVuSans-61" x="593.847656"/>
     <use xlink:href="#DejaVuSans-74" x="655.126953"/>
     <use xlink:href="#DejaVuSans-69" x="694.335938"/>
     <use xlink:href="#DejaVuSans-6f" x="722.119141"/>
     <use xlink:href="#DejaVuSans-6e" x="783.300781"/>
     <use xlink:href="#DejaVuSans-20" x="846.679688"/>
     <use xlink:href="#DejaVuSans-41" x="878.466797"/>
     <use xlink:href="#DejaVuSans-6e" x="946.875"/>
     <use xlink:href="#DejaVuSans-61" x="1010.253906"/>
     <use xlink:href="#DejaVuSans-6c" x="1071.533203"/>
     <use xlink:href="#DejaVuSans-79" x="1099.316406"/>
     <use xlink:href="#DejaVuSans-73" x="1158.496094"/>
     <use xlink:href="#DejaVuSans-69" x="1210.595703"/>
     <use xlink:href="#DejaVuSans-73" x="1238.378906"/>
    </g>
   </g>
   <g id="legend_1">
    <g id="patch_7">
     <path d="M 645.092555 49.558125 
L 843.630055 49.558125 
Q 845.630055 49.558125 845.630055 47.558125 
L 845.630055 33.88 
Q 845.630055 31.88 843.630055 31.88 
L 645.092555 31.88 
Q 643.092555 31.88 643.092555 33.88 
L 643.092555 47.558125 
Q 643.092555 49.558125 645.092555 49.558125 
z
" style="fill: #ffffff; opacity: 0.8; stroke: #cccccc; stroke-linejoin: miter"/>
    </g>
    <g id="line2d_29">
     <path d="M 647.092555 39.978438 
L 657.092555 39.978438 
L 667.092555 39.978438 
" style="fill: none; stroke-dasharray: 5.55,2.4; stroke-dashoffset: 0; stroke: #ff0000; stroke-width: 1.5"/>
    </g>
    <g id="text_17">
     <!-- Best lag = 170 ms (corr = 0.294) -->
     <g transform="translate(675.092555 43.478438) scale(0.1 -0.1)">
      <defs>
       <path id="DejaVuSans-42" d="M 1259 2228 
L 1259 519 
L 2272 519 
Q 2781 519 3026 730 
Q 3272 941 3272 1375 
Q 3272 1813 3026 2020 
Q 2781 2228 2272 2228 
L 1259 2228 
z
M 1259 4147 
L 1259 2741 
L 2194 2741 
Q 2656 2741 2882 2914 
Q 3109 3088 3109 3444 
Q 3109 3797 2882 3972 
Q 2656 4147 2194 4147 
L 1259 4147 
z
M 628 4666 
L 2241 4666 
Q 2963 4666 3353 4366 
Q 3744 4066 3744 3513 
Q 3744 3084 3544 2831 
Q 3344 2578 2956 2516 
Q 3422 2416 3680 2098 
Q 3938 1781 3938 1306 
Q 3938 681 3513 340 
Q 3088 0 2303 0 
L 628 0 
L 628 4666 
z
" transform="scale(0.015625)"/>
       <path id="DejaVuSans-3d" d="M 678 2906 
L 4684 2906 
L 4684 2381 
L 678 2381 
L 678 2906 
z
M 678 1631 
L 4684 1631 
L 4684 1100 
L 678 1100 
L 678 1631 
z
" transform="scale(0.015625)"/>
       <path id="DejaVuSans-37" d="M 525 4666 
L 3525 4666 
L 3525 4397 
L 1831 0 
L 1172 0 
L 2766 4134 
L 525 4134 
L 525 4666 
z
" transform="scale(0.015625)"/>
       <path id="DejaVuSans-2e" d="M 684 794 
L 1344 794 
L 1344 0 
L 684 0 
L 684 794 
z
" transform="scale(0.015625)"/>
       <path id="DejaVuSans-39" d="M 703 97 
L 703 672 
Q 941 559 1184 500 
Q 1428 441 1663 441 
Q 2288 441 2617 861 
Q 2947 1281 2994 2138 
Q 2813 1869 2534 1725 
Q 2256 1581 1919 1581 
Q 1219 1581 811 2004 
Q 403 2428 403 3163 
Q 403 3881 828 4315 
Q 1253 4750 1959 4750 
Q 2769 4750 3195 4129 
Q 3622 3509 3622 2328 
Q 3622 1225 3098 567 
Q 2575 -91 1691 -91 
Q 1453 -91 1209 -44 
Q 966 3 703 97 
z
M 1959 2075 
Q 2384 2075 2632 2365 
Q 2881 2656 2881 3163 
Q 2881 3666 2632 3958 
Q 2384 4250 1959 4250 
Q 1534 4250 1286 3958 
Q 1038 3666 1038 3163 
Q 1038 2656 1286 2365 
Q 1534 2075 1959 2075 
z
" transform="scale(0.015625)"/>
      </defs>
      <use xlink:href="#DejaVuSans-42"/>
      <use xlink:href="#DejaVuSans-65" x="68.603516"/>
      <use xlink:href="#DejaVuSans-73" x="130.126953"/>
      <use xlink:href="#DejaVuSans-74" x="182.226562"/>
      <use xlink:href="#DejaVuSans-20" x="221.435547"/>
      <use xlink:href="#DejaVuSans-6c" x="253.222656"/>
      <use xlink:href="#DejaVuSans-61" x="281.005859"/>
      <use xlink:href="#DejaVuSans-67" x="342.285156"/>
      <use xlink:href="#DejaVuSans-20" x="405.761719"/>
      <use xlink:href="#DejaVuSans-3d" x="437.548828"/>
      <use xlink:href="#DejaVuSans-20" x="521.337891"/>
      <use xlink:href="#DejaVuSans-31" x="553.125"/>
      <use xlink:href="#DejaVuSans-37" x="616.748047"/>
      <use xlink:href="#DejaVuSans-30" x="680.371094"/>
      <use xlink:href="#DejaVuSans-20" x="743.994141"/>
      <use xlink:href="#DejaVuSans-6d" x="775.78125"/>
      <use xlink:href="#DejaVuSans-73" x="873.193359"/>
      <use xlink:href="#DejaVuSans-20" x="925.292969"/>
      <use xlink:href="#DejaVuSans-28" x="957.080078"/>
      <use xlink:href="#DejaVuSans-63" x="996.09375"/>
      <use xlink:href="#DejaVuSans-6f" x="1051.074219"/>
      <use xlink:href="#DejaVuSans-72" x="1112.255859"/>
      <use xlink:href="#DejaVuSans-72" x="1151.619141"/>
      <use xlink:href="#DejaVuSans-20" x="1192.732422"/>
      <use xlink:href="#DejaVuSans-3d" x="1224.519531"/>
      <use xlink:href="#DejaVuSans-20" x="1308.308594"/>
      <use xlink:href="#DejaVuSans-30" x="1340.095703"/>
      <use xlink:href="#DejaVuSans-2e" x="1403.71875"/>
      <use xlink:href="#DejaVuSans-32" x="1435.505859"/>
      <use xlink:href="#DejaVuSans-39" x="1499.128906"/>
      <use xlink:href="#DejaVuSans-34" x="1562.751953"/>
      <use xlink:href="#DejaVuSans-29" x="1626.375"/>
     </g>
    </g>
   </g>
  </g>
 </g>
 <defs>
  <clipPath id="p5982b8f038">
   <rect x="57.26" y="26.88" width="793.370055" height="291.16"/>
  </clipPath>
 </defs>
</svg>
