<?xml version="1.0" encoding="utf-8" standalone="no"?>
<!DOCTYPE svg PUBLIC "-//W3C//DTD SVG 1.1//EN"
  "http://www.w3.org/Graphics/SVG/1.1/DTD/svg11.dtd">
<svg xmlns:xlink="http://www.w3.org/1999/xlink" width="864pt" height="360pt" viewBox="0 0 864 360" xmlns="http://www.w3.org/2000/svg" version="1.1">
 <metadata>
  <rdf:RDF xmlns:dc="http://purl.org/dc/elements/1.1/" xmlns:cc="http://creativecommons.org/ns#" xmlns:rdf="http://www.w3.org/1999/02/22-rdf-syntax-ns#">
   <cc:Work>
    <dc:type rdf:resource="http://purl.org/dc/dcmitype/StillImage"/>
    <dc:date>2025-12-01T21:26:25.852339</dc:date>
    <dc:format>image/svg+xml</dc:format>
    <dc:creator>
     <cc:Agent>
      <dc:title>Matplotlib v3.8.4, https://matplotlib.org/</dc:title>
     </cc:Agent>
    </dc:creator>
   </cc:Work>
  </rdf:RDF>
 </metadata>
 <defs>
  <style type="text/css">*{stroke-linejoin: round; stroke-linecap: butt}</style>
 </defs>
 <g id="figure_1">
  <g id="patch_1">
   <path d="M 0 360 
L 864 360 
L 864 0 
L 0 0 
z
" style="fill: #ffffff"/>
  </g>
  <g id="axes_1">
   <g id="patch_2">
    <path d="M 57.17 318.04 
L 853.2 318.04 
L 853.2 26.88 
L 57.17 26.88 
z
" style="fill: #ffffff"/>
   </g>
   <g id="matplotlib.axis_1">
    <g id="xtick_1">
     <g id="line2d_1">
      <path d="M 94.195491 318.04 
L 94.195491 26.88 
" clip-path="url(#p8b369ffdef)" style="fill: none; stroke: #b0b0b0; stroke-width: 0.8; stroke-linecap: square"/>
     </g>
     <g id="line2d_2">
      <defs>
       <path id="m47fd6fd875" d="M 0 0 
L 0 3.5 
" style="stroke: #000000; stroke-width: 0.8"/>
      </defs>
      <g>
       <use xlink:href="#m47fd6fd875" x="94.195491" y="318.04" style="stroke: #000000; stroke-width: 0.8"/>
      </g>
     </g>
     <g id="text_1">
      <!-- −30 -->
      <g transform="translate(83.643147 332.638438) scale(0.1 -0.1)">
       <defs>
        <path id="DejaVuSans-2212" d="M 678 2272 
L 4684 2272 
L 4684 1741 
L 678 1741 
L 678 2272 
z
" transform="scale(0.015625)"/>
        <path id="DejaVuSans-33" d="M 2597 2516 
Q 3050 2419 3304 2112 
Q 3559 1806 3559 1356 
Q 3559 666 3084 287 
Q 2609 -91 1734 -91 
Q 1441 -91 1130 -33 
Q 819 25 488 141 
L 488 750 
Q 750 597 1062 519 
Q 1375 441 1716 441 
Q 2309 441 2620 675 
Q 2931 909 2931 1356 
Q 2931 1769 2642 2001 
Q 2353 2234 1838 2234 
L 1294 2234 
L 1294 2753 
L 1863 2753 
Q 2328 2753 2575 2939 
Q 2822 3125 2822 3475 
Q 2822 3834 2567 4026 
Q 2313 4219 1838 4219 
Q 1578 4219 1281 4162 
Q 984 4106 628 3988 
L 628 4550 
Q 988 4650 1302 4700 
Q 1616 4750 1894 4750 
Q 2613 4750 3031 4423 
Q 3450 4097 3450 3541 
Q 3450 3153 3228 2886 
Q 3006 2619 2597 2516 
z
" transform="scale(0.015625)"/>
        <path id="DejaVuSans-30" d="M 2034 4250 
Q 1547 4250 1301 3770 
Q 1056 3291 1056 2328 
Q 1056 1369 1301 889 
Q 1547 409 2034 409 
Q 2525 409 2770 889 
Q 3016 1369 3016 2328 
Q 3016 3291 2770 3770 
Q 2525 4250 2034 4250 
z
M 2034 4750 
Q 2819 4750 3233 4129 
Q 3647 3509 3647 2328 
Q 3647 1150 3233 529 
Q 2819 -91 2034 -91 
Q 1250 -91 836 529 
Q 422 1150 422 2328 
Q 422 3509 836 4129 
Q 1250 4750 2034 4750 
z
" transform="scale(0.015625)"/>
       </defs>
       <use xlink:href="#DejaVuSans-2212"/>
       <use xlink:href="#DejaVuSans-33" x="83.789062"/>
       <use xlink:href="#DejaVuSans-30" x="147.412109"/>
      </g>
     </g>
    </g>
    <g id="xtick_2">
     <g id="line2d_3">
      <path d="M 214.525327 318.04 
L 214.525327 26.88 
" clip-path="url(#p8b369ffdef)" style="fill: none; stroke: #b0b0b0; stroke-width: 0.8; stroke-linecap: square"/>
     </g>
     <g id="line2d_4">
      <g>
       <use xlink:href="#m47fd6fd875" x="214.525327" y="318.04" style="stroke: #000000; stroke-width: 0.8"/>
      </g>
     </g>
     <g id="text_2">
      <!-- −20 -->
      <g transform="translate(203.972983 332.638438) scale(0.1 -0.1)">
       <defs>
        <path id="DejaVuSans-32" d="M 1228 531 
L 3431 531 
L 3431 0 
L 469 0 
L 469 531 
Q 828 903 1448 1529 
Q 2069 2156 2228 2338 
Q 2531 2678 2651 2914 
Q 2772 3150 2772 3378 
Q 2772 3750 2511 3984 
Q 2250 4219 1831 4219 
Q 1534 4219 1204 4116 
Q 875 4013 500 3803 
L 500 4441 
Q 881 4594 1212 4672 
Q 1544 4750 1819 4750 
Q 2544 4750 2975 4387 
Q 3406 4025 3406 3419 
Q 3406 3131 3298 2873 
Q 3191 2616 2906 2266 
Q 2828 2175 2409 1742 
Q 1991 1309 1228 531 
z
" transform="scale(0.015625)"/>
       </defs>
       <use xlink:href="#DejaVuSans-2212"/>
       <use xlink:href="#DejaVuSans-32" x="83.789062"/>
       <use xlink:href="#DejaVuSans-30" x="147.412109"/>
      </g>
     </g>
    </g>
    <g id="xtick_3">
     <g id="line2d_5">
      <path d="M 334.855164 318.04 
L 334.855164 26.88 
" clip-path="url(#p8b369ffdef)" style="fill: none; stroke: #b0b0b0; stroke-width: 0.8; stroke-linecap: square"/>
     </g>
     <g id="line2d_6">
      <g>
       <use xlink:href="#m47fd6fd875" x="334.855164" y="318.04" style="stroke: #000000; stroke-width: 0.8"/>
      </g>
     </g>
     <g id="text_3">
      <!-- −10 -->
      <g transform="translate(324.30282 332.638438) scale(0.1 -0.1)">
       <defs>
        <path id="DejaVuSans-31" d="M 794 531 
L 1825 531 
L 1825 4091 
L 703 3866 
L 703 4441 
L 1819 4666 
L 2450 4666 
L 2450 531 
L 3481 531 
L 3481 0 
L 794 0 
L 794 531 
z
" transform="scale(0.015625)"/>
       </defs>
       <use xlink:href="#DejaVuSans-2212"/>
       <use xlink:href="#DejaVuSans-31" x="83.789062"/>
       <use xlink:href="#DejaVuSans-30" x="147.412109"/>
      </g>
     </g>
    </g>
    <g id="xtick_4">
     <g id="line2d_7">
      <path d="M 455.185 318.04 
L 455.185 26.88 
" clip-path="url(#p8b369ffdef)" style="fill: none; stroke: #b0b0b0; stroke-width: 0.8; stroke-linecap: square"/>
     </g>
     <g id="line2d_8">
      <g>
       <use xlink:href="#m47fd6fd875" x="455.185" y="318.04" style="stroke: #000000; stroke-width: 0.8"/>
      </g>
     </g>
     <g id="text_4">
      <!-- 0 -->
      <g transform="translate(452.00375 332.638438) scale(0.1 -0.1)">
       <use xlink:href="#DejaVuSans-30"/>
      </g>
     </g>
    </g>
    <g id="xtick_5">
     <g id="line2d_9">
      <path d="M 575.514836 318.04 
L 575.514836 26.88 
" clip-path="url(#p8b369ffdef)" style="fill: none; stroke: #b0b0b0; stroke-width: 0.8; stroke-linecap: square"/>
     </g>
     <g id="line2d_10">
      <g>
       <use xlink:href="#m47fd6fd875" x="575.514836" y="318.04" style="stroke: #000000; stroke-width: 0.8"/>
      </g>
     </g>
     <g id="text_5">
      <!-- 10 -->
      <g transform="translate(569.152336 332.638438) scale(0.1 -0.1)">
       <use xlink:href="#DejaVuSans-31"/>
       <use xlink:href="#DejaVuSans-30" x="63.623047"/>
      </g>
     </g>
    </g>
    <g id="xtick_6">
     <g id="line2d_11">
      <path d="M 695.844673 318.04 
L 695.844673 26.88 
" clip-path="url(#p8b369ffdef)" style="fill: none; stroke: #b0b0b0; stroke-width: 0.8; stroke-linecap: square"/>
     </g>
     <g id="line2d_12">
      <g>
       <use xlink:href="#m47fd6fd875" x="695.844673" y="318.04" style="stroke: #000000; stroke-width: 0.8"/>
      </g>
     </g>
     <g id="text_6">
      <!-- 20 -->
      <g transform="translate(689.482173 332.638438) scale(0.1 -0.1)">
       <use xlink:href="#DejaVuSans-32"/>
       <use xlink:href="#DejaVuSans-30" x="63.623047"/>
      </g>
     </g>
    </g>
    <g id="xtick_7">
     <g id="line2d_13">
      <path d="M 816.174509 318.04 
L 816.174509 26.88 
" clip-path="url(#p8b369ffdef)" style="fill: none; stroke: #b0b0b0; stroke-width: 0.8; stroke-linecap: square"/>
     </g>
     <g id="line2d_14">
      <g>
       <use xlink:href="#m47fd6fd875" x="816.174509" y="318.04" style="stroke: #000000; stroke-width: 0.8"/>
      </g>
     </g>
     <g id="text_7">
      <!-- 30 -->
      <g transform="translate(809.812009 332.638438) scale(0.1 -0.1)">
       <use xlink:href="#DejaVuSans-33"/>
       <use xlink:href="#DejaVuSans-30" x="63.623047"/>
      </g>
     </g>
    </g>
    <g id="text_8">
     <!-- Time Lag (s) -->
     <g transform="translate(424.242813 346.316563) scale(0.1 -0.1)">
      <defs>
       <path id="DejaVuSans-54" d="M -19 4666 
L 3928 4666 
L 3928 4134 
L 2272 4134 
L 2272 0 
L 1638 0 
L 1638 4134 
L -19 4134 
L -19 4666 
z
" transform="scale(0.015625)"/>
       <path id="DejaVuSans-69" d="M 603 3500 
L 1178 3500 
L 1178 0 
L 603 0 
L 603 3500 
z
M 603 4863 
L 1178 4863 
L 1178 4134 
L 603 4134 
L 603 4863 
z
" transform="scale(0.015625)"/>
       <path id="DejaVuSans-6d" d="M 3328 2828 
Q 3544 3216 3844 3400 
Q 4144 3584 4550 3584 
Q 5097 3584 5394 3201 
Q 5691 2819 5691 2113 
L 5691 0 
L 5113 0 
L 5113 2094 
Q 5113 2597 4934 2840 
Q 4756 3084 4391 3084 
Q 3944 3084 3684 2787 
Q 3425 2491 3425 1978 
L 3425 0 
L 2847 0 
L 2847 2094 
Q 2847 2600 2669 2842 
Q 2491 3084 2119 3084 
Q 1678 3084 1418 2786 
Q 1159 2488 1159 1978 
L 1159 0 
L 581 0 
L 581 3500 
L 1159 3500 
L 1159 2956 
Q 1356 3278 1631 3431 
Q 1906 3584 2284 3584 
Q 2666 3584 2933 3390 
Q 3200 3197 3328 2828 
z
" transform="scale(0.015625)"/>
       <path id="DejaVuSans-65" d="M 3597 1894 
L 3597 1613 
L 953 1613 
Q 991 1019 1311 708 
Q 1631 397 2203 397 
Q 2534 397 2845 478 
Q 3156 559 3463 722 
L 3463 178 
Q 3153 47 2828 -22 
Q 2503 -91 2169 -91 
Q 1331 -91 842 396 
Q 353 884 353 1716 
Q 353 2575 817 3079 
Q 1281 3584 2069 3584 
Q 2775 3584 3186 3129 
Q 3597 2675 3597 1894 
z
M 3022 2063 
Q 3016 2534 2758 2815 
Q 2500 3097 2075 3097 
Q 1594 3097 1305 2825 
Q 1016 2553 972 2059 
L 3022 2063 
z
" transform="scale(0.015625)"/>
       <path id="DejaVuSans-20" transform="scale(0.015625)"/>
       <path id="DejaVuSans-4c" d="M 628 4666 
L 1259 4666 
L 1259 531 
L 3531 531 
L 3531 0 
L 628 0 
L 628 4666 
z
" transform="scale(0.015625)"/>
       <path id="DejaVuSans-61" d="M 2194 1759 
Q 1497 1759 1228 1600 
Q 959 1441 959 1056 
Q 959 750 1161 570 
Q 1363 391 1709 391 
Q 2188 391 2477 730 
Q 2766 1069 2766 1631 
L 2766 1759 
L 2194 1759 
z
M 3341 1997 
L 3341 0 
L 2766 0 
L 2766 531 
Q 2569 213 2275 61 
Q 1981 -91 1556 -91 
Q 1019 -91 701 211 
Q 384 513 384 1019 
Q 384 1609 779 1909 
Q 1175 2209 1959 2209 
L 2766 2209 
L 2766 2266 
Q 2766 2663 2505 2880 
Q 2244 3097 1772 3097 
Q 1472 3097 1187 3025 
Q 903 2953 641 2809 
L 641 3341 
Q 956 3463 1253 3523 
Q 1550 3584 1831 3584 
Q 2591 3584 2966 3190 
Q 3341 2797 3341 1997 
z
" transform="scale(0.015625)"/>
       <path id="DejaVuSans-67" d="M 2906 1791 
Q 2906 2416 2648 2759 
Q 2391 3103 1925 3103 
Q 1463 3103 1205 2759 
Q 947 2416 947 1791 
Q 947 1169 1205 825 
Q 1463 481 1925 481 
Q 2391 481 2648 825 
Q 2906 1169 2906 1791 
z
M 3481 434 
Q 3481 -459 3084 -895 
Q 2688 -1331 1869 -1331 
Q 1566 -1331 1297 -1286 
Q 1028 -1241 775 -1147 
L 775 -588 
Q 1028 -725 1275 -790 
Q 1522 -856 1778 -856 
Q 2344 -856 2625 -561 
Q 2906 -266 2906 331 
L 2906 616 
Q 2728 306 2450 153 
Q 2172 0 1784 0 
Q 1141 0 747 490 
Q 353 981 353 1791 
Q 353 2603 747 3093 
Q 1141 3584 1784 3584 
Q 2172 3584 2450 3431 
Q 2728 3278 2906 2969 
L 2906 3500 
L 3481 3500 
L 3481 434 
z
" transform="scale(0.015625)"/>
       <path id="DejaVuSans-28" d="M 1984 4856 
Q 1566 4138 1362 3434 
Q 1159 2731 1159 2009 
Q 1159 1288 1364 580 
Q 1569 -128 1984 -844 
L 1484 -844 
Q 1016 -109 783 600 
Q 550 1309 550 2009 
Q 550 2706 781 3412 
Q 1013 4119 1484 4856 
L 1984 4856 
z
" transform="scale(0.015625)"/>
       <path id="DejaVuSans-73" d="M 2834 3397 
L 2834 2853 
Q 2591 2978 2328 3040 
Q 2066 3103 1784 3103 
Q 1356 3103 1142 2972 
Q 928 2841 928 2578 
Q 928 2378 1081 2264 
Q 1234 2150 1697 2047 
L 1894 2003 
Q 2506 1872 2764 1633 
Q 3022 1394 3022 966 
Q 3022 478 2636 193 
Q 2250 -91 1575 -91 
Q 1294 -91 989 -36 
Q 684 19 347 128 
L 347 722 
Q 666 556 975 473 
Q 1284 391 1588 391 
Q 1994 391 2212 530 
Q 2431 669 2431 922 
Q 2431 1156 2273 1281 
Q 2116 1406 1581 1522 
L 1381 1569 
Q 847 1681 609 1914 
Q 372 2147 372 2553 
Q 372 3047 722 3315 
Q 1072 3584 1716 3584 
Q 2034 3584 2315 3537 
Q 2597 3491 2834 3397 
z
" transform="scale(0.015625)"/>
       <path id="DejaVuSans-29" d="M 513 4856 
L 1013 4856 
Q 1481 4119 1714 3412 
Q 1947 2706 1947 2009 
Q 1947 1309 1714 600 
Q 1481 -109 1013 -844 
L 513 -844 
Q 928 -128 1133 580 
Q 1338 1288 1338 2009 
Q 1338 2731 1133 3434 
Q 928 4138 513 4856 
z
" transform="scale(0.015625)"/>
      </defs>
      <use xlink:href="#DejaVuSans-54"/>
      <use xlink:href="#DejaVuSans-69" x="57.958984"/>
      <use xlink:href="#DejaVuSans-6d" x="85.742188"/>
      <use xlink:href="#DejaVuSans-65" x="183.154297"/>
      <use xlink:href="#DejaVuSans-20" x="244.677734"/>
      <use xlink:href="#DejaVuSans-4c" x="276.464844"/>
      <use xlink:href="#DejaVuSans-61" x="332.177734"/>
      <use xlink:href="#DejaVuSans-67" x="393.457031"/>
      <use xlink:href="#DejaVuSans-20" x="456.933594"/>
      <use xlink:href="#DejaVuSans-28" x="488.720703"/>
      <use xlink:href="#DejaVuSans-73" x="527.734375"/>
      <use xlink:href="#DejaVuSans-29" x="579.833984"/>
     </g>
    </g>
   </g>
   <g id="matplotlib.axis_2">
    <g id="ytick_1">
     <g id="line2d_15">
      <path d="M 57.17 310.659813 
L 853.2 310.659813 
" clip-path="url(#p8b369ffdef)" style="fill: none; stroke: #b0b0b0; stroke-width: 0.8; stroke-linecap: square"/>
     </g>
     <g id="line2d_16">
      <defs>
       <path id="medd56ab48e" d="M 0 0 
L -3.5 0 
" style="stroke: #000000; stroke-width: 0.8"/>
      </defs>
      <g>
       <use xlink:href="#medd56ab48e" x="57.17" y="310.659813" style="stroke: #000000; stroke-width: 0.8"/>
      </g>
     </g>
     <g id="text_9">
      <!-- 400 -->
      <g transform="translate(31.0825 314.459032) scale(0.1 -0.1)">
       <defs>
        <path id="DejaVuSans-34" d="M 2419 4116 
L 825 1625 
L 2419 1625 
L 2419 4116 
z
M 2253 4666 
L 3047 4666 
L 3047 1625 
L 3713 1625 
L 3713 1100 
L 3047 1100 
L 3047 0 
L 2419 0 
L 2419 1100 
L 313 1100 
L 313 1709 
L 2253 4666 
z
" transform="scale(0.015625)"/>
       </defs>
       <use xlink:href="#DejaVuSans-34"/>
       <use xlink:href="#DejaVuSans-30" x="63.623047"/>
       <use xlink:href="#DejaVuSans-30" x="127.246094"/>
      </g>
     </g>
    </g>
    <g id="ytick_2">
     <g id="line2d_17">
      <path d="M 57.17 269.948557 
L 853.2 269.948557 
" clip-path="url(#p8b369ffdef)" style="fill: none; stroke: #b0b0b0; stroke-width: 0.8; stroke-linecap: square"/>
     </g>
     <g id="line2d_18">
      <g>
       <use xlink:href="#medd56ab48e" x="57.17" y="269.948557" style="stroke: #000000; stroke-width: 0.8"/>
      </g>
     </g>
     <g id="text_10">
      <!-- 500 -->
      <g transform="translate(31.0825 273.747776) scale(0.1 -0.1)">
       <defs>
        <path id="DejaVuSans-35" d="M 691 4666 
L 3169 4666 
L 3169 4134 
L 1269 4134 
L 1269 2991 
Q 1406 3038 1543 3061 
Q 1681 3084 1819 3084 
Q 2600 3084 3056 2656 
Q 3513 2228 3513 1497 
Q 3513 744 3044 326 
Q 2575 -91 1722 -91 
Q 1428 -91 1123 -41 
Q 819 9 494 109 
L 494 744 
Q 775 591 1075 516 
Q 1375 441 1709 441 
Q 2250 441 2565 725 
Q 2881 1009 2881 1497 
Q 2881 1984 2565 2268 
Q 2250 2553 1709 2553 
Q 1456 2553 1204 2497 
Q 953 2441 691 2322 
L 691 4666 
z
" transform="scale(0.015625)"/>
       </defs>
       <use xlink:href="#DejaVuSans-35"/>
       <use xlink:href="#DejaVuSans-30" x="63.623047"/>
       <use xlink:href="#DejaVuSans-30" x="127.246094"/>
      </g>
     </g>
    </g>
    <g id="ytick_3">
     <g id="line2d_19">
      <path d="M 57.17 229.237301 
L 853.2 229.237301 
" clip-path="url(#p8b369ffdef)" style="fill: none; stroke: #b0b0b0; stroke-width: 0.8; stroke-linecap: square"/>
     </g>
     <g id="line2d_20">
      <g>
       <use xlink:href="#medd56ab48e" x="57.17" y="229.237301" style="stroke: #000000; stroke-width: 0.8"/>
      </g>
     </g>
     <g id="text_11">
      <!-- 600 -->
      <g transform="translate(31.0825 233.036519) scale(0.1 -0.1)">
       <defs>
        <path id="DejaVuSans-36" d="M 2113 2584 
Q 1688 2584 1439 2293 
Q 1191 2003 1191 1497 
Q 1191 994 1439 701 
Q 1688 409 2113 409 
Q 2538 409 2786 701 
Q 3034 994 3034 1497 
Q 3034 2003 2786 2293 
Q 2538 2584 2113 2584 
z
M 3366 4563 
L 3366 3988 
Q 3128 4100 2886 4159 
Q 2644 4219 2406 4219 
Q 1781 4219 1451 3797 
Q 1122 3375 1075 2522 
Q 1259 2794 1537 2939 
Q 1816 3084 2150 3084 
Q 2853 3084 3261 2657 
Q 3669 2231 3669 1497 
Q 3669 778 3244 343 
Q 2819 -91 2113 -91 
Q 1303 -91 875 529 
Q 447 1150 447 2328 
Q 447 3434 972 4092 
Q 1497 4750 2381 4750 
Q 2619 4750 2861 4703 
Q 3103 4656 3366 4563 
z
" transform="scale(0.015625)"/>
       </defs>
       <use xlink:href="#DejaVuSans-36"/>
       <use xlink:href="#DejaVuSans-30" x="63.623047"/>
       <use xlink:href="#DejaVuSans-30" x="127.246094"/>
      </g>
     </g>
    </g>
    <g id="ytick_4">
     <g id="line2d_21">
      <path d="M 57.17 188.526044 
L 853.2 188.526044 
" clip-path="url(#p8b369ffdef)" style="fill: none; stroke: #b0b0b0; stroke-width: 0.8; stroke-linecap: square"/>
     </g>
     <g id="line2d_22">
      <g>
       <use xlink:href="#medd56ab48e" x="57.17" y="188.526044" style="stroke: #000000; stroke-width: 0.8"/>
      </g>
     </g>
     <g id="text_12">
      <!-- 700 -->
      <g transform="translate(31.0825 192.325263) scale(0.1 -0.1)">
       <defs>
        <path id="DejaVuSans-37" d="M 525 4666 
L 3525 4666 
L 3525 4397 
L 1831 0 
L 1172 0 
L 2766 4134 
L 525 4134 
L 525 4666 
z
" transform="scale(0.015625)"/>
       </defs>
       <use xlink:href="#DejaVuSans-37"/>
       <use xlink:href="#DejaVuSans-30" x="63.623047"/>
       <use xlink:href="#DejaVuSans-30" x="127.246094"/>
      </g>
     </g>
    </g>
    <g id="ytick_5">
     <g id="line2d_23">
      <path d="M 57.17 147.814788 
L 853.2 147.814788 
" clip-path="url(#p8b369ffdef)" style="fill: none; stroke: #b0b0b0; stroke-width: 0.8; stroke-linecap: square"/>
     </g>
     <g id="line2d_24">
      <g>
       <use xlink:href="#medd56ab48e" x="57.17" y="147.814788" style="stroke: #000000; stroke-width: 0.8"/>
      </g>
     </g>
     <g id="text_13">
      <!-- 800 -->
      <g transform="translate(31.0825 151.614007) scale(0.1 -0.1)">
       <defs>
        <path id="DejaVuSans-38" d="M 2034 2216 
Q 1584 2216 1326 1975 
Q 1069 1734 1069 1313 
Q 1069 891 1326 650 
Q 1584 409 2034 409 
Q 2484 409 2743 651 
Q 3003 894 3003 1313 
Q 3003 1734 2745 1975 
Q 2488 2216 2034 2216 
z
M 1403 2484 
Q 997 2584 770 2862 
Q 544 3141 544 3541 
Q 544 4100 942 4425 
Q 1341 4750 2034 4750 
Q 2731 4750 3128 4425 
Q 3525 4100 3525 3541 
Q 3525 3141 3298 2862 
Q 3072 2584 2669 2484 
Q 3125 2378 3379 2068 
Q 3634 1759 3634 1313 
Q 3634 634 3220 271 
Q 2806 -91 2034 -91 
Q 1263 -91 848 271 
Q 434 634 434 1313 
Q 434 1759 690 2068 
Q 947 2378 1403 2484 
z
M 1172 3481 
Q 1172 3119 1398 2916 
Q 1625 2713 2034 2713 
Q 2441 2713 2670 2916 
Q 2900 3119 2900 3481 
Q 2900 3844 2670 4047 
Q 2441 4250 2034 4250 
Q 1625 4250 1398 4047 
Q 1172 3844 1172 3481 
z
" transform="scale(0.015625)"/>
       </defs>
       <use xlink:href="#DejaVuSans-38"/>
       <use xlink:href="#DejaVuSans-30" x="63.623047"/>
       <use xlink:href="#DejaVuSans-30" x="127.246094"/>
      </g>
     </g>
    </g>
    <g id="ytick_6">
     <g id="line2d_25">
      <path d="M 57.17 107.103532 
L 853.2 107.103532 
" clip-path="url(#p8b369ffdef)" style="fill: none; stroke: #b0b0b0; stroke-width: 0.8; stroke-linecap: square"/>
     </g>
     <g id="line2d_26">
      <g>
       <use xlink:href="#medd56ab48e" x="57.17" y="107.103532" style="stroke: #000000; stroke-width: 0.8"/>
      </g>
     </g>
     <g id="text_14">
      <!-- 900 -->
      <g transform="translate(31.0825 110.90275) scale(0.1 -0.1)">
       <defs>
        <path id="DejaVuSans-39" d="M 703 97 
L 703 672 
Q 941 559 1184 500 
Q 1428 441 1663 441 
Q 2288 441 2617 861 
Q 2947 1281 2994 2138 
Q 2813 1869 2534 1725 
Q 2256 1581 1919 1581 
Q 1219 1581 811 2004 
Q 403 2428 403 3163 
Q 403 3881 828 4315 
Q 1253 4750 1959 4750 
Q 2769 4750 3195 4129 
Q 3622 3509 3622 2328 
Q 3622 1225 3098 567 
Q 2575 -91 1691 -91 
Q 1453 -91 1209 -44 
Q 966 3 703 97 
z
M 1959 2075 
Q 2384 2075 2632 2365 
Q 2881 2656 2881 3163 
Q 2881 3666 2632 3958 
Q 2384 4250 1959 4250 
Q 1534 4250 1286 3958 
Q 1038 3666 1038 3163 
Q 1038 2656 1286 2365 
Q 1534 2075 1959 2075 
z
" transform="scale(0.015625)"/>
       </defs>
       <use xlink:href="#DejaVuSans-39"/>
       <use xlink:href="#DejaVuSans-30" x="63.623047"/>
       <use xlink:href="#DejaVuSans-30" x="127.246094"/>
      </g>
     </g>
    </g>
    <g id="ytick_7">
     <g id="line2d_27">
      <path d="M 57.17 66.392275 
L 853.2 66.392275 
" clip-path="url(#p8b369ffdef)" style="fill: none; stroke: #b0b0b0; stroke-width: 0.8; stroke-linecap: square"/>
     </g>
     <g id="line2d_28">
      <g>
       <use xlink:href="#medd56ab48e" x="57.17" y="66.392275" style="stroke: #000000; stroke-width: 0.8"/>
      </g>
     </g>
     <g id="text_15">
      <!-- 1000 -->
      <g transform="translate(24.72 70.191494) scale(0.1 -0.1)">
       <use xlink:href="#DejaVuSans-31"/>
       <use xlink:href="#DejaVuSans-30" x="63.623047"/>
       <use xlink:href="#DejaVuSans-30" x="127.246094"/>
       <use xlink:href="#DejaVuSans-30" x="190.869141"/>
      </g>
     </g>
    </g>
    <g id="text_16">
     <!-- Cross-correlation -->
     <g transform="translate(18.640312 214.793594) rotate(-90) scale(0.1 -0.1)">
      <defs>
       <path id="DejaVuSans-43" d="M 4122 4306 
L 4122 3641 
Q 3803 3938 3442 4084 
Q 3081 4231 2675 4231 
Q 1875 4231 1450 3742 
Q 1025 3253 1025 2328 
Q 1025 1406 1450 917 
Q 1875 428 2675 428 
Q 3081 428 3442 575 
Q 3803 722 4122 1019 
L 4122 359 
Q 3791 134 3420 21 
Q 3050 -91 2638 -91 
Q 1578 -91 968 557 
Q 359 1206 359 2328 
Q 359 3453 968 4101 
Q 1578 4750 2638 4750 
Q 3056 4750 3426 4639 
Q 3797 4528 4122 4306 
z
" transform="scale(0.015625)"/>
       <path id="DejaVuSans-72" d="M 2631 2963 
Q 2534 3019 2420 3045 
Q 2306 3072 2169 3072 
Q 1681 3072 1420 2755 
Q 1159 2438 1159 1844 
L 1159 0 
L 581 0 
L 581 3500 
L 1159 3500 
L 1159 2956 
Q 1341 3275 1631 3429 
Q 1922 3584 2338 3584 
Q 2397 3584 2469 3576 
Q 2541 3569 2628 3553 
L 2631 2963 
z
" transform="scale(0.015625)"/>
       <path id="DejaVuSans-6f" d="M 1959 3097 
Q 1497 3097 1228 2736 
Q 959 2375 959 1747 
Q 959 1119 1226 758 
Q 1494 397 1959 397 
Q 2419 397 2687 759 
Q 2956 1122 2956 1747 
Q 2956 2369 2687 2733 
Q 2419 3097 1959 3097 
z
M 1959 3584 
Q 2709 3584 3137 3096 
Q 3566 2609 3566 1747 
Q 3566 888 3137 398 
Q 2709 -91 1959 -91 
Q 1206 -91 779 398 
Q 353 888 353 1747 
Q 353 2609 779 3096 
Q 1206 3584 1959 3584 
z
" transform="scale(0.015625)"/>
       <path id="DejaVuSans-2d" d="M 313 2009 
L 1997 2009 
L 1997 1497 
L 313 1497 
L 313 2009 
z
" transform="scale(0.015625)"/>
       <path id="DejaVuSans-63" d="M 3122 3366 
L 3122 2828 
Q 2878 2963 2633 3030 
Q 2388 3097 2138 3097 
Q 1578 3097 1268 2742 
Q 959 2388 959 1747 
Q 959 1106 1268 751 
Q 1578 397 2138 397 
Q 2388 397 2633 464 
Q 2878 531 3122 666 
L 3122 134 
Q 2881 22 2623 -34 
Q 2366 -91 2075 -91 
Q 1284 -91 818 406 
Q 353 903 353 1747 
Q 353 2603 823 3093 
Q 1294 3584 2113 3584 
Q 2378 3584 2631 3529 
Q 2884 3475 3122 3366 
z
" transform="scale(0.015625)"/>
       <path id="DejaVuSans-6c" d="M 603 4863 
L 1178 4863 
L 1178 0 
L 603 0 
L 603 4863 
z
" transform="scale(0.015625)"/>
       <path id="DejaVuSans-74" d="M 1172 4494 
L 1172 3500 
L 2356 3500 
L 2356 3053 
L 1172 3053 
L 1172 1153 
Q 1172 725 1289 603 
Q 1406 481 1766 481 
L 2356 481 
L 2356 0 
L 1766 0 
Q 1100 0 847 248 
Q 594 497 594 1153 
L 594 3053 
L 172 3053 
L 172 3500 
L 594 3500 
L 594 4494 
L 1172 4494 
z
" transform="scale(0.015625)"/>
       <path id="DejaVuSans-6e" d="M 3513 2113 
L 3513 0 
L 2938 0 
L 2938 2094 
Q 2938 2591 2744 2837 
Q 2550 3084 2163 3084 
Q 1697 3084 1428 2787 
Q 1159 2491 1159 1978 
L 1159 0 
L 581 0 
L 581 3500 
L 1159 3500 
L 1159 2956 
Q 1366 3272 1645 3428 
Q 1925 3584 2291 3584 
Q 2894 3584 3203 3211 
Q 3513 2838 3513 2113 
z
" transform="scale(0.015625)"/>
      </defs>
      <use xlink:href="#DejaVuSans-43"/>
      <use xlink:href="#DejaVuSans-72" x="69.824219"/>
      <use xlink:href="#DejaVuSans-6f" x="108.6875"/>
      <use xlink:href="#DejaVuSans-73" x="169.869141"/>
      <use xlink:href="#DejaVuSans-73" x="221.96875"/>
      <use xlink:href="#DejaVuSans-2d" x="274.068359"/>
      <use xlink:href="#DejaVuSans-63" x="310.152344"/>
      <use xlink:href="#DejaVuSans-6f" x="365.132812"/>
      <use xlink:href="#DejaVuSans-72" x="426.314453"/>
      <use xlink:href="#DejaVuSans-72" x="465.677734"/>
      <use xlink:href="#DejaVuSans-65" x="504.541016"/>
      <use xlink:href="#DejaVuSans-6c" x="566.064453"/>
      <use xlink:href="#DejaVuSans-61" x="593.847656"/>
      <use xlink:href="#DejaVuSans-74" x="655.126953"/>
      <use xlink:href="#DejaVuSans-69" x="694.335938"/>
      <use xlink:href="#DejaVuSans-6f" x="722.119141"/>
      <use xlink:href="#DejaVuSans-6e" x="783.300781"/>
     </g>
    </g>
   </g>
   <g id="line2d_29">
    <path d="M 93.353182 258.325521 
L 95.519119 273.485885 
L 96.120768 276.074657 
L 96.602087 277.430698 
L 97.083407 278.148568 
L 97.444396 278.279887 
L 97.805386 278.079892 
L 98.166375 277.568264 
L 98.647695 276.425333 
L 99.129014 274.691642 
L 99.730663 271.735007 
L 100.572972 266.320643 
L 102.01693 255.025986 
L 102.979569 248.154895 
L 103.581218 245.301683 
L 103.942207 244.345498 
L 104.303197 243.991825 
L 104.543857 244.093986 
L 104.784516 244.460781 
L 105.145506 245.485764 
L 105.626825 247.658686 
L 106.348804 252.24935 
L 108.514741 267.325418 
L 109.11639 269.946419 
L 109.59771 271.321467 
L 110.079029 272.048319 
L 110.440019 272.180334 
L 110.801008 271.976562 
L 111.161998 271.459548 
L 111.643317 270.310102 
L 112.124636 268.559977 
L 112.846615 264.885964 
L 113.688924 259.276757 
L 116.336181 240.201494 
L 116.8175 238.50722 
L 117.178489 237.907952 
L 117.419149 237.839413 
L 117.659809 238.034373 
L 118.020798 238.804689 
L 118.502118 240.656862 
L 119.103767 244.059526 
L 120.307065 252.636594 
L 121.390034 259.655635 
L 122.112013 262.894004 
L 122.593332 264.267511 
L 123.074651 265.000273 
L 123.435641 265.140178 
L 123.79663 264.947174 
L 124.15762 264.443717 
L 124.638939 263.320147 
L 125.120259 261.597016 
L 125.842238 257.979481 
L 126.684547 252.480886 
L 129.331803 233.997379 
L 129.813122 232.35667 
L 130.174112 231.770937 
L 130.414771 231.701185 
L 130.655431 231.888724 
L 131.016421 232.639559 
L 131.49774 234.454852 
L 132.099389 237.804001 
L 133.302688 246.254266 
L 134.385656 253.269805 
L 135.107635 256.549351 
L 135.588954 257.937992 
L 136.070274 258.665191 
L 136.431263 258.782724 
L 136.792253 258.550112 
L 137.153242 257.989605 
L 137.634562 256.763891 
L 138.115881 254.896698 
L 138.83786 251.00567 
L 139.800499 244.236011 
L 142.086766 226.949833 
L 142.688415 224.315977 
L 143.049404 223.466504 
L 143.290064 223.225913 
L 143.530724 223.251122 
L 143.771383 223.540545 
L 144.132373 224.456308 
L 144.613692 226.507638 
L 145.215341 230.156912 
L 146.659299 240.96665 
L 147.621938 247.264407 
L 148.223587 250.048042 
L 148.704907 251.49961 
L 149.065896 252.115881 
L 149.426886 252.327622 
L 149.667545 252.249513 
L 150.028535 251.818094 
L 150.509854 250.699005 
L 150.991173 248.902109 
L 151.592823 245.745832 
L 152.435132 239.978795 
L 153.999419 227.103939 
L 154.962058 220.062481 
L 155.563707 217.04934 
L 156.045027 215.69647 
L 156.406016 215.354514 
L 156.646676 215.45545 
L 156.887335 215.817013 
L 157.248325 216.831536 
L 157.729644 218.989686 
L 158.451623 223.571335 
L 160.97855 241.12169 
L 161.580199 243.495147 
L 162.061518 244.579339 
L 162.422508 244.901843 
L 162.663168 244.885944 
L 163.024157 244.529665 
L 163.385147 243.799594 
L 163.866466 242.216538 
L 164.468115 239.23006 
L 165.190094 234.450683 
L 166.273063 225.640503 
L 167.837351 212.930651 
L 168.439 209.475775 
L 168.920319 207.731431 
L 169.281309 207.084519 
L 169.521968 206.98193 
L 169.762628 207.144244 
L 170.123617 207.877354 
L 170.604937 209.717522 
L 171.206586 213.192954 
L 172.169225 220.397464 
L 173.733513 232.019588 
L 174.455492 235.718083 
L 174.936811 237.29328 
L 175.2978 237.96684 
L 175.65879 238.199447 
L 175.89945 238.114425 
L 176.260439 237.643535 
L 176.621429 236.771206 
L 177.102748 234.912367 
L 177.704397 231.599766 
L 178.546706 225.527395 
L 181.434622 202.977586 
L 181.915941 201.047007 
L 182.276931 200.222405 
L 182.517591 199.984076 
L 182.75825 199.998311 
L 182.99891 200.264146 
L 183.359899 201.121125 
L 183.841219 203.054728 
L 184.442868 206.515127 
L 185.525837 214.338688 
L 186.849465 223.68879 
L 187.571444 227.372056 
L 188.173093 229.28921 
L 188.534082 229.882304 
L 188.895072 230.050937 
L 189.135732 229.933684 
L 189.496721 229.426595 
L 189.857711 228.471365 
L 190.33903 226.511072 
L 190.940679 223.110054 
L 191.782988 216.984436 
L 194.309915 197.265805 
L 194.911564 194.535198 
L 195.392883 193.336874 
L 195.753873 193.051396 
L 195.994532 193.157124 
L 196.235192 193.496345 
L 196.596181 194.424907 
L 197.077501 196.372208 
L 197.79948 200.464954 
L 199.243438 210.496239 
L 200.326406 217.19264 
L 201.048385 220.253303 
L 201.529705 221.476883 
L 201.890694 221.934481 
L 202.131354 222.019948 
L 202.372014 221.931861 
L 202.612673 221.660952 
L 202.973663 220.869171 
L 203.454982 219.145449 
L 204.056631 216.053793 
L 204.89894 210.361135 
L 207.425867 191.890112 
L 208.027516 189.25522 
L 208.508835 188.022476 
L 208.869825 187.646438 
L 209.110484 187.660906 
L 209.351144 187.88438 
L 209.712134 188.594783 
L 210.193453 190.177264 
L 210.915432 193.609698 
L 211.878071 199.394791 
L 213.442359 208.84343 
L 214.164338 211.951817 
L 214.645657 213.312666 
L 215.126976 214.033599 
L 215.487966 214.143123 
L 215.728625 213.980868 
L 216.089615 213.366998 
L 216.570934 211.89529 
L 217.172584 209.120811 
L 218.014892 203.852629 
L 220.662149 185.773313 
L 221.263798 183.337012 
L 221.745117 182.177674 
L 222.106107 181.800179 
L 222.346766 181.784726 
L 222.587426 181.95402 
L 222.948416 182.538401 
L 223.429735 183.873269 
L 224.031384 186.257012 
L 224.753363 189.957148 
L 227.28029 203.901242 
L 227.881939 205.855955 
L 228.363258 206.751727 
L 228.724248 206.974048 
L 228.964907 206.868513 
L 229.325897 206.337129 
L 229.807216 204.969061 
L 230.408866 202.301414 
L 231.130845 197.958018 
L 234.13909 178.237962 
L 234.74074 176.198243 
L 235.222059 175.346313 
L 235.583048 175.176287 
L 235.823708 175.282661 
L 236.184698 175.75671 
L 236.666017 176.92297 
L 237.267666 179.102831 
L 237.989645 182.73367 
L 240.877561 198.818079 
L 241.47921 200.547957 
L 241.8402 201.044812 
L 242.08086 201.11627 
L 242.321519 200.97994 
L 242.682509 200.394599 
L 243.163828 198.937821 
L 243.765477 196.139394 
L 244.607786 190.807255 
L 247.134713 173.496091 
L 247.856692 170.418312 
L 248.338011 169.171068 
L 248.699001 168.687484 
L 249.05999 168.594072 
L 249.30065 168.742926 
L 249.661639 169.266122 
L 250.142959 170.47317 
L 250.624278 172.311133 
L 251.346257 176.096279 
L 252.669885 184.632747 
L 253.752854 191.116547 
L 254.474833 194.189867 
L 254.956152 195.326768 
L 255.317142 195.601404 
L 255.557801 195.507115 
L 255.918791 194.957847 
L 256.27978 193.936463 
L 256.7611 191.892964 
L 257.483079 187.588443 
L 258.686377 178.477967 
L 260.130335 167.930861 
L 260.852314 164.040224 
L 261.453963 161.871106 
L 261.935283 160.928849 
L 262.296272 160.701639 
L 262.536932 160.775421 
L 262.897921 161.211116 
L 263.258911 162.02925 
L 263.74023 163.8064 
L 264.341879 166.971357 
L 265.304518 173.513152 
L 267.109466 186.123435 
L 267.711115 188.983694 
L 268.192434 190.285734 
L 268.553424 190.636284 
L 268.794083 190.570324 
L 269.034743 190.267264 
L 269.395733 189.379202 
L 269.877052 187.432087 
L 270.478701 183.923653 
L 271.44134 176.576064 
L 273.486947 160.417286 
L 274.208926 156.384147 
L 274.810575 154.176778 
L 275.291895 153.265599 
L 275.652884 153.097027 
L 275.893544 153.226133 
L 276.254533 153.785655 
L 276.615523 154.857399 
L 277.096842 157.016893 
L 277.818821 161.530671 
L 279.022119 170.992274 
L 280.225418 179.9797 
L 280.827067 183.166608 
L 281.308386 184.66049 
L 281.669376 185.117802 
L 281.910036 185.10334 
L 282.150695 184.835004 
L 282.511685 183.968547 
L 282.993004 181.997055 
L 283.594653 178.380393 
L 284.436962 171.76479 
L 286.963889 150.875922 
L 287.685868 147.001144 
L 288.167187 145.351091 
L 288.528177 144.653 
L 288.889166 144.426639 
L 289.129826 144.53693 
L 289.370485 144.905191 
L 289.731475 145.946554 
L 290.212794 148.168372 
L 290.814443 152.080956 
L 291.777082 160.111951 
L 293.34137 173.414221 
L 293.943019 177.003162 
L 294.424339 178.76124 
L 294.785328 179.385357 
L 295.025988 179.466498 
L 295.266647 179.282108 
L 295.627637 178.521749 
L 296.108956 176.659363 
L 296.710605 173.134048 
L 297.552914 166.591352 
L 300.56116 141.687966 
L 301.162809 138.780492 
L 301.644129 137.380485 
L 302.005118 136.90575 
L 302.245778 136.890616 
L 302.486438 137.174112 
L 302.847427 138.136454 
L 303.328746 140.348027 
L 303.930396 144.403354 
L 304.772704 151.815637 
L 306.577652 168.369719 
L 307.179301 171.958281 
L 307.660621 173.61216 
L 308.02161 174.103447 
L 308.26227 174.072065 
L 308.502929 173.757701 
L 308.863919 172.773591 
L 309.345238 170.566529 
L 309.946887 166.570777 
L 310.909526 158.246834 
L 313.556783 133.960757 
L 314.158432 130.422457 
L 314.639751 128.58891 
L 315.000741 127.852658 
L 315.2414 127.699849 
L 315.48206 127.878004 
L 315.72272 128.378847 
L 316.083709 129.708894 
L 316.565028 132.479991 
L 317.166678 137.312627 
L 318.129316 147.137254 
L 319.573274 161.89466 
L 320.174924 166.147579 
L 320.656243 168.249811 
L 321.017232 169.019589 
L 321.257892 169.14356 
L 321.498552 168.958995 
L 321.739211 168.4725 
L 322.100201 167.198168 
L 322.58152 164.558578 
L 323.303499 158.938688 
L 324.386468 148.14951 
L 326.432075 127.2654 
L 327.154054 122.098239 
L 327.635373 119.830664 
L 327.996363 118.835002 
L 328.237023 118.545672 
L 328.477682 118.617045 
L 328.718342 119.043128 
L 329.079331 120.324469 
L 329.560651 123.152452 
L 330.1623 128.246338 
L 331.124939 138.856758 
L 332.689227 156.370186 
L 333.290876 160.927359 
L 333.772195 163.177488 
L 334.133185 164.002124 
L 334.373844 164.136739 
L 334.614504 163.942217 
L 334.855164 163.424974 
L 335.216153 162.066507 
L 335.697472 159.247139 
L 336.299122 154.349193 
L 337.26176 144.319836 
L 339.668357 117.746037 
L 340.390336 112.488376 
L 340.871655 110.349873 
L 341.232645 109.574507 
L 341.473305 109.529442 
L 341.713964 109.867442 
L 342.074954 111.075113 
L 342.556273 113.922001 
L 343.157922 119.232313 
L 344.000231 129.051763 
L 345.925509 152.304261 
L 346.527158 156.855395 
L 347.008477 159.006728 
L 347.369467 159.707774 
L 347.610126 159.737773 
L 347.850786 159.421485 
L 348.211775 158.313207 
L 348.693095 155.721787 
L 349.294744 150.920102 
L 350.137053 142.015045 
L 353.265629 105.885628 
L 353.867278 102.258405 
L 354.228267 101.086333 
L 354.468927 100.81066 
L 354.709587 100.949086 
L 354.950246 101.497168 
L 355.311236 103.066124 
L 355.792555 106.468601 
L 356.394204 112.543539 
L 357.356843 125.092235 
L 358.800801 144.150072 
L 359.52278 150.698698 
L 360.004099 153.364273 
L 360.365089 154.401051 
L 360.605749 154.626487 
L 360.846408 154.480457 
L 361.087068 153.96761 
L 361.448057 152.530684 
L 361.929377 149.451625 
L 362.531026 143.993619 
L 363.373335 134.110976 
L 366.261251 97.512786 
L 366.8629 93.166828 
L 367.22389 91.625388 
L 367.464549 91.140287 
L 367.705209 91.10313 
L 367.945869 91.512385 
L 368.306858 92.946603 
L 368.788177 96.312545 
L 369.389827 102.572631 
L 370.232135 114.099191 
L 372.037083 139.732193 
L 372.638732 145.419094 
L 373.120052 148.326154 
L 373.481041 149.48384 
L 373.721701 149.761274 
L 373.96236 149.643547 
L 374.20302 149.135951 
L 374.56401 147.667365 
L 375.045329 144.48143 
L 375.646978 138.798895 
L 376.489287 128.444393 
L 379.377203 90.127842 
L 379.978852 85.68218 
L 380.339842 84.184621 
L 380.580501 83.764604 
L 380.700831 83.730313 
L 380.941491 84.013092 
L 381.182151 84.759928 
L 381.54314 86.727613 
L 382.024459 90.828939 
L 382.626109 97.985716 
L 383.588747 112.482074 
L 385.032705 133.996494 
L 385.754684 141.303367 
L 386.236004 144.284838 
L 386.596993 145.448967 
L 386.837653 145.705786 
L 387.078313 145.548874 
L 387.318972 144.984679 
L 387.679962 143.401293 
L 388.161281 140.013603 
L 388.76293 134.018408 
L 389.605239 123.033526 
L 392.613485 80.831175 
L 393.215134 76.513089 
L 393.576124 75.293685 
L 393.816783 75.105562 
L 394.057443 75.420341 
L 394.298103 76.234619 
L 394.659092 78.368651 
L 395.140412 82.805364 
L 395.742061 90.529023 
L 396.825029 108.160828 
L 398.148658 128.999195 
L 398.870637 136.736158 
L 399.351956 139.871805 
L 399.712945 141.075386 
L 399.953605 141.32272 
L 400.194265 141.128886 
L 400.434924 140.501568 
L 400.795914 138.779223 
L 401.277233 135.133995 
L 401.878882 128.714863 
L 402.721191 116.916237 
L 405.609107 73.042762 
L 406.210757 68.082702 
L 406.571746 66.568179 
L 406.812406 66.230671 
L 406.932736 66.2661 
L 407.173395 66.744984 
L 407.534385 68.470602 
L 408.015704 72.561482 
L 408.617353 80.202077 
L 409.459662 94.252514 
L 411.26461 125.244596 
L 411.866259 132.195 
L 412.347578 135.803074 
L 412.708568 137.277738 
L 412.949227 137.66192 
L 413.069557 137.674653 
L 413.310217 137.344897 
L 413.550877 136.551109 
L 413.911866 134.527857 
L 414.393185 130.401513 
L 414.994835 123.263624 
L 415.837143 110.2865 
L 418.60473 64.753772 
L 419.206379 59.322119 
L 419.567368 57.639584 
L 419.808028 57.242912 
L 419.928358 57.265287 
L 420.169018 57.75178 
L 420.530007 59.573326 
L 421.011326 63.943949 
L 421.612976 72.143598 
L 422.455284 87.239034 
L 424.260232 120.55773 
L 424.861881 128.062882 
L 425.343201 131.978452 
L 425.70419 133.595717 
L 425.94485 134.031997 
L 426.06518 134.057935 
L 426.305839 133.729337 
L 426.546499 132.903374 
L 426.907488 130.769746 
L 427.388808 126.383305 
L 427.990457 118.755857 
L 428.832766 104.862074 
L 431.480022 57.856735 
L 432.081671 51.62533 
L 432.442661 49.493536 
L 432.683321 48.833838 
L 432.80365 48.737446 
L 432.92398 48.797684 
L 433.16464 49.387462 
L 433.525629 51.430162 
L 434.006949 56.206165 
L 434.608598 65.047618 
L 435.450907 81.165069 
L 437.135525 114.392609 
L 437.857504 124.14578 
L 438.338823 128.212058 
L 438.699812 129.865657 
L 438.940472 130.289858 
L 439.060802 130.298985 
L 439.301462 129.915641 
L 439.542121 129.007385 
L 439.903111 126.700058 
L 440.38443 121.993545 
L 440.986079 113.867995 
L 441.948718 97.13857 
L 444.114655 57.772989 
L 444.716304 50.699405 
L 445.197624 47.34924 
L 445.558613 46.368754 
L 445.678943 46.347761 
L 445.919603 46.771592 
L 446.160262 47.816564 
L 446.521252 50.529153 
L 447.002571 56.161479 
L 447.60422 65.976107 
L 448.687189 88.405576 
L 450.010817 115.136471 
L 450.732796 125.435503 
L 451.214115 129.790779 
L 451.575105 131.602141 
L 451.815765 132.098381 
L 451.936094 132.132884 
L 452.176754 131.777969 
L 452.417414 130.866792 
L 452.778403 128.492926 
L 453.259723 123.572008 
L 453.861372 114.968519 
L 454.703681 99.525803 
L 457.230607 50.613547 
L 457.832256 43.693089 
L 458.193246 41.220945 
L 458.554235 40.149321 
L 458.674565 40.114545 
L 458.794895 40.242975 
L 459.035555 40.990187 
L 459.396544 43.324048 
L 459.877864 48.596848 
L 460.479513 58.230332 
L 461.442151 78.41091 
L 463.006439 111.987334 
L 463.728418 123.069049 
L 464.209738 127.960959 
L 464.570727 130.187295 
L 464.931717 131.14735 
L 465.052047 131.187066 
L 465.292706 130.852099 
L 465.533366 129.9764 
L 465.894355 127.690378 
L 466.375675 122.960961 
L 466.977324 114.730874 
L 467.939963 97.765186 
L 470.1059 57.803973 
L 470.707549 50.574083 
L 471.188868 47.114926 
L 471.549858 46.065458 
L 471.670188 46.024671 
L 471.790517 46.140472 
L 472.031177 46.842557 
L 472.392167 49.059515 
L 472.873486 54.088044 
L 473.475135 63.29288 
L 474.437774 82.607642 
L 476.122392 116.858841 
L 476.844371 126.92328 
L 477.32569 131.234806 
L 477.686679 133.110945 
L 477.927339 133.708251 
L 478.167999 133.788482 
L 478.408658 133.36225 
L 478.769648 131.809524 
L 479.250967 128.151738 
L 479.852616 121.367885 
L 480.694925 108.733287 
L 483.462512 63.874564 
L 483.943831 59.625658 
L 484.30482 57.773392 
L 484.54548 57.23182 
L 484.66581 57.179071 
L 484.78614 57.273054 
L 485.026799 57.902052 
L 485.387789 59.936954 
L 485.869108 64.594899 
L 486.470757 73.162075 
L 487.313066 88.778269 
L 489.118014 123.299273 
L 489.839993 132.748626 
L 490.321312 136.805082 
L 490.682302 138.57824 
L 490.922961 139.15009 
L 491.163621 139.239671 
L 491.404281 138.857549 
L 491.76527 137.435179 
L 492.24659 134.065516 
L 492.848239 127.805165 
L 493.690548 116.135013 
L 496.458134 74.510305 
L 496.939453 70.50122 
L 497.300443 68.7205 
L 497.541102 68.173864 
L 497.661432 68.103638 
L 497.781762 68.170214 
L 498.022422 68.714878 
L 498.383411 70.551479 
L 498.864731 74.82134 
L 499.46638 82.744266 
L 500.308689 97.299476 
L 502.113636 129.832391 
L 502.835615 138.847919 
L 503.316935 142.76766 
L 503.677924 144.522634 
L 504.038914 145.252863 
L 504.279573 145.179906 
L 504.520233 144.672998 
L 504.881222 143.136178 
L 505.362542 139.752273 
L 505.964191 133.693975 
L 506.8065 122.643189 
L 509.333426 87.01692 
L 509.935076 82.024298 
L 510.296065 80.291673 
L 510.536725 79.72561 
L 510.777384 79.663361 
L 511.018044 80.111067 
L 511.379034 81.733078 
L 511.860353 85.598232 
L 512.462002 92.861771 
L 513.304311 106.340693 
L 515.229588 138.551148 
L 515.951567 146.598843 
L 516.432887 149.978822 
L 516.793876 151.405419 
L 517.034536 151.827638 
L 517.275196 151.833661 
L 517.515855 151.434783 
L 517.876845 150.110673 
L 518.358164 147.093653 
L 518.959813 141.594783 
L 519.802122 131.453663 
L 522.449379 97.115694 
L 523.051028 92.772205 
L 523.412017 91.365879 
L 523.652677 90.993623 
L 523.773007 90.984888 
L 524.013666 91.325625 
L 524.254326 92.143027 
L 524.615316 94.243297 
L 525.096635 98.576429 
L 525.698284 106.108052 
L 526.660923 121.331521 
L 528.225211 145.811418 
L 528.94719 153.618951 
L 529.428509 156.986395 
L 529.789499 158.480575 
L 530.150488 159.086347 
L 530.391148 159.005458 
L 530.631807 158.548671 
L 530.992797 157.189412 
L 531.474116 154.214702 
L 532.075765 148.890455 
L 532.918074 139.180323 
L 535.445001 108.04808 
L 536.04665 103.728227 
L 536.40764 102.249559 
L 536.648299 101.794289 
L 536.888959 101.786654 
L 537.129619 102.23134 
L 537.490608 103.738964 
L 537.971927 107.249914 
L 538.573577 113.773431 
L 539.415886 125.799528 
L 541.341163 154.620448 
L 542.063142 161.870218 
L 542.544461 164.954308 
L 542.905451 166.292546 
L 543.14611 166.718083 
L 543.38677 166.774898 
L 543.62743 166.470775 
L 543.988419 165.36167 
L 544.469739 162.742332 
L 545.071388 157.859328 
L 545.913697 148.754679 
L 548.560953 117.717383 
L 549.162602 113.78271 
L 549.523592 112.514239 
L 549.764251 112.184276 
L 550.004911 112.280299 
L 550.245571 112.804178 
L 550.60656 114.379843 
L 551.08788 117.879628 
L 551.689529 124.221486 
L 552.652168 137.48605 
L 554.336785 161.307263 
L 555.058764 168.435011 
L 555.660413 172.164072 
L 556.021403 173.368662 
L 556.262063 173.737779 
L 556.502722 173.763866 
L 556.743382 173.45329 
L 557.104371 172.376533 
L 557.585691 169.867289 
L 558.18734 165.206566 
L 559.029649 156.560282 
L 561.676905 127.307374 
L 562.278554 123.699234 
L 562.639544 122.586959 
L 562.880204 122.3346 
L 563.120863 122.482528 
L 563.361523 123.031168 
L 563.722512 124.591179 
L 564.203832 127.969378 
L 564.805481 134.004125 
L 565.76812 146.482038 
L 567.452737 168.722926 
L 568.174716 175.388928 
L 568.776366 178.918209 
L 569.137355 180.087307 
L 569.498345 180.536771 
L 569.739004 180.440728 
L 569.979664 180.034212 
L 570.340653 178.85995 
L 570.821973 176.302653 
L 571.423622 171.719526 
L 572.265931 163.419322 
L 574.672528 138.133584 
L 575.274177 134.348362 
L 575.635166 133.02603 
L 575.875826 132.590186 
L 576.116486 132.522201 
L 576.357145 132.825088 
L 576.718135 133.967548 
L 577.199454 136.719139 
L 577.801103 141.91379 
L 578.643412 151.595356 
L 580.809349 177.814071 
L 581.531328 183.420123 
L 582.012648 185.777584 
L 582.373637 186.77771 
L 582.614297 187.074359 
L 582.854956 187.075656 
L 583.095616 186.784653 
L 583.456606 185.811977 
L 583.937925 183.564721 
L 584.539574 179.424574 
L 585.381883 171.774504 
L 587.90881 147.047801 
L 588.510459 143.728285 
L 588.871448 142.662624 
L 589.112108 142.372338 
L 589.352768 142.425239 
L 589.593427 142.821621 
L 589.954417 144.049086 
L 590.435736 146.805498 
L 591.037385 151.825517 
L 591.879694 160.946733 
L 593.925301 183.907131 
L 594.64728 189.289066 
L 595.1286 191.63758 
L 595.489589 192.700196 
L 595.850579 193.148735 
L 596.091238 193.104446 
L 596.331898 192.787022 
L 596.692888 191.808833 
L 597.174207 189.618258 
L 597.775856 185.668658 
L 598.618165 178.437444 
L 601.024762 156.557531 
L 601.626411 153.488961 
L 601.9874 152.519757 
L 602.22806 152.265111 
L 602.46872 152.329436 
L 602.709379 152.712826 
L 603.070369 153.87423 
L 603.551688 156.458455 
L 604.153338 161.139131 
L 604.995646 169.622878 
L 607.041254 191.017957 
L 607.763233 196.101077 
L 608.364882 198.765131 
L 608.725871 199.616297 
L 608.966531 199.861559 
L 609.207191 199.846526 
L 609.44785 199.57136 
L 609.80884 198.678859 
L 610.290159 196.647322 
L 610.891808 192.968335 
L 611.734117 186.205915 
L 614.020384 166.64839 
L 614.622033 163.597905 
L 614.983023 162.557698 
L 615.344012 162.161768 
L 615.584672 162.263337 
L 615.825332 162.657131 
L 616.186321 163.783871 
L 616.667641 166.231492 
L 617.26929 170.609456 
L 618.231928 179.727078 
L 620.036876 197.451491 
L 620.758855 202.581224 
L 621.360504 205.46759 
L 621.841823 206.749956 
L 622.202813 207.079104 
L 622.443473 206.99165 
L 622.684132 206.659185 
L 623.045122 205.709597 
L 623.526441 203.684088 
L 624.12809 200.098698 
L 624.970399 193.615099 
L 627.016006 176.989102 
L 627.617656 173.797207 
L 628.098975 172.309294 
L 628.459964 171.879854 
L 628.700624 171.929671 
L 628.941284 172.248345 
L 629.302273 173.220735 
L 629.783593 175.390089 
L 630.385242 179.329261 
L 631.227551 186.530986 
L 633.393488 206.102758 
L 634.115467 210.575356 
L 634.717116 212.965674 
L 635.078105 213.743528 
L 635.318765 213.974826 
L 635.559425 213.972074 
L 635.800084 213.734896 
L 636.161074 212.950157 
L 636.642393 211.189537 
L 637.244043 207.983195 
L 638.086351 202.092123 
L 640.252288 186.190478 
L 640.853938 183.514567 
L 641.335257 182.355054 
L 641.575917 182.126458 
L 641.816576 182.137365 
L 642.057236 182.387595 
L 642.418226 183.204554 
L 642.899545 185.077213 
L 643.501194 188.536037 
L 644.343503 194.972329 
L 646.7501 214.756905 
L 647.472079 218.705424 
L 647.953398 220.424953 
L 648.314387 221.17252 
L 648.675377 221.42853 
L 648.916037 221.320217 
L 649.277026 220.75566 
L 649.758346 219.31866 
L 650.359995 216.540999 
L 651.202304 211.253136 
L 653.48857 195.787027 
L 654.09022 193.363269 
L 654.571539 192.310286 
L 654.932528 192.07503 
L 655.173188 192.187251 
L 655.534178 192.756259 
L 655.895167 193.791732 
L 656.376487 195.851238 
L 657.098466 200.201526 
L 658.181434 208.614633 
L 659.866052 221.55696 
L 660.588031 225.639751 
L 661.18968 227.899885 
L 661.550669 228.669111 
L 661.911659 228.963632 
L 662.152319 228.894997 
L 662.513308 228.422525 
L 662.874298 227.523118 
L 663.355617 225.715361 
L 664.077596 221.918212 
L 665.280894 213.918987 
L 666.484193 206.307116 
L 667.206172 203.134984 
L 667.687491 201.871033 
L 668.048481 201.417435 
L 668.28914 201.359003 
L 668.5298 201.497531 
L 668.89079 202.071855 
L 669.372109 203.502062 
L 669.973758 206.280457 
L 670.695737 210.846754 
L 672.500685 224.521658 
L 673.463323 230.891655 
L 674.185302 234.299731 
L 674.666622 235.681785 
L 675.027611 236.189281 
L 675.268271 236.278291 
L 675.508931 236.173698 
L 675.86992 235.661447 
L 676.351239 234.35457 
L 676.952889 231.844081 
L 677.795197 227.118786 
L 679.961134 214.250381 
L 680.562784 211.994903 
L 681.044103 210.895096 
L 681.405093 210.519794 
L 681.645752 210.491746 
L 681.886412 210.643612 
L 682.247401 211.209387 
L 682.728721 212.585277 
L 683.33037 215.253959 
L 684.052349 219.615556 
L 685.496307 230.039306 
L 686.699605 238.030588 
L 687.421584 241.420866 
L 687.902904 242.811447 
L 688.263893 243.349894 
L 688.504553 243.474955 
L 688.745213 243.413124 
L 689.106202 242.978888 
L 689.467192 242.157644 
L 689.948511 240.522065 
L 690.67049 237.133732 
L 692.114448 228.768454 
L 693.077087 223.743299 
L 693.799066 221.062188 
L 694.280385 219.953948 
L 694.641375 219.523965 
L 695.002364 219.457877 
L 695.243024 219.622578 
L 695.604013 220.188505 
L 696.085333 221.538963 
L 696.686982 224.149104 
L 697.529291 229.105254 
L 700.417207 247.723736 
L 701.018856 249.744842 
L 701.379845 250.412297 
L 701.740835 250.66839 
L 701.981495 250.611247 
L 702.342484 250.195634 
L 702.703474 249.407579 
L 703.184793 247.839272 
L 703.906772 244.607805 
L 705.47106 236.051035 
L 706.433698 231.461825 
L 707.155678 229.044023 
L 707.636997 228.075493 
L 707.997986 227.733961 
L 708.238646 227.702421 
L 708.479306 227.834401 
L 708.840295 228.348373 
L 709.321615 229.633871 
L 709.923264 232.160366 
L 710.645243 236.241053 
L 711.968871 245.4134 
L 713.172169 253.235513 
L 713.894148 256.499784 
L 714.375468 257.819549 
L 714.736457 258.340494 
L 714.977117 258.460702 
L 715.217777 258.402233 
L 715.578766 257.990979 
L 716.060085 256.881448 
L 716.661735 254.719595 
L 717.504043 250.65904 
L 719.79031 238.953729 
L 720.512289 236.586367 
L 720.993609 235.657292 
L 721.354598 235.358581 
L 721.595258 235.365186 
L 721.835918 235.544801 
L 722.196907 236.149209 
L 722.678226 237.585652 
L 723.279876 240.26648 
L 724.122184 245.339397 
L 726.769441 262.702946 
L 727.37109 264.840414 
L 727.852409 265.762825 
L 728.213399 265.981179 
L 728.454059 265.905148 
L 728.815048 265.472432 
L 729.296367 264.344592 
L 729.898017 262.181107 
L 730.740325 258.148587 
L 733.146922 245.977171 
L 733.748571 244.011391 
L 734.229891 243.035452 
L 734.59088 242.714073 
L 734.83154 242.714421 
L 735.0722 242.895841 
L 735.433189 243.51816 
L 735.914508 244.987653 
L 736.516158 247.717996 
L 737.358466 252.914085 
L 739.885393 269.895365 
L 740.487042 272.225052 
L 740.968362 273.31607 
L 741.329351 273.666098 
L 741.570011 273.67894 
L 741.81067 273.52037 
L 742.17166 272.975116 
L 742.652979 271.722419 
L 743.254628 269.440367 
L 744.096937 265.279014 
L 746.503534 252.755136 
L 747.105183 250.741861 
L 747.586503 249.788263 
L 747.947492 249.528381 
L 748.188152 249.592352 
L 748.428811 249.854677 
L 748.789801 250.620691 
L 749.27112 252.270972 
L 749.872769 255.266362 
L 750.715078 260.816642 
L 752.881015 275.937858 
L 753.482665 278.647816 
L 753.963984 280.067081 
L 754.324973 280.6681 
L 754.685963 280.871211 
L 754.926623 280.790048 
L 755.287612 280.356006 
L 755.768931 279.235556 
L 756.370581 277.075638 
L 757.212889 272.961456 
L 759.980476 258.147618 
L 760.582125 256.363386 
L 760.943114 255.810509 
L 761.183774 255.686942 
L 761.424434 255.771553 
L 761.785423 256.294627 
L 762.146413 257.259018 
L 762.627732 259.2037 
L 763.229381 262.579067 
L 764.19202 269.489359 
L 765.756308 280.91029 
L 766.478287 284.676563 
L 767.079936 286.700219 
L 767.561255 287.522729 
L 767.922245 287.672091 
L 768.162905 287.553792 
L 768.523894 287.063161 
L 769.005213 285.865907 
L 769.606863 283.603074 
L 770.449171 279.324229 
L 773.216758 264.131231 
L 773.698077 262.683341 
L 774.059067 262.076013 
L 774.299726 261.926139 
L 774.540386 261.992364 
L 774.901375 262.489264 
L 775.262365 263.437059 
L 775.743684 265.378541 
L 776.345333 268.767262 
L 777.307972 275.699294 
L 778.87226 287.039698 
L 779.594239 290.750607 
L 780.195888 292.742291 
L 780.677208 293.555455 
L 781.038197 293.707849 
L 781.278857 293.596218 
L 781.639846 293.122363 
L 782.121166 291.958256 
L 782.722815 289.751174 
L 783.565124 285.568203 
L 786.33271 270.608969 
L 786.814029 269.218158 
L 787.175019 268.66165 
L 787.415678 268.548768 
L 787.656338 268.652696 
L 788.017328 269.191197 
L 788.378317 270.180054 
L 788.859636 272.170137 
L 789.581615 276.384625 
L 790.784914 285.250098 
L 791.988212 293.496039 
L 792.710191 296.98426 
L 793.191511 298.504642 
L 793.67283 299.334098 
L 794.033819 299.500263 
L 794.274479 299.3981 
L 794.635469 298.938118 
L 795.116788 297.791491 
L 795.718437 295.60355 
L 796.560746 291.44475 
L 799.328332 276.695599 
L 799.809652 275.330732 
L 800.170641 274.783736 
L 800.411301 274.671293 
L 800.65196 274.770698 
L 801.01295 275.291202 
L 801.373939 276.248348 
L 801.855259 278.175777 
L 802.577238 282.263799 
L 803.780536 290.891302 
L 804.983835 298.944238 
L 805.705814 302.356893 
L 806.187133 303.842781 
L 806.668452 304.649203 
L 807.029442 304.805455 
L 807.270101 304.700518 
L 807.631091 304.242762 
L 808.11241 303.11192 
L 808.714059 300.964452 
L 809.556368 296.902748 
L 812.203625 283.154404 
L 812.805274 281.457005 
L 813.166263 280.960027 
L 813.406923 280.873294 
L 813.647583 280.992063 
L 814.008572 281.528828 
L 814.369562 282.486576 
L 814.850881 284.391364 
L 815.57286 288.40444 
L 816.776159 296.849376 
L 817.016818 298.571102 
L 817.016818 298.571102 
" clip-path="url(#p8b369ffdef)" style="fill: none; stroke: #0000ff; stroke-opacity: 0.7; stroke-width: 1.5; stroke-linecap: square"/>
   </g>
   <g id="line2d_30">
    <path d="M 458.674565 318.04 
L 458.674565 26.88 
" clip-path="url(#p8b369ffdef)" style="fill: none; stroke-dasharray: 5.55,2.4; stroke-dashoffset: 0; stroke: #ff0000; stroke-width: 1.5"/>
   </g>
   <g id="patch_3">
    <path d="M 57.17 318.04 
L 57.17 26.88 
" style="fill: none; stroke: #000000; stroke-width: 0.8; stroke-linejoin: miter; stroke-linecap: square"/>
   </g>
   <g id="patch_4">
    <path d="M 853.2 318.04 
L 853.2 26.88 
" style="fill: none; stroke: #000000; stroke-width: 0.8; stroke-linejoin: miter; stroke-linecap: square"/>
   </g>
   <g id="patch_5">
    <path d="M 57.17 318.04 
L 853.2 318.04 
" style="fill: none; stroke: #000000; stroke-width: 0.8; stroke-linejoin: miter; stroke-linecap: square"/>
   </g>
   <g id="patch_6">
    <path d="M 57.17 26.88 
L 853.2 26.88 
" style="fill: none; stroke: #000000; stroke-width: 0.8; stroke-linejoin: miter; stroke-linecap: square"/>
   </g>
   <g id="text_17">
    <!-- Cross-correlation Analysis -->
    <g transform="translate(377.757813 20.88) scale(0.12 -0.12)">
     <defs>
      <path id="DejaVuSans-41" d="M 2188 4044 
L 1331 1722 
L 3047 1722 
L 2188 4044 
z
M 1831 4666 
L 2547 4666 
L 4325 0 
L 3669 0 
L 3244 1197 
L 1141 1197 
L 716 0 
L 50 0 
L 1831 4666 
z
" transform="scale(0.015625)"/>
      <path id="DejaVuSans-79" d="M 2059 -325 
Q 1816 -950 1584 -1140 
Q 1353 -1331 966 -1331 
L 506 -1331 
L 506 -850 
L 844 -850 
Q 1081 -850 1212 -737 
Q 1344 -625 1503 -206 
L 1606 56 
L 191 3500 
L 800 3500 
L 1894 763 
L 2988 3500 
L 3597 3500 
L 2059 -325 
z
" transform="scale(0.015625)"/>
     </defs>
     <use xlink:href="#DejaVuSans-43"/>
     <use xlink:href="#DejaVuSans-72" x="69.824219"/>
     <use xlink:href="#DejaVuSans-6f" x="108.6875"/>
     <use xlink:href="#DejaVuSans-73" x="169.869141"/>
     <use xlink:href="#DejaVuSans-73" x="221.96875"/>
     <use xlink:href="#DejaVuSans-2d" x="274.068359"/>
     <use xlink:href="#DejaVuSans-63" x="310.152344"/>
     <use xlink:href="#DejaVuSans-6f" x="365.132812"/>
     <use xlink:href="#DejaVuSans-72" x="426.314453"/>
     <use xlink:href="#DejaVuSans-72" x="465.677734"/>
     <use xlink:href="#DejaVuSans-65" x="504.541016"/>
     <use xlink:href="#DejaVuSans-6c" x="566.064453"/>
     <use xlink:href="#DejaVuSans-61" x="593.847656"/>
     <use xlink:href="#DejaVuSans-74" x="655.126953"/>
     <use xlink:href="#DejaVuSans-69" x="694.335938"/>
     <use xlink:href="#DejaVuSans-6f" x="722.119141"/>
     <use xlink:href="#DejaVuSans-6e" x="783.300781"/>
     <use xlink:href="#DejaVuSans-20" x="846.679688"/>
     <use xlink:href="#DejaVuSans-41" x="878.466797"/>
     <use xlink:href="#DejaVuSans-6e" x="946.875"/>
     <use xlink:href="#DejaVuSans-61" x="1010.253906"/>
     <use xlink:href="#DejaVuSans-6c" x="1071.533203"/>
     <use xlink:href="#DejaVuSans-79" x="1099.316406"/>
     <use xlink:href="#DejaVuSans-73" x="1158.496094"/>
     <use xlink:href="#DejaVuSans-69" x="1210.595703"/>
     <use xlink:href="#DejaVuSans-73" x="1238.378906"/>
    </g>
   </g>
   <g id="legend_1">
    <g id="patch_7">
     <path d="M 647.6625 49.558125 
L 846.2 49.558125 
Q 848.2 49.558125 848.2 47.558125 
L 848.2 33.88 
Q 848.2 31.88 846.2 31.88 
L 647.6625 31.88 
Q 645.6625 31.88 645.6625 33.88 
L 645.6625 47.558125 
Q 645.6625 49.558125 647.6625 49.558125 
z
" style="fill: #ffffff; opacity: 0.8; stroke: #cccccc; stroke-linejoin: miter"/>
    </g>
    <g id="line2d_31">
     <path d="M 649.6625 39.978438 
L 659.6625 39.978438 
L 669.6625 39.978438 
" style="fill: none; stroke-dasharray: 5.55,2.4; stroke-dashoffset: 0; stroke: #ff0000; stroke-width: 1.5"/>
    </g>
    <g id="text_18">
     <!-- Best lag = 290 ms (corr = 0.177) -->
     <g transform="translate(677.6625 43.478438) scale(0.1 -0.1)">
      <defs>
       <path id="DejaVuSans-42" d="M 1259 2228 
L 1259 519 
L 2272 519 
Q 2781 519 3026 730 
Q 3272 941 3272 1375 
Q 3272 1813 3026 2020 
Q 2781 2228 2272 2228 
L 1259 2228 
z
M 1259 4147 
L 1259 2741 
L 2194 2741 
Q 2656 2741 2882 2914 
Q 3109 3088 3109 3444 
Q 3109 3797 2882 3972 
Q 2656 4147 2194 4147 
L 1259 4147 
z
M 628 4666 
L 2241 4666 
Q 2963 4666 3353 4366 
Q 3744 4066 3744 3513 
Q 3744 3084 3544 2831 
Q 3344 2578 2956 2516 
Q 3422 2416 3680 2098 
Q 3938 1781 3938 1306 
Q 3938 681 3513 340 
Q 3088 0 2303 0 
L 628 0 
L 628 4666 
z
" transform="scale(0.015625)"/>
       <path id="DejaVuSans-3d" d="M 678 2906 
L 4684 2906 
L 4684 2381 
L 678 2381 
L 678 2906 
z
M 678 1631 
L 4684 1631 
L 4684 1100 
L 678 1100 
L 678 1631 
z
" transform="scale(0.015625)"/>
       <path id="DejaVuSans-2e" d="M 684 794 
L 1344 794 
L 1344 0 
L 684 0 
L 684 794 
z
" transform="scale(0.015625)"/>
      </defs>
      <use xlink:href="#DejaVuSans-42"/>
      <use xlink:href="#DejaVuSans-65" x="68.603516"/>
      <use xlink:href="#DejaVuSans-73" x="130.126953"/>
      <use xlink:href="#DejaVuSans-74" x="182.226562"/>
      <use xlink:href="#DejaVuSans-20" x="221.435547"/>
      <use xlink:href="#DejaVuSans-6c" x="253.222656"/>
      <use xlink:href="#DejaVuSans-61" x="281.005859"/>
      <use xlink:href="#DejaVuSans-67" x="342.285156"/>
      <use xlink:href="#DejaVuSans-20" x="405.761719"/>
      <use xlink:href="#DejaVuSans-3d" x="437.548828"/>
      <use xlink:href="#DejaVuSans-20" x="521.337891"/>
      <use xlink:href="#DejaVuSans-32" x="553.125"/>
      <use xlink:href="#DejaVuSans-39" x="616.748047"/>
      <use xlink:href="#DejaVuSans-30" x="680.371094"/>
      <use xlink:href="#DejaVuSans-20" x="743.994141"/>
      <use xlink:href="#DejaVuSans-6d" x="775.78125"/>
      <use xlink:href="#DejaVuSans-73" x="873.193359"/>
      <use xlink:href="#DejaVuSans-20" x="925.292969"/>
      <use xlink:href="#DejaVuSans-28" x="957.080078"/>
      <use xlink:href="#DejaVuSans-63" x="996.09375"/>
      <use xlink:href="#DejaVuSans-6f" x="1051.074219"/>
      <use xlink:href="#DejaVuSans-72" x="1112.255859"/>
      <use xlink:href="#DejaVuSans-72" x="1151.619141"/>
      <use xlink:href="#DejaVuSans-20" x="1192.732422"/>
      <use xlink:href="#DejaVuSans-3d" x="1224.519531"/>
      <use xlink:href="#DejaVuSans-20" x="1308.308594"/>
      <use xlink:href="#DejaVuSans-30" x="1340.095703"/>
      <use xlink:href="#DejaVuSans-2e" x="1403.71875"/>
      <use xlink:href="#DejaVuSans-31" x="1435.505859"/>
      <use xlink:href="#DejaVuSans-37" x="1499.128906"/>
      <use xlink:href="#DejaVuSans-37" x="1562.751953"/>
      <use xlink:href="#DejaVuSans-29" x="1626.375"/>
     </g>
    </g>
   </g>
  </g>
 </g>
 <defs>
  <clipPath id="p8b369ffdef">
   <rect x="57.17" y="26.88" width="796.03" height="291.16"/>
  </clipPath>
 </defs>
</svg>
