<?xml version="1.0" encoding="utf-8" standalone="no"?>
<!DOCTYPE svg PUBLIC "-//W3C//DTD SVG 1.1//EN"
  "http://www.w3.org/Graphics/SVG/1.1/DTD/svg11.dtd">
<svg xmlns:xlink="http://www.w3.org/1999/xlink" width="1008pt" height="576pt" viewBox="0 0 1008 576" xmlns="http://www.w3.org/2000/svg" version="1.1">
 <metadata>
  <rdf:RDF xmlns:dc="http://purl.org/dc/elements/1.1/" xmlns:cc="http://creativecommons.org/ns#" xmlns:rdf="http://www.w3.org/1999/02/22-rdf-syntax-ns#">
   <cc:Work>
    <dc:type rdf:resource="http://purl.org/dc/dcmitype/StillImage"/>
    <dc:date>2025-12-01T21:26:25.985726</dc:date>
    <dc:format>image/svg+xml</dc:format>
    <dc:creator>
     <cc:Agent>
      <dc:title>Matplotlib v3.8.4, https://matplotlib.org/</dc:title>
     </cc:Agent>
    </dc:creator>
   </cc:Work>
  </rdf:RDF>
 </metadata>
 <defs>
  <style type="text/css">*{stroke-linejoin: round; stroke-linecap: butt}</style>
 </defs>
 <g id="figure_1">
  <g id="patch_1">
   <path d="M 0 576 
L 1008 576 
L 1008 0 
L 0 0 
z
" style="fill: #ffffff"/>
  </g>
  <g id="axes_1">
   <g id="patch_2">
    <path d="M 63.47 265.27 
L 990.072864 265.27 
L 990.072864 26.88 
L 63.47 26.88 
z
" style="fill: #ffffff"/>
   </g>
   <g id="matplotlib.axis_1">
    <g id="xtick_1">
     <g id="line2d_1">
      <path d="M 176.960518 265.27 
L 176.960518 26.88 
" clip-path="url(#pe136fa5436)" style="fill: none; stroke: #b0b0b0; stroke-width: 0.8; stroke-linecap: square"/>
     </g>
     <g id="line2d_2">
      <defs>
       <path id="m367dbd909c" d="M 0 0 
L 0 3.5 
" style="stroke: #000000; stroke-width: 0.8"/>
      </defs>
      <g>
       <use xlink:href="#m367dbd909c" x="176.960518" y="265.27" style="stroke: #000000; stroke-width: 0.8"/>
      </g>
     </g>
    </g>
    <g id="xtick_2">
     <g id="line2d_3">
      <path d="M 379.549801 265.27 
L 379.549801 26.88 
" clip-path="url(#pe136fa5436)" style="fill: none; stroke: #b0b0b0; stroke-width: 0.8; stroke-linecap: square"/>
     </g>
     <g id="line2d_4">
      <g>
       <use xlink:href="#m367dbd909c" x="379.549801" y="265.27" style="stroke: #000000; stroke-width: 0.8"/>
      </g>
     </g>
    </g>
    <g id="xtick_3">
     <g id="line2d_5">
      <path d="M 582.139084 265.27 
L 582.139084 26.88 
" clip-path="url(#pe136fa5436)" style="fill: none; stroke: #b0b0b0; stroke-width: 0.8; stroke-linecap: square"/>
     </g>
     <g id="line2d_6">
      <g>
       <use xlink:href="#m367dbd909c" x="582.139084" y="265.27" style="stroke: #000000; stroke-width: 0.8"/>
      </g>
     </g>
    </g>
    <g id="xtick_4">
     <g id="line2d_7">
      <path d="M 784.728367 265.27 
L 784.728367 26.88 
" clip-path="url(#pe136fa5436)" style="fill: none; stroke: #b0b0b0; stroke-width: 0.8; stroke-linecap: square"/>
     </g>
     <g id="line2d_8">
      <g>
       <use xlink:href="#m367dbd909c" x="784.728367" y="265.27" style="stroke: #000000; stroke-width: 0.8"/>
      </g>
     </g>
    </g>
    <g id="xtick_5">
     <g id="line2d_9">
      <path d="M 987.31765 265.27 
L 987.31765 26.88 
" clip-path="url(#pe136fa5436)" style="fill: none; stroke: #b0b0b0; stroke-width: 0.8; stroke-linecap: square"/>
     </g>
     <g id="line2d_10">
      <g>
       <use xlink:href="#m367dbd909c" x="987.31765" y="265.27" style="stroke: #000000; stroke-width: 0.8"/>
      </g>
     </g>
    </g>
   </g>
   <g id="matplotlib.axis_2">
    <g id="ytick_1">
     <g id="line2d_11">
      <path d="M 63.47 256.192714 
L 990.072864 256.192714 
" clip-path="url(#pe136fa5436)" style="fill: none; stroke: #b0b0b0; stroke-width: 0.8; stroke-linecap: square"/>
     </g>
     <g id="line2d_12">
      <defs>
       <path id="m0999ba930b" d="M 0 0 
L -3.5 0 
" style="stroke: #000000; stroke-width: 0.8"/>
      </defs>
      <g>
       <use xlink:href="#m0999ba930b" x="63.47" y="256.192714" style="stroke: #000000; stroke-width: 0.8"/>
      </g>
     </g>
     <g id="text_1">
      <!-- 0 -->
      <g transform="translate(50.1075 259.991933) scale(0.1 -0.1)">
       <defs>
        <path id="DejaVuSans-30" d="M 2034 4250 
Q 1547 4250 1301 3770 
Q 1056 3291 1056 2328 
Q 1056 1369 1301 889 
Q 1547 409 2034 409 
Q 2525 409 2770 889 
Q 3016 1369 3016 2328 
Q 3016 3291 2770 3770 
Q 2525 4250 2034 4250 
z
M 2034 4750 
Q 2819 4750 3233 4129 
Q 3647 3509 3647 2328 
Q 3647 1150 3233 529 
Q 2819 -91 2034 -91 
Q 1250 -91 836 529 
Q 422 1150 422 2328 
Q 422 3509 836 4129 
Q 1250 4750 2034 4750 
z
" transform="scale(0.015625)"/>
       </defs>
       <use xlink:href="#DejaVuSans-30"/>
      </g>
     </g>
    </g>
    <g id="ytick_2">
     <g id="line2d_13">
      <path d="M 63.47 208.53354 
L 990.072864 208.53354 
" clip-path="url(#pe136fa5436)" style="fill: none; stroke: #b0b0b0; stroke-width: 0.8; stroke-linecap: square"/>
     </g>
     <g id="line2d_14">
      <g>
       <use xlink:href="#m0999ba930b" x="63.47" y="208.53354" style="stroke: #000000; stroke-width: 0.8"/>
      </g>
     </g>
     <g id="text_2">
      <!-- 20000 -->
      <g transform="translate(24.6575 212.332759) scale(0.1 -0.1)">
       <defs>
        <path id="DejaVuSans-32" d="M 1228 531 
L 3431 531 
L 3431 0 
L 469 0 
L 469 531 
Q 828 903 1448 1529 
Q 2069 2156 2228 2338 
Q 2531 2678 2651 2914 
Q 2772 3150 2772 3378 
Q 2772 3750 2511 3984 
Q 2250 4219 1831 4219 
Q 1534 4219 1204 4116 
Q 875 4013 500 3803 
L 500 4441 
Q 881 4594 1212 4672 
Q 1544 4750 1819 4750 
Q 2544 4750 2975 4387 
Q 3406 4025 3406 3419 
Q 3406 3131 3298 2873 
Q 3191 2616 2906 2266 
Q 2828 2175 2409 1742 
Q 1991 1309 1228 531 
z
" transform="scale(0.015625)"/>
       </defs>
       <use xlink:href="#DejaVuSans-32"/>
       <use xlink:href="#DejaVuSans-30" x="63.623047"/>
       <use xlink:href="#DejaVuSans-30" x="127.246094"/>
       <use xlink:href="#DejaVuSans-30" x="190.869141"/>
       <use xlink:href="#DejaVuSans-30" x="254.492188"/>
      </g>
     </g>
    </g>
    <g id="ytick_3">
     <g id="line2d_15">
      <path d="M 63.47 160.874365 
L 990.072864 160.874365 
" clip-path="url(#pe136fa5436)" style="fill: none; stroke: #b0b0b0; stroke-width: 0.8; stroke-linecap: square"/>
     </g>
     <g id="line2d_16">
      <g>
       <use xlink:href="#m0999ba930b" x="63.47" y="160.874365" style="stroke: #000000; stroke-width: 0.8"/>
      </g>
     </g>
     <g id="text_3">
      <!-- 40000 -->
      <g transform="translate(24.6575 164.673584) scale(0.1 -0.1)">
       <defs>
        <path id="DejaVuSans-34" d="M 2419 4116 
L 825 1625 
L 2419 1625 
L 2419 4116 
z
M 2253 4666 
L 3047 4666 
L 3047 1625 
L 3713 1625 
L 3713 1100 
L 3047 1100 
L 3047 0 
L 2419 0 
L 2419 1100 
L 313 1100 
L 313 1709 
L 2253 4666 
z
" transform="scale(0.015625)"/>
       </defs>
       <use xlink:href="#DejaVuSans-34"/>
       <use xlink:href="#DejaVuSans-30" x="63.623047"/>
       <use xlink:href="#DejaVuSans-30" x="127.246094"/>
       <use xlink:href="#DejaVuSans-30" x="190.869141"/>
       <use xlink:href="#DejaVuSans-30" x="254.492188"/>
      </g>
     </g>
    </g>
    <g id="ytick_4">
     <g id="line2d_17">
      <path d="M 63.47 113.215191 
L 990.072864 113.215191 
" clip-path="url(#pe136fa5436)" style="fill: none; stroke: #b0b0b0; stroke-width: 0.8; stroke-linecap: square"/>
     </g>
     <g id="line2d_18">
      <g>
       <use xlink:href="#m0999ba930b" x="63.47" y="113.215191" style="stroke: #000000; stroke-width: 0.8"/>
      </g>
     </g>
     <g id="text_4">
      <!-- 60000 -->
      <g transform="translate(24.6575 117.014409) scale(0.1 -0.1)">
       <defs>
        <path id="DejaVuSans-36" d="M 2113 2584 
Q 1688 2584 1439 2293 
Q 1191 2003 1191 1497 
Q 1191 994 1439 701 
Q 1688 409 2113 409 
Q 2538 409 2786 701 
Q 3034 994 3034 1497 
Q 3034 2003 2786 2293 
Q 2538 2584 2113 2584 
z
M 3366 4563 
L 3366 3988 
Q 3128 4100 2886 4159 
Q 2644 4219 2406 4219 
Q 1781 4219 1451 3797 
Q 1122 3375 1075 2522 
Q 1259 2794 1537 2939 
Q 1816 3084 2150 3084 
Q 2853 3084 3261 2657 
Q 3669 2231 3669 1497 
Q 3669 778 3244 343 
Q 2819 -91 2113 -91 
Q 1303 -91 875 529 
Q 447 1150 447 2328 
Q 447 3434 972 4092 
Q 1497 4750 2381 4750 
Q 2619 4750 2861 4703 
Q 3103 4656 3366 4563 
z
" transform="scale(0.015625)"/>
       </defs>
       <use xlink:href="#DejaVuSans-36"/>
       <use xlink:href="#DejaVuSans-30" x="63.623047"/>
       <use xlink:href="#DejaVuSans-30" x="127.246094"/>
       <use xlink:href="#DejaVuSans-30" x="190.869141"/>
       <use xlink:href="#DejaVuSans-30" x="254.492188"/>
      </g>
     </g>
    </g>
    <g id="ytick_5">
     <g id="line2d_19">
      <path d="M 63.47 65.556016 
L 990.072864 65.556016 
" clip-path="url(#pe136fa5436)" style="fill: none; stroke: #b0b0b0; stroke-width: 0.8; stroke-linecap: square"/>
     </g>
     <g id="line2d_20">
      <g>
       <use xlink:href="#m0999ba930b" x="63.47" y="65.556016" style="stroke: #000000; stroke-width: 0.8"/>
      </g>
     </g>
     <g id="text_5">
      <!-- 80000 -->
      <g transform="translate(24.6575 69.355235) scale(0.1 -0.1)">
       <defs>
        <path id="DejaVuSans-38" d="M 2034 2216 
Q 1584 2216 1326 1975 
Q 1069 1734 1069 1313 
Q 1069 891 1326 650 
Q 1584 409 2034 409 
Q 2484 409 2743 651 
Q 3003 894 3003 1313 
Q 3003 1734 2745 1975 
Q 2488 2216 2034 2216 
z
M 1403 2484 
Q 997 2584 770 2862 
Q 544 3141 544 3541 
Q 544 4100 942 4425 
Q 1341 4750 2034 4750 
Q 2731 4750 3128 4425 
Q 3525 4100 3525 3541 
Q 3525 3141 3298 2862 
Q 3072 2584 2669 2484 
Q 3125 2378 3379 2068 
Q 3634 1759 3634 1313 
Q 3634 634 3220 271 
Q 2806 -91 2034 -91 
Q 1263 -91 848 271 
Q 434 634 434 1313 
Q 434 1759 690 2068 
Q 947 2378 1403 2484 
z
M 1172 3481 
Q 1172 3119 1398 2916 
Q 1625 2713 2034 2713 
Q 2441 2713 2670 2916 
Q 2900 3119 2900 3481 
Q 2900 3844 2670 4047 
Q 2441 4250 2034 4250 
Q 1625 4250 1398 4047 
Q 1172 3844 1172 3481 
z
" transform="scale(0.015625)"/>
       </defs>
       <use xlink:href="#DejaVuSans-38"/>
       <use xlink:href="#DejaVuSans-30" x="63.623047"/>
       <use xlink:href="#DejaVuSans-30" x="127.246094"/>
       <use xlink:href="#DejaVuSans-30" x="190.869141"/>
       <use xlink:href="#DejaVuSans-30" x="254.492188"/>
      </g>
     </g>
    </g>
    <g id="text_6">
     <!-- Pressure Value -->
     <g transform="translate(18.577813 182.739844) rotate(-90) scale(0.1 -0.1)">
      <defs>
       <path id="DejaVuSans-50" d="M 1259 4147 
L 1259 2394 
L 2053 2394 
Q 2494 2394 2734 2622 
Q 2975 2850 2975 3272 
Q 2975 3691 2734 3919 
Q 2494 4147 2053 4147 
L 1259 4147 
z
M 628 4666 
L 2053 4666 
Q 2838 4666 3239 4311 
Q 3641 3956 3641 3272 
Q 3641 2581 3239 2228 
Q 2838 1875 2053 1875 
L 1259 1875 
L 1259 0 
L 628 0 
L 628 4666 
z
" transform="scale(0.015625)"/>
       <path id="DejaVuSans-72" d="M 2631 2963 
Q 2534 3019 2420 3045 
Q 2306 3072 2169 3072 
Q 1681 3072 1420 2755 
Q 1159 2438 1159 1844 
L 1159 0 
L 581 0 
L 581 3500 
L 1159 3500 
L 1159 2956 
Q 1341 3275 1631 3429 
Q 1922 3584 2338 3584 
Q 2397 3584 2469 3576 
Q 2541 3569 2628 3553 
L 2631 2963 
z
" transform="scale(0.015625)"/>
       <path id="DejaVuSans-65" d="M 3597 1894 
L 3597 1613 
L 953 1613 
Q 991 1019 1311 708 
Q 1631 397 2203 397 
Q 2534 397 2845 478 
Q 3156 559 3463 722 
L 3463 178 
Q 3153 47 2828 -22 
Q 2503 -91 2169 -91 
Q 1331 -91 842 396 
Q 353 884 353 1716 
Q 353 2575 817 3079 
Q 1281 3584 2069 3584 
Q 2775 3584 3186 3129 
Q 3597 2675 3597 1894 
z
M 3022 2063 
Q 3016 2534 2758 2815 
Q 2500 3097 2075 3097 
Q 1594 3097 1305 2825 
Q 1016 2553 972 2059 
L 3022 2063 
z
" transform="scale(0.015625)"/>
       <path id="DejaVuSans-73" d="M 2834 3397 
L 2834 2853 
Q 2591 2978 2328 3040 
Q 2066 3103 1784 3103 
Q 1356 3103 1142 2972 
Q 928 2841 928 2578 
Q 928 2378 1081 2264 
Q 1234 2150 1697 2047 
L 1894 2003 
Q 2506 1872 2764 1633 
Q 3022 1394 3022 966 
Q 3022 478 2636 193 
Q 2250 -91 1575 -91 
Q 1294 -91 989 -36 
Q 684 19 347 128 
L 347 722 
Q 666 556 975 473 
Q 1284 391 1588 391 
Q 1994 391 2212 530 
Q 2431 669 2431 922 
Q 2431 1156 2273 1281 
Q 2116 1406 1581 1522 
L 1381 1569 
Q 847 1681 609 1914 
Q 372 2147 372 2553 
Q 372 3047 722 3315 
Q 1072 3584 1716 3584 
Q 2034 3584 2315 3537 
Q 2597 3491 2834 3397 
z
" transform="scale(0.015625)"/>
       <path id="DejaVuSans-75" d="M 544 1381 
L 544 3500 
L 1119 3500 
L 1119 1403 
Q 1119 906 1312 657 
Q 1506 409 1894 409 
Q 2359 409 2629 706 
Q 2900 1003 2900 1516 
L 2900 3500 
L 3475 3500 
L 3475 0 
L 2900 0 
L 2900 538 
Q 2691 219 2414 64 
Q 2138 -91 1772 -91 
Q 1169 -91 856 284 
Q 544 659 544 1381 
z
M 1991 3584 
L 1991 3584 
z
" transform="scale(0.015625)"/>
       <path id="DejaVuSans-20" transform="scale(0.015625)"/>
       <path id="DejaVuSans-56" d="M 1831 0 
L 50 4666 
L 709 4666 
L 2188 738 
L 3669 4666 
L 4325 4666 
L 2547 0 
L 1831 0 
z
" transform="scale(0.015625)"/>
       <path id="DejaVuSans-61" d="M 2194 1759 
Q 1497 1759 1228 1600 
Q 959 1441 959 1056 
Q 959 750 1161 570 
Q 1363 391 1709 391 
Q 2188 391 2477 730 
Q 2766 1069 2766 1631 
L 2766 1759 
L 2194 1759 
z
M 3341 1997 
L 3341 0 
L 2766 0 
L 2766 531 
Q 2569 213 2275 61 
Q 1981 -91 1556 -91 
Q 1019 -91 701 211 
Q 384 513 384 1019 
Q 384 1609 779 1909 
Q 1175 2209 1959 2209 
L 2766 2209 
L 2766 2266 
Q 2766 2663 2505 2880 
Q 2244 3097 1772 3097 
Q 1472 3097 1187 3025 
Q 903 2953 641 2809 
L 641 3341 
Q 956 3463 1253 3523 
Q 1550 3584 1831 3584 
Q 2591 3584 2966 3190 
Q 3341 2797 3341 1997 
z
" transform="scale(0.015625)"/>
       <path id="DejaVuSans-6c" d="M 603 4863 
L 1178 4863 
L 1178 0 
L 603 0 
L 603 4863 
z
" transform="scale(0.015625)"/>
      </defs>
      <use xlink:href="#DejaVuSans-50"/>
      <use xlink:href="#DejaVuSans-72" x="58.552734"/>
      <use xlink:href="#DejaVuSans-65" x="97.416016"/>
      <use xlink:href="#DejaVuSans-73" x="158.939453"/>
      <use xlink:href="#DejaVuSans-73" x="211.039062"/>
      <use xlink:href="#DejaVuSans-75" x="263.138672"/>
      <use xlink:href="#DejaVuSans-72" x="326.517578"/>
      <use xlink:href="#DejaVuSans-65" x="365.380859"/>
      <use xlink:href="#DejaVuSans-20" x="426.904297"/>
      <use xlink:href="#DejaVuSans-56" x="458.691406"/>
      <use xlink:href="#DejaVuSans-61" x="519.349609"/>
      <use xlink:href="#DejaVuSans-6c" x="580.628906"/>
      <use xlink:href="#DejaVuSans-75" x="608.412109"/>
      <use xlink:href="#DejaVuSans-65" x="671.791016"/>
     </g>
    </g>
   </g>
   <g id="line2d_21">
    <path d="M 105.588314 254.269667 
L 109.234921 254.157668 
L 112.881531 253.895542 
L 120.174744 253.800224 
L 123.82135 254.076647 
L 127.467957 253.988478 
L 142.054386 254.293496 
L 145.700993 254.181497 
L 149.347599 254.281582 
L 152.994209 254.219625 
L 156.640812 254.405495 
L 163.934029 254.403112 
L 167.580635 254.222008 
L 174.873848 254.27205 
L 178.520458 254.186263 
L 182.167065 254.243454 
L 185.813671 254.10286 
L 193.106884 254.162434 
L 196.75349 254.069498 
L 200.400097 254.331624 
L 204.046707 254.345921 
L 207.693314 254.090945 
L 211.33992 254.138604 
L 214.986526 253.876479 
L 218.633137 253.998009 
L 222.279743 253.20925 
L 225.92635 229.293876 
L 229.572956 222.928994 
L 233.219563 221.994874 
L 236.866169 221.828067 
L 240.512775 220.884415 
L 244.159386 221.861428 
L 247.805992 226.85611 
L 251.452599 227.67823 
L 255.099205 226.999087 
L 258.745811 226.119775 
L 262.392422 226.227008 
L 266.039024 225.466845 
L 269.685635 247.275683 
L 273.332241 223.48184 
L 276.978848 41.195029 
L 280.625454 242.864826 
L 284.272064 242.104662 
L 287.918671 41.328475 
L 291.565277 245.674335 
L 295.211884 203.329158 
L 298.85849 55.814481 
L 302.505096 248.476694 
L 306.151703 161.918101 
L 309.798313 88.897097 
L 313.44492 251.431563 
L 317.091526 112.235795 
L 320.738132 125.94019 
L 324.384739 250.850121 
L 328.031349 59.91317 
L 331.677956 179.556762 
L 335.324562 245.247785 
L 338.971169 44.926742 
L 342.617775 224.94736 
L 346.264381 239.526301 
L 349.910988 38.938367 
L 353.557598 233.645159 
L 357.204205 226.477219 
L 360.850811 37.715909 
L 364.497417 238.66367 
L 368.144028 242.24764 
L 371.790634 52.220979 
L 375.437241 234.472046 
L 379.083847 220.350632 
L 382.730453 47.764846 
L 386.37706 249.220177 
L 390.023666 196.297047 
L 393.670277 53.078844 
L 397.316883 247.535425 
L 400.96349 207.55891 
L 404.610096 50.679205 
L 408.256706 250.039915 
L 411.903309 180.972239 
L 415.549915 54.127346 
L 419.196526 250.807228 
L 422.843132 186.936785 
L 426.489738 45.760778 
L 430.136345 249.703918 
L 433.782955 207.23721 
L 437.429562 53.10744 
L 441.076168 246.756198 
L 444.722775 212.062702 
L 448.369381 47.612337 
L 452.015987 247.18513 
L 455.662594 208.874303 
L 459.309204 54.913722 
L 462.955811 244.418515 
L 466.602417 194.68855 
L 470.249023 64.402664 
L 473.89563 246.84675 
L 477.54224 200.064504 
L 481.188847 65.911077 
L 484.835453 247.983422 
L 488.482059 200.150291 
L 492.128666 64.436025 
L 495.775272 246.923005 
L 499.421883 212.953928 
L 503.068489 69.890618 
L 506.715096 247.57117 
L 510.361702 218.487158 
L 514.008308 76.441371 
L 517.654919 248.131165 
L 521.301521 225.83382 
L 524.948132 78.555056 
L 528.594738 246.579859 
L 532.241344 220.434036 
L 535.887951 77.222982 
L 539.534557 248.707841 
L 543.181168 240.948927 
L 546.827774 76.632008 
L 550.47438 248.121633 
L 554.120987 246.320116 
L 557.767597 71.932814 
L 561.4142 242.693253 
L 565.060806 249.151071 
L 568.707417 77.163408 
L 572.354023 208.969621 
L 576.000629 250.900163 
L 579.647236 87.038389 
L 583.293846 153.327535 
L 586.940453 251.355308 
L 590.587059 119.317948 
L 594.233665 125.09424 
L 597.880272 252.61351 
L 601.526878 119.246459 
L 605.173485 127.722643 
L 608.820095 253.352228 
L 612.466702 135.262325 
L 616.113308 115.674404 
L 619.759914 252.758871 
L 623.406521 128.268341 
L 627.053131 126.647929 
L 630.699734 252.582532 
L 634.346344 139.291908 
L 637.99295 122.882854 
L 641.639557 253.776394 
L 645.286163 144.744118 
L 648.932774 116.880181 
L 652.57938 253.924138 
L 656.225986 176.265896 
L 659.872593 106.971839 
L 663.519199 253.807373 
L 667.16581 200.593521 
L 670.812412 95.602743 
L 674.459023 252.680233 
L 678.105629 201.367983 
L 681.752235 94.373136 
L 685.398842 252.644489 
L 689.045448 212.45589 
L 692.692059 88.677865 
L 696.338665 251.810453 
L 699.985271 207.480272 
L 703.631878 81.548052 
L 707.278488 251.42918 
L 710.925091 209.84655 
L 714.571697 77.537532 
L 718.218307 250.890631 
L 721.864914 215.327355 
L 725.51152 52.049406 
L 729.158127 246.601306 
L 732.804737 247.116025 
L 736.451344 47.44553 
L 740.09795 245.455102 
L 743.744556 244.282687 
L 747.391163 49.325684 
L 751.037769 249.906469 
L 754.684376 222.094958 
L 758.330986 46.096775 
L 761.977592 251.205182 
L 765.624199 207.239593 
L 769.270805 67.607743 
L 772.917416 251.402967 
L 776.564022 226.119775 
L 780.210625 84.119264 
L 783.857235 250.147148 
L 787.503841 213.166012 
L 791.150448 71.835112 
L 794.797054 251.734199 
L 798.443665 211.974532 
L 802.090271 77.902125 
L 805.736877 251.298117 
L 809.383484 234.162261 
L 813.03009 66.340009 
L 816.676701 250.654718 
L 820.323303 247.211343 
L 823.969913 58.621606 
L 827.61652 246.04131 
L 831.263126 250.72859 
L 834.909733 57.041704 
L 838.556339 230.41625 
L 842.20295 251.262373 
L 845.849556 77.275407 
L 849.496162 211.004668 
L 853.142769 254.331624 
L 860.435982 254.140987 
L 864.082592 253.921755 
L 867.729198 253.8455 
L 871.375805 254.191029 
L 882.315628 253.952733 
L 885.962234 254.426942 
L 889.608841 253.940818 
L 893.255447 253.821671 
L 896.902054 253.897925 
L 900.54866 254.279199 
L 904.195267 254.217242 
L 911.488483 254.407878 
L 922.428307 254.193412 
L 926.074913 254.238688 
L 929.721516 254.062349 
L 933.368126 254.231539 
L 940.661339 254.112391 
L 944.307945 254.048052 
L 947.954556 254.136221 
L 947.954556 254.136221 
" clip-path="url(#pe136fa5436)" style="fill: none; stroke: #0000ff; stroke-opacity: 0.5; stroke-width: 1.5; stroke-linecap: square"/>
   </g>
   <g id="line2d_22">
    <defs>
     <path id="m03feed8d7d" d="M 0 4 
C 1.060812 4 2.078319 3.578535 2.828427 2.828427 
C 3.578535 2.078319 4 1.060812 4 0 
C 4 -1.060812 3.578535 -2.078319 2.828427 -2.828427 
C 2.078319 -3.578535 1.060812 -4 0 -4 
C -1.060812 -4 -2.078319 -3.578535 -2.828427 -2.828427 
C -3.578535 -2.078319 -4 -1.060812 -4 0 
C -4 1.060812 -3.578535 2.078319 -2.828427 2.828427 
C -2.078319 3.578535 -1.060812 4 0 4 
z
" style="stroke: #ff0000"/>
    </defs>
    <g clip-path="url(#pe136fa5436)">
     <use xlink:href="#m03feed8d7d" x="240.512775" y="220.884415" style="fill: #ff0000; stroke: #ff0000"/>
     <use xlink:href="#m03feed8d7d" x="276.978848" y="41.195029" style="fill: #ff0000; stroke: #ff0000"/>
     <use xlink:href="#m03feed8d7d" x="287.918671" y="41.328475" style="fill: #ff0000; stroke: #ff0000"/>
     <use xlink:href="#m03feed8d7d" x="298.85849" y="55.814481" style="fill: #ff0000; stroke: #ff0000"/>
     <use xlink:href="#m03feed8d7d" x="309.798313" y="88.897097" style="fill: #ff0000; stroke: #ff0000"/>
     <use xlink:href="#m03feed8d7d" x="317.091526" y="112.235795" style="fill: #ff0000; stroke: #ff0000"/>
     <use xlink:href="#m03feed8d7d" x="328.031349" y="59.91317" style="fill: #ff0000; stroke: #ff0000"/>
     <use xlink:href="#m03feed8d7d" x="338.971169" y="44.926742" style="fill: #ff0000; stroke: #ff0000"/>
     <use xlink:href="#m03feed8d7d" x="349.910988" y="38.938367" style="fill: #ff0000; stroke: #ff0000"/>
     <use xlink:href="#m03feed8d7d" x="360.850811" y="37.715909" style="fill: #ff0000; stroke: #ff0000"/>
     <use xlink:href="#m03feed8d7d" x="371.790634" y="52.220979" style="fill: #ff0000; stroke: #ff0000"/>
     <use xlink:href="#m03feed8d7d" x="382.730453" y="47.764846" style="fill: #ff0000; stroke: #ff0000"/>
     <use xlink:href="#m03feed8d7d" x="393.670277" y="53.078844" style="fill: #ff0000; stroke: #ff0000"/>
     <use xlink:href="#m03feed8d7d" x="404.610096" y="50.679205" style="fill: #ff0000; stroke: #ff0000"/>
     <use xlink:href="#m03feed8d7d" x="415.549915" y="54.127346" style="fill: #ff0000; stroke: #ff0000"/>
     <use xlink:href="#m03feed8d7d" x="426.489738" y="45.760778" style="fill: #ff0000; stroke: #ff0000"/>
     <use xlink:href="#m03feed8d7d" x="437.429562" y="53.10744" style="fill: #ff0000; stroke: #ff0000"/>
     <use xlink:href="#m03feed8d7d" x="448.369381" y="47.612337" style="fill: #ff0000; stroke: #ff0000"/>
     <use xlink:href="#m03feed8d7d" x="459.309204" y="54.913722" style="fill: #ff0000; stroke: #ff0000"/>
     <use xlink:href="#m03feed8d7d" x="470.249023" y="64.402664" style="fill: #ff0000; stroke: #ff0000"/>
     <use xlink:href="#m03feed8d7d" x="481.188847" y="65.911077" style="fill: #ff0000; stroke: #ff0000"/>
     <use xlink:href="#m03feed8d7d" x="492.128666" y="64.436025" style="fill: #ff0000; stroke: #ff0000"/>
     <use xlink:href="#m03feed8d7d" x="503.068489" y="69.890618" style="fill: #ff0000; stroke: #ff0000"/>
     <use xlink:href="#m03feed8d7d" x="514.008308" y="76.441371" style="fill: #ff0000; stroke: #ff0000"/>
     <use xlink:href="#m03feed8d7d" x="524.948132" y="78.555056" style="fill: #ff0000; stroke: #ff0000"/>
     <use xlink:href="#m03feed8d7d" x="535.887951" y="77.222982" style="fill: #ff0000; stroke: #ff0000"/>
     <use xlink:href="#m03feed8d7d" x="546.827774" y="76.632008" style="fill: #ff0000; stroke: #ff0000"/>
     <use xlink:href="#m03feed8d7d" x="557.767597" y="71.932814" style="fill: #ff0000; stroke: #ff0000"/>
     <use xlink:href="#m03feed8d7d" x="568.707417" y="77.163408" style="fill: #ff0000; stroke: #ff0000"/>
     <use xlink:href="#m03feed8d7d" x="579.647236" y="87.038389" style="fill: #ff0000; stroke: #ff0000"/>
     <use xlink:href="#m03feed8d7d" x="590.587059" y="119.317948" style="fill: #ff0000; stroke: #ff0000"/>
     <use xlink:href="#m03feed8d7d" x="601.526878" y="119.246459" style="fill: #ff0000; stroke: #ff0000"/>
     <use xlink:href="#m03feed8d7d" x="616.113308" y="115.674404" style="fill: #ff0000; stroke: #ff0000"/>
     <use xlink:href="#m03feed8d7d" x="627.053131" y="126.647929" style="fill: #ff0000; stroke: #ff0000"/>
     <use xlink:href="#m03feed8d7d" x="637.99295" y="122.882854" style="fill: #ff0000; stroke: #ff0000"/>
     <use xlink:href="#m03feed8d7d" x="648.932774" y="116.880181" style="fill: #ff0000; stroke: #ff0000"/>
     <use xlink:href="#m03feed8d7d" x="659.872593" y="106.971839" style="fill: #ff0000; stroke: #ff0000"/>
     <use xlink:href="#m03feed8d7d" x="670.812412" y="95.602743" style="fill: #ff0000; stroke: #ff0000"/>
     <use xlink:href="#m03feed8d7d" x="681.752235" y="94.373136" style="fill: #ff0000; stroke: #ff0000"/>
     <use xlink:href="#m03feed8d7d" x="692.692059" y="88.677865" style="fill: #ff0000; stroke: #ff0000"/>
     <use xlink:href="#m03feed8d7d" x="703.631878" y="81.548052" style="fill: #ff0000; stroke: #ff0000"/>
     <use xlink:href="#m03feed8d7d" x="714.571697" y="77.537532" style="fill: #ff0000; stroke: #ff0000"/>
     <use xlink:href="#m03feed8d7d" x="725.51152" y="52.049406" style="fill: #ff0000; stroke: #ff0000"/>
     <use xlink:href="#m03feed8d7d" x="736.451344" y="47.44553" style="fill: #ff0000; stroke: #ff0000"/>
     <use xlink:href="#m03feed8d7d" x="747.391163" y="49.325684" style="fill: #ff0000; stroke: #ff0000"/>
     <use xlink:href="#m03feed8d7d" x="758.330986" y="46.096775" style="fill: #ff0000; stroke: #ff0000"/>
     <use xlink:href="#m03feed8d7d" x="769.270805" y="67.607743" style="fill: #ff0000; stroke: #ff0000"/>
     <use xlink:href="#m03feed8d7d" x="780.210625" y="84.119264" style="fill: #ff0000; stroke: #ff0000"/>
     <use xlink:href="#m03feed8d7d" x="791.150448" y="71.835112" style="fill: #ff0000; stroke: #ff0000"/>
     <use xlink:href="#m03feed8d7d" x="802.090271" y="77.902125" style="fill: #ff0000; stroke: #ff0000"/>
     <use xlink:href="#m03feed8d7d" x="813.03009" y="66.340009" style="fill: #ff0000; stroke: #ff0000"/>
     <use xlink:href="#m03feed8d7d" x="823.969913" y="58.621606" style="fill: #ff0000; stroke: #ff0000"/>
     <use xlink:href="#m03feed8d7d" x="834.909733" y="57.041704" style="fill: #ff0000; stroke: #ff0000"/>
     <use xlink:href="#m03feed8d7d" x="845.849556" y="77.275407" style="fill: #ff0000; stroke: #ff0000"/>
    </g>
   </g>
   <g id="patch_3">
    <path d="M 63.47 265.27 
L 63.47 26.88 
" style="fill: none; stroke: #000000; stroke-width: 0.8; stroke-linejoin: miter; stroke-linecap: square"/>
   </g>
   <g id="patch_4">
    <path d="M 990.072864 265.27 
L 990.072864 26.88 
" style="fill: none; stroke: #000000; stroke-width: 0.8; stroke-linejoin: miter; stroke-linecap: square"/>
   </g>
   <g id="patch_5">
    <path d="M 63.470001 265.27 
L 990.072868 265.27 
" style="fill: none; stroke: #000000; stroke-width: 0.8; stroke-linejoin: miter; stroke-linecap: square"/>
   </g>
   <g id="patch_6">
    <path d="M 63.470001 26.88 
L 990.072868 26.88 
" style="fill: none; stroke: #000000; stroke-width: 0.8; stroke-linejoin: miter; stroke-linecap: square"/>
   </g>
   <g id="text_7">
    <!-- Pressure Signal with Peaks -->
    <g transform="translate(446.90862 20.88) scale(0.12 -0.12)">
     <defs>
      <path id="DejaVuSans-53" d="M 3425 4513 
L 3425 3897 
Q 3066 4069 2747 4153 
Q 2428 4238 2131 4238 
Q 1616 4238 1336 4038 
Q 1056 3838 1056 3469 
Q 1056 3159 1242 3001 
Q 1428 2844 1947 2747 
L 2328 2669 
Q 3034 2534 3370 2195 
Q 3706 1856 3706 1288 
Q 3706 609 3251 259 
Q 2797 -91 1919 -91 
Q 1588 -91 1214 -16 
Q 841 59 441 206 
L 441 856 
Q 825 641 1194 531 
Q 1563 422 1919 422 
Q 2459 422 2753 634 
Q 3047 847 3047 1241 
Q 3047 1584 2836 1778 
Q 2625 1972 2144 2069 
L 1759 2144 
Q 1053 2284 737 2584 
Q 422 2884 422 3419 
Q 422 4038 858 4394 
Q 1294 4750 2059 4750 
Q 2388 4750 2728 4690 
Q 3069 4631 3425 4513 
z
" transform="scale(0.015625)"/>
      <path id="DejaVuSans-69" d="M 603 3500 
L 1178 3500 
L 1178 0 
L 603 0 
L 603 3500 
z
M 603 4863 
L 1178 4863 
L 1178 4134 
L 603 4134 
L 603 4863 
z
" transform="scale(0.015625)"/>
      <path id="DejaVuSans-67" d="M 2906 1791 
Q 2906 2416 2648 2759 
Q 2391 3103 1925 3103 
Q 1463 3103 1205 2759 
Q 947 2416 947 1791 
Q 947 1169 1205 825 
Q 1463 481 1925 481 
Q 2391 481 2648 825 
Q 2906 1169 2906 1791 
z
M 3481 434 
Q 3481 -459 3084 -895 
Q 2688 -1331 1869 -1331 
Q 1566 -1331 1297 -1286 
Q 1028 -1241 775 -1147 
L 775 -588 
Q 1028 -725 1275 -790 
Q 1522 -856 1778 -856 
Q 2344 -856 2625 -561 
Q 2906 -266 2906 331 
L 2906 616 
Q 2728 306 2450 153 
Q 2172 0 1784 0 
Q 1141 0 747 490 
Q 353 981 353 1791 
Q 353 2603 747 3093 
Q 1141 3584 1784 3584 
Q 2172 3584 2450 3431 
Q 2728 3278 2906 2969 
L 2906 3500 
L 3481 3500 
L 3481 434 
z
" transform="scale(0.015625)"/>
      <path id="DejaVuSans-6e" d="M 3513 2113 
L 3513 0 
L 2938 0 
L 2938 2094 
Q 2938 2591 2744 2837 
Q 2550 3084 2163 3084 
Q 1697 3084 1428 2787 
Q 1159 2491 1159 1978 
L 1159 0 
L 581 0 
L 581 3500 
L 1159 3500 
L 1159 2956 
Q 1366 3272 1645 3428 
Q 1925 3584 2291 3584 
Q 2894 3584 3203 3211 
Q 3513 2838 3513 2113 
z
" transform="scale(0.015625)"/>
      <path id="DejaVuSans-77" d="M 269 3500 
L 844 3500 
L 1563 769 
L 2278 3500 
L 2956 3500 
L 3675 769 
L 4391 3500 
L 4966 3500 
L 4050 0 
L 3372 0 
L 2619 2869 
L 1863 0 
L 1184 0 
L 269 3500 
z
" transform="scale(0.015625)"/>
      <path id="DejaVuSans-74" d="M 1172 4494 
L 1172 3500 
L 2356 3500 
L 2356 3053 
L 1172 3053 
L 1172 1153 
Q 1172 725 1289 603 
Q 1406 481 1766 481 
L 2356 481 
L 2356 0 
L 1766 0 
Q 1100 0 847 248 
Q 594 497 594 1153 
L 594 3053 
L 172 3053 
L 172 3500 
L 594 3500 
L 594 4494 
L 1172 4494 
z
" transform="scale(0.015625)"/>
      <path id="DejaVuSans-68" d="M 3513 2113 
L 3513 0 
L 2938 0 
L 2938 2094 
Q 2938 2591 2744 2837 
Q 2550 3084 2163 3084 
Q 1697 3084 1428 2787 
Q 1159 2491 1159 1978 
L 1159 0 
L 581 0 
L 581 4863 
L 1159 4863 
L 1159 2956 
Q 1366 3272 1645 3428 
Q 1925 3584 2291 3584 
Q 2894 3584 3203 3211 
Q 3513 2838 3513 2113 
z
" transform="scale(0.015625)"/>
      <path id="DejaVuSans-6b" d="M 581 4863 
L 1159 4863 
L 1159 1991 
L 2875 3500 
L 3609 3500 
L 1753 1863 
L 3688 0 
L 2938 0 
L 1159 1709 
L 1159 0 
L 581 0 
L 581 4863 
z
" transform="scale(0.015625)"/>
     </defs>
     <use xlink:href="#DejaVuSans-50"/>
     <use xlink:href="#DejaVuSans-72" x="58.552734"/>
     <use xlink:href="#DejaVuSans-65" x="97.416016"/>
     <use xlink:href="#DejaVuSans-73" x="158.939453"/>
     <use xlink:href="#DejaVuSans-73" x="211.039062"/>
     <use xlink:href="#DejaVuSans-75" x="263.138672"/>
     <use xlink:href="#DejaVuSans-72" x="326.517578"/>
     <use xlink:href="#DejaVuSans-65" x="365.380859"/>
     <use xlink:href="#DejaVuSans-20" x="426.904297"/>
     <use xlink:href="#DejaVuSans-53" x="458.691406"/>
     <use xlink:href="#DejaVuSans-69" x="522.167969"/>
     <use xlink:href="#DejaVuSans-67" x="549.951172"/>
     <use xlink:href="#DejaVuSans-6e" x="613.427734"/>
     <use xlink:href="#DejaVuSans-61" x="676.806641"/>
     <use xlink:href="#DejaVuSans-6c" x="738.085938"/>
     <use xlink:href="#DejaVuSans-20" x="765.869141"/>
     <use xlink:href="#DejaVuSans-77" x="797.65625"/>
     <use xlink:href="#DejaVuSans-69" x="879.443359"/>
     <use xlink:href="#DejaVuSans-74" x="907.226562"/>
     <use xlink:href="#DejaVuSans-68" x="946.435547"/>
     <use xlink:href="#DejaVuSans-20" x="1009.814453"/>
     <use xlink:href="#DejaVuSans-50" x="1041.601562"/>
     <use xlink:href="#DejaVuSans-65" x="1098.279297"/>
     <use xlink:href="#DejaVuSans-61" x="1159.802734"/>
     <use xlink:href="#DejaVuSans-6b" x="1221.082031"/>
     <use xlink:href="#DejaVuSans-73" x="1278.992188"/>
    </g>
   </g>
   <g id="legend_1">
    <g id="patch_7">
     <path d="M 876.257239 64.23625 
L 983.072864 64.23625 
Q 985.072864 64.23625 985.072864 62.23625 
L 985.072864 33.88 
Q 985.072864 31.88 983.072864 31.88 
L 876.257239 31.88 
Q 874.257239 31.88 874.257239 33.88 
L 874.257239 62.23625 
Q 874.257239 64.23625 876.257239 64.23625 
z
" style="fill: #ffffff; opacity: 0.8; stroke: #cccccc; stroke-linejoin: miter"/>
    </g>
    <g id="line2d_23">
     <path d="M 878.257239 39.978437 
L 888.257239 39.978437 
L 898.257239 39.978437 
" style="fill: none; stroke: #0000ff; stroke-opacity: 0.5; stroke-width: 1.5; stroke-linecap: square"/>
    </g>
    <g id="text_8">
     <!-- Pressure -->
     <g transform="translate(906.257239 43.478437) scale(0.1 -0.1)">
      <use xlink:href="#DejaVuSans-50"/>
      <use xlink:href="#DejaVuSans-72" x="58.552734"/>
      <use xlink:href="#DejaVuSans-65" x="97.416016"/>
      <use xlink:href="#DejaVuSans-73" x="158.939453"/>
      <use xlink:href="#DejaVuSans-73" x="211.039062"/>
      <use xlink:href="#DejaVuSans-75" x="263.138672"/>
      <use xlink:href="#DejaVuSans-72" x="326.517578"/>
      <use xlink:href="#DejaVuSans-65" x="365.380859"/>
     </g>
    </g>
    <g id="line2d_24">
     <g>
      <use xlink:href="#m03feed8d7d" x="888.257239" y="54.656562" style="fill: #ff0000; stroke: #ff0000"/>
     </g>
    </g>
    <g id="text_9">
     <!-- Pressure Peaks -->
     <g transform="translate(906.257239 58.156562) scale(0.1 -0.1)">
      <use xlink:href="#DejaVuSans-50"/>
      <use xlink:href="#DejaVuSans-72" x="58.552734"/>
      <use xlink:href="#DejaVuSans-65" x="97.416016"/>
      <use xlink:href="#DejaVuSans-73" x="158.939453"/>
      <use xlink:href="#DejaVuSans-73" x="211.039062"/>
      <use xlink:href="#DejaVuSans-75" x="263.138672"/>
      <use xlink:href="#DejaVuSans-72" x="326.517578"/>
      <use xlink:href="#DejaVuSans-65" x="365.380859"/>
      <use xlink:href="#DejaVuSans-20" x="426.904297"/>
      <use xlink:href="#DejaVuSans-50" x="458.691406"/>
      <use xlink:href="#DejaVuSans-65" x="515.369141"/>
      <use xlink:href="#DejaVuSans-61" x="576.892578"/>
      <use xlink:href="#DejaVuSans-6b" x="638.171875"/>
      <use xlink:href="#DejaVuSans-73" x="696.082031"/>
     </g>
    </g>
   </g>
  </g>
  <g id="axes_2">
   <g id="patch_8">
    <path d="M 63.47 534.04 
L 990.072864 534.04 
L 990.072864 295.65 
L 63.47 295.65 
z
" style="fill: #ffffff"/>
   </g>
   <g id="matplotlib.axis_3">
    <g id="xtick_6">
     <g id="line2d_25">
      <path d="M 176.960518 534.04 
L 176.960518 295.65 
" clip-path="url(#pb592c94a08)" style="fill: none; stroke: #b0b0b0; stroke-width: 0.8; stroke-linecap: square"/>
     </g>
     <g id="line2d_26">
      <g>
       <use xlink:href="#m367dbd909c" x="176.960518" y="534.04" style="stroke: #000000; stroke-width: 0.8"/>
      </g>
     </g>
     <g id="text_10">
      <!-- 460 -->
      <g transform="translate(167.416768 548.638438) scale(0.1 -0.1)">
       <use xlink:href="#DejaVuSans-34"/>
       <use xlink:href="#DejaVuSans-36" x="63.623047"/>
       <use xlink:href="#DejaVuSans-30" x="127.246094"/>
      </g>
     </g>
    </g>
    <g id="xtick_7">
     <g id="line2d_27">
      <path d="M 379.549801 534.04 
L 379.549801 295.65 
" clip-path="url(#pb592c94a08)" style="fill: none; stroke: #b0b0b0; stroke-width: 0.8; stroke-linecap: square"/>
     </g>
     <g id="line2d_28">
      <g>
       <use xlink:href="#m367dbd909c" x="379.549801" y="534.04" style="stroke: #000000; stroke-width: 0.8"/>
      </g>
     </g>
     <g id="text_11">
      <!-- 480 -->
      <g transform="translate(370.006051 548.638438) scale(0.1 -0.1)">
       <use xlink:href="#DejaVuSans-34"/>
       <use xlink:href="#DejaVuSans-38" x="63.623047"/>
       <use xlink:href="#DejaVuSans-30" x="127.246094"/>
      </g>
     </g>
    </g>
    <g id="xtick_8">
     <g id="line2d_29">
      <path d="M 582.139084 534.04 
L 582.139084 295.65 
" clip-path="url(#pb592c94a08)" style="fill: none; stroke: #b0b0b0; stroke-width: 0.8; stroke-linecap: square"/>
     </g>
     <g id="line2d_30">
      <g>
       <use xlink:href="#m367dbd909c" x="582.139084" y="534.04" style="stroke: #000000; stroke-width: 0.8"/>
      </g>
     </g>
     <g id="text_12">
      <!-- 500 -->
      <g transform="translate(572.595334 548.638438) scale(0.1 -0.1)">
       <defs>
        <path id="DejaVuSans-35" d="M 691 4666 
L 3169 4666 
L 3169 4134 
L 1269 4134 
L 1269 2991 
Q 1406 3038 1543 3061 
Q 1681 3084 1819 3084 
Q 2600 3084 3056 2656 
Q 3513 2228 3513 1497 
Q 3513 744 3044 326 
Q 2575 -91 1722 -91 
Q 1428 -91 1123 -41 
Q 819 9 494 109 
L 494 744 
Q 775 591 1075 516 
Q 1375 441 1709 441 
Q 2250 441 2565 725 
Q 2881 1009 2881 1497 
Q 2881 1984 2565 2268 
Q 2250 2553 1709 2553 
Q 1456 2553 1204 2497 
Q 953 2441 691 2322 
L 691 4666 
z
" transform="scale(0.015625)"/>
       </defs>
       <use xlink:href="#DejaVuSans-35"/>
       <use xlink:href="#DejaVuSans-30" x="63.623047"/>
       <use xlink:href="#DejaVuSans-30" x="127.246094"/>
      </g>
     </g>
    </g>
    <g id="xtick_9">
     <g id="line2d_31">
      <path d="M 784.728367 534.04 
L 784.728367 295.65 
" clip-path="url(#pb592c94a08)" style="fill: none; stroke: #b0b0b0; stroke-width: 0.8; stroke-linecap: square"/>
     </g>
     <g id="line2d_32">
      <g>
       <use xlink:href="#m367dbd909c" x="784.728367" y="534.04" style="stroke: #000000; stroke-width: 0.8"/>
      </g>
     </g>
     <g id="text_13">
      <!-- 520 -->
      <g transform="translate(775.184617 548.638438) scale(0.1 -0.1)">
       <use xlink:href="#DejaVuSans-35"/>
       <use xlink:href="#DejaVuSans-32" x="63.623047"/>
       <use xlink:href="#DejaVuSans-30" x="127.246094"/>
      </g>
     </g>
    </g>
    <g id="xtick_10">
     <g id="line2d_33">
      <path d="M 987.31765 534.04 
L 987.31765 295.65 
" clip-path="url(#pb592c94a08)" style="fill: none; stroke: #b0b0b0; stroke-width: 0.8; stroke-linecap: square"/>
     </g>
     <g id="line2d_34">
      <g>
       <use xlink:href="#m367dbd909c" x="987.31765" y="534.04" style="stroke: #000000; stroke-width: 0.8"/>
      </g>
     </g>
     <g id="text_14">
      <!-- 540 -->
      <g transform="translate(977.7739 548.638438) scale(0.1 -0.1)">
       <use xlink:href="#DejaVuSans-35"/>
       <use xlink:href="#DejaVuSans-34" x="63.623047"/>
       <use xlink:href="#DejaVuSans-30" x="127.246094"/>
      </g>
     </g>
    </g>
    <g id="text_15">
     <!-- Time (s) -->
     <g transform="translate(506.442526 562.316562) scale(0.1 -0.1)">
      <defs>
       <path id="DejaVuSans-54" d="M -19 4666 
L 3928 4666 
L 3928 4134 
L 2272 4134 
L 2272 0 
L 1638 0 
L 1638 4134 
L -19 4134 
L -19 4666 
z
" transform="scale(0.015625)"/>
       <path id="DejaVuSans-6d" d="M 3328 2828 
Q 3544 3216 3844 3400 
Q 4144 3584 4550 3584 
Q 5097 3584 5394 3201 
Q 5691 2819 5691 2113 
L 5691 0 
L 5113 0 
L 5113 2094 
Q 5113 2597 4934 2840 
Q 4756 3084 4391 3084 
Q 3944 3084 3684 2787 
Q 3425 2491 3425 1978 
L 3425 0 
L 2847 0 
L 2847 2094 
Q 2847 2600 2669 2842 
Q 2491 3084 2119 3084 
Q 1678 3084 1418 2786 
Q 1159 2488 1159 1978 
L 1159 0 
L 581 0 
L 581 3500 
L 1159 3500 
L 1159 2956 
Q 1356 3278 1631 3431 
Q 1906 3584 2284 3584 
Q 2666 3584 2933 3390 
Q 3200 3197 3328 2828 
z
" transform="scale(0.015625)"/>
       <path id="DejaVuSans-28" d="M 1984 4856 
Q 1566 4138 1362 3434 
Q 1159 2731 1159 2009 
Q 1159 1288 1364 580 
Q 1569 -128 1984 -844 
L 1484 -844 
Q 1016 -109 783 600 
Q 550 1309 550 2009 
Q 550 2706 781 3412 
Q 1013 4119 1484 4856 
L 1984 4856 
z
" transform="scale(0.015625)"/>
       <path id="DejaVuSans-29" d="M 513 4856 
L 1013 4856 
Q 1481 4119 1714 3412 
Q 1947 2706 1947 2009 
Q 1947 1309 1714 600 
Q 1481 -109 1013 -844 
L 513 -844 
Q 928 -128 1133 580 
Q 1338 1288 1338 2009 
Q 1338 2731 1133 3434 
Q 928 4138 513 4856 
z
" transform="scale(0.015625)"/>
      </defs>
      <use xlink:href="#DejaVuSans-54"/>
      <use xlink:href="#DejaVuSans-69" x="57.958984"/>
      <use xlink:href="#DejaVuSans-6d" x="85.742188"/>
      <use xlink:href="#DejaVuSans-65" x="183.154297"/>
      <use xlink:href="#DejaVuSans-20" x="244.677734"/>
      <use xlink:href="#DejaVuSans-28" x="276.464844"/>
      <use xlink:href="#DejaVuSans-73" x="315.478516"/>
      <use xlink:href="#DejaVuSans-29" x="367.578125"/>
     </g>
    </g>
    <g id="text_16">
     <!-- +1.764595e9 -->
     <g transform="translate(921.461927 561.316562) scale(0.1 -0.1)">
      <defs>
       <path id="DejaVuSans-2b" d="M 2944 4013 
L 2944 2272 
L 4684 2272 
L 4684 1741 
L 2944 1741 
L 2944 0 
L 2419 0 
L 2419 1741 
L 678 1741 
L 678 2272 
L 2419 2272 
L 2419 4013 
L 2944 4013 
z
" transform="scale(0.015625)"/>
       <path id="DejaVuSans-31" d="M 794 531 
L 1825 531 
L 1825 4091 
L 703 3866 
L 703 4441 
L 1819 4666 
L 2450 4666 
L 2450 531 
L 3481 531 
L 3481 0 
L 794 0 
L 794 531 
z
" transform="scale(0.015625)"/>
       <path id="DejaVuSans-2e" d="M 684 794 
L 1344 794 
L 1344 0 
L 684 0 
L 684 794 
z
" transform="scale(0.015625)"/>
       <path id="DejaVuSans-37" d="M 525 4666 
L 3525 4666 
L 3525 4397 
L 1831 0 
L 1172 0 
L 2766 4134 
L 525 4134 
L 525 4666 
z
" transform="scale(0.015625)"/>
       <path id="DejaVuSans-39" d="M 703 97 
L 703 672 
Q 941 559 1184 500 
Q 1428 441 1663 441 
Q 2288 441 2617 861 
Q 2947 1281 2994 2138 
Q 2813 1869 2534 1725 
Q 2256 1581 1919 1581 
Q 1219 1581 811 2004 
Q 403 2428 403 3163 
Q 403 3881 828 4315 
Q 1253 4750 1959 4750 
Q 2769 4750 3195 4129 
Q 3622 3509 3622 2328 
Q 3622 1225 3098 567 
Q 2575 -91 1691 -91 
Q 1453 -91 1209 -44 
Q 966 3 703 97 
z
M 1959 2075 
Q 2384 2075 2632 2365 
Q 2881 2656 2881 3163 
Q 2881 3666 2632 3958 
Q 2384 4250 1959 4250 
Q 1534 4250 1286 3958 
Q 1038 3666 1038 3163 
Q 1038 2656 1286 2365 
Q 1534 2075 1959 2075 
z
" transform="scale(0.015625)"/>
      </defs>
      <use xlink:href="#DejaVuSans-2b"/>
      <use xlink:href="#DejaVuSans-31" x="83.789062"/>
      <use xlink:href="#DejaVuSans-2e" x="147.412109"/>
      <use xlink:href="#DejaVuSans-37" x="179.199219"/>
      <use xlink:href="#DejaVuSans-36" x="242.822266"/>
      <use xlink:href="#DejaVuSans-34" x="306.445312"/>
      <use xlink:href="#DejaVuSans-35" x="370.068359"/>
      <use xlink:href="#DejaVuSans-39" x="433.691406"/>
      <use xlink:href="#DejaVuSans-35" x="497.314453"/>
      <use xlink:href="#DejaVuSans-65" x="560.9375"/>
      <use xlink:href="#DejaVuSans-39" x="622.460938"/>
     </g>
    </g>
   </g>
   <g id="matplotlib.axis_4">
    <g id="ytick_6">
     <g id="line2d_35">
      <path d="M 63.47 495.41317 
L 990.072864 495.41317 
" clip-path="url(#pb592c94a08)" style="fill: none; stroke: #b0b0b0; stroke-width: 0.8; stroke-linecap: square"/>
     </g>
     <g id="line2d_36">
      <g>
       <use xlink:href="#m0999ba930b" x="63.47" y="495.41317" style="stroke: #000000; stroke-width: 0.8"/>
      </g>
     </g>
     <g id="text_17">
      <!-- −50 -->
      <g transform="translate(35.365313 499.212388) scale(0.1 -0.1)">
       <defs>
        <path id="DejaVuSans-2212" d="M 678 2272 
L 4684 2272 
L 4684 1741 
L 678 1741 
L 678 2272 
z
" transform="scale(0.015625)"/>
       </defs>
       <use xlink:href="#DejaVuSans-2212"/>
       <use xlink:href="#DejaVuSans-35" x="83.789062"/>
       <use xlink:href="#DejaVuSans-30" x="147.412109"/>
      </g>
     </g>
    </g>
    <g id="ytick_7">
     <g id="line2d_37">
      <path d="M 63.47 452.579854 
L 990.072864 452.579854 
" clip-path="url(#pb592c94a08)" style="fill: none; stroke: #b0b0b0; stroke-width: 0.8; stroke-linecap: square"/>
     </g>
     <g id="line2d_38">
      <g>
       <use xlink:href="#m0999ba930b" x="63.47" y="452.579854" style="stroke: #000000; stroke-width: 0.8"/>
      </g>
     </g>
     <g id="text_18">
      <!-- 0 -->
      <g transform="translate(50.1075 456.379073) scale(0.1 -0.1)">
       <use xlink:href="#DejaVuSans-30"/>
      </g>
     </g>
    </g>
    <g id="ytick_8">
     <g id="line2d_39">
      <path d="M 63.47 409.746538 
L 990.072864 409.746538 
" clip-path="url(#pb592c94a08)" style="fill: none; stroke: #b0b0b0; stroke-width: 0.8; stroke-linecap: square"/>
     </g>
     <g id="line2d_40">
      <g>
       <use xlink:href="#m0999ba930b" x="63.47" y="409.746538" style="stroke: #000000; stroke-width: 0.8"/>
      </g>
     </g>
     <g id="text_19">
      <!-- 50 -->
      <g transform="translate(43.745 413.545757) scale(0.1 -0.1)">
       <use xlink:href="#DejaVuSans-35"/>
       <use xlink:href="#DejaVuSans-30" x="63.623047"/>
      </g>
     </g>
    </g>
    <g id="ytick_9">
     <g id="line2d_41">
      <path d="M 63.47 366.913223 
L 990.072864 366.913223 
" clip-path="url(#pb592c94a08)" style="fill: none; stroke: #b0b0b0; stroke-width: 0.8; stroke-linecap: square"/>
     </g>
     <g id="line2d_42">
      <g>
       <use xlink:href="#m0999ba930b" x="63.47" y="366.913223" style="stroke: #000000; stroke-width: 0.8"/>
      </g>
     </g>
     <g id="text_20">
      <!-- 100 -->
      <g transform="translate(37.3825 370.712442) scale(0.1 -0.1)">
       <use xlink:href="#DejaVuSans-31"/>
       <use xlink:href="#DejaVuSans-30" x="63.623047"/>
       <use xlink:href="#DejaVuSans-30" x="127.246094"/>
      </g>
     </g>
    </g>
    <g id="ytick_10">
     <g id="line2d_43">
      <path d="M 63.47 324.079907 
L 990.072864 324.079907 
" clip-path="url(#pb592c94a08)" style="fill: none; stroke: #b0b0b0; stroke-width: 0.8; stroke-linecap: square"/>
     </g>
     <g id="line2d_44">
      <g>
       <use xlink:href="#m0999ba930b" x="63.47" y="324.079907" style="stroke: #000000; stroke-width: 0.8"/>
      </g>
     </g>
     <g id="text_21">
      <!-- 150 -->
      <g transform="translate(37.3825 327.879126) scale(0.1 -0.1)">
       <use xlink:href="#DejaVuSans-31"/>
       <use xlink:href="#DejaVuSans-35" x="63.623047"/>
       <use xlink:href="#DejaVuSans-30" x="127.246094"/>
      </g>
     </g>
    </g>
    <g id="text_22">
     <!-- Vision Depth (mm) -->
     <g transform="translate(29.285625 461.81375) rotate(-90) scale(0.1 -0.1)">
      <defs>
       <path id="DejaVuSans-6f" d="M 1959 3097 
Q 1497 3097 1228 2736 
Q 959 2375 959 1747 
Q 959 1119 1226 758 
Q 1494 397 1959 397 
Q 2419 397 2687 759 
Q 2956 1122 2956 1747 
Q 2956 2369 2687 2733 
Q 2419 3097 1959 3097 
z
M 1959 3584 
Q 2709 3584 3137 3096 
Q 3566 2609 3566 1747 
Q 3566 888 3137 398 
Q 2709 -91 1959 -91 
Q 1206 -91 779 398 
Q 353 888 353 1747 
Q 353 2609 779 3096 
Q 1206 3584 1959 3584 
z
" transform="scale(0.015625)"/>
       <path id="DejaVuSans-44" d="M 1259 4147 
L 1259 519 
L 2022 519 
Q 2988 519 3436 956 
Q 3884 1394 3884 2338 
Q 3884 3275 3436 3711 
Q 2988 4147 2022 4147 
L 1259 4147 
z
M 628 4666 
L 1925 4666 
Q 3281 4666 3915 4102 
Q 4550 3538 4550 2338 
Q 4550 1131 3912 565 
Q 3275 0 1925 0 
L 628 0 
L 628 4666 
z
" transform="scale(0.015625)"/>
       <path id="DejaVuSans-70" d="M 1159 525 
L 1159 -1331 
L 581 -1331 
L 581 3500 
L 1159 3500 
L 1159 2969 
Q 1341 3281 1617 3432 
Q 1894 3584 2278 3584 
Q 2916 3584 3314 3078 
Q 3713 2572 3713 1747 
Q 3713 922 3314 415 
Q 2916 -91 2278 -91 
Q 1894 -91 1617 61 
Q 1341 213 1159 525 
z
M 3116 1747 
Q 3116 2381 2855 2742 
Q 2594 3103 2138 3103 
Q 1681 3103 1420 2742 
Q 1159 2381 1159 1747 
Q 1159 1113 1420 752 
Q 1681 391 2138 391 
Q 2594 391 2855 752 
Q 3116 1113 3116 1747 
z
" transform="scale(0.015625)"/>
      </defs>
      <use xlink:href="#DejaVuSans-56"/>
      <use xlink:href="#DejaVuSans-69" x="66.158203"/>
      <use xlink:href="#DejaVuSans-73" x="93.941406"/>
      <use xlink:href="#DejaVuSans-69" x="146.041016"/>
      <use xlink:href="#DejaVuSans-6f" x="173.824219"/>
      <use xlink:href="#DejaVuSans-6e" x="235.005859"/>
      <use xlink:href="#DejaVuSans-20" x="298.384766"/>
      <use xlink:href="#DejaVuSans-44" x="330.171875"/>
      <use xlink:href="#DejaVuSans-65" x="407.173828"/>
      <use xlink:href="#DejaVuSans-70" x="468.697266"/>
      <use xlink:href="#DejaVuSans-74" x="532.173828"/>
      <use xlink:href="#DejaVuSans-68" x="571.382812"/>
      <use xlink:href="#DejaVuSans-20" x="634.761719"/>
      <use xlink:href="#DejaVuSans-28" x="666.548828"/>
      <use xlink:href="#DejaVuSans-6d" x="705.5625"/>
      <use xlink:href="#DejaVuSans-6d" x="802.974609"/>
      <use xlink:href="#DejaVuSans-29" x="900.386719"/>
     </g>
    </g>
   </g>
   <g id="line2d_45">
    <path d="M 256.12228 452.585449 
L 257.246655 452.70857 
L 257.742996 452.529989 
L 258.057011 452.794973 
L 258.543221 452.562799 
L 258.95853 452.647058 
L 259.35358 452.505673 
L 259.738499 452.720051 
L 260.224716 452.627163 
L 260.629894 452.894765 
L 260.923649 452.612515 
L 261.197144 452.707318 
L 262.179703 452.687847 
L 262.544361 452.789253 
L 262.858376 452.649056 
L 263.172386 452.69401 
L 263.861191 452.577611 
L 264.144817 452.792827 
L 264.620903 452.760459 
L 264.934914 452.886296 
L 265.289448 452.744003 
L 266.53537 453.587525 
L 267.396374 455.348472 
L 267.68 455.490283 
L 268.05479 455.832806 
L 269.250069 455.753985 
L 269.665375 455.365646 
L 270.009777 454.433937 
L 270.66819 449.387668 
L 271.022724 446.233143 
L 272.835896 413.275277 
L 273.463924 406.471316 
L 273.940006 405.407508 
L 274.375576 405.332473 
L 274.659199 406.224389 
L 274.932697 408.357697 
L 275.510078 417.531631 
L 276.583801 437.720324 
L 277.242214 447.091281 
L 277.870239 451.371068 
L 278.478008 453.043308 
L 278.822411 453.312712 
L 279.703674 453.54659 
L 279.997429 453.528073 
L 280.260796 453.254027 
L 280.584938 452.631968 
L 280.959728 450.947263 
L 281.648533 445.436385 
L 282.023319 441.488396 
L 282.337337 436.311956 
L 282.843807 430.029333 
L 283.431316 415.780852 
L 283.968178 403.341364 
L 284.3531 400.956575 
L 284.656982 400.015139 
L 285.153324 400.325162 
L 285.517986 401.773078 
L 286.237179 408.911813 
L 288.810062 445.933802 
L 289.154465 448.129494 
L 289.650806 449.852441 
L 290.106636 451.889612 
L 290.420647 452.501965 
L 290.704273 452.486127 
L 291.160099 452.027599 
L 291.565277 451.363835 
L 291.8489 449.850499 
L 292.416153 442.952899 
L 292.790939 438.210544 
L 293.753239 414.069304 
L 294.158417 407.401952 
L 294.634506 403.217715 
L 295.049812 401.240954 
L 295.333439 400.703877 
L 295.698097 401.366638 
L 296.072887 403.445909 
L 297.592308 422.903161 
L 299.061077 439.942744 
L 300.225967 449.522953 
L 300.539982 451.177801 
L 300.853996 451.654042 
L 301.198399 451.700356 
L 301.482021 451.442388 
L 301.745388 450.910114 
L 302.029011 449.756264 
L 302.322765 447.184865 
L 304.014389 425.841393 
L 304.389179 419.164458 
L 305.391994 406.709758 
L 305.776917 403.343213 
L 306.182095 402.415723 
L 306.688564 404.410622 
L 307.590088 412.515648 
L 308.096561 420.349807 
L 308.684071 433.049563 
L 309.018341 438.108 
L 309.352615 445.033854 
L 309.676758 449.366525 
L 310.142715 452.321792 
L 310.517502 453.673578 
L 310.831516 453.657594 
L 311.743168 451.649594 
L 312.117958 450.118965 
L 312.421841 447.683896 
L 312.989094 440.224343 
L 314.690842 407.694614 
L 315.146667 403.529127 
L 315.53159 401.407094 
L 315.875992 401.312311 
L 316.230522 402.150091 
L 316.595184 404.455358 
L 317.658775 419.548149 
L 318.296932 432.989437 
L 318.752758 438.55649 
L 319.887257 448.801577 
L 320.616577 451.336448 
L 321.315514 452.070509 
L 321.639656 451.683145 
L 322.054962 450.040994 
L 322.551308 447.420505 
L 323.047649 444.149274 
L 323.776974 434.987408 
L 324.739273 414.956015 
L 325.002636 408.428492 
L 325.35717 403.460119 
L 325.762348 400.864214 
L 326.066231 400.140966 
L 326.380245 400.538785 
L 327.00827 406.82922 
L 328.19342 424.458246 
L 328.487175 431.314526 
L 329.175976 441.95379 
L 329.581154 445.266396 
L 330.695396 450.455315 
L 331.141094 450.829581 
L 331.617176 451.082495 
L 331.99197 450.851885 
L 332.275593 450.325792 
L 332.589607 449.3759 
L 332.954269 447.264017 
L 334.088768 436.385073 
L 336.043755 404.219178 
L 336.327377 403.291963 
L 336.631264 403.153595 
L 336.955406 404.938717 
L 337.563175 412.71686 
L 338.717934 440.251906 
L 339.315571 446.940669 
L 339.619457 448.60597 
L 340.034763 450.167226 
L 340.834991 451.287711 
L 341.695995 451.120448 
L 342.020138 450.586631 
L 342.405056 448.870938 
L 342.820366 446.130665 
L 343.509167 438.443869 
L 343.873829 434.026573 
L 344.552505 421.805977 
L 344.927296 414.934012 
L 345.899723 404.896409 
L 346.355549 401.93854 
L 346.780987 401.010235 
L 347.236813 401.088088 
L 347.804062 402.150964 
L 348.16872 405.116702 
L 348.867653 413.524991 
L 349.860344 431.127467 
L 350.873287 443.616253 
L 351.491188 447.986271 
L 352.261024 450.44293 
L 352.615559 451.121012 
L 352.959957 451.483526 
L 353.243584 451.570601 
L 353.517078 451.500734 
L 353.831093 451.056831 
L 354.134975 449.610728 
L 356.029186 430.279405 
L 356.322941 420.882127 
L 356.738247 412.491021 
L 357.508087 402.823143 
L 357.923397 401.492307 
L 358.217152 401.078566 
L 358.500774 401.872786 
L 358.895824 403.501667 
L 359.250355 406.694741 
L 360.496281 422.402436 
L 361.306637 434.444116 
L 362.40062 447.144502 
L 363.018517 451.1348 
L 363.362919 451.961365 
L 363.737709 452.496594 
L 364.092239 452.471652 
L 364.608845 452.1981 
L 365.034279 451.655412 
L 365.439461 450.708952 
L 365.915543 448.620233 
L 366.280205 445.690605 
L 367.313412 426.531495 
L 367.617294 416.659879 
L 367.981953 409.508355 
L 368.397263 405.186067 
L 368.721405 403.234289 
L 369.01516 402.648391 
L 369.359562 402.849026 
L 370.15979 407.371825 
L 371.496876 420.710878 
L 371.932446 426.710333 
L 372.925133 437.029467 
L 373.755749 445.782604 
L 374.434422 449.514601 
L 374.718048 450.37455 
L 375.052319 450.348948 
L 375.346073 449.383392 
L 376.743942 430.074206 
L 377.098473 423.868556 
L 377.564426 417.70875 
L 377.858181 411.795848 
L 378.810352 402.192756 
L 379.114235 401.927748 
L 379.651096 403.672117 
L 380.046146 407.76364 
L 382.021393 441.22847 
L 382.375923 444.600757 
L 383.145763 448.674921 
L 383.9156 450.716124 
L 384.189095 450.990452 
L 384.908291 450.769486 
L 385.212173 450.486403 
L 385.678127 449.771886 
L 386.214989 447.57295 
L 386.640427 445.052244 
L 388.058552 427.137289 
L 389.60836 402.351135 
L 389.871727 401.789936 
L 390.276905 402.013038 
L 390.722599 402.932826 
L 390.996098 405.018691 
L 392.049561 417.419498 
L 393.052376 434.89121 
L 393.629757 443.162109 
L 394.004547 446.251522 
L 394.369209 447.962632 
L 395.625259 450.806768 
L 395.908886 450.785665 
L 396.597691 450.004534 
L 396.982609 449.187706 
L 397.306751 447.23478 
L 397.661285 444.092718 
L 398.826172 429.267769 
L 399.474457 417.239945 
L 400.446888 407.124941 
L 400.933102 403.914821 
L 401.388927 402.165416 
L 401.875141 401.912778 
L 402.361355 402.481602 
L 402.958996 404.421351 
L 403.465469 407.706616 
L 404.225178 422.3944 
L 404.559452 431.791377 
L 404.94437 438.219137 
L 405.400196 443.251282 
L 406.149773 448.287654 
L 406.494179 449.356481 
L 407.243755 450.48514 
L 407.679325 450.237904 
L 408.145279 449.51925 
L 408.449162 447.726096 
L 409.148094 440.443049 
L 409.462112 435.724059 
L 409.755867 427.360767 
L 410.515572 412.833592 
L 411.072693 402.312028 
L 411.396839 399.745929 
L 411.73111 399.063407 
L 412.055252 399.87191 
L 412.328751 401.226112 
L 413.422729 412.714715 
L 413.787392 418.349125 
L 414.081146 427.701161 
L 414.780079 439.333165 
L 415.347328 445.651509 
L 415.914577 449.357389 
L 416.198204 450.488444 
L 416.502087 451.210964 
L 416.765453 451.293853 
L 417.40361 451.101889 
L 417.737881 450.688017 
L 418.163319 449.756119 
L 418.588757 447.861196 
L 419.034454 444.769116 
L 420.098049 430.569273 
L 421.475655 408.017339 
L 422.204975 400.199697 
L 422.630413 399.07631 
L 423.045719 398.912107 
L 423.531937 399.824802 
L 423.957375 402.447861 
L 424.301773 406.443141 
L 425.75029 429.283144 
L 426.773365 442.446357 
L 427.917995 449.246182 
L 428.525761 450.977257 
L 428.799255 451.478819 
L 429.143658 451.509905 
L 429.90337 450.507714 
L 430.227512 449.527007 
L 430.602303 447.645323 
L 430.987221 444.536391 
L 432.425606 426.138951 
L 432.759876 417.27206 
L 433.165054 410.467418 
L 434.01593 402.464991 
L 434.350204 401.693043 
L 434.623699 401.788513 
L 434.887066 402.582415 
L 435.241596 404.53 
L 436.558426 415.134641 
L 438.108234 443.540511 
L 438.412121 446.607012 
L 438.716003 448.374921 
L 439.13131 449.690563 
L 439.799854 450.800494 
L 440.23542 450.94384 
L 440.964745 450.047468 
L 441.400311 449.263038 
L 442.028336 443.878376 
L 443.061543 428.688085 
L 444.104877 410.744218 
L 444.479668 406.430699 
L 444.894974 403.234151 
L 445.19886 402.088255 
L 445.523003 402.184801 
L 446.019348 402.909734 
L 446.485302 404.544485 
L 446.758797 409.409175 
L 447.184235 414.600823 
L 447.447601 419.775698 
L 448.987278 440.262698 
L 449.554527 446.628101 
L 449.878674 448.666127 
L 450.152168 449.596061 
L 450.496567 450.180977 
L 450.770065 450.069132 
L 451.165112 450.027743 
L 451.489258 449.769169 
L 451.894436 448.773587 
L 452.248966 446.989789 
L 452.603497 444.103508 
L 452.998547 439.847358 
L 454.295116 417.403825 
L 454.882626 406.433778 
L 455.176384 402.535163 
L 455.520782 400.816797 
L 455.804409 400.762703 
L 456.118423 401.567325 
L 456.543861 403.202732 
L 456.949039 406.089696 
L 458.083538 420.439139 
L 459.167389 436.475863 
L 459.582699 440.200598 
L 461.112247 448.557672 
L 461.426262 449.475432 
L 461.79092 450.145109 
L 462.074547 450.212396 
L 462.388561 449.792712 
L 462.682316 448.953518 
L 463.14827 446.495816 
L 463.867462 438.521153 
L 464.556267 427.989721 
L 465.96426 405.759908 
L 466.480865 401.979093 
L 466.906303 400.341798 
L 467.311481 400.33544 
L 467.574848 400.949352 
L 467.949635 402.584256 
L 468.496628 408.274597 
L 469.580479 425.878614 
L 470.90744 441.817932 
L 472.16349 449.043908 
L 472.497765 450.713855 
L 472.832039 451.666499 
L 473.166309 451.901441 
L 473.52084 451.621897 
L 473.875374 450.818694 
L 474.250164 449.177284 
L 474.898449 441.963786 
L 475.232723 437.11497 
L 476.103855 412.685435 
L 476.448257 407.304998 
L 477.349777 400.927109 
L 477.613144 400.685512 
L 477.957546 401.316241 
L 478.301949 402.332409 
L 478.798294 405.039483 
L 481.340786 438.345878 
L 482.07011 444.14353 
L 482.829819 448.095061 
L 483.295776 449.565982 
L 483.76173 450.113172 
L 484.237816 450.389638 
L 484.572086 449.998324 
L 484.997524 449.743145 
L 485.341927 448.740639 
L 485.767365 444.423207 
L 486.385262 434.823815 
L 487.54002 411.487845 
L 488.046494 405.644202 
L 488.573227 402.341489 
L 488.998665 401.188147 
L 489.282288 401.09425 
L 489.565914 401.674083 
L 490.163551 410.343124 
L 490.568729 414.844855 
L 492.21983 439.404528 
L 493.121353 447.223026 
L 493.506275 448.823562 
L 493.891193 449.876564 
L 494.215336 450.383677 
L 494.498962 450.431293 
L 494.833233 450.149849 
L 495.501778 449.216277 
L 495.906956 447.037958 
L 496.565372 438.396725 
L 498.479839 404.620103 
L 498.783726 402.152572 
L 499.067348 401.34753 
L 499.371235 401.451414 
L 499.776413 402.066749 
L 500.110683 403.95356 
L 500.617157 407.472507 
L 503.048229 436.17212 
L 503.423019 439.54539 
L 504.749977 447.98732 
L 505.459042 450.103885 
L 505.732536 450.196074 
L 506.006031 450.027865 
L 506.6138 448.730903 
L 507.049366 447.342523 
L 507.636875 440.552972 
L 507.900242 435.279123 
L 508.285164 429.942087 
L 508.578915 421.261722 
L 509.267719 407.882638 
L 509.753937 404.424937 
L 510.128723 403.533402 
L 510.422482 403.620221 
L 510.706104 404.433567 
L 511.567108 414.162988 
L 512.286301 425.740197 
L 512.924458 436.098177 
L 513.572742 442.935948 
L 514.312191 446.903063 
L 515.000996 448.913865 
L 515.345398 449.419999 
L 516.024075 449.415496 
L 516.449512 449.160784 
L 516.864819 448.644474 
L 517.290257 447.845153 
L 517.725822 446.225176 
L 518.161388 443.095027 
L 518.647606 438.446805 
L 519.620033 422.058955 
L 519.913788 416.182506 
L 520.754532 406.072714 
L 521.028027 403.59819 
L 521.331913 402.59794 
L 521.666183 402.901676 
L 522.040974 403.810067 
L 522.47654 405.307122 
L 522.750038 408.625196 
L 523.074181 414.737993 
L 523.752853 430.837412 
L 524.05674 436.160283 
L 524.380882 439.646496 
L 525.150723 444.814311 
L 526.670139 449.385864 
L 526.984154 449.686444 
L 527.338684 449.717201 
L 527.743862 449.031146 
L 528.017361 448.306246 
L 529.091084 436.377404 
L 529.708977 425.727809 
L 530.337006 414.113908 
L 530.681408 409.294845 
L 531.116974 405.29229 
L 531.552544 403.492131 
L 532.008369 402.962667 
L 532.312252 403.512863 
L 532.575619 404.626902 
L 533.304939 410.221516 
L 533.588562 413.956728 
L 534.125423 418.62976 
L 535.898083 441.306145 
L 536.272869 443.507456 
L 536.688179 445.203335 
L 538.268375 449.433887 
L 538.754589 449.80203 
L 539.149639 449.823885 
L 539.534557 449.58991 
L 540.172718 447.979156 
L 540.456341 445.502308 
L 542.147961 420.323368 
L 542.765858 409.962325 
L 543.373627 404.415939 
L 543.809193 403.815638 
L 544.113079 404.372184 
L 544.44735 405.514172 
L 544.710716 407.648078 
L 546.4935 429.546684 
L 547.486187 441.651122 
L 547.820461 444.041461 
L 548.60043 446.589754 
L 549.714672 448.602518 
L 549.998295 448.794562 
L 550.352825 448.894789 
L 551.04163 447.944721 
L 551.497456 446.586828 
L 551.943153 443.517185 
L 554.404613 406.75952 
L 554.769276 405.338849 
L 555.063026 405.013545 
L 555.356781 405.416087 
L 555.650536 406.335344 
L 556.106361 408.165784 
L 556.754646 415.25438 
L 558.304459 434.701287 
L 559.32753 444.377887 
L 559.72258 446.375591 
L 560.340481 450.362769 
L 560.624104 451.098101 
L 560.988762 451.289315 
L 561.43446 451.100967 
L 561.82951 450.499279 
L 562.24482 449.549444 
L 562.59935 447.913284 
L 562.984268 445.472521 
L 563.581905 437.585088 
L 565.405212 408.749304 
L 565.779999 406.736952 
L 566.164921 405.76788 
L 566.549839 405.686565 
L 567.12722 407.246244 
L 567.400715 409.414316 
L 569.365833 432.05854 
L 570.611755 442.596407 
L 571.908325 450.584646 
L 572.323635 451.027234 
L 572.718681 451.020637 
L 573.0327 450.629462 
L 573.36697 449.936856 
L 573.691113 448.090837 
L 575.220661 433.864913 
L 576.547619 417.568901 
L 577.884708 404.241156 
L 578.249371 402.63799 
L 578.715324 402.699303 
L 579.191414 403.580526 
L 579.667496 408.240447 
L 581.430023 439.636666 
L 582.007401 442.721838 
L 582.898796 446.295906 
L 583.638245 448.36294 
L 583.972519 448.876936 
L 584.367569 448.985332 
L 584.863911 448.711736 
L 585.289349 447.744401 
L 585.623623 446.096208 
L 586.322556 439.186544 
L 588.399094 408.096229 
L 588.824532 405.314816 
L 589.168934 404.09162 
L 589.482944 403.694251 
L 590.141361 404.898665 
L 590.445244 406.682255 
L 591.12392 413.747073 
L 592.349583 429.699606 
L 593.261238 437.917511 
L 593.71706 440.720554 
L 594.52742 444.474117 
L 594.932598 446.1824 
L 595.358036 447.444675 
L 595.894897 447.41374 
L 596.279816 447.096747 
L 596.978748 445.446162 
L 597.262375 443.330654 
L 598.244934 431.210108 
L 599.612411 406.052754 
L 599.97707 402.013368 
L 600.250568 400.49192 
L 600.594971 400.229536 
L 601.040665 401.079999 
L 601.445843 405.576417 
L 601.729469 410.728533 
L 602.681641 421.845367 
L 603.015911 427.211096 
L 603.745232 435.514092 
L 604.454296 440.684766 
L 605.173485 443.241658 
L 605.892677 445.261328 
L 606.63213 446.113522 
L 606.94614 446.048924 
L 607.645077 444.739342 
L 607.948959 443.545273 
L 608.425045 440.306785 
L 608.840351 435.438231 
L 610.147057 412.971704 
L 610.521843 407.814865 
L 611.352459 402.211831 
L 611.676601 401.760447 
L 612.071651 401.950105 
L 612.537605 403.964763 
L 613.347965 410.731829 
L 614.269745 426.093414 
L 614.836994 436.507639 
L 615.495411 442.254477 
L 615.789165 443.975696 
L 616.06266 444.914136 
L 616.721077 445.74033 
L 617.014832 445.915662 
L 617.338974 445.533019 
L 617.77454 444.791099 
L 618.068295 444.019758 
L 618.453217 441.920248 
L 619.172405 434.322329 
L 620.124577 417.480402 
L 620.59053 412.085962 
L 620.864025 406.713943 
L 621.329983 403.796217 
L 621.704773 402.73303 
L 622.049175 402.440353 
L 622.65694 404.767 
L 623.750923 414.985281 
L 624.672703 429.336466 
L 625.391895 436.74892 
L 626.06044 441.468661 
L 627.387402 445.174327 
L 627.802708 445.929345 
L 628.228146 445.985958 
L 628.643456 445.92872 
L 629.220837 444.842642 
L 629.615883 443.353282 
L 630.071712 440.928971 
L 630.476891 437.297764 
L 631.702553 416.625713 
L 632.442005 405.637025 
L 632.725628 402.475399 
L 633.191586 401.344972 
L 633.687927 401.254267 
L 634.194401 401.782908 
L 634.528675 402.667269 
L 634.893333 404.327028 
L 635.207348 407.129358 
L 637.668808 441.223154 
L 637.942303 443.023339 
L 638.641235 445.055279 
L 639.157837 445.270305 
L 639.461723 445.221864 
L 639.755478 444.965946 
L 640.039104 444.519299 
L 640.424023 443.619912 
L 640.768425 442.155622 
L 641.173603 439.577177 
L 642.064995 430.250281 
L 642.662632 418.782501 
L 643.746487 403.788598 
L 644.030109 402.31796 
L 644.303608 401.865003 
L 644.587231 402.329215 
L 644.891113 403.195076 
L 645.509014 407.911255 
L 646.076263 414.901138 
L 646.947395 429.641064 
L 647.798275 437.181014 
L 649.489891 444.835389 
L 650.128048 446.503466 
L 650.523098 446.607409 
L 651.262547 445.579106 
L 651.596821 444.843575 
L 652.214718 442.513916 
L 652.660412 439.820662 
L 653.298573 430.084575 
L 654.098801 411.430114 
L 654.655918 405.134949 
L 655.04084 402.054465 
L 655.577702 400.477654 
L 655.891712 400.062228 
L 656.185467 400.2944 
L 656.509613 400.8028 
L 656.854012 402.415617 
L 657.249062 405.481336 
L 657.947994 414.660979 
L 659.376251 436.841797 
L 659.670006 439.203955 
L 660.84502 443.085502 
L 661.26033 443.802638 
L 661.675636 444.261865 
L 662.020039 444.230871 
L 662.567032 443.569406 
L 662.860786 442.700184 
L 663.296352 442.176634 
L 663.650883 440.732554 
L 664.542274 427.97887 
L 666.213638 400.690946 
L 666.608688 398.995592 
L 666.882183 398.511323 
L 667.16581 398.706592 
L 667.530468 399.410454 
L 667.996426 400.871232 
L 668.361084 403.947753 
L 670.032448 427.844852 
L 670.73138 434.98803 
L 671.440441 439.308611 
L 671.744324 440.696005 
L 672.696495 442.182907 
L 673.081413 442.470801 
L 673.425816 442.466079 
L 673.780346 442.296436 
L 674.479279 441.3727 
L 674.874329 438.929501 
L 675.927795 422.565797 
L 676.515301 411.72133 
L 677.619415 403.487674 
L 678.105629 401.42676 
L 678.500679 400.473433 
L 678.946373 400.045284 
L 679.351551 401.202421 
L 679.645306 403.341518 
L 680.0201 407.020627 
L 680.658253 420.677245 
L 681.802883 434.574617 
L 682.44104 438.635064 
L 683.302044 441.047665 
L 683.697094 441.944207 
L 684.061752 442.112823 
L 684.325119 442.020907 
L 685.044312 441.081238 
L 685.439362 440.221248 
L 685.885059 437.820204 
L 686.209198 433.891354 
L 687.576675 409.451948 
L 688.224964 399.407673 
L 688.569366 396.933458 
L 688.923897 396.228148 
L 689.237911 396.466483 
L 689.60257 397.093616 
L 689.936844 399.206972 
L 691.375225 418.377667 
L 692.85413 436.575423 
L 693.127625 438.271469 
L 693.492287 439.454858 
L 694.343159 441.20591 
L 694.880024 441.62463 
L 695.538437 441.762146 
L 696.156334 440.573918 
L 696.520996 439.668927 
L 696.824879 437.076424 
L 697.473164 427.887929 
L 698.65831 404.71391 
L 699.245823 396.285544 
L 699.549706 394.704012 
L 699.934624 394.695872 
L 700.21825 395.420292 
L 700.522133 397.413746 
L 700.876663 401.113354 
L 701.18055 405.907826 
L 701.697151 410.966796 
L 702.06181 416.622413 
L 702.882298 426.505972 
L 703.469807 432.728219 
L 704.057316 436.140747 
L 704.958839 438.504145 
L 705.374146 439.252215 
L 706.02243 440.909239 
L 706.397221 441.109682 
L 706.792271 441.169791 
L 707.308876 440.887824 
L 707.693794 440.52044 
L 708.058453 439.339458 
L 708.352211 436.90655 
L 708.949848 420.183341 
L 710.19577 397.276783 
L 710.509785 395.850619 
L 710.874447 395.449586 
L 711.239105 395.878234 
L 711.583508 396.940018 
L 711.998814 399.0472 
L 712.312828 402.483002 
L 712.869949 412.362232 
L 713.44733 427.223676 
L 714.085487 434.995158 
L 714.774288 438.825748 
L 715.807495 441.640825 
L 716.12151 441.760401 
L 716.465908 441.441187 
L 716.790051 440.811358 
L 717.134453 440.534149 
L 717.468727 439.654708 
L 718.18792 436.65735 
L 718.866592 423.356533 
L 719.474361 410.987159 
L 720.27459 400.341753 
L 720.618988 397.289416 
L 720.98365 395.644256 
L 721.297665 395.045961 
L 721.631935 394.736183 
L 721.956078 395.34938 
L 722.249832 396.941352 
L 723.333687 407.367049 
L 724.569481 427.398847 
L 725.400097 431.674966 
L 726.119289 436.361267 
L 726.504208 437.994945 
L 726.878998 439.001306 
L 727.172752 440.28714 
L 727.567802 441.333368 
L 727.932461 441.698912 
L 728.266735 441.612366 
L 728.530102 441.279305 
L 729.117611 439.869376 
L 729.411366 438.400423 
L 729.755768 435.195348 
L 730.566124 424.09589 
L 731.79179 400.215063 
L 732.095673 396.876001 
L 732.602146 395.328181 
L 733.42263 395.332396 
L 733.83794 395.671167 
L 734.21273 397.173125 
L 734.536873 399.773843 
L 735.073734 403.173856 
L 735.509304 408.018546 
L 736.157589 419.595219 
L 736.805874 428.360599 
L 737.099628 431.282731 
L 737.788429 435.316672 
L 738.284775 436.896489 
L 739.064747 438.481567 
L 739.469925 438.85005 
L 739.915619 438.981719 
L 740.260021 438.9398 
L 740.695587 438.376015 
L 741.161541 436.779902 
L 741.485687 433.169951 
L 742.549278 412.903136 
L 743.734428 395.610791 
L 744.099087 392.472941 
L 744.402973 391.202465 
L 744.676468 391.891486 
L 745.334885 396.658641 
L 745.92239 405.514453 
L 746.499771 417.931641 
L 746.874561 423.248389 
L 748.140743 433.584065 
L 749.234726 438.493399 
L 749.54874 439.138005 
L 749.984306 439.135872 
L 750.399616 438.899423 
L 750.703499 438.585409 
L 751.422688 437.182537 
L 751.706314 435.981706 
L 752.010201 430.752842 
L 752.526802 425.088115 
L 753.387806 411.816855 
L 753.985443 398.350338 
L 754.735027 389.684778 
L 755.049038 388.639137 
L 755.363052 388.535925 
L 755.646675 389.012251 
L 756.305092 398.875774 
L 757.307907 417.781775 
L 758.553833 432.820994 
L 759.121082 435.813391 
L 759.435097 436.862034 
L 759.799759 437.550333 
L 760.215065 437.642303 
L 760.995033 436.641638 
L 761.319176 436.014893 
L 761.835781 433.880663 
L 763.041187 418.62104 
L 763.395718 408.400316 
L 764.195946 394.452227 
L 764.530216 390.952071 
L 764.925266 389.608936 
L 765.208889 389.06815 
L 765.563423 389.703937 
L 765.948341 390.887763 
L 766.951157 400.009518 
L 768.055271 418.557986 
L 768.328766 424.442018 
L 768.632648 428.471753 
L 769.331585 433.42929 
L 769.706371 435.004117 
L 770.131809 435.941621 
L 770.425564 437.019964 
L 770.790226 437.79765 
L 771.235924 438.14801 
L 771.65123 438.131782 
L 771.955116 437.916949 
L 772.654049 436.675227 
L 772.957932 435.197548 
L 773.302334 432.185812 
L 773.899971 421.210887 
L 774.203854 415.048074 
L 775.389004 396.624864 
L 775.885345 393.512428 
L 776.229748 392.619081 
L 776.523502 393.469637 
L 776.92868 395.942794 
L 777.506062 403.912049 
L 778.64056 419.781114 
L 780.271404 433.038666 
L 781.193184 435.195128 
L 782.054192 436.694111 
L 782.570793 437.25667 
L 783.006359 437.512547 
L 783.391281 437.489354 
L 784.090214 436.153952 
L 784.414356 434.608483 
L 784.687851 431.910816 
L 785.731186 416.381724 
L 786.61245 400.414478 
L 787.32151 394.133169 
L 787.635525 393.126361 
L 787.979927 392.921333 
L 788.30407 393.493863 
L 788.567436 394.93612 
L 789.134686 403.027892 
L 790.238796 423.697231 
L 790.836433 429.624546 
L 792.28495 436.579385 
L 792.629349 437.76482 
L 792.994011 438.496934 
L 793.399189 438.430281 
L 793.844887 438.076832 
L 794.594467 436.353154 
L 794.878094 435.091881 
L 795.27314 432.673595 
L 795.951817 423.388894 
L 796.356995 417.701092 
L 796.995148 405.956967 
L 797.653564 395.730039 
L 798.018227 393.160971 
L 798.453793 392.159552 
L 798.828583 392.453626 
L 799.213505 392.980417 
L 799.527515 394.441956 
L 800.094765 402.091918 
L 801.046936 416.864739 
L 801.674965 425.37973 
L 802.687908 432.451368 
L 803.93383 438.37958 
L 804.268105 438.533566 
L 804.612507 438.12741 
L 805.483643 435.953551 
L 805.807785 435.017078 
L 806.162315 432.971277 
L 806.749825 425.5377 
L 807.904583 408.98653 
L 809.383484 391.716762 
L 809.778534 391.855058 
L 810.183712 392.961755 
L 810.568634 395.984958 
L 811.156139 404.226098 
L 812.169086 419.069569 
L 813.100998 426.312647 
L 813.729023 430.289077 
L 814.438087 433.239599 
L 814.701454 434.646067 
L 815.045856 435.818129 
L 815.481422 436.538502 
L 815.775177 436.511325 
L 816.433594 436.063816 
L 816.808384 435.607823 
L 817.071747 434.977239 
L 817.365501 433.854848 
L 817.659256 431.650952 
L 818.196117 422.693763 
L 818.93557 411.675385 
L 819.70541 400.851589 
L 820.282787 392.476609 
L 820.60693 390.70765 
L 820.941204 390.513843 
L 821.397026 390.919181 
L 821.741432 392.719175 
L 822.085831 396.068916 
L 824.253536 426.914948 
L 824.830917 430.975819 
L 825.124672 432.460869 
L 825.955288 434.938603 
L 826.542797 435.683826 
L 826.897327 435.715432 
L 827.55574 434.991705 
L 827.900146 434.811156 
L 828.193897 434.909491 
L 828.51804 434.593144 
L 828.811798 433.439387 
L 829.085293 429.482647 
L 830.0172 408.026317 
L 830.969372 394.90374 
L 831.323902 392.486892 
L 831.698696 391.495532 
L 832.114002 391.379995 
L 832.579956 391.599746 
L 833.035782 392.956656 
L 833.521996 396.00789 
L 834.859085 411.198357 
L 835.233879 416.406804 
L 836.186047 424.862824 
L 836.905239 430.042245 
L 838.161293 436.765496 
L 838.576599 437.012703 
L 838.910873 436.821493 
L 839.265404 436.191691 
L 839.822521 434.523676 
L 840.09602 433.405407 
L 840.389774 430.991839 
L 840.653141 426.999327 
L 841.969971 398.31692 
L 842.253593 394.090044 
L 842.547348 391.969828 
L 842.871494 391.505757 
L 843.185505 391.759545 
L 843.509647 392.744989 
L 844.238972 398.318036 
L 844.948032 407.413074 
L 846.629524 433.120184 
L 847.409492 451.133161 
L 848.574379 483.282894 
L 849.475903 501.12267 
L 850.650921 517.420758 
L 851.015579 518.494248 
L 851.289078 518.395066 
L 851.663868 519.008214 
L 851.998138 522.233651 
L 852.504612 523.204091 
L 852.828758 521.633094 
L 853.183285 517.106963 
L 853.85183 518.915224 
L 854.125328 521.720247 
L 854.844521 521.985895 
L 855.340862 518.654227 
L 855.867596 513.523361 
L 856.637436 504.503965 
L 857.579475 498.293392 
L 857.83271 493.268465 
L 859.54459 471.022568 
L 861.266598 436.791494 
L 862.745499 377.249614 
L 863.353271 348.978257 
L 865.379162 306.485909 
L 865.379162 306.485909 
" clip-path="url(#pb592c94a08)" style="fill: none; stroke: #008000; stroke-opacity: 0.5; stroke-width: 1.5; stroke-linecap: square"/>
   </g>
   <g id="line2d_46">
    <defs>
     <path id="m186637d8b0" d="M 0 4 
C 1.060812 4 2.078319 3.578535 2.828427 2.828427 
C 3.578535 2.078319 4 1.060812 4 0 
C 4 -1.060812 3.578535 -2.078319 2.828427 -2.828427 
C 2.078319 -3.578535 1.060812 -4 0 -4 
C -1.060812 -4 -2.078319 -3.578535 -2.828427 -2.828427 
C -3.578535 -2.078319 -4 -1.060812 -4 0 
C -4 1.060812 -3.578535 2.078319 -2.828427 2.828427 
C -2.078319 3.578535 -1.060812 4 0 4 
z
" style="stroke: #bf00bf"/>
    </defs>
    <g clip-path="url(#pb592c94a08)">
     <use xlink:href="#m186637d8b0" x="274.375576" y="405.332473" style="fill: #bf00bf; stroke: #bf00bf"/>
     <use xlink:href="#m186637d8b0" x="284.656982" y="400.015139" style="fill: #bf00bf; stroke: #bf00bf"/>
     <use xlink:href="#m186637d8b0" x="295.333439" y="400.703877" style="fill: #bf00bf; stroke: #bf00bf"/>
     <use xlink:href="#m186637d8b0" x="306.182095" y="402.415723" style="fill: #bf00bf; stroke: #bf00bf"/>
     <use xlink:href="#m186637d8b0" x="315.875992" y="401.312311" style="fill: #bf00bf; stroke: #bf00bf"/>
     <use xlink:href="#m186637d8b0" x="326.066231" y="400.140966" style="fill: #bf00bf; stroke: #bf00bf"/>
     <use xlink:href="#m186637d8b0" x="336.631264" y="403.153595" style="fill: #bf00bf; stroke: #bf00bf"/>
     <use xlink:href="#m186637d8b0" x="346.780987" y="401.010235" style="fill: #bf00bf; stroke: #bf00bf"/>
     <use xlink:href="#m186637d8b0" x="358.217152" y="401.078566" style="fill: #bf00bf; stroke: #bf00bf"/>
     <use xlink:href="#m186637d8b0" x="369.01516" y="402.648391" style="fill: #bf00bf; stroke: #bf00bf"/>
     <use xlink:href="#m186637d8b0" x="379.114235" y="401.927748" style="fill: #bf00bf; stroke: #bf00bf"/>
     <use xlink:href="#m186637d8b0" x="389.871727" y="401.789936" style="fill: #bf00bf; stroke: #bf00bf"/>
     <use xlink:href="#m186637d8b0" x="401.875141" y="401.912778" style="fill: #bf00bf; stroke: #bf00bf"/>
     <use xlink:href="#m186637d8b0" x="411.73111" y="399.063407" style="fill: #bf00bf; stroke: #bf00bf"/>
     <use xlink:href="#m186637d8b0" x="423.045719" y="398.912107" style="fill: #bf00bf; stroke: #bf00bf"/>
     <use xlink:href="#m186637d8b0" x="434.350204" y="401.693043" style="fill: #bf00bf; stroke: #bf00bf"/>
     <use xlink:href="#m186637d8b0" x="445.19886" y="402.088255" style="fill: #bf00bf; stroke: #bf00bf"/>
     <use xlink:href="#m186637d8b0" x="455.804409" y="400.762703" style="fill: #bf00bf; stroke: #bf00bf"/>
     <use xlink:href="#m186637d8b0" x="467.311481" y="400.33544" style="fill: #bf00bf; stroke: #bf00bf"/>
     <use xlink:href="#m186637d8b0" x="477.613144" y="400.685512" style="fill: #bf00bf; stroke: #bf00bf"/>
     <use xlink:href="#m186637d8b0" x="489.282288" y="401.09425" style="fill: #bf00bf; stroke: #bf00bf"/>
     <use xlink:href="#m186637d8b0" x="499.067348" y="401.34753" style="fill: #bf00bf; stroke: #bf00bf"/>
     <use xlink:href="#m186637d8b0" x="510.128723" y="403.533402" style="fill: #bf00bf; stroke: #bf00bf"/>
     <use xlink:href="#m186637d8b0" x="521.331913" y="402.59794" style="fill: #bf00bf; stroke: #bf00bf"/>
     <use xlink:href="#m186637d8b0" x="532.008369" y="402.962667" style="fill: #bf00bf; stroke: #bf00bf"/>
     <use xlink:href="#m186637d8b0" x="543.809193" y="403.815638" style="fill: #bf00bf; stroke: #bf00bf"/>
     <use xlink:href="#m186637d8b0" x="555.063026" y="405.013545" style="fill: #bf00bf; stroke: #bf00bf"/>
     <use xlink:href="#m186637d8b0" x="566.549839" y="405.686565" style="fill: #bf00bf; stroke: #bf00bf"/>
     <use xlink:href="#m186637d8b0" x="578.249371" y="402.63799" style="fill: #bf00bf; stroke: #bf00bf"/>
     <use xlink:href="#m186637d8b0" x="589.482944" y="403.694251" style="fill: #bf00bf; stroke: #bf00bf"/>
     <use xlink:href="#m186637d8b0" x="600.594971" y="400.229536" style="fill: #bf00bf; stroke: #bf00bf"/>
     <use xlink:href="#m186637d8b0" x="611.676601" y="401.760447" style="fill: #bf00bf; stroke: #bf00bf"/>
     <use xlink:href="#m186637d8b0" x="622.049175" y="402.440353" style="fill: #bf00bf; stroke: #bf00bf"/>
     <use xlink:href="#m186637d8b0" x="633.687927" y="401.254267" style="fill: #bf00bf; stroke: #bf00bf"/>
     <use xlink:href="#m186637d8b0" x="644.303608" y="401.865003" style="fill: #bf00bf; stroke: #bf00bf"/>
     <use xlink:href="#m186637d8b0" x="655.891712" y="400.062228" style="fill: #bf00bf; stroke: #bf00bf"/>
     <use xlink:href="#m186637d8b0" x="666.882183" y="398.511323" style="fill: #bf00bf; stroke: #bf00bf"/>
     <use xlink:href="#m186637d8b0" x="678.946373" y="400.045284" style="fill: #bf00bf; stroke: #bf00bf"/>
     <use xlink:href="#m186637d8b0" x="688.923897" y="396.228148" style="fill: #bf00bf; stroke: #bf00bf"/>
     <use xlink:href="#m186637d8b0" x="699.934624" y="394.695872" style="fill: #bf00bf; stroke: #bf00bf"/>
     <use xlink:href="#m186637d8b0" x="710.874447" y="395.449586" style="fill: #bf00bf; stroke: #bf00bf"/>
     <use xlink:href="#m186637d8b0" x="721.631935" y="394.736183" style="fill: #bf00bf; stroke: #bf00bf"/>
     <use xlink:href="#m186637d8b0" x="732.602146" y="395.328181" style="fill: #bf00bf; stroke: #bf00bf"/>
     <use xlink:href="#m186637d8b0" x="744.402973" y="391.202465" style="fill: #bf00bf; stroke: #bf00bf"/>
     <use xlink:href="#m186637d8b0" x="755.363052" y="388.535925" style="fill: #bf00bf; stroke: #bf00bf"/>
     <use xlink:href="#m186637d8b0" x="765.208889" y="389.06815" style="fill: #bf00bf; stroke: #bf00bf"/>
     <use xlink:href="#m186637d8b0" x="776.229748" y="392.619081" style="fill: #bf00bf; stroke: #bf00bf"/>
     <use xlink:href="#m186637d8b0" x="787.979927" y="392.921333" style="fill: #bf00bf; stroke: #bf00bf"/>
     <use xlink:href="#m186637d8b0" x="798.453793" y="392.159552" style="fill: #bf00bf; stroke: #bf00bf"/>
     <use xlink:href="#m186637d8b0" x="809.383484" y="391.716762" style="fill: #bf00bf; stroke: #bf00bf"/>
     <use xlink:href="#m186637d8b0" x="820.941204" y="390.513843" style="fill: #bf00bf; stroke: #bf00bf"/>
     <use xlink:href="#m186637d8b0" x="832.114002" y="391.379995" style="fill: #bf00bf; stroke: #bf00bf"/>
     <use xlink:href="#m186637d8b0" x="842.871494" y="391.505757" style="fill: #bf00bf; stroke: #bf00bf"/>
    </g>
   </g>
   <g id="patch_9">
    <path d="M 63.47 534.04 
L 63.47 295.65 
" style="fill: none; stroke: #000000; stroke-width: 0.8; stroke-linejoin: miter; stroke-linecap: square"/>
   </g>
   <g id="patch_10">
    <path d="M 990.072864 534.04 
L 990.072864 295.65 
" style="fill: none; stroke: #000000; stroke-width: 0.8; stroke-linejoin: miter; stroke-linecap: square"/>
   </g>
   <g id="patch_11">
    <path d="M 63.470001 534.04 
L 990.072868 534.04 
" style="fill: none; stroke: #000000; stroke-width: 0.8; stroke-linejoin: miter; stroke-linecap: square"/>
   </g>
   <g id="patch_12">
    <path d="M 63.470001 295.65 
L 990.072868 295.65 
" style="fill: none; stroke: #000000; stroke-width: 0.8; stroke-linejoin: miter; stroke-linecap: square"/>
   </g>
   <g id="text_23">
    <!-- Vision Signal with Peaks -->
    <g transform="translate(454.619557 289.65) scale(0.12 -0.12)">
     <use xlink:href="#DejaVuSans-56"/>
     <use xlink:href="#DejaVuSans-69" x="66.158203"/>
     <use xlink:href="#DejaVuSans-73" x="93.941406"/>
     <use xlink:href="#DejaVuSans-69" x="146.041016"/>
     <use xlink:href="#DejaVuSans-6f" x="173.824219"/>
     <use xlink:href="#DejaVuSans-6e" x="235.005859"/>
     <use xlink:href="#DejaVuSans-20" x="298.384766"/>
     <use xlink:href="#DejaVuSans-53" x="330.171875"/>
     <use xlink:href="#DejaVuSans-69" x="393.648438"/>
     <use xlink:href="#DejaVuSans-67" x="421.431641"/>
     <use xlink:href="#DejaVuSans-6e" x="484.908203"/>
     <use xlink:href="#DejaVuSans-61" x="548.287109"/>
     <use xlink:href="#DejaVuSans-6c" x="609.566406"/>
     <use xlink:href="#DejaVuSans-20" x="637.349609"/>
     <use xlink:href="#DejaVuSans-77" x="669.136719"/>
     <use xlink:href="#DejaVuSans-69" x="750.923828"/>
     <use xlink:href="#DejaVuSans-74" x="778.707031"/>
     <use xlink:href="#DejaVuSans-68" x="817.916016"/>
     <use xlink:href="#DejaVuSans-20" x="881.294922"/>
     <use xlink:href="#DejaVuSans-50" x="913.082031"/>
     <use xlink:href="#DejaVuSans-65" x="969.759766"/>
     <use xlink:href="#DejaVuSans-61" x="1031.283203"/>
     <use xlink:href="#DejaVuSans-6b" x="1092.5625"/>
     <use xlink:href="#DejaVuSans-73" x="1150.472656"/>
    </g>
   </g>
   <g id="legend_2">
    <g id="patch_13">
     <path d="M 887.597864 333.00625 
L 983.072864 333.00625 
Q 985.072864 333.00625 985.072864 331.00625 
L 985.072864 302.65 
Q 985.072864 300.65 983.072864 300.65 
L 887.597864 300.65 
Q 885.597864 300.65 885.597864 302.65 
L 885.597864 331.00625 
Q 885.597864 333.00625 887.597864 333.00625 
z
" style="fill: #ffffff; opacity: 0.8; stroke: #cccccc; stroke-linejoin: miter"/>
    </g>
    <g id="line2d_47">
     <path d="M 889.597864 308.748437 
L 899.597864 308.748437 
L 909.597864 308.748437 
" style="fill: none; stroke: #008000; stroke-opacity: 0.5; stroke-width: 1.5; stroke-linecap: square"/>
    </g>
    <g id="text_24">
     <!-- Vision Depth -->
     <g transform="translate(917.597864 312.248437) scale(0.1 -0.1)">
      <use xlink:href="#DejaVuSans-56"/>
      <use xlink:href="#DejaVuSans-69" x="66.158203"/>
      <use xlink:href="#DejaVuSans-73" x="93.941406"/>
      <use xlink:href="#DejaVuSans-69" x="146.041016"/>
      <use xlink:href="#DejaVuSans-6f" x="173.824219"/>
      <use xlink:href="#DejaVuSans-6e" x="235.005859"/>
      <use xlink:href="#DejaVuSans-20" x="298.384766"/>
      <use xlink:href="#DejaVuSans-44" x="330.171875"/>
      <use xlink:href="#DejaVuSans-65" x="407.173828"/>
      <use xlink:href="#DejaVuSans-70" x="468.697266"/>
      <use xlink:href="#DejaVuSans-74" x="532.173828"/>
      <use xlink:href="#DejaVuSans-68" x="571.382812"/>
     </g>
    </g>
    <g id="line2d_48">
     <g>
      <use xlink:href="#m186637d8b0" x="899.597864" y="323.426562" style="fill: #bf00bf; stroke: #bf00bf"/>
     </g>
    </g>
    <g id="text_25">
     <!-- Vision Peaks -->
     <g transform="translate(917.597864 326.926562) scale(0.1 -0.1)">
      <use xlink:href="#DejaVuSans-56"/>
      <use xlink:href="#DejaVuSans-69" x="66.158203"/>
      <use xlink:href="#DejaVuSans-73" x="93.941406"/>
      <use xlink:href="#DejaVuSans-69" x="146.041016"/>
      <use xlink:href="#DejaVuSans-6f" x="173.824219"/>
      <use xlink:href="#DejaVuSans-6e" x="235.005859"/>
      <use xlink:href="#DejaVuSans-20" x="298.384766"/>
      <use xlink:href="#DejaVuSans-50" x="330.171875"/>
      <use xlink:href="#DejaVuSans-65" x="386.849609"/>
      <use xlink:href="#DejaVuSans-61" x="448.373047"/>
      <use xlink:href="#DejaVuSans-6b" x="509.652344"/>
      <use xlink:href="#DejaVuSans-73" x="567.5625"/>
     </g>
    </g>
   </g>
  </g>
 </g>
 <defs>
  <clipPath id="pe136fa5436">
   <rect x="63.47" y="26.88" width="926.602864" height="238.39"/>
  </clipPath>
  <clipPath id="pb592c94a08">
   <rect x="63.47" y="295.65" width="926.602864" height="238.39"/>
  </clipPath>
 </defs>
</svg>
