<?xml version="1.0" encoding="utf-8" standalone="no"?>
<!DOCTYPE svg PUBLIC "-//W3C//DTD SVG 1.1//EN"
  "http://www.w3.org/Graphics/SVG/1.1/DTD/svg11.dtd">
<svg xmlns:xlink="http://www.w3.org/1999/xlink" width="864pt" height="360pt" viewBox="0 0 864 360" xmlns="http://www.w3.org/2000/svg" version="1.1">
 <metadata>
  <rdf:RDF xmlns:dc="http://purl.org/dc/elements/1.1/" xmlns:cc="http://creativecommons.org/ns#" xmlns:rdf="http://www.w3.org/1999/02/22-rdf-syntax-ns#">
   <cc:Work>
    <dc:type rdf:resource="http://purl.org/dc/dcmitype/StillImage"/>
    <dc:date>2025-12-01T21:12:01.453362</dc:date>
    <dc:format>image/svg+xml</dc:format>
    <dc:creator>
     <cc:Agent>
      <dc:title>Matplotlib v3.8.4, https://matplotlib.org/</dc:title>
     </cc:Agent>
    </dc:creator>
   </cc:Work>
  </rdf:RDF>
 </metadata>
 <defs>
  <style type="text/css">*{stroke-linejoin: round; stroke-linecap: butt}</style>
 </defs>
 <g id="figure_1">
  <g id="patch_1">
   <path d="M 0 360 
L 864 360 
L 864 0 
L 0 0 
z
" style="fill: #ffffff"/>
  </g>
  <g id="axes_1">
   <g id="patch_2">
    <path d="M 57.26 318.04 
L 851.677082 318.04 
L 851.677082 26.88 
L 57.26 26.88 
z
" style="fill: #ffffff"/>
   </g>
   <g id="matplotlib.axis_1">
    <g id="xtick_1">
     <g id="line2d_1">
      <path d="M 62.927556 318.04 
L 62.927556 26.88 
" clip-path="url(#pe4433733c2)" style="fill: none; stroke: #b0b0b0; stroke-width: 0.8; stroke-linecap: square"/>
     </g>
     <g id="line2d_2">
      <defs>
       <path id="me67a2468cf" d="M 0 0 
L 0 3.5 
" style="stroke: #000000; stroke-width: 0.8"/>
      </defs>
      <g>
       <use xlink:href="#me67a2468cf" x="62.927556" y="318.04" style="stroke: #000000; stroke-width: 0.8"/>
      </g>
     </g>
     <g id="text_1">
      <!-- −40 -->
      <g transform="translate(52.375212 332.638438) scale(0.1 -0.1)">
       <defs>
        <path id="DejaVuSans-2212" d="M 678 2272 
L 4684 2272 
L 4684 1741 
L 678 1741 
L 678 2272 
z
" transform="scale(0.015625)"/>
        <path id="DejaVuSans-34" d="M 2419 4116 
L 825 1625 
L 2419 1625 
L 2419 4116 
z
M 2253 4666 
L 3047 4666 
L 3047 1625 
L 3713 1625 
L 3713 1100 
L 3047 1100 
L 3047 0 
L 2419 0 
L 2419 1100 
L 313 1100 
L 313 1709 
L 2253 4666 
z
" transform="scale(0.015625)"/>
        <path id="DejaVuSans-30" d="M 2034 4250 
Q 1547 4250 1301 3770 
Q 1056 3291 1056 2328 
Q 1056 1369 1301 889 
Q 1547 409 2034 409 
Q 2525 409 2770 889 
Q 3016 1369 3016 2328 
Q 3016 3291 2770 3770 
Q 2525 4250 2034 4250 
z
M 2034 4750 
Q 2819 4750 3233 4129 
Q 3647 3509 3647 2328 
Q 3647 1150 3233 529 
Q 2819 -91 2034 -91 
Q 1250 -91 836 529 
Q 422 1150 422 2328 
Q 422 3509 836 4129 
Q 1250 4750 2034 4750 
z
" transform="scale(0.015625)"/>
       </defs>
       <use xlink:href="#DejaVuSans-2212"/>
       <use xlink:href="#DejaVuSans-34" x="83.789062"/>
       <use xlink:href="#DejaVuSans-30" x="147.412109"/>
      </g>
     </g>
    </g>
    <g id="xtick_2">
     <g id="line2d_3">
      <path d="M 160.812802 318.04 
L 160.812802 26.88 
" clip-path="url(#pe4433733c2)" style="fill: none; stroke: #b0b0b0; stroke-width: 0.8; stroke-linecap: square"/>
     </g>
     <g id="line2d_4">
      <g>
       <use xlink:href="#me67a2468cf" x="160.812802" y="318.04" style="stroke: #000000; stroke-width: 0.8"/>
      </g>
     </g>
     <g id="text_2">
      <!-- −30 -->
      <g transform="translate(150.260458 332.638438) scale(0.1 -0.1)">
       <defs>
        <path id="DejaVuSans-33" d="M 2597 2516 
Q 3050 2419 3304 2112 
Q 3559 1806 3559 1356 
Q 3559 666 3084 287 
Q 2609 -91 1734 -91 
Q 1441 -91 1130 -33 
Q 819 25 488 141 
L 488 750 
Q 750 597 1062 519 
Q 1375 441 1716 441 
Q 2309 441 2620 675 
Q 2931 909 2931 1356 
Q 2931 1769 2642 2001 
Q 2353 2234 1838 2234 
L 1294 2234 
L 1294 2753 
L 1863 2753 
Q 2328 2753 2575 2939 
Q 2822 3125 2822 3475 
Q 2822 3834 2567 4026 
Q 2313 4219 1838 4219 
Q 1578 4219 1281 4162 
Q 984 4106 628 3988 
L 628 4550 
Q 988 4650 1302 4700 
Q 1616 4750 1894 4750 
Q 2613 4750 3031 4423 
Q 3450 4097 3450 3541 
Q 3450 3153 3228 2886 
Q 3006 2619 2597 2516 
z
" transform="scale(0.015625)"/>
       </defs>
       <use xlink:href="#DejaVuSans-2212"/>
       <use xlink:href="#DejaVuSans-33" x="83.789062"/>
       <use xlink:href="#DejaVuSans-30" x="147.412109"/>
      </g>
     </g>
    </g>
    <g id="xtick_3">
     <g id="line2d_5">
      <path d="M 258.698048 318.04 
L 258.698048 26.88 
" clip-path="url(#pe4433733c2)" style="fill: none; stroke: #b0b0b0; stroke-width: 0.8; stroke-linecap: square"/>
     </g>
     <g id="line2d_6">
      <g>
       <use xlink:href="#me67a2468cf" x="258.698048" y="318.04" style="stroke: #000000; stroke-width: 0.8"/>
      </g>
     </g>
     <g id="text_3">
      <!-- −20 -->
      <g transform="translate(248.145705 332.638438) scale(0.1 -0.1)">
       <defs>
        <path id="DejaVuSans-32" d="M 1228 531 
L 3431 531 
L 3431 0 
L 469 0 
L 469 531 
Q 828 903 1448 1529 
Q 2069 2156 2228 2338 
Q 2531 2678 2651 2914 
Q 2772 3150 2772 3378 
Q 2772 3750 2511 3984 
Q 2250 4219 1831 4219 
Q 1534 4219 1204 4116 
Q 875 4013 500 3803 
L 500 4441 
Q 881 4594 1212 4672 
Q 1544 4750 1819 4750 
Q 2544 4750 2975 4387 
Q 3406 4025 3406 3419 
Q 3406 3131 3298 2873 
Q 3191 2616 2906 2266 
Q 2828 2175 2409 1742 
Q 1991 1309 1228 531 
z
" transform="scale(0.015625)"/>
       </defs>
       <use xlink:href="#DejaVuSans-2212"/>
       <use xlink:href="#DejaVuSans-32" x="83.789062"/>
       <use xlink:href="#DejaVuSans-30" x="147.412109"/>
      </g>
     </g>
    </g>
    <g id="xtick_4">
     <g id="line2d_7">
      <path d="M 356.583295 318.04 
L 356.583295 26.88 
" clip-path="url(#pe4433733c2)" style="fill: none; stroke: #b0b0b0; stroke-width: 0.8; stroke-linecap: square"/>
     </g>
     <g id="line2d_8">
      <g>
       <use xlink:href="#me67a2468cf" x="356.583295" y="318.04" style="stroke: #000000; stroke-width: 0.8"/>
      </g>
     </g>
     <g id="text_4">
      <!-- −10 -->
      <g transform="translate(346.030951 332.638438) scale(0.1 -0.1)">
       <defs>
        <path id="DejaVuSans-31" d="M 794 531 
L 1825 531 
L 1825 4091 
L 703 3866 
L 703 4441 
L 1819 4666 
L 2450 4666 
L 2450 531 
L 3481 531 
L 3481 0 
L 794 0 
L 794 531 
z
" transform="scale(0.015625)"/>
       </defs>
       <use xlink:href="#DejaVuSans-2212"/>
       <use xlink:href="#DejaVuSans-31" x="83.789062"/>
       <use xlink:href="#DejaVuSans-30" x="147.412109"/>
      </g>
     </g>
    </g>
    <g id="xtick_5">
     <g id="line2d_9">
      <path d="M 454.468541 318.04 
L 454.468541 26.88 
" clip-path="url(#pe4433733c2)" style="fill: none; stroke: #b0b0b0; stroke-width: 0.8; stroke-linecap: square"/>
     </g>
     <g id="line2d_10">
      <g>
       <use xlink:href="#me67a2468cf" x="454.468541" y="318.04" style="stroke: #000000; stroke-width: 0.8"/>
      </g>
     </g>
     <g id="text_5">
      <!-- 0 -->
      <g transform="translate(451.287291 332.638438) scale(0.1 -0.1)">
       <use xlink:href="#DejaVuSans-30"/>
      </g>
     </g>
    </g>
    <g id="xtick_6">
     <g id="line2d_11">
      <path d="M 552.353787 318.04 
L 552.353787 26.88 
" clip-path="url(#pe4433733c2)" style="fill: none; stroke: #b0b0b0; stroke-width: 0.8; stroke-linecap: square"/>
     </g>
     <g id="line2d_12">
      <g>
       <use xlink:href="#me67a2468cf" x="552.353787" y="318.04" style="stroke: #000000; stroke-width: 0.8"/>
      </g>
     </g>
     <g id="text_6">
      <!-- 10 -->
      <g transform="translate(545.991287 332.638438) scale(0.1 -0.1)">
       <use xlink:href="#DejaVuSans-31"/>
       <use xlink:href="#DejaVuSans-30" x="63.623047"/>
      </g>
     </g>
    </g>
    <g id="xtick_7">
     <g id="line2d_13">
      <path d="M 650.239033 318.04 
L 650.239033 26.88 
" clip-path="url(#pe4433733c2)" style="fill: none; stroke: #b0b0b0; stroke-width: 0.8; stroke-linecap: square"/>
     </g>
     <g id="line2d_14">
      <g>
       <use xlink:href="#me67a2468cf" x="650.239033" y="318.04" style="stroke: #000000; stroke-width: 0.8"/>
      </g>
     </g>
     <g id="text_7">
      <!-- 20 -->
      <g transform="translate(643.876533 332.638438) scale(0.1 -0.1)">
       <use xlink:href="#DejaVuSans-32"/>
       <use xlink:href="#DejaVuSans-30" x="63.623047"/>
      </g>
     </g>
    </g>
    <g id="xtick_8">
     <g id="line2d_15">
      <path d="M 748.12428 318.04 
L 748.12428 26.88 
" clip-path="url(#pe4433733c2)" style="fill: none; stroke: #b0b0b0; stroke-width: 0.8; stroke-linecap: square"/>
     </g>
     <g id="line2d_16">
      <g>
       <use xlink:href="#me67a2468cf" x="748.12428" y="318.04" style="stroke: #000000; stroke-width: 0.8"/>
      </g>
     </g>
     <g id="text_8">
      <!-- 30 -->
      <g transform="translate(741.76178 332.638438) scale(0.1 -0.1)">
       <use xlink:href="#DejaVuSans-33"/>
       <use xlink:href="#DejaVuSans-30" x="63.623047"/>
      </g>
     </g>
    </g>
    <g id="xtick_9">
     <g id="line2d_17">
      <path d="M 846.009526 318.04 
L 846.009526 26.88 
" clip-path="url(#pe4433733c2)" style="fill: none; stroke: #b0b0b0; stroke-width: 0.8; stroke-linecap: square"/>
     </g>
     <g id="line2d_18">
      <g>
       <use xlink:href="#me67a2468cf" x="846.009526" y="318.04" style="stroke: #000000; stroke-width: 0.8"/>
      </g>
     </g>
     <g id="text_9">
      <!-- 40 -->
      <g transform="translate(839.647026 332.638438) scale(0.1 -0.1)">
       <use xlink:href="#DejaVuSans-34"/>
       <use xlink:href="#DejaVuSans-30" x="63.623047"/>
      </g>
     </g>
    </g>
    <g id="text_10">
     <!-- Time Lag (s) -->
     <g transform="translate(423.526353 346.316563) scale(0.1 -0.1)">
      <defs>
       <path id="DejaVuSans-54" d="M -19 4666 
L 3928 4666 
L 3928 4134 
L 2272 4134 
L 2272 0 
L 1638 0 
L 1638 4134 
L -19 4134 
L -19 4666 
z
" transform="scale(0.015625)"/>
       <path id="DejaVuSans-69" d="M 603 3500 
L 1178 3500 
L 1178 0 
L 603 0 
L 603 3500 
z
M 603 4863 
L 1178 4863 
L 1178 4134 
L 603 4134 
L 603 4863 
z
" transform="scale(0.015625)"/>
       <path id="DejaVuSans-6d" d="M 3328 2828 
Q 3544 3216 3844 3400 
Q 4144 3584 4550 3584 
Q 5097 3584 5394 3201 
Q 5691 2819 5691 2113 
L 5691 0 
L 5113 0 
L 5113 2094 
Q 5113 2597 4934 2840 
Q 4756 3084 4391 3084 
Q 3944 3084 3684 2787 
Q 3425 2491 3425 1978 
L 3425 0 
L 2847 0 
L 2847 2094 
Q 2847 2600 2669 2842 
Q 2491 3084 2119 3084 
Q 1678 3084 1418 2786 
Q 1159 2488 1159 1978 
L 1159 0 
L 581 0 
L 581 3500 
L 1159 3500 
L 1159 2956 
Q 1356 3278 1631 3431 
Q 1906 3584 2284 3584 
Q 2666 3584 2933 3390 
Q 3200 3197 3328 2828 
z
" transform="scale(0.015625)"/>
       <path id="DejaVuSans-65" d="M 3597 1894 
L 3597 1613 
L 953 1613 
Q 991 1019 1311 708 
Q 1631 397 2203 397 
Q 2534 397 2845 478 
Q 3156 559 3463 722 
L 3463 178 
Q 3153 47 2828 -22 
Q 2503 -91 2169 -91 
Q 1331 -91 842 396 
Q 353 884 353 1716 
Q 353 2575 817 3079 
Q 1281 3584 2069 3584 
Q 2775 3584 3186 3129 
Q 3597 2675 3597 1894 
z
M 3022 2063 
Q 3016 2534 2758 2815 
Q 2500 3097 2075 3097 
Q 1594 3097 1305 2825 
Q 1016 2553 972 2059 
L 3022 2063 
z
" transform="scale(0.015625)"/>
       <path id="DejaVuSans-20" transform="scale(0.015625)"/>
       <path id="DejaVuSans-4c" d="M 628 4666 
L 1259 4666 
L 1259 531 
L 3531 531 
L 3531 0 
L 628 0 
L 628 4666 
z
" transform="scale(0.015625)"/>
       <path id="DejaVuSans-61" d="M 2194 1759 
Q 1497 1759 1228 1600 
Q 959 1441 959 1056 
Q 959 750 1161 570 
Q 1363 391 1709 391 
Q 2188 391 2477 730 
Q 2766 1069 2766 1631 
L 2766 1759 
L 2194 1759 
z
M 3341 1997 
L 3341 0 
L 2766 0 
L 2766 531 
Q 2569 213 2275 61 
Q 1981 -91 1556 -91 
Q 1019 -91 701 211 
Q 384 513 384 1019 
Q 384 1609 779 1909 
Q 1175 2209 1959 2209 
L 2766 2209 
L 2766 2266 
Q 2766 2663 2505 2880 
Q 2244 3097 1772 3097 
Q 1472 3097 1187 3025 
Q 903 2953 641 2809 
L 641 3341 
Q 956 3463 1253 3523 
Q 1550 3584 1831 3584 
Q 2591 3584 2966 3190 
Q 3341 2797 3341 1997 
z
" transform="scale(0.015625)"/>
       <path id="DejaVuSans-67" d="M 2906 1791 
Q 2906 2416 2648 2759 
Q 2391 3103 1925 3103 
Q 1463 3103 1205 2759 
Q 947 2416 947 1791 
Q 947 1169 1205 825 
Q 1463 481 1925 481 
Q 2391 481 2648 825 
Q 2906 1169 2906 1791 
z
M 3481 434 
Q 3481 -459 3084 -895 
Q 2688 -1331 1869 -1331 
Q 1566 -1331 1297 -1286 
Q 1028 -1241 775 -1147 
L 775 -588 
Q 1028 -725 1275 -790 
Q 1522 -856 1778 -856 
Q 2344 -856 2625 -561 
Q 2906 -266 2906 331 
L 2906 616 
Q 2728 306 2450 153 
Q 2172 0 1784 0 
Q 1141 0 747 490 
Q 353 981 353 1791 
Q 353 2603 747 3093 
Q 1141 3584 1784 3584 
Q 2172 3584 2450 3431 
Q 2728 3278 2906 2969 
L 2906 3500 
L 3481 3500 
L 3481 434 
z
" transform="scale(0.015625)"/>
       <path id="DejaVuSans-28" d="M 1984 4856 
Q 1566 4138 1362 3434 
Q 1159 2731 1159 2009 
Q 1159 1288 1364 580 
Q 1569 -128 1984 -844 
L 1484 -844 
Q 1016 -109 783 600 
Q 550 1309 550 2009 
Q 550 2706 781 3412 
Q 1013 4119 1484 4856 
L 1984 4856 
z
" transform="scale(0.015625)"/>
       <path id="DejaVuSans-73" d="M 2834 3397 
L 2834 2853 
Q 2591 2978 2328 3040 
Q 2066 3103 1784 3103 
Q 1356 3103 1142 2972 
Q 928 2841 928 2578 
Q 928 2378 1081 2264 
Q 1234 2150 1697 2047 
L 1894 2003 
Q 2506 1872 2764 1633 
Q 3022 1394 3022 966 
Q 3022 478 2636 193 
Q 2250 -91 1575 -91 
Q 1294 -91 989 -36 
Q 684 19 347 128 
L 347 722 
Q 666 556 975 473 
Q 1284 391 1588 391 
Q 1994 391 2212 530 
Q 2431 669 2431 922 
Q 2431 1156 2273 1281 
Q 2116 1406 1581 1522 
L 1381 1569 
Q 847 1681 609 1914 
Q 372 2147 372 2553 
Q 372 3047 722 3315 
Q 1072 3584 1716 3584 
Q 2034 3584 2315 3537 
Q 2597 3491 2834 3397 
z
" transform="scale(0.015625)"/>
       <path id="DejaVuSans-29" d="M 513 4856 
L 1013 4856 
Q 1481 4119 1714 3412 
Q 1947 2706 1947 2009 
Q 1947 1309 1714 600 
Q 1481 -109 1013 -844 
L 513 -844 
Q 928 -128 1133 580 
Q 1338 1288 1338 2009 
Q 1338 2731 1133 3434 
Q 928 4138 513 4856 
z
" transform="scale(0.015625)"/>
      </defs>
      <use xlink:href="#DejaVuSans-54"/>
      <use xlink:href="#DejaVuSans-69" x="57.958984"/>
      <use xlink:href="#DejaVuSans-6d" x="85.742188"/>
      <use xlink:href="#DejaVuSans-65" x="183.154297"/>
      <use xlink:href="#DejaVuSans-20" x="244.677734"/>
      <use xlink:href="#DejaVuSans-4c" x="276.464844"/>
      <use xlink:href="#DejaVuSans-61" x="332.177734"/>
      <use xlink:href="#DejaVuSans-67" x="393.457031"/>
      <use xlink:href="#DejaVuSans-20" x="456.933594"/>
      <use xlink:href="#DejaVuSans-28" x="488.720703"/>
      <use xlink:href="#DejaVuSans-73" x="527.734375"/>
      <use xlink:href="#DejaVuSans-29" x="579.833984"/>
     </g>
    </g>
   </g>
   <g id="matplotlib.axis_2">
    <g id="ytick_1">
     <g id="line2d_19">
      <path d="M 57.26 303.705242 
L 851.677082 303.705242 
" clip-path="url(#pe4433733c2)" style="fill: none; stroke: #b0b0b0; stroke-width: 0.8; stroke-linecap: square"/>
     </g>
     <g id="line2d_20">
      <defs>
       <path id="mc76120739c" d="M 0 0 
L -3.5 0 
" style="stroke: #000000; stroke-width: 0.8"/>
      </defs>
      <g>
       <use xlink:href="#mc76120739c" x="57.26" y="303.705242" style="stroke: #000000; stroke-width: 0.8"/>
      </g>
     </g>
     <g id="text_11">
      <!-- 500 -->
      <g transform="translate(31.1725 307.504461) scale(0.1 -0.1)">
       <defs>
        <path id="DejaVuSans-35" d="M 691 4666 
L 3169 4666 
L 3169 4134 
L 1269 4134 
L 1269 2991 
Q 1406 3038 1543 3061 
Q 1681 3084 1819 3084 
Q 2600 3084 3056 2656 
Q 3513 2228 3513 1497 
Q 3513 744 3044 326 
Q 2575 -91 1722 -91 
Q 1428 -91 1123 -41 
Q 819 9 494 109 
L 494 744 
Q 775 591 1075 516 
Q 1375 441 1709 441 
Q 2250 441 2565 725 
Q 2881 1009 2881 1497 
Q 2881 1984 2565 2268 
Q 2250 2553 1709 2553 
Q 1456 2553 1204 2497 
Q 953 2441 691 2322 
L 691 4666 
z
" transform="scale(0.015625)"/>
       </defs>
       <use xlink:href="#DejaVuSans-35"/>
       <use xlink:href="#DejaVuSans-30" x="63.623047"/>
       <use xlink:href="#DejaVuSans-30" x="127.246094"/>
      </g>
     </g>
    </g>
    <g id="ytick_2">
     <g id="line2d_21">
      <path d="M 57.26 271.285175 
L 851.677082 271.285175 
" clip-path="url(#pe4433733c2)" style="fill: none; stroke: #b0b0b0; stroke-width: 0.8; stroke-linecap: square"/>
     </g>
     <g id="line2d_22">
      <g>
       <use xlink:href="#mc76120739c" x="57.26" y="271.285175" style="stroke: #000000; stroke-width: 0.8"/>
      </g>
     </g>
     <g id="text_12">
      <!-- 600 -->
      <g transform="translate(31.1725 275.084394) scale(0.1 -0.1)">
       <defs>
        <path id="DejaVuSans-36" d="M 2113 2584 
Q 1688 2584 1439 2293 
Q 1191 2003 1191 1497 
Q 1191 994 1439 701 
Q 1688 409 2113 409 
Q 2538 409 2786 701 
Q 3034 994 3034 1497 
Q 3034 2003 2786 2293 
Q 2538 2584 2113 2584 
z
M 3366 4563 
L 3366 3988 
Q 3128 4100 2886 4159 
Q 2644 4219 2406 4219 
Q 1781 4219 1451 3797 
Q 1122 3375 1075 2522 
Q 1259 2794 1537 2939 
Q 1816 3084 2150 3084 
Q 2853 3084 3261 2657 
Q 3669 2231 3669 1497 
Q 3669 778 3244 343 
Q 2819 -91 2113 -91 
Q 1303 -91 875 529 
Q 447 1150 447 2328 
Q 447 3434 972 4092 
Q 1497 4750 2381 4750 
Q 2619 4750 2861 4703 
Q 3103 4656 3366 4563 
z
" transform="scale(0.015625)"/>
       </defs>
       <use xlink:href="#DejaVuSans-36"/>
       <use xlink:href="#DejaVuSans-30" x="63.623047"/>
       <use xlink:href="#DejaVuSans-30" x="127.246094"/>
      </g>
     </g>
    </g>
    <g id="ytick_3">
     <g id="line2d_23">
      <path d="M 57.26 238.865107 
L 851.677082 238.865107 
" clip-path="url(#pe4433733c2)" style="fill: none; stroke: #b0b0b0; stroke-width: 0.8; stroke-linecap: square"/>
     </g>
     <g id="line2d_24">
      <g>
       <use xlink:href="#mc76120739c" x="57.26" y="238.865107" style="stroke: #000000; stroke-width: 0.8"/>
      </g>
     </g>
     <g id="text_13">
      <!-- 700 -->
      <g transform="translate(31.1725 242.664326) scale(0.1 -0.1)">
       <defs>
        <path id="DejaVuSans-37" d="M 525 4666 
L 3525 4666 
L 3525 4397 
L 1831 0 
L 1172 0 
L 2766 4134 
L 525 4134 
L 525 4666 
z
" transform="scale(0.015625)"/>
       </defs>
       <use xlink:href="#DejaVuSans-37"/>
       <use xlink:href="#DejaVuSans-30" x="63.623047"/>
       <use xlink:href="#DejaVuSans-30" x="127.246094"/>
      </g>
     </g>
    </g>
    <g id="ytick_4">
     <g id="line2d_25">
      <path d="M 57.26 206.44504 
L 851.677082 206.44504 
" clip-path="url(#pe4433733c2)" style="fill: none; stroke: #b0b0b0; stroke-width: 0.8; stroke-linecap: square"/>
     </g>
     <g id="line2d_26">
      <g>
       <use xlink:href="#mc76120739c" x="57.26" y="206.44504" style="stroke: #000000; stroke-width: 0.8"/>
      </g>
     </g>
     <g id="text_14">
      <!-- 800 -->
      <g transform="translate(31.1725 210.244259) scale(0.1 -0.1)">
       <defs>
        <path id="DejaVuSans-38" d="M 2034 2216 
Q 1584 2216 1326 1975 
Q 1069 1734 1069 1313 
Q 1069 891 1326 650 
Q 1584 409 2034 409 
Q 2484 409 2743 651 
Q 3003 894 3003 1313 
Q 3003 1734 2745 1975 
Q 2488 2216 2034 2216 
z
M 1403 2484 
Q 997 2584 770 2862 
Q 544 3141 544 3541 
Q 544 4100 942 4425 
Q 1341 4750 2034 4750 
Q 2731 4750 3128 4425 
Q 3525 4100 3525 3541 
Q 3525 3141 3298 2862 
Q 3072 2584 2669 2484 
Q 3125 2378 3379 2068 
Q 3634 1759 3634 1313 
Q 3634 634 3220 271 
Q 2806 -91 2034 -91 
Q 1263 -91 848 271 
Q 434 634 434 1313 
Q 434 1759 690 2068 
Q 947 2378 1403 2484 
z
M 1172 3481 
Q 1172 3119 1398 2916 
Q 1625 2713 2034 2713 
Q 2441 2713 2670 2916 
Q 2900 3119 2900 3481 
Q 2900 3844 2670 4047 
Q 2441 4250 2034 4250 
Q 1625 4250 1398 4047 
Q 1172 3844 1172 3481 
z
" transform="scale(0.015625)"/>
       </defs>
       <use xlink:href="#DejaVuSans-38"/>
       <use xlink:href="#DejaVuSans-30" x="63.623047"/>
       <use xlink:href="#DejaVuSans-30" x="127.246094"/>
      </g>
     </g>
    </g>
    <g id="ytick_5">
     <g id="line2d_27">
      <path d="M 57.26 174.024972 
L 851.677082 174.024972 
" clip-path="url(#pe4433733c2)" style="fill: none; stroke: #b0b0b0; stroke-width: 0.8; stroke-linecap: square"/>
     </g>
     <g id="line2d_28">
      <g>
       <use xlink:href="#mc76120739c" x="57.26" y="174.024972" style="stroke: #000000; stroke-width: 0.8"/>
      </g>
     </g>
     <g id="text_15">
      <!-- 900 -->
      <g transform="translate(31.1725 177.824191) scale(0.1 -0.1)">
       <defs>
        <path id="DejaVuSans-39" d="M 703 97 
L 703 672 
Q 941 559 1184 500 
Q 1428 441 1663 441 
Q 2288 441 2617 861 
Q 2947 1281 2994 2138 
Q 2813 1869 2534 1725 
Q 2256 1581 1919 1581 
Q 1219 1581 811 2004 
Q 403 2428 403 3163 
Q 403 3881 828 4315 
Q 1253 4750 1959 4750 
Q 2769 4750 3195 4129 
Q 3622 3509 3622 2328 
Q 3622 1225 3098 567 
Q 2575 -91 1691 -91 
Q 1453 -91 1209 -44 
Q 966 3 703 97 
z
M 1959 2075 
Q 2384 2075 2632 2365 
Q 2881 2656 2881 3163 
Q 2881 3666 2632 3958 
Q 2384 4250 1959 4250 
Q 1534 4250 1286 3958 
Q 1038 3666 1038 3163 
Q 1038 2656 1286 2365 
Q 1534 2075 1959 2075 
z
" transform="scale(0.015625)"/>
       </defs>
       <use xlink:href="#DejaVuSans-39"/>
       <use xlink:href="#DejaVuSans-30" x="63.623047"/>
       <use xlink:href="#DejaVuSans-30" x="127.246094"/>
      </g>
     </g>
    </g>
    <g id="ytick_6">
     <g id="line2d_29">
      <path d="M 57.26 141.604905 
L 851.677082 141.604905 
" clip-path="url(#pe4433733c2)" style="fill: none; stroke: #b0b0b0; stroke-width: 0.8; stroke-linecap: square"/>
     </g>
     <g id="line2d_30">
      <g>
       <use xlink:href="#mc76120739c" x="57.26" y="141.604905" style="stroke: #000000; stroke-width: 0.8"/>
      </g>
     </g>
     <g id="text_16">
      <!-- 1000 -->
      <g transform="translate(24.81 145.404124) scale(0.1 -0.1)">
       <use xlink:href="#DejaVuSans-31"/>
       <use xlink:href="#DejaVuSans-30" x="63.623047"/>
       <use xlink:href="#DejaVuSans-30" x="127.246094"/>
       <use xlink:href="#DejaVuSans-30" x="190.869141"/>
      </g>
     </g>
    </g>
    <g id="ytick_7">
     <g id="line2d_31">
      <path d="M 57.26 109.184837 
L 851.677082 109.184837 
" clip-path="url(#pe4433733c2)" style="fill: none; stroke: #b0b0b0; stroke-width: 0.8; stroke-linecap: square"/>
     </g>
     <g id="line2d_32">
      <g>
       <use xlink:href="#mc76120739c" x="57.26" y="109.184837" style="stroke: #000000; stroke-width: 0.8"/>
      </g>
     </g>
     <g id="text_17">
      <!-- 1100 -->
      <g transform="translate(24.81 112.984056) scale(0.1 -0.1)">
       <use xlink:href="#DejaVuSans-31"/>
       <use xlink:href="#DejaVuSans-31" x="63.623047"/>
       <use xlink:href="#DejaVuSans-30" x="127.246094"/>
       <use xlink:href="#DejaVuSans-30" x="190.869141"/>
      </g>
     </g>
    </g>
    <g id="ytick_8">
     <g id="line2d_33">
      <path d="M 57.26 76.76477 
L 851.677082 76.76477 
" clip-path="url(#pe4433733c2)" style="fill: none; stroke: #b0b0b0; stroke-width: 0.8; stroke-linecap: square"/>
     </g>
     <g id="line2d_34">
      <g>
       <use xlink:href="#mc76120739c" x="57.26" y="76.76477" style="stroke: #000000; stroke-width: 0.8"/>
      </g>
     </g>
     <g id="text_18">
      <!-- 1200 -->
      <g transform="translate(24.81 80.563989) scale(0.1 -0.1)">
       <use xlink:href="#DejaVuSans-31"/>
       <use xlink:href="#DejaVuSans-32" x="63.623047"/>
       <use xlink:href="#DejaVuSans-30" x="127.246094"/>
       <use xlink:href="#DejaVuSans-30" x="190.869141"/>
      </g>
     </g>
    </g>
    <g id="ytick_9">
     <g id="line2d_35">
      <path d="M 57.26 44.344703 
L 851.677082 44.344703 
" clip-path="url(#pe4433733c2)" style="fill: none; stroke: #b0b0b0; stroke-width: 0.8; stroke-linecap: square"/>
     </g>
     <g id="line2d_36">
      <g>
       <use xlink:href="#mc76120739c" x="57.26" y="44.344703" style="stroke: #000000; stroke-width: 0.8"/>
      </g>
     </g>
     <g id="text_19">
      <!-- 1300 -->
      <g transform="translate(24.81 48.143921) scale(0.1 -0.1)">
       <use xlink:href="#DejaVuSans-31"/>
       <use xlink:href="#DejaVuSans-33" x="63.623047"/>
       <use xlink:href="#DejaVuSans-30" x="127.246094"/>
       <use xlink:href="#DejaVuSans-30" x="190.869141"/>
      </g>
     </g>
    </g>
    <g id="text_20">
     <!-- Cross-correlation -->
     <g transform="translate(18.730313 214.793594) rotate(-90) scale(0.1 -0.1)">
      <defs>
       <path id="DejaVuSans-43" d="M 4122 4306 
L 4122 3641 
Q 3803 3938 3442 4084 
Q 3081 4231 2675 4231 
Q 1875 4231 1450 3742 
Q 1025 3253 1025 2328 
Q 1025 1406 1450 917 
Q 1875 428 2675 428 
Q 3081 428 3442 575 
Q 3803 722 4122 1019 
L 4122 359 
Q 3791 134 3420 21 
Q 3050 -91 2638 -91 
Q 1578 -91 968 557 
Q 359 1206 359 2328 
Q 359 3453 968 4101 
Q 1578 4750 2638 4750 
Q 3056 4750 3426 4639 
Q 3797 4528 4122 4306 
z
" transform="scale(0.015625)"/>
       <path id="DejaVuSans-72" d="M 2631 2963 
Q 2534 3019 2420 3045 
Q 2306 3072 2169 3072 
Q 1681 3072 1420 2755 
Q 1159 2438 1159 1844 
L 1159 0 
L 581 0 
L 581 3500 
L 1159 3500 
L 1159 2956 
Q 1341 3275 1631 3429 
Q 1922 3584 2338 3584 
Q 2397 3584 2469 3576 
Q 2541 3569 2628 3553 
L 2631 2963 
z
" transform="scale(0.015625)"/>
       <path id="DejaVuSans-6f" d="M 1959 3097 
Q 1497 3097 1228 2736 
Q 959 2375 959 1747 
Q 959 1119 1226 758 
Q 1494 397 1959 397 
Q 2419 397 2687 759 
Q 2956 1122 2956 1747 
Q 2956 2369 2687 2733 
Q 2419 3097 1959 3097 
z
M 1959 3584 
Q 2709 3584 3137 3096 
Q 3566 2609 3566 1747 
Q 3566 888 3137 398 
Q 2709 -91 1959 -91 
Q 1206 -91 779 398 
Q 353 888 353 1747 
Q 353 2609 779 3096 
Q 1206 3584 1959 3584 
z
" transform="scale(0.015625)"/>
       <path id="DejaVuSans-2d" d="M 313 2009 
L 1997 2009 
L 1997 1497 
L 313 1497 
L 313 2009 
z
" transform="scale(0.015625)"/>
       <path id="DejaVuSans-63" d="M 3122 3366 
L 3122 2828 
Q 2878 2963 2633 3030 
Q 2388 3097 2138 3097 
Q 1578 3097 1268 2742 
Q 959 2388 959 1747 
Q 959 1106 1268 751 
Q 1578 397 2138 397 
Q 2388 397 2633 464 
Q 2878 531 3122 666 
L 3122 134 
Q 2881 22 2623 -34 
Q 2366 -91 2075 -91 
Q 1284 -91 818 406 
Q 353 903 353 1747 
Q 353 2603 823 3093 
Q 1294 3584 2113 3584 
Q 2378 3584 2631 3529 
Q 2884 3475 3122 3366 
z
" transform="scale(0.015625)"/>
       <path id="DejaVuSans-6c" d="M 603 4863 
L 1178 4863 
L 1178 0 
L 603 0 
L 603 4863 
z
" transform="scale(0.015625)"/>
       <path id="DejaVuSans-74" d="M 1172 4494 
L 1172 3500 
L 2356 3500 
L 2356 3053 
L 1172 3053 
L 1172 1153 
Q 1172 725 1289 603 
Q 1406 481 1766 481 
L 2356 481 
L 2356 0 
L 1766 0 
Q 1100 0 847 248 
Q 594 497 594 1153 
L 594 3053 
L 172 3053 
L 172 3500 
L 594 3500 
L 594 4494 
L 1172 4494 
z
" transform="scale(0.015625)"/>
       <path id="DejaVuSans-6e" d="M 3513 2113 
L 3513 0 
L 2938 0 
L 2938 2094 
Q 2938 2591 2744 2837 
Q 2550 3084 2163 3084 
Q 1697 3084 1428 2787 
Q 1159 2491 1159 1978 
L 1159 0 
L 581 0 
L 581 3500 
L 1159 3500 
L 1159 2956 
Q 1366 3272 1645 3428 
Q 1925 3584 2291 3584 
Q 2894 3584 3203 3211 
Q 3513 2838 3513 2113 
z
" transform="scale(0.015625)"/>
      </defs>
      <use xlink:href="#DejaVuSans-43"/>
      <use xlink:href="#DejaVuSans-72" x="69.824219"/>
      <use xlink:href="#DejaVuSans-6f" x="108.6875"/>
      <use xlink:href="#DejaVuSans-73" x="169.869141"/>
      <use xlink:href="#DejaVuSans-73" x="221.96875"/>
      <use xlink:href="#DejaVuSans-2d" x="274.068359"/>
      <use xlink:href="#DejaVuSans-63" x="310.152344"/>
      <use xlink:href="#DejaVuSans-6f" x="365.132812"/>
      <use xlink:href="#DejaVuSans-72" x="426.314453"/>
      <use xlink:href="#DejaVuSans-72" x="465.677734"/>
      <use xlink:href="#DejaVuSans-65" x="504.541016"/>
      <use xlink:href="#DejaVuSans-6c" x="566.064453"/>
      <use xlink:href="#DejaVuSans-61" x="593.847656"/>
      <use xlink:href="#DejaVuSans-74" x="655.126953"/>
      <use xlink:href="#DejaVuSans-69" x="694.335938"/>
      <use xlink:href="#DejaVuSans-6f" x="722.119141"/>
      <use xlink:href="#DejaVuSans-6e" x="783.300781"/>
     </g>
    </g>
   </g>
   <g id="line2d_37">
    <path d="M 93.369867 255.768024 
L 93.859294 255.359872 
L 94.446605 254.566057 
L 95.131802 253.2326 
L 96.60008 250.135797 
L 98.753556 246.01168 
L 99.536638 245.038229 
L 100.026064 244.715473 
L 100.51549 244.661463 
L 101.004917 244.883137 
L 101.592228 245.472428 
L 102.37531 246.655906 
L 103.060507 247.554058 
L 103.745703 248.086093 
L 104.23513 248.230305 
L 104.724556 248.163401 
L 105.213982 247.877735 
L 105.801294 247.235691 
L 107.269572 245.03007 
L 108.34631 242.862189 
L 110.20613 239.000224 
L 110.891326 238.173224 
L 111.380753 237.882679 
L 111.870179 237.849199 
L 112.359605 238.054614 
L 112.946917 238.583349 
L 114.023654 239.538233 
L 115.198277 240.341793 
L 116.079244 240.693268 
L 116.764441 240.732445 
L 117.449638 240.59344 
L 118.036949 240.230783 
L 118.624261 239.595008 
L 119.309458 238.502734 
L 120.28831 236.423987 
L 121.756589 233.503127 
L 122.735441 231.995464 
L 123.420638 231.275269 
L 124.791031 230.323721 
L 125.476228 230.1753 
L 126.06354 230.266542 
L 126.748736 230.616764 
L 128.706441 231.813645 
L 129.293753 231.892443 
L 129.783179 231.774887 
L 130.272605 231.43924 
L 131.251458 230.329701 
L 132.132425 229.043319 
L 133.209163 227.016311 
L 134.873212 223.850431 
L 135.558408 222.895499 
L 136.14572 222.432662 
L 136.635146 222.335546 
L 137.026687 222.461154 
L 137.516113 222.856669 
L 138.788622 224.357879 
L 140.452671 226.315878 
L 141.039982 226.639746 
L 142.018835 226.778813 
L 142.508261 226.609184 
L 142.997687 226.200638 
L 143.584999 225.39585 
L 144.368081 223.871134 
L 146.913097 218.557409 
L 147.500409 217.988246 
L 147.989835 217.845487 
L 148.675031 218.0005 
L 149.360228 218.370781 
L 150.14331 219.065125 
L 151.611589 220.44038 
L 152.688327 220.940585 
L 153.177753 220.902158 
L 153.667179 220.606459 
L 154.156605 220.039765 
L 154.743917 219.017272 
L 155.820654 216.572344 
L 157.191048 213.613066 
L 157.97413 212.441842 
L 158.463556 212.026965 
L 159.050868 211.831239 
L 159.736064 211.777197 
L 160.323376 211.947626 
L 161.106458 212.455644 
L 162.672622 213.589734 
L 163.357818 213.813454 
L 163.847245 213.752901 
L 164.336671 213.479234 
L 164.923982 212.86518 
L 165.609179 211.776676 
L 167.566884 208.366166 
L 168.545736 207.080369 
L 169.230933 206.528215 
L 170.503441 205.96206 
L 171.188638 205.905291 
L 172.069605 206.083915 
L 173.537884 206.453663 
L 174.223081 206.355933 
L 174.908278 206.011068 
L 175.691359 205.330689 
L 178.138491 202.809225 
L 179.606769 201.793866 
L 181.564474 200.892724 
L 182.347556 200.805501 
L 183.130638 200.947692 
L 184.011605 201.151562 
L 184.794687 201.061085 
L 185.675655 200.723924 
L 186.458737 200.2061 
L 189.68895 197.299801 
L 191.255114 195.18506 
L 192.233966 194.0642 
L 192.919163 193.596892 
L 193.408589 193.490115 
L 193.898015 193.608329 
L 195.85572 194.667019 
L 197.128228 195.398419 
L 197.813425 195.48923 
L 198.400737 195.397047 
L 198.890163 195.116641 
L 199.477474 194.476295 
L 200.064786 193.495695 
L 200.847868 191.7134 
L 202.609802 187.441272 
L 203.392884 186.083657 
L 203.980196 185.472627 
L 204.371737 185.318626 
L 204.861163 185.38122 
L 205.448474 185.67668 
L 206.035786 186.242512 
L 206.818868 187.354785 
L 208.287146 189.560737 
L 208.874458 190.024244 
L 209.265999 190.10249 
L 209.65754 189.970167 
L 210.049081 189.614288 
L 210.538507 188.855924 
L 211.125819 187.509223 
L 212.104671 184.546431 
L 213.670835 180.063762 
L 214.453917 178.488481 
L 214.943343 177.923773 
L 215.432769 177.725385 
L 215.82431 177.779005 
L 216.215851 178.043345 
L 216.705278 178.666293 
L 217.292589 179.790185 
L 218.271442 182.242703 
L 219.250294 184.531909 
L 219.837606 185.32583 
L 220.229147 185.556876 
L 220.620688 185.527252 
L 221.012228 185.225611 
L 221.403769 184.644731 
L 221.893196 183.520951 
L 222.774163 180.728261 
L 224.536097 174.309562 
L 225.51495 171.213148 
L 226.102261 169.961878 
L 226.591688 169.358817 
L 226.983229 169.20838 
L 227.276884 169.294301 
L 227.668425 169.671195 
L 228.157851 170.538506 
L 228.745163 172.099323 
L 231.290179 179.804377 
L 231.877491 180.7199 
L 232.269032 180.983682 
L 232.562688 180.969359 
L 232.954229 180.673452 
L 233.443655 179.938042 
L 233.933081 178.759853 
L 234.618278 176.393102 
L 235.59713 171.991544 
L 236.967524 165.859206 
L 237.65272 163.821729 
L 238.142147 162.971918 
L 238.533688 162.689911 
L 238.827343 162.714588 
L 239.120999 162.946318 
L 239.51254 163.573906 
L 240.099852 165.076409 
L 240.980819 168.002465 
L 243.036409 175.199165 
L 243.525835 176.107322 
L 243.917376 176.428172 
L 244.211032 176.404246 
L 244.504688 176.139421 
L 244.896229 175.406086 
L 245.385655 173.90606 
L 246.070852 170.881183 
L 247.34336 163.752138 
L 248.322212 159.007911 
L 249.007409 156.700291 
L 249.496835 155.717485 
L 249.888376 155.386907 
L 250.182032 155.42383 
L 250.573573 155.82668 
L 251.062999 156.770643 
L 251.650311 158.522153 
L 252.433393 161.689294 
L 254.195327 169.141991 
L 254.684753 170.340754 
L 255.076294 170.828106 
L 255.36995 170.895292 
L 255.663606 170.700006 
L 256.055147 170.037022 
L 256.544573 168.597639 
L 257.131884 166.073295 
L 258.600163 158.12812 
L 259.676901 152.949981 
L 260.362098 150.662556 
L 260.851524 149.745964 
L 261.243065 149.488253 
L 261.53672 149.561431 
L 261.830376 149.871949 
L 262.221917 150.65559 
L 262.711343 152.191196 
L 263.39654 155.183578 
L 265.550016 165.520144 
L 266.039442 166.769265 
L 266.430983 167.295813 
L 266.724639 167.399146 
L 267.018294 167.247863 
L 267.31195 166.838848 
L 267.703491 165.893685 
L 268.290802 163.729532 
L 269.073884 159.938139 
L 271.912557 145.077789 
L 272.401983 143.958874 
L 272.793524 143.601375 
L 273.08718 143.652296 
L 273.380835 143.970903 
L 273.772376 144.787064 
L 274.261802 146.363704 
L 274.946999 149.390445 
L 276.708934 157.576629 
L 277.39413 159.780036 
L 277.883557 160.744717 
L 278.275098 161.068553 
L 278.568753 161.019422 
L 278.862409 160.724411 
L 279.25395 159.950807 
L 279.743376 158.383837 
L 280.330688 155.710244 
L 281.211655 150.538835 
L 282.777819 141.272634 
L 283.36513 139.064797 
L 283.854557 137.978562 
L 284.246098 137.631813 
L 284.539753 137.673459 
L 284.833409 137.967574 
L 285.22495 138.742097 
L 285.714376 140.267003 
L 286.497458 143.497268 
L 289.14036 155.254626 
L 289.531901 156.038227 
L 289.825557 156.290323 
L 290.119212 156.24636 
L 290.412868 155.904594 
L 290.804409 154.992784 
L 291.293835 153.156963 
L 291.979032 149.478276 
L 294.524048 134.20159 
L 295.11136 132.318417 
L 295.502901 131.608513 
L 295.796557 131.386184 
L 296.090212 131.438439 
L 296.383868 131.745129 
L 296.775409 132.507255 
L 297.264835 133.99805 
L 297.950032 136.935709 
L 299.124655 143.293212 
L 300.103507 148.179541 
L 300.690819 150.01747 
L 301.08236 150.667125 
L 301.376016 150.828479 
L 301.669671 150.699725 
L 301.963327 150.279822 
L 302.354868 149.277648 
L 302.844294 147.356849 
L 303.529491 143.681164 
L 304.99777 134.255481 
L 306.074508 128.048742 
L 306.759704 125.344848 
L 307.151245 124.471997 
L 307.444901 124.183395 
L 307.738557 124.199117 
L 308.032212 124.50656 
L 308.423753 125.345477 
L 308.91318 127.016553 
L 309.598376 130.281853 
L 311.849737 141.926785 
L 312.437049 143.689222 
L 312.82859 144.370219 
L 313.122245 144.592236 
L 313.415901 144.553968 
L 313.709557 144.250696 
L 314.101098 143.424151 
L 314.590524 141.727198 
L 315.177835 138.837441 
L 316.156688 132.656728 
L 317.527081 123.987815 
L 318.114393 121.535139 
L 318.603819 120.333785 
L 318.99536 119.926885 
L 319.289016 119.940152 
L 319.582672 120.216187 
L 319.974212 120.96462 
L 320.463639 122.446825 
L 321.148835 125.311038 
L 322.421344 131.733512 
L 323.595967 137.29572 
L 324.183278 139.231105 
L 324.574819 139.986677 
L 324.868475 140.168614 
L 325.064245 140.101267 
L 325.357901 139.720011 
L 325.749442 138.7047 
L 326.238868 136.691344 
L 326.924065 132.756776 
L 329.469081 116.643099 
L 330.056393 114.553528 
L 330.545819 113.512679 
L 330.93736 113.151236 
L 331.231016 113.157996 
L 331.524672 113.410507 
L 331.916213 114.154529 
L 332.405639 115.708246 
L 332.99295 118.380964 
L 333.971803 124.111686 
L 335.244311 131.439073 
L 335.831622 133.506402 
L 336.223163 134.205324 
L 336.516819 134.353746 
L 336.810475 134.18088 
L 337.104131 133.695492 
L 337.495672 132.591719 
L 338.082983 130.078217 
L 338.866065 125.536204 
L 341.704737 107.66623 
L 342.194163 106.016212 
L 342.585704 105.422478 
L 342.781475 105.375159 
L 342.977245 105.492022 
L 343.270901 105.970538 
L 343.662442 107.153098 
L 344.151868 109.408545 
L 344.837065 113.678632 
L 346.892655 127.419685 
L 347.479967 129.772183 
L 347.969393 130.860743 
L 348.263049 131.107222 
L 348.556704 131.041086 
L 348.85036 130.661376 
L 349.241901 129.649761 
L 349.731327 127.539145 
L 350.416524 123.298402 
L 351.493262 114.854566 
L 352.667885 105.962875 
L 353.255196 102.910631 
L 353.744622 101.409583 
L 354.038278 100.990623 
L 354.331934 100.938321 
L 354.62559 101.24249 
L 355.017131 102.169932 
L 355.506557 104.076916 
L 356.191754 107.836863 
L 357.464262 116.543877 
L 358.443114 122.56078 
L 359.030426 125.012376 
L 359.421967 125.963706 
L 359.715622 126.252001 
L 359.911393 126.204828 
L 360.205049 125.774439 
L 360.59659 124.561634 
L 361.086016 122.114536 
L 361.771213 117.275927 
L 364.414114 96.640927 
L 364.903541 94.617082 
L 365.295082 93.69242 
L 365.588737 93.418958 
L 365.784508 93.436195 
L 366.078163 93.754248 
L 366.469704 94.701957 
L 366.861245 96.249311 
L 367.448557 99.726314 
L 368.329524 106.667415 
L 369.797803 118.239846 
L 370.385114 121.25215 
L 370.776655 122.31505 
L 371.070311 122.577851 
L 371.266082 122.49993 
L 371.559737 122.009312 
L 371.951278 120.688546 
L 372.440704 118.091711 
L 373.125901 113.103998 
L 374.692065 99.358094 
L 375.573032 92.594512 
L 376.160344 89.444548 
L 376.64977 87.910263 
L 376.943426 87.50738 
L 377.139196 87.461478 
L 377.334967 87.615188 
L 377.628623 88.256125 
L 378.020164 89.820083 
L 378.50959 92.755105 
L 379.292672 99.031488 
L 380.956721 112.721101 
L 381.544032 115.723503 
L 381.935573 116.850371 
L 382.229229 117.198393 
L 382.425 117.188385 
L 382.62077 116.98558 
L 382.914426 116.326215 
L 383.305967 114.814748 
L 383.795393 112.017875 
L 384.48059 106.727166 
L 385.655213 95.2453 
L 386.73195 85.429045 
L 387.319262 81.68132 
L 387.808688 79.831156 
L 388.102344 79.372785 
L 388.298114 79.351999 
L 388.493885 79.555793 
L 388.787541 80.272382 
L 389.179082 81.948205 
L 389.766393 85.781174 
L 390.64736 93.445676 
L 392.213524 107.146065 
L 392.898721 111.169834 
L 393.388147 112.747745 
L 393.681803 113.099716 
L 393.877573 113.076645 
L 394.073344 112.846964 
L 394.367 112.12147 
L 394.758541 110.466029 
L 395.247967 107.28673 
L 395.933164 101.074373 
L 398.380295 76.640593 
L 398.869721 74.112594 
L 399.261262 73.055284 
L 399.554918 72.864632 
L 399.750688 73.028504 
L 400.044344 73.703834 
L 400.435885 75.365218 
L 400.925311 78.519694 
L 401.708393 85.370741 
L 404.155524 108.436937 
L 404.644951 110.682432 
L 404.938606 111.355399 
L 405.134377 111.508119 
L 405.330147 111.419813 
L 405.525918 111.08139 
L 405.819573 110.092287 
L 406.211114 107.918831 
L 406.798426 103.032331 
L 407.581508 94.271515 
L 409.343442 73.684687 
L 409.930754 69.107766 
L 410.42018 66.874034 
L 410.713836 66.309444 
L 410.909606 66.268378 
L 411.105377 66.496083 
L 411.399033 67.333225 
L 411.790573 69.332905 
L 412.28 73.11043 
L 412.965196 80.314741 
L 415.608098 110.613281 
L 416.097524 113.410701 
L 416.489065 114.512517 
L 416.684836 114.659525 
L 416.880606 114.531305 
L 417.174262 113.821785 
L 417.565803 111.932958 
L 418.055229 108.175333 
L 418.740426 100.820188 
L 420.208705 81.456118 
L 421.089672 71.475399 
L 421.676983 66.966598 
L 422.068524 65.194692 
L 422.36218 64.570819 
L 422.557951 64.499055 
L 422.753721 64.704606 
L 423.047377 65.53027 
L 423.438918 67.570783 
L 423.928344 71.517222 
L 424.613541 79.203997 
L 425.886049 96.999747 
L 426.962787 110.80142 
L 427.550098 116.038773 
L 428.039524 118.586729 
L 428.33318 119.217282 
L 428.528951 119.246113 
L 428.724721 118.959024 
L 429.018377 117.942564 
L 429.409918 115.52717 
L 429.899344 110.939134 
L 430.584541 102.126043 
L 433.325328 63.135814 
L 433.814754 59.738105 
L 434.206295 58.441225 
L 434.402065 58.300376 
L 434.597836 58.508082 
L 434.891492 59.479251 
L 435.283033 61.994154 
L 435.772459 66.985473 
L 436.457656 76.872132 
L 437.632279 98.237332 
L 438.709016 116.446514 
L 439.296328 123.294395 
L 439.687869 126.080391 
L 439.981524 127.12039 
L 440.177295 127.293244 
L 440.373065 127.044355 
L 440.666721 125.884071 
L 441.058262 122.906877 
L 441.547688 117.054144 
L 442.232885 105.578124 
L 443.603279 77.123817 
L 444.582131 59.20299 
L 445.169442 51.980243 
L 445.560983 49.224196 
L 445.854639 48.380311 
L 445.952524 48.341894 
L 446.148295 48.634464 
L 446.441951 49.996768 
L 446.833492 53.497744 
L 447.322918 60.378694 
L 448.008115 73.818713 
L 450.553131 128.634569 
L 451.042557 133.592929 
L 451.336213 135.062924 
L 451.531983 135.381825 
L 451.629869 135.340025 
L 451.825639 134.853127 
L 452.119295 133.124225 
L 452.510836 129.02139 
L 453.000262 121.261876 
L 453.685459 106.495904 
L 456.13259 48.95216 
L 456.622016 42.913981 
L 457.013557 40.481156 
L 457.209328 40.114545 
L 457.307213 40.147197 
L 457.502984 40.644447 
L 457.796639 42.456104 
L 458.18818 46.776094 
L 458.677606 54.931261 
L 459.362803 70.350259 
L 461.614164 125.163684 
L 462.201475 133.298795 
L 462.593016 136.224373 
L 462.886672 137.014882 
L 462.984557 137.007185 
L 463.180328 136.586587 
L 463.473984 134.960136 
L 463.865525 131.023264 
L 464.354951 123.571471 
L 465.040147 109.486764 
L 467.389393 57.770646 
L 467.87882 51.985682 
L 468.270361 49.511966 
L 468.466131 49.031774 
L 468.564016 48.98297 
L 468.759787 49.267865 
L 469.053443 50.649805 
L 469.444984 54.202227 
L 469.93441 61.111351 
L 470.619607 74.361584 
L 473.164623 127.707404 
L 473.654049 133.2083 
L 474.04559 135.722781 
L 474.339246 136.455934 
L 474.535016 136.393815 
L 474.730787 135.898421 
L 475.024443 134.368477 
L 475.415984 130.948678 
L 476.003295 123.256321 
L 476.786377 109.556146 
L 478.646197 75.82172 
L 479.233508 68.996224 
L 479.625049 66.217432 
L 479.918705 65.176328 
L 480.114475 64.989864 
L 480.310246 65.208623 
L 480.603902 66.281767 
L 480.995443 69.037646 
L 481.484869 74.404801 
L 482.170066 84.785204 
L 483.73623 113.695444 
L 484.617197 127.584252 
L 485.204508 134.085033 
L 485.693934 137.32387 
L 485.98759 138.22754 
L 486.183361 138.382821 
L 486.379131 138.179426 
L 486.672787 137.220755 
L 487.064328 134.76184 
L 487.553754 129.959839 
L 488.238951 120.699585 
L 490.783967 83.273382 
L 491.273393 79.624594 
L 491.664934 78.121313 
L 491.860705 77.863608 
L 492.056475 77.939959 
L 492.252246 78.349983 
L 492.545902 79.580757 
L 492.937443 82.326807 
L 493.426869 87.37976 
L 494.209951 98.309633 
L 496.657082 135.459945 
L 497.244393 140.313952 
L 497.635934 142.022882 
L 497.92959 142.449323 
L 498.125361 142.323998 
L 498.321131 141.876194 
L 498.614787 140.619104 
L 499.006328 137.924981 
L 499.593639 132.016809 
L 500.474607 120.341891 
L 502.138656 98.024511 
L 502.725967 92.745924 
L 503.215394 90.10939 
L 503.509049 89.391351 
L 503.70482 89.289167 
L 503.90059 89.491139 
L 504.194246 90.366741 
L 504.585787 92.580986 
L 505.075213 96.898107 
L 505.76041 105.280676 
L 508.501197 142.134371 
L 508.990623 145.305929 
L 509.382164 146.592098 
L 509.577935 146.807544 
L 509.773705 146.738321 
L 509.969476 146.388666 
L 510.263131 145.356763 
L 510.654672 143.093067 
L 511.241984 138.056637 
L 512.025066 129.089079 
L 513.884885 107.022123 
L 514.472197 102.623359 
L 514.863738 100.919433 
L 515.157394 100.372489 
L 515.353164 100.364013 
L 515.548935 100.639992 
L 515.84259 101.577206 
L 516.234131 103.755147 
L 516.723558 107.81569 
L 517.408754 115.453543 
L 519.953771 145.993819 
L 520.541082 149.727327 
L 520.932623 151.02882 
L 521.226279 151.343054 
L 521.422049 151.234321 
L 521.715705 150.598123 
L 522.107246 148.880817 
L 522.596672 145.480142 
L 523.281869 138.884695 
L 525.631115 114.079112 
L 526.120541 111.381099 
L 526.512082 110.287449 
L 526.707853 110.10992 
L 526.903623 110.17993 
L 527.099394 110.496577 
L 527.393049 111.426275 
L 527.78459 113.474715 
L 528.371902 118.095714 
L 529.154984 126.376179 
L 531.308459 150.084642 
L 531.895771 153.983911 
L 532.287312 155.480011 
L 532.580967 155.979547 
L 532.776738 156.012716 
L 532.972508 155.807937 
L 533.266164 155.064121 
L 533.657705 153.304149 
L 534.147131 150.019798 
L 534.930213 142.942139 
L 536.692148 126.130997 
L 537.279459 122.446029 
L 537.768885 120.604462 
L 538.062541 120.09904 
L 538.258312 120.022426 
L 538.454082 120.15626 
L 538.747738 120.753733 
L 539.139279 122.280613 
L 539.628705 125.231326 
L 540.313902 130.902375 
L 541.58641 143.956532 
L 542.565263 153.083666 
L 543.152574 156.909039 
L 543.642 158.834675 
L 543.935656 159.389701 
L 544.131426 159.505594 
L 544.327197 159.420885 
L 544.620853 158.927216 
L 545.012394 157.618967 
L 545.50182 155.068543 
L 546.187017 150.211847 
L 548.438377 132.972799 
L 549.025689 130.353338 
L 549.41723 129.437585 
L 549.710885 129.245171 
L 549.906656 129.355754 
L 550.200312 129.863539 
L 550.591853 131.170453 
L 551.081279 133.755167 
L 551.766476 138.832947 
L 554.409377 160.368035 
L 554.898804 162.417339 
L 555.290345 163.351168 
L 555.584 163.623926 
L 555.779771 163.60321 
L 556.073427 163.277405 
L 556.464967 162.316662 
L 556.954394 160.348076 
L 557.63959 156.4616 
L 559.009984 146.800041 
L 559.890951 141.41745 
L 560.380377 139.44688 
L 560.771918 138.554462 
L 561.065574 138.315802 
L 561.261345 138.370029 
L 561.555 138.772439 
L 561.946541 139.88744 
L 562.435968 142.125154 
L 563.121164 146.493853 
L 565.861951 165.580642 
L 566.449263 167.819809 
L 566.840804 168.677631 
L 567.134459 168.960443 
L 567.428115 168.923906 
L 567.721771 168.572627 
L 568.113312 167.628097 
L 568.602738 165.735525 
L 569.287935 162.025931 
L 571.343525 149.87052 
L 571.832951 148.214107 
L 572.224492 147.481161 
L 572.518148 147.294431 
L 572.811804 147.41564 
L 573.105459 147.837738 
L 573.497 148.837051 
L 574.084312 151.136548 
L 574.867394 155.334697 
L 576.433558 165.533678 
L 577.41241 171.130829 
L 577.999722 173.464981 
L 578.489148 174.5809 
L 578.782804 174.845891 
L 579.076459 174.797965 
L 579.370115 174.444512 
L 579.761656 173.532408 
L 580.251082 171.780495 
L 581.034164 168.029108 
L 582.600328 160.308477 
L 583.285525 157.995534 
L 583.774951 156.98926 
L 584.166492 156.617161 
L 584.460148 156.597003 
L 584.753804 156.802083 
L 585.145345 157.429982 
L 585.634771 158.823219 
L 586.222082 161.328023 
L 587.005164 165.780923 
L 589.060755 178.19811 
L 589.648066 180.295269 
L 590.039607 181.086592 
L 590.333263 181.354392 
L 590.626918 181.348979 
L 590.920574 181.082612 
L 591.312115 180.360382 
L 591.801541 178.959851 
L 592.584623 175.892866 
L 595.031755 165.451784 
L 595.521181 164.285491 
L 595.912722 163.813581 
L 596.206377 163.777336 
L 596.500033 164.025846 
L 596.891574 164.803262 
L 597.381 166.455341 
L 597.968312 169.293976 
L 598.947164 175.307812 
L 600.219673 182.903531 
L 600.904869 185.808695 
L 601.492181 187.366435 
L 601.883722 187.893551 
L 602.177378 188.022623 
L 602.471033 187.930581 
L 602.764689 187.624 
L 603.15623 186.874111 
L 603.645656 185.441531 
L 604.330853 182.695665 
L 606.777984 171.987588 
L 607.169525 171.23829 
L 607.463181 170.99689 
L 607.756837 171.03943 
L 608.050492 171.363607 
L 608.442033 172.219801 
L 608.931459 173.907285 
L 609.616656 177.182753 
L 612.553214 192.632504 
L 613.140525 194.280278 
L 613.532066 194.890895 
L 613.825722 195.057559 
L 614.119378 194.970678 
L 614.413033 194.632065 
L 614.804574 193.808623 
L 615.294001 192.245982 
L 616.077082 188.846822 
L 617.741132 181.303552 
L 618.328443 179.738345 
L 618.719984 179.190773 
L 619.01364 179.055599 
L 619.307296 179.155592 
L 619.600951 179.483777 
L 619.992492 180.259342 
L 620.481919 181.720312 
L 621.167115 184.538363 
L 622.243853 190.110988 
L 623.810017 198.119217 
L 624.397328 200.162291 
L 624.886755 201.142178 
L 625.18041 201.381651 
L 625.474066 201.357746 
L 625.767722 201.077023 
L 626.159263 200.327084 
L 626.648689 198.863908 
L 627.431771 195.652407 
L 628.997935 189.065218 
L 629.683132 187.160067 
L 630.172558 186.383269 
L 630.564099 186.149272 
L 630.857755 186.208658 
L 631.15141 186.481627 
L 631.542951 187.178526 
L 632.032378 188.569009 
L 632.717574 191.374809 
L 633.696427 196.559997 
L 635.06682 203.836323 
L 635.654132 205.971053 
L 636.143558 207.04628 
L 636.535099 207.411824 
L 636.828755 207.397557 
L 637.12241 207.147784 
L 637.513951 206.474144 
L 638.003378 205.161719 
L 638.78646 202.352094 
L 640.744165 194.972392 
L 641.331476 193.552036 
L 641.723017 192.993701 
L 642.016673 192.822898 
L 642.310328 192.880268 
L 642.603984 193.17479 
L 642.995525 193.935196 
L 643.484951 195.444273 
L 644.170148 198.435959 
L 645.442656 205.42183 
L 646.421509 210.165517 
L 647.00882 212.144212 
L 647.498247 213.162002 
L 647.889788 213.550311 
L 648.183443 213.596508 
L 648.477099 213.441838 
L 648.86864 212.939163 
L 649.358066 211.884985 
L 650.043263 209.776962 
L 652.588279 201.145908 
L 652.97982 200.597433 
L 653.273476 200.449851 
L 653.567132 200.539003 
L 653.860788 200.865084 
L 654.252329 201.658977 
L 654.741755 203.173057 
L 655.426951 206.070817 
L 657.971968 217.736403 
L 658.559279 219.295713 
L 659.048706 220.084965 
L 659.440247 220.34256 
L 659.733902 220.306162 
L 660.027558 220.073089 
L 660.419099 219.469388 
L 660.908525 218.295284 
L 661.691607 215.689684 
L 663.551427 209.141275 
L 664.040853 208.221073 
L 664.432394 207.882549 
L 664.72605 207.873871 
L 665.019706 208.073456 
L 665.411247 208.641956 
L 665.900673 209.785447 
L 666.58587 212.030217 
L 667.662607 216.468062 
L 669.130886 222.43086 
L 669.913968 224.756749 
L 670.403394 225.62553 
L 670.794935 225.926727 
L 671.088591 225.912865 
L 671.382247 225.69774 
L 671.773788 225.114442 
L 672.263214 223.970438 
L 673.046296 221.463237 
L 674.514575 216.636658 
L 675.101886 215.362098 
L 675.591312 214.749665 
L 675.982853 214.566268 
L 676.374394 214.648259 
L 676.765935 214.988904 
L 677.255361 215.795853 
L 677.842673 217.298757 
L 678.625755 220.05642 
L 681.268656 230.298623 
L 681.758083 231.189987 
L 682.149624 231.523306 
L 682.443279 231.552902 
L 682.83482 231.320185 
L 683.324247 230.649733 
L 684.009443 229.183478 
L 686.652345 222.921794 
L 687.239657 222.241982 
L 687.631198 222.073824 
L 688.022738 222.182342 
L 688.414279 222.584248 
L 688.903706 223.493541 
L 689.491017 225.120189 
L 690.371984 228.354546 
L 691.938148 234.286236 
L 692.623345 236.061961 
L 693.210657 237.005465 
L 693.700083 237.38709 
L 694.091624 237.453519 
L 694.483165 237.327296 
L 694.972591 236.915708 
L 695.559902 236.103048 
L 696.44087 234.434904 
L 698.007034 231.409792 
L 698.49646 230.880935 
L 698.888001 230.726736 
L 699.279542 230.836841 
L 699.671083 231.214047 
L 700.160509 232.040905 
L 700.845706 233.734518 
L 703.880148 242.160957 
L 704.66323 243.402047 
L 705.250542 243.968613 
L 705.739968 244.142219 
L 706.131509 244.077344 
L 706.620935 243.754974 
L 707.208247 243.068339 
L 708.284984 241.352679 
L 709.068066 240.283451 
L 709.557493 239.930258 
L 709.949034 239.861106 
L 710.340575 239.981438 
L 710.830001 240.385675 
L 711.515198 241.332611 
L 712.591935 243.330122 
L 715.822148 249.577833 
L 716.40946 250.235392 
L 716.898886 250.516652 
L 717.388312 250.557141 
L 717.877739 250.380323 
L 718.562935 249.876543 
L 719.835444 248.895709 
L 720.422755 248.724827 
L 721.107952 248.773746 
L 721.891034 249.097806 
L 722.869886 249.758761 
L 723.848739 250.685322 
L 724.729706 251.841911 
L 726.100099 254.121059 
L 726.981067 255.382834 
L 727.666263 256.019126 
L 728.35146 256.360629 
L 729.134542 256.478979 
L 730.896476 256.633031 
L 732.364755 256.816553 
L 734.224575 256.971833 
L 734.909771 257.335779 
L 735.594968 257.97092 
L 736.573821 259.227131 
L 737.748444 260.646225 
L 738.825181 261.580502 
L 740.391345 262.595053 
L 741.761739 263.306579 
L 742.446935 263.42976 
L 743.327903 263.331249 
L 744.40464 263.192552 
L 745.089837 263.368695 
L 745.775034 263.808285 
L 746.558116 264.604402 
L 748.809476 267.103981 
L 750.865067 268.831644 
L 751.843919 269.433186 
L 752.627001 269.66852 
L 753.410083 269.674289 
L 754.780476 269.613516 
L 755.367788 269.848076 
L 756.052985 270.376088 
L 756.933952 271.369148 
L 759.870509 274.972047 
L 761.143017 276.136659 
L 761.926099 276.587828 
L 762.611296 276.713701 
L 763.296493 276.602091 
L 764.373231 276.142733 
L 765.254198 275.85705 
L 765.841509 275.926517 
L 766.428821 276.225884 
L 767.211903 276.915741 
L 768.190755 278.114209 
L 770.050575 280.851255 
L 771.812509 283.37709 
L 772.399821 283.905497 
L 772.987132 284.137596 
L 773.476558 284.108324 
L 774.06387 283.853705 
L 774.944837 283.178066 
L 776.11946 282.266998 
L 776.902542 281.965391 
L 777.587739 281.930075 
L 778.272936 282.108022 
L 778.958132 282.522356 
L 779.643329 283.246461 
L 780.328526 284.306504 
L 781.307378 286.28291 
L 782.971427 289.736975 
L 783.656624 290.579944 
L 784.243936 290.936289 
L 784.733362 290.997102 
L 785.320673 290.834826 
L 786.103755 290.331045 
L 787.669919 288.97138 
L 788.844542 288.078883 
L 789.431854 287.858848 
L 789.92128 287.905602 
L 790.410706 288.219141 
L 790.900132 288.804918 
L 791.585329 290.01888 
L 792.662067 292.510764 
L 793.934575 295.3786 
L 794.815542 296.800639 
L 795.598624 297.633063 
L 796.283821 298.044788 
L 796.871132 298.153934 
L 797.458444 298.006034 
L 798.143641 297.543691 
L 799.220378 296.448849 
L 800.199231 295.526402 
L 800.688657 295.314324 
L 801.178083 295.343628 
L 801.667509 295.618311 
L 802.254821 296.230543 
L 803.037903 297.400497 
L 806.659657 303.30078 
L 807.442739 304.034134 
L 808.03005 304.261934 
L 808.617362 304.209787 
L 809.302559 303.87389 
L 811.553919 302.447263 
L 812.239116 302.429686 
L 813.022198 302.676898 
L 814.00105 303.250617 
L 814.784132 303.908938 
L 815.567214 304.805455 
L 815.567214 304.805455 
" clip-path="url(#pe4433733c2)" style="fill: none; stroke: #0000ff; stroke-opacity: 0.7; stroke-width: 1.5; stroke-linecap: square"/>
   </g>
   <g id="line2d_38">
    <path d="M 457.209328 318.04 
L 457.209328 26.88 
" clip-path="url(#pe4433733c2)" style="fill: none; stroke-dasharray: 5.55,2.4; stroke-dashoffset: 0; stroke: #ff0000; stroke-width: 1.5"/>
   </g>
   <g id="patch_3">
    <path d="M 57.26 318.04 
L 57.26 26.88 
" style="fill: none; stroke: #000000; stroke-width: 0.8; stroke-linejoin: miter; stroke-linecap: square"/>
   </g>
   <g id="patch_4">
    <path d="M 851.677082 318.04 
L 851.677082 26.88 
" style="fill: none; stroke: #000000; stroke-width: 0.8; stroke-linejoin: miter; stroke-linecap: square"/>
   </g>
   <g id="patch_5">
    <path d="M 57.26 318.04 
L 851.677082 318.04 
" style="fill: none; stroke: #000000; stroke-width: 0.8; stroke-linejoin: miter; stroke-linecap: square"/>
   </g>
   <g id="patch_6">
    <path d="M 57.26 26.88 
L 851.677082 26.88 
" style="fill: none; stroke: #000000; stroke-width: 0.8; stroke-linejoin: miter; stroke-linecap: square"/>
   </g>
   <g id="text_21">
    <!-- Cross-correlation Analysis -->
    <g transform="translate(377.041353 20.88) scale(0.12 -0.12)">
     <defs>
      <path id="DejaVuSans-41" d="M 2188 4044 
L 1331 1722 
L 3047 1722 
L 2188 4044 
z
M 1831 4666 
L 2547 4666 
L 4325 0 
L 3669 0 
L 3244 1197 
L 1141 1197 
L 716 0 
L 50 0 
L 1831 4666 
z
" transform="scale(0.015625)"/>
      <path id="DejaVuSans-79" d="M 2059 -325 
Q 1816 -950 1584 -1140 
Q 1353 -1331 966 -1331 
L 506 -1331 
L 506 -850 
L 844 -850 
Q 1081 -850 1212 -737 
Q 1344 -625 1503 -206 
L 1606 56 
L 191 3500 
L 800 3500 
L 1894 763 
L 2988 3500 
L 3597 3500 
L 2059 -325 
z
" transform="scale(0.015625)"/>
     </defs>
     <use xlink:href="#DejaVuSans-43"/>
     <use xlink:href="#DejaVuSans-72" x="69.824219"/>
     <use xlink:href="#DejaVuSans-6f" x="108.6875"/>
     <use xlink:href="#DejaVuSans-73" x="169.869141"/>
     <use xlink:href="#DejaVuSans-73" x="221.96875"/>
     <use xlink:href="#DejaVuSans-2d" x="274.068359"/>
     <use xlink:href="#DejaVuSans-63" x="310.152344"/>
     <use xlink:href="#DejaVuSans-6f" x="365.132812"/>
     <use xlink:href="#DejaVuSans-72" x="426.314453"/>
     <use xlink:href="#DejaVuSans-72" x="465.677734"/>
     <use xlink:href="#DejaVuSans-65" x="504.541016"/>
     <use xlink:href="#DejaVuSans-6c" x="566.064453"/>
     <use xlink:href="#DejaVuSans-61" x="593.847656"/>
     <use xlink:href="#DejaVuSans-74" x="655.126953"/>
     <use xlink:href="#DejaVuSans-69" x="694.335938"/>
     <use xlink:href="#DejaVuSans-6f" x="722.119141"/>
     <use xlink:href="#DejaVuSans-6e" x="783.300781"/>
     <use xlink:href="#DejaVuSans-20" x="846.679688"/>
     <use xlink:href="#DejaVuSans-41" x="878.466797"/>
     <use xlink:href="#DejaVuSans-6e" x="946.875"/>
     <use xlink:href="#DejaVuSans-61" x="1010.253906"/>
     <use xlink:href="#DejaVuSans-6c" x="1071.533203"/>
     <use xlink:href="#DejaVuSans-79" x="1099.316406"/>
     <use xlink:href="#DejaVuSans-73" x="1158.496094"/>
     <use xlink:href="#DejaVuSans-69" x="1210.595703"/>
     <use xlink:href="#DejaVuSans-73" x="1238.378906"/>
    </g>
   </g>
   <g id="legend_1">
    <g id="patch_7">
     <path d="M 646.139582 49.558125 
L 844.677082 49.558125 
Q 846.677082 49.558125 846.677082 47.558125 
L 846.677082 33.88 
Q 846.677082 31.88 844.677082 31.88 
L 646.139582 31.88 
Q 644.139582 31.88 644.139582 33.88 
L 644.139582 47.558125 
Q 644.139582 49.558125 646.139582 49.558125 
z
" style="fill: #ffffff; opacity: 0.8; stroke: #cccccc; stroke-linejoin: miter"/>
    </g>
    <g id="line2d_39">
     <path d="M 648.139582 39.978438 
L 658.139582 39.978438 
L 668.139582 39.978438 
" style="fill: none; stroke-dasharray: 5.55,2.4; stroke-dashoffset: 0; stroke: #ff0000; stroke-width: 1.5"/>
    </g>
    <g id="text_22">
     <!-- Best lag = 280 ms (corr = 0.178) -->
     <g transform="translate(676.139582 43.478438) scale(0.1 -0.1)">
      <defs>
       <path id="DejaVuSans-42" d="M 1259 2228 
L 1259 519 
L 2272 519 
Q 2781 519 3026 730 
Q 3272 941 3272 1375 
Q 3272 1813 3026 2020 
Q 2781 2228 2272 2228 
L 1259 2228 
z
M 1259 4147 
L 1259 2741 
L 2194 2741 
Q 2656 2741 2882 2914 
Q 3109 3088 3109 3444 
Q 3109 3797 2882 3972 
Q 2656 4147 2194 4147 
L 1259 4147 
z
M 628 4666 
L 2241 4666 
Q 2963 4666 3353 4366 
Q 3744 4066 3744 3513 
Q 3744 3084 3544 2831 
Q 3344 2578 2956 2516 
Q 3422 2416 3680 2098 
Q 3938 1781 3938 1306 
Q 3938 681 3513 340 
Q 3088 0 2303 0 
L 628 0 
L 628 4666 
z
" transform="scale(0.015625)"/>
       <path id="DejaVuSans-3d" d="M 678 2906 
L 4684 2906 
L 4684 2381 
L 678 2381 
L 678 2906 
z
M 678 1631 
L 4684 1631 
L 4684 1100 
L 678 1100 
L 678 1631 
z
" transform="scale(0.015625)"/>
       <path id="DejaVuSans-2e" d="M 684 794 
L 1344 794 
L 1344 0 
L 684 0 
L 684 794 
z
" transform="scale(0.015625)"/>
      </defs>
      <use xlink:href="#DejaVuSans-42"/>
      <use xlink:href="#DejaVuSans-65" x="68.603516"/>
      <use xlink:href="#DejaVuSans-73" x="130.126953"/>
      <use xlink:href="#DejaVuSans-74" x="182.226562"/>
      <use xlink:href="#DejaVuSans-20" x="221.435547"/>
      <use xlink:href="#DejaVuSans-6c" x="253.222656"/>
      <use xlink:href="#DejaVuSans-61" x="281.005859"/>
      <use xlink:href="#DejaVuSans-67" x="342.285156"/>
      <use xlink:href="#DejaVuSans-20" x="405.761719"/>
      <use xlink:href="#DejaVuSans-3d" x="437.548828"/>
      <use xlink:href="#DejaVuSans-20" x="521.337891"/>
      <use xlink:href="#DejaVuSans-32" x="553.125"/>
      <use xlink:href="#DejaVuSans-38" x="616.748047"/>
      <use xlink:href="#DejaVuSans-30" x="680.371094"/>
      <use xlink:href="#DejaVuSans-20" x="743.994141"/>
      <use xlink:href="#DejaVuSans-6d" x="775.78125"/>
      <use xlink:href="#DejaVuSans-73" x="873.193359"/>
      <use xlink:href="#DejaVuSans-20" x="925.292969"/>
      <use xlink:href="#DejaVuSans-28" x="957.080078"/>
      <use xlink:href="#DejaVuSans-63" x="996.09375"/>
      <use xlink:href="#DejaVuSans-6f" x="1051.074219"/>
      <use xlink:href="#DejaVuSans-72" x="1112.255859"/>
      <use xlink:href="#DejaVuSans-72" x="1151.619141"/>
      <use xlink:href="#DejaVuSans-20" x="1192.732422"/>
      <use xlink:href="#DejaVuSans-3d" x="1224.519531"/>
      <use xlink:href="#DejaVuSans-20" x="1308.308594"/>
      <use xlink:href="#DejaVuSans-30" x="1340.095703"/>
      <use xlink:href="#DejaVuSans-2e" x="1403.71875"/>
      <use xlink:href="#DejaVuSans-31" x="1435.505859"/>
      <use xlink:href="#DejaVuSans-37" x="1499.128906"/>
      <use xlink:href="#DejaVuSans-38" x="1562.751953"/>
      <use xlink:href="#DejaVuSans-29" x="1626.375"/>
     </g>
    </g>
   </g>
  </g>
 </g>
 <defs>
  <clipPath id="pe4433733c2">
   <rect x="57.26" y="26.88" width="794.417082" height="291.16"/>
  </clipPath>
 </defs>
</svg>
